0
SECTION
2
HEADER
9
$INSUNITS
70
4
9
$ACADVER
1
AC1014
9
$HANDSEED
5
FFFF
0
ENDSEC
0
SECTION
2
TABLES
0
TABLE
2
VPORT
5
8
100
AcDbSymbolTable
0
ENDTAB
0
TABLE
2
LTYPE
5
5
100
AcDbSymbolTable
0
LTYPE
5
14
100
AcDbSymbolTableRecord
100
AcDbLinetypeTableRecord
2
BYBLOCK
70
0
0
LTYPE
5
15
100
AcDbSymbolTableRecord
100
AcDbLinetypeTableRecord
2
BYLAYER
70
0
0
ENDTAB
0
TABLE
2
LAYER
5
2
100
AcDbSymbolTable
70
2
0
LAYER
5
50
100
AcDbSymbolTableRecord
100
AcDbLayerTableRecord
2
0
70
0
6
CONTINUOUS
0
ENDTAB
0
TABLE
2
STYLE
5
3
100
AcDbSymbolTable
70
1
0
STYLE
5
11
100
AcDbSymbolTableRecord
100
AcDbTextStyleTableRecord
2
STANDARD
70
0
0
ENDTAB
0
TABLE
2
VIEW
5
6
100
AcDbSymbolTable
70
0
0
ENDTAB
0
TABLE
2
UCS
5
7
100
AcDbSymbolTable
70
0
0
ENDTAB
0
TABLE
2
APPID
5
9
100
AcDbSymbolTable
70
2
0
APPID
5
12
100
AcDbSymbolTableRecord
100
AcDbRegAppTableRecord
2
ACAD
70
0
0
ENDTAB
0
TABLE
2
DIMSTYLE
5
A
100
AcDbSymbolTable
70
1
0
ENDTAB
0
TABLE
2
BLOCK_RECORD
5
1
100
AcDbSymbolTable
70
1
0
BLOCK_RECORD
5
1F
100
AcDbSymbolTableRecord
100
AcDbBlockTableRecord
2
*MODEL_SPACE
0
BLOCK_RECORD
5
1B
100
AcDbSymbolTableRecord
100
AcDbBlockTableRecord
2
*PAPER_SPACE
0
ENDTAB
0
ENDSEC
0
SECTION
2
BLOCKS
0
BLOCK
5
20
100
AcDbEntity
100
AcDbBlockBegin
2
*MODEL_SPACE
0
ENDBLK
5
21
100
AcDbEntity
100
AcDbBlockEnd
0
BLOCK
5
1C
100
AcDbEntity
100
AcDbBlockBegin
2
*PAPER_SPACE
0
ENDBLK
5
1D
100
AcDbEntity
100
AcDbBlockEnd
0
ENDSEC
0
SECTION
2
ENTITIES
0
LWPOLYLINE
5
100
100
AcDbEntity
8
0
100
AcDbPolyline
90
33
70
1
43
0.0
10
-222.29621816356786
20
135.56130546219751
42
0.41421356237309154
10
-221.56389795819899
20
132.82932685378779
10
-190.8001719011655
20
115.07192582529646
42
-0.26797561447032842
10
-189.80000110268594
20
113.33977641840715
10
-189.80000110268591
20
69.299997123330826
42
-0.41421356237309503
10
-191.80000110268591
20
67.299997123330812
10
-227.0000011026859
20
67.299997123330826
42
0.41421356237309503
10
-229.0000011026859
20
65.299997123330826
10
-229.00000110268593
20
24.349997123330827
42
0.41421356237309503
10
-227.00000110268593
20
22.349997123330823
10
-189.16499828228297
20
22.349997123330823
42
-0.41420349391244471
10
-187.16499828346468
20
20.350065875325356
10
-187.16488999708375
20
17.200008001665893
42
0.41424982798993459
10
-185.16486038133939
20
15.20001000487362
10
-184.065
20
15.199999999999999
10
-184.06499999999997
20
21.300000000000004
42
-0.99999999999999989
10
-183.565
20
21.300000000000004
10
-175.36500000000001
20
21.300000000000004
42
-0.99999999999999989
10
-174.86500000000004
20
21.300000000000004
10
-174.86500000000004
20
15.199999999999999
10
-173.76506981107568
20
15.199960001218432
42
0.4142391223592039
10
-171.76506000274148
20
17.200004716613478
10
-171.76495171431674
20
20.350065876551291
42
-0.41420349373291132
10
-169.76495171549851
20
22.349997123330819
10
-129.5119657563539
20
22.349997123330816
42
0.091584405585446796
10
-74.755507508400896
20
32.464510018192826
42
0.31083738429570995
10
-73.470001102685927
20
34.33253006726234
10
-73.470001102685941
20
126.72999712333082
42
0.41421356237309503
10
-75.470001102685927
20
128.7299971233308
10
-150.59348091136471
20
128.7299971233308
42
-0.13162741845672388
10
-198.66738679370195
20
141.60882101060051
10
-212.0405257956206
20
149.32804825331402
42
0.41421356237309731
10
-214.77250440403037
20
148.59572804794513
0
ENDSEC
0
SECTION
2
OBJECTS
0
DICTIONARY
5
C
100
AcDbDictionary
3
ACAD_GROUP
350
D
3
ACAD_MLINESTYLE
350
17
0
DICTIONARY
5
D
100
AcDbDictionary
0
DICTIONARY
5
1A
330
C
100
AcDbDictionary
0
DICTIONARY
5
17
100
AcDbDictionary
0
ENDSEC
0
EOF
