  0
SECTION
  2
HEADER
  9
$ANGBASE
  50
0.0
  9
$ANGDIR
  70
1
  9
$MEASUREMENT
  70
1
  0
ENDSEC
  0
SECTION
  2
TABLES
  0
TABLE
  2
LTYPE
  70
4
  0
LTYPE
  5
40F
  2
CONTINUOUS
  70
0
  3
Solid line
  72
65
  73
0
  40
0.0
  0
LTYPE
  5
410
  2
DASHDOT
 70
0
  3
Dash Dot ____ _ ____ _
 72
65
 73
4
 40
2.0
 49
1.25
 49
-0.25
 49
0.25
 49
-0.25
  0
LTYPE
  5
411
  2
DASHED
 70
0
  3
Dashed __ __ __ __ __
 72
65
 73
2
 40
0.75
 49
0.5
 49
-0.25
  0
LTYPE
  5
43B
  2
DOTTED
 70
0
  3
Dotted .  .  .  .
 72
65
 73
2
 40
0.2
 49
0.0
 49
-0.2
  0
ENDTAB
  0
TABLE
  2
STYLE
  70
4
  0
STYLE
  2
KICAD
  70
0
  40
0
  41
1
  42
1
  50
0
  71
0
  3
isocp.shx
  0
STYLE
  2
KICADB
  70
0
  40
0
  41
1
  42
1
  50
0
  71
0
  3
isocp.shx
  0
STYLE
  2
KICADI
  70
0
  40
0
  41
1
  42
1
  50
15
  71
0
  3
isocp.shx
  0
STYLE
  2
KICADBI
  70
0
  40
0
  41
1
  42
1
  50
15
  71
0
  3
isocp.shx
  0
ENDTAB
  0
TABLE
  2
LAYER
  70
1
  0
LAYER
  2
BLACK
  70
0
  62
7
  6
CONTINUOUS
  0
ENDTAB
  0
ENDSEC
  0
SECTION
  2
ENTITIES
0
LINE
8
BLACK
6
CONTINUOUS
10
307.99
20
-150.735
11
308.145
21
-150.799
0
LINE
8
BLACK
6
CONTINUOUS
10
308.145
20
-150.799
11
308.284
21
-150.892
0
LINE
8
BLACK
6
CONTINUOUS
10
308.284
20
-150.892
11
308.402
21
-151.01
0
LINE
8
BLACK
6
CONTINUOUS
10
308.402
20
-151.01
11
308.495
21
-151.149
0
LINE
8
BLACK
6
CONTINUOUS
10
308.495
20
-151.149
11
308.559
21
-151.304
0
LINE
8
BLACK
6
CONTINUOUS
10
308.559
20
-151.304
11
308.592
21
-151.468
0
LINE
8
BLACK
6
CONTINUOUS
10
308.592
20
-151.468
11
308.592
21
-151.636
0
LINE
8
BLACK
6
CONTINUOUS
10
308.592
20
-151.636
11
308.559
21
-151.8
0
LINE
8
BLACK
6
CONTINUOUS
10
308.559
20
-151.8
11
308.495
21
-151.955
0
LINE
8
BLACK
6
CONTINUOUS
10
308.495
20
-151.955
11
308.402
21
-152.094
0
LINE
8
BLACK
6
CONTINUOUS
10
308.402
20
-152.094
11
308.284
21
-152.212
0
LINE
8
BLACK
6
CONTINUOUS
10
308.284
20
-152.212
11
308.145
21
-152.305
0
LINE
8
BLACK
6
CONTINUOUS
10
308.145
20
-152.305
11
307.99
21
-152.369
0
LINE
8
BLACK
6
CONTINUOUS
10
307.99
20
-152.369
11
307.826
21
-152.402
0
LINE
8
BLACK
6
CONTINUOUS
10
307.826
20
-152.402
11
307.658
21
-152.402
0
LINE
8
BLACK
6
CONTINUOUS
10
307.658
20
-152.402
11
307.494
21
-152.369
0
LINE
8
BLACK
6
CONTINUOUS
10
307.494
20
-152.369
11
307.339
21
-152.305
0
LINE
8
BLACK
6
CONTINUOUS
10
307.339
20
-152.305
11
307.2
21
-152.212
0
LINE
8
BLACK
6
CONTINUOUS
10
307.2
20
-152.212
11
307.082
21
-152.094
0
LINE
8
BLACK
6
CONTINUOUS
10
307.082
20
-152.094
11
306.989
21
-151.955
0
LINE
8
BLACK
6
CONTINUOUS
10
306.989
20
-151.955
11
306.925
21
-151.8
0
LINE
8
BLACK
6
CONTINUOUS
10
306.925
20
-151.8
11
306.892
21
-151.636
0
LINE
8
BLACK
6
CONTINUOUS
10
306.892
20
-151.636
11
306.892
21
-151.468
0
LINE
8
BLACK
6
CONTINUOUS
10
306.892
20
-151.468
11
306.925
21
-151.304
0
LINE
8
BLACK
6
CONTINUOUS
10
306.925
20
-151.304
11
306.989
21
-151.149
0
LINE
8
BLACK
6
CONTINUOUS
10
306.989
20
-151.149
11
307.082
21
-151.01
0
LINE
8
BLACK
6
CONTINUOUS
10
307.082
20
-151.01
11
307.2
21
-150.892
0
LINE
8
BLACK
6
CONTINUOUS
10
307.2
20
-150.892
11
307.339
21
-150.799
0
LINE
8
BLACK
6
CONTINUOUS
10
307.339
20
-150.799
11
307.494
21
-150.735
0
LINE
8
BLACK
6
CONTINUOUS
10
307.494
20
-150.735
11
307.658
21
-150.702
0
LINE
8
BLACK
6
CONTINUOUS
10
307.658
20
-150.702
11
307.826
21
-150.702
0
LINE
8
BLACK
6
CONTINUOUS
10
307.826
20
-150.702
11
307.99
21
-150.735
0
LINE
8
BLACK
6
CONTINUOUS
10
310.53
20
-150.735
11
310.685
21
-150.799
0
LINE
8
BLACK
6
CONTINUOUS
10
310.685
20
-150.799
11
310.824
21
-150.892
0
LINE
8
BLACK
6
CONTINUOUS
10
310.824
20
-150.892
11
310.942
21
-151.01
0
LINE
8
BLACK
6
CONTINUOUS
10
310.942
20
-151.01
11
311.035
21
-151.149
0
LINE
8
BLACK
6
CONTINUOUS
10
311.035
20
-151.149
11
311.099
21
-151.304
0
LINE
8
BLACK
6
CONTINUOUS
10
311.099
20
-151.304
11
311.132
21
-151.468
0
LINE
8
BLACK
6
CONTINUOUS
10
311.132
20
-151.468
11
311.132
21
-151.636
0
LINE
8
BLACK
6
CONTINUOUS
10
311.132
20
-151.636
11
311.099
21
-151.8
0
LINE
8
BLACK
6
CONTINUOUS
10
311.099
20
-151.8
11
311.035
21
-151.955
0
LINE
8
BLACK
6
CONTINUOUS
10
311.035
20
-151.955
11
310.942
21
-152.094
0
LINE
8
BLACK
6
CONTINUOUS
10
310.942
20
-152.094
11
310.824
21
-152.212
0
LINE
8
BLACK
6
CONTINUOUS
10
310.824
20
-152.212
11
310.685
21
-152.305
0
LINE
8
BLACK
6
CONTINUOUS
10
310.685
20
-152.305
11
310.53
21
-152.369
0
LINE
8
BLACK
6
CONTINUOUS
10
310.53
20
-152.369
11
310.366
21
-152.402
0
LINE
8
BLACK
6
CONTINUOUS
10
310.366
20
-152.402
11
310.198
21
-152.402
0
LINE
8
BLACK
6
CONTINUOUS
10
310.198
20
-152.402
11
310.034
21
-152.369
0
LINE
8
BLACK
6
CONTINUOUS
10
310.034
20
-152.369
11
309.879
21
-152.305
0
LINE
8
BLACK
6
CONTINUOUS
10
309.879
20
-152.305
11
309.74
21
-152.212
0
LINE
8
BLACK
6
CONTINUOUS
10
309.74
20
-152.212
11
309.622
21
-152.094
0
LINE
8
BLACK
6
CONTINUOUS
10
309.622
20
-152.094
11
309.529
21
-151.955
0
LINE
8
BLACK
6
CONTINUOUS
10
309.529
20
-151.955
11
309.465
21
-151.8
0
LINE
8
BLACK
6
CONTINUOUS
10
309.465
20
-151.8
11
309.432
21
-151.636
0
LINE
8
BLACK
6
CONTINUOUS
10
309.432
20
-151.636
11
309.432
21
-151.468
0
LINE
8
BLACK
6
CONTINUOUS
10
309.432
20
-151.468
11
309.465
21
-151.304
0
LINE
8
BLACK
6
CONTINUOUS
10
309.465
20
-151.304
11
309.529
21
-151.149
0
LINE
8
BLACK
6
CONTINUOUS
10
309.529
20
-151.149
11
309.622
21
-151.01
0
LINE
8
BLACK
6
CONTINUOUS
10
309.622
20
-151.01
11
309.74
21
-150.892
0
LINE
8
BLACK
6
CONTINUOUS
10
309.74
20
-150.892
11
309.879
21
-150.799
0
LINE
8
BLACK
6
CONTINUOUS
10
309.879
20
-150.799
11
310.034
21
-150.735
0
LINE
8
BLACK
6
CONTINUOUS
10
310.034
20
-150.735
11
310.198
21
-150.702
0
LINE
8
BLACK
6
CONTINUOUS
10
310.198
20
-150.702
11
310.366
21
-150.702
0
LINE
8
BLACK
6
CONTINUOUS
10
310.366
20
-150.702
11
310.53
21
-150.735
0
LINE
8
BLACK
6
CONTINUOUS
10
313.07
20
-150.735
11
313.225
21
-150.799
0
LINE
8
BLACK
6
CONTINUOUS
10
313.225
20
-150.799
11
313.364
21
-150.892
0
LINE
8
BLACK
6
CONTINUOUS
10
313.364
20
-150.892
11
313.482
21
-151.01
0
LINE
8
BLACK
6
CONTINUOUS
10
313.482
20
-151.01
11
313.575
21
-151.149
0
LINE
8
BLACK
6
CONTINUOUS
10
313.575
20
-151.149
11
313.639
21
-151.304
0
LINE
8
BLACK
6
CONTINUOUS
10
313.639
20
-151.304
11
313.672
21
-151.468
0
LINE
8
BLACK
6
CONTINUOUS
10
313.672
20
-151.468
11
313.672
21
-151.636
0
LINE
8
BLACK
6
CONTINUOUS
10
313.672
20
-151.636
11
313.639
21
-151.8
0
LINE
8
BLACK
6
CONTINUOUS
10
313.639
20
-151.8
11
313.575
21
-151.955
0
LINE
8
BLACK
6
CONTINUOUS
10
313.575
20
-151.955
11
313.482
21
-152.094
0
LINE
8
BLACK
6
CONTINUOUS
10
313.482
20
-152.094
11
313.364
21
-152.212
0
LINE
8
BLACK
6
CONTINUOUS
10
313.364
20
-152.212
11
313.225
21
-152.305
0
LINE
8
BLACK
6
CONTINUOUS
10
313.225
20
-152.305
11
313.07
21
-152.369
0
LINE
8
BLACK
6
CONTINUOUS
10
313.07
20
-152.369
11
312.906
21
-152.402
0
LINE
8
BLACK
6
CONTINUOUS
10
312.906
20
-152.402
11
312.738
21
-152.402
0
LINE
8
BLACK
6
CONTINUOUS
10
312.738
20
-152.402
11
312.574
21
-152.369
0
LINE
8
BLACK
6
CONTINUOUS
10
312.574
20
-152.369
11
312.419
21
-152.305
0
LINE
8
BLACK
6
CONTINUOUS
10
312.419
20
-152.305
11
312.28
21
-152.212
0
LINE
8
BLACK
6
CONTINUOUS
10
312.28
20
-152.212
11
312.162
21
-152.094
0
LINE
8
BLACK
6
CONTINUOUS
10
312.162
20
-152.094
11
312.069
21
-151.955
0
LINE
8
BLACK
6
CONTINUOUS
10
312.069
20
-151.955
11
312.005
21
-151.8
0
LINE
8
BLACK
6
CONTINUOUS
10
312.005
20
-151.8
11
311.972
21
-151.636
0
LINE
8
BLACK
6
CONTINUOUS
10
311.972
20
-151.636
11
311.972
21
-151.468
0
LINE
8
BLACK
6
CONTINUOUS
10
311.972
20
-151.468
11
312.005
21
-151.304
0
LINE
8
BLACK
6
CONTINUOUS
10
312.005
20
-151.304
11
312.069
21
-151.149
0
LINE
8
BLACK
6
CONTINUOUS
10
312.069
20
-151.149
11
312.162
21
-151.01
0
LINE
8
BLACK
6
CONTINUOUS
10
312.162
20
-151.01
11
312.28
21
-150.892
0
LINE
8
BLACK
6
CONTINUOUS
10
312.28
20
-150.892
11
312.419
21
-150.799
0
LINE
8
BLACK
6
CONTINUOUS
10
312.419
20
-150.799
11
312.574
21
-150.735
0
LINE
8
BLACK
6
CONTINUOUS
10
312.574
20
-150.735
11
312.738
21
-150.702
0
LINE
8
BLACK
6
CONTINUOUS
10
312.738
20
-150.702
11
312.906
21
-150.702
0
LINE
8
BLACK
6
CONTINUOUS
10
312.906
20
-150.702
11
313.07
21
-150.735
0
LINE
8
BLACK
6
CONTINUOUS
10
316.212
20
-152.402
11
314.512
21
-152.402
0
LINE
8
BLACK
6
CONTINUOUS
10
314.512
20
-152.402
11
314.512
21
-150.702
0
LINE
8
BLACK
6
CONTINUOUS
10
314.512
20
-150.702
11
316.212
21
-150.702
0
LINE
8
BLACK
6
CONTINUOUS
10
316.212
20
-150.702
11
316.212
21
-152.402
  0
ENDSEC
  0
EOF
