0
SECTION
2
HEADER
9
$INSUNITS
70
4
9
$ACADVER
1
AC1014
9
$HANDSEED
5
FFFF
0
ENDSEC
0
SECTION
2
TABLES
0
TABLE
2
VPORT
5
8
100
AcDbSymbolTable
0
ENDTAB
0
TABLE
2
LTYPE
5
5
100
AcDbSymbolTable
0
LTYPE
5
14
100
AcDbSymbolTableRecord
100
AcDbLinetypeTableRecord
2
BYBLOCK
70
0
0
LTYPE
5
15
100
AcDbSymbolTableRecord
100
AcDbLinetypeTableRecord
2
BYLAYER
70
0
0
ENDTAB
0
TABLE
2
LAYER
5
2
100
AcDbSymbolTable
70
2
0
LAYER
5
50
100
AcDbSymbolTableRecord
100
AcDbLayerTableRecord
2
0
70
0
6
CONTINUOUS
0
ENDTAB
0
TABLE
2
STYLE
5
3
100
AcDbSymbolTable
70
1
0
STYLE
5
11
100
AcDbSymbolTableRecord
100
AcDbTextStyleTableRecord
2
STANDARD
70
0
0
ENDTAB
0
TABLE
2
VIEW
5
6
100
AcDbSymbolTable
70
0
0
ENDTAB
0
TABLE
2
UCS
5
7
100
AcDbSymbolTable
70
0
0
ENDTAB
0
TABLE
2
APPID
5
9
100
AcDbSymbolTable
70
2
0
APPID
5
12
100
AcDbSymbolTableRecord
100
AcDbRegAppTableRecord
2
ACAD
70
0
0
ENDTAB
0
TABLE
2
DIMSTYLE
5
A
100
AcDbSymbolTable
70
1
0
ENDTAB
0
TABLE
2
BLOCK_RECORD
5
1
100
AcDbSymbolTable
70
1
0
BLOCK_RECORD
5
1F
100
AcDbSymbolTableRecord
100
AcDbBlockTableRecord
2
*MODEL_SPACE
0
BLOCK_RECORD
5
1B
100
AcDbSymbolTableRecord
100
AcDbBlockTableRecord
2
*PAPER_SPACE
0
ENDTAB
0
ENDSEC
0
SECTION
2
BLOCKS
0
BLOCK
5
20
100
AcDbEntity
100
AcDbBlockBegin
2
*MODEL_SPACE
0
ENDBLK
5
21
100
AcDbEntity
100
AcDbBlockEnd
0
BLOCK
5
1C
100
AcDbEntity
100
AcDbBlockBegin
2
*PAPER_SPACE
0
ENDBLK
5
1D
100
AcDbEntity
100
AcDbBlockEnd
0
ENDSEC
0
SECTION
2
ENTITIES
0
LWPOLYLINE
5
100
100
AcDbEntity
8
0
100
AcDbPolyline
90
29
70
1
43
0.0
10
-50.070360182738646
20
61.579584592652125
42
-0.41421356237309054
10
-48.703671215132331
20
61.943124502184986
10
-25.723729275260077
20
48.619854144056802
42
0.13211443591311212
10
-25.222157647703121
20
48.4849685826306
10
69.999758639003687
20
48.484692298168319
42
-0.41421271550767363
10
70.999755737523941
20
47.484692288073028
10
70.999754798120676
20
-45.530319645319565
42
-0.41421314653592056
10
69.999756207778304
20
-46.530319635219087
10
37.405453375530406
20
-46.530365582026548
42
0.1994287759548298
10
36.696943512368563
20
-46.824666087702553
10
29.23805172085509
20
-54.313276975963952
42
-0.19942930177817361
10
28.529539834852198
20
-54.60757748164076
10
-68.074244863815423
20
-54.607518245799369
42
-0.41421338097411331
10
-69.074244250631978
20
-53.607518251950992
10
-69.074244321361746
20
-42.109416406249991
10
-66.449244232177733
20
-42.109416406249991
10
-66.449244232177733
20
-47.834416406249993
10
-45.079244232177729
20
-47.83441640625
42
0.99999999999999989
10
-45.079244232177729
20
-43.614416406249994
10
-46.939244232177728
20
-43.614416406249994
10
-46.939244232177728
20
-24.604416406249989
10
-45.079244232177729
20
-24.604416406249996
42
0.99999999999999989
10
-45.079244232177729
20
-20.38441640624999
10
-66.449244232177733
20
-20.38441640624999
10
-66.449244232177733
20
-26.109416406249998
10
-69.074244419784563
20
-26.109416406249998
10
-69.074244755728103
20
28.502869306592142
10
-69.074244755728131
20
28.532809816695046
42
-0.13211517394393693
10
-68.939359194297722
20
29.03438434573177
0
LWPOLYLINE
5
101
100
AcDbEntity
8
0
100
AcDbPolyline
90
4
70
1
43
0.0
10
29.73075576782227
20
-49.749416406249992
10
29.73075576782227
20
-35.749416406249992
10
15.730755767822284
20
-35.749416406249992
10
15.730755767822284
20
-49.749416406249992
0
LWPOLYLINE
5
102
100
AcDbEntity
8
0
100
AcDbPolyline
90
4
70
1
43
0.0
10
-64.983244232177739
20
28.722683593750009
10
-54.634244232177736
20
22.747683593750025
10
-48.509244232177764
20
33.356683593750006
10
-58.858244232177768
20
39.331683593750014
0
LWPOLYLINE
5
103
100
AcDbEntity
8
0
100
AcDbPolyline
90
4
70
1
43
0.0
10
67.830755767822268
20
-44.669416406249994
10
67.830755767822268
20
-30.669416406249983
10
53.830755767822268
20
-30.669416406249983
10
53.830755767822268
20
-44.669416406249994
0
LWPOLYLINE
5
104
100
AcDbEntity
8
0
100
AcDbPolyline
90
4
70
1
43
0.0
10
29.73075576782227
20
-30.699416406249984
10
29.73075576782227
20
-16.699416406249988
10
15.730755767822284
20
-16.699416406249988
10
15.730755767822284
20
-30.699416406249984
0
LWPOLYLINE
5
105
100
AcDbEntity
8
0
100
AcDbPolyline
90
4
70
1
43
0.0
10
-12.844244232177715
20
30.895683593750007
10
1.1557557678222707
20
30.895683593750007
10
1.1557557678222707
20
44.895683593750007
10
-12.844244232177715
20
44.895683593750007
0
LWPOLYLINE
5
106
100
AcDbEntity
8
0
100
AcDbPolyline
90
4
70
1
43
0.0
10
10.680755767822276
20
-33.239416406250001
10
10.680755767822276
20
-19.239416406249994
10
-3.3192442321777271
20
-19.239416406249994
10
-3.3192442321777271
20
-33.239416406250001
0
LWPOLYLINE
5
107
100
AcDbEntity
8
0
100
AcDbPolyline
90
4
70
1
43
0.0
10
67.830755767822268
20
31.530683593750002
10
67.830755767822268
20
45.530683593750027
10
53.830755767822268
20
45.530683593750027
10
53.830755767822268
20
31.530683593750002
0
LWPOLYLINE
5
108
100
AcDbEntity
8
0
100
AcDbPolyline
90
4
70
1
43
0.0
10
29.73075576782227
20
7.4006835937500171
10
29.73075576782227
20
21.400683593750021
10
15.730755767822284
20
21.400683593750021
10
15.730755767822284
20
7.4006835937500171
0
LWPOLYLINE
5
109
100
AcDbEntity
8
0
100
AcDbPolyline
90
4
70
1
43
0.0
10
-8.3692442321777349
20
6.7656835937500048
10
-8.3692442321777349
20
20.765683593750008
10
-22.369244232177721
20
20.765683593750008
10
-22.369244232177721
20
6.7656835937500048
0
LWPOLYLINE
5
110
100
AcDbEntity
8
0
100
AcDbPolyline
90
4
70
1
43
0.0
10
67.830755767822268
20
-25.619416406249993
10
67.830755767822268
20
-11.619416406249989
10
53.830755767822268
20
-11.619416406249989
10
53.830755767822268
20
-25.619416406249993
0
LWPOLYLINE
5
111
100
AcDbEntity
8
0
100
AcDbPolyline
90
4
70
1
43
0.0
10
67.830755767822268
20
12.480683593750008
10
67.830755767822268
20
26.480683593750012
10
53.830755767822268
20
26.480683593750012
10
53.830755767822268
20
12.480683593750008
0
LWPOLYLINE
5
112
100
AcDbEntity
8
0
100
AcDbPolyline
90
4
70
1
43
0.0
10
29.73075576782227
20
-11.649416406249991
10
29.73075576782227
20
2.350583593750013
10
15.730755767822284
20
2.350583593750013
10
15.730755767822284
20
-11.649416406249991
0
LWPOLYLINE
5
113
100
AcDbEntity
8
0
100
AcDbPolyline
90
4
70
1
43
0.0
10
48.780755767822285
20
-44.669416406249994
10
48.780755767822285
20
-30.669416406249983
10
34.780755767822278
20
-30.669416406249983
10
34.780755767822278
20
-44.669416406249994
0
LWPOLYLINE
5
114
100
AcDbEntity
8
0
100
AcDbPolyline
90
4
70
1
43
0.0
10
-8.3692442321777349
20
-50.38441640624999
10
-8.3692442321777349
20
-36.384416406249983
10
-22.369244232177721
20
-36.384416406249983
10
-22.369244232177721
20
-50.38441640624999
0
LWPOLYLINE
5
115
100
AcDbEntity
8
0
100
AcDbPolyline
90
4
70
1
43
0.0
10
-3.3192442321777271
20
4.8606835937500037
10
10.680755767822276
20
4.8606835937500037
10
10.680755767822276
20
18.860683593750007
10
-3.3192442321777271
20
18.860683593750007
0
LWPOLYLINE
5
116
100
AcDbEntity
8
0
100
AcDbPolyline
90
4
70
1
43
0.0
10
67.830755767822268
20
-6.5694164062499993
10
67.830755767822268
20
7.4306835937500182
10
53.830755767822268
20
7.4306835937500182
10
53.830755767822268
20
-6.5694164062499993
0
LWPOLYLINE
5
117
100
AcDbEntity
8
0
100
AcDbPolyline
90
4
70
1
43
0.0
10
34.780755767822278
20
-6.5694164062499993
10
48.780755767822285
20
-6.5694164062499993
10
48.780755767822285
20
7.4306835937500182
10
34.780755767822278
20
7.4306835937500182
0
LWPOLYLINE
5
118
100
AcDbEntity
8
0
100
AcDbPolyline
90
4
70
1
43
0.0
10
34.780755767822278
20
31.530683593750002
10
48.780755767822285
20
31.530683593750002
10
48.780755767822285
20
45.530683593750027
10
34.780755767822278
20
45.530683593750027
0
LWPOLYLINE
5
119
100
AcDbEntity
8
0
100
AcDbPolyline
90
4
70
1
43
0.0
10
48.780755767822285
20
-25.619416406249993
10
48.780755767822285
20
-11.619416406249989
10
34.780755767822278
20
-11.619416406249989
10
34.780755767822278
20
-25.619416406249993
0
LWPOLYLINE
5
120
100
AcDbEntity
8
0
100
AcDbPolyline
90
4
70
1
43
0.0
10
10.680755767822276
20
-52.289416406249991
10
10.680755767822276
20
-38.289416406249984
10
-3.3192442321777271
20
-38.289416406249984
10
-3.3192442321777271
20
-52.289416406249991
0
LWPOLYLINE
5
121
100
AcDbEntity
8
0
100
AcDbPolyline
90
4
70
1
43
0.0
10
-27.419244232177746
20
-48.479416406249996
10
-27.419244232177746
20
-34.479416406249996
10
-41.419244232177732
20
-34.479416406249996
10
-41.419244232177732
20
-48.479416406249996
0
LWPOLYLINE
5
122
100
AcDbEntity
8
0
100
AcDbPolyline
90
4
70
1
43
0.0
10
10.680755767822276
20
-14.189416406250004
10
10.680755767822276
20
-0.18941640625000034
10
-3.3192442321777271
20
-0.18941640625000034
10
-3.3192442321777271
20
-14.189416406250004
0
LWPOLYLINE
5
123
100
AcDbEntity
8
0
100
AcDbPolyline
90
4
70
1
43
0.0
10
-44.659244232177713
20
37.975683593750006
10
-37.659244232177755
20
50.099683593750015
10
-49.783244232177708
20
57.099683593750008
10
-56.783244232177736
20
44.97568359375002
0
LWPOLYLINE
5
124
100
AcDbEntity
8
0
100
AcDbPolyline
90
4
70
1
43
0.0
10
48.780755767822285
20
12.480683593750008
10
48.780755767822285
20
26.480683593750012
10
34.780755767822278
20
26.480683593750012
10
34.780755767822278
20
12.480683593750008
0
LWPOLYLINE
5
125
100
AcDbEntity
8
0
100
AcDbPolyline
90
4
70
1
43
0.0
10
-41.419244232177732
20
8.670683593750006
10
-27.419244232177746
20
8.670683593750006
10
-27.419244232177746
20
22.67068359375001
10
-41.419244232177732
20
22.67068359375001
0
LWPOLYLINE
5
126
100
AcDbEntity
8
0
100
AcDbPolyline
90
4
70
1
43
0.0
10
-41.419244232177732
20
-29.429416406249995
10
-27.419244232177746
20
-29.429416406249995
10
-27.419244232177746
20
-15.429416406249992
10
-41.419244232177732
20
-15.429416406249992
0
LWPOLYLINE
5
127
100
AcDbEntity
8
0
100
AcDbPolyline
90
4
70
1
43
0.0
10
-22.369244232177721
20
-12.284416406250003
10
-8.3692442321777349
20
-12.284416406250003
10
-8.3692442321777349
20
1.7155835937500008
10
-22.369244232177721
20
1.7155835937500008
0
LWPOLYLINE
5
128
100
AcDbEntity
8
0
100
AcDbPolyline
90
4
70
1
43
0.0
10
29.73075576782227
20
26.450683593750011
10
29.73075576782227
20
40.450683593750014
10
15.730755767822284
20
40.450683593750014
10
15.730755767822284
20
26.450683593750011
0
LWPOLYLINE
5
129
100
AcDbEntity
8
0
100
AcDbPolyline
90
4
70
1
43
0.0
10
-8.3692442321777349
20
-31.334416406249996
10
-8.3692442321777349
20
-17.334416406249993
10
-22.369244232177721
20
-17.334416406249993
10
-22.369244232177721
20
-31.334416406249996
0
LWPOLYLINE
5
130
100
AcDbEntity
8
0
100
AcDbPolyline
90
4
70
1
43
0.0
10
-27.419244232177746
20
-10.379416406250002
10
-27.419244232177746
20
3.6205835937500019
10
-41.419244232177732
20
3.6205835937500019
10
-41.419244232177732
20
-10.379416406250002
0
LWPOLYLINE
5
131
100
AcDbEntity
8
0
100
AcDbPolyline
90
4
70
1
43
0.0
10
-18.531244232177713
20
44.864683593749994
10
-32.054244232177709
20
48.48768359375002
10
-35.677244232177685
20
34.964683593750024
10
-22.15424423217776
20
31.341683593750016
0
CIRCLE
5
132
100
AcDbEntity
8
0
100
AcDbCircle
10
-39.975244232177687
20
37.73668359375003
30
-1.3113022834243537e-07
40
1.6000000000000014
210
1.2748724235824813e-25
220
9.5595680586734432e-26
230
1
0
CIRCLE
5
133
100
AcDbEntity
8
0
100
AcDbCircle
10
-24.894244232177698
20
-32.906916406249977
30
-1.3113022778732386e-07
40
1.6000000000000014
210
1.2748724235824813e-25
220
9.5595680586734432e-26
230
1
0
CIRCLE
5
134
100
AcDbEntity
8
0
100
AcDbCircle
10
2.8867557678223044
20
24.242683593750023
30
-1.3113022834243537e-07
40
1.6000000000000014
210
1.2748724235824813e-25
220
9.5595680586734432e-26
230
1
0
CIRCLE
5
135
100
AcDbEntity
8
0
100
AcDbCircle
10
51.305755767822291
20
-28.144416406249988
30
-1.3113022778732386e-07
40
1.6000000000000014
210
1.2748724235824813e-25
220
9.5595680586734432e-26
230
1
0
CIRCLE
5
136
100
AcDbEntity
8
0
100
AcDbCircle
10
51.280755767822313
20
29.005683593750042
30
-1.3113022834243537e-07
40
1.6000000000000014
210
1.2748724235824813e-25
220
9.5595680586734432e-26
230
1
0
ENDSEC
0
SECTION
2
OBJECTS
0
DICTIONARY
5
C
100
AcDbDictionary
3
ACAD_GROUP
350
D
3
ACAD_MLINESTYLE
350
17
0
DICTIONARY
5
D
100
AcDbDictionary
0
DICTIONARY
5
1A
330
C
100
AcDbDictionary
0
DICTIONARY
5
17
100
AcDbDictionary
0
ENDSEC
0
EOF
