M48
; DRILL file {KiCad (5.1.6)-1} date 09/28/20 23:27:38
; FORMAT={-:-/ absolute / inch / decimal}
; #@! TF.CreationDate,2020-09-28T23:27:38+08:00
; #@! TF.GenerationSoftware,Kicad,Pcbnew,(5.1.6)-1
; #@! TF.FileFunction,Plated,1,2,PTH
FMAT,2
INCH
T1C0.0138
T2C0.0236
T3C0.0374
T4C0.0394
T5C0.0430
T6C0.0591
T7C0.0866
%
G90
G05
T1
X3.0483Y-4.4547
X3.2877Y-5.4271
X3.322Y-3.61
X3.52Y-5.2509
X3.6619Y-3.43
X3.6982Y-3.4312
X3.7262Y-3.5865
X3.7355Y-3.4315
X3.7623Y-2.4761
X3.7631Y-3.4926
X3.7726Y-5.2035
X3.8021Y-2.6549
X3.8021Y-3.1275
X3.8021Y-3.4411
X3.809Y-4.268
X3.8217Y-5.1712
X3.8217Y-5.215
X3.8244Y-4.2065
X3.866Y-4.968
X3.9964Y-5.748
X4.109Y-5.683
X4.339Y-2.768
X4.4009Y-5.1082
X4.4264Y-5.1938
X4.5535Y-2.5755
X4.5535Y-3.3305
X4.5535Y-4.083
X4.5535Y-4.8105
X4.949Y-5.528
X5.3035Y-2.5055
X5.3035Y-3.248
X5.3035Y-3.998
X5.3035Y-4.548
X6.0485Y-5.403
X6.0535Y-2.608
X6.0535Y-3.353
X6.0535Y-4.1105
X6.0535Y-4.8405
X6.726Y-5.703
X6.8035Y-2.7905
X6.8035Y-3.548
X6.8035Y-4.2805
X6.8035Y-5.0305
X7.5535Y-2.7805
X7.5535Y-3.538
X7.5535Y-4.3005
X7.5535Y-5.0405
X7.5535Y-5.6155
X8.3124Y-2.7845
X8.3124Y-3.5495
X8.3124Y-4.3095
X8.3124Y-5.0495
X8.3124Y-5.6195
X9.0624Y-2.7845
X9.0624Y-3.5495
X9.0624Y-4.2995
X9.0624Y-5.0495
X9.0624Y-5.5995
X9.8124Y-2.6245
X9.8124Y-3.3595
X9.8124Y-4.0845
X9.8124Y-4.8495
X9.8124Y-5.3895
X10.5624Y-2.4795
X10.5624Y-3.2495
X10.5624Y-3.9895
X10.5624Y-4.5595
X10.8174Y-5.628
X11.3124Y-2.5545
X11.3124Y-3.3195
X11.3124Y-4.0695
X11.3124Y-4.8195
X11.7124Y-5.653
X11.997Y-5.1503
X12.0624Y-2.6495
X12.0624Y-3.3945
X12.0624Y-4.1495
X12.0624Y-4.8995
X12.3691Y-5.217
X12.4824Y-5.903
X12.5599Y-5.1792
X12.6007Y-3.3788
X12.6236Y-2.8232
X12.6377Y-4.2972
X12.6379Y-3.6306
X12.6546Y-5.1697
X12.6592Y-3.5009
X12.7058Y-5.2637
X12.7616Y-2.5939
X12.7904Y-5.2509
X12.8288Y-5.3346
X13.1698Y-3.6582
X13.2963Y-3.6367
X13.379Y-4.4547
T4
X2.9691Y-5.3016
X3.0543Y-5.2524
X3.1396Y-5.2032
X3.2545Y-5.796
X3.425Y-5.6976
X13.6202Y-2.276
X13.6202Y-2.376
X13.0625Y-3.7165
X13.1625Y-3.7165
X13.2625Y-3.7165
X13.3625Y-3.7165
X3.6174Y-2.276
X3.6174Y-2.376
X12.9984Y-5.6976
X13.1688Y-5.796
X13.2838Y-5.2032
X13.369Y-5.2524
X13.4543Y-5.3016
X3.0599Y-3.7165
X3.1599Y-3.7165
X3.2599Y-3.7165
X3.3599Y-3.7165
T5
X2.9107Y-2.2761
X2.9107Y-2.3761
X2.9107Y-2.4761
X2.9107Y-2.5761
X2.9107Y-2.6761
X2.9107Y-2.7761
X2.9107Y-2.8761
X2.9107Y-2.9761
X2.9107Y-3.0761
X2.9107Y-3.1761
X2.9107Y-3.2761
X2.9107Y-3.3761
X3.5107Y-2.2761
X3.5107Y-2.3761
X3.5107Y-2.4761
X3.5107Y-2.5761
X3.5107Y-2.6761
X3.5107Y-2.7761
X3.5107Y-2.8761
X3.5107Y-2.9761
X3.5107Y-3.0761
X3.5107Y-3.1761
X3.5107Y-3.2761
X3.5107Y-3.3761
X12.9127Y-2.2761
X12.9127Y-2.3761
X12.9127Y-2.4761
X12.9127Y-2.5761
X12.9127Y-2.6761
X12.9127Y-2.7761
X12.9127Y-2.8761
X12.9127Y-2.9761
X12.9127Y-3.0761
X12.9127Y-3.1761
X12.9127Y-3.2761
X12.9127Y-3.3761
X13.5127Y-2.2761
X13.5127Y-2.3761
X13.5127Y-2.4761
X13.5127Y-2.5761
X13.5127Y-2.6761
X13.5127Y-2.7761
X13.5127Y-2.8761
X13.5127Y-2.9761
X13.5127Y-3.0761
X13.5127Y-3.1761
X13.5127Y-3.2761
X13.5127Y-3.3761
T6
X6.5082Y-3.477
X6.5574Y-3.229
X3.711Y-5.937
X3.7924Y-6.1764
X5.0082Y-4.202
X5.0574Y-3.954
X9.5196Y-5.927
X9.5688Y-5.679
X6.5082Y-4.977
X6.5574Y-4.729
X10.2696Y-4.227
X10.3188Y-3.979
X12.5196Y-2.777
X12.5688Y-2.529
X8.0082Y-3.677
X8.0574Y-3.429
X7.2582Y-4.427
X7.3074Y-4.179
X10.2696Y-4.977
X10.3188Y-4.729
X5.0082Y-4.952
X5.0574Y-4.704
X11.0196Y-3.377
X11.0688Y-3.129
X5.7582Y-4.127
X5.8074Y-3.879
X10.2696Y-5.727
X10.3188Y-5.479
X11.7696Y-4.952
X11.8188Y-4.704
X12.5196Y-4.277
X12.5688Y-4.029
X8.0082Y-4.427
X8.0574Y-4.179
X6.5082Y-5.727
X6.5574Y-5.479
X4.5556Y-5.6791
X4.5722Y-5.9314
X8.7696Y-4.427
X8.8188Y-4.179
X5.7582Y-3.377
X5.8074Y-3.129
X9.5196Y-3.677
X9.5688Y-3.429
X11.0196Y-2.627
X11.0688Y-2.379
X11.7696Y-4.202
X11.8188Y-3.954
X11.7696Y-3.452
X11.8188Y-3.204
X4.2582Y-5.027
X4.3074Y-4.779
X5.7582Y-4.877
X5.8074Y-4.629
X9.5196Y-4.427
X9.5688Y-4.179
X5.3832Y-5.902
X5.4324Y-5.654
X9.5196Y-5.177
X9.5688Y-4.929
X11.7696Y-2.702
X11.8188Y-2.454
X8.0082Y-5.177
X8.0574Y-4.929
X12.5196Y-3.527
X12.5688Y-3.279
X12.5196Y-5.027
X12.5688Y-4.779
X4.2582Y-3.527
X4.3074Y-3.279
X7.2582Y-5.177
X7.3074Y-4.929
X4.2582Y-2.777
X4.3074Y-2.529
X11.0196Y-4.877
X11.0688Y-4.629
X7.2582Y-3.677
X7.3074Y-3.429
X10.2696Y-2.727
X10.3188Y-2.479
X8.7696Y-5.927
X8.8188Y-5.679
X8.7696Y-3.677
X8.8188Y-3.429
X8.0082Y-2.927
X8.0574Y-2.679
X12.1934Y-6.0231
X12.3051Y-5.7963
X7.2582Y-2.927
X7.3074Y-2.679
X7.2582Y-5.927
X7.3074Y-5.679
X5.0082Y-2.702
X5.0574Y-2.454
X9.5196Y-2.927
X9.5688Y-2.679
X6.5082Y-2.727
X6.5574Y-2.479
X10.2696Y-3.477
X10.3188Y-3.229
X8.7696Y-2.927
X8.8188Y-2.679
X8.0082Y-5.927
X8.0574Y-5.679
X12.9378Y-6.3536
X13.1045Y-6.1634
X5.7582Y-2.627
X5.8074Y-2.379
X4.2582Y-4.277
X4.3074Y-4.029
X5.0082Y-3.452
X5.0574Y-3.204
X8.7696Y-5.177
X8.8188Y-4.929
X6.5082Y-4.227
X6.5574Y-3.979
X11.0196Y-4.127
X11.0688Y-3.879
X11.3946Y-5.902
X11.4438Y-5.654
T7
X4.456Y-2.9905
X7.456Y-5.428
X12.5611Y-5.7717
X7.456Y-3.178
X8.9684Y-5.428
X11.9674Y-2.9905
X8.9674Y-3.178
X10.8736Y-5.2405
X3.8622Y-5.7717
X5.5497Y-5.2405
T2
G00X2.8239Y-4.2549
M15
G01X2.7767Y-4.2549
M16
G05
G00X2.8239Y-4.6938
M15
G01X2.7767Y-4.6938
M16
G05
G00X2.9578Y-4.2549
M15
G01X2.9263Y-4.2549
M16
G05
G00X2.9578Y-4.6938
M15
G01X2.9263Y-4.6938
M16
G05
G00X13.4654Y-4.2549
M15
G01X13.4969Y-4.2549
M16
G05
G00X13.4654Y-4.6938
M15
G01X13.4969Y-4.6938
M16
G05
G00X13.5993Y-4.2549
M15
G01X13.6465Y-4.2549
M16
G05
G00X13.5993Y-4.6938
M15
G01X13.6465Y-4.6938
M16
G05
T3
G00X2.9844Y-5.395
M15
G01X2.9912Y-5.3911
M16
G05
G00X3.0782Y-5.3409
M15
G01X3.085Y-5.337
M16
G05
G00X3.1911Y-5.753
M15
G01X3.1979Y-5.7491
M16
G05
G00X3.2057Y-5.2673
M15
G01X3.2125Y-5.2633
M16
G05
G00X3.2849Y-5.6989
M15
G01X3.2917Y-5.695
M16
G05
G00X3.4124Y-5.6253
M15
G01X3.4192Y-5.6213
M16
G05
G00X13.0038Y-5.6212
M15
G01X13.0107Y-5.6251
M16
G05
G00X13.0976Y-5.6753
M15
G01X13.1044Y-5.6792
M16
G05
G00X13.2105Y-5.2631
M15
G01X13.2174Y-5.2671
M16
G05
G00X13.2251Y-5.7489
M15
G01X13.2319Y-5.7528
M16
G05
G00X13.3043Y-5.3173
M15
G01X13.3111Y-5.3212
M16
G05
G00X13.4318Y-5.3909
M15
G01X13.4386Y-5.3948
M16
G05
T6
G00X2.9983Y-5.5962
M15
G01X3.0238Y-5.6405
M16
G05
G00X3.3801Y-5.3757
M15
G01X3.4057Y-5.42
M16
G05
G00X13.0433Y-5.3757
M15
G01X13.0177Y-5.42
M16
G05
G00X13.4251Y-5.5962
M15
G01X13.3995Y-5.6405
M16
G05
T0
M30
