G04 #@! TF.GenerationSoftware,KiCad,Pcbnew,(5.1.6)-1*
G04 #@! TF.CreationDate,2020-09-28T23:27:37+08:00*
G04 #@! TF.ProjectId,Cantaloupe,43616e74-616c-46f7-9570-652e6b696361,rev?*
G04 #@! TF.SameCoordinates,Original*
G04 #@! TF.FileFunction,Paste,Bot*
G04 #@! TF.FilePolarity,Positive*
%FSLAX46Y46*%
G04 Gerber Fmt 4.6, Leading zero omitted, Abs format (unit mm)*
G04 Created by KiCad (PCBNEW (5.1.6)-1) date 2020-09-28 23:27:37*
%MOMM*%
%LPD*%
G01*
G04 APERTURE LIST*
%ADD10R,1.400000X0.800000*%
%ADD11C,0.100000*%
%ADD12R,2.550000X2.500000*%
%ADD13R,1.700000X1.000000*%
%ADD14R,1.200000X0.900000*%
G04 APERTURE END LIST*
D10*
X341021600Y-113148451D03*
X341021600Y-112128451D03*
X341021600Y-110898451D03*
X341021600Y-116398451D03*
X341021600Y-115168451D03*
X341021600Y-114148451D03*
D11*
G36*
X83928700Y-156026193D02*
G01*
X85178700Y-158191257D01*
X82970336Y-159466257D01*
X81720336Y-157301193D01*
X83928700Y-156026193D01*
G37*
G36*
X93853810Y-147362989D02*
G01*
X95103810Y-149528053D01*
X92895446Y-150803053D01*
X91645446Y-148637989D01*
X93853810Y-147362989D01*
G37*
G36*
X104379644Y-146623383D02*
G01*
X105026691Y-149038198D01*
X102563580Y-149698187D01*
X101916533Y-147283372D01*
X104379644Y-146623383D01*
G37*
G36*
X116208767Y-140824178D02*
G01*
X116855814Y-143238993D01*
X114392703Y-143898982D01*
X113745656Y-141484167D01*
X116208767Y-140824178D01*
G37*
D12*
X96572395Y-121996203D03*
X109499395Y-119456203D03*
X96572396Y-102946202D03*
X109499396Y-100406202D03*
X96572398Y-83896203D03*
X109499398Y-81356203D03*
X96572389Y-64846200D03*
X109499389Y-62306200D03*
X125147393Y-144221204D03*
X138074393Y-141681204D03*
X115622393Y-120091203D03*
X128549393Y-117551203D03*
X115622396Y-101041205D03*
X128549396Y-98501205D03*
X115622396Y-81991205D03*
X128549396Y-79451205D03*
X115622395Y-62941207D03*
X128549395Y-60401207D03*
X134672398Y-118186204D03*
X147599398Y-115646204D03*
X134672395Y-99136203D03*
X147599395Y-96596203D03*
X134672398Y-80086206D03*
X147599398Y-77546206D03*
X134672393Y-61036202D03*
X147599393Y-58496202D03*
X153722396Y-139776200D03*
X166649396Y-137236200D03*
X153722397Y-120726203D03*
X166649397Y-118186203D03*
X153722393Y-101676203D03*
X166649393Y-99136203D03*
X153722396Y-82626204D03*
X166649396Y-80086204D03*
X153722395Y-63576203D03*
X166649395Y-61036203D03*
X172772396Y-144856201D03*
X185699396Y-142316201D03*
X172772396Y-125806202D03*
X185699396Y-123266202D03*
X172772396Y-106756203D03*
X185699396Y-104216203D03*
X172772393Y-87706204D03*
X185699393Y-85166204D03*
X172772395Y-68656202D03*
X185699395Y-66116202D03*
X191822399Y-144856203D03*
X204749399Y-142316203D03*
X191822396Y-125806202D03*
X204749396Y-123266202D03*
X191822401Y-106756201D03*
X204749401Y-104216201D03*
X191822392Y-87706201D03*
X204749392Y-85166201D03*
X191822394Y-68656207D03*
X204749394Y-66116207D03*
D11*
G36*
X323162072Y-150216193D02*
G01*
X321912072Y-152381257D01*
X319703708Y-151106257D01*
X320953708Y-148941193D01*
X323162072Y-150216193D01*
G37*
G36*
X335627182Y-154479989D02*
G01*
X334377182Y-156645053D01*
X332168818Y-155370053D01*
X333418818Y-153204989D01*
X335627182Y-154479989D01*
G37*
G36*
X301550291Y-143615910D02*
G01*
X300903244Y-146030725D01*
X298440133Y-145370736D01*
X299087180Y-142955921D01*
X301550291Y-143615910D01*
G37*
G36*
X314694214Y-144508213D02*
G01*
X314047167Y-146923028D01*
X311584056Y-146263039D01*
X312231103Y-143848224D01*
X314694214Y-144508213D01*
G37*
D12*
X306411595Y-121996203D03*
X319338595Y-119456203D03*
X306411592Y-102946204D03*
X319338592Y-100406204D03*
X306411593Y-83896204D03*
X319338593Y-81356204D03*
X306411597Y-64846202D03*
X319338597Y-62306202D03*
X277836595Y-144221203D03*
X290763595Y-141681203D03*
X287361597Y-120091208D03*
X300288597Y-117551208D03*
X287361596Y-101041202D03*
X300288596Y-98501202D03*
X287361597Y-81991205D03*
X300288597Y-79451205D03*
X287361596Y-62941205D03*
X300288596Y-60401205D03*
X268311595Y-118186201D03*
X281238595Y-115646201D03*
X268311595Y-99136205D03*
X281238595Y-96596205D03*
X268311595Y-80086204D03*
X281238595Y-77546204D03*
X268311597Y-61036202D03*
X281238597Y-58496202D03*
X249261594Y-139776203D03*
X262188594Y-137236203D03*
X249261594Y-120726200D03*
X262188594Y-118186200D03*
X249261591Y-101676206D03*
X262188591Y-99136206D03*
X249261594Y-82626201D03*
X262188594Y-80086201D03*
X249261595Y-63576206D03*
X262188595Y-61036206D03*
X230211594Y-144856201D03*
X243138594Y-142316201D03*
X230211595Y-125806201D03*
X243138595Y-123266201D03*
X230211593Y-106756202D03*
X243138593Y-104216202D03*
X230211595Y-87706205D03*
X243138595Y-85166205D03*
X230211592Y-68656200D03*
X243138592Y-66116200D03*
X211161593Y-144856205D03*
X224088593Y-142316205D03*
X211161594Y-125806203D03*
X224088594Y-123266203D03*
X211161591Y-106756201D03*
X224088591Y-104216201D03*
X211161600Y-87706200D03*
X224088600Y-85166200D03*
X211161597Y-68656205D03*
X224088597Y-66116205D03*
D10*
X76127600Y-114148451D03*
X76127600Y-115168451D03*
X76127600Y-116398451D03*
X76127600Y-110898451D03*
X76127600Y-112128451D03*
X76127600Y-113148451D03*
D13*
X112430000Y-133470000D03*
X106130000Y-133470000D03*
X112430000Y-137270000D03*
X106130000Y-137270000D03*
X311024000Y-133470000D03*
X304724000Y-133470000D03*
X311024000Y-137270000D03*
X304724000Y-137270000D03*
D14*
X100545395Y-137711206D03*
X100545395Y-134411206D03*
X93306401Y-137711202D03*
X93306401Y-134411202D03*
X98132395Y-137711203D03*
X98132395Y-134411203D03*
X95719395Y-137711204D03*
X95719395Y-134411204D03*
X102958394Y-137711203D03*
X102958394Y-134411203D03*
X323847592Y-137711203D03*
X323847592Y-134411203D03*
X314195598Y-137711203D03*
X314195598Y-134411203D03*
X321434594Y-137711204D03*
X321434594Y-134411204D03*
X316608596Y-137711202D03*
X316608596Y-134411202D03*
X319021595Y-137711203D03*
X319021595Y-134411203D03*
X320640346Y-84786206D03*
X320640346Y-88086206D03*
X320640347Y-65736203D03*
X320640347Y-69036203D03*
D11*
G36*
X333604960Y-159236070D02*
G01*
X332565730Y-158636070D01*
X333015730Y-157856648D01*
X334054960Y-158456648D01*
X333604960Y-159236070D01*
G37*
G36*
X331954960Y-162093954D02*
G01*
X330915730Y-161493954D01*
X331365730Y-160714532D01*
X332404960Y-161314532D01*
X331954960Y-162093954D01*
G37*
D14*
X244440345Y-126696204D03*
X244440345Y-129996204D03*
X263490345Y-102566206D03*
X263490345Y-105866206D03*
X301590347Y-120981206D03*
X301590347Y-124281206D03*
X225390344Y-107646203D03*
X225390344Y-110946203D03*
X282381593Y-119076202D03*
X282381593Y-122376202D03*
X225390345Y-126696204D03*
X225390345Y-129996204D03*
X225390344Y-88596205D03*
X225390344Y-91896205D03*
X244440345Y-69546204D03*
X244440345Y-72846204D03*
X301590348Y-101931208D03*
X301590348Y-105231208D03*
X282381595Y-80976206D03*
X282381595Y-84276206D03*
X244440345Y-88596201D03*
X244440345Y-91896201D03*
D11*
G36*
X313971867Y-149625627D02*
G01*
X312812756Y-149315044D01*
X313045693Y-148445711D01*
X314204804Y-148756294D01*
X313971867Y-149625627D01*
G37*
G36*
X313117765Y-152813183D02*
G01*
X311958654Y-152502600D01*
X312191591Y-151633267D01*
X313350702Y-151943850D01*
X313117765Y-152813183D01*
G37*
D14*
X168109895Y-83516206D03*
X168109895Y-86816206D03*
X206209894Y-88596202D03*
X206209894Y-91896202D03*
X187159897Y-107646205D03*
X187159897Y-110946205D03*
X244440345Y-107646204D03*
X244440345Y-110946204D03*
X282381593Y-100026202D03*
X282381593Y-103326202D03*
X168109891Y-64466205D03*
X168109891Y-67766205D03*
X206209895Y-69546206D03*
X206209895Y-72846206D03*
X206209895Y-145746205D03*
X206209895Y-149046205D03*
X263490345Y-121616206D03*
X263490345Y-124916206D03*
X301590346Y-82881203D03*
X301590346Y-86181203D03*
X301590348Y-63831205D03*
X301590348Y-67131205D03*
X244440345Y-145746204D03*
X244440345Y-149046204D03*
X263490344Y-140666206D03*
X263490344Y-143966206D03*
X187159895Y-69546204D03*
X187159895Y-72846204D03*
X282381593Y-61926202D03*
X282381593Y-65226202D03*
X263490344Y-64466204D03*
X263490344Y-67766204D03*
X187159896Y-88596203D03*
X187159896Y-91896203D03*
X263490341Y-83516207D03*
X263490341Y-86816207D03*
X206209892Y-107646204D03*
X206209892Y-110946204D03*
X187159895Y-126696204D03*
X187159895Y-129996204D03*
X187159895Y-145746204D03*
X187159895Y-149046204D03*
X320640346Y-122886205D03*
X320640346Y-126186205D03*
X320640345Y-103836205D03*
X320640345Y-107136205D03*
X148901143Y-119076202D03*
X148901143Y-122376202D03*
X148901143Y-61926202D03*
X148901143Y-65226202D03*
X110801145Y-122886199D03*
X110801145Y-126186199D03*
D11*
G36*
X118141902Y-145617162D02*
G01*
X116982791Y-145927745D01*
X116749854Y-145058412D01*
X117908965Y-144747829D01*
X118141902Y-145617162D01*
G37*
G36*
X118996004Y-148804718D02*
G01*
X117836893Y-149115301D01*
X117603956Y-148245968D01*
X118763067Y-147935385D01*
X118996004Y-148804718D01*
G37*
G36*
X96961592Y-151492323D02*
G01*
X95922362Y-152092323D01*
X95472362Y-151312901D01*
X96511592Y-150712901D01*
X96961592Y-151492323D01*
G37*
G36*
X98611592Y-154350207D02*
G01*
X97572362Y-154950207D01*
X97122362Y-154170785D01*
X98161592Y-153570785D01*
X98611592Y-154350207D01*
G37*
D14*
X148901143Y-80976202D03*
X148901143Y-84276202D03*
X139376143Y-145111201D03*
X139376143Y-148411201D03*
X110801144Y-84786202D03*
X110801144Y-88086202D03*
X168109895Y-140666206D03*
X168109895Y-143966206D03*
X129851143Y-63831206D03*
X129851143Y-67131206D03*
X110801144Y-103836203D03*
X110801144Y-107136203D03*
X130009897Y-101931206D03*
X130009897Y-105231206D03*
X130009896Y-120981204D03*
X130009896Y-124281204D03*
X168109895Y-102566206D03*
X168109895Y-105866206D03*
X168109894Y-121616206D03*
X168109894Y-124916206D03*
X130009897Y-82881206D03*
X130009897Y-86181206D03*
X110801144Y-65736203D03*
X110801144Y-69036203D03*
X206209895Y-126696204D03*
X206209895Y-129996204D03*
X148901144Y-100026205D03*
X148901144Y-103326205D03*
X292065344Y-145111204D03*
X292065344Y-148411204D03*
X225390345Y-145746204D03*
X225390345Y-149046204D03*
X225390346Y-69546200D03*
X225390346Y-72846200D03*
M02*
