M48
; DRILL file {KiCad (5.1.6)-1} date 09/28/20 23:27:38
; FORMAT={-:-/ absolute / inch / decimal}
; #@! TF.CreationDate,2020-09-28T23:27:38+08:00
; #@! TF.GenerationSoftware,Kicad,Pcbnew,(5.1.6)-1
; #@! TF.FileFunction,NonPlated,1,2,NPTH
FMAT,2
INCH
T1C0.0118
T2C0.0591
T3C0.0748
T4C0.0866
T5C0.1181
T6C0.1614
%
G90
G05
T1
X8.2255Y-4.9545
X8.2255Y-4.9779
X8.2255Y-5.0012
X8.2255Y-5.0246
X8.2255Y-5.048
X8.2255Y-5.0714
X8.2255Y-5.0948
X8.2255Y-5.1181
X8.2255Y-5.1415
X8.1979Y-3.4555
X8.1979Y-3.4789
X8.1979Y-3.5022
X8.1979Y-3.5256
X8.1979Y-3.549
X8.1979Y-3.5724
X8.1979Y-3.5958
X8.1979Y-3.6191
X8.1979Y-3.6425
X8.2255Y-2.5975
X8.2255Y-2.6209
X8.2255Y-2.6442
X8.2255Y-2.6676
X8.2255Y-2.691
X8.2255Y-2.7144
X8.2255Y-2.7378
X8.2255Y-2.7611
X8.2255Y-2.7845
X8.2255Y-5.8684
X8.2255Y-5.8917
X8.2255Y-5.9151
X8.2255Y-5.9385
X8.2255Y-5.9619
X8.2255Y-5.9852
X8.2255Y-6.0086
X8.2255Y-6.032
X8.2255Y-6.0554
X8.1979Y-4.2065
X8.1979Y-4.2299
X8.1979Y-4.2532
X8.1979Y-4.2766
X8.1979Y-4.3
X8.1979Y-4.3234
X8.1979Y-4.3468
X8.1979Y-4.3701
X8.1979Y-4.3935
X8.2255Y-4.2065
X8.2255Y-4.2299
X8.2255Y-4.2532
X8.2255Y-4.2766
X8.2255Y-4.3
X8.2255Y-4.3234
X8.2255Y-4.3468
X8.2255Y-4.3701
X8.2255Y-4.3935
X8.1979Y-4.9545
X8.1979Y-4.9779
X8.1979Y-5.0012
X8.1979Y-5.0246
X8.1979Y-5.048
X8.1979Y-5.0714
X8.1979Y-5.0948
X8.1979Y-5.1181
X8.1979Y-5.1415
X8.1979Y-5.8684
X8.1979Y-5.8917
X8.1979Y-5.9151
X8.1979Y-5.9385
X8.1979Y-5.9619
X8.1979Y-5.9852
X8.1979Y-6.0086
X8.1979Y-6.032
X8.1979Y-6.0554
X8.2255Y-3.4555
X8.2255Y-3.4789
X8.2255Y-3.5022
X8.2255Y-3.5256
X8.2255Y-3.549
X8.2255Y-3.5724
X8.2255Y-3.5958
X8.2255Y-3.6191
X8.2255Y-3.6425
X8.1979Y-2.5975
X8.1979Y-2.6209
X8.1979Y-2.6442
X8.1979Y-2.6676
X8.1979Y-2.691
X8.1979Y-2.7144
X8.1979Y-2.7378
X8.1979Y-2.7611
X8.1979Y-2.7845
T2
X5.581Y-2.3258
X5.581Y-2.6802
X4.081Y-3.9758
X4.081Y-4.3302
X4.831Y-3.1508
X4.831Y-3.5052
X8.5924Y-4.8758
X8.5924Y-5.2302
X6.331Y-3.9258
X6.331Y-4.2802
X10.8424Y-3.8258
X10.8424Y-4.1802
X11.2174Y-5.6008
X11.2174Y-5.9552
X6.331Y-3.1758
X6.331Y-3.5302
X3.4884Y-6.0042
X3.6656Y-6.311
X4.831Y-3.9008
X4.831Y-4.2552
X9.3424Y-5.6258
X9.3424Y-5.9802
X6.331Y-4.6758
X6.331Y-5.0302
X10.0924Y-3.9258
X10.0924Y-4.2802
X12.3424Y-2.4758
X12.3424Y-2.8302
X7.831Y-3.3758
X7.831Y-3.7302
X7.081Y-4.1258
X7.081Y-4.4802
X10.0924Y-4.6758
X10.0924Y-5.0302
X4.831Y-4.6508
X4.831Y-5.0052
X10.8424Y-3.0758
X10.8424Y-3.4302
X5.581Y-3.8258
X5.581Y-4.1802
X10.0924Y-5.4258
X10.0924Y-5.7802
X11.5924Y-4.6508
X11.5924Y-5.0052
X12.3424Y-3.9758
X12.3424Y-4.3302
X7.831Y-4.1258
X7.831Y-4.4802
X6.331Y-5.4258
X6.331Y-5.7802
X4.3231Y-5.6864
X4.4149Y-6.0286
X8.5924Y-4.1258
X8.5924Y-4.4802
X5.581Y-3.0758
X5.581Y-3.4302
X9.3424Y-3.3758
X9.3424Y-3.7302
X10.8424Y-2.3258
X10.8424Y-2.6802
X11.5924Y-3.9008
X11.5924Y-4.2552
X11.5924Y-3.1508
X11.5924Y-3.5052
X4.081Y-4.7258
X4.081Y-5.0802
X5.581Y-4.5758
X5.581Y-4.9302
X9.3424Y-4.1258
X9.3424Y-4.4802
X5.206Y-5.6008
X5.206Y-5.9552
X9.3424Y-4.8758
X9.3424Y-5.2302
X11.5924Y-2.4008
X11.5924Y-2.7552
X7.831Y-4.8758
X7.831Y-5.2302
X12.3424Y-3.2258
X12.3424Y-3.5802
X12.3424Y-4.7258
X12.3424Y-5.0802
X4.081Y-3.2258
X4.081Y-3.5802
X7.081Y-4.8758
X7.081Y-5.2302
X4.081Y-2.4758
X4.081Y-2.8302
X10.8424Y-4.5758
X10.8424Y-4.9302
X7.081Y-3.3758
X7.081Y-3.7302
X10.0924Y-2.4258
X10.0924Y-2.7802
X8.5924Y-5.6258
X8.5924Y-5.9802
X8.5924Y-3.3758
X8.5924Y-3.7302
X7.831Y-2.6258
X7.831Y-2.9802
X12.0085Y-6.0286
X12.1002Y-5.6864
X7.081Y-2.6258
X7.081Y-2.9802
X7.081Y-5.6258
X7.081Y-5.9802
X4.831Y-2.4008
X4.831Y-2.7552
X9.3424Y-2.6258
X9.3424Y-2.9802
X6.331Y-2.4258
X6.331Y-2.7802
X10.0924Y-3.1758
X10.0924Y-3.5302
X8.5924Y-2.6258
X8.5924Y-2.9802
X7.831Y-5.6258
X7.831Y-5.9802
X12.7578Y-6.311
X12.935Y-6.0042
T3
X5.381Y-2.503
X5.781Y-2.503
X3.881Y-4.153
X4.281Y-4.153
X4.631Y-3.328
X5.031Y-3.328
X8.3924Y-5.053
X8.7924Y-5.053
X6.131Y-4.103
X6.531Y-4.103
X10.6424Y-4.003
X11.0424Y-4.003
X11.0174Y-5.778
X11.4174Y-5.778
X6.131Y-3.353
X6.531Y-3.353
X3.4038Y-6.2576
X3.7502Y-6.0576
X4.631Y-4.078
X5.031Y-4.078
X9.1424Y-5.803
X9.5424Y-5.803
X6.131Y-4.853
X6.531Y-4.853
X9.8924Y-4.103
X10.2924Y-4.103
X12.1424Y-2.653
X12.5424Y-2.653
X7.631Y-3.553
X8.031Y-3.553
X6.881Y-4.303
X7.281Y-4.303
X9.8924Y-4.853
X10.2924Y-4.853
X4.631Y-4.828
X5.031Y-4.828
X10.6424Y-3.253
X11.0424Y-3.253
X5.381Y-4.003
X5.781Y-4.003
X9.8924Y-5.603
X10.2924Y-5.603
X11.3924Y-4.828
X11.7924Y-4.828
X12.1424Y-4.153
X12.5424Y-4.153
X7.631Y-4.303
X8.031Y-4.303
X6.131Y-5.603
X6.531Y-5.603
X4.1758Y-5.9093
X4.5622Y-5.8057
X8.3924Y-4.303
X8.7924Y-4.303
X5.381Y-3.253
X5.781Y-3.253
X9.1424Y-3.553
X9.5424Y-3.553
X10.6424Y-2.503
X11.0424Y-2.503
X11.3924Y-4.078
X11.7924Y-4.078
X11.3924Y-3.328
X11.7924Y-3.328
X3.881Y-4.903
X4.281Y-4.903
X5.381Y-4.753
X5.781Y-4.753
X9.1424Y-4.303
X9.5424Y-4.303
X5.006Y-5.778
X5.406Y-5.778
X9.1424Y-5.053
X9.5424Y-5.053
X11.3924Y-2.578
X11.7924Y-2.578
X7.631Y-5.053
X8.031Y-5.053
X12.1424Y-3.403
X12.5424Y-3.403
X12.1424Y-4.903
X12.5424Y-4.903
X3.881Y-3.403
X4.281Y-3.403
X6.881Y-5.053
X7.281Y-5.053
X3.881Y-2.653
X4.281Y-2.653
X10.6424Y-4.753
X11.0424Y-4.753
X6.881Y-3.553
X7.281Y-3.553
X9.8924Y-2.603
X10.2924Y-2.603
X8.3924Y-5.803
X8.7924Y-5.803
X8.3924Y-3.553
X8.7924Y-3.553
X7.631Y-2.803
X8.031Y-2.803
X11.8612Y-5.8057
X12.2476Y-5.9093
X6.881Y-2.803
X7.281Y-2.803
X6.881Y-5.803
X7.281Y-5.803
X4.631Y-2.578
X5.031Y-2.578
X9.1424Y-2.803
X9.5424Y-2.803
X6.131Y-2.603
X6.531Y-2.603
X9.8924Y-3.353
X10.2924Y-3.353
X8.3924Y-2.803
X8.7924Y-2.803
X7.631Y-5.803
X8.031Y-5.803
X12.6732Y-6.0576
X13.0196Y-6.2576
T4
X13.5274Y-3.7362
X2.895Y-3.7362
X12.8975Y-3.7362
X3.5249Y-3.7362
T5
X3.931Y-4.803
X4.181Y-4.703
X5.431Y-4.653
X5.681Y-4.553
X9.1924Y-4.203
X9.4424Y-4.103
X5.056Y-5.678
X5.306Y-5.578
X9.1924Y-4.953
X9.4424Y-4.853
X11.4424Y-2.478
X11.6924Y-2.378
X7.681Y-4.953
X7.931Y-4.853
X12.1924Y-3.303
X12.4424Y-3.203
X12.1924Y-4.803
X12.4424Y-4.703
X3.931Y-3.303
X4.181Y-3.203
X6.931Y-4.953
X7.181Y-4.853
X3.931Y-2.553
X4.181Y-2.453
X10.6924Y-4.653
X10.9424Y-4.553
X6.931Y-3.453
X7.181Y-3.353
X9.9424Y-2.503
X10.1924Y-2.403
X8.4424Y-5.703
X8.6924Y-5.603
X8.4424Y-3.453
X8.6924Y-3.353
X7.681Y-2.703
X7.931Y-2.603
X11.9354Y-5.7221
X12.2027Y-5.6902
X6.931Y-2.703
X7.181Y-2.603
X6.931Y-5.703
X7.181Y-5.603
X4.681Y-2.478
X4.931Y-2.378
X9.1924Y-2.703
X9.4424Y-2.603
X6.181Y-2.503
X6.431Y-2.403
X9.9424Y-3.253
X10.1924Y-3.153
X8.4424Y-2.703
X8.6924Y-2.603
X7.681Y-5.703
X7.931Y-5.603
X12.7665Y-5.996
X13.033Y-6.0344
X5.431Y-2.403
X5.681Y-2.303
X3.931Y-4.053
X4.181Y-3.953
X4.681Y-3.228
X4.931Y-3.128
X8.4424Y-4.953
X8.6924Y-4.853
X6.181Y-4.003
X6.431Y-3.903
X10.6924Y-3.903
X10.9424Y-3.803
X11.0674Y-5.678
X11.3174Y-5.578
X6.181Y-3.253
X6.431Y-3.153
X3.3971Y-6.146
X3.5636Y-5.9344
X4.681Y-3.978
X4.931Y-3.878
X9.1924Y-5.703
X9.4424Y-5.603
X6.181Y-4.753
X6.431Y-4.653
X9.9424Y-4.003
X10.1924Y-3.903
X12.1924Y-2.553
X12.4424Y-2.453
X7.681Y-3.453
X7.931Y-3.353
X6.931Y-4.203
X7.181Y-4.103
X9.9424Y-4.753
X10.1924Y-4.653
X4.681Y-4.728
X4.931Y-4.628
X10.6924Y-3.153
X10.9424Y-3.053
X5.431Y-3.903
X5.681Y-3.803
X9.9424Y-5.503
X10.1924Y-5.403
X11.4424Y-4.728
X11.6924Y-4.628
X12.1924Y-4.053
X12.4424Y-3.953
X7.681Y-4.203
X7.931Y-4.103
X6.181Y-5.503
X6.431Y-5.403
X4.1982Y-5.7997
X4.4138Y-5.6384
X8.4424Y-4.203
X8.6924Y-4.103
X5.431Y-3.153
X5.681Y-3.053
X9.1924Y-3.453
X9.4424Y-3.353
X10.6924Y-2.403
X10.9424Y-2.303
X11.4424Y-3.978
X11.6924Y-3.878
X11.4424Y-3.228
X11.6924Y-3.128
T6
X4.369Y-5.8575
X8.5924Y-4.303
X5.581Y-3.253
X9.3424Y-3.553
X10.8424Y-2.503
X11.5924Y-4.078
X11.5924Y-3.328
X4.081Y-4.903
X5.581Y-4.753
X9.3424Y-4.303
X5.206Y-5.778
X9.3424Y-5.053
X11.5924Y-2.578
X7.831Y-5.053
X12.3424Y-3.403
X12.3424Y-4.903
X4.081Y-3.403
X7.081Y-5.053
X4.081Y-2.653
X10.8424Y-4.753
X7.081Y-3.553
X10.0924Y-2.603
X8.5924Y-5.803
X8.5924Y-3.553
X7.831Y-2.803
X12.0544Y-5.8575
X7.081Y-2.803
X7.081Y-5.803
X4.831Y-2.578
X9.3424Y-2.803
X6.331Y-2.603
X10.0924Y-3.353
X8.5924Y-2.803
X7.831Y-5.803
X12.8464Y-6.1576
X5.581Y-2.503
X4.081Y-4.153
X4.831Y-3.328
X8.5924Y-5.053
X6.331Y-4.103
X10.8424Y-4.003
X11.2174Y-5.778
X6.331Y-3.353
X3.577Y-6.1576
X4.831Y-4.078
X9.3424Y-5.803
X6.331Y-4.853
X10.0924Y-4.103
X12.3424Y-2.653
X7.831Y-3.553
X7.081Y-4.303
X10.0924Y-4.853
X4.831Y-4.828
X10.8424Y-3.253
X5.581Y-4.003
X10.0924Y-5.603
X11.5924Y-4.828
X12.3424Y-4.153
X7.831Y-4.303
X6.331Y-5.603
T0
M30
