0
SECTION
2
HEADER
9
$INSUNITS
70
4
9
$ACADVER
1
AC1014
9
$HANDSEED
5
FFFF
0
ENDSEC
0
SECTION
2
TABLES
0
TABLE
2
VPORT
5
8
100
AcDbSymbolTable
0
ENDTAB
0
TABLE
2
LTYPE
5
5
100
AcDbSymbolTable
0
LTYPE
5
14
100
AcDbSymbolTableRecord
100
AcDbLinetypeTableRecord
2
BYBLOCK
70
0
0
LTYPE
5
15
100
AcDbSymbolTableRecord
100
AcDbLinetypeTableRecord
2
BYLAYER
70
0
0
ENDTAB
0
TABLE
2
LAYER
5
2
100
AcDbSymbolTable
70
2
0
LAYER
5
50
100
AcDbSymbolTableRecord
100
AcDbLayerTableRecord
2
0
70
0
6
CONTINUOUS
0
ENDTAB
0
TABLE
2
STYLE
5
3
100
AcDbSymbolTable
70
1
0
STYLE
5
11
100
AcDbSymbolTableRecord
100
AcDbTextStyleTableRecord
2
STANDARD
70
0
0
ENDTAB
0
TABLE
2
VIEW
5
6
100
AcDbSymbolTable
70
0
0
ENDTAB
0
TABLE
2
UCS
5
7
100
AcDbSymbolTable
70
0
0
ENDTAB
0
TABLE
2
APPID
5
9
100
AcDbSymbolTable
70
2
0
APPID
5
12
100
AcDbSymbolTableRecord
100
AcDbRegAppTableRecord
2
ACAD
70
0
0
ENDTAB
0
TABLE
2
DIMSTYLE
5
A
100
AcDbSymbolTable
70
1
0
ENDTAB
0
TABLE
2
BLOCK_RECORD
5
1
100
AcDbSymbolTable
70
1
0
BLOCK_RECORD
5
1F
100
AcDbSymbolTableRecord
100
AcDbBlockTableRecord
2
*MODEL_SPACE
0
BLOCK_RECORD
5
1B
100
AcDbSymbolTableRecord
100
AcDbBlockTableRecord
2
*PAPER_SPACE
0
ENDTAB
0
ENDSEC
0
SECTION
2
BLOCKS
0
BLOCK
5
20
100
AcDbEntity
100
AcDbBlockBegin
2
*MODEL_SPACE
0
ENDBLK
5
21
100
AcDbEntity
100
AcDbBlockEnd
0
BLOCK
5
1C
100
AcDbEntity
100
AcDbBlockBegin
2
*PAPER_SPACE
0
ENDBLK
5
1D
100
AcDbEntity
100
AcDbBlockEnd
0
ENDSEC
0
SECTION
2
ENTITIES
0
LWPOLYLINE
5
100
100
AcDbEntity
8
0
100
AcDbPolyline
90
27
70
1
43
0.0
10
-66.352747001739658
20
-55.935490754099568
42
-0.41421356237309503
10
-67.352747001739658
20
-54.935490754099575
10
-67.352747001739658
20
-51.650402198817993
10
-43.145999999999987
20
-51.650402198818
10
-43.145999999999951
20
-16.749999999999883
10
-45.795999999999978
20
-16.749999999999972
10
-45.795999999999992
20
-15.099999999999998
42
0.84303899710076446
10
-49.293056274847693
20
-14.499999999999993
10
-61.8989437251523
20
-14.499999999999993
42
0.84303899710076446
10
-65.396000000000015
20
-15.099999999999998
10
-65.396000000000015
20
-16.7499961853005
10
-67.352746910187008
20
-16.7499961853005
10
-67.351396210446978
20
29.177470781668902
42
-0.13210685898501318
10
-67.216512294552643
20
29.679013063813748
10
-48.994959601509521
20
61.107737151812024
42
-0.41531490413002509
10
-47.625023620917304
20
61.46939015387602
10
-24.05794944508645
20
47.687198745239776
42
0.13306871766951359
10
-23.553136741962774
20
47.550423438885225
10
71.12276808399757
20
47.549742359799659
42
-0.41421387211277499
10
72.122760890168166
20
46.549734108512865
10
72.121981847096521
20
-47.864706832895052
42
-0.41421079941279343
10
71.121983029163658
20
-48.86469858158172
10
36.411281675384267
20
-48.864739610779694
42
0.19942611728046683
10
35.702778963108926
20
-49.15903270862362
10
29.239548569653135
20
-55.64787940913088
42
-0.19945065659854144
10
28.530951455022588
20
-55.94217250263047
10
-43.145999999999951
20
-55.935490754099568
0
LWPOLYLINE
5
101
100
AcDbEntity
8
0
100
AcDbPolyline
90
4
70
1
43
0.0
10
-55.861000000000054
20
43.841000000000022
10
-43.737000000000101
20
36.841000000000008
10
-36.737000000000073
20
48.966000000000008
10
-48.861000000000026
20
55.965999999999987
0
LWPOLYLINE
5
102
100
AcDbEntity
8
0
100
AcDbPolyline
90
4
70
1
43
0.0
10
-17.608000000000075
20
43.72999999999999
10
-31.131000000000029
20
47.353999999999985
10
-34.755000000000038
20
33.831000000000024
10
-21.232000000000085
20
30.206999999999997
0
LWPOLYLINE
5
103
100
AcDbEntity
8
0
100
AcDbPolyline
90
4
70
1
43
0.0
10
-7.4470000000000613
20
-37.518799999999999
10
-21.447000000000045
20
-37.518799999999999
10
-21.447000000000045
20
-51.518799999999992
10
-7.4470000000000613
20
-51.518799999999992
0
LWPOLYLINE
5
104
100
AcDbEntity
8
0
100
AcDbPolyline
90
4
70
1
43
0.0
10
16.652999999999977
20
-36.883799999999987
10
16.652999999999977
20
-50.883800000000001
10
30.652999999999928
20
-50.883800000000001
10
30.652999999999928
20
-36.883799999999987
0
LWPOLYLINE
5
105
100
AcDbEntity
8
0
100
AcDbPolyline
90
4
70
1
43
0.0
10
68.752999999999915
20
-12.753799999999984
10
54.752999999999929
20
-12.753799999999984
10
54.752999999999929
20
-26.753799999999988
10
68.752999999999915
20
-26.753799999999988
0
LWPOLYLINE
5
106
100
AcDbEntity
8
0
100
AcDbPolyline
90
4
70
1
43
0.0
10
54.752999999999929
20
-31.803799999999995
10
54.752999999999929
20
-45.803799999999988
10
68.752999999999915
20
-45.803799999999988
10
68.752999999999915
20
-31.803799999999995
0
LWPOLYLINE
5
107
100
AcDbEntity
8
0
100
AcDbPolyline
90
4
70
1
43
0.0
10
30.652999999999928
20
-31.833799999999997
10
30.652999999999928
20
-17.833799999999993
10
16.652999999999977
20
-17.833799999999993
10
16.652999999999977
20
-31.833799999999997
0
LWPOLYLINE
5
108
100
AcDbEntity
8
0
100
AcDbPolyline
90
4
70
1
43
0.0
10
-21.447000000000045
20
-18.468800000000005
10
-21.447000000000045
20
-32.468800000000002
10
-7.4470000000000613
20
-32.468800000000002
10
-7.4470000000000613
20
-18.468800000000005
0
LWPOLYLINE
5
109
100
AcDbEntity
8
0
100
AcDbPolyline
90
4
70
1
43
0.0
10
11.60299999999995
20
-15.323799999999999
10
11.60299999999995
20
-1.3239999999999874
10
-2.3970000000000358
20
-1.3239999999999874
10
-2.3970000000000358
20
-15.323799999999999
0
LWPOLYLINE
5
110
100
AcDbEntity
8
0
100
AcDbPolyline
90
4
70
1
43
0.0
10
-2.3970000000000358
20
-39.4238
10
-2.3970000000000358
20
-53.423799999999993
10
11.60299999999995
20
-53.423799999999993
10
11.60299999999995
20
-39.4238
0
LWPOLYLINE
5
111
100
AcDbEntity
8
0
100
AcDbPolyline
90
4
70
1
43
0.0
10
49.702999999999939
20
-12.753799999999984
10
35.702999999999953
20
-12.753799999999984
10
35.702999999999953
20
-26.753799999999988
10
49.702999999999939
20
-26.753799999999988
0
LWPOLYLINE
5
112
100
AcDbEntity
8
0
100
AcDbPolyline
90
4
70
1
43
0.0
10
35.702999999999953
20
-31.803799999999995
10
35.702999999999953
20
-45.803799999999988
10
49.702999999999939
20
-45.803799999999988
10
49.702999999999939
20
-31.803799999999995
0
LWPOLYLINE
5
113
100
AcDbEntity
8
0
100
AcDbPolyline
90
4
70
1
43
0.0
10
-2.3970000000000358
20
-20.373800000000006
10
-2.3970000000000358
20
-34.373800000000003
10
11.60299999999995
20
-34.373800000000003
10
11.60299999999995
20
-20.373800000000006
0
LWPOLYLINE
5
114
100
AcDbEntity
8
0
100
AcDbPolyline
90
4
70
1
43
0.0
10
-26.497000000000071
20
-35.613799999999998
10
-40.49700000000005
20
-35.613799999999998
10
-40.49700000000005
20
-49.613799999999991
10
-26.497000000000071
20
-49.613799999999991
0
LWPOLYLINE
5
115
100
AcDbEntity
8
0
100
AcDbPolyline
90
4
70
1
43
0.0
10
-26.497000000000071
20
-16.563800000000004
10
-40.49700000000005
20
-16.563800000000004
10
-40.49700000000005
20
-30.563800000000001
10
-26.497000000000071
20
-30.563800000000001
0
LWPOLYLINE
5
116
100
AcDbEntity
8
0
100
AcDbPolyline
90
4
70
1
43
0.0
10
54.752999999999929
20
6.2960000000000171
10
54.752999999999929
20
-7.7039999999999864
10
68.752999999999915
20
-7.7039999999999864
10
68.752999999999915
20
6.2960000000000171
0
LWPOLYLINE
5
117
100
AcDbEntity
8
0
100
AcDbPolyline
90
4
70
1
43
0.0
10
2.0779999999999088
20
43.76100000000001
10
-11.922000000000077
20
43.76100000000001
10
-11.922000000000077
20
29.761000000000006
10
2.0779999999999088
20
29.761000000000006
0
LWPOLYLINE
5
118
100
AcDbEntity
8
0
100
AcDbPolyline
90
4
70
1
43
0.0
10
30.652999999999928
20
25.31600000000001
10
30.652999999999928
20
39.316000000000017
10
16.652999999999977
20
39.316000000000017
10
16.652999999999977
20
25.31600000000001
0
LWPOLYLINE
5
119
100
AcDbEntity
8
0
100
AcDbPolyline
90
4
70
1
43
0.0
10
68.752999999999915
20
11.346000000000007
10
68.752999999999915
20
25.346000000000011
10
54.752999999999929
20
25.346000000000011
10
54.752999999999929
20
11.346000000000007
0
LWPOLYLINE
5
120
100
AcDbEntity
8
0
100
AcDbPolyline
90
4
70
1
43
0.0
10
54.752999999999929
20
44.396000000000022
10
54.752999999999929
20
30.396000000000019
10
68.752999999999915
20
30.396000000000019
10
68.752999999999915
20
44.396000000000022
0
LWPOLYLINE
5
121
100
AcDbEntity
8
0
100
AcDbPolyline
90
4
70
1
43
0.0
10
-7.4470000000000613
20
19.631000000000007
10
-21.447000000000045
20
19.631000000000007
10
-21.447000000000045
20
5.6310000000000038
10
-7.4470000000000613
20
5.6310000000000038
0
LWPOLYLINE
5
122
100
AcDbEntity
8
0
100
AcDbPolyline
90
4
70
1
43
0.0
10
30.652999999999928
20
20.266000000000002
10
16.652999999999977
20
20.266000000000002
10
16.652999999999977
20
6.266000000000016
10
30.652999999999928
20
6.266000000000016
0
LWPOLYLINE
5
123
100
AcDbEntity
8
0
100
AcDbPolyline
90
4
70
1
43
0.0
10
49.702999999999939
20
11.346000000000007
10
49.702999999999939
20
25.346000000000011
10
35.702999999999953
20
25.346000000000011
10
35.702999999999953
20
11.346000000000007
0
LWPOLYLINE
5
124
100
AcDbEntity
8
0
100
AcDbPolyline
90
4
70
1
43
0.0
10
49.702999999999939
20
44.396000000000022
10
35.702999999999953
20
44.396000000000022
10
35.702999999999953
20
30.396000000000019
10
49.702999999999939
20
30.396000000000019
0
LWPOLYLINE
5
125
100
AcDbEntity
8
0
100
AcDbPolyline
90
4
70
1
43
0.0
10
11.60299999999995
20
3.7260000000000026
10
11.60299999999995
20
17.726000000000006
10
-2.3970000000000358
20
17.726000000000006
10
-2.3970000000000358
20
3.7260000000000026
0
LWPOLYLINE
5
126
100
AcDbEntity
8
0
100
AcDbPolyline
90
4
70
1
43
0.0
10
-40.49700000000005
20
7.5360000000000049
10
-26.497000000000071
20
7.5360000000000049
10
-26.497000000000071
20
21.536000000000008
10
-40.49700000000005
20
21.536000000000008
0
LWPOLYLINE
5
127
100
AcDbEntity
8
0
100
AcDbPolyline
90
4
70
1
43
0.0
10
-26.497000000000071
20
-11.513799999999996
10
-26.497000000000071
20
2.4860000000000149
10
-40.49700000000005
20
2.4860000000000149
10
-40.49700000000005
20
-11.513799999999996
0
LWPOLYLINE
5
128
100
AcDbEntity
8
0
100
AcDbPolyline
90
4
70
1
43
0.0
10
-7.4470000000000613
20
-13.418799999999997
10
-7.4470000000000613
20
0.58100000000001373
10
-21.447000000000045
20
0.58100000000001373
10
-21.447000000000045
20
-13.418799999999997
0
LWPOLYLINE
5
129
100
AcDbEntity
8
0
100
AcDbPolyline
90
4
70
1
43
0.0
10
30.652999999999928
20
-12.783799999999985
10
30.652999999999928
20
1.2160000000000082
10
16.652999999999977
20
1.2160000000000082
10
16.652999999999977
20
-12.783799999999985
0
LWPOLYLINE
5
130
100
AcDbEntity
8
0
100
AcDbPolyline
90
4
70
1
43
0.0
10
49.702999999999939
20
-7.7039999999999864
10
49.702999999999939
20
6.2960000000000171
10
35.702999999999953
20
6.2960000000000171
10
35.702999999999953
20
-7.7039999999999864
0
CIRCLE
5
131
100
AcDbEntity
8
0
100
AcDbCircle
10
-23.97199999999998
20
-34.041300000000007
30
8.8817841970012523e-15
40
1.0500000000000043
210
0
220
0
230
1
0
CIRCLE
5
132
100
AcDbEntity
8
0
100
AcDbCircle
10
52.227999999999959
20
-29.2788
30
8.8817841970012523e-15
40
1.0500000000000043
210
0
220
0
230
1
0
CIRCLE
5
133
100
AcDbEntity
8
0
100
AcDbCircle
10
3.8100000000000023
20
23.10900000000002
30
8.8817841970012523e-15
40
1.0500000000000043
210
0
220
0
230
1
0
CIRCLE
5
134
100
AcDbEntity
8
0
100
AcDbCircle
10
52.202999999999982
20
27.871000000000024
30
8.8817841970012523e-15
40
1.0500000000000043
210
0
220
0
230
1
0
CIRCLE
5
135
100
AcDbEntity
8
0
100
AcDbCircle
10
-39.053000000000004
20
36.602000000000018
30
8.8817841970012523e-15
40
1.0500000000000043
210
0
220
0
230
1
0
ENDSEC
0
SECTION
2
OBJECTS
0
DICTIONARY
5
C
100
AcDbDictionary
3
ACAD_GROUP
350
D
3
ACAD_MLINESTYLE
350
17
0
DICTIONARY
5
D
100
AcDbDictionary
0
DICTIONARY
5
1A
330
C
100
AcDbDictionary
0
DICTIONARY
5
17
100
AcDbDictionary
0
ENDSEC
0
EOF
