G04 #@! TF.GenerationSoftware,KiCad,Pcbnew,(5.1.6)-1*
G04 #@! TF.CreationDate,2020-10-24T16:38:59+08:00*
G04 #@! TF.ProjectId,Cantaloupe_Plate,43616e74-616c-46f7-9570-655f506c6174,rev?*
G04 #@! TF.SameCoordinates,Original*
G04 #@! TF.FileFunction,Soldermask,Top*
G04 #@! TF.FilePolarity,Negative*
%FSLAX46Y46*%
G04 Gerber Fmt 4.6, Leading zero omitted, Abs format (unit mm)*
G04 Created by KiCad (PCBNEW (5.1.6)-1) date 2020-10-24 16:38:59*
%MOMM*%
%LPD*%
G01*
G04 APERTURE LIST*
%ADD10C,0.100000*%
G04 APERTURE END LIST*
D10*
G36*
X313489110Y-126236171D02*
G01*
X313659406Y-126275879D01*
X313824295Y-126350589D01*
X326039207Y-133402872D01*
X326186355Y-133508318D01*
X326305882Y-133635935D01*
X326398222Y-133784431D01*
X326459815Y-133948077D01*
X326488297Y-134120597D01*
X326482577Y-134295358D01*
X326442869Y-134465654D01*
X326368159Y-134630543D01*
X319315876Y-146845455D01*
X319210430Y-146992603D01*
X319082813Y-147112130D01*
X318934317Y-147204470D01*
X318770671Y-147266063D01*
X318598151Y-147294545D01*
X318423390Y-147288825D01*
X318253094Y-147249117D01*
X318088205Y-147174407D01*
X305873293Y-140122124D01*
X305726145Y-140016678D01*
X305606618Y-139889061D01*
X305514278Y-139740565D01*
X305452685Y-139576919D01*
X305424203Y-139404399D01*
X305429923Y-139229638D01*
X305469631Y-139059342D01*
X305544341Y-138894453D01*
X312596624Y-126679541D01*
X312702070Y-126532393D01*
X312829687Y-126412866D01*
X312978183Y-126320526D01*
X313141829Y-126258933D01*
X313314349Y-126230451D01*
X313489110Y-126236171D01*
G37*
G36*
X291109270Y-119643910D02*
G01*
X291208871Y-119670598D01*
X304633644Y-123267755D01*
X304633653Y-123267758D01*
X304733245Y-123294444D01*
X304902665Y-123358209D01*
X305051151Y-123450544D01*
X305178776Y-123570078D01*
X305280626Y-123712209D01*
X305352789Y-123871477D01*
X305392497Y-124041772D01*
X305398217Y-124216533D01*
X305368730Y-124395136D01*
X305342042Y-124494737D01*
X301744885Y-137919510D01*
X301744882Y-137919519D01*
X301718196Y-138019111D01*
X301654431Y-138188531D01*
X301562096Y-138337017D01*
X301442562Y-138464642D01*
X301300431Y-138566492D01*
X301141163Y-138638655D01*
X300970868Y-138678363D01*
X300796107Y-138684083D01*
X300617504Y-138654596D01*
X298878126Y-138188531D01*
X287093130Y-135030751D01*
X287093121Y-135030748D01*
X286993529Y-135004062D01*
X286824109Y-134940297D01*
X286675623Y-134847962D01*
X286547998Y-134728428D01*
X286446148Y-134586297D01*
X286373985Y-134427029D01*
X286334277Y-134256734D01*
X286328557Y-134081973D01*
X286358044Y-133903370D01*
X287190459Y-130796756D01*
X289981889Y-120378996D01*
X289981892Y-120378987D01*
X290008578Y-120279395D01*
X290072343Y-120109975D01*
X290164678Y-119961489D01*
X290284212Y-119833864D01*
X290426343Y-119732014D01*
X290585611Y-119659851D01*
X290755906Y-119620143D01*
X290930667Y-119614423D01*
X291109270Y-119643910D01*
G37*
G36*
X231069936Y-119066745D02*
G01*
X231237268Y-119117505D01*
X231391474Y-119199930D01*
X231526642Y-119310859D01*
X231637571Y-119446027D01*
X231719996Y-119600233D01*
X231770756Y-119767565D01*
X231788499Y-119947718D01*
X231788499Y-134052286D01*
X231770756Y-134232439D01*
X231719996Y-134399771D01*
X231637571Y-134553977D01*
X231526642Y-134689145D01*
X231391474Y-134800074D01*
X231237268Y-134882499D01*
X231069936Y-134933259D01*
X230889783Y-134951002D01*
X216785215Y-134951002D01*
X216605062Y-134933259D01*
X216437730Y-134882499D01*
X216283524Y-134800074D01*
X216148356Y-134689145D01*
X216037427Y-134553977D01*
X215955002Y-134399771D01*
X215904242Y-134232439D01*
X215886499Y-134052286D01*
X215886499Y-119947718D01*
X215904242Y-119767565D01*
X215955002Y-119600233D01*
X216037427Y-119446027D01*
X216148356Y-119310859D01*
X216283524Y-119199930D01*
X216437730Y-119117505D01*
X216605062Y-119066745D01*
X216785215Y-119049002D01*
X230889783Y-119049002D01*
X231069936Y-119066745D01*
G37*
G36*
X281869937Y-119066743D02*
G01*
X282037269Y-119117503D01*
X282191475Y-119199928D01*
X282326643Y-119310857D01*
X282437572Y-119446025D01*
X282519997Y-119600231D01*
X282570757Y-119767563D01*
X282588500Y-119947716D01*
X282588500Y-134052284D01*
X282570757Y-134232437D01*
X282519997Y-134399769D01*
X282437572Y-134553975D01*
X282326643Y-134689143D01*
X282191475Y-134800072D01*
X282037269Y-134882497D01*
X281869937Y-134933257D01*
X281689784Y-134951000D01*
X267585216Y-134951000D01*
X267405063Y-134933257D01*
X267237731Y-134882497D01*
X267083525Y-134800072D01*
X266948357Y-134689143D01*
X266837428Y-134553975D01*
X266755003Y-134399769D01*
X266704243Y-134232437D01*
X266686500Y-134052284D01*
X266686500Y-119947716D01*
X266704243Y-119767563D01*
X266755003Y-119600231D01*
X266837428Y-119446025D01*
X266948357Y-119310857D01*
X267083525Y-119199928D01*
X267237731Y-119117503D01*
X267405063Y-119066743D01*
X267585216Y-119049000D01*
X281689784Y-119049000D01*
X281869937Y-119066743D01*
G37*
G36*
X212019938Y-119066742D02*
G01*
X212187270Y-119117502D01*
X212341476Y-119199927D01*
X212476644Y-119310856D01*
X212587573Y-119446024D01*
X212669998Y-119600230D01*
X212720758Y-119767562D01*
X212738501Y-119947715D01*
X212738501Y-134052283D01*
X212720758Y-134232436D01*
X212669998Y-134399768D01*
X212587573Y-134553974D01*
X212476644Y-134689142D01*
X212341476Y-134800071D01*
X212187270Y-134882496D01*
X212019938Y-134933256D01*
X211839785Y-134950999D01*
X197735217Y-134950999D01*
X197555064Y-134933256D01*
X197387732Y-134882496D01*
X197233526Y-134800071D01*
X197098358Y-134689142D01*
X196987429Y-134553974D01*
X196905004Y-134399768D01*
X196854244Y-134232436D01*
X196836501Y-134052283D01*
X196836501Y-119947715D01*
X196854244Y-119767562D01*
X196905004Y-119600230D01*
X196987429Y-119446024D01*
X197098358Y-119310856D01*
X197233526Y-119199927D01*
X197387732Y-119117502D01*
X197555064Y-119066742D01*
X197735217Y-119048999D01*
X211839785Y-119048999D01*
X212019938Y-119066742D01*
G37*
G36*
X323014110Y-109738382D02*
G01*
X323184406Y-109778090D01*
X323349295Y-109852800D01*
X335564207Y-116905083D01*
X335711355Y-117010529D01*
X335830882Y-117138146D01*
X335923222Y-117286642D01*
X335984815Y-117450288D01*
X336013297Y-117622808D01*
X336007577Y-117797569D01*
X335967869Y-117967865D01*
X335893159Y-118132754D01*
X328840876Y-130347666D01*
X328735430Y-130494814D01*
X328607813Y-130614341D01*
X328459317Y-130706681D01*
X328295671Y-130768274D01*
X328123151Y-130796756D01*
X327948390Y-130791036D01*
X327778094Y-130751328D01*
X327613205Y-130676618D01*
X315398293Y-123624335D01*
X315251145Y-123518889D01*
X315131618Y-123391272D01*
X315039278Y-123242776D01*
X314977685Y-123079130D01*
X314949203Y-122906610D01*
X314954923Y-122731849D01*
X314994631Y-122561553D01*
X315069341Y-122396664D01*
X322121624Y-110181752D01*
X322227070Y-110034604D01*
X322354687Y-109915077D01*
X322503183Y-109822737D01*
X322666829Y-109761144D01*
X322839349Y-109732662D01*
X323014110Y-109738382D01*
G37*
G36*
X250119938Y-114304243D02*
G01*
X250287270Y-114355003D01*
X250441476Y-114437428D01*
X250576644Y-114548357D01*
X250687573Y-114683525D01*
X250769998Y-114837731D01*
X250820758Y-115005063D01*
X250838501Y-115185216D01*
X250838501Y-129289784D01*
X250820758Y-129469937D01*
X250769998Y-129637269D01*
X250687573Y-129791475D01*
X250576644Y-129926643D01*
X250441476Y-130037572D01*
X250287270Y-130119997D01*
X250119938Y-130170757D01*
X249939785Y-130188500D01*
X235835217Y-130188500D01*
X235655064Y-130170757D01*
X235487732Y-130119997D01*
X235333526Y-130037572D01*
X235198358Y-129926643D01*
X235087429Y-129791475D01*
X235005004Y-129637269D01*
X234954244Y-129469937D01*
X234936501Y-129289784D01*
X234936501Y-115185216D01*
X234954244Y-115005063D01*
X235005004Y-114837731D01*
X235087429Y-114683525D01*
X235198358Y-114548357D01*
X235333526Y-114437428D01*
X235487732Y-114355003D01*
X235655064Y-114304243D01*
X235835217Y-114286500D01*
X249939785Y-114286500D01*
X250119938Y-114304243D01*
G37*
G36*
X310805799Y-120408616D02*
G01*
X310916984Y-120430732D01*
X311126453Y-120517497D01*
X311314970Y-120643460D01*
X311475290Y-120803780D01*
X311601253Y-120992297D01*
X311688018Y-121201766D01*
X311732250Y-121424136D01*
X311732250Y-121650864D01*
X311688018Y-121873234D01*
X311601253Y-122082703D01*
X311475290Y-122271220D01*
X311314970Y-122431540D01*
X311126453Y-122557503D01*
X311126452Y-122557504D01*
X311126451Y-122557504D01*
X311065100Y-122582916D01*
X310916984Y-122644268D01*
X310805799Y-122666384D01*
X310694615Y-122688500D01*
X310467885Y-122688500D01*
X310356701Y-122666384D01*
X310245516Y-122644268D01*
X310097400Y-122582916D01*
X310036049Y-122557504D01*
X310036048Y-122557504D01*
X310036047Y-122557503D01*
X309847530Y-122431540D01*
X309687210Y-122271220D01*
X309561247Y-122082703D01*
X309474482Y-121873234D01*
X309430250Y-121650864D01*
X309430250Y-121424136D01*
X309474482Y-121201766D01*
X309561247Y-120992297D01*
X309687210Y-120803780D01*
X309847530Y-120643460D01*
X310036047Y-120517497D01*
X310245516Y-120430732D01*
X310356701Y-120408616D01*
X310467885Y-120386500D01*
X310694615Y-120386500D01*
X310805799Y-120408616D01*
G37*
G36*
X214537049Y-116346116D02*
G01*
X214648234Y-116368232D01*
X214857703Y-116454997D01*
X215046220Y-116580960D01*
X215206540Y-116741280D01*
X215332503Y-116929797D01*
X215419268Y-117139266D01*
X215463500Y-117361636D01*
X215463500Y-117588364D01*
X215419268Y-117810734D01*
X215332503Y-118020203D01*
X215206540Y-118208720D01*
X215046220Y-118369040D01*
X214857703Y-118495003D01*
X214648234Y-118581768D01*
X214537049Y-118603884D01*
X214425865Y-118626000D01*
X214199135Y-118626000D01*
X214087951Y-118603884D01*
X213976766Y-118581768D01*
X213767297Y-118495003D01*
X213578780Y-118369040D01*
X213418460Y-118208720D01*
X213292497Y-118020203D01*
X213205732Y-117810734D01*
X213161500Y-117588364D01*
X213161500Y-117361636D01*
X213205732Y-117139266D01*
X213292497Y-116929797D01*
X213418460Y-116741280D01*
X213578780Y-116580960D01*
X213767297Y-116454997D01*
X213976766Y-116368232D01*
X214087951Y-116346116D01*
X214199135Y-116324000D01*
X214425865Y-116324000D01*
X214537049Y-116346116D01*
G37*
G36*
X231069936Y-100016743D02*
G01*
X231237268Y-100067503D01*
X231391474Y-100149928D01*
X231526642Y-100260857D01*
X231637571Y-100396025D01*
X231719996Y-100550231D01*
X231770756Y-100717563D01*
X231788499Y-100897716D01*
X231788499Y-115002284D01*
X231770756Y-115182437D01*
X231719996Y-115349769D01*
X231637571Y-115503975D01*
X231526642Y-115639143D01*
X231391474Y-115750072D01*
X231237268Y-115832497D01*
X231069936Y-115883257D01*
X230889783Y-115901000D01*
X216785215Y-115901000D01*
X216605062Y-115883257D01*
X216437730Y-115832497D01*
X216283524Y-115750072D01*
X216148356Y-115639143D01*
X216037427Y-115503975D01*
X215955002Y-115349769D01*
X215904242Y-115182437D01*
X215886499Y-115002284D01*
X215886499Y-100897716D01*
X215904242Y-100717563D01*
X215955002Y-100550231D01*
X216037427Y-100396025D01*
X216148356Y-100260857D01*
X216283524Y-100149928D01*
X216437730Y-100067503D01*
X216605062Y-100016743D01*
X216785215Y-99999000D01*
X230889783Y-99999000D01*
X231069936Y-100016743D01*
G37*
G36*
X212019938Y-100016743D02*
G01*
X212187270Y-100067503D01*
X212341476Y-100149928D01*
X212476644Y-100260857D01*
X212587573Y-100396025D01*
X212669998Y-100550231D01*
X212720758Y-100717563D01*
X212738501Y-100897716D01*
X212738501Y-115002284D01*
X212720758Y-115182437D01*
X212669998Y-115349769D01*
X212587573Y-115503975D01*
X212476644Y-115639143D01*
X212341476Y-115750072D01*
X212187270Y-115832497D01*
X212019938Y-115883257D01*
X211839785Y-115901000D01*
X197735217Y-115901000D01*
X197555064Y-115883257D01*
X197387732Y-115832497D01*
X197233526Y-115750072D01*
X197098358Y-115639143D01*
X196987429Y-115503975D01*
X196905004Y-115349769D01*
X196854244Y-115182437D01*
X196836501Y-115002284D01*
X196836501Y-100897716D01*
X196854244Y-100717563D01*
X196905004Y-100550231D01*
X196987429Y-100396025D01*
X197098358Y-100260857D01*
X197233526Y-100149928D01*
X197387732Y-100067503D01*
X197555064Y-100016743D01*
X197735217Y-99999000D01*
X211839785Y-99999000D01*
X212019938Y-100016743D01*
G37*
G36*
X307269937Y-98429243D02*
G01*
X307437269Y-98480003D01*
X307591475Y-98562428D01*
X307726643Y-98673357D01*
X307837572Y-98808525D01*
X307919997Y-98962731D01*
X307970757Y-99130063D01*
X307988500Y-99310216D01*
X307988500Y-113414784D01*
X307970757Y-113594937D01*
X307919997Y-113762269D01*
X307837572Y-113916475D01*
X307726643Y-114051643D01*
X307591475Y-114162572D01*
X307437269Y-114244997D01*
X307269937Y-114295757D01*
X307089784Y-114313500D01*
X292985216Y-114313500D01*
X292805063Y-114295757D01*
X292637731Y-114244997D01*
X292483525Y-114162572D01*
X292348357Y-114051643D01*
X292237428Y-113916475D01*
X292155003Y-113762269D01*
X292104243Y-113594937D01*
X292086500Y-113414784D01*
X292086500Y-99310216D01*
X292104243Y-99130063D01*
X292155003Y-98962731D01*
X292237428Y-98808525D01*
X292348357Y-98673357D01*
X292483525Y-98562428D01*
X292637731Y-98480003D01*
X292805063Y-98429243D01*
X292985216Y-98411500D01*
X307089784Y-98411500D01*
X307269937Y-98429243D01*
G37*
G36*
X271687049Y-111583616D02*
G01*
X271798234Y-111605732D01*
X272007703Y-111692497D01*
X272196220Y-111818460D01*
X272356540Y-111978780D01*
X272482503Y-112167297D01*
X272569268Y-112376766D01*
X272613500Y-112599136D01*
X272613500Y-112825864D01*
X272569268Y-113048234D01*
X272482503Y-113257703D01*
X272356540Y-113446220D01*
X272196220Y-113606540D01*
X272007703Y-113732503D01*
X271798234Y-113819268D01*
X271687049Y-113841384D01*
X271575865Y-113863500D01*
X271349135Y-113863500D01*
X271237951Y-113841384D01*
X271126766Y-113819268D01*
X270917297Y-113732503D01*
X270728780Y-113606540D01*
X270568460Y-113446220D01*
X270442497Y-113257703D01*
X270355732Y-113048234D01*
X270311500Y-112825864D01*
X270311500Y-112599136D01*
X270355732Y-112376766D01*
X270442497Y-112167297D01*
X270568460Y-111978780D01*
X270728780Y-111818460D01*
X270917297Y-111692497D01*
X271126766Y-111605732D01*
X271237951Y-111583616D01*
X271349135Y-111561500D01*
X271575865Y-111561500D01*
X271687049Y-111583616D01*
G37*
G36*
X250119937Y-95254242D02*
G01*
X250287269Y-95305002D01*
X250441475Y-95387427D01*
X250576643Y-95498356D01*
X250687572Y-95633524D01*
X250769997Y-95787730D01*
X250820757Y-95955062D01*
X250838500Y-96135215D01*
X250838500Y-110239783D01*
X250820757Y-110419936D01*
X250769997Y-110587268D01*
X250687572Y-110741474D01*
X250576643Y-110876642D01*
X250441475Y-110987571D01*
X250287269Y-111069996D01*
X250119937Y-111120756D01*
X249939784Y-111138499D01*
X235835216Y-111138499D01*
X235655063Y-111120756D01*
X235487731Y-111069996D01*
X235333525Y-110987571D01*
X235198357Y-110876642D01*
X235087428Y-110741474D01*
X235005003Y-110587268D01*
X234954243Y-110419936D01*
X234936500Y-110239783D01*
X234936500Y-96135215D01*
X234954243Y-95955062D01*
X235005003Y-95787730D01*
X235087428Y-95633524D01*
X235198357Y-95498356D01*
X235333525Y-95387427D01*
X235487731Y-95305002D01*
X235655063Y-95254242D01*
X235835216Y-95236499D01*
X249939784Y-95236499D01*
X250119937Y-95254242D01*
G37*
G36*
X288219937Y-95254242D02*
G01*
X288387269Y-95305002D01*
X288541475Y-95387427D01*
X288676643Y-95498356D01*
X288787572Y-95633524D01*
X288869997Y-95787730D01*
X288920757Y-95955062D01*
X288938500Y-96135215D01*
X288938500Y-110239783D01*
X288920757Y-110419936D01*
X288869997Y-110587268D01*
X288787572Y-110741474D01*
X288676643Y-110876642D01*
X288541475Y-110987571D01*
X288387269Y-111069996D01*
X288219937Y-111120756D01*
X288039784Y-111138499D01*
X273935216Y-111138499D01*
X273755063Y-111120756D01*
X273587731Y-111069996D01*
X273433525Y-110987571D01*
X273298357Y-110876642D01*
X273187428Y-110741474D01*
X273105003Y-110587268D01*
X273054243Y-110419936D01*
X273036500Y-110239783D01*
X273036500Y-96135215D01*
X273054243Y-95955062D01*
X273105003Y-95787730D01*
X273187428Y-95633524D01*
X273298357Y-95498356D01*
X273433525Y-95387427D01*
X273587731Y-95305002D01*
X273755063Y-95254242D01*
X273935216Y-95236499D01*
X288039784Y-95236499D01*
X288219937Y-95254242D01*
G37*
G36*
X269169938Y-91285493D02*
G01*
X269337270Y-91336253D01*
X269491476Y-91418678D01*
X269626644Y-91529607D01*
X269737573Y-91664775D01*
X269819998Y-91818981D01*
X269870758Y-91986313D01*
X269888501Y-92166466D01*
X269888501Y-106271034D01*
X269870758Y-106451187D01*
X269819998Y-106618519D01*
X269737573Y-106772725D01*
X269626644Y-106907893D01*
X269491476Y-107018822D01*
X269337270Y-107101247D01*
X269169938Y-107152007D01*
X268989785Y-107169750D01*
X254885217Y-107169750D01*
X254705064Y-107152007D01*
X254537732Y-107101247D01*
X254383526Y-107018822D01*
X254248358Y-106907893D01*
X254137429Y-106772725D01*
X254055004Y-106618519D01*
X254004244Y-106451187D01*
X253986501Y-106271034D01*
X253986501Y-92166466D01*
X254004244Y-91986313D01*
X254055004Y-91818981D01*
X254137429Y-91664775D01*
X254248358Y-91529607D01*
X254383526Y-91418678D01*
X254537732Y-91336253D01*
X254705064Y-91285493D01*
X254885217Y-91267750D01*
X268989785Y-91267750D01*
X269169938Y-91285493D01*
G37*
G36*
X231069938Y-80966743D02*
G01*
X231237270Y-81017503D01*
X231391476Y-81099928D01*
X231526644Y-81210857D01*
X231637573Y-81346025D01*
X231719998Y-81500231D01*
X231770758Y-81667563D01*
X231788501Y-81847716D01*
X231788501Y-95952284D01*
X231770758Y-96132437D01*
X231719998Y-96299769D01*
X231637573Y-96453975D01*
X231526644Y-96589143D01*
X231391476Y-96700072D01*
X231237270Y-96782497D01*
X231069938Y-96833257D01*
X230889785Y-96851000D01*
X216785217Y-96851000D01*
X216605064Y-96833257D01*
X216437732Y-96782497D01*
X216283526Y-96700072D01*
X216148358Y-96589143D01*
X216037429Y-96453975D01*
X215955004Y-96299769D01*
X215904244Y-96132437D01*
X215886501Y-95952284D01*
X215886501Y-81847716D01*
X215904244Y-81667563D01*
X215955004Y-81500231D01*
X216037429Y-81346025D01*
X216148358Y-81210857D01*
X216283526Y-81099928D01*
X216437732Y-81017503D01*
X216605064Y-80966743D01*
X216785217Y-80949000D01*
X230889785Y-80949000D01*
X231069938Y-80966743D01*
G37*
G36*
X212019938Y-80966743D02*
G01*
X212187270Y-81017503D01*
X212341476Y-81099928D01*
X212476644Y-81210857D01*
X212587573Y-81346025D01*
X212669998Y-81500231D01*
X212720758Y-81667563D01*
X212738501Y-81847716D01*
X212738501Y-95952284D01*
X212720758Y-96132437D01*
X212669998Y-96299769D01*
X212587573Y-96453975D01*
X212476644Y-96589143D01*
X212341476Y-96700072D01*
X212187270Y-96782497D01*
X212019938Y-96833257D01*
X211839785Y-96851000D01*
X197735217Y-96851000D01*
X197555064Y-96833257D01*
X197387732Y-96782497D01*
X197233526Y-96700072D01*
X197098358Y-96589143D01*
X196987429Y-96453975D01*
X196905004Y-96299769D01*
X196854244Y-96132437D01*
X196836501Y-95952284D01*
X196836501Y-81847716D01*
X196854244Y-81667563D01*
X196905004Y-81500231D01*
X196987429Y-81346025D01*
X197098358Y-81210857D01*
X197233526Y-81099928D01*
X197387732Y-81017503D01*
X197555064Y-80966743D01*
X197735217Y-80949000D01*
X211839785Y-80949000D01*
X212019938Y-80966743D01*
G37*
G36*
X307269935Y-79379243D02*
G01*
X307437267Y-79430003D01*
X307591473Y-79512428D01*
X307726641Y-79623357D01*
X307837570Y-79758525D01*
X307919995Y-79912731D01*
X307970755Y-80080063D01*
X307988498Y-80260216D01*
X307988498Y-94364784D01*
X307970755Y-94544937D01*
X307919995Y-94712269D01*
X307837570Y-94866475D01*
X307726641Y-95001643D01*
X307591473Y-95112572D01*
X307437267Y-95194997D01*
X307269935Y-95245757D01*
X307089782Y-95263500D01*
X292985214Y-95263500D01*
X292805061Y-95245757D01*
X292637729Y-95194997D01*
X292483523Y-95112572D01*
X292348355Y-95001643D01*
X292237426Y-94866475D01*
X292155001Y-94712269D01*
X292104241Y-94544937D01*
X292086498Y-94364784D01*
X292086498Y-80260216D01*
X292104241Y-80080063D01*
X292155001Y-79912731D01*
X292237426Y-79758525D01*
X292348355Y-79623357D01*
X292483523Y-79512428D01*
X292637729Y-79430003D01*
X292805061Y-79379243D01*
X292985214Y-79361500D01*
X307089782Y-79361500D01*
X307269935Y-79379243D01*
G37*
G36*
X250119937Y-76204242D02*
G01*
X250287269Y-76255002D01*
X250441475Y-76337427D01*
X250576643Y-76448356D01*
X250687572Y-76583524D01*
X250769997Y-76737730D01*
X250820757Y-76905062D01*
X250838500Y-77085215D01*
X250838500Y-91189783D01*
X250820757Y-91369936D01*
X250769997Y-91537268D01*
X250687572Y-91691474D01*
X250576643Y-91826642D01*
X250441475Y-91937571D01*
X250287269Y-92019996D01*
X250119937Y-92070756D01*
X249939784Y-92088499D01*
X235835216Y-92088499D01*
X235655063Y-92070756D01*
X235487731Y-92019996D01*
X235333525Y-91937571D01*
X235198357Y-91826642D01*
X235087428Y-91691474D01*
X235005003Y-91537268D01*
X234954243Y-91369936D01*
X234936500Y-91189783D01*
X234936500Y-77085215D01*
X234954243Y-76905062D01*
X235005003Y-76737730D01*
X235087428Y-76583524D01*
X235198357Y-76448356D01*
X235333525Y-76337427D01*
X235487731Y-76255002D01*
X235655063Y-76204242D01*
X235835216Y-76186499D01*
X249939784Y-76186499D01*
X250119937Y-76204242D01*
G37*
G36*
X288219937Y-76204242D02*
G01*
X288387269Y-76255002D01*
X288541475Y-76337427D01*
X288676643Y-76448356D01*
X288787572Y-76583524D01*
X288869997Y-76737730D01*
X288920757Y-76905062D01*
X288938500Y-77085215D01*
X288938500Y-91189783D01*
X288920757Y-91369936D01*
X288869997Y-91537268D01*
X288787572Y-91691474D01*
X288676643Y-91826642D01*
X288541475Y-91937571D01*
X288387269Y-92019996D01*
X288219937Y-92070756D01*
X288039784Y-92088499D01*
X273935216Y-92088499D01*
X273755063Y-92070756D01*
X273587731Y-92019996D01*
X273433525Y-91937571D01*
X273298357Y-91826642D01*
X273187428Y-91691474D01*
X273105003Y-91537268D01*
X273054243Y-91369936D01*
X273036500Y-91189783D01*
X273036500Y-77085215D01*
X273054243Y-76905062D01*
X273105003Y-76737730D01*
X273187428Y-76583524D01*
X273298357Y-76448356D01*
X273433525Y-76337427D01*
X273587731Y-76255002D01*
X273755063Y-76204242D01*
X273935216Y-76186499D01*
X288039784Y-76186499D01*
X288219937Y-76204242D01*
G37*
G36*
X269169938Y-72235492D02*
G01*
X269337270Y-72286252D01*
X269491476Y-72368677D01*
X269626644Y-72479606D01*
X269737573Y-72614774D01*
X269819998Y-72768980D01*
X269870758Y-72936312D01*
X269888501Y-73116465D01*
X269888501Y-87221033D01*
X269870758Y-87401186D01*
X269819998Y-87568518D01*
X269737573Y-87722724D01*
X269626644Y-87857892D01*
X269491476Y-87968821D01*
X269337270Y-88051246D01*
X269169938Y-88102006D01*
X268989785Y-88119749D01*
X254885217Y-88119749D01*
X254705064Y-88102006D01*
X254537732Y-88051246D01*
X254383526Y-87968821D01*
X254248358Y-87857892D01*
X254137429Y-87722724D01*
X254055004Y-87568518D01*
X254004244Y-87401186D01*
X253986501Y-87221033D01*
X253986501Y-73116465D01*
X254004244Y-72936312D01*
X254055004Y-72768980D01*
X254137429Y-72614774D01*
X254248358Y-72479606D01*
X254383526Y-72368677D01*
X254537732Y-72286252D01*
X254705064Y-72235492D01*
X254885217Y-72217749D01*
X268989785Y-72217749D01*
X269169938Y-72235492D01*
G37*
G36*
X212019937Y-61916744D02*
G01*
X212187269Y-61967504D01*
X212341475Y-62049929D01*
X212476643Y-62160858D01*
X212587572Y-62296026D01*
X212669997Y-62450232D01*
X212720757Y-62617564D01*
X212738500Y-62797717D01*
X212738500Y-76902285D01*
X212720757Y-77082438D01*
X212669997Y-77249770D01*
X212587572Y-77403976D01*
X212476643Y-77539144D01*
X212341475Y-77650073D01*
X212187269Y-77732498D01*
X212019937Y-77783258D01*
X211839784Y-77801001D01*
X197735216Y-77801001D01*
X197555063Y-77783258D01*
X197387731Y-77732498D01*
X197233525Y-77650073D01*
X197098357Y-77539144D01*
X196987428Y-77403976D01*
X196905003Y-77249770D01*
X196854243Y-77082438D01*
X196836500Y-76902285D01*
X196836500Y-62797717D01*
X196854243Y-62617564D01*
X196905003Y-62450232D01*
X196987428Y-62296026D01*
X197098357Y-62160858D01*
X197233525Y-62049929D01*
X197387731Y-61967504D01*
X197555063Y-61916744D01*
X197735216Y-61899001D01*
X211839784Y-61899001D01*
X212019937Y-61916744D01*
G37*
G36*
X231069936Y-61916743D02*
G01*
X231237268Y-61967503D01*
X231391474Y-62049928D01*
X231526642Y-62160857D01*
X231637571Y-62296025D01*
X231719996Y-62450231D01*
X231770756Y-62617563D01*
X231788499Y-62797716D01*
X231788499Y-76902284D01*
X231770756Y-77082437D01*
X231719996Y-77249769D01*
X231637571Y-77403975D01*
X231526642Y-77539143D01*
X231391474Y-77650072D01*
X231237268Y-77732497D01*
X231069936Y-77783257D01*
X230889783Y-77801000D01*
X216785215Y-77801000D01*
X216605062Y-77783257D01*
X216437730Y-77732497D01*
X216283524Y-77650072D01*
X216148356Y-77539143D01*
X216037427Y-77403975D01*
X215955002Y-77249769D01*
X215904242Y-77082437D01*
X215886499Y-76902284D01*
X215886499Y-62797716D01*
X215904242Y-62617563D01*
X215955002Y-62450231D01*
X216037427Y-62296025D01*
X216148356Y-62160857D01*
X216283524Y-62049928D01*
X216437730Y-61967503D01*
X216605062Y-61916743D01*
X216785215Y-61899000D01*
X230889783Y-61899000D01*
X231069936Y-61916743D01*
G37*
G36*
X307269937Y-60329244D02*
G01*
X307437269Y-60380004D01*
X307591475Y-60462429D01*
X307726643Y-60573358D01*
X307837572Y-60708526D01*
X307919997Y-60862732D01*
X307970757Y-61030064D01*
X307988500Y-61210217D01*
X307988500Y-75314785D01*
X307970757Y-75494938D01*
X307919997Y-75662270D01*
X307837572Y-75816476D01*
X307726643Y-75951644D01*
X307591475Y-76062573D01*
X307437269Y-76144998D01*
X307269937Y-76195758D01*
X307089784Y-76213501D01*
X292985216Y-76213501D01*
X292805063Y-76195758D01*
X292637731Y-76144998D01*
X292483525Y-76062573D01*
X292348357Y-75951644D01*
X292237428Y-75816476D01*
X292155003Y-75662270D01*
X292104243Y-75494938D01*
X292086500Y-75314785D01*
X292086500Y-61210217D01*
X292104243Y-61030064D01*
X292155003Y-60862732D01*
X292237428Y-60708526D01*
X292348357Y-60573358D01*
X292483525Y-60462429D01*
X292637731Y-60380004D01*
X292805063Y-60329244D01*
X292985216Y-60311501D01*
X307089784Y-60311501D01*
X307269937Y-60329244D01*
G37*
G36*
X250119937Y-57154244D02*
G01*
X250287269Y-57205004D01*
X250441475Y-57287429D01*
X250576643Y-57398358D01*
X250687572Y-57533526D01*
X250769997Y-57687732D01*
X250820757Y-57855064D01*
X250838500Y-58035217D01*
X250838500Y-72139785D01*
X250820757Y-72319938D01*
X250769997Y-72487270D01*
X250687572Y-72641476D01*
X250576643Y-72776644D01*
X250441475Y-72887573D01*
X250287269Y-72969998D01*
X250119937Y-73020758D01*
X249939784Y-73038501D01*
X235835216Y-73038501D01*
X235655063Y-73020758D01*
X235487731Y-72969998D01*
X235333525Y-72887573D01*
X235198357Y-72776644D01*
X235087428Y-72641476D01*
X235005003Y-72487270D01*
X234954243Y-72319938D01*
X234936500Y-72139785D01*
X234936500Y-58035217D01*
X234954243Y-57855064D01*
X235005003Y-57687732D01*
X235087428Y-57533526D01*
X235198357Y-57398358D01*
X235333525Y-57287429D01*
X235487731Y-57205004D01*
X235655063Y-57154244D01*
X235835216Y-57136501D01*
X249939784Y-57136501D01*
X250119937Y-57154244D01*
G37*
G36*
X288219936Y-57154243D02*
G01*
X288387268Y-57205003D01*
X288541474Y-57287428D01*
X288676642Y-57398357D01*
X288787571Y-57533525D01*
X288869996Y-57687731D01*
X288920756Y-57855063D01*
X288938499Y-58035216D01*
X288938499Y-72139784D01*
X288920756Y-72319937D01*
X288869996Y-72487269D01*
X288787571Y-72641475D01*
X288676642Y-72776643D01*
X288541474Y-72887572D01*
X288387268Y-72969997D01*
X288219936Y-73020757D01*
X288039783Y-73038500D01*
X273935215Y-73038500D01*
X273755062Y-73020757D01*
X273587730Y-72969997D01*
X273433524Y-72887572D01*
X273298356Y-72776643D01*
X273187427Y-72641475D01*
X273105002Y-72487269D01*
X273054242Y-72319937D01*
X273036499Y-72139784D01*
X273036499Y-58035216D01*
X273054242Y-57855063D01*
X273105002Y-57687731D01*
X273187427Y-57533525D01*
X273298356Y-57398357D01*
X273433524Y-57287428D01*
X273587730Y-57205003D01*
X273755062Y-57154243D01*
X273935215Y-57136500D01*
X288039783Y-57136500D01*
X288219936Y-57154243D01*
G37*
G36*
X269169937Y-53185494D02*
G01*
X269337269Y-53236254D01*
X269491475Y-53318679D01*
X269626643Y-53429608D01*
X269737572Y-53564776D01*
X269819997Y-53718982D01*
X269870757Y-53886314D01*
X269888500Y-54066467D01*
X269888500Y-68171035D01*
X269870757Y-68351188D01*
X269819997Y-68518520D01*
X269737572Y-68672726D01*
X269626643Y-68807894D01*
X269491475Y-68918823D01*
X269337269Y-69001248D01*
X269169937Y-69052008D01*
X268989784Y-69069751D01*
X254885216Y-69069751D01*
X254705063Y-69052008D01*
X254537731Y-69001248D01*
X254383525Y-68918823D01*
X254248357Y-68807894D01*
X254137428Y-68672726D01*
X254055003Y-68518520D01*
X254004243Y-68351188D01*
X253986500Y-68171035D01*
X253986500Y-54066467D01*
X254004243Y-53886314D01*
X254055003Y-53718982D01*
X254137428Y-53564776D01*
X254248357Y-53429608D01*
X254383525Y-53318679D01*
X254537731Y-53236254D01*
X254705063Y-53185494D01*
X254885216Y-53167751D01*
X268989784Y-53167751D01*
X269169937Y-53185494D01*
G37*
G36*
X214537049Y-59196116D02*
G01*
X214648234Y-59218232D01*
X214857703Y-59304997D01*
X215046220Y-59430960D01*
X215206540Y-59591280D01*
X215332503Y-59779797D01*
X215419268Y-59989266D01*
X215463500Y-60211636D01*
X215463500Y-60438364D01*
X215419268Y-60660734D01*
X215332503Y-60870203D01*
X215206540Y-61058720D01*
X215046220Y-61219040D01*
X214857703Y-61345003D01*
X214648234Y-61431768D01*
X214537049Y-61453884D01*
X214425865Y-61476000D01*
X214199135Y-61476000D01*
X214087951Y-61453884D01*
X213976766Y-61431768D01*
X213767297Y-61345003D01*
X213578780Y-61219040D01*
X213418460Y-61058720D01*
X213292497Y-60870203D01*
X213205732Y-60660734D01*
X213161500Y-60438364D01*
X213161500Y-60211636D01*
X213205732Y-59989266D01*
X213292497Y-59779797D01*
X213418460Y-59591280D01*
X213578780Y-59430960D01*
X213767297Y-59304997D01*
X213976766Y-59218232D01*
X214087951Y-59196116D01*
X214199135Y-59174000D01*
X214425865Y-59174000D01*
X214537049Y-59196116D01*
G37*
G36*
X212019937Y-42866743D02*
G01*
X212187269Y-42917503D01*
X212341475Y-42999928D01*
X212476643Y-43110857D01*
X212587572Y-43246025D01*
X212669997Y-43400231D01*
X212720757Y-43567563D01*
X212738500Y-43747716D01*
X212738500Y-57852284D01*
X212720757Y-58032437D01*
X212669997Y-58199769D01*
X212587572Y-58353975D01*
X212476643Y-58489143D01*
X212341475Y-58600072D01*
X212187269Y-58682497D01*
X212019937Y-58733257D01*
X211839784Y-58751000D01*
X197735216Y-58751000D01*
X197555063Y-58733257D01*
X197387731Y-58682497D01*
X197233525Y-58600072D01*
X197098357Y-58489143D01*
X196987428Y-58353975D01*
X196905003Y-58199769D01*
X196854243Y-58032437D01*
X196836500Y-57852284D01*
X196836500Y-43747716D01*
X196854243Y-43567563D01*
X196905003Y-43400231D01*
X196987428Y-43246025D01*
X197098357Y-43110857D01*
X197233525Y-42999928D01*
X197387731Y-42917503D01*
X197555063Y-42866743D01*
X197735216Y-42849000D01*
X211839784Y-42849000D01*
X212019937Y-42866743D01*
G37*
G36*
X231069937Y-42866742D02*
G01*
X231237269Y-42917502D01*
X231391475Y-42999927D01*
X231526643Y-43110856D01*
X231637572Y-43246024D01*
X231719997Y-43400230D01*
X231770757Y-43567562D01*
X231788500Y-43747715D01*
X231788500Y-57852283D01*
X231770757Y-58032436D01*
X231719997Y-58199768D01*
X231637572Y-58353974D01*
X231526643Y-58489142D01*
X231391475Y-58600071D01*
X231237269Y-58682496D01*
X231069937Y-58733256D01*
X230889784Y-58750999D01*
X216785216Y-58750999D01*
X216605063Y-58733256D01*
X216437731Y-58682496D01*
X216283525Y-58600071D01*
X216148357Y-58489142D01*
X216037428Y-58353974D01*
X215955003Y-58199768D01*
X215904243Y-58032436D01*
X215886500Y-57852283D01*
X215886500Y-43747715D01*
X215904243Y-43567562D01*
X215955003Y-43400230D01*
X216037428Y-43246024D01*
X216148357Y-43110856D01*
X216283525Y-42999927D01*
X216437731Y-42917502D01*
X216605063Y-42866742D01*
X216785216Y-42848999D01*
X230889784Y-42848999D01*
X231069937Y-42866742D01*
G37*
G36*
X290737049Y-56021116D02*
G01*
X290848234Y-56043232D01*
X291057703Y-56129997D01*
X291246220Y-56255960D01*
X291406540Y-56416280D01*
X291532503Y-56604797D01*
X291579501Y-56718259D01*
X291619268Y-56814267D01*
X291663500Y-57036635D01*
X291663500Y-57263365D01*
X291658713Y-57287429D01*
X291619268Y-57485734D01*
X291532503Y-57695203D01*
X291406540Y-57883720D01*
X291246220Y-58044040D01*
X291057703Y-58170003D01*
X290848234Y-58256768D01*
X290737049Y-58278884D01*
X290625865Y-58301000D01*
X290399135Y-58301000D01*
X290287951Y-58278884D01*
X290176766Y-58256768D01*
X289967297Y-58170003D01*
X289778780Y-58044040D01*
X289618460Y-57883720D01*
X289492497Y-57695203D01*
X289405732Y-57485734D01*
X289366287Y-57287429D01*
X289361500Y-57263365D01*
X289361500Y-57036635D01*
X289405732Y-56814267D01*
X289445500Y-56718259D01*
X289492497Y-56604797D01*
X289618460Y-56416280D01*
X289778780Y-56255960D01*
X289967297Y-56129997D01*
X290176766Y-56043232D01*
X290287951Y-56021116D01*
X290399135Y-55999000D01*
X290625865Y-55999000D01*
X290737049Y-56021116D01*
G37*
G36*
X307269938Y-41279243D02*
G01*
X307437270Y-41330003D01*
X307591476Y-41412428D01*
X307726644Y-41523357D01*
X307837573Y-41658525D01*
X307919998Y-41812731D01*
X307970758Y-41980063D01*
X307988501Y-42160216D01*
X307988501Y-56264784D01*
X307970758Y-56444937D01*
X307919998Y-56612269D01*
X307837573Y-56766475D01*
X307726644Y-56901643D01*
X307591476Y-57012572D01*
X307437270Y-57094997D01*
X307269938Y-57145757D01*
X307089785Y-57163500D01*
X292985217Y-57163500D01*
X292805064Y-57145757D01*
X292637732Y-57094997D01*
X292483526Y-57012572D01*
X292348358Y-56901643D01*
X292237429Y-56766475D01*
X292155004Y-56612269D01*
X292104244Y-56444937D01*
X292086501Y-56264784D01*
X292086501Y-42160216D01*
X292104244Y-41980063D01*
X292155004Y-41812731D01*
X292237429Y-41658525D01*
X292348358Y-41523357D01*
X292483526Y-41412428D01*
X292637732Y-41330003D01*
X292805064Y-41279243D01*
X292985217Y-41261500D01*
X307089785Y-41261500D01*
X307269938Y-41279243D01*
G37*
G36*
X250119937Y-38104244D02*
G01*
X250287269Y-38155004D01*
X250441475Y-38237429D01*
X250576643Y-38348358D01*
X250687572Y-38483526D01*
X250769997Y-38637732D01*
X250820757Y-38805064D01*
X250838500Y-38985217D01*
X250838500Y-53089785D01*
X250820757Y-53269938D01*
X250769997Y-53437270D01*
X250687572Y-53591476D01*
X250576643Y-53726644D01*
X250441475Y-53837573D01*
X250287269Y-53919998D01*
X250119937Y-53970758D01*
X249939784Y-53988501D01*
X235835216Y-53988501D01*
X235655063Y-53970758D01*
X235487731Y-53919998D01*
X235333525Y-53837573D01*
X235198357Y-53726644D01*
X235087428Y-53591476D01*
X235005003Y-53437270D01*
X234954243Y-53269938D01*
X234936500Y-53089785D01*
X234936500Y-38985217D01*
X234954243Y-38805064D01*
X235005003Y-38637732D01*
X235087428Y-38483526D01*
X235198357Y-38348358D01*
X235333525Y-38237429D01*
X235487731Y-38155004D01*
X235655063Y-38104244D01*
X235835216Y-38086501D01*
X249939784Y-38086501D01*
X250119937Y-38104244D01*
G37*
G36*
X288219936Y-38104243D02*
G01*
X288387268Y-38155003D01*
X288541474Y-38237428D01*
X288676642Y-38348357D01*
X288787571Y-38483525D01*
X288869996Y-38637731D01*
X288920756Y-38805063D01*
X288938499Y-38985216D01*
X288938499Y-53089784D01*
X288920756Y-53269937D01*
X288869996Y-53437269D01*
X288787571Y-53591475D01*
X288676642Y-53726643D01*
X288541474Y-53837572D01*
X288387268Y-53919997D01*
X288219936Y-53970757D01*
X288039783Y-53988500D01*
X273935215Y-53988500D01*
X273755062Y-53970757D01*
X273587730Y-53919997D01*
X273433524Y-53837572D01*
X273298356Y-53726643D01*
X273187427Y-53591475D01*
X273105002Y-53437269D01*
X273054242Y-53269937D01*
X273036499Y-53089784D01*
X273036499Y-38985216D01*
X273054242Y-38805063D01*
X273105002Y-38637731D01*
X273187427Y-38483525D01*
X273298356Y-38348357D01*
X273433524Y-38237428D01*
X273587730Y-38155003D01*
X273755062Y-38104243D01*
X273935215Y-38086500D01*
X288039783Y-38086500D01*
X288219936Y-38104243D01*
G37*
G36*
X269169938Y-34135493D02*
G01*
X269337270Y-34186253D01*
X269491476Y-34268678D01*
X269626644Y-34379607D01*
X269737573Y-34514775D01*
X269819998Y-34668981D01*
X269870758Y-34836313D01*
X269888501Y-35016466D01*
X269888501Y-49121034D01*
X269870758Y-49301187D01*
X269819998Y-49468519D01*
X269737573Y-49622725D01*
X269626644Y-49757893D01*
X269491476Y-49868822D01*
X269337270Y-49951247D01*
X269169938Y-50002007D01*
X268989785Y-50019750D01*
X254885217Y-50019750D01*
X254705064Y-50002007D01*
X254537732Y-49951247D01*
X254383526Y-49868822D01*
X254248358Y-49757893D01*
X254137429Y-49622725D01*
X254055004Y-49468519D01*
X254004244Y-49301187D01*
X253986501Y-49121034D01*
X253986501Y-35016466D01*
X254004244Y-34836313D01*
X254055004Y-34668981D01*
X254137429Y-34514775D01*
X254248358Y-34379607D01*
X254383526Y-34268678D01*
X254537732Y-34186253D01*
X254705064Y-34135493D01*
X254885217Y-34117750D01*
X268989785Y-34117750D01*
X269169938Y-34135493D01*
G37*
M02*
