G04 #@! TF.GenerationSoftware,KiCad,Pcbnew,(5.1.6)-1*
G04 #@! TF.CreationDate,2020-10-24T16:38:59+08:00*
G04 #@! TF.ProjectId,Cantaloupe_Plate,43616e74-616c-46f7-9570-655f506c6174,rev?*
G04 #@! TF.SameCoordinates,Original*
G04 #@! TF.FileFunction,Profile,NP*
%FSLAX46Y46*%
G04 Gerber Fmt 4.6, Leading zero omitted, Abs format (unit mm)*
G04 Created by KiCad (PCBNEW (5.1.6)-1) date 2020-10-24 16:38:59*
%MOMM*%
%LPD*%
G01*
G04 APERTURE LIST*
G04 #@! TA.AperFunction,Profile*
%ADD10C,0.100000*%
G04 #@! TD*
G04 #@! TA.AperFunction,Profile*
%ADD11C,0.010000*%
G04 #@! TD*
G04 APERTURE END LIST*
D10*
X280832499Y-136525048D02*
X196262499Y-136525048D01*
X309558772Y-144201473D02*
G75*
G03*
X280832499Y-136525048I-28676273J-49723575D01*
G01*
X245712142Y-33556686D02*
G75*
G02*
X260188449Y-32543749I14476307J-102937063D01*
G01*
X318589299Y-149409775D02*
X309558772Y-144201473D01*
X260188449Y-32543749D02*
X310182500Y-32543799D01*
X196111473Y-41145343D02*
X245712142Y-33556686D01*
X312182499Y-73987548D02*
G75*
G02*
X311182500Y-72987549I0J999999D01*
G01*
X319955325Y-149043749D02*
G75*
G02*
X318589300Y-149409776I-866026J499999D01*
G01*
X337208042Y-119295073D02*
X319955325Y-149043749D01*
X337343501Y-74987548D02*
X337343500Y-118792514D01*
X336343500Y-73987549D02*
G75*
G02*
X337343501Y-74987548I1J-1000000D01*
G01*
X310182500Y-32543799D02*
G75*
G02*
X311182547Y-33543894I-2J-1000049D01*
G01*
X196262499Y-136525048D02*
G75*
G02*
X195262500Y-135525049I0J999999D01*
G01*
X312182499Y-73987548D02*
X336343500Y-73987549D01*
X311182547Y-33543894D02*
X311182500Y-72987549D01*
X195262500Y-135525049D02*
X195262500Y-42133874D01*
X337343499Y-118792514D02*
G75*
G02*
X337208042Y-119295073I-999999J0D01*
G01*
X195262500Y-42133874D02*
G75*
G02*
X196111473Y-41145343I1000000J1D01*
G01*
D11*
X306394072Y-139324676D02*
X313394072Y-127200320D01*
X313394072Y-127200320D02*
X325518428Y-134200320D01*
X325518428Y-134200320D02*
X318518428Y-146324676D01*
X306394072Y-139324676D02*
X318518428Y-146324676D01*
X287290173Y-134099000D02*
X290913640Y-120576039D01*
X290913640Y-120576039D02*
X304436601Y-124199506D01*
X304436601Y-124199506D02*
X300813134Y-137722467D01*
X287290173Y-134099000D02*
X300813134Y-137722467D01*
X293037500Y-113362500D02*
X293037500Y-99362500D01*
X293037500Y-99362500D02*
X307037500Y-99362500D01*
X307037500Y-99362500D02*
X307037500Y-113362500D01*
X293037500Y-113362500D02*
X307037500Y-113362500D01*
X235887500Y-53037501D02*
X235887500Y-39037501D01*
X235887500Y-39037501D02*
X249887500Y-39037501D01*
X249887500Y-39037501D02*
X249887500Y-53037501D01*
X235887500Y-53037501D02*
X249887500Y-53037501D01*
X235887501Y-129237500D02*
X235887501Y-115237500D01*
X235887501Y-115237500D02*
X249887501Y-115237500D01*
X249887501Y-115237500D02*
X249887501Y-129237500D01*
X235887501Y-129237500D02*
X249887501Y-129237500D01*
X315919072Y-122826887D02*
X322919072Y-110702531D01*
X322919072Y-110702531D02*
X335043428Y-117702531D01*
X335043428Y-117702531D02*
X328043428Y-129826887D01*
X315919072Y-122826887D02*
X328043428Y-129826887D01*
X273987500Y-110187499D02*
X273987500Y-96187499D01*
X273987500Y-96187499D02*
X287987500Y-96187499D01*
X287987500Y-96187499D02*
X287987500Y-110187499D01*
X273987500Y-110187499D02*
X287987500Y-110187499D01*
X293037498Y-94312500D02*
X293037498Y-80312500D01*
X293037498Y-80312500D02*
X307037498Y-80312500D01*
X307037498Y-80312500D02*
X307037498Y-94312500D01*
X293037498Y-94312500D02*
X307037498Y-94312500D01*
X293037500Y-75262501D02*
X293037500Y-61262501D01*
X293037500Y-61262501D02*
X307037500Y-61262501D01*
X307037500Y-61262501D02*
X307037500Y-75262501D01*
X293037500Y-75262501D02*
X307037500Y-75262501D01*
X273987500Y-91137499D02*
X273987500Y-77137499D01*
X273987500Y-77137499D02*
X287987500Y-77137499D01*
X287987500Y-77137499D02*
X287987500Y-91137499D01*
X273987500Y-91137499D02*
X287987500Y-91137499D01*
X197787500Y-57800000D02*
X197787500Y-43800000D01*
X197787500Y-43800000D02*
X211787500Y-43800000D01*
X211787500Y-43800000D02*
X211787500Y-57800000D01*
X197787500Y-57800000D02*
X211787500Y-57800000D01*
X293037501Y-56212500D02*
X293037501Y-42212500D01*
X293037501Y-42212500D02*
X307037501Y-42212500D01*
X307037501Y-42212500D02*
X307037501Y-56212500D01*
X293037501Y-56212500D02*
X307037501Y-56212500D01*
X273987499Y-72087500D02*
X273987499Y-58087500D01*
X273987499Y-58087500D02*
X287987499Y-58087500D01*
X287987499Y-58087500D02*
X287987499Y-72087500D01*
X273987499Y-72087500D02*
X287987499Y-72087500D01*
X273987499Y-53037500D02*
X273987499Y-39037500D01*
X273987499Y-39037500D02*
X287987499Y-39037500D01*
X287987499Y-39037500D02*
X287987499Y-53037500D01*
X273987499Y-53037500D02*
X287987499Y-53037500D01*
X267637500Y-134000000D02*
X267637500Y-120000000D01*
X267637500Y-120000000D02*
X281637500Y-120000000D01*
X281637500Y-120000000D02*
X281637500Y-134000000D01*
X267637500Y-134000000D02*
X281637500Y-134000000D01*
X254937501Y-106218750D02*
X254937501Y-92218750D01*
X254937501Y-92218750D02*
X268937501Y-92218750D01*
X268937501Y-92218750D02*
X268937501Y-106218750D01*
X254937501Y-106218750D02*
X268937501Y-106218750D01*
X254937501Y-87168749D02*
X254937501Y-73168749D01*
X254937501Y-73168749D02*
X268937501Y-73168749D01*
X268937501Y-73168749D02*
X268937501Y-87168749D01*
X254937501Y-87168749D02*
X268937501Y-87168749D01*
X254937500Y-68118751D02*
X254937500Y-54118751D01*
X254937500Y-54118751D02*
X268937500Y-54118751D01*
X268937500Y-54118751D02*
X268937500Y-68118751D01*
X254937500Y-68118751D02*
X268937500Y-68118751D01*
X254937501Y-49068750D02*
X254937501Y-35068750D01*
X254937501Y-35068750D02*
X268937501Y-35068750D01*
X268937501Y-35068750D02*
X268937501Y-49068750D01*
X254937501Y-49068750D02*
X268937501Y-49068750D01*
X235887500Y-110187499D02*
X235887500Y-96187499D01*
X235887500Y-96187499D02*
X249887500Y-96187499D01*
X249887500Y-96187499D02*
X249887500Y-110187499D01*
X235887500Y-110187499D02*
X249887500Y-110187499D01*
X235887500Y-91137499D02*
X235887500Y-77137499D01*
X235887500Y-77137499D02*
X249887500Y-77137499D01*
X249887500Y-77137499D02*
X249887500Y-91137499D01*
X235887500Y-91137499D02*
X249887500Y-91137499D01*
X235887500Y-72087501D02*
X235887500Y-58087501D01*
X235887500Y-58087501D02*
X249887500Y-58087501D01*
X249887500Y-58087501D02*
X249887500Y-72087501D01*
X235887500Y-72087501D02*
X249887500Y-72087501D01*
X216837499Y-134000002D02*
X216837499Y-120000002D01*
X216837499Y-120000002D02*
X230837499Y-120000002D01*
X230837499Y-120000002D02*
X230837499Y-134000002D01*
X216837499Y-134000002D02*
X230837499Y-134000002D01*
X216837499Y-114950000D02*
X216837499Y-100950000D01*
X216837499Y-100950000D02*
X230837499Y-100950000D01*
X230837499Y-100950000D02*
X230837499Y-114950000D01*
X216837499Y-114950000D02*
X230837499Y-114950000D01*
X216837501Y-95900000D02*
X216837501Y-81900000D01*
X216837501Y-81900000D02*
X230837501Y-81900000D01*
X230837501Y-81900000D02*
X230837501Y-95900000D01*
X216837501Y-95900000D02*
X230837501Y-95900000D01*
X216837499Y-76850000D02*
X216837499Y-62850000D01*
X216837499Y-62850000D02*
X230837499Y-62850000D01*
X230837499Y-62850000D02*
X230837499Y-76850000D01*
X216837499Y-76850000D02*
X230837499Y-76850000D01*
X216837500Y-57799999D02*
X216837500Y-43799999D01*
X216837500Y-43799999D02*
X230837500Y-43799999D01*
X230837500Y-43799999D02*
X230837500Y-57799999D01*
X216837500Y-57799999D02*
X230837500Y-57799999D01*
X197787501Y-133999999D02*
X197787501Y-119999999D01*
X197787501Y-119999999D02*
X211787501Y-119999999D01*
X211787501Y-119999999D02*
X211787501Y-133999999D01*
X197787501Y-133999999D02*
X211787501Y-133999999D01*
X197787501Y-114950000D02*
X197787501Y-100950000D01*
X197787501Y-100950000D02*
X211787501Y-100950000D01*
X211787501Y-100950000D02*
X211787501Y-114950000D01*
X197787501Y-114950000D02*
X211787501Y-114950000D01*
X197787501Y-95900000D02*
X197787501Y-81900000D01*
X197787501Y-81900000D02*
X211787501Y-81900000D01*
X211787501Y-81900000D02*
X211787501Y-95900000D01*
X197787501Y-95900000D02*
X211787501Y-95900000D01*
X197787500Y-76850001D02*
X197787500Y-62850001D01*
X197787500Y-62850001D02*
X211787500Y-62850001D01*
X211787500Y-62850001D02*
X211787500Y-76850001D01*
X197787500Y-76850001D02*
X211787500Y-76850001D01*
M02*
