  0
SECTION
  2
HEADER
  9
$ANGBASE
  50
0.0
  9
$ANGDIR
  70
1
  9
$MEASUREMENT
  70
1
  0
ENDSEC
  0
SECTION
  2
TABLES
  0
TABLE
  2
LTYPE
  70
4
  0
LTYPE
  5
40F
  2
CONTINUOUS
  70
0
  3
Solid line
  72
65
  73
0
  40
0.0
  0
LTYPE
  5
410
  2
DASHDOT
 70
0
  3
Dash Dot ____ _ ____ _
 72
65
 73
4
 40
2.0
 49
1.25
 49
-0.25
 49
0.25
 49
-0.25
  0
LTYPE
  5
411
  2
DASHED
 70
0
  3
Dashed __ __ __ __ __
 72
65
 73
2
 40
0.75
 49
0.5
 49
-0.25
  0
LTYPE
  5
43B
  2
DOTTED
 70
0
  3
Dotted .  .  .  .
 72
65
 73
2
 40
0.2
 49
0.0
 49
-0.2
  0
ENDTAB
  0
TABLE
  2
STYLE
  70
4
  0
STYLE
  2
KICAD
  70
0
  40
0
  41
1
  42
1
  50
0
  71
0
  3
isocp.shx
  0
STYLE
  2
KICADB
  70
0
  40
0
  41
1
  42
1
  50
0
  71
0
  3
isocp.shx
  0
STYLE
  2
KICADI
  70
0
  40
0
  41
1
  42
1
  50
15
  71
0
  3
isocp.shx
  0
STYLE
  2
KICADBI
  70
0
  40
0
  41
1
  42
1
  50
15
  71
0
  3
isocp.shx
  0
ENDTAB
  0
TABLE
  2
LAYER
  70
1
  0
LAYER
  2
BLACK
  70
0
  62
7
  6
CONTINUOUS
  0
ENDTAB
  0
ENDSEC
  0
SECTION
  2
ENTITIES
0
CIRCLE
8
BLACK
10
307.874
20
-135.37
40
1
0
LINE
8
BLACK
6
CONTINUOUS
10
99.1574
20
-59.1
11
108.157
21
-59.1
0
LINE
8
BLACK
6
CONTINUOUS
10
108.157
20
-55.6
11
99.1574
21
-55.6
0
LINE
8
BLACK
6
CONTINUOUS
10
108.157
20
-55.6
11
108.157
21
-59.1
0
LINE
8
BLACK
6
CONTINUOUS
10
99.1574
20
-55.6
11
99.1574
21
-59.1
0
LINE
8
BLACK
6
CONTINUOUS
10
101.907
20
-55.6
11
105.407
21
-55.6
0
LINE
8
BLACK
6
CONTINUOUS
10
105.407
20
-53.6
11
101.907
21
-53.6
0
LINE
8
BLACK
6
CONTINUOUS
10
105.407
20
-53.6
11
105.407
21
-55.6
0
LINE
8
BLACK
6
CONTINUOUS
10
103.407
20
-53.6
11
103.407
21
-55.6
0
LINE
8
BLACK
6
CONTINUOUS
10
101.907
20
-53.6
11
101.907
21
-55.6
0
LINE
8
BLACK
6
CONTINUOUS
10
102.007
20
-53.6
11
102.007
21
-55.6
0
LINE
8
BLACK
6
CONTINUOUS
10
102.107
20
-53.6
11
102.107
21
-55.6
0
LINE
8
BLACK
6
CONTINUOUS
10
102.207
20
-53.6
11
102.207
21
-55.6
0
LINE
8
BLACK
6
CONTINUOUS
10
102.307
20
-53.6
11
102.307
21
-55.6
0
LINE
8
BLACK
6
CONTINUOUS
10
102.407
20
-53.6
11
102.407
21
-55.6
0
LINE
8
BLACK
6
CONTINUOUS
10
102.507
20
-53.6
11
102.507
21
-55.6
0
LINE
8
BLACK
6
CONTINUOUS
10
102.607
20
-53.6
11
102.607
21
-55.6
0
LINE
8
BLACK
6
CONTINUOUS
10
102.707
20
-53.6
11
102.707
21
-55.6
0
LINE
8
BLACK
6
CONTINUOUS
10
102.807
20
-53.6
11
102.807
21
-55.6
0
LINE
8
BLACK
6
CONTINUOUS
10
102.907
20
-53.6
11
102.907
21
-55.6
0
LINE
8
BLACK
6
CONTINUOUS
10
103.007
20
-53.6
11
103.007
21
-55.6
0
LINE
8
BLACK
6
CONTINUOUS
10
103.107
20
-53.6
11
103.107
21
-55.6
0
LINE
8
BLACK
6
CONTINUOUS
10
103.207
20
-53.6
11
103.207
21
-55.6
0
LINE
8
BLACK
6
CONTINUOUS
10
103.307
20
-53.6
11
103.307
21
-55.6
0
LINE
8
BLACK
6
CONTINUOUS
10
101.907
20
-53.6
11
101.907
21
-52.6
0
LINE
8
BLACK
6
CONTINUOUS
10
101.907
20
-52.6
11
103.407
21
-52.6
0
LINE
8
BLACK
6
CONTINUOUS
10
103.407
20
-53.6
11
103.407
21
-52.6
0
LINE
8
BLACK
6
CONTINUOUS
10
103.407
20
-52.6
11
103.407
21
-51.6
0
LINE
8
BLACK
6
CONTINUOUS
10
101.907
20
-52.6
11
101.907
21
-51.6
0
LINE
8
BLACK
6
CONTINUOUS
10
101.907
20
-51.6
11
103.407
21
-51.6
0
LINE
8
BLACK
6
CONTINUOUS
10
317.996
20
-59.1
11
308.996
21
-59.1
0
LINE
8
BLACK
6
CONTINUOUS
10
308.996
20
-55.6
11
317.996
21
-55.6
0
LINE
8
BLACK
6
CONTINUOUS
10
308.996
20
-55.6
11
308.996
21
-59.1
0
LINE
8
BLACK
6
CONTINUOUS
10
317.996
20
-55.6
11
317.996
21
-59.1
0
LINE
8
BLACK
6
CONTINUOUS
10
315.246
20
-55.6
11
311.746
21
-55.6
0
LINE
8
BLACK
6
CONTINUOUS
10
311.746
20
-53.6
11
315.246
21
-53.6
0
LINE
8
BLACK
6
CONTINUOUS
10
311.746
20
-53.6
11
311.746
21
-55.6
0
LINE
8
BLACK
6
CONTINUOUS
10
313.746
20
-53.6
11
313.746
21
-55.6
0
LINE
8
BLACK
6
CONTINUOUS
10
315.246
20
-53.6
11
315.246
21
-55.6
0
LINE
8
BLACK
6
CONTINUOUS
10
315.146
20
-53.6
11
315.146
21
-55.6
0
LINE
8
BLACK
6
CONTINUOUS
10
315.046
20
-53.6
11
315.046
21
-55.6
0
LINE
8
BLACK
6
CONTINUOUS
10
314.946
20
-53.6
11
314.946
21
-55.6
0
LINE
8
BLACK
6
CONTINUOUS
10
314.846
20
-53.6
11
314.846
21
-55.6
0
LINE
8
BLACK
6
CONTINUOUS
10
314.746
20
-53.6
11
314.746
21
-55.6
0
LINE
8
BLACK
6
CONTINUOUS
10
314.646
20
-53.6
11
314.646
21
-55.6
0
LINE
8
BLACK
6
CONTINUOUS
10
314.546
20
-53.6
11
314.546
21
-55.6
0
LINE
8
BLACK
6
CONTINUOUS
10
314.446
20
-53.6
11
314.446
21
-55.6
0
LINE
8
BLACK
6
CONTINUOUS
10
314.346
20
-53.6
11
314.346
21
-55.6
0
LINE
8
BLACK
6
CONTINUOUS
10
314.246
20
-53.6
11
314.246
21
-55.6
0
LINE
8
BLACK
6
CONTINUOUS
10
314.146
20
-53.6
11
314.146
21
-55.6
0
LINE
8
BLACK
6
CONTINUOUS
10
314.046
20
-53.6
11
314.046
21
-55.6
0
LINE
8
BLACK
6
CONTINUOUS
10
313.946
20
-53.6
11
313.946
21
-55.6
0
LINE
8
BLACK
6
CONTINUOUS
10
313.846
20
-53.6
11
313.846
21
-55.6
0
LINE
8
BLACK
6
CONTINUOUS
10
315.246
20
-53.6
11
315.246
21
-52.6
0
LINE
8
BLACK
6
CONTINUOUS
10
315.246
20
-52.6
11
313.746
21
-52.6
0
LINE
8
BLACK
6
CONTINUOUS
10
313.746
20
-53.6
11
313.746
21
-52.6
0
LINE
8
BLACK
6
CONTINUOUS
10
313.746
20
-52.6
11
313.746
21
-51.6
0
LINE
8
BLACK
6
CONTINUOUS
10
315.246
20
-52.6
11
315.246
21
-51.6
0
LINE
8
BLACK
6
CONTINUOUS
10
315.246
20
-51.6
11
313.746
21
-51.6
0
LINE
8
BLACK
6
CONTINUOUS
10
339.159
20
-52.4797
11
339.159
21
-57.5597
0
LINE
8
BLACK
6
CONTINUOUS
10
331.793
20
-52.4797
11
339.159
21
-52.4797
0
LINE
8
BLACK
6
CONTINUOUS
10
331.793
20
-57.5597
11
331.793
21
-52.4797
0
LINE
8
BLACK
6
CONTINUOUS
10
339.159
20
-57.5597
11
331.793
21
-57.5597
0
LINE
8
BLACK
6
CONTINUOUS
10
85.1074
20
-57.5597
11
77.7414
21
-57.5597
0
LINE
8
BLACK
6
CONTINUOUS
10
77.7414
20
-57.5597
11
77.7414
21
-52.4797
0
LINE
8
BLACK
6
CONTINUOUS
10
77.7414
20
-52.4797
11
85.1074
21
-52.4797
0
LINE
8
BLACK
6
CONTINUOUS
10
85.1074
20
-52.4797
11
85.1074
21
-57.5597
0
LINE
8
BLACK
6
CONTINUOUS
10
208.027
20
-112.22
11
208.027
21
-106.22
0
LINE
8
BLACK
6
CONTINUOUS
10
208.427
20
-112.22
11
208.427
21
-106.22
0
LINE
8
BLACK
6
CONTINUOUS
10
208.027
20
-131.219
11
208.027
21
-125.219
0
LINE
8
BLACK
6
CONTINUOUS
10
208.427
20
-131.219
11
208.427
21
-125.219
0
LINE
8
BLACK
6
CONTINUOUS
10
208.027
20
-154.432
11
208.027
21
-148.432
0
LINE
8
BLACK
6
CONTINUOUS
10
208.427
20
-154.432
11
208.427
21
-148.432
0
LINE
8
BLACK
6
CONTINUOUS
10
208.027
20
-71.3514
11
208.027
21
-65.3514
0
LINE
8
BLACK
6
CONTINUOUS
10
208.427
20
-71.3514
11
208.427
21
-65.3514
0
LINE
8
BLACK
6
CONTINUOUS
10
208.027
20
-93.1446
11
208.027
21
-87.1446
0
LINE
8
BLACK
6
CONTINUOUS
10
208.427
20
-93.1446
11
208.427
21
-87.1446
0
LINE
8
BLACK
6
CONTINUOUS
10
208.727
20
-112.22
11
208.727
21
-106.22
0
LINE
8
BLACK
6
CONTINUOUS
10
209.127
20
-112.22
11
209.127
21
-106.22
0
LINE
8
BLACK
6
CONTINUOUS
10
208.727
20
-131.219
11
208.727
21
-125.219
0
LINE
8
BLACK
6
CONTINUOUS
10
209.127
20
-131.219
11
209.127
21
-125.219
0
LINE
8
BLACK
6
CONTINUOUS
10
208.727
20
-154.432
11
208.727
21
-148.432
0
LINE
8
BLACK
6
CONTINUOUS
10
209.127
20
-154.432
11
209.127
21
-148.432
0
LINE
8
BLACK
6
CONTINUOUS
10
208.727
20
-71.3514
11
208.727
21
-65.3514
0
LINE
8
BLACK
6
CONTINUOUS
10
209.127
20
-71.3514
11
209.127
21
-65.3514
0
LINE
8
BLACK
6
CONTINUOUS
10
208.727
20
-93.1446
11
208.727
21
-87.1446
0
LINE
8
BLACK
6
CONTINUOUS
10
209.127
20
-93.1446
11
209.127
21
-87.1446
0
LINE
8
BLACK
6
CONTINUOUS
10
189.382
20
-61.6712
11
208.432
21
-61.6712
0
LINE
8
BLACK
6
CONTINUOUS
10
208.432
20
-61.6712
11
208.432
21
-80.7212
0
LINE
8
BLACK
6
CONTINUOUS
10
208.432
20
-80.7212
11
189.382
21
-80.7212
0
LINE
8
BLACK
6
CONTINUOUS
10
189.382
20
-80.7212
11
189.382
21
-61.6712
0
LINE
8
BLACK
6
CONTINUOUS
10
191.907
20
-65.1962
11
191.907
21
-64.1962
0
LINE
8
BLACK
6
CONTINUOUS
10
205.907
20
-64.1962
11
204.907
21
-64.1962
0
LINE
8
BLACK
6
CONTINUOUS
10
191.907
20
-77.1962
11
191.907
21
-78.1962
0
LINE
8
BLACK
6
CONTINUOUS
10
204.907
20
-78.1962
11
205.907
21
-78.1962
0
LINE
8
BLACK
6
CONTINUOUS
10
205.907
20
-78.1962
11
205.907
21
-77.1962
0
LINE
8
BLACK
6
CONTINUOUS
10
191.907
20
-64.1962
11
192.907
21
-64.1962
0
LINE
8
BLACK
6
CONTINUOUS
10
205.907
20
-64.1962
11
205.907
21
-65.1962
0
LINE
8
BLACK
6
CONTINUOUS
10
191.907
20
-78.1962
11
192.907
21
-78.1962
0
LINE
8
BLACK
6
CONTINUOUS
10
246.822
20
-113.741
11
265.872
21
-113.741
0
LINE
8
BLACK
6
CONTINUOUS
10
265.872
20
-113.741
11
265.872
21
-132.791
0
LINE
8
BLACK
6
CONTINUOUS
10
265.872
20
-132.791
11
246.822
21
-132.791
0
LINE
8
BLACK
6
CONTINUOUS
10
246.822
20
-132.791
11
246.822
21
-113.741
0
LINE
8
BLACK
6
CONTINUOUS
10
249.347
20
-117.266
11
249.347
21
-116.266
0
LINE
8
BLACK
6
CONTINUOUS
10
263.347
20
-116.266
11
262.347
21
-116.266
0
LINE
8
BLACK
6
CONTINUOUS
10
249.347
20
-129.266
11
249.347
21
-130.266
0
LINE
8
BLACK
6
CONTINUOUS
10
262.347
20
-130.266
11
263.347
21
-130.266
0
LINE
8
BLACK
6
CONTINUOUS
10
263.347
20
-130.266
11
263.347
21
-129.266
0
LINE
8
BLACK
6
CONTINUOUS
10
249.347
20
-116.266
11
250.347
21
-116.266
0
LINE
8
BLACK
6
CONTINUOUS
10
263.347
20
-116.266
11
263.347
21
-117.266
0
LINE
8
BLACK
6
CONTINUOUS
10
249.347
20
-130.266
11
250.347
21
-130.266
0
LINE
8
BLACK
6
CONTINUOUS
10
68.3276
20
-108.748
11
68.3276
21
-118.548
0
LINE
8
BLACK
6
CONTINUOUS
10
75.3276
20
-108.748
11
75.3276
21
-118.548
0
LINE
8
BLACK
6
CONTINUOUS
10
68.3276
20
-108.748
11
75.3276
21
-108.748
0
LINE
8
BLACK
6
CONTINUOUS
10
68.3276
20
-118.548
11
75.3276
21
-118.548
0
LINE
8
BLACK
6
CONTINUOUS
10
348.822
20
-118.548
11
348.822
21
-108.748
0
LINE
8
BLACK
6
CONTINUOUS
10
341.822
20
-118.548
11
341.822
21
-108.748
0
LINE
8
BLACK
6
CONTINUOUS
10
348.822
20
-118.548
11
341.822
21
-118.548
0
LINE
8
BLACK
6
CONTINUOUS
10
348.822
20
-108.748
11
341.822
21
-108.748
0
LINE
8
BLACK
6
CONTINUOUS
10
303.972
20
-115.011
11
323.022
21
-115.011
0
LINE
8
BLACK
6
CONTINUOUS
10
323.022
20
-115.011
11
323.022
21
-134.061
0
LINE
8
BLACK
6
CONTINUOUS
10
323.022
20
-134.061
11
303.972
21
-134.061
0
LINE
8
BLACK
6
CONTINUOUS
10
303.972
20
-134.061
11
303.972
21
-115.011
0
LINE
8
BLACK
6
CONTINUOUS
10
306.497
20
-118.536
11
306.497
21
-117.536
0
LINE
8
BLACK
6
CONTINUOUS
10
320.497
20
-117.536
11
319.497
21
-117.536
0
LINE
8
BLACK
6
CONTINUOUS
10
306.497
20
-130.536
11
306.497
21
-131.536
0
LINE
8
BLACK
6
CONTINUOUS
10
319.497
20
-131.536
11
320.497
21
-131.536
0
LINE
8
BLACK
6
CONTINUOUS
10
320.497
20
-131.536
11
320.497
21
-130.536
0
LINE
8
BLACK
6
CONTINUOUS
10
306.497
20
-117.536
11
307.497
21
-117.536
0
LINE
8
BLACK
6
CONTINUOUS
10
320.497
20
-117.536
11
320.497
21
-118.536
0
LINE
8
BLACK
6
CONTINUOUS
10
306.497
20
-131.536
11
307.497
21
-131.536
0
LINE
8
BLACK
6
CONTINUOUS
10
303.972
20
-76.9112
11
323.022
21
-76.9112
0
LINE
8
BLACK
6
CONTINUOUS
10
323.022
20
-76.9112
11
323.022
21
-95.9612
0
LINE
8
BLACK
6
CONTINUOUS
10
323.022
20
-95.9612
11
303.972
21
-95.9612
0
LINE
8
BLACK
6
CONTINUOUS
10
303.972
20
-95.9612
11
303.972
21
-76.9112
0
LINE
8
BLACK
6
CONTINUOUS
10
306.497
20
-80.4362
11
306.497
21
-79.4362
0
LINE
8
BLACK
6
CONTINUOUS
10
320.497
20
-79.4362
11
319.497
21
-79.4362
0
LINE
8
BLACK
6
CONTINUOUS
10
306.497
20
-92.4362
11
306.497
21
-93.4362
0
LINE
8
BLACK
6
CONTINUOUS
10
319.497
20
-93.4362
11
320.497
21
-93.4362
0
LINE
8
BLACK
6
CONTINUOUS
10
320.497
20
-93.4362
11
320.497
21
-92.4362
0
LINE
8
BLACK
6
CONTINUOUS
10
306.497
20
-79.4362
11
307.497
21
-79.4362
0
LINE
8
BLACK
6
CONTINUOUS
10
320.497
20
-79.4362
11
320.497
21
-80.4362
0
LINE
8
BLACK
6
CONTINUOUS
10
306.497
20
-93.4362
11
307.497
21
-93.4362
0
LINE
8
BLACK
6
CONTINUOUS
10
208.722
20
-61.6712
11
227.772
21
-61.6712
0
LINE
8
BLACK
6
CONTINUOUS
10
227.772
20
-61.6712
11
227.772
21
-80.7212
0
LINE
8
BLACK
6
CONTINUOUS
10
227.772
20
-80.7212
11
208.722
21
-80.7212
0
LINE
8
BLACK
6
CONTINUOUS
10
208.722
20
-80.7212
11
208.722
21
-61.6712
0
LINE
8
BLACK
6
CONTINUOUS
10
211.247
20
-65.1962
11
211.247
21
-64.1962
0
LINE
8
BLACK
6
CONTINUOUS
10
225.247
20
-64.1962
11
224.247
21
-64.1962
0
LINE
8
BLACK
6
CONTINUOUS
10
211.247
20
-77.1962
11
211.247
21
-78.1962
0
LINE
8
BLACK
6
CONTINUOUS
10
224.247
20
-78.1962
11
225.247
21
-78.1962
0
LINE
8
BLACK
6
CONTINUOUS
10
225.247
20
-78.1962
11
225.247
21
-77.1962
0
LINE
8
BLACK
6
CONTINUOUS
10
211.247
20
-64.1962
11
212.247
21
-64.1962
0
LINE
8
BLACK
6
CONTINUOUS
10
225.247
20
-64.1962
11
225.247
21
-65.1962
0
LINE
8
BLACK
6
CONTINUOUS
10
211.247
20
-78.1962
11
212.247
21
-78.1962
0
LINE
8
BLACK
6
CONTINUOUS
10
208.722
20
-80.7212
11
227.772
21
-80.7212
0
LINE
8
BLACK
6
CONTINUOUS
10
227.772
20
-80.7212
11
227.772
21
-99.7712
0
LINE
8
BLACK
6
CONTINUOUS
10
227.772
20
-99.7712
11
208.722
21
-99.7712
0
LINE
8
BLACK
6
CONTINUOUS
10
208.722
20
-99.7712
11
208.722
21
-80.7212
0
LINE
8
BLACK
6
CONTINUOUS
10
211.247
20
-84.2462
11
211.247
21
-83.2462
0
LINE
8
BLACK
6
CONTINUOUS
10
225.247
20
-83.2462
11
224.247
21
-83.2462
0
LINE
8
BLACK
6
CONTINUOUS
10
211.247
20
-96.2462
11
211.247
21
-97.2462
0
LINE
8
BLACK
6
CONTINUOUS
10
224.247
20
-97.2462
11
225.247
21
-97.2462
0
LINE
8
BLACK
6
CONTINUOUS
10
225.247
20
-97.2462
11
225.247
21
-96.2462
0
LINE
8
BLACK
6
CONTINUOUS
10
211.247
20
-83.2462
11
212.247
21
-83.2462
0
LINE
8
BLACK
6
CONTINUOUS
10
225.247
20
-83.2462
11
225.247
21
-84.2462
0
LINE
8
BLACK
6
CONTINUOUS
10
211.247
20
-97.2462
11
212.247
21
-97.2462
0
LINE
8
BLACK
6
CONTINUOUS
10
208.722
20
-99.7712
11
227.772
21
-99.7712
0
LINE
8
BLACK
6
CONTINUOUS
10
227.772
20
-99.7712
11
227.772
21
-118.821
0
LINE
8
BLACK
6
CONTINUOUS
10
227.772
20
-118.821
11
208.722
21
-118.821
0
LINE
8
BLACK
6
CONTINUOUS
10
208.722
20
-118.821
11
208.722
21
-99.7712
0
LINE
8
BLACK
6
CONTINUOUS
10
211.247
20
-103.296
11
211.247
21
-102.296
0
LINE
8
BLACK
6
CONTINUOUS
10
225.247
20
-102.296
11
224.247
21
-102.296
0
LINE
8
BLACK
6
CONTINUOUS
10
211.247
20
-115.296
11
211.247
21
-116.296
0
LINE
8
BLACK
6
CONTINUOUS
10
224.247
20
-116.296
11
225.247
21
-116.296
0
LINE
8
BLACK
6
CONTINUOUS
10
225.247
20
-116.296
11
225.247
21
-115.296
0
LINE
8
BLACK
6
CONTINUOUS
10
211.247
20
-102.296
11
212.247
21
-102.296
0
LINE
8
BLACK
6
CONTINUOUS
10
225.247
20
-102.296
11
225.247
21
-103.296
0
LINE
8
BLACK
6
CONTINUOUS
10
211.247
20
-116.296
11
212.247
21
-116.296
0
LINE
8
BLACK
6
CONTINUOUS
10
208.722
20
-118.821
11
227.772
21
-118.821
0
LINE
8
BLACK
6
CONTINUOUS
10
227.772
20
-118.821
11
227.772
21
-137.871
0
LINE
8
BLACK
6
CONTINUOUS
10
227.772
20
-137.871
11
208.722
21
-137.871
0
LINE
8
BLACK
6
CONTINUOUS
10
208.722
20
-137.871
11
208.722
21
-118.821
0
LINE
8
BLACK
6
CONTINUOUS
10
211.247
20
-122.346
11
211.247
21
-121.346
0
LINE
8
BLACK
6
CONTINUOUS
10
225.247
20
-121.346
11
224.247
21
-121.346
0
LINE
8
BLACK
6
CONTINUOUS
10
211.247
20
-134.346
11
211.247
21
-135.346
0
LINE
8
BLACK
6
CONTINUOUS
10
224.247
20
-135.346
11
225.247
21
-135.346
0
LINE
8
BLACK
6
CONTINUOUS
10
225.247
20
-135.346
11
225.247
21
-134.346
0
LINE
8
BLACK
6
CONTINUOUS
10
211.247
20
-121.346
11
212.247
21
-121.346
0
LINE
8
BLACK
6
CONTINUOUS
10
225.247
20
-121.346
11
225.247
21
-122.346
0
LINE
8
BLACK
6
CONTINUOUS
10
211.247
20
-135.346
11
212.247
21
-135.346
0
LINE
8
BLACK
6
CONTINUOUS
10
208.722
20
-137.871
11
227.772
21
-137.871
0
LINE
8
BLACK
6
CONTINUOUS
10
227.772
20
-137.871
11
227.772
21
-156.921
0
LINE
8
BLACK
6
CONTINUOUS
10
227.772
20
-156.921
11
208.722
21
-156.921
0
LINE
8
BLACK
6
CONTINUOUS
10
208.722
20
-156.921
11
208.722
21
-137.871
0
LINE
8
BLACK
6
CONTINUOUS
10
211.247
20
-141.396
11
211.247
21
-140.396
0
LINE
8
BLACK
6
CONTINUOUS
10
225.247
20
-140.396
11
224.247
21
-140.396
0
LINE
8
BLACK
6
CONTINUOUS
10
211.247
20
-153.396
11
211.247
21
-154.396
0
LINE
8
BLACK
6
CONTINUOUS
10
224.247
20
-154.396
11
225.247
21
-154.396
0
LINE
8
BLACK
6
CONTINUOUS
10
225.247
20
-154.396
11
225.247
21
-153.396
0
LINE
8
BLACK
6
CONTINUOUS
10
211.247
20
-140.396
11
212.247
21
-140.396
0
LINE
8
BLACK
6
CONTINUOUS
10
225.247
20
-140.396
11
225.247
21
-141.396
0
LINE
8
BLACK
6
CONTINUOUS
10
211.247
20
-154.396
11
212.247
21
-154.396
0
LINE
8
BLACK
6
CONTINUOUS
10
227.772
20
-80.7212
11
246.822
21
-80.7212
0
LINE
8
BLACK
6
CONTINUOUS
10
246.822
20
-80.7212
11
246.822
21
-99.7712
0
LINE
8
BLACK
6
CONTINUOUS
10
246.822
20
-99.7712
11
227.772
21
-99.7712
0
LINE
8
BLACK
6
CONTINUOUS
10
227.772
20
-99.7712
11
227.772
21
-80.7212
0
LINE
8
BLACK
6
CONTINUOUS
10
230.297
20
-84.2462
11
230.297
21
-83.2462
0
LINE
8
BLACK
6
CONTINUOUS
10
244.297
20
-83.2462
11
243.297
21
-83.2462
0
LINE
8
BLACK
6
CONTINUOUS
10
230.297
20
-96.2462
11
230.297
21
-97.2462
0
LINE
8
BLACK
6
CONTINUOUS
10
243.297
20
-97.2462
11
244.297
21
-97.2462
0
LINE
8
BLACK
6
CONTINUOUS
10
244.297
20
-97.2462
11
244.297
21
-96.2462
0
LINE
8
BLACK
6
CONTINUOUS
10
230.297
20
-83.2462
11
231.297
21
-83.2462
0
LINE
8
BLACK
6
CONTINUOUS
10
244.297
20
-83.2462
11
244.297
21
-84.2462
0
LINE
8
BLACK
6
CONTINUOUS
10
230.297
20
-97.2462
11
231.297
21
-97.2462
0
LINE
8
BLACK
6
CONTINUOUS
10
227.772
20
-99.7712
11
246.822
21
-99.7712
0
LINE
8
BLACK
6
CONTINUOUS
10
246.822
20
-99.7712
11
246.822
21
-118.821
0
LINE
8
BLACK
6
CONTINUOUS
10
246.822
20
-118.821
11
227.772
21
-118.821
0
LINE
8
BLACK
6
CONTINUOUS
10
227.772
20
-118.821
11
227.772
21
-99.7712
0
LINE
8
BLACK
6
CONTINUOUS
10
230.297
20
-103.296
11
230.297
21
-102.296
0
LINE
8
BLACK
6
CONTINUOUS
10
244.297
20
-102.296
11
243.297
21
-102.296
0
LINE
8
BLACK
6
CONTINUOUS
10
230.297
20
-115.296
11
230.297
21
-116.296
0
LINE
8
BLACK
6
CONTINUOUS
10
243.297
20
-116.296
11
244.297
21
-116.296
0
LINE
8
BLACK
6
CONTINUOUS
10
244.297
20
-116.296
11
244.297
21
-115.296
0
LINE
8
BLACK
6
CONTINUOUS
10
230.297
20
-102.296
11
231.297
21
-102.296
0
LINE
8
BLACK
6
CONTINUOUS
10
244.297
20
-102.296
11
244.297
21
-103.296
0
LINE
8
BLACK
6
CONTINUOUS
10
230.297
20
-116.296
11
231.297
21
-116.296
0
LINE
8
BLACK
6
CONTINUOUS
10
227.772
20
-118.821
11
246.822
21
-118.821
0
LINE
8
BLACK
6
CONTINUOUS
10
246.822
20
-118.821
11
246.822
21
-137.871
0
LINE
8
BLACK
6
CONTINUOUS
10
246.822
20
-137.871
11
227.772
21
-137.871
0
LINE
8
BLACK
6
CONTINUOUS
10
227.772
20
-137.871
11
227.772
21
-118.821
0
LINE
8
BLACK
6
CONTINUOUS
10
230.297
20
-122.346
11
230.297
21
-121.346
0
LINE
8
BLACK
6
CONTINUOUS
10
244.297
20
-121.346
11
243.297
21
-121.346
0
LINE
8
BLACK
6
CONTINUOUS
10
230.297
20
-134.346
11
230.297
21
-135.346
0
LINE
8
BLACK
6
CONTINUOUS
10
243.297
20
-135.346
11
244.297
21
-135.346
0
LINE
8
BLACK
6
CONTINUOUS
10
244.297
20
-135.346
11
244.297
21
-134.346
0
LINE
8
BLACK
6
CONTINUOUS
10
230.297
20
-121.346
11
231.297
21
-121.346
0
LINE
8
BLACK
6
CONTINUOUS
10
244.297
20
-121.346
11
244.297
21
-122.346
0
LINE
8
BLACK
6
CONTINUOUS
10
230.297
20
-135.346
11
231.297
21
-135.346
0
LINE
8
BLACK
6
CONTINUOUS
10
227.772
20
-137.871
11
246.822
21
-137.871
0
LINE
8
BLACK
6
CONTINUOUS
10
246.822
20
-137.871
11
246.822
21
-156.921
0
LINE
8
BLACK
6
CONTINUOUS
10
246.822
20
-156.921
11
227.772
21
-156.921
0
LINE
8
BLACK
6
CONTINUOUS
10
227.772
20
-156.921
11
227.772
21
-137.871
0
LINE
8
BLACK
6
CONTINUOUS
10
230.297
20
-141.396
11
230.297
21
-140.396
0
LINE
8
BLACK
6
CONTINUOUS
10
244.297
20
-140.396
11
243.297
21
-140.396
0
LINE
8
BLACK
6
CONTINUOUS
10
230.297
20
-153.396
11
230.297
21
-154.396
0
LINE
8
BLACK
6
CONTINUOUS
10
243.297
20
-154.396
11
244.297
21
-154.396
0
LINE
8
BLACK
6
CONTINUOUS
10
244.297
20
-154.396
11
244.297
21
-153.396
0
LINE
8
BLACK
6
CONTINUOUS
10
230.297
20
-140.396
11
231.297
21
-140.396
0
LINE
8
BLACK
6
CONTINUOUS
10
244.297
20
-140.396
11
244.297
21
-141.396
0
LINE
8
BLACK
6
CONTINUOUS
10
230.297
20
-154.396
11
231.297
21
-154.396
0
LINE
8
BLACK
6
CONTINUOUS
10
246.822
20
-56.5912
11
265.872
21
-56.5912
0
LINE
8
BLACK
6
CONTINUOUS
10
265.872
20
-56.5912
11
265.872
21
-75.6412
0
LINE
8
BLACK
6
CONTINUOUS
10
265.872
20
-75.6412
11
246.822
21
-75.6412
0
LINE
8
BLACK
6
CONTINUOUS
10
246.822
20
-75.6412
11
246.822
21
-56.5912
0
LINE
8
BLACK
6
CONTINUOUS
10
249.347
20
-60.1162
11
249.347
21
-59.1162
0
LINE
8
BLACK
6
CONTINUOUS
10
263.347
20
-59.1162
11
262.347
21
-59.1162
0
LINE
8
BLACK
6
CONTINUOUS
10
249.347
20
-72.1162
11
249.347
21
-73.1162
0
LINE
8
BLACK
6
CONTINUOUS
10
262.347
20
-73.1162
11
263.347
21
-73.1162
0
LINE
8
BLACK
6
CONTINUOUS
10
263.347
20
-73.1162
11
263.347
21
-72.1162
0
LINE
8
BLACK
6
CONTINUOUS
10
249.347
20
-59.1162
11
250.347
21
-59.1162
0
LINE
8
BLACK
6
CONTINUOUS
10
263.347
20
-59.1162
11
263.347
21
-60.1162
0
LINE
8
BLACK
6
CONTINUOUS
10
249.347
20
-73.1162
11
250.347
21
-73.1162
0
LINE
8
BLACK
6
CONTINUOUS
10
246.822
20
-75.6412
11
265.872
21
-75.6412
0
LINE
8
BLACK
6
CONTINUOUS
10
265.872
20
-75.6412
11
265.872
21
-94.6912
0
LINE
8
BLACK
6
CONTINUOUS
10
265.872
20
-94.6912
11
246.822
21
-94.6912
0
LINE
8
BLACK
6
CONTINUOUS
10
246.822
20
-94.6912
11
246.822
21
-75.6412
0
LINE
8
BLACK
6
CONTINUOUS
10
249.347
20
-79.1662
11
249.347
21
-78.1662
0
LINE
8
BLACK
6
CONTINUOUS
10
263.347
20
-78.1662
11
262.347
21
-78.1662
0
LINE
8
BLACK
6
CONTINUOUS
10
249.347
20
-91.1662
11
249.347
21
-92.1662
0
LINE
8
BLACK
6
CONTINUOUS
10
262.347
20
-92.1662
11
263.347
21
-92.1662
0
LINE
8
BLACK
6
CONTINUOUS
10
263.347
20
-92.1662
11
263.347
21
-91.1662
0
LINE
8
BLACK
6
CONTINUOUS
10
249.347
20
-78.1662
11
250.347
21
-78.1662
0
LINE
8
BLACK
6
CONTINUOUS
10
263.347
20
-78.1662
11
263.347
21
-79.1662
0
LINE
8
BLACK
6
CONTINUOUS
10
249.347
20
-92.1662
11
250.347
21
-92.1662
0
LINE
8
BLACK
6
CONTINUOUS
10
246.822
20
-94.6912
11
265.872
21
-94.6912
0
LINE
8
BLACK
6
CONTINUOUS
10
265.872
20
-94.6912
11
265.872
21
-113.741
0
LINE
8
BLACK
6
CONTINUOUS
10
265.872
20
-113.741
11
246.822
21
-113.741
0
LINE
8
BLACK
6
CONTINUOUS
10
246.822
20
-113.741
11
246.822
21
-94.6912
0
LINE
8
BLACK
6
CONTINUOUS
10
249.347
20
-98.2162
11
249.347
21
-97.2162
0
LINE
8
BLACK
6
CONTINUOUS
10
263.347
20
-97.2162
11
262.347
21
-97.2162
0
LINE
8
BLACK
6
CONTINUOUS
10
249.347
20
-110.216
11
249.347
21
-111.216
0
LINE
8
BLACK
6
CONTINUOUS
10
262.347
20
-111.216
11
263.347
21
-111.216
0
LINE
8
BLACK
6
CONTINUOUS
10
263.347
20
-111.216
11
263.347
21
-110.216
0
LINE
8
BLACK
6
CONTINUOUS
10
249.347
20
-97.2162
11
250.347
21
-97.2162
0
LINE
8
BLACK
6
CONTINUOUS
10
263.347
20
-97.2162
11
263.347
21
-98.2162
0
LINE
8
BLACK
6
CONTINUOUS
10
249.347
20
-111.216
11
250.347
21
-111.216
0
LINE
8
BLACK
6
CONTINUOUS
10
246.822
20
-132.791
11
265.872
21
-132.791
0
LINE
8
BLACK
6
CONTINUOUS
10
265.872
20
-132.791
11
265.872
21
-151.841
0
LINE
8
BLACK
6
CONTINUOUS
10
265.872
20
-151.841
11
246.822
21
-151.841
0
LINE
8
BLACK
6
CONTINUOUS
10
246.822
20
-151.841
11
246.822
21
-132.791
0
LINE
8
BLACK
6
CONTINUOUS
10
249.347
20
-136.316
11
249.347
21
-135.316
0
LINE
8
BLACK
6
CONTINUOUS
10
263.347
20
-135.316
11
262.347
21
-135.316
0
LINE
8
BLACK
6
CONTINUOUS
10
249.347
20
-148.316
11
249.347
21
-149.316
0
LINE
8
BLACK
6
CONTINUOUS
10
262.347
20
-149.316
11
263.347
21
-149.316
0
LINE
8
BLACK
6
CONTINUOUS
10
263.347
20
-149.316
11
263.347
21
-148.316
0
LINE
8
BLACK
6
CONTINUOUS
10
249.347
20
-135.316
11
250.347
21
-135.316
0
LINE
8
BLACK
6
CONTINUOUS
10
263.347
20
-135.316
11
263.347
21
-136.316
0
LINE
8
BLACK
6
CONTINUOUS
10
249.347
20
-149.316
11
250.347
21
-149.316
0
LINE
8
BLACK
6
CONTINUOUS
10
265.872
20
-54.0512
11
284.922
21
-54.0512
0
LINE
8
BLACK
6
CONTINUOUS
10
284.922
20
-54.0512
11
284.922
21
-73.1012
0
LINE
8
BLACK
6
CONTINUOUS
10
284.922
20
-73.1012
11
265.872
21
-73.1012
0
LINE
8
BLACK
6
CONTINUOUS
10
265.872
20
-73.1012
11
265.872
21
-54.0512
0
LINE
8
BLACK
6
CONTINUOUS
10
268.397
20
-57.5762
11
268.397
21
-56.5762
0
LINE
8
BLACK
6
CONTINUOUS
10
282.397
20
-56.5762
11
281.397
21
-56.5762
0
LINE
8
BLACK
6
CONTINUOUS
10
268.397
20
-69.5762
11
268.397
21
-70.5762
0
LINE
8
BLACK
6
CONTINUOUS
10
281.397
20
-70.5762
11
282.397
21
-70.5762
0
LINE
8
BLACK
6
CONTINUOUS
10
282.397
20
-70.5762
11
282.397
21
-69.5762
0
LINE
8
BLACK
6
CONTINUOUS
10
268.397
20
-56.5762
11
269.397
21
-56.5762
0
LINE
8
BLACK
6
CONTINUOUS
10
282.397
20
-56.5762
11
282.397
21
-57.5762
0
LINE
8
BLACK
6
CONTINUOUS
10
268.397
20
-70.5762
11
269.397
21
-70.5762
0
LINE
8
BLACK
6
CONTINUOUS
10
265.872
20
-73.1012
11
284.922
21
-73.1012
0
LINE
8
BLACK
6
CONTINUOUS
10
284.922
20
-73.1012
11
284.922
21
-92.1512
0
LINE
8
BLACK
6
CONTINUOUS
10
284.922
20
-92.1512
11
265.872
21
-92.1512
0
LINE
8
BLACK
6
CONTINUOUS
10
265.872
20
-92.1512
11
265.872
21
-73.1012
0
LINE
8
BLACK
6
CONTINUOUS
10
268.397
20
-76.6262
11
268.397
21
-75.6262
0
LINE
8
BLACK
6
CONTINUOUS
10
282.397
20
-75.6262
11
281.397
21
-75.6262
0
LINE
8
BLACK
6
CONTINUOUS
10
268.397
20
-88.6262
11
268.397
21
-89.6262
0
LINE
8
BLACK
6
CONTINUOUS
10
281.397
20
-89.6262
11
282.397
21
-89.6262
0
LINE
8
BLACK
6
CONTINUOUS
10
282.397
20
-89.6262
11
282.397
21
-88.6262
0
LINE
8
BLACK
6
CONTINUOUS
10
268.397
20
-75.6262
11
269.397
21
-75.6262
0
LINE
8
BLACK
6
CONTINUOUS
10
282.397
20
-75.6262
11
282.397
21
-76.6262
0
LINE
8
BLACK
6
CONTINUOUS
10
268.397
20
-89.6262
11
269.397
21
-89.6262
0
LINE
8
BLACK
6
CONTINUOUS
10
265.872
20
-111.201
11
284.922
21
-111.201
0
LINE
8
BLACK
6
CONTINUOUS
10
284.922
20
-111.201
11
284.922
21
-130.251
0
LINE
8
BLACK
6
CONTINUOUS
10
284.922
20
-130.251
11
265.872
21
-130.251
0
LINE
8
BLACK
6
CONTINUOUS
10
265.872
20
-130.251
11
265.872
21
-111.201
0
LINE
8
BLACK
6
CONTINUOUS
10
268.397
20
-114.726
11
268.397
21
-113.726
0
LINE
8
BLACK
6
CONTINUOUS
10
282.397
20
-113.726
11
281.397
21
-113.726
0
LINE
8
BLACK
6
CONTINUOUS
10
268.397
20
-126.726
11
268.397
21
-127.726
0
LINE
8
BLACK
6
CONTINUOUS
10
281.397
20
-127.726
11
282.397
21
-127.726
0
LINE
8
BLACK
6
CONTINUOUS
10
282.397
20
-127.726
11
282.397
21
-126.726
0
LINE
8
BLACK
6
CONTINUOUS
10
268.397
20
-113.726
11
269.397
21
-113.726
0
LINE
8
BLACK
6
CONTINUOUS
10
282.397
20
-113.726
11
282.397
21
-114.726
0
LINE
8
BLACK
6
CONTINUOUS
10
268.397
20
-127.726
11
269.397
21
-127.726
0
LINE
8
BLACK
6
CONTINUOUS
10
284.922
20
-55.9562
11
303.972
21
-55.9562
0
LINE
8
BLACK
6
CONTINUOUS
10
303.972
20
-55.9562
11
303.972
21
-75.0062
0
LINE
8
BLACK
6
CONTINUOUS
10
303.972
20
-75.0062
11
284.922
21
-75.0062
0
LINE
8
BLACK
6
CONTINUOUS
10
284.922
20
-75.0062
11
284.922
21
-55.9562
0
LINE
8
BLACK
6
CONTINUOUS
10
287.447
20
-59.4812
11
287.447
21
-58.4812
0
LINE
8
BLACK
6
CONTINUOUS
10
301.447
20
-58.4812
11
300.447
21
-58.4812
0
LINE
8
BLACK
6
CONTINUOUS
10
287.447
20
-71.4812
11
287.447
21
-72.4812
0
LINE
8
BLACK
6
CONTINUOUS
10
300.447
20
-72.4812
11
301.447
21
-72.4812
0
LINE
8
BLACK
6
CONTINUOUS
10
301.447
20
-72.4812
11
301.447
21
-71.4812
0
LINE
8
BLACK
6
CONTINUOUS
10
287.447
20
-58.4812
11
288.447
21
-58.4812
0
LINE
8
BLACK
6
CONTINUOUS
10
301.447
20
-58.4812
11
301.447
21
-59.4812
0
LINE
8
BLACK
6
CONTINUOUS
10
287.447
20
-72.4812
11
288.447
21
-72.4812
0
LINE
8
BLACK
6
CONTINUOUS
10
284.922
20
-75.0062
11
303.972
21
-75.0062
0
LINE
8
BLACK
6
CONTINUOUS
10
303.972
20
-75.0062
11
303.972
21
-94.0562
0
LINE
8
BLACK
6
CONTINUOUS
10
303.972
20
-94.0562
11
284.922
21
-94.0562
0
LINE
8
BLACK
6
CONTINUOUS
10
284.922
20
-94.0562
11
284.922
21
-75.0062
0
LINE
8
BLACK
6
CONTINUOUS
10
287.447
20
-78.5312
11
287.447
21
-77.5312
0
LINE
8
BLACK
6
CONTINUOUS
10
301.447
20
-77.5312
11
300.447
21
-77.5312
0
LINE
8
BLACK
6
CONTINUOUS
10
287.447
20
-90.5312
11
287.447
21
-91.5312
0
LINE
8
BLACK
6
CONTINUOUS
10
300.447
20
-91.5312
11
301.447
21
-91.5312
0
LINE
8
BLACK
6
CONTINUOUS
10
301.447
20
-91.5312
11
301.447
21
-90.5312
0
LINE
8
BLACK
6
CONTINUOUS
10
287.447
20
-77.5312
11
288.447
21
-77.5312
0
LINE
8
BLACK
6
CONTINUOUS
10
301.447
20
-77.5312
11
301.447
21
-78.5312
0
LINE
8
BLACK
6
CONTINUOUS
10
287.447
20
-91.5312
11
288.447
21
-91.5312
0
LINE
8
BLACK
6
CONTINUOUS
10
284.922
20
-94.0562
11
303.972
21
-94.0562
0
LINE
8
BLACK
6
CONTINUOUS
10
303.972
20
-94.0562
11
303.972
21
-113.106
0
LINE
8
BLACK
6
CONTINUOUS
10
303.972
20
-113.106
11
284.922
21
-113.106
0
LINE
8
BLACK
6
CONTINUOUS
10
284.922
20
-113.106
11
284.922
21
-94.0562
0
LINE
8
BLACK
6
CONTINUOUS
10
287.447
20
-97.5812
11
287.447
21
-96.5812
0
LINE
8
BLACK
6
CONTINUOUS
10
301.447
20
-96.5812
11
300.447
21
-96.5812
0
LINE
8
BLACK
6
CONTINUOUS
10
287.447
20
-109.581
11
287.447
21
-110.581
0
LINE
8
BLACK
6
CONTINUOUS
10
300.447
20
-110.581
11
301.447
21
-110.581
0
LINE
8
BLACK
6
CONTINUOUS
10
301.447
20
-110.581
11
301.447
21
-109.581
0
LINE
8
BLACK
6
CONTINUOUS
10
287.447
20
-96.5812
11
288.447
21
-96.5812
0
LINE
8
BLACK
6
CONTINUOUS
10
301.447
20
-96.5812
11
301.447
21
-97.5812
0
LINE
8
BLACK
6
CONTINUOUS
10
287.447
20
-110.581
11
288.447
21
-110.581
0
LINE
8
BLACK
6
CONTINUOUS
10
275.397
20
-137.236
11
294.447
21
-137.236
0
LINE
8
BLACK
6
CONTINUOUS
10
294.447
20
-137.236
11
294.447
21
-156.286
0
LINE
8
BLACK
6
CONTINUOUS
10
294.447
20
-156.286
11
275.397
21
-156.286
0
LINE
8
BLACK
6
CONTINUOUS
10
275.397
20
-156.286
11
275.397
21
-137.236
0
LINE
8
BLACK
6
CONTINUOUS
10
277.922
20
-140.761
11
277.922
21
-139.761
0
LINE
8
BLACK
6
CONTINUOUS
10
291.922
20
-139.761
11
290.922
21
-139.761
0
LINE
8
BLACK
6
CONTINUOUS
10
277.922
20
-152.761
11
277.922
21
-153.761
0
LINE
8
BLACK
6
CONTINUOUS
10
290.922
20
-153.761
11
291.922
21
-153.761
0
LINE
8
BLACK
6
CONTINUOUS
10
291.922
20
-153.761
11
291.922
21
-152.761
0
LINE
8
BLACK
6
CONTINUOUS
10
277.922
20
-139.761
11
278.922
21
-139.761
0
LINE
8
BLACK
6
CONTINUOUS
10
291.922
20
-139.761
11
291.922
21
-140.761
0
LINE
8
BLACK
6
CONTINUOUS
10
277.922
20
-153.761
11
278.922
21
-153.761
0
LINE
8
BLACK
6
CONTINUOUS
10
303.972
20
-95.9612
11
323.022
21
-95.9612
0
LINE
8
BLACK
6
CONTINUOUS
10
323.022
20
-95.9612
11
323.022
21
-115.011
0
LINE
8
BLACK
6
CONTINUOUS
10
323.022
20
-115.011
11
303.972
21
-115.011
0
LINE
8
BLACK
6
CONTINUOUS
10
303.972
20
-115.011
11
303.972
21
-95.9612
0
LINE
8
BLACK
6
CONTINUOUS
10
306.497
20
-99.4862
11
306.497
21
-98.4862
0
LINE
8
BLACK
6
CONTINUOUS
10
320.497
20
-98.4862
11
319.497
21
-98.4862
0
LINE
8
BLACK
6
CONTINUOUS
10
306.497
20
-111.486
11
306.497
21
-112.486
0
LINE
8
BLACK
6
CONTINUOUS
10
319.497
20
-112.486
11
320.497
21
-112.486
0
LINE
8
BLACK
6
CONTINUOUS
10
320.497
20
-112.486
11
320.497
21
-111.486
0
LINE
8
BLACK
6
CONTINUOUS
10
306.497
20
-98.4862
11
307.497
21
-98.4862
0
LINE
8
BLACK
6
CONTINUOUS
10
320.497
20
-98.4862
11
320.497
21
-99.4862
0
LINE
8
BLACK
6
CONTINUOUS
10
306.497
20
-112.486
11
307.497
21
-112.486
0
LINE
8
BLACK
6
CONTINUOUS
10
299.446
20
-137.115
11
317.847
21
-142.045
0
LINE
8
BLACK
6
CONTINUOUS
10
317.847
20
-142.045
11
312.917
21
-160.446
0
LINE
8
BLACK
6
CONTINUOUS
10
312.917
20
-160.446
11
294.516
21
-155.516
0
LINE
8
BLACK
6
CONTINUOUS
10
294.516
20
-155.516
11
299.446
21
-137.115
0
LINE
8
BLACK
6
CONTINUOUS
10
300.973
20
-141.173
11
301.232
21
-140.207
0
LINE
8
BLACK
6
CONTINUOUS
10
314.755
20
-143.831
11
313.789
21
-143.572
0
LINE
8
BLACK
6
CONTINUOUS
10
297.867
20
-152.764
11
297.608
21
-153.73
0
LINE
8
BLACK
6
CONTINUOUS
10
310.165
20
-157.095
11
311.131
21
-157.354
0
LINE
8
BLACK
6
CONTINUOUS
10
311.131
20
-157.354
11
311.39
21
-156.388
0
LINE
8
BLACK
6
CONTINUOUS
10
301.232
20
-140.207
11
302.198
21
-140.466
0
LINE
8
BLACK
6
CONTINUOUS
10
314.755
20
-143.831
11
314.496
21
-144.797
0
LINE
8
BLACK
6
CONTINUOUS
10
297.608
20
-153.73
11
298.574
21
-153.989
0
LINE
8
BLACK
6
CONTINUOUS
10
322.812
20
-143.392
11
339.31
21
-152.917
0
LINE
8
BLACK
6
CONTINUOUS
10
339.31
20
-152.917
11
329.785
21
-169.415
0
LINE
8
BLACK
6
CONTINUOUS
10
329.785
20
-169.415
11
313.287
21
-159.89
0
LINE
8
BLACK
6
CONTINUOUS
10
313.287
20
-159.89
11
322.812
21
-143.392
0
LINE
8
BLACK
6
CONTINUOUS
10
323.237
20
-147.707
11
323.737
21
-146.841
0
LINE
8
BLACK
6
CONTINUOUS
10
335.861
20
-153.841
11
334.995
21
-153.341
0
LINE
8
BLACK
6
CONTINUOUS
10
317.237
20
-158.1
11
316.737
21
-158.966
0
LINE
8
BLACK
6
CONTINUOUS
10
327.995
20
-165.466
11
328.861
21
-165.966
0
LINE
8
BLACK
6
CONTINUOUS
10
328.861
20
-165.966
11
329.361
21
-165.1
0
LINE
8
BLACK
6
CONTINUOUS
10
323.737
20
-146.841
11
324.603
21
-147.341
0
LINE
8
BLACK
6
CONTINUOUS
10
335.861
20
-153.841
11
335.361
21
-154.707
0
LINE
8
BLACK
6
CONTINUOUS
10
316.737
20
-158.966
11
317.603
21
-159.466
0
LINE
8
BLACK
6
CONTINUOUS
10
189.382
20
-80.7212
11
208.432
21
-80.7212
0
LINE
8
BLACK
6
CONTINUOUS
10
208.432
20
-80.7212
11
208.432
21
-99.7712
0
LINE
8
BLACK
6
CONTINUOUS
10
208.432
20
-99.7712
11
189.382
21
-99.7712
0
LINE
8
BLACK
6
CONTINUOUS
10
189.382
20
-99.7712
11
189.382
21
-80.7212
0
LINE
8
BLACK
6
CONTINUOUS
10
191.907
20
-84.2462
11
191.907
21
-83.2462
0
LINE
8
BLACK
6
CONTINUOUS
10
205.907
20
-83.2462
11
204.907
21
-83.2462
0
LINE
8
BLACK
6
CONTINUOUS
10
191.907
20
-96.2462
11
191.907
21
-97.2462
0
LINE
8
BLACK
6
CONTINUOUS
10
204.907
20
-97.2462
11
205.907
21
-97.2462
0
LINE
8
BLACK
6
CONTINUOUS
10
205.907
20
-97.2462
11
205.907
21
-96.2462
0
LINE
8
BLACK
6
CONTINUOUS
10
191.907
20
-83.2462
11
192.907
21
-83.2462
0
LINE
8
BLACK
6
CONTINUOUS
10
205.907
20
-83.2462
11
205.907
21
-84.2462
0
LINE
8
BLACK
6
CONTINUOUS
10
191.907
20
-97.2462
11
192.907
21
-97.2462
0
LINE
8
BLACK
6
CONTINUOUS
10
189.382
20
-99.7712
11
208.432
21
-99.7712
0
LINE
8
BLACK
6
CONTINUOUS
10
208.432
20
-99.7712
11
208.432
21
-118.821
0
LINE
8
BLACK
6
CONTINUOUS
10
208.432
20
-118.821
11
189.382
21
-118.821
0
LINE
8
BLACK
6
CONTINUOUS
10
189.382
20
-118.821
11
189.382
21
-99.7712
0
LINE
8
BLACK
6
CONTINUOUS
10
191.907
20
-103.296
11
191.907
21
-102.296
0
LINE
8
BLACK
6
CONTINUOUS
10
205.907
20
-102.296
11
204.907
21
-102.296
0
LINE
8
BLACK
6
CONTINUOUS
10
191.907
20
-115.296
11
191.907
21
-116.296
0
LINE
8
BLACK
6
CONTINUOUS
10
204.907
20
-116.296
11
205.907
21
-116.296
0
LINE
8
BLACK
6
CONTINUOUS
10
205.907
20
-116.296
11
205.907
21
-115.296
0
LINE
8
BLACK
6
CONTINUOUS
10
191.907
20
-102.296
11
192.907
21
-102.296
0
LINE
8
BLACK
6
CONTINUOUS
10
205.907
20
-102.296
11
205.907
21
-103.296
0
LINE
8
BLACK
6
CONTINUOUS
10
191.907
20
-116.296
11
192.907
21
-116.296
0
LINE
8
BLACK
6
CONTINUOUS
10
189.382
20
-118.821
11
208.432
21
-118.821
0
LINE
8
BLACK
6
CONTINUOUS
10
208.432
20
-118.821
11
208.432
21
-137.871
0
LINE
8
BLACK
6
CONTINUOUS
10
208.432
20
-137.871
11
189.382
21
-137.871
0
LINE
8
BLACK
6
CONTINUOUS
10
189.382
20
-137.871
11
189.382
21
-118.821
0
LINE
8
BLACK
6
CONTINUOUS
10
191.907
20
-122.346
11
191.907
21
-121.346
0
LINE
8
BLACK
6
CONTINUOUS
10
205.907
20
-121.346
11
204.907
21
-121.346
0
LINE
8
BLACK
6
CONTINUOUS
10
191.907
20
-134.346
11
191.907
21
-135.346
0
LINE
8
BLACK
6
CONTINUOUS
10
204.907
20
-135.346
11
205.907
21
-135.346
0
LINE
8
BLACK
6
CONTINUOUS
10
205.907
20
-135.346
11
205.907
21
-134.346
0
LINE
8
BLACK
6
CONTINUOUS
10
191.907
20
-121.346
11
192.907
21
-121.346
0
LINE
8
BLACK
6
CONTINUOUS
10
205.907
20
-121.346
11
205.907
21
-122.346
0
LINE
8
BLACK
6
CONTINUOUS
10
191.907
20
-135.346
11
192.907
21
-135.346
0
LINE
8
BLACK
6
CONTINUOUS
10
189.382
20
-137.871
11
208.432
21
-137.871
0
LINE
8
BLACK
6
CONTINUOUS
10
208.432
20
-137.871
11
208.432
21
-156.921
0
LINE
8
BLACK
6
CONTINUOUS
10
208.432
20
-156.921
11
189.382
21
-156.921
0
LINE
8
BLACK
6
CONTINUOUS
10
189.382
20
-156.921
11
189.382
21
-137.871
0
LINE
8
BLACK
6
CONTINUOUS
10
191.907
20
-141.396
11
191.907
21
-140.396
0
LINE
8
BLACK
6
CONTINUOUS
10
205.907
20
-140.396
11
204.907
21
-140.396
0
LINE
8
BLACK
6
CONTINUOUS
10
191.907
20
-153.396
11
191.907
21
-154.396
0
LINE
8
BLACK
6
CONTINUOUS
10
204.907
20
-154.396
11
205.907
21
-154.396
0
LINE
8
BLACK
6
CONTINUOUS
10
205.907
20
-154.396
11
205.907
21
-153.396
0
LINE
8
BLACK
6
CONTINUOUS
10
191.907
20
-140.396
11
192.907
21
-140.396
0
LINE
8
BLACK
6
CONTINUOUS
10
205.907
20
-140.396
11
205.907
21
-141.396
0
LINE
8
BLACK
6
CONTINUOUS
10
191.907
20
-154.396
11
192.907
21
-154.396
0
LINE
8
BLACK
6
CONTINUOUS
10
170.332
20
-61.6712
11
189.382
21
-61.6712
0
LINE
8
BLACK
6
CONTINUOUS
10
189.382
20
-61.6712
11
189.382
21
-80.7212
0
LINE
8
BLACK
6
CONTINUOUS
10
189.382
20
-80.7212
11
170.332
21
-80.7212
0
LINE
8
BLACK
6
CONTINUOUS
10
170.332
20
-80.7212
11
170.332
21
-61.6712
0
LINE
8
BLACK
6
CONTINUOUS
10
172.857
20
-65.1962
11
172.857
21
-64.1962
0
LINE
8
BLACK
6
CONTINUOUS
10
186.857
20
-64.1962
11
185.857
21
-64.1962
0
LINE
8
BLACK
6
CONTINUOUS
10
172.857
20
-77.1962
11
172.857
21
-78.1962
0
LINE
8
BLACK
6
CONTINUOUS
10
185.857
20
-78.1962
11
186.857
21
-78.1962
0
LINE
8
BLACK
6
CONTINUOUS
10
186.857
20
-78.1962
11
186.857
21
-77.1962
0
LINE
8
BLACK
6
CONTINUOUS
10
172.857
20
-64.1962
11
173.857
21
-64.1962
0
LINE
8
BLACK
6
CONTINUOUS
10
186.857
20
-64.1962
11
186.857
21
-65.1962
0
LINE
8
BLACK
6
CONTINUOUS
10
172.857
20
-78.1962
11
173.857
21
-78.1962
0
LINE
8
BLACK
6
CONTINUOUS
10
170.332
20
-80.7212
11
189.382
21
-80.7212
0
LINE
8
BLACK
6
CONTINUOUS
10
189.382
20
-80.7212
11
189.382
21
-99.7712
0
LINE
8
BLACK
6
CONTINUOUS
10
189.382
20
-99.7712
11
170.332
21
-99.7712
0
LINE
8
BLACK
6
CONTINUOUS
10
170.332
20
-99.7712
11
170.332
21
-80.7212
0
LINE
8
BLACK
6
CONTINUOUS
10
172.857
20
-84.2462
11
172.857
21
-83.2462
0
LINE
8
BLACK
6
CONTINUOUS
10
186.857
20
-83.2462
11
185.857
21
-83.2462
0
LINE
8
BLACK
6
CONTINUOUS
10
172.857
20
-96.2462
11
172.857
21
-97.2462
0
LINE
8
BLACK
6
CONTINUOUS
10
185.857
20
-97.2462
11
186.857
21
-97.2462
0
LINE
8
BLACK
6
CONTINUOUS
10
186.857
20
-97.2462
11
186.857
21
-96.2462
0
LINE
8
BLACK
6
CONTINUOUS
10
172.857
20
-83.2462
11
173.857
21
-83.2462
0
LINE
8
BLACK
6
CONTINUOUS
10
186.857
20
-83.2462
11
186.857
21
-84.2462
0
LINE
8
BLACK
6
CONTINUOUS
10
172.857
20
-97.2462
11
173.857
21
-97.2462
0
LINE
8
BLACK
6
CONTINUOUS
10
170.332
20
-99.7712
11
189.382
21
-99.7712
0
LINE
8
BLACK
6
CONTINUOUS
10
189.382
20
-99.7712
11
189.382
21
-118.821
0
LINE
8
BLACK
6
CONTINUOUS
10
189.382
20
-118.821
11
170.332
21
-118.821
0
LINE
8
BLACK
6
CONTINUOUS
10
170.332
20
-118.821
11
170.332
21
-99.7712
0
LINE
8
BLACK
6
CONTINUOUS
10
172.857
20
-103.296
11
172.857
21
-102.296
0
LINE
8
BLACK
6
CONTINUOUS
10
186.857
20
-102.296
11
185.857
21
-102.296
0
LINE
8
BLACK
6
CONTINUOUS
10
172.857
20
-115.296
11
172.857
21
-116.296
0
LINE
8
BLACK
6
CONTINUOUS
10
185.857
20
-116.296
11
186.857
21
-116.296
0
LINE
8
BLACK
6
CONTINUOUS
10
186.857
20
-116.296
11
186.857
21
-115.296
0
LINE
8
BLACK
6
CONTINUOUS
10
172.857
20
-102.296
11
173.857
21
-102.296
0
LINE
8
BLACK
6
CONTINUOUS
10
186.857
20
-102.296
11
186.857
21
-103.296
0
LINE
8
BLACK
6
CONTINUOUS
10
172.857
20
-116.296
11
173.857
21
-116.296
0
LINE
8
BLACK
6
CONTINUOUS
10
170.332
20
-118.821
11
189.382
21
-118.821
0
LINE
8
BLACK
6
CONTINUOUS
10
189.382
20
-118.821
11
189.382
21
-137.871
0
LINE
8
BLACK
6
CONTINUOUS
10
189.382
20
-137.871
11
170.332
21
-137.871
0
LINE
8
BLACK
6
CONTINUOUS
10
170.332
20
-137.871
11
170.332
21
-118.821
0
LINE
8
BLACK
6
CONTINUOUS
10
172.857
20
-122.346
11
172.857
21
-121.346
0
LINE
8
BLACK
6
CONTINUOUS
10
186.857
20
-121.346
11
185.857
21
-121.346
0
LINE
8
BLACK
6
CONTINUOUS
10
172.857
20
-134.346
11
172.857
21
-135.346
0
LINE
8
BLACK
6
CONTINUOUS
10
185.857
20
-135.346
11
186.857
21
-135.346
0
LINE
8
BLACK
6
CONTINUOUS
10
186.857
20
-135.346
11
186.857
21
-134.346
0
LINE
8
BLACK
6
CONTINUOUS
10
172.857
20
-121.346
11
173.857
21
-121.346
0
LINE
8
BLACK
6
CONTINUOUS
10
186.857
20
-121.346
11
186.857
21
-122.346
0
LINE
8
BLACK
6
CONTINUOUS
10
172.857
20
-135.346
11
173.857
21
-135.346
0
LINE
8
BLACK
6
CONTINUOUS
10
170.332
20
-137.871
11
189.382
21
-137.871
0
LINE
8
BLACK
6
CONTINUOUS
10
189.382
20
-137.871
11
189.382
21
-156.921
0
LINE
8
BLACK
6
CONTINUOUS
10
189.382
20
-156.921
11
170.332
21
-156.921
0
LINE
8
BLACK
6
CONTINUOUS
10
170.332
20
-156.921
11
170.332
21
-137.871
0
LINE
8
BLACK
6
CONTINUOUS
10
172.857
20
-141.396
11
172.857
21
-140.396
0
LINE
8
BLACK
6
CONTINUOUS
10
186.857
20
-140.396
11
185.857
21
-140.396
0
LINE
8
BLACK
6
CONTINUOUS
10
172.857
20
-153.396
11
172.857
21
-154.396
0
LINE
8
BLACK
6
CONTINUOUS
10
185.857
20
-154.396
11
186.857
21
-154.396
0
LINE
8
BLACK
6
CONTINUOUS
10
186.857
20
-154.396
11
186.857
21
-153.396
0
LINE
8
BLACK
6
CONTINUOUS
10
172.857
20
-140.396
11
173.857
21
-140.396
0
LINE
8
BLACK
6
CONTINUOUS
10
186.857
20
-140.396
11
186.857
21
-141.396
0
LINE
8
BLACK
6
CONTINUOUS
10
172.857
20
-154.396
11
173.857
21
-154.396
0
LINE
8
BLACK
6
CONTINUOUS
10
151.282
20
-56.5912
11
170.332
21
-56.5912
0
LINE
8
BLACK
6
CONTINUOUS
10
170.332
20
-56.5912
11
170.332
21
-75.6412
0
LINE
8
BLACK
6
CONTINUOUS
10
170.332
20
-75.6412
11
151.282
21
-75.6412
0
LINE
8
BLACK
6
CONTINUOUS
10
151.282
20
-75.6412
11
151.282
21
-56.5912
0
LINE
8
BLACK
6
CONTINUOUS
10
153.807
20
-60.1162
11
153.807
21
-59.1162
0
LINE
8
BLACK
6
CONTINUOUS
10
167.807
20
-59.1162
11
166.807
21
-59.1162
0
LINE
8
BLACK
6
CONTINUOUS
10
153.807
20
-72.1162
11
153.807
21
-73.1162
0
LINE
8
BLACK
6
CONTINUOUS
10
166.807
20
-73.1162
11
167.807
21
-73.1162
0
LINE
8
BLACK
6
CONTINUOUS
10
167.807
20
-73.1162
11
167.807
21
-72.1162
0
LINE
8
BLACK
6
CONTINUOUS
10
153.807
20
-59.1162
11
154.807
21
-59.1162
0
LINE
8
BLACK
6
CONTINUOUS
10
167.807
20
-59.1162
11
167.807
21
-60.1162
0
LINE
8
BLACK
6
CONTINUOUS
10
153.807
20
-73.1162
11
154.807
21
-73.1162
0
LINE
8
BLACK
6
CONTINUOUS
10
151.282
20
-94.6912
11
170.332
21
-94.6912
0
LINE
8
BLACK
6
CONTINUOUS
10
170.332
20
-94.6912
11
170.332
21
-113.741
0
LINE
8
BLACK
6
CONTINUOUS
10
170.332
20
-113.741
11
151.282
21
-113.741
0
LINE
8
BLACK
6
CONTINUOUS
10
151.282
20
-113.741
11
151.282
21
-94.6912
0
LINE
8
BLACK
6
CONTINUOUS
10
153.807
20
-98.2162
11
153.807
21
-97.2162
0
LINE
8
BLACK
6
CONTINUOUS
10
167.807
20
-97.2162
11
166.807
21
-97.2162
0
LINE
8
BLACK
6
CONTINUOUS
10
153.807
20
-110.216
11
153.807
21
-111.216
0
LINE
8
BLACK
6
CONTINUOUS
10
166.807
20
-111.216
11
167.807
21
-111.216
0
LINE
8
BLACK
6
CONTINUOUS
10
167.807
20
-111.216
11
167.807
21
-110.216
0
LINE
8
BLACK
6
CONTINUOUS
10
153.807
20
-97.2162
11
154.807
21
-97.2162
0
LINE
8
BLACK
6
CONTINUOUS
10
167.807
20
-97.2162
11
167.807
21
-98.2162
0
LINE
8
BLACK
6
CONTINUOUS
10
153.807
20
-111.216
11
154.807
21
-111.216
0
LINE
8
BLACK
6
CONTINUOUS
10
151.282
20
-132.791
11
170.332
21
-132.791
0
LINE
8
BLACK
6
CONTINUOUS
10
170.332
20
-132.791
11
170.332
21
-151.841
0
LINE
8
BLACK
6
CONTINUOUS
10
170.332
20
-151.841
11
151.282
21
-151.841
0
LINE
8
BLACK
6
CONTINUOUS
10
151.282
20
-151.841
11
151.282
21
-132.791
0
LINE
8
BLACK
6
CONTINUOUS
10
153.807
20
-136.316
11
153.807
21
-135.316
0
LINE
8
BLACK
6
CONTINUOUS
10
167.807
20
-135.316
11
166.807
21
-135.316
0
LINE
8
BLACK
6
CONTINUOUS
10
153.807
20
-148.316
11
153.807
21
-149.316
0
LINE
8
BLACK
6
CONTINUOUS
10
166.807
20
-149.316
11
167.807
21
-149.316
0
LINE
8
BLACK
6
CONTINUOUS
10
167.807
20
-149.316
11
167.807
21
-148.316
0
LINE
8
BLACK
6
CONTINUOUS
10
153.807
20
-135.316
11
154.807
21
-135.316
0
LINE
8
BLACK
6
CONTINUOUS
10
167.807
20
-135.316
11
167.807
21
-136.316
0
LINE
8
BLACK
6
CONTINUOUS
10
153.807
20
-149.316
11
154.807
21
-149.316
0
LINE
8
BLACK
6
CONTINUOUS
10
132.232
20
-54.0512
11
151.282
21
-54.0512
0
LINE
8
BLACK
6
CONTINUOUS
10
151.282
20
-54.0512
11
151.282
21
-73.1012
0
LINE
8
BLACK
6
CONTINUOUS
10
151.282
20
-73.1012
11
132.232
21
-73.1012
0
LINE
8
BLACK
6
CONTINUOUS
10
132.232
20
-73.1012
11
132.232
21
-54.0512
0
LINE
8
BLACK
6
CONTINUOUS
10
134.757
20
-57.5762
11
134.757
21
-56.5762
0
LINE
8
BLACK
6
CONTINUOUS
10
148.757
20
-56.5762
11
147.757
21
-56.5762
0
LINE
8
BLACK
6
CONTINUOUS
10
134.757
20
-69.5762
11
134.757
21
-70.5762
0
LINE
8
BLACK
6
CONTINUOUS
10
147.757
20
-70.5762
11
148.757
21
-70.5762
0
LINE
8
BLACK
6
CONTINUOUS
10
148.757
20
-70.5762
11
148.757
21
-69.5762
0
LINE
8
BLACK
6
CONTINUOUS
10
134.757
20
-56.5762
11
135.757
21
-56.5762
0
LINE
8
BLACK
6
CONTINUOUS
10
148.757
20
-56.5762
11
148.757
21
-57.5762
0
LINE
8
BLACK
6
CONTINUOUS
10
134.757
20
-70.5762
11
135.757
21
-70.5762
0
LINE
8
BLACK
6
CONTINUOUS
10
132.232
20
-73.1012
11
151.282
21
-73.1012
0
LINE
8
BLACK
6
CONTINUOUS
10
151.282
20
-73.1012
11
151.282
21
-92.1512
0
LINE
8
BLACK
6
CONTINUOUS
10
151.282
20
-92.1512
11
132.232
21
-92.1512
0
LINE
8
BLACK
6
CONTINUOUS
10
132.232
20
-92.1512
11
132.232
21
-73.1012
0
LINE
8
BLACK
6
CONTINUOUS
10
134.757
20
-76.6262
11
134.757
21
-75.6262
0
LINE
8
BLACK
6
CONTINUOUS
10
148.757
20
-75.6262
11
147.757
21
-75.6262
0
LINE
8
BLACK
6
CONTINUOUS
10
134.757
20
-88.6262
11
134.757
21
-89.6262
0
LINE
8
BLACK
6
CONTINUOUS
10
147.757
20
-89.6262
11
148.757
21
-89.6262
0
LINE
8
BLACK
6
CONTINUOUS
10
148.757
20
-89.6262
11
148.757
21
-88.6262
0
LINE
8
BLACK
6
CONTINUOUS
10
134.757
20
-75.6262
11
135.757
21
-75.6262
0
LINE
8
BLACK
6
CONTINUOUS
10
148.757
20
-75.6262
11
148.757
21
-76.6262
0
LINE
8
BLACK
6
CONTINUOUS
10
134.757
20
-89.6262
11
135.757
21
-89.6262
0
LINE
8
BLACK
6
CONTINUOUS
10
132.232
20
-111.201
11
151.282
21
-111.201
0
LINE
8
BLACK
6
CONTINUOUS
10
151.282
20
-111.201
11
151.282
21
-130.251
0
LINE
8
BLACK
6
CONTINUOUS
10
151.282
20
-130.251
11
132.232
21
-130.251
0
LINE
8
BLACK
6
CONTINUOUS
10
132.232
20
-130.251
11
132.232
21
-111.201
0
LINE
8
BLACK
6
CONTINUOUS
10
134.757
20
-114.726
11
134.757
21
-113.726
0
LINE
8
BLACK
6
CONTINUOUS
10
148.757
20
-113.726
11
147.757
21
-113.726
0
LINE
8
BLACK
6
CONTINUOUS
10
134.757
20
-126.726
11
134.757
21
-127.726
0
LINE
8
BLACK
6
CONTINUOUS
10
147.757
20
-127.726
11
148.757
21
-127.726
0
LINE
8
BLACK
6
CONTINUOUS
10
148.757
20
-127.726
11
148.757
21
-126.726
0
LINE
8
BLACK
6
CONTINUOUS
10
134.757
20
-113.726
11
135.757
21
-113.726
0
LINE
8
BLACK
6
CONTINUOUS
10
148.757
20
-113.726
11
148.757
21
-114.726
0
LINE
8
BLACK
6
CONTINUOUS
10
134.757
20
-127.726
11
135.757
21
-127.726
0
LINE
8
BLACK
6
CONTINUOUS
10
113.182
20
-55.9562
11
132.232
21
-55.9562
0
LINE
8
BLACK
6
CONTINUOUS
10
132.232
20
-55.9562
11
132.232
21
-75.0062
0
LINE
8
BLACK
6
CONTINUOUS
10
132.232
20
-75.0062
11
113.182
21
-75.0062
0
LINE
8
BLACK
6
CONTINUOUS
10
113.182
20
-75.0062
11
113.182
21
-55.9562
0
LINE
8
BLACK
6
CONTINUOUS
10
115.707
20
-59.4812
11
115.707
21
-58.4812
0
LINE
8
BLACK
6
CONTINUOUS
10
129.707
20
-58.4812
11
128.707
21
-58.4812
0
LINE
8
BLACK
6
CONTINUOUS
10
115.707
20
-71.4812
11
115.707
21
-72.4812
0
LINE
8
BLACK
6
CONTINUOUS
10
128.707
20
-72.4812
11
129.707
21
-72.4812
0
LINE
8
BLACK
6
CONTINUOUS
10
129.707
20
-72.4812
11
129.707
21
-71.4812
0
LINE
8
BLACK
6
CONTINUOUS
10
115.707
20
-58.4812
11
116.707
21
-58.4812
0
LINE
8
BLACK
6
CONTINUOUS
10
129.707
20
-58.4812
11
129.707
21
-59.4812
0
LINE
8
BLACK
6
CONTINUOUS
10
115.707
20
-72.4812
11
116.707
21
-72.4812
0
LINE
8
BLACK
6
CONTINUOUS
10
113.182
20
-75.0062
11
132.232
21
-75.0062
0
LINE
8
BLACK
6
CONTINUOUS
10
132.232
20
-75.0062
11
132.232
21
-94.0562
0
LINE
8
BLACK
6
CONTINUOUS
10
132.232
20
-94.0562
11
113.182
21
-94.0562
0
LINE
8
BLACK
6
CONTINUOUS
10
113.182
20
-94.0562
11
113.182
21
-75.0062
0
LINE
8
BLACK
6
CONTINUOUS
10
115.707
20
-78.5312
11
115.707
21
-77.5312
0
LINE
8
BLACK
6
CONTINUOUS
10
129.707
20
-77.5312
11
128.707
21
-77.5312
0
LINE
8
BLACK
6
CONTINUOUS
10
115.707
20
-90.5312
11
115.707
21
-91.5312
0
LINE
8
BLACK
6
CONTINUOUS
10
128.707
20
-91.5312
11
129.707
21
-91.5312
0
LINE
8
BLACK
6
CONTINUOUS
10
129.707
20
-91.5312
11
129.707
21
-90.5312
0
LINE
8
BLACK
6
CONTINUOUS
10
115.707
20
-77.5312
11
116.707
21
-77.5312
0
LINE
8
BLACK
6
CONTINUOUS
10
129.707
20
-77.5312
11
129.707
21
-78.5312
0
LINE
8
BLACK
6
CONTINUOUS
10
115.707
20
-91.5312
11
116.707
21
-91.5312
0
LINE
8
BLACK
6
CONTINUOUS
10
113.182
20
-94.0562
11
132.232
21
-94.0562
0
LINE
8
BLACK
6
CONTINUOUS
10
132.232
20
-94.0562
11
132.232
21
-113.106
0
LINE
8
BLACK
6
CONTINUOUS
10
132.232
20
-113.106
11
113.182
21
-113.106
0
LINE
8
BLACK
6
CONTINUOUS
10
113.182
20
-113.106
11
113.182
21
-94.0562
0
LINE
8
BLACK
6
CONTINUOUS
10
115.707
20
-97.5812
11
115.707
21
-96.5812
0
LINE
8
BLACK
6
CONTINUOUS
10
129.707
20
-96.5812
11
128.707
21
-96.5812
0
LINE
8
BLACK
6
CONTINUOUS
10
115.707
20
-109.581
11
115.707
21
-110.581
0
LINE
8
BLACK
6
CONTINUOUS
10
128.707
20
-110.581
11
129.707
21
-110.581
0
LINE
8
BLACK
6
CONTINUOUS
10
129.707
20
-110.581
11
129.707
21
-109.581
0
LINE
8
BLACK
6
CONTINUOUS
10
115.707
20
-96.5812
11
116.707
21
-96.5812
0
LINE
8
BLACK
6
CONTINUOUS
10
129.707
20
-96.5812
11
129.707
21
-97.5812
0
LINE
8
BLACK
6
CONTINUOUS
10
115.707
20
-110.581
11
116.707
21
-110.581
0
LINE
8
BLACK
6
CONTINUOUS
10
113.182
20
-113.106
11
132.232
21
-113.106
0
LINE
8
BLACK
6
CONTINUOUS
10
132.232
20
-113.106
11
132.232
21
-132.156
0
LINE
8
BLACK
6
CONTINUOUS
10
132.232
20
-132.156
11
113.182
21
-132.156
0
LINE
8
BLACK
6
CONTINUOUS
10
113.182
20
-132.156
11
113.182
21
-113.106
0
LINE
8
BLACK
6
CONTINUOUS
10
115.707
20
-116.631
11
115.707
21
-115.631
0
LINE
8
BLACK
6
CONTINUOUS
10
129.707
20
-115.631
11
128.707
21
-115.631
0
LINE
8
BLACK
6
CONTINUOUS
10
115.707
20
-128.631
11
115.707
21
-129.631
0
LINE
8
BLACK
6
CONTINUOUS
10
128.707
20
-129.631
11
129.707
21
-129.631
0
LINE
8
BLACK
6
CONTINUOUS
10
129.707
20
-129.631
11
129.707
21
-128.631
0
LINE
8
BLACK
6
CONTINUOUS
10
115.707
20
-115.631
11
116.707
21
-115.631
0
LINE
8
BLACK
6
CONTINUOUS
10
129.707
20
-115.631
11
129.707
21
-116.631
0
LINE
8
BLACK
6
CONTINUOUS
10
115.707
20
-129.631
11
116.707
21
-129.631
0
LINE
8
BLACK
6
CONTINUOUS
10
122.707
20
-137.236
11
141.757
21
-137.236
0
LINE
8
BLACK
6
CONTINUOUS
10
141.757
20
-137.236
11
141.757
21
-156.286
0
LINE
8
BLACK
6
CONTINUOUS
10
141.757
20
-156.286
11
122.707
21
-156.286
0
LINE
8
BLACK
6
CONTINUOUS
10
122.707
20
-156.286
11
122.707
21
-137.236
0
LINE
8
BLACK
6
CONTINUOUS
10
125.232
20
-140.761
11
125.232
21
-139.761
0
LINE
8
BLACK
6
CONTINUOUS
10
139.232
20
-139.761
11
138.232
21
-139.761
0
LINE
8
BLACK
6
CONTINUOUS
10
125.232
20
-152.761
11
125.232
21
-153.761
0
LINE
8
BLACK
6
CONTINUOUS
10
138.232
20
-153.761
11
139.232
21
-153.761
0
LINE
8
BLACK
6
CONTINUOUS
10
139.232
20
-153.761
11
139.232
21
-152.761
0
LINE
8
BLACK
6
CONTINUOUS
10
125.232
20
-139.761
11
126.232
21
-139.761
0
LINE
8
BLACK
6
CONTINUOUS
10
139.232
20
-139.761
11
139.232
21
-140.761
0
LINE
8
BLACK
6
CONTINUOUS
10
125.232
20
-153.761
11
126.232
21
-153.761
0
LINE
8
BLACK
6
CONTINUOUS
10
94.1324
20
-57.8612
11
113.182
21
-57.8612
0
LINE
8
BLACK
6
CONTINUOUS
10
113.182
20
-57.8612
11
113.182
21
-76.9112
0
LINE
8
BLACK
6
CONTINUOUS
10
113.182
20
-76.9112
11
94.1324
21
-76.9112
0
LINE
8
BLACK
6
CONTINUOUS
10
94.1324
20
-76.9112
11
94.1324
21
-57.8612
0
LINE
8
BLACK
6
CONTINUOUS
10
96.6574
20
-61.3862
11
96.6574
21
-60.3862
0
LINE
8
BLACK
6
CONTINUOUS
10
110.657
20
-60.3862
11
109.657
21
-60.3862
0
LINE
8
BLACK
6
CONTINUOUS
10
96.6574
20
-73.3862
11
96.6574
21
-74.3862
0
LINE
8
BLACK
6
CONTINUOUS
10
109.657
20
-74.3862
11
110.657
21
-74.3862
0
LINE
8
BLACK
6
CONTINUOUS
10
110.657
20
-74.3862
11
110.657
21
-73.3862
0
LINE
8
BLACK
6
CONTINUOUS
10
96.6574
20
-60.3862
11
97.6574
21
-60.3862
0
LINE
8
BLACK
6
CONTINUOUS
10
110.657
20
-60.3862
11
110.657
21
-61.3862
0
LINE
8
BLACK
6
CONTINUOUS
10
96.6574
20
-74.3862
11
97.6574
21
-74.3862
0
LINE
8
BLACK
6
CONTINUOUS
10
94.1324
20
-76.9112
11
113.182
21
-76.9112
0
LINE
8
BLACK
6
CONTINUOUS
10
113.182
20
-76.9112
11
113.182
21
-95.9612
0
LINE
8
BLACK
6
CONTINUOUS
10
113.182
20
-95.9612
11
94.1324
21
-95.9612
0
LINE
8
BLACK
6
CONTINUOUS
10
94.1324
20
-95.9612
11
94.1324
21
-76.9112
0
LINE
8
BLACK
6
CONTINUOUS
10
96.6574
20
-80.4362
11
96.6574
21
-79.4362
0
LINE
8
BLACK
6
CONTINUOUS
10
110.657
20
-79.4362
11
109.657
21
-79.4362
0
LINE
8
BLACK
6
CONTINUOUS
10
96.6574
20
-92.4362
11
96.6574
21
-93.4362
0
LINE
8
BLACK
6
CONTINUOUS
10
109.657
20
-93.4362
11
110.657
21
-93.4362
0
LINE
8
BLACK
6
CONTINUOUS
10
110.657
20
-93.4362
11
110.657
21
-92.4362
0
LINE
8
BLACK
6
CONTINUOUS
10
96.6574
20
-79.4362
11
97.6574
21
-79.4362
0
LINE
8
BLACK
6
CONTINUOUS
10
110.657
20
-79.4362
11
110.657
21
-80.4362
0
LINE
8
BLACK
6
CONTINUOUS
10
96.6574
20
-93.4362
11
97.6574
21
-93.4362
0
LINE
8
BLACK
6
CONTINUOUS
10
94.1324
20
-95.9612
11
113.182
21
-95.9612
0
LINE
8
BLACK
6
CONTINUOUS
10
113.182
20
-95.9612
11
113.182
21
-115.011
0
LINE
8
BLACK
6
CONTINUOUS
10
113.182
20
-115.011
11
94.1324
21
-115.011
0
LINE
8
BLACK
6
CONTINUOUS
10
94.1324
20
-115.011
11
94.1324
21
-95.9612
0
LINE
8
BLACK
6
CONTINUOUS
10
96.6574
20
-99.4862
11
96.6574
21
-98.4862
0
LINE
8
BLACK
6
CONTINUOUS
10
110.657
20
-98.4862
11
109.657
21
-98.4862
0
LINE
8
BLACK
6
CONTINUOUS
10
96.6574
20
-111.486
11
96.6574
21
-112.486
0
LINE
8
BLACK
6
CONTINUOUS
10
109.657
20
-112.486
11
110.657
21
-112.486
0
LINE
8
BLACK
6
CONTINUOUS
10
110.657
20
-112.486
11
110.657
21
-111.486
0
LINE
8
BLACK
6
CONTINUOUS
10
96.6574
20
-98.4862
11
97.6574
21
-98.4862
0
LINE
8
BLACK
6
CONTINUOUS
10
110.657
20
-98.4862
11
110.657
21
-99.4862
0
LINE
8
BLACK
6
CONTINUOUS
10
96.6574
20
-112.486
11
97.6574
21
-112.486
0
LINE
8
BLACK
6
CONTINUOUS
10
94.1324
20
-115.011
11
113.182
21
-115.011
0
LINE
8
BLACK
6
CONTINUOUS
10
113.182
20
-115.011
11
113.182
21
-134.061
0
LINE
8
BLACK
6
CONTINUOUS
10
113.182
20
-134.061
11
94.1324
21
-134.061
0
LINE
8
BLACK
6
CONTINUOUS
10
94.1324
20
-134.061
11
94.1324
21
-115.011
0
LINE
8
BLACK
6
CONTINUOUS
10
96.6574
20
-118.536
11
96.6574
21
-117.536
0
LINE
8
BLACK
6
CONTINUOUS
10
110.657
20
-117.536
11
109.657
21
-117.536
0
LINE
8
BLACK
6
CONTINUOUS
10
96.6574
20
-130.536
11
96.6574
21
-131.536
0
LINE
8
BLACK
6
CONTINUOUS
10
109.657
20
-131.536
11
110.657
21
-131.536
0
LINE
8
BLACK
6
CONTINUOUS
10
110.657
20
-131.536
11
110.657
21
-130.536
0
LINE
8
BLACK
6
CONTINUOUS
10
96.6574
20
-117.536
11
97.6574
21
-117.536
0
LINE
8
BLACK
6
CONTINUOUS
10
110.657
20
-117.536
11
110.657
21
-118.536
0
LINE
8
BLACK
6
CONTINUOUS
10
96.6574
20
-131.536
11
97.6574
21
-131.536
0
LINE
8
BLACK
6
CONTINUOUS
10
99.3069
20
-142.045
11
117.708
21
-137.115
0
LINE
8
BLACK
6
CONTINUOUS
10
117.708
20
-137.115
11
122.638
21
-155.516
0
LINE
8
BLACK
6
CONTINUOUS
10
122.638
20
-155.516
11
104.237
21
-160.446
0
LINE
8
BLACK
6
CONTINUOUS
10
104.237
20
-160.446
11
99.3069
21
-142.045
0
LINE
8
BLACK
6
CONTINUOUS
10
102.658
20
-144.797
11
102.399
21
-143.831
0
LINE
8
BLACK
6
CONTINUOUS
10
115.922
20
-140.207
11
114.956
21
-140.466
0
LINE
8
BLACK
6
CONTINUOUS
10
105.764
20
-156.388
11
106.023
21
-157.354
0
LINE
8
BLACK
6
CONTINUOUS
10
118.58
20
-153.989
11
119.546
21
-153.73
0
LINE
8
BLACK
6
CONTINUOUS
10
119.546
20
-153.73
11
119.287
21
-152.764
0
LINE
8
BLACK
6
CONTINUOUS
10
102.399
20
-143.831
11
103.365
21
-143.572
0
LINE
8
BLACK
6
CONTINUOUS
10
115.922
20
-140.207
11
116.181
21
-141.173
0
LINE
8
BLACK
6
CONTINUOUS
10
106.023
20
-157.354
11
106.989
21
-157.095
0
LINE
8
BLACK
6
CONTINUOUS
10
77.8439
20
-152.917
11
94.3417
21
-143.392
0
LINE
8
BLACK
6
CONTINUOUS
10
94.3417
20
-143.392
11
103.867
21
-159.89
0
LINE
8
BLACK
6
CONTINUOUS
10
103.867
20
-159.89
11
87.3689
21
-169.415
0
LINE
8
BLACK
6
CONTINUOUS
10
87.3689
20
-169.415
11
77.8439
21
-152.917
0
LINE
8
BLACK
6
CONTINUOUS
10
81.7931
20
-154.707
11
81.2931
21
-153.841
0
LINE
8
BLACK
6
CONTINUOUS
10
93.4175
20
-146.841
11
92.5515
21
-147.341
0
LINE
8
BLACK
6
CONTINUOUS
10
87.7931
20
-165.1
11
88.2931
21
-165.966
0
LINE
8
BLACK
6
CONTINUOUS
10
99.5515
20
-159.466
11
100.417
21
-158.966
0
LINE
8
BLACK
6
CONTINUOUS
10
100.417
20
-158.966
11
99.9175
21
-158.1
0
LINE
8
BLACK
6
CONTINUOUS
10
81.2931
20
-153.841
11
82.1592
21
-153.341
0
LINE
8
BLACK
6
CONTINUOUS
10
93.4175
20
-146.841
11
93.9175
21
-147.707
0
LINE
8
BLACK
6
CONTINUOUS
10
88.2931
20
-165.966
11
89.1592
21
-165.466
0
LINE
8
BLACK
6
CONTINUOUS
10
303.972
20
-57.8612
11
323.022
21
-57.8612
0
LINE
8
BLACK
6
CONTINUOUS
10
323.022
20
-57.8612
11
323.022
21
-76.9112
0
LINE
8
BLACK
6
CONTINUOUS
10
323.022
20
-76.9112
11
303.972
21
-76.9112
0
LINE
8
BLACK
6
CONTINUOUS
10
303.972
20
-76.9112
11
303.972
21
-57.8612
0
LINE
8
BLACK
6
CONTINUOUS
10
306.497
20
-61.3862
11
306.497
21
-60.3862
0
LINE
8
BLACK
6
CONTINUOUS
10
320.497
20
-60.3862
11
319.497
21
-60.3862
0
LINE
8
BLACK
6
CONTINUOUS
10
306.497
20
-73.3862
11
306.497
21
-74.3862
0
LINE
8
BLACK
6
CONTINUOUS
10
319.497
20
-74.3862
11
320.497
21
-74.3862
0
LINE
8
BLACK
6
CONTINUOUS
10
320.497
20
-74.3862
11
320.497
21
-73.3862
0
LINE
8
BLACK
6
CONTINUOUS
10
306.497
20
-60.3862
11
307.497
21
-60.3862
0
LINE
8
BLACK
6
CONTINUOUS
10
320.497
20
-60.3862
11
320.497
21
-61.3862
0
LINE
8
BLACK
6
CONTINUOUS
10
306.497
20
-74.3862
11
307.497
21
-74.3862
0
LINE
8
BLACK
6
CONTINUOUS
10
265.872
20
-92.1512
11
284.922
21
-92.1512
0
LINE
8
BLACK
6
CONTINUOUS
10
284.922
20
-92.1512
11
284.922
21
-111.201
0
LINE
8
BLACK
6
CONTINUOUS
10
284.922
20
-111.201
11
265.872
21
-111.201
0
LINE
8
BLACK
6
CONTINUOUS
10
265.872
20
-111.201
11
265.872
21
-92.1512
0
LINE
8
BLACK
6
CONTINUOUS
10
268.397
20
-95.6762
11
268.397
21
-94.6762
0
LINE
8
BLACK
6
CONTINUOUS
10
282.397
20
-94.6762
11
281.397
21
-94.6762
0
LINE
8
BLACK
6
CONTINUOUS
10
268.397
20
-107.676
11
268.397
21
-108.676
0
LINE
8
BLACK
6
CONTINUOUS
10
281.397
20
-108.676
11
282.397
21
-108.676
0
LINE
8
BLACK
6
CONTINUOUS
10
282.397
20
-108.676
11
282.397
21
-107.676
0
LINE
8
BLACK
6
CONTINUOUS
10
268.397
20
-94.6762
11
269.397
21
-94.6762
0
LINE
8
BLACK
6
CONTINUOUS
10
282.397
20
-94.6762
11
282.397
21
-95.6762
0
LINE
8
BLACK
6
CONTINUOUS
10
268.397
20
-108.676
11
269.397
21
-108.676
0
LINE
8
BLACK
6
CONTINUOUS
10
227.772
20
-61.6712
11
246.822
21
-61.6712
0
LINE
8
BLACK
6
CONTINUOUS
10
246.822
20
-61.6712
11
246.822
21
-80.7212
0
LINE
8
BLACK
6
CONTINUOUS
10
246.822
20
-80.7212
11
227.772
21
-80.7212
0
LINE
8
BLACK
6
CONTINUOUS
10
227.772
20
-80.7212
11
227.772
21
-61.6712
0
LINE
8
BLACK
6
CONTINUOUS
10
230.297
20
-65.1962
11
230.297
21
-64.1962
0
LINE
8
BLACK
6
CONTINUOUS
10
244.297
20
-64.1962
11
243.297
21
-64.1962
0
LINE
8
BLACK
6
CONTINUOUS
10
230.297
20
-77.1962
11
230.297
21
-78.1962
0
LINE
8
BLACK
6
CONTINUOUS
10
243.297
20
-78.1962
11
244.297
21
-78.1962
0
LINE
8
BLACK
6
CONTINUOUS
10
244.297
20
-78.1962
11
244.297
21
-77.1962
0
LINE
8
BLACK
6
CONTINUOUS
10
230.297
20
-64.1962
11
231.297
21
-64.1962
0
LINE
8
BLACK
6
CONTINUOUS
10
244.297
20
-64.1962
11
244.297
21
-65.1962
0
LINE
8
BLACK
6
CONTINUOUS
10
230.297
20
-78.1962
11
231.297
21
-78.1962
0
LINE
8
BLACK
6
CONTINUOUS
10
284.922
20
-113.106
11
303.972
21
-113.106
0
LINE
8
BLACK
6
CONTINUOUS
10
303.972
20
-113.106
11
303.972
21
-132.156
0
LINE
8
BLACK
6
CONTINUOUS
10
303.972
20
-132.156
11
284.922
21
-132.156
0
LINE
8
BLACK
6
CONTINUOUS
10
284.922
20
-132.156
11
284.922
21
-113.106
0
LINE
8
BLACK
6
CONTINUOUS
10
287.447
20
-116.631
11
287.447
21
-115.631
0
LINE
8
BLACK
6
CONTINUOUS
10
301.447
20
-115.631
11
300.447
21
-115.631
0
LINE
8
BLACK
6
CONTINUOUS
10
287.447
20
-128.631
11
287.447
21
-129.631
0
LINE
8
BLACK
6
CONTINUOUS
10
300.447
20
-129.631
11
301.447
21
-129.631
0
LINE
8
BLACK
6
CONTINUOUS
10
301.447
20
-129.631
11
301.447
21
-128.631
0
LINE
8
BLACK
6
CONTINUOUS
10
287.447
20
-115.631
11
288.447
21
-115.631
0
LINE
8
BLACK
6
CONTINUOUS
10
301.447
20
-115.631
11
301.447
21
-116.631
0
LINE
8
BLACK
6
CONTINUOUS
10
287.447
20
-129.631
11
288.447
21
-129.631
0
LINE
8
BLACK
6
CONTINUOUS
10
132.232
20
-92.1512
11
151.282
21
-92.1512
0
LINE
8
BLACK
6
CONTINUOUS
10
151.282
20
-92.1512
11
151.282
21
-111.201
0
LINE
8
BLACK
6
CONTINUOUS
10
151.282
20
-111.201
11
132.232
21
-111.201
0
LINE
8
BLACK
6
CONTINUOUS
10
132.232
20
-111.201
11
132.232
21
-92.1512
0
LINE
8
BLACK
6
CONTINUOUS
10
134.757
20
-95.6762
11
134.757
21
-94.6762
0
LINE
8
BLACK
6
CONTINUOUS
10
148.757
20
-94.6762
11
147.757
21
-94.6762
0
LINE
8
BLACK
6
CONTINUOUS
10
134.757
20
-107.676
11
134.757
21
-108.676
0
LINE
8
BLACK
6
CONTINUOUS
10
147.757
20
-108.676
11
148.757
21
-108.676
0
LINE
8
BLACK
6
CONTINUOUS
10
148.757
20
-108.676
11
148.757
21
-107.676
0
LINE
8
BLACK
6
CONTINUOUS
10
134.757
20
-94.6762
11
135.757
21
-94.6762
0
LINE
8
BLACK
6
CONTINUOUS
10
148.757
20
-94.6762
11
148.757
21
-95.6762
0
LINE
8
BLACK
6
CONTINUOUS
10
134.757
20
-108.676
11
135.757
21
-108.676
0
LINE
8
BLACK
6
CONTINUOUS
10
151.282
20
-113.741
11
170.332
21
-113.741
0
LINE
8
BLACK
6
CONTINUOUS
10
170.332
20
-113.741
11
170.332
21
-132.791
0
LINE
8
BLACK
6
CONTINUOUS
10
170.332
20
-132.791
11
151.282
21
-132.791
0
LINE
8
BLACK
6
CONTINUOUS
10
151.282
20
-132.791
11
151.282
21
-113.741
0
LINE
8
BLACK
6
CONTINUOUS
10
153.807
20
-117.266
11
153.807
21
-116.266
0
LINE
8
BLACK
6
CONTINUOUS
10
167.807
20
-116.266
11
166.807
21
-116.266
0
LINE
8
BLACK
6
CONTINUOUS
10
153.807
20
-129.266
11
153.807
21
-130.266
0
LINE
8
BLACK
6
CONTINUOUS
10
166.807
20
-130.266
11
167.807
21
-130.266
0
LINE
8
BLACK
6
CONTINUOUS
10
167.807
20
-130.266
11
167.807
21
-129.266
0
LINE
8
BLACK
6
CONTINUOUS
10
153.807
20
-116.266
11
154.807
21
-116.266
0
LINE
8
BLACK
6
CONTINUOUS
10
167.807
20
-116.266
11
167.807
21
-117.266
0
LINE
8
BLACK
6
CONTINUOUS
10
153.807
20
-130.266
11
154.807
21
-130.266
0
LINE
8
BLACK
6
CONTINUOUS
10
151.282
20
-75.6412
11
170.332
21
-75.6412
0
LINE
8
BLACK
6
CONTINUOUS
10
170.332
20
-75.6412
11
170.332
21
-94.6912
0
LINE
8
BLACK
6
CONTINUOUS
10
170.332
20
-94.6912
11
151.282
21
-94.6912
0
LINE
8
BLACK
6
CONTINUOUS
10
151.282
20
-94.6912
11
151.282
21
-75.6412
0
LINE
8
BLACK
6
CONTINUOUS
10
153.807
20
-79.1662
11
153.807
21
-78.1662
0
LINE
8
BLACK
6
CONTINUOUS
10
167.807
20
-78.1662
11
166.807
21
-78.1662
0
LINE
8
BLACK
6
CONTINUOUS
10
153.807
20
-91.1662
11
153.807
21
-92.1662
0
LINE
8
BLACK
6
CONTINUOUS
10
166.807
20
-92.1662
11
167.807
21
-92.1662
0
LINE
8
BLACK
6
CONTINUOUS
10
167.807
20
-92.1662
11
167.807
21
-91.1662
0
LINE
8
BLACK
6
CONTINUOUS
10
153.807
20
-78.1662
11
154.807
21
-78.1662
0
LINE
8
BLACK
6
CONTINUOUS
10
167.807
20
-78.1662
11
167.807
21
-79.1662
0
LINE
8
BLACK
6
CONTINUOUS
10
153.807
20
-92.1662
11
154.807
21
-92.1662
0
LINE
8
BLACK
6
CONTINUOUS
10
70.8847
20
-114.244
11
70.9324
21
-114.291
0
LINE
8
BLACK
6
CONTINUOUS
10
70.9324
20
-114.291
11
70.98
21
-114.434
0
LINE
8
BLACK
6
CONTINUOUS
10
70.98
20
-114.434
11
70.98
21
-114.529
0
LINE
8
BLACK
6
CONTINUOUS
10
70.98
20
-114.529
11
70.9324
21
-114.672
0
LINE
8
BLACK
6
CONTINUOUS
10
70.9324
20
-114.672
11
70.8371
21
-114.767
0
LINE
8
BLACK
6
CONTINUOUS
10
70.8371
20
-114.767
11
70.7419
21
-114.815
0
LINE
8
BLACK
6
CONTINUOUS
10
70.7419
20
-114.815
11
70.5514
21
-114.863
0
LINE
8
BLACK
6
CONTINUOUS
10
70.5514
20
-114.863
11
70.4086
21
-114.863
0
LINE
8
BLACK
6
CONTINUOUS
10
70.4086
20
-114.863
11
70.2181
21
-114.815
0
LINE
8
BLACK
6
CONTINUOUS
10
70.2181
20
-114.815
11
70.1228
21
-114.767
0
LINE
8
BLACK
6
CONTINUOUS
10
70.1228
20
-114.767
11
70.0276
21
-114.672
0
LINE
8
BLACK
6
CONTINUOUS
10
70.0276
20
-114.672
11
69.98
21
-114.529
0
LINE
8
BLACK
6
CONTINUOUS
10
69.98
20
-114.529
11
69.98
21
-114.434
0
LINE
8
BLACK
6
CONTINUOUS
10
69.98
20
-114.434
11
70.0276
21
-114.291
0
LINE
8
BLACK
6
CONTINUOUS
10
70.0276
20
-114.291
11
70.0752
21
-114.244
0
LINE
8
BLACK
6
CONTINUOUS
10
69.98
20
-113.815
11
70.7895
21
-113.815
0
LINE
8
BLACK
6
CONTINUOUS
10
70.7895
20
-113.815
11
70.8847
21
-113.767
0
LINE
8
BLACK
6
CONTINUOUS
10
70.8847
20
-113.767
11
70.9324
21
-113.72
0
LINE
8
BLACK
6
CONTINUOUS
10
70.9324
20
-113.72
11
70.98
21
-113.625
0
LINE
8
BLACK
6
CONTINUOUS
10
70.98
20
-113.625
11
70.98
21
-113.434
0
LINE
8
BLACK
6
CONTINUOUS
10
70.98
20
-113.434
11
70.9324
21
-113.339
0
LINE
8
BLACK
6
CONTINUOUS
10
70.9324
20
-113.339
11
70.8847
21
-113.291
0
LINE
8
BLACK
6
CONTINUOUS
10
70.8847
20
-113.291
11
70.7895
21
-113.244
0
LINE
8
BLACK
6
CONTINUOUS
10
70.7895
20
-113.244
11
69.98
21
-113.244
0
LINE
8
BLACK
6
CONTINUOUS
10
69.98
20
-112.91
11
69.98
21
-112.339
0
LINE
8
BLACK
6
CONTINUOUS
10
70.98
20
-112.625
11
69.98
21
-112.625
0
LINE
8
BLACK
6
CONTINUOUS
10
346.264
20
-113.053
11
346.217
21
-113.006
0
LINE
8
BLACK
6
CONTINUOUS
10
346.217
20
-113.006
11
346.169
21
-112.863
0
LINE
8
BLACK
6
CONTINUOUS
10
346.169
20
-112.863
11
346.169
21
-112.767
0
LINE
8
BLACK
6
CONTINUOUS
10
346.169
20
-112.767
11
346.217
21
-112.625
0
LINE
8
BLACK
6
CONTINUOUS
10
346.217
20
-112.625
11
346.312
21
-112.529
0
LINE
8
BLACK
6
CONTINUOUS
10
346.312
20
-112.529
11
346.407
21
-112.482
0
LINE
8
BLACK
6
CONTINUOUS
10
346.407
20
-112.482
11
346.598
21
-112.434
0
LINE
8
BLACK
6
CONTINUOUS
10
346.598
20
-112.434
11
346.741
21
-112.434
0
LINE
8
BLACK
6
CONTINUOUS
10
346.741
20
-112.434
11
346.931
21
-112.482
0
LINE
8
BLACK
6
CONTINUOUS
10
346.931
20
-112.482
11
347.026
21
-112.529
0
LINE
8
BLACK
6
CONTINUOUS
10
347.026
20
-112.529
11
347.122
21
-112.625
0
LINE
8
BLACK
6
CONTINUOUS
10
347.122
20
-112.625
11
347.169
21
-112.767
0
LINE
8
BLACK
6
CONTINUOUS
10
347.169
20
-112.767
11
347.169
21
-112.863
0
LINE
8
BLACK
6
CONTINUOUS
10
347.169
20
-112.863
11
347.122
21
-113.006
0
LINE
8
BLACK
6
CONTINUOUS
10
347.122
20
-113.006
11
347.074
21
-113.053
0
LINE
8
BLACK
6
CONTINUOUS
10
347.169
20
-113.482
11
346.36
21
-113.482
0
LINE
8
BLACK
6
CONTINUOUS
10
346.36
20
-113.482
11
346.264
21
-113.529
0
LINE
8
BLACK
6
CONTINUOUS
10
346.264
20
-113.529
11
346.217
21
-113.577
0
LINE
8
BLACK
6
CONTINUOUS
10
346.217
20
-113.577
11
346.169
21
-113.672
0
LINE
8
BLACK
6
CONTINUOUS
10
346.169
20
-113.672
11
346.169
21
-113.863
0
LINE
8
BLACK
6
CONTINUOUS
10
346.169
20
-113.863
11
346.217
21
-113.958
0
LINE
8
BLACK
6
CONTINUOUS
10
346.217
20
-113.958
11
346.264
21
-114.006
0
LINE
8
BLACK
6
CONTINUOUS
10
346.264
20
-114.006
11
346.36
21
-114.053
0
LINE
8
BLACK
6
CONTINUOUS
10
346.36
20
-114.053
11
347.169
21
-114.053
0
LINE
8
BLACK
6
CONTINUOUS
10
347.169
20
-114.387
11
347.169
21
-114.958
0
LINE
8
BLACK
6
CONTINUOUS
10
346.169
20
-114.672
11
347.169
21
-114.672
  0
ENDSEC
  0
EOF
