  0
SECTION
  2
HEADER
  9
$ANGBASE
  50
0.0
  9
$ANGDIR
  70
1
  9
$MEASUREMENT
  70
1
  0
ENDSEC
  0
SECTION
  2
TABLES
  0
TABLE
  2
LTYPE
  70
4
  0
LTYPE
  5
40F
  2
CONTINUOUS
  70
0
  3
Solid line
  72
65
  73
0
  40
0.0
  0
LTYPE
  5
410
  2
DASHDOT
 70
0
  3
Dash Dot ____ _ ____ _
 72
65
 73
4
 40
2.0
 49
1.25
 49
-0.25
 49
0.25
 49
-0.25
  0
LTYPE
  5
411
  2
DASHED
 70
0
  3
Dashed __ __ __ __ __
 72
65
 73
2
 40
0.75
 49
0.5
 49
-0.25
  0
LTYPE
  5
43B
  2
DOTTED
 70
0
  3
Dotted .  .  .  .
 72
65
 73
2
 40
0.2
 49
0.0
 49
-0.2
  0
ENDTAB
  0
TABLE
  2
STYLE
  70
4
  0
STYLE
  2
KICAD
  70
0
  40
0
  41
1
  42
1
  50
0
  71
0
  3
isocp.shx
  0
STYLE
  2
KICADB
  70
0
  40
0
  41
1
  42
1
  50
0
  71
0
  3
isocp.shx
  0
STYLE
  2
KICADI
  70
0
  40
0
  41
1
  42
1
  50
15
  71
0
  3
isocp.shx
  0
STYLE
  2
KICADBI
  70
0
  40
0
  41
1
  42
1
  50
15
  71
0
  3
isocp.shx
  0
ENDTAB
  0
TABLE
  2
LAYER
  70
1
  0
LAYER
  2
BLACK
  70
0
  62
7
  6
CONTINUOUS
  0
ENDTAB
  0
ENDSEC
  0
SECTION
  2
ENTITIES
0
LINE
8
BLACK
6
CONTINUOUS
10
332.405
20
-161.315
11
331.955
21
-162.094
0
LINE
8
BLACK
6
CONTINUOUS
10
331.955
20
-162.094
11
330.916
21
-161.494
0
LINE
8
BLACK
6
CONTINUOUS
10
330.916
20
-161.494
11
331.366
21
-160.715
0
LINE
8
BLACK
6
CONTINUOUS
10
331.366
20
-160.715
11
332.405
21
-161.315
0
LINE
8
BLACK
6
CONTINUOUS
10
85.1787
20
-158.191
11
82.9703
21
-159.466
0
LINE
8
BLACK
6
CONTINUOUS
10
82.9703
20
-159.466
11
81.7203
21
-157.301
0
LINE
8
BLACK
6
CONTINUOUS
10
81.7203
20
-157.301
11
83.9287
21
-156.026
0
LINE
8
BLACK
6
CONTINUOUS
10
83.9287
20
-156.026
11
85.1787
21
-158.191
0
LINE
8
BLACK
6
CONTINUOUS
10
334.055
20
-158.457
11
333.605
21
-159.236
0
LINE
8
BLACK
6
CONTINUOUS
10
333.605
20
-159.236
11
332.566
21
-158.636
0
LINE
8
BLACK
6
CONTINUOUS
10
332.566
20
-158.636
11
333.016
21
-157.857
0
LINE
8
BLACK
6
CONTINUOUS
10
333.016
20
-157.857
11
334.055
21
-158.457
0
LINE
8
BLACK
6
CONTINUOUS
10
335.627
20
-154.48
11
334.377
21
-156.645
0
LINE
8
BLACK
6
CONTINUOUS
10
334.377
20
-156.645
11
332.169
21
-155.37
0
LINE
8
BLACK
6
CONTINUOUS
10
332.169
20
-155.37
11
333.419
21
-153.205
0
LINE
8
BLACK
6
CONTINUOUS
10
333.419
20
-153.205
11
335.627
21
-154.48
0
LINE
8
BLACK
6
CONTINUOUS
10
98.6116
20
-154.35
11
97.5724
21
-154.95
0
LINE
8
BLACK
6
CONTINUOUS
10
97.5724
20
-154.95
11
97.1224
21
-154.171
0
LINE
8
BLACK
6
CONTINUOUS
10
97.1224
20
-154.171
11
98.1616
21
-153.571
0
LINE
8
BLACK
6
CONTINUOUS
10
98.1616
20
-153.571
11
98.6116
21
-154.35
0
LINE
8
BLACK
6
CONTINUOUS
10
313.351
20
-151.944
11
313.118
21
-152.813
0
LINE
8
BLACK
6
CONTINUOUS
10
313.118
20
-152.813
11
311.959
21
-152.503
0
LINE
8
BLACK
6
CONTINUOUS
10
311.959
20
-152.503
11
312.192
21
-151.633
0
LINE
8
BLACK
6
CONTINUOUS
10
312.192
20
-151.633
11
313.351
21
-151.944
0
LINE
8
BLACK
6
CONTINUOUS
10
323.162
20
-150.216
11
321.912
21
-152.381
0
LINE
8
BLACK
6
CONTINUOUS
10
321.912
20
-152.381
11
319.704
21
-151.106
0
LINE
8
BLACK
6
CONTINUOUS
10
319.704
20
-151.106
11
320.954
21
-148.941
0
LINE
8
BLACK
6
CONTINUOUS
10
320.954
20
-148.941
11
323.162
21
-150.216
0
LINE
8
BLACK
6
CONTINUOUS
10
96.9616
20
-151.492
11
95.9224
21
-152.092
0
LINE
8
BLACK
6
CONTINUOUS
10
95.9224
20
-152.092
11
95.4724
21
-151.313
0
LINE
8
BLACK
6
CONTINUOUS
10
95.4724
20
-151.313
11
96.5116
21
-150.713
0
LINE
8
BLACK
6
CONTINUOUS
10
96.5116
20
-150.713
11
96.9616
21
-151.492
0
LINE
8
BLACK
6
CONTINUOUS
10
95.1038
20
-149.528
11
92.8954
21
-150.803
0
LINE
8
BLACK
6
CONTINUOUS
10
92.8954
20
-150.803
11
91.6454
21
-148.638
0
LINE
8
BLACK
6
CONTINUOUS
10
91.6454
20
-148.638
11
93.8538
21
-147.363
0
LINE
8
BLACK
6
CONTINUOUS
10
93.8538
20
-147.363
11
95.1038
21
-149.528
0
LINE
8
BLACK
6
CONTINUOUS
10
105.027
20
-149.038
11
102.564
21
-149.698
0
LINE
8
BLACK
6
CONTINUOUS
10
102.564
20
-149.698
11
101.917
21
-147.283
0
LINE
8
BLACK
6
CONTINUOUS
10
101.917
20
-147.283
11
104.38
21
-146.623
0
LINE
8
BLACK
6
CONTINUOUS
10
104.38
20
-146.623
11
105.027
21
-149.038
0
LINE
8
BLACK
6
CONTINUOUS
10
314.205
20
-148.756
11
313.972
21
-149.626
0
LINE
8
BLACK
6
CONTINUOUS
10
313.972
20
-149.626
11
312.813
21
-149.315
0
LINE
8
BLACK
6
CONTINUOUS
10
312.813
20
-149.315
11
313.046
21
-148.446
0
LINE
8
BLACK
6
CONTINUOUS
10
313.046
20
-148.446
11
314.205
21
-148.756
0
LINE
8
BLACK
6
CONTINUOUS
10
206.81
20
-149.496
11
205.61
21
-149.496
0
LINE
8
BLACK
6
CONTINUOUS
10
205.61
20
-149.496
11
205.61
21
-148.596
0
LINE
8
BLACK
6
CONTINUOUS
10
205.61
20
-148.596
11
206.81
21
-148.596
0
LINE
8
BLACK
6
CONTINUOUS
10
206.81
20
-148.596
11
206.81
21
-149.496
0
LINE
8
BLACK
6
CONTINUOUS
10
225.99
20
-149.496
11
224.79
21
-149.496
0
LINE
8
BLACK
6
CONTINUOUS
10
224.79
20
-149.496
11
224.79
21
-148.596
0
LINE
8
BLACK
6
CONTINUOUS
10
224.79
20
-148.596
11
225.99
21
-148.596
0
LINE
8
BLACK
6
CONTINUOUS
10
225.99
20
-148.596
11
225.99
21
-149.496
0
LINE
8
BLACK
6
CONTINUOUS
10
245.04
20
-149.496
11
243.84
21
-149.496
0
LINE
8
BLACK
6
CONTINUOUS
10
243.84
20
-149.496
11
243.84
21
-148.596
0
LINE
8
BLACK
6
CONTINUOUS
10
243.84
20
-148.596
11
245.04
21
-148.596
0
LINE
8
BLACK
6
CONTINUOUS
10
245.04
20
-148.596
11
245.04
21
-149.496
0
LINE
8
BLACK
6
CONTINUOUS
10
187.76
20
-149.496
11
186.56
21
-149.496
0
LINE
8
BLACK
6
CONTINUOUS
10
186.56
20
-149.496
11
186.56
21
-148.596
0
LINE
8
BLACK
6
CONTINUOUS
10
186.56
20
-148.596
11
187.76
21
-148.596
0
LINE
8
BLACK
6
CONTINUOUS
10
187.76
20
-148.596
11
187.76
21
-149.496
0
LINE
8
BLACK
6
CONTINUOUS
10
118.996
20
-148.805
11
117.837
21
-149.115
0
LINE
8
BLACK
6
CONTINUOUS
10
117.837
20
-149.115
11
117.604
21
-148.246
0
LINE
8
BLACK
6
CONTINUOUS
10
117.604
20
-148.246
11
118.763
21
-147.935
0
LINE
8
BLACK
6
CONTINUOUS
10
118.763
20
-147.935
11
118.996
21
-148.805
0
LINE
8
BLACK
6
CONTINUOUS
10
292.665
20
-148.861
11
291.465
21
-148.861
0
LINE
8
BLACK
6
CONTINUOUS
10
291.465
20
-148.861
11
291.465
21
-147.961
0
LINE
8
BLACK
6
CONTINUOUS
10
291.465
20
-147.961
11
292.665
21
-147.961
0
LINE
8
BLACK
6
CONTINUOUS
10
292.665
20
-147.961
11
292.665
21
-148.861
0
LINE
8
BLACK
6
CONTINUOUS
10
139.976
20
-148.861
11
138.776
21
-148.861
0
LINE
8
BLACK
6
CONTINUOUS
10
138.776
20
-148.861
11
138.776
21
-147.961
0
LINE
8
BLACK
6
CONTINUOUS
10
138.776
20
-147.961
11
139.976
21
-147.961
0
LINE
8
BLACK
6
CONTINUOUS
10
139.976
20
-147.961
11
139.976
21
-148.861
0
LINE
8
BLACK
6
CONTINUOUS
10
314.694
20
-144.508
11
314.047
21
-146.923
0
LINE
8
BLACK
6
CONTINUOUS
10
314.047
20
-146.923
11
311.584
21
-146.263
0
LINE
8
BLACK
6
CONTINUOUS
10
311.584
20
-146.263
11
312.231
21
-143.848
0
LINE
8
BLACK
6
CONTINUOUS
10
312.231
20
-143.848
11
314.694
21
-144.508
0
LINE
8
BLACK
6
CONTINUOUS
10
206.81
20
-146.196
11
205.61
21
-146.196
0
LINE
8
BLACK
6
CONTINUOUS
10
205.61
20
-146.196
11
205.61
21
-145.296
0
LINE
8
BLACK
6
CONTINUOUS
10
205.61
20
-145.296
11
206.81
21
-145.296
0
LINE
8
BLACK
6
CONTINUOUS
10
206.81
20
-145.296
11
206.81
21
-146.196
0
LINE
8
BLACK
6
CONTINUOUS
10
225.99
20
-146.196
11
224.79
21
-146.196
0
LINE
8
BLACK
6
CONTINUOUS
10
224.79
20
-146.196
11
224.79
21
-145.296
0
LINE
8
BLACK
6
CONTINUOUS
10
224.79
20
-145.296
11
225.99
21
-145.296
0
LINE
8
BLACK
6
CONTINUOUS
10
225.99
20
-145.296
11
225.99
21
-146.196
0
LINE
8
BLACK
6
CONTINUOUS
10
187.76
20
-146.196
11
186.56
21
-146.196
0
LINE
8
BLACK
6
CONTINUOUS
10
186.56
20
-146.196
11
186.56
21
-145.296
0
LINE
8
BLACK
6
CONTINUOUS
10
186.56
20
-145.296
11
187.76
21
-145.296
0
LINE
8
BLACK
6
CONTINUOUS
10
187.76
20
-145.296
11
187.76
21
-146.196
0
LINE
8
BLACK
6
CONTINUOUS
10
245.04
20
-146.196
11
243.84
21
-146.196
0
LINE
8
BLACK
6
CONTINUOUS
10
243.84
20
-146.196
11
243.84
21
-145.296
0
LINE
8
BLACK
6
CONTINUOUS
10
243.84
20
-145.296
11
245.04
21
-145.296
0
LINE
8
BLACK
6
CONTINUOUS
10
245.04
20
-145.296
11
245.04
21
-146.196
0
LINE
8
BLACK
6
CONTINUOUS
10
212.437
20
-146.106
11
209.887
21
-146.106
0
LINE
8
BLACK
6
CONTINUOUS
10
209.887
20
-146.106
11
209.887
21
-143.606
0
LINE
8
BLACK
6
CONTINUOUS
10
209.887
20
-143.606
11
212.437
21
-143.606
0
LINE
8
BLACK
6
CONTINUOUS
10
212.437
20
-143.606
11
212.437
21
-146.106
0
LINE
8
BLACK
6
CONTINUOUS
10
193.097
20
-146.106
11
190.547
21
-146.106
0
LINE
8
BLACK
6
CONTINUOUS
10
190.547
20
-146.106
11
190.547
21
-143.606
0
LINE
8
BLACK
6
CONTINUOUS
10
190.547
20
-143.606
11
193.097
21
-143.606
0
LINE
8
BLACK
6
CONTINUOUS
10
193.097
20
-143.606
11
193.097
21
-146.106
0
LINE
8
BLACK
6
CONTINUOUS
10
231.487
20
-146.106
11
228.937
21
-146.106
0
LINE
8
BLACK
6
CONTINUOUS
10
228.937
20
-146.106
11
228.937
21
-143.606
0
LINE
8
BLACK
6
CONTINUOUS
10
228.937
20
-143.606
11
231.487
21
-143.606
0
LINE
8
BLACK
6
CONTINUOUS
10
231.487
20
-143.606
11
231.487
21
-146.106
0
LINE
8
BLACK
6
CONTINUOUS
10
174.047
20
-146.106
11
171.497
21
-146.106
0
LINE
8
BLACK
6
CONTINUOUS
10
171.497
20
-146.106
11
171.497
21
-143.606
0
LINE
8
BLACK
6
CONTINUOUS
10
171.497
20
-143.606
11
174.047
21
-143.606
0
LINE
8
BLACK
6
CONTINUOUS
10
174.047
20
-143.606
11
174.047
21
-146.106
0
LINE
8
BLACK
6
CONTINUOUS
10
301.55
20
-143.616
11
300.903
21
-146.031
0
LINE
8
BLACK
6
CONTINUOUS
10
300.903
20
-146.031
11
298.44
21
-145.371
0
LINE
8
BLACK
6
CONTINUOUS
10
298.44
20
-145.371
11
299.087
21
-142.956
0
LINE
8
BLACK
6
CONTINUOUS
10
299.087
20
-142.956
11
301.55
21
-143.616
0
LINE
8
BLACK
6
CONTINUOUS
10
118.142
20
-145.617
11
116.983
21
-145.928
0
LINE
8
BLACK
6
CONTINUOUS
10
116.983
20
-145.928
11
116.75
21
-145.058
0
LINE
8
BLACK
6
CONTINUOUS
10
116.75
20
-145.058
11
117.909
21
-144.748
0
LINE
8
BLACK
6
CONTINUOUS
10
117.909
20
-144.748
11
118.142
21
-145.617
0
LINE
8
BLACK
6
CONTINUOUS
10
292.665
20
-145.561
11
291.465
21
-145.561
0
LINE
8
BLACK
6
CONTINUOUS
10
291.465
20
-145.561
11
291.465
21
-144.661
0
LINE
8
BLACK
6
CONTINUOUS
10
291.465
20
-144.661
11
292.665
21
-144.661
0
LINE
8
BLACK
6
CONTINUOUS
10
292.665
20
-144.661
11
292.665
21
-145.561
0
LINE
8
BLACK
6
CONTINUOUS
10
139.976
20
-145.561
11
138.776
21
-145.561
0
LINE
8
BLACK
6
CONTINUOUS
10
138.776
20
-145.561
11
138.776
21
-144.661
0
LINE
8
BLACK
6
CONTINUOUS
10
138.776
20
-144.661
11
139.976
21
-144.661
0
LINE
8
BLACK
6
CONTINUOUS
10
139.976
20
-144.661
11
139.976
21
-145.561
0
LINE
8
BLACK
6
CONTINUOUS
10
126.422
20
-145.471
11
123.872
21
-145.471
0
LINE
8
BLACK
6
CONTINUOUS
10
123.872
20
-145.471
11
123.872
21
-142.971
0
LINE
8
BLACK
6
CONTINUOUS
10
123.872
20
-142.971
11
126.422
21
-142.971
0
LINE
8
BLACK
6
CONTINUOUS
10
126.422
20
-142.971
11
126.422
21
-145.471
0
LINE
8
BLACK
6
CONTINUOUS
10
279.112
20
-145.471
11
276.562
21
-145.471
0
LINE
8
BLACK
6
CONTINUOUS
10
276.562
20
-145.471
11
276.562
21
-142.971
0
LINE
8
BLACK
6
CONTINUOUS
10
276.562
20
-142.971
11
279.112
21
-142.971
0
LINE
8
BLACK
6
CONTINUOUS
10
279.112
20
-142.971
11
279.112
21
-145.471
0
LINE
8
BLACK
6
CONTINUOUS
10
264.09
20
-144.416
11
262.89
21
-144.416
0
LINE
8
BLACK
6
CONTINUOUS
10
262.89
20
-144.416
11
262.89
21
-143.516
0
LINE
8
BLACK
6
CONTINUOUS
10
262.89
20
-143.516
11
264.09
21
-143.516
0
LINE
8
BLACK
6
CONTINUOUS
10
264.09
20
-143.516
11
264.09
21
-144.416
0
LINE
8
BLACK
6
CONTINUOUS
10
168.71
20
-144.416
11
167.51
21
-144.416
0
LINE
8
BLACK
6
CONTINUOUS
10
167.51
20
-144.416
11
167.51
21
-143.516
0
LINE
8
BLACK
6
CONTINUOUS
10
167.51
20
-143.516
11
168.71
21
-143.516
0
LINE
8
BLACK
6
CONTINUOUS
10
168.71
20
-143.516
11
168.71
21
-144.416
0
LINE
8
BLACK
6
CONTINUOUS
10
116.856
20
-143.239
11
114.393
21
-143.899
0
LINE
8
BLACK
6
CONTINUOUS
10
114.393
20
-143.899
11
113.746
21
-141.484
0
LINE
8
BLACK
6
CONTINUOUS
10
113.746
20
-141.484
11
116.209
21
-140.824
0
LINE
8
BLACK
6
CONTINUOUS
10
116.209
20
-140.824
11
116.856
21
-143.239
0
LINE
8
BLACK
6
CONTINUOUS
10
225.364
20
-143.566
11
222.814
21
-143.566
0
LINE
8
BLACK
6
CONTINUOUS
10
222.814
20
-143.566
11
222.814
21
-141.066
0
LINE
8
BLACK
6
CONTINUOUS
10
222.814
20
-141.066
11
225.364
21
-141.066
0
LINE
8
BLACK
6
CONTINUOUS
10
225.364
20
-141.066
11
225.364
21
-143.566
0
LINE
8
BLACK
6
CONTINUOUS
10
206.024
20
-143.566
11
203.474
21
-143.566
0
LINE
8
BLACK
6
CONTINUOUS
10
203.474
20
-143.566
11
203.474
21
-141.066
0
LINE
8
BLACK
6
CONTINUOUS
10
203.474
20
-141.066
11
206.024
21
-141.066
0
LINE
8
BLACK
6
CONTINUOUS
10
206.024
20
-141.066
11
206.024
21
-143.566
0
LINE
8
BLACK
6
CONTINUOUS
10
244.414
20
-143.566
11
241.864
21
-143.566
0
LINE
8
BLACK
6
CONTINUOUS
10
241.864
20
-143.566
11
241.864
21
-141.066
0
LINE
8
BLACK
6
CONTINUOUS
10
241.864
20
-141.066
11
244.414
21
-141.066
0
LINE
8
BLACK
6
CONTINUOUS
10
244.414
20
-141.066
11
244.414
21
-143.566
0
LINE
8
BLACK
6
CONTINUOUS
10
186.974
20
-143.566
11
184.424
21
-143.566
0
LINE
8
BLACK
6
CONTINUOUS
10
184.424
20
-143.566
11
184.424
21
-141.066
0
LINE
8
BLACK
6
CONTINUOUS
10
184.424
20
-141.066
11
186.974
21
-141.066
0
LINE
8
BLACK
6
CONTINUOUS
10
186.974
20
-141.066
11
186.974
21
-143.566
0
LINE
8
BLACK
6
CONTINUOUS
10
139.349
20
-142.931
11
136.799
21
-142.931
0
LINE
8
BLACK
6
CONTINUOUS
10
136.799
20
-142.931
11
136.799
21
-140.431
0
LINE
8
BLACK
6
CONTINUOUS
10
136.799
20
-140.431
11
139.349
21
-140.431
0
LINE
8
BLACK
6
CONTINUOUS
10
139.349
20
-140.431
11
139.349
21
-142.931
0
LINE
8
BLACK
6
CONTINUOUS
10
292.039
20
-142.931
11
289.489
21
-142.931
0
LINE
8
BLACK
6
CONTINUOUS
10
289.489
20
-142.931
11
289.489
21
-140.431
0
LINE
8
BLACK
6
CONTINUOUS
10
289.489
20
-140.431
11
292.039
21
-140.431
0
LINE
8
BLACK
6
CONTINUOUS
10
292.039
20
-140.431
11
292.039
21
-142.931
0
LINE
8
BLACK
6
CONTINUOUS
10
264.09
20
-141.116
11
262.89
21
-141.116
0
LINE
8
BLACK
6
CONTINUOUS
10
262.89
20
-141.116
11
262.89
21
-140.216
0
LINE
8
BLACK
6
CONTINUOUS
10
262.89
20
-140.216
11
264.09
21
-140.216
0
LINE
8
BLACK
6
CONTINUOUS
10
264.09
20
-140.216
11
264.09
21
-141.116
0
LINE
8
BLACK
6
CONTINUOUS
10
168.71
20
-141.116
11
167.51
21
-141.116
0
LINE
8
BLACK
6
CONTINUOUS
10
167.51
20
-141.116
11
167.51
21
-140.216
0
LINE
8
BLACK
6
CONTINUOUS
10
167.51
20
-140.216
11
168.71
21
-140.216
0
LINE
8
BLACK
6
CONTINUOUS
10
168.71
20
-140.216
11
168.71
21
-141.116
0
LINE
8
BLACK
6
CONTINUOUS
10
250.537
20
-141.026
11
247.987
21
-141.026
0
LINE
8
BLACK
6
CONTINUOUS
10
247.987
20
-141.026
11
247.987
21
-138.526
0
LINE
8
BLACK
6
CONTINUOUS
10
247.987
20
-138.526
11
250.537
21
-138.526
0
LINE
8
BLACK
6
CONTINUOUS
10
250.537
20
-138.526
11
250.537
21
-141.026
0
LINE
8
BLACK
6
CONTINUOUS
10
154.997
20
-141.026
11
152.447
21
-141.026
0
LINE
8
BLACK
6
CONTINUOUS
10
152.447
20
-141.026
11
152.447
21
-138.526
0
LINE
8
BLACK
6
CONTINUOUS
10
152.447
20
-138.526
11
154.997
21
-138.526
0
LINE
8
BLACK
6
CONTINUOUS
10
154.997
20
-138.526
11
154.997
21
-141.026
0
LINE
8
BLACK
6
CONTINUOUS
10
263.464
20
-138.486
11
260.914
21
-138.486
0
LINE
8
BLACK
6
CONTINUOUS
10
260.914
20
-138.486
11
260.914
21
-135.986
0
LINE
8
BLACK
6
CONTINUOUS
10
260.914
20
-135.986
11
263.464
21
-135.986
0
LINE
8
BLACK
6
CONTINUOUS
10
263.464
20
-135.986
11
263.464
21
-138.486
0
LINE
8
BLACK
6
CONTINUOUS
10
167.924
20
-138.486
11
165.374
21
-138.486
0
LINE
8
BLACK
6
CONTINUOUS
10
165.374
20
-138.486
11
165.374
21
-135.986
0
LINE
8
BLACK
6
CONTINUOUS
10
165.374
20
-135.986
11
167.924
21
-135.986
0
LINE
8
BLACK
6
CONTINUOUS
10
167.924
20
-135.986
11
167.924
21
-138.486
0
LINE
8
BLACK
6
CONTINUOUS
10
101.145
20
-138.161
11
99.9454
21
-138.161
0
LINE
8
BLACK
6
CONTINUOUS
10
99.9454
20
-138.161
11
99.9454
21
-137.261
0
LINE
8
BLACK
6
CONTINUOUS
10
99.9454
20
-137.261
11
101.145
21
-137.261
0
LINE
8
BLACK
6
CONTINUOUS
10
101.145
20
-137.261
11
101.145
21
-138.161
0
LINE
8
BLACK
6
CONTINUOUS
10
96.3194
20
-138.161
11
95.1194
21
-138.161
0
LINE
8
BLACK
6
CONTINUOUS
10
95.1194
20
-138.161
11
95.1194
21
-137.261
0
LINE
8
BLACK
6
CONTINUOUS
10
95.1194
20
-137.261
11
96.3194
21
-137.261
0
LINE
8
BLACK
6
CONTINUOUS
10
96.3194
20
-137.261
11
96.3194
21
-138.161
0
LINE
8
BLACK
6
CONTINUOUS
10
322.035
20
-138.161
11
320.835
21
-138.161
0
LINE
8
BLACK
6
CONTINUOUS
10
320.835
20
-138.161
11
320.835
21
-137.261
0
LINE
8
BLACK
6
CONTINUOUS
10
320.835
20
-137.261
11
322.035
21
-137.261
0
LINE
8
BLACK
6
CONTINUOUS
10
322.035
20
-137.261
11
322.035
21
-138.161
0
LINE
8
BLACK
6
CONTINUOUS
10
103.558
20
-138.161
11
102.358
21
-138.161
0
LINE
8
BLACK
6
CONTINUOUS
10
102.358
20
-138.161
11
102.358
21
-137.261
0
LINE
8
BLACK
6
CONTINUOUS
10
102.358
20
-137.261
11
103.558
21
-137.261
0
LINE
8
BLACK
6
CONTINUOUS
10
103.558
20
-137.261
11
103.558
21
-138.161
0
LINE
8
BLACK
6
CONTINUOUS
10
319.622
20
-138.161
11
318.422
21
-138.161
0
LINE
8
BLACK
6
CONTINUOUS
10
318.422
20
-138.161
11
318.422
21
-137.261
0
LINE
8
BLACK
6
CONTINUOUS
10
318.422
20
-137.261
11
319.622
21
-137.261
0
LINE
8
BLACK
6
CONTINUOUS
10
319.622
20
-137.261
11
319.622
21
-138.161
0
LINE
8
BLACK
6
CONTINUOUS
10
324.448
20
-138.161
11
323.248
21
-138.161
0
LINE
8
BLACK
6
CONTINUOUS
10
323.248
20
-138.161
11
323.248
21
-137.261
0
LINE
8
BLACK
6
CONTINUOUS
10
323.248
20
-137.261
11
324.448
21
-137.261
0
LINE
8
BLACK
6
CONTINUOUS
10
324.448
20
-137.261
11
324.448
21
-138.161
0
LINE
8
BLACK
6
CONTINUOUS
10
314.796
20
-138.161
11
313.596
21
-138.161
0
LINE
8
BLACK
6
CONTINUOUS
10
313.596
20
-138.161
11
313.596
21
-137.261
0
LINE
8
BLACK
6
CONTINUOUS
10
313.596
20
-137.261
11
314.796
21
-137.261
0
LINE
8
BLACK
6
CONTINUOUS
10
314.796
20
-137.261
11
314.796
21
-138.161
0
LINE
8
BLACK
6
CONTINUOUS
10
98.7324
20
-138.161
11
97.5324
21
-138.161
0
LINE
8
BLACK
6
CONTINUOUS
10
97.5324
20
-138.161
11
97.5324
21
-137.261
0
LINE
8
BLACK
6
CONTINUOUS
10
97.5324
20
-137.261
11
98.7324
21
-137.261
0
LINE
8
BLACK
6
CONTINUOUS
10
98.7324
20
-137.261
11
98.7324
21
-138.161
0
LINE
8
BLACK
6
CONTINUOUS
10
93.9064
20
-138.161
11
92.7064
21
-138.161
0
LINE
8
BLACK
6
CONTINUOUS
10
92.7064
20
-138.161
11
92.7064
21
-137.261
0
LINE
8
BLACK
6
CONTINUOUS
10
92.7064
20
-137.261
11
93.9064
21
-137.261
0
LINE
8
BLACK
6
CONTINUOUS
10
93.9064
20
-137.261
11
93.9064
21
-138.161
0
LINE
8
BLACK
6
CONTINUOUS
10
317.209
20
-138.161
11
316.009
21
-138.161
0
LINE
8
BLACK
6
CONTINUOUS
10
316.009
20
-138.161
11
316.009
21
-137.261
0
LINE
8
BLACK
6
CONTINUOUS
10
316.009
20
-137.261
11
317.209
21
-137.261
0
LINE
8
BLACK
6
CONTINUOUS
10
317.209
20
-137.261
11
317.209
21
-138.161
0
LINE
8
BLACK
6
CONTINUOUS
10
311.874
20
-137.77
11
310.174
21
-137.77
0
LINE
8
BLACK
6
CONTINUOUS
10
310.174
20
-137.77
11
310.174
21
-136.77
0
LINE
8
BLACK
6
CONTINUOUS
10
310.174
20
-136.77
11
311.874
21
-136.77
0
LINE
8
BLACK
6
CONTINUOUS
10
311.874
20
-136.77
11
311.874
21
-137.77
0
LINE
8
BLACK
6
CONTINUOUS
10
106.98
20
-137.77
11
105.28
21
-137.77
0
LINE
8
BLACK
6
CONTINUOUS
10
105.28
20
-137.77
11
105.28
21
-136.77
0
LINE
8
BLACK
6
CONTINUOUS
10
105.28
20
-136.77
11
106.98
21
-136.77
0
LINE
8
BLACK
6
CONTINUOUS
10
106.98
20
-136.77
11
106.98
21
-137.77
0
LINE
8
BLACK
6
CONTINUOUS
10
113.28
20
-137.77
11
111.58
21
-137.77
0
LINE
8
BLACK
6
CONTINUOUS
10
111.58
20
-137.77
11
111.58
21
-136.77
0
LINE
8
BLACK
6
CONTINUOUS
10
111.58
20
-136.77
11
113.28
21
-136.77
0
LINE
8
BLACK
6
CONTINUOUS
10
113.28
20
-136.77
11
113.28
21
-137.77
0
LINE
8
BLACK
6
CONTINUOUS
10
305.574
20
-137.77
11
303.874
21
-137.77
0
LINE
8
BLACK
6
CONTINUOUS
10
303.874
20
-137.77
11
303.874
21
-136.77
0
LINE
8
BLACK
6
CONTINUOUS
10
303.874
20
-136.77
11
305.574
21
-136.77
0
LINE
8
BLACK
6
CONTINUOUS
10
305.574
20
-136.77
11
305.574
21
-137.77
0
LINE
8
BLACK
6
CONTINUOUS
10
101.145
20
-134.861
11
99.9454
21
-134.861
0
LINE
8
BLACK
6
CONTINUOUS
10
99.9454
20
-134.861
11
99.9454
21
-133.961
0
LINE
8
BLACK
6
CONTINUOUS
10
99.9454
20
-133.961
11
101.145
21
-133.961
0
LINE
8
BLACK
6
CONTINUOUS
10
101.145
20
-133.961
11
101.145
21
-134.861
0
LINE
8
BLACK
6
CONTINUOUS
10
322.035
20
-134.861
11
320.835
21
-134.861
0
LINE
8
BLACK
6
CONTINUOUS
10
320.835
20
-134.861
11
320.835
21
-133.961
0
LINE
8
BLACK
6
CONTINUOUS
10
320.835
20
-133.961
11
322.035
21
-133.961
0
LINE
8
BLACK
6
CONTINUOUS
10
322.035
20
-133.961
11
322.035
21
-134.861
0
LINE
8
BLACK
6
CONTINUOUS
10
96.3194
20
-134.861
11
95.1194
21
-134.861
0
LINE
8
BLACK
6
CONTINUOUS
10
95.1194
20
-134.861
11
95.1194
21
-133.961
0
LINE
8
BLACK
6
CONTINUOUS
10
95.1194
20
-133.961
11
96.3194
21
-133.961
0
LINE
8
BLACK
6
CONTINUOUS
10
96.3194
20
-133.961
11
96.3194
21
-134.861
0
LINE
8
BLACK
6
CONTINUOUS
10
103.558
20
-134.861
11
102.358
21
-134.861
0
LINE
8
BLACK
6
CONTINUOUS
10
102.358
20
-134.861
11
102.358
21
-133.961
0
LINE
8
BLACK
6
CONTINUOUS
10
102.358
20
-133.961
11
103.558
21
-133.961
0
LINE
8
BLACK
6
CONTINUOUS
10
103.558
20
-133.961
11
103.558
21
-134.861
0
LINE
8
BLACK
6
CONTINUOUS
10
324.448
20
-134.861
11
323.248
21
-134.861
0
LINE
8
BLACK
6
CONTINUOUS
10
323.248
20
-134.861
11
323.248
21
-133.961
0
LINE
8
BLACK
6
CONTINUOUS
10
323.248
20
-133.961
11
324.448
21
-133.961
0
LINE
8
BLACK
6
CONTINUOUS
10
324.448
20
-133.961
11
324.448
21
-134.861
0
LINE
8
BLACK
6
CONTINUOUS
10
319.622
20
-134.861
11
318.422
21
-134.861
0
LINE
8
BLACK
6
CONTINUOUS
10
318.422
20
-134.861
11
318.422
21
-133.961
0
LINE
8
BLACK
6
CONTINUOUS
10
318.422
20
-133.961
11
319.622
21
-133.961
0
LINE
8
BLACK
6
CONTINUOUS
10
319.622
20
-133.961
11
319.622
21
-134.861
0
LINE
8
BLACK
6
CONTINUOUS
10
98.7324
20
-134.861
11
97.5324
21
-134.861
0
LINE
8
BLACK
6
CONTINUOUS
10
97.5324
20
-134.861
11
97.5324
21
-133.961
0
LINE
8
BLACK
6
CONTINUOUS
10
97.5324
20
-133.961
11
98.7324
21
-133.961
0
LINE
8
BLACK
6
CONTINUOUS
10
98.7324
20
-133.961
11
98.7324
21
-134.861
0
LINE
8
BLACK
6
CONTINUOUS
10
314.796
20
-134.861
11
313.596
21
-134.861
0
LINE
8
BLACK
6
CONTINUOUS
10
313.596
20
-134.861
11
313.596
21
-133.961
0
LINE
8
BLACK
6
CONTINUOUS
10
313.596
20
-133.961
11
314.796
21
-133.961
0
LINE
8
BLACK
6
CONTINUOUS
10
314.796
20
-133.961
11
314.796
21
-134.861
0
LINE
8
BLACK
6
CONTINUOUS
10
93.9064
20
-134.861
11
92.7064
21
-134.861
0
LINE
8
BLACK
6
CONTINUOUS
10
92.7064
20
-134.861
11
92.7064
21
-133.961
0
LINE
8
BLACK
6
CONTINUOUS
10
92.7064
20
-133.961
11
93.9064
21
-133.961
0
LINE
8
BLACK
6
CONTINUOUS
10
93.9064
20
-133.961
11
93.9064
21
-134.861
0
LINE
8
BLACK
6
CONTINUOUS
10
317.209
20
-134.861
11
316.009
21
-134.861
0
LINE
8
BLACK
6
CONTINUOUS
10
316.009
20
-134.861
11
316.009
21
-133.961
0
LINE
8
BLACK
6
CONTINUOUS
10
316.009
20
-133.961
11
317.209
21
-133.961
0
LINE
8
BLACK
6
CONTINUOUS
10
317.209
20
-133.961
11
317.209
21
-134.861
0
LINE
8
BLACK
6
CONTINUOUS
10
106.98
20
-133.97
11
105.28
21
-133.97
0
LINE
8
BLACK
6
CONTINUOUS
10
105.28
20
-133.97
11
105.28
21
-132.97
0
LINE
8
BLACK
6
CONTINUOUS
10
105.28
20
-132.97
11
106.98
21
-132.97
0
LINE
8
BLACK
6
CONTINUOUS
10
106.98
20
-132.97
11
106.98
21
-133.97
0
LINE
8
BLACK
6
CONTINUOUS
10
113.28
20
-133.97
11
111.58
21
-133.97
0
LINE
8
BLACK
6
CONTINUOUS
10
111.58
20
-133.97
11
111.58
21
-132.97
0
LINE
8
BLACK
6
CONTINUOUS
10
111.58
20
-132.97
11
113.28
21
-132.97
0
LINE
8
BLACK
6
CONTINUOUS
10
113.28
20
-132.97
11
113.28
21
-133.97
0
LINE
8
BLACK
6
CONTINUOUS
10
305.574
20
-133.97
11
303.874
21
-133.97
0
LINE
8
BLACK
6
CONTINUOUS
10
303.874
20
-133.97
11
303.874
21
-132.97
0
LINE
8
BLACK
6
CONTINUOUS
10
303.874
20
-132.97
11
305.574
21
-132.97
0
LINE
8
BLACK
6
CONTINUOUS
10
305.574
20
-132.97
11
305.574
21
-133.97
0
LINE
8
BLACK
6
CONTINUOUS
10
311.874
20
-133.97
11
310.174
21
-133.97
0
LINE
8
BLACK
6
CONTINUOUS
10
310.174
20
-133.97
11
310.174
21
-132.97
0
LINE
8
BLACK
6
CONTINUOUS
10
310.174
20
-132.97
11
311.874
21
-132.97
0
LINE
8
BLACK
6
CONTINUOUS
10
311.874
20
-132.97
11
311.874
21
-133.97
0
LINE
8
BLACK
6
CONTINUOUS
10
245.04
20
-130.446
11
243.84
21
-130.446
0
LINE
8
BLACK
6
CONTINUOUS
10
243.84
20
-130.446
11
243.84
21
-129.546
0
LINE
8
BLACK
6
CONTINUOUS
10
243.84
20
-129.546
11
245.04
21
-129.546
0
LINE
8
BLACK
6
CONTINUOUS
10
245.04
20
-129.546
11
245.04
21
-130.446
0
LINE
8
BLACK
6
CONTINUOUS
10
225.99
20
-130.446
11
224.79
21
-130.446
0
LINE
8
BLACK
6
CONTINUOUS
10
224.79
20
-130.446
11
224.79
21
-129.546
0
LINE
8
BLACK
6
CONTINUOUS
10
224.79
20
-129.546
11
225.99
21
-129.546
0
LINE
8
BLACK
6
CONTINUOUS
10
225.99
20
-129.546
11
225.99
21
-130.446
0
LINE
8
BLACK
6
CONTINUOUS
10
206.81
20
-130.446
11
205.61
21
-130.446
0
LINE
8
BLACK
6
CONTINUOUS
10
205.61
20
-130.446
11
205.61
21
-129.546
0
LINE
8
BLACK
6
CONTINUOUS
10
205.61
20
-129.546
11
206.81
21
-129.546
0
LINE
8
BLACK
6
CONTINUOUS
10
206.81
20
-129.546
11
206.81
21
-130.446
0
LINE
8
BLACK
6
CONTINUOUS
10
187.76
20
-130.446
11
186.56
21
-130.446
0
LINE
8
BLACK
6
CONTINUOUS
10
186.56
20
-130.446
11
186.56
21
-129.546
0
LINE
8
BLACK
6
CONTINUOUS
10
186.56
20
-129.546
11
187.76
21
-129.546
0
LINE
8
BLACK
6
CONTINUOUS
10
187.76
20
-129.546
11
187.76
21
-130.446
0
LINE
8
BLACK
6
CONTINUOUS
10
245.04
20
-127.146
11
243.84
21
-127.146
0
LINE
8
BLACK
6
CONTINUOUS
10
243.84
20
-127.146
11
243.84
21
-126.246
0
LINE
8
BLACK
6
CONTINUOUS
10
243.84
20
-126.246
11
245.04
21
-126.246
0
LINE
8
BLACK
6
CONTINUOUS
10
245.04
20
-126.246
11
245.04
21
-127.146
0
LINE
8
BLACK
6
CONTINUOUS
10
206.81
20
-127.146
11
205.61
21
-127.146
0
LINE
8
BLACK
6
CONTINUOUS
10
205.61
20
-127.146
11
205.61
21
-126.246
0
LINE
8
BLACK
6
CONTINUOUS
10
205.61
20
-126.246
11
206.81
21
-126.246
0
LINE
8
BLACK
6
CONTINUOUS
10
206.81
20
-126.246
11
206.81
21
-127.146
0
LINE
8
BLACK
6
CONTINUOUS
10
187.76
20
-127.146
11
186.56
21
-127.146
0
LINE
8
BLACK
6
CONTINUOUS
10
186.56
20
-127.146
11
186.56
21
-126.246
0
LINE
8
BLACK
6
CONTINUOUS
10
186.56
20
-126.246
11
187.76
21
-126.246
0
LINE
8
BLACK
6
CONTINUOUS
10
187.76
20
-126.246
11
187.76
21
-127.146
0
LINE
8
BLACK
6
CONTINUOUS
10
225.99
20
-127.146
11
224.79
21
-127.146
0
LINE
8
BLACK
6
CONTINUOUS
10
224.79
20
-127.146
11
224.79
21
-126.246
0
LINE
8
BLACK
6
CONTINUOUS
10
224.79
20
-126.246
11
225.99
21
-126.246
0
LINE
8
BLACK
6
CONTINUOUS
10
225.99
20
-126.246
11
225.99
21
-127.146
0
LINE
8
BLACK
6
CONTINUOUS
10
212.437
20
-127.056
11
209.887
21
-127.056
0
LINE
8
BLACK
6
CONTINUOUS
10
209.887
20
-127.056
11
209.887
21
-124.556
0
LINE
8
BLACK
6
CONTINUOUS
10
209.887
20
-124.556
11
212.437
21
-124.556
0
LINE
8
BLACK
6
CONTINUOUS
10
212.437
20
-124.556
11
212.437
21
-127.056
0
LINE
8
BLACK
6
CONTINUOUS
10
193.097
20
-127.056
11
190.547
21
-127.056
0
LINE
8
BLACK
6
CONTINUOUS
10
190.547
20
-127.056
11
190.547
21
-124.556
0
LINE
8
BLACK
6
CONTINUOUS
10
190.547
20
-124.556
11
193.097
21
-124.556
0
LINE
8
BLACK
6
CONTINUOUS
10
193.097
20
-124.556
11
193.097
21
-127.056
0
LINE
8
BLACK
6
CONTINUOUS
10
174.047
20
-127.056
11
171.497
21
-127.056
0
LINE
8
BLACK
6
CONTINUOUS
10
171.497
20
-127.056
11
171.497
21
-124.556
0
LINE
8
BLACK
6
CONTINUOUS
10
171.497
20
-124.556
11
174.047
21
-124.556
0
LINE
8
BLACK
6
CONTINUOUS
10
174.047
20
-124.556
11
174.047
21
-127.056
0
LINE
8
BLACK
6
CONTINUOUS
10
231.487
20
-127.056
11
228.937
21
-127.056
0
LINE
8
BLACK
6
CONTINUOUS
10
228.937
20
-127.056
11
228.937
21
-124.556
0
LINE
8
BLACK
6
CONTINUOUS
10
228.937
20
-124.556
11
231.487
21
-124.556
0
LINE
8
BLACK
6
CONTINUOUS
10
231.487
20
-124.556
11
231.487
21
-127.056
0
LINE
8
BLACK
6
CONTINUOUS
10
321.24
20
-126.636
11
320.04
21
-126.636
0
LINE
8
BLACK
6
CONTINUOUS
10
320.04
20
-126.636
11
320.04
21
-125.736
0
LINE
8
BLACK
6
CONTINUOUS
10
320.04
20
-125.736
11
321.24
21
-125.736
0
LINE
8
BLACK
6
CONTINUOUS
10
321.24
20
-125.736
11
321.24
21
-126.636
0
LINE
8
BLACK
6
CONTINUOUS
10
111.401
20
-126.636
11
110.201
21
-126.636
0
LINE
8
BLACK
6
CONTINUOUS
10
110.201
20
-126.636
11
110.201
21
-125.736
0
LINE
8
BLACK
6
CONTINUOUS
10
110.201
20
-125.736
11
111.401
21
-125.736
0
LINE
8
BLACK
6
CONTINUOUS
10
111.401
20
-125.736
11
111.401
21
-126.636
0
LINE
8
BLACK
6
CONTINUOUS
10
168.71
20
-125.366
11
167.51
21
-125.366
0
LINE
8
BLACK
6
CONTINUOUS
10
167.51
20
-125.366
11
167.51
21
-124.466
0
LINE
8
BLACK
6
CONTINUOUS
10
167.51
20
-124.466
11
168.71
21
-124.466
0
LINE
8
BLACK
6
CONTINUOUS
10
168.71
20
-124.466
11
168.71
21
-125.366
0
LINE
8
BLACK
6
CONTINUOUS
10
264.09
20
-125.366
11
262.89
21
-125.366
0
LINE
8
BLACK
6
CONTINUOUS
10
262.89
20
-125.366
11
262.89
21
-124.466
0
LINE
8
BLACK
6
CONTINUOUS
10
262.89
20
-124.466
11
264.09
21
-124.466
0
LINE
8
BLACK
6
CONTINUOUS
10
264.09
20
-124.466
11
264.09
21
-125.366
0
LINE
8
BLACK
6
CONTINUOUS
10
302.19
20
-124.731
11
300.99
21
-124.731
0
LINE
8
BLACK
6
CONTINUOUS
10
300.99
20
-124.731
11
300.99
21
-123.831
0
LINE
8
BLACK
6
CONTINUOUS
10
300.99
20
-123.831
11
302.19
21
-123.831
0
LINE
8
BLACK
6
CONTINUOUS
10
302.19
20
-123.831
11
302.19
21
-124.731
0
LINE
8
BLACK
6
CONTINUOUS
10
130.61
20
-124.731
11
129.41
21
-124.731
0
LINE
8
BLACK
6
CONTINUOUS
10
129.41
20
-124.731
11
129.41
21
-123.831
0
LINE
8
BLACK
6
CONTINUOUS
10
129.41
20
-123.831
11
130.61
21
-123.831
0
LINE
8
BLACK
6
CONTINUOUS
10
130.61
20
-123.831
11
130.61
21
-124.731
0
LINE
8
BLACK
6
CONTINUOUS
10
225.364
20
-124.516
11
222.814
21
-124.516
0
LINE
8
BLACK
6
CONTINUOUS
10
222.814
20
-124.516
11
222.814
21
-122.016
0
LINE
8
BLACK
6
CONTINUOUS
10
222.814
20
-122.016
11
225.364
21
-122.016
0
LINE
8
BLACK
6
CONTINUOUS
10
225.364
20
-122.016
11
225.364
21
-124.516
0
LINE
8
BLACK
6
CONTINUOUS
10
186.974
20
-124.516
11
184.424
21
-124.516
0
LINE
8
BLACK
6
CONTINUOUS
10
184.424
20
-124.516
11
184.424
21
-122.016
0
LINE
8
BLACK
6
CONTINUOUS
10
184.424
20
-122.016
11
186.974
21
-122.016
0
LINE
8
BLACK
6
CONTINUOUS
10
186.974
20
-122.016
11
186.974
21
-124.516
0
LINE
8
BLACK
6
CONTINUOUS
10
206.024
20
-124.516
11
203.474
21
-124.516
0
LINE
8
BLACK
6
CONTINUOUS
10
203.474
20
-124.516
11
203.474
21
-122.016
0
LINE
8
BLACK
6
CONTINUOUS
10
203.474
20
-122.016
11
206.024
21
-122.016
0
LINE
8
BLACK
6
CONTINUOUS
10
206.024
20
-122.016
11
206.024
21
-124.516
0
LINE
8
BLACK
6
CONTINUOUS
10
244.414
20
-124.516
11
241.864
21
-124.516
0
LINE
8
BLACK
6
CONTINUOUS
10
241.864
20
-124.516
11
241.864
21
-122.016
0
LINE
8
BLACK
6
CONTINUOUS
10
241.864
20
-122.016
11
244.414
21
-122.016
0
LINE
8
BLACK
6
CONTINUOUS
10
244.414
20
-122.016
11
244.414
21
-124.516
0
LINE
8
BLACK
6
CONTINUOUS
10
321.24
20
-123.336
11
320.04
21
-123.336
0
LINE
8
BLACK
6
CONTINUOUS
10
320.04
20
-123.336
11
320.04
21
-122.436
0
LINE
8
BLACK
6
CONTINUOUS
10
320.04
20
-122.436
11
321.24
21
-122.436
0
LINE
8
BLACK
6
CONTINUOUS
10
321.24
20
-122.436
11
321.24
21
-123.336
0
LINE
8
BLACK
6
CONTINUOUS
10
111.401
20
-123.336
11
110.201
21
-123.336
0
LINE
8
BLACK
6
CONTINUOUS
10
110.201
20
-123.336
11
110.201
21
-122.436
0
LINE
8
BLACK
6
CONTINUOUS
10
110.201
20
-122.436
11
111.401
21
-122.436
0
LINE
8
BLACK
6
CONTINUOUS
10
111.401
20
-122.436
11
111.401
21
-123.336
0
LINE
8
BLACK
6
CONTINUOUS
10
307.687
20
-123.246
11
305.137
21
-123.246
0
LINE
8
BLACK
6
CONTINUOUS
10
305.137
20
-123.246
11
305.137
21
-120.746
0
LINE
8
BLACK
6
CONTINUOUS
10
305.137
20
-120.746
11
307.687
21
-120.746
0
LINE
8
BLACK
6
CONTINUOUS
10
307.687
20
-120.746
11
307.687
21
-123.246
0
LINE
8
BLACK
6
CONTINUOUS
10
97.8474
20
-123.246
11
95.2974
21
-123.246
0
LINE
8
BLACK
6
CONTINUOUS
10
95.2974
20
-123.246
11
95.2974
21
-120.746
0
LINE
8
BLACK
6
CONTINUOUS
10
95.2974
20
-120.746
11
97.8474
21
-120.746
0
LINE
8
BLACK
6
CONTINUOUS
10
97.8474
20
-120.746
11
97.8474
21
-123.246
0
LINE
8
BLACK
6
CONTINUOUS
10
149.501
20
-122.826
11
148.301
21
-122.826
0
LINE
8
BLACK
6
CONTINUOUS
10
148.301
20
-122.826
11
148.301
21
-121.926
0
LINE
8
BLACK
6
CONTINUOUS
10
148.301
20
-121.926
11
149.501
21
-121.926
0
LINE
8
BLACK
6
CONTINUOUS
10
149.501
20
-121.926
11
149.501
21
-122.826
0
LINE
8
BLACK
6
CONTINUOUS
10
282.982
20
-122.826
11
281.782
21
-122.826
0
LINE
8
BLACK
6
CONTINUOUS
10
281.782
20
-122.826
11
281.782
21
-121.926
0
LINE
8
BLACK
6
CONTINUOUS
10
281.782
20
-121.926
11
282.982
21
-121.926
0
LINE
8
BLACK
6
CONTINUOUS
10
282.982
20
-121.926
11
282.982
21
-122.826
0
LINE
8
BLACK
6
CONTINUOUS
10
264.09
20
-122.066
11
262.89
21
-122.066
0
LINE
8
BLACK
6
CONTINUOUS
10
262.89
20
-122.066
11
262.89
21
-121.166
0
LINE
8
BLACK
6
CONTINUOUS
10
262.89
20
-121.166
11
264.09
21
-121.166
0
LINE
8
BLACK
6
CONTINUOUS
10
264.09
20
-121.166
11
264.09
21
-122.066
0
LINE
8
BLACK
6
CONTINUOUS
10
168.71
20
-122.066
11
167.51
21
-122.066
0
LINE
8
BLACK
6
CONTINUOUS
10
167.51
20
-122.066
11
167.51
21
-121.166
0
LINE
8
BLACK
6
CONTINUOUS
10
167.51
20
-121.166
11
168.71
21
-121.166
0
LINE
8
BLACK
6
CONTINUOUS
10
168.71
20
-121.166
11
168.71
21
-122.066
0
LINE
8
BLACK
6
CONTINUOUS
10
154.997
20
-121.976
11
152.447
21
-121.976
0
LINE
8
BLACK
6
CONTINUOUS
10
152.447
20
-121.976
11
152.447
21
-119.476
0
LINE
8
BLACK
6
CONTINUOUS
10
152.447
20
-119.476
11
154.997
21
-119.476
0
LINE
8
BLACK
6
CONTINUOUS
10
154.997
20
-119.476
11
154.997
21
-121.976
0
LINE
8
BLACK
6
CONTINUOUS
10
250.537
20
-121.976
11
247.987
21
-121.976
0
LINE
8
BLACK
6
CONTINUOUS
10
247.987
20
-121.976
11
247.987
21
-119.476
0
LINE
8
BLACK
6
CONTINUOUS
10
247.987
20
-119.476
11
250.537
21
-119.476
0
LINE
8
BLACK
6
CONTINUOUS
10
250.537
20
-119.476
11
250.537
21
-121.976
0
LINE
8
BLACK
6
CONTINUOUS
10
302.19
20
-121.431
11
300.99
21
-121.431
0
LINE
8
BLACK
6
CONTINUOUS
10
300.99
20
-121.431
11
300.99
21
-120.531
0
LINE
8
BLACK
6
CONTINUOUS
10
300.99
20
-120.531
11
302.19
21
-120.531
0
LINE
8
BLACK
6
CONTINUOUS
10
302.19
20
-120.531
11
302.19
21
-121.431
0
LINE
8
BLACK
6
CONTINUOUS
10
130.61
20
-121.431
11
129.41
21
-121.431
0
LINE
8
BLACK
6
CONTINUOUS
10
129.41
20
-121.431
11
129.41
21
-120.531
0
LINE
8
BLACK
6
CONTINUOUS
10
129.41
20
-120.531
11
130.61
21
-120.531
0
LINE
8
BLACK
6
CONTINUOUS
10
130.61
20
-120.531
11
130.61
21
-121.431
0
LINE
8
BLACK
6
CONTINUOUS
10
288.637
20
-121.341
11
286.087
21
-121.341
0
LINE
8
BLACK
6
CONTINUOUS
10
286.087
20
-121.341
11
286.087
21
-118.841
0
LINE
8
BLACK
6
CONTINUOUS
10
286.087
20
-118.841
11
288.637
21
-118.841
0
LINE
8
BLACK
6
CONTINUOUS
10
288.637
20
-118.841
11
288.637
21
-121.341
0
LINE
8
BLACK
6
CONTINUOUS
10
116.897
20
-121.341
11
114.347
21
-121.341
0
LINE
8
BLACK
6
CONTINUOUS
10
114.347
20
-121.341
11
114.347
21
-118.841
0
LINE
8
BLACK
6
CONTINUOUS
10
114.347
20
-118.841
11
116.897
21
-118.841
0
LINE
8
BLACK
6
CONTINUOUS
10
116.897
20
-118.841
11
116.897
21
-121.341
0
LINE
8
BLACK
6
CONTINUOUS
10
110.774
20
-120.706
11
108.224
21
-120.706
0
LINE
8
BLACK
6
CONTINUOUS
10
108.224
20
-120.706
11
108.224
21
-118.206
0
LINE
8
BLACK
6
CONTINUOUS
10
108.224
20
-118.206
11
110.774
21
-118.206
0
LINE
8
BLACK
6
CONTINUOUS
10
110.774
20
-118.206
11
110.774
21
-120.706
0
LINE
8
BLACK
6
CONTINUOUS
10
320.614
20
-120.706
11
318.064
21
-120.706
0
LINE
8
BLACK
6
CONTINUOUS
10
318.064
20
-120.706
11
318.064
21
-118.206
0
LINE
8
BLACK
6
CONTINUOUS
10
318.064
20
-118.206
11
320.614
21
-118.206
0
LINE
8
BLACK
6
CONTINUOUS
10
320.614
20
-118.206
11
320.614
21
-120.706
0
LINE
8
BLACK
6
CONTINUOUS
10
282.982
20
-119.526
11
281.782
21
-119.526
0
LINE
8
BLACK
6
CONTINUOUS
10
281.782
20
-119.526
11
281.782
21
-118.626
0
LINE
8
BLACK
6
CONTINUOUS
10
281.782
20
-118.626
11
282.982
21
-118.626
0
LINE
8
BLACK
6
CONTINUOUS
10
282.982
20
-118.626
11
282.982
21
-119.526
0
LINE
8
BLACK
6
CONTINUOUS
10
149.501
20
-119.526
11
148.301
21
-119.526
0
LINE
8
BLACK
6
CONTINUOUS
10
148.301
20
-119.526
11
148.301
21
-118.626
0
LINE
8
BLACK
6
CONTINUOUS
10
148.301
20
-118.626
11
149.501
21
-118.626
0
LINE
8
BLACK
6
CONTINUOUS
10
149.501
20
-118.626
11
149.501
21
-119.526
0
LINE
8
BLACK
6
CONTINUOUS
10
135.947
20
-119.436
11
133.397
21
-119.436
0
LINE
8
BLACK
6
CONTINUOUS
10
133.397
20
-119.436
11
133.397
21
-116.936
0
LINE
8
BLACK
6
CONTINUOUS
10
133.397
20
-116.936
11
135.947
21
-116.936
0
LINE
8
BLACK
6
CONTINUOUS
10
135.947
20
-116.936
11
135.947
21
-119.436
0
LINE
8
BLACK
6
CONTINUOUS
10
167.924
20
-119.436
11
165.374
21
-119.436
0
LINE
8
BLACK
6
CONTINUOUS
10
165.374
20
-119.436
11
165.374
21
-116.936
0
LINE
8
BLACK
6
CONTINUOUS
10
165.374
20
-116.936
11
167.924
21
-116.936
0
LINE
8
BLACK
6
CONTINUOUS
10
167.924
20
-116.936
11
167.924
21
-119.436
0
LINE
8
BLACK
6
CONTINUOUS
10
269.587
20
-119.436
11
267.037
21
-119.436
0
LINE
8
BLACK
6
CONTINUOUS
10
267.037
20
-119.436
11
267.037
21
-116.936
0
LINE
8
BLACK
6
CONTINUOUS
10
267.037
20
-116.936
11
269.587
21
-116.936
0
LINE
8
BLACK
6
CONTINUOUS
10
269.587
20
-116.936
11
269.587
21
-119.436
0
LINE
8
BLACK
6
CONTINUOUS
10
263.464
20
-119.436
11
260.914
21
-119.436
0
LINE
8
BLACK
6
CONTINUOUS
10
260.914
20
-119.436
11
260.914
21
-116.936
0
LINE
8
BLACK
6
CONTINUOUS
10
260.914
20
-116.936
11
263.464
21
-116.936
0
LINE
8
BLACK
6
CONTINUOUS
10
263.464
20
-116.936
11
263.464
21
-119.436
0
LINE
8
BLACK
6
CONTINUOUS
10
301.564
20
-118.801
11
299.014
21
-118.801
0
LINE
8
BLACK
6
CONTINUOUS
10
299.014
20
-118.801
11
299.014
21
-116.301
0
LINE
8
BLACK
6
CONTINUOUS
10
299.014
20
-116.301
11
301.564
21
-116.301
0
LINE
8
BLACK
6
CONTINUOUS
10
301.564
20
-116.301
11
301.564
21
-118.801
0
LINE
8
BLACK
6
CONTINUOUS
10
129.824
20
-118.801
11
127.274
21
-118.801
0
LINE
8
BLACK
6
CONTINUOUS
10
127.274
20
-118.801
11
127.274
21
-116.301
0
LINE
8
BLACK
6
CONTINUOUS
10
127.274
20
-116.301
11
129.824
21
-116.301
0
LINE
8
BLACK
6
CONTINUOUS
10
129.824
20
-116.301
11
129.824
21
-118.801
0
LINE
8
BLACK
6
CONTINUOUS
10
148.874
20
-116.896
11
146.324
21
-116.896
0
LINE
8
BLACK
6
CONTINUOUS
10
146.324
20
-116.896
11
146.324
21
-114.396
0
LINE
8
BLACK
6
CONTINUOUS
10
146.324
20
-114.396
11
148.874
21
-114.396
0
LINE
8
BLACK
6
CONTINUOUS
10
148.874
20
-114.396
11
148.874
21
-116.896
0
LINE
8
BLACK
6
CONTINUOUS
10
282.514
20
-116.896
11
279.964
21
-116.896
0
LINE
8
BLACK
6
CONTINUOUS
10
279.964
20
-116.896
11
279.964
21
-114.396
0
LINE
8
BLACK
6
CONTINUOUS
10
279.964
20
-114.396
11
282.514
21
-114.396
0
LINE
8
BLACK
6
CONTINUOUS
10
282.514
20
-114.396
11
282.514
21
-116.896
0
LINE
8
BLACK
6
CONTINUOUS
10
76.8276
20
-116.798
11
75.4276
21
-116.798
0
LINE
8
BLACK
6
CONTINUOUS
10
75.4276
20
-116.798
11
75.4276
21
-115.998
0
LINE
8
BLACK
6
CONTINUOUS
10
75.4276
20
-115.998
11
76.8276
21
-115.998
0
LINE
8
BLACK
6
CONTINUOUS
10
76.8276
20
-115.998
11
76.8276
21
-116.798
0
LINE
8
BLACK
6
CONTINUOUS
10
341.722
20
-116.798
11
340.322
21
-116.798
0
LINE
8
BLACK
6
CONTINUOUS
10
340.322
20
-116.798
11
340.322
21
-115.998
0
LINE
8
BLACK
6
CONTINUOUS
10
340.322
20
-115.998
11
341.722
21
-115.998
0
LINE
8
BLACK
6
CONTINUOUS
10
341.722
20
-115.998
11
341.722
21
-116.798
0
LINE
8
BLACK
6
CONTINUOUS
10
76.8276
20
-115.568
11
75.4276
21
-115.568
0
LINE
8
BLACK
6
CONTINUOUS
10
75.4276
20
-115.568
11
75.4276
21
-114.768
0
LINE
8
BLACK
6
CONTINUOUS
10
75.4276
20
-114.768
11
76.8276
21
-114.768
0
LINE
8
BLACK
6
CONTINUOUS
10
76.8276
20
-114.768
11
76.8276
21
-115.568
0
LINE
8
BLACK
6
CONTINUOUS
10
341.722
20
-115.568
11
340.322
21
-115.568
0
LINE
8
BLACK
6
CONTINUOUS
10
340.322
20
-115.568
11
340.322
21
-114.768
0
LINE
8
BLACK
6
CONTINUOUS
10
340.322
20
-114.768
11
341.722
21
-114.768
0
LINE
8
BLACK
6
CONTINUOUS
10
341.722
20
-114.768
11
341.722
21
-115.568
0
LINE
8
BLACK
6
CONTINUOUS
10
76.8276
20
-114.548
11
75.4276
21
-114.548
0
LINE
8
BLACK
6
CONTINUOUS
10
75.4276
20
-114.548
11
75.4276
21
-113.748
0
LINE
8
BLACK
6
CONTINUOUS
10
75.4276
20
-113.748
11
76.8276
21
-113.748
0
LINE
8
BLACK
6
CONTINUOUS
10
76.8276
20
-113.748
11
76.8276
21
-114.548
0
LINE
8
BLACK
6
CONTINUOUS
10
341.722
20
-114.548
11
340.322
21
-114.548
0
LINE
8
BLACK
6
CONTINUOUS
10
340.322
20
-114.548
11
340.322
21
-113.748
0
LINE
8
BLACK
6
CONTINUOUS
10
340.322
20
-113.748
11
341.722
21
-113.748
0
LINE
8
BLACK
6
CONTINUOUS
10
341.722
20
-113.748
11
341.722
21
-114.548
0
LINE
8
BLACK
6
CONTINUOUS
10
76.8276
20
-113.548
11
75.4276
21
-113.548
0
LINE
8
BLACK
6
CONTINUOUS
10
75.4276
20
-113.548
11
75.4276
21
-112.748
0
LINE
8
BLACK
6
CONTINUOUS
10
75.4276
20
-112.748
11
76.8276
21
-112.748
0
LINE
8
BLACK
6
CONTINUOUS
10
76.8276
20
-112.748
11
76.8276
21
-113.548
0
LINE
8
BLACK
6
CONTINUOUS
10
341.722
20
-113.548
11
340.322
21
-113.548
0
LINE
8
BLACK
6
CONTINUOUS
10
340.322
20
-113.548
11
340.322
21
-112.748
0
LINE
8
BLACK
6
CONTINUOUS
10
340.322
20
-112.748
11
341.722
21
-112.748
0
LINE
8
BLACK
6
CONTINUOUS
10
341.722
20
-112.748
11
341.722
21
-113.548
0
LINE
8
BLACK
6
CONTINUOUS
10
341.722
20
-112.528
11
340.322
21
-112.528
0
LINE
8
BLACK
6
CONTINUOUS
10
340.322
20
-112.528
11
340.322
21
-111.728
0
LINE
8
BLACK
6
CONTINUOUS
10
340.322
20
-111.728
11
341.722
21
-111.728
0
LINE
8
BLACK
6
CONTINUOUS
10
341.722
20
-111.728
11
341.722
21
-112.528
0
LINE
8
BLACK
6
CONTINUOUS
10
76.8276
20
-112.528
11
75.4276
21
-112.528
0
LINE
8
BLACK
6
CONTINUOUS
10
75.4276
20
-112.528
11
75.4276
21
-111.728
0
LINE
8
BLACK
6
CONTINUOUS
10
75.4276
20
-111.728
11
76.8276
21
-111.728
0
LINE
8
BLACK
6
CONTINUOUS
10
76.8276
20
-111.728
11
76.8276
21
-112.528
0
LINE
8
BLACK
6
CONTINUOUS
10
187.76
20
-111.396
11
186.56
21
-111.396
0
LINE
8
BLACK
6
CONTINUOUS
10
186.56
20
-111.396
11
186.56
21
-110.496
0
LINE
8
BLACK
6
CONTINUOUS
10
186.56
20
-110.496
11
187.76
21
-110.496
0
LINE
8
BLACK
6
CONTINUOUS
10
187.76
20
-110.496
11
187.76
21
-111.396
0
LINE
8
BLACK
6
CONTINUOUS
10
245.04
20
-111.396
11
243.84
21
-111.396
0
LINE
8
BLACK
6
CONTINUOUS
10
243.84
20
-111.396
11
243.84
21
-110.496
0
LINE
8
BLACK
6
CONTINUOUS
10
243.84
20
-110.496
11
245.04
21
-110.496
0
LINE
8
BLACK
6
CONTINUOUS
10
245.04
20
-110.496
11
245.04
21
-111.396
0
LINE
8
BLACK
6
CONTINUOUS
10
206.81
20
-111.396
11
205.61
21
-111.396
0
LINE
8
BLACK
6
CONTINUOUS
10
205.61
20
-111.396
11
205.61
21
-110.496
0
LINE
8
BLACK
6
CONTINUOUS
10
205.61
20
-110.496
11
206.81
21
-110.496
0
LINE
8
BLACK
6
CONTINUOUS
10
206.81
20
-110.496
11
206.81
21
-111.396
0
LINE
8
BLACK
6
CONTINUOUS
10
225.99
20
-111.396
11
224.79
21
-111.396
0
LINE
8
BLACK
6
CONTINUOUS
10
224.79
20
-111.396
11
224.79
21
-110.496
0
LINE
8
BLACK
6
CONTINUOUS
10
224.79
20
-110.496
11
225.99
21
-110.496
0
LINE
8
BLACK
6
CONTINUOUS
10
225.99
20
-110.496
11
225.99
21
-111.396
0
LINE
8
BLACK
6
CONTINUOUS
10
341.722
20
-111.298
11
340.322
21
-111.298
0
LINE
8
BLACK
6
CONTINUOUS
10
340.322
20
-111.298
11
340.322
21
-110.498
0
LINE
8
BLACK
6
CONTINUOUS
10
340.322
20
-110.498
11
341.722
21
-110.498
0
LINE
8
BLACK
6
CONTINUOUS
10
341.722
20
-110.498
11
341.722
21
-111.298
0
LINE
8
BLACK
6
CONTINUOUS
10
76.8276
20
-111.298
11
75.4276
21
-111.298
0
LINE
8
BLACK
6
CONTINUOUS
10
75.4276
20
-111.298
11
75.4276
21
-110.498
0
LINE
8
BLACK
6
CONTINUOUS
10
75.4276
20
-110.498
11
76.8276
21
-110.498
0
LINE
8
BLACK
6
CONTINUOUS
10
76.8276
20
-110.498
11
76.8276
21
-111.298
0
LINE
8
BLACK
6
CONTINUOUS
10
187.76
20
-108.096
11
186.56
21
-108.096
0
LINE
8
BLACK
6
CONTINUOUS
10
186.56
20
-108.096
11
186.56
21
-107.196
0
LINE
8
BLACK
6
CONTINUOUS
10
186.56
20
-107.196
11
187.76
21
-107.196
0
LINE
8
BLACK
6
CONTINUOUS
10
187.76
20
-107.196
11
187.76
21
-108.096
0
LINE
8
BLACK
6
CONTINUOUS
10
245.04
20
-108.096
11
243.84
21
-108.096
0
LINE
8
BLACK
6
CONTINUOUS
10
243.84
20
-108.096
11
243.84
21
-107.196
0
LINE
8
BLACK
6
CONTINUOUS
10
243.84
20
-107.196
11
245.04
21
-107.196
0
LINE
8
BLACK
6
CONTINUOUS
10
245.04
20
-107.196
11
245.04
21
-108.096
0
LINE
8
BLACK
6
CONTINUOUS
10
206.81
20
-108.096
11
205.61
21
-108.096
0
LINE
8
BLACK
6
CONTINUOUS
10
205.61
20
-108.096
11
205.61
21
-107.196
0
LINE
8
BLACK
6
CONTINUOUS
10
205.61
20
-107.196
11
206.81
21
-107.196
0
LINE
8
BLACK
6
CONTINUOUS
10
206.81
20
-107.196
11
206.81
21
-108.096
0
LINE
8
BLACK
6
CONTINUOUS
10
225.99
20
-108.096
11
224.79
21
-108.096
0
LINE
8
BLACK
6
CONTINUOUS
10
224.79
20
-108.096
11
224.79
21
-107.196
0
LINE
8
BLACK
6
CONTINUOUS
10
224.79
20
-107.196
11
225.99
21
-107.196
0
LINE
8
BLACK
6
CONTINUOUS
10
225.99
20
-107.196
11
225.99
21
-108.096
0
LINE
8
BLACK
6
CONTINUOUS
10
174.047
20
-108.006
11
171.497
21
-108.006
0
LINE
8
BLACK
6
CONTINUOUS
10
171.497
20
-108.006
11
171.497
21
-105.506
0
LINE
8
BLACK
6
CONTINUOUS
10
171.497
20
-105.506
11
174.047
21
-105.506
0
LINE
8
BLACK
6
CONTINUOUS
10
174.047
20
-105.506
11
174.047
21
-108.006
0
LINE
8
BLACK
6
CONTINUOUS
10
231.487
20
-108.006
11
228.937
21
-108.006
0
LINE
8
BLACK
6
CONTINUOUS
10
228.937
20
-108.006
11
228.937
21
-105.506
0
LINE
8
BLACK
6
CONTINUOUS
10
228.937
20
-105.506
11
231.487
21
-105.506
0
LINE
8
BLACK
6
CONTINUOUS
10
231.487
20
-105.506
11
231.487
21
-108.006
0
LINE
8
BLACK
6
CONTINUOUS
10
193.097
20
-108.006
11
190.547
21
-108.006
0
LINE
8
BLACK
6
CONTINUOUS
10
190.547
20
-108.006
11
190.547
21
-105.506
0
LINE
8
BLACK
6
CONTINUOUS
10
190.547
20
-105.506
11
193.097
21
-105.506
0
LINE
8
BLACK
6
CONTINUOUS
10
193.097
20
-105.506
11
193.097
21
-108.006
0
LINE
8
BLACK
6
CONTINUOUS
10
212.437
20
-108.006
11
209.887
21
-108.006
0
LINE
8
BLACK
6
CONTINUOUS
10
209.887
20
-108.006
11
209.887
21
-105.506
0
LINE
8
BLACK
6
CONTINUOUS
10
209.887
20
-105.506
11
212.437
21
-105.506
0
LINE
8
BLACK
6
CONTINUOUS
10
212.437
20
-105.506
11
212.437
21
-108.006
0
LINE
8
BLACK
6
CONTINUOUS
10
321.24
20
-107.586
11
320.04
21
-107.586
0
LINE
8
BLACK
6
CONTINUOUS
10
320.04
20
-107.586
11
320.04
21
-106.686
0
LINE
8
BLACK
6
CONTINUOUS
10
320.04
20
-106.686
11
321.24
21
-106.686
0
LINE
8
BLACK
6
CONTINUOUS
10
321.24
20
-106.686
11
321.24
21
-107.586
0
LINE
8
BLACK
6
CONTINUOUS
10
111.401
20
-107.586
11
110.201
21
-107.586
0
LINE
8
BLACK
6
CONTINUOUS
10
110.201
20
-107.586
11
110.201
21
-106.686
0
LINE
8
BLACK
6
CONTINUOUS
10
110.201
20
-106.686
11
111.401
21
-106.686
0
LINE
8
BLACK
6
CONTINUOUS
10
111.401
20
-106.686
11
111.401
21
-107.586
0
LINE
8
BLACK
6
CONTINUOUS
10
168.71
20
-106.316
11
167.51
21
-106.316
0
LINE
8
BLACK
6
CONTINUOUS
10
167.51
20
-106.316
11
167.51
21
-105.416
0
LINE
8
BLACK
6
CONTINUOUS
10
167.51
20
-105.416
11
168.71
21
-105.416
0
LINE
8
BLACK
6
CONTINUOUS
10
168.71
20
-105.416
11
168.71
21
-106.316
0
LINE
8
BLACK
6
CONTINUOUS
10
264.09
20
-106.316
11
262.89
21
-106.316
0
LINE
8
BLACK
6
CONTINUOUS
10
262.89
20
-106.316
11
262.89
21
-105.416
0
LINE
8
BLACK
6
CONTINUOUS
10
262.89
20
-105.416
11
264.09
21
-105.416
0
LINE
8
BLACK
6
CONTINUOUS
10
264.09
20
-105.416
11
264.09
21
-106.316
0
LINE
8
BLACK
6
CONTINUOUS
10
302.19
20
-105.681
11
300.99
21
-105.681
0
LINE
8
BLACK
6
CONTINUOUS
10
300.99
20
-105.681
11
300.99
21
-104.781
0
LINE
8
BLACK
6
CONTINUOUS
10
300.99
20
-104.781
11
302.19
21
-104.781
0
LINE
8
BLACK
6
CONTINUOUS
10
302.19
20
-104.781
11
302.19
21
-105.681
0
LINE
8
BLACK
6
CONTINUOUS
10
130.61
20
-105.681
11
129.41
21
-105.681
0
LINE
8
BLACK
6
CONTINUOUS
10
129.41
20
-105.681
11
129.41
21
-104.781
0
LINE
8
BLACK
6
CONTINUOUS
10
129.41
20
-104.781
11
130.61
21
-104.781
0
LINE
8
BLACK
6
CONTINUOUS
10
130.61
20
-104.781
11
130.61
21
-105.681
0
LINE
8
BLACK
6
CONTINUOUS
10
186.974
20
-105.466
11
184.424
21
-105.466
0
LINE
8
BLACK
6
CONTINUOUS
10
184.424
20
-105.466
11
184.424
21
-102.966
0
LINE
8
BLACK
6
CONTINUOUS
10
184.424
20
-102.966
11
186.974
21
-102.966
0
LINE
8
BLACK
6
CONTINUOUS
10
186.974
20
-102.966
11
186.974
21
-105.466
0
LINE
8
BLACK
6
CONTINUOUS
10
244.414
20
-105.466
11
241.864
21
-105.466
0
LINE
8
BLACK
6
CONTINUOUS
10
241.864
20
-105.466
11
241.864
21
-102.966
0
LINE
8
BLACK
6
CONTINUOUS
10
241.864
20
-102.966
11
244.414
21
-102.966
0
LINE
8
BLACK
6
CONTINUOUS
10
244.414
20
-102.966
11
244.414
21
-105.466
0
LINE
8
BLACK
6
CONTINUOUS
10
225.364
20
-105.466
11
222.814
21
-105.466
0
LINE
8
BLACK
6
CONTINUOUS
10
222.814
20
-105.466
11
222.814
21
-102.966
0
LINE
8
BLACK
6
CONTINUOUS
10
222.814
20
-102.966
11
225.364
21
-102.966
0
LINE
8
BLACK
6
CONTINUOUS
10
225.364
20
-102.966
11
225.364
21
-105.466
0
LINE
8
BLACK
6
CONTINUOUS
10
206.024
20
-105.466
11
203.474
21
-105.466
0
LINE
8
BLACK
6
CONTINUOUS
10
203.474
20
-105.466
11
203.474
21
-102.966
0
LINE
8
BLACK
6
CONTINUOUS
10
203.474
20
-102.966
11
206.024
21
-102.966
0
LINE
8
BLACK
6
CONTINUOUS
10
206.024
20
-102.966
11
206.024
21
-105.466
0
LINE
8
BLACK
6
CONTINUOUS
10
321.24
20
-104.286
11
320.04
21
-104.286
0
LINE
8
BLACK
6
CONTINUOUS
10
320.04
20
-104.286
11
320.04
21
-103.386
0
LINE
8
BLACK
6
CONTINUOUS
10
320.04
20
-103.386
11
321.24
21
-103.386
0
LINE
8
BLACK
6
CONTINUOUS
10
321.24
20
-103.386
11
321.24
21
-104.286
0
LINE
8
BLACK
6
CONTINUOUS
10
111.401
20
-104.286
11
110.201
21
-104.286
0
LINE
8
BLACK
6
CONTINUOUS
10
110.201
20
-104.286
11
110.201
21
-103.386
0
LINE
8
BLACK
6
CONTINUOUS
10
110.201
20
-103.386
11
111.401
21
-103.386
0
LINE
8
BLACK
6
CONTINUOUS
10
111.401
20
-103.386
11
111.401
21
-104.286
0
LINE
8
BLACK
6
CONTINUOUS
10
307.687
20
-104.196
11
305.137
21
-104.196
0
LINE
8
BLACK
6
CONTINUOUS
10
305.137
20
-104.196
11
305.137
21
-101.696
0
LINE
8
BLACK
6
CONTINUOUS
10
305.137
20
-101.696
11
307.687
21
-101.696
0
LINE
8
BLACK
6
CONTINUOUS
10
307.687
20
-101.696
11
307.687
21
-104.196
0
LINE
8
BLACK
6
CONTINUOUS
10
97.8474
20
-104.196
11
95.2974
21
-104.196
0
LINE
8
BLACK
6
CONTINUOUS
10
95.2974
20
-104.196
11
95.2974
21
-101.696
0
LINE
8
BLACK
6
CONTINUOUS
10
95.2974
20
-101.696
11
97.8474
21
-101.696
0
LINE
8
BLACK
6
CONTINUOUS
10
97.8474
20
-101.696
11
97.8474
21
-104.196
0
LINE
8
BLACK
6
CONTINUOUS
10
149.501
20
-103.776
11
148.301
21
-103.776
0
LINE
8
BLACK
6
CONTINUOUS
10
148.301
20
-103.776
11
148.301
21
-102.876
0
LINE
8
BLACK
6
CONTINUOUS
10
148.301
20
-102.876
11
149.501
21
-102.876
0
LINE
8
BLACK
6
CONTINUOUS
10
149.501
20
-102.876
11
149.501
21
-103.776
0
LINE
8
BLACK
6
CONTINUOUS
10
282.982
20
-103.776
11
281.782
21
-103.776
0
LINE
8
BLACK
6
CONTINUOUS
10
281.782
20
-103.776
11
281.782
21
-102.876
0
LINE
8
BLACK
6
CONTINUOUS
10
281.782
20
-102.876
11
282.982
21
-102.876
0
LINE
8
BLACK
6
CONTINUOUS
10
282.982
20
-102.876
11
282.982
21
-103.776
0
LINE
8
BLACK
6
CONTINUOUS
10
168.71
20
-103.016
11
167.51
21
-103.016
0
LINE
8
BLACK
6
CONTINUOUS
10
167.51
20
-103.016
11
167.51
21
-102.116
0
LINE
8
BLACK
6
CONTINUOUS
10
167.51
20
-102.116
11
168.71
21
-102.116
0
LINE
8
BLACK
6
CONTINUOUS
10
168.71
20
-102.116
11
168.71
21
-103.016
0
LINE
8
BLACK
6
CONTINUOUS
10
264.09
20
-103.016
11
262.89
21
-103.016
0
LINE
8
BLACK
6
CONTINUOUS
10
262.89
20
-103.016
11
262.89
21
-102.116
0
LINE
8
BLACK
6
CONTINUOUS
10
262.89
20
-102.116
11
264.09
21
-102.116
0
LINE
8
BLACK
6
CONTINUOUS
10
264.09
20
-102.116
11
264.09
21
-103.016
0
LINE
8
BLACK
6
CONTINUOUS
10
250.537
20
-102.926
11
247.987
21
-102.926
0
LINE
8
BLACK
6
CONTINUOUS
10
247.987
20
-102.926
11
247.987
21
-100.426
0
LINE
8
BLACK
6
CONTINUOUS
10
247.987
20
-100.426
11
250.537
21
-100.426
0
LINE
8
BLACK
6
CONTINUOUS
10
250.537
20
-100.426
11
250.537
21
-102.926
0
LINE
8
BLACK
6
CONTINUOUS
10
154.997
20
-102.926
11
152.447
21
-102.926
0
LINE
8
BLACK
6
CONTINUOUS
10
152.447
20
-102.926
11
152.447
21
-100.426
0
LINE
8
BLACK
6
CONTINUOUS
10
152.447
20
-100.426
11
154.997
21
-100.426
0
LINE
8
BLACK
6
CONTINUOUS
10
154.997
20
-100.426
11
154.997
21
-102.926
0
LINE
8
BLACK
6
CONTINUOUS
10
302.19
20
-102.381
11
300.99
21
-102.381
0
LINE
8
BLACK
6
CONTINUOUS
10
300.99
20
-102.381
11
300.99
21
-101.481
0
LINE
8
BLACK
6
CONTINUOUS
10
300.99
20
-101.481
11
302.19
21
-101.481
0
LINE
8
BLACK
6
CONTINUOUS
10
302.19
20
-101.481
11
302.19
21
-102.381
0
LINE
8
BLACK
6
CONTINUOUS
10
130.61
20
-102.381
11
129.41
21
-102.381
0
LINE
8
BLACK
6
CONTINUOUS
10
129.41
20
-102.381
11
129.41
21
-101.481
0
LINE
8
BLACK
6
CONTINUOUS
10
129.41
20
-101.481
11
130.61
21
-101.481
0
LINE
8
BLACK
6
CONTINUOUS
10
130.61
20
-101.481
11
130.61
21
-102.381
0
LINE
8
BLACK
6
CONTINUOUS
10
116.897
20
-102.291
11
114.347
21
-102.291
0
LINE
8
BLACK
6
CONTINUOUS
10
114.347
20
-102.291
11
114.347
21
-99.7912
0
LINE
8
BLACK
6
CONTINUOUS
10
114.347
20
-99.7912
11
116.897
21
-99.7912
0
LINE
8
BLACK
6
CONTINUOUS
10
116.897
20
-99.7912
11
116.897
21
-102.291
0
LINE
8
BLACK
6
CONTINUOUS
10
288.637
20
-102.291
11
286.087
21
-102.291
0
LINE
8
BLACK
6
CONTINUOUS
10
286.087
20
-102.291
11
286.087
21
-99.7912
0
LINE
8
BLACK
6
CONTINUOUS
10
286.087
20
-99.7912
11
288.637
21
-99.7912
0
LINE
8
BLACK
6
CONTINUOUS
10
288.637
20
-99.7912
11
288.637
21
-102.291
0
LINE
8
BLACK
6
CONTINUOUS
10
320.614
20
-101.656
11
318.064
21
-101.656
0
LINE
8
BLACK
6
CONTINUOUS
10
318.064
20
-101.656
11
318.064
21
-99.1562
0
LINE
8
BLACK
6
CONTINUOUS
10
318.064
20
-99.1562
11
320.614
21
-99.1562
0
LINE
8
BLACK
6
CONTINUOUS
10
320.614
20
-99.1562
11
320.614
21
-101.656
0
LINE
8
BLACK
6
CONTINUOUS
10
110.774
20
-101.656
11
108.224
21
-101.656
0
LINE
8
BLACK
6
CONTINUOUS
10
108.224
20
-101.656
11
108.224
21
-99.1562
0
LINE
8
BLACK
6
CONTINUOUS
10
108.224
20
-99.1562
11
110.774
21
-99.1562
0
LINE
8
BLACK
6
CONTINUOUS
10
110.774
20
-99.1562
11
110.774
21
-101.656
0
LINE
8
BLACK
6
CONTINUOUS
10
149.501
20
-100.476
11
148.301
21
-100.476
0
LINE
8
BLACK
6
CONTINUOUS
10
148.301
20
-100.476
11
148.301
21
-99.5762
0
LINE
8
BLACK
6
CONTINUOUS
10
148.301
20
-99.5762
11
149.501
21
-99.5762
0
LINE
8
BLACK
6
CONTINUOUS
10
149.501
20
-99.5762
11
149.501
21
-100.476
0
LINE
8
BLACK
6
CONTINUOUS
10
282.982
20
-100.476
11
281.782
21
-100.476
0
LINE
8
BLACK
6
CONTINUOUS
10
281.782
20
-100.476
11
281.782
21
-99.5762
0
LINE
8
BLACK
6
CONTINUOUS
10
281.782
20
-99.5762
11
282.982
21
-99.5762
0
LINE
8
BLACK
6
CONTINUOUS
10
282.982
20
-99.5762
11
282.982
21
-100.476
0
LINE
8
BLACK
6
CONTINUOUS
10
263.464
20
-100.386
11
260.914
21
-100.386
0
LINE
8
BLACK
6
CONTINUOUS
10
260.914
20
-100.386
11
260.914
21
-97.8862
0
LINE
8
BLACK
6
CONTINUOUS
10
260.914
20
-97.8862
11
263.464
21
-97.8862
0
LINE
8
BLACK
6
CONTINUOUS
10
263.464
20
-97.8862
11
263.464
21
-100.386
0
LINE
8
BLACK
6
CONTINUOUS
10
269.587
20
-100.386
11
267.037
21
-100.386
0
LINE
8
BLACK
6
CONTINUOUS
10
267.037
20
-100.386
11
267.037
21
-97.8862
0
LINE
8
BLACK
6
CONTINUOUS
10
267.037
20
-97.8862
11
269.587
21
-97.8862
0
LINE
8
BLACK
6
CONTINUOUS
10
269.587
20
-97.8862
11
269.587
21
-100.386
0
LINE
8
BLACK
6
CONTINUOUS
10
167.924
20
-100.386
11
165.374
21
-100.386
0
LINE
8
BLACK
6
CONTINUOUS
10
165.374
20
-100.386
11
165.374
21
-97.8862
0
LINE
8
BLACK
6
CONTINUOUS
10
165.374
20
-97.8862
11
167.924
21
-97.8862
0
LINE
8
BLACK
6
CONTINUOUS
10
167.924
20
-97.8862
11
167.924
21
-100.386
0
LINE
8
BLACK
6
CONTINUOUS
10
135.947
20
-100.386
11
133.397
21
-100.386
0
LINE
8
BLACK
6
CONTINUOUS
10
133.397
20
-100.386
11
133.397
21
-97.8862
0
LINE
8
BLACK
6
CONTINUOUS
10
133.397
20
-97.8862
11
135.947
21
-97.8862
0
LINE
8
BLACK
6
CONTINUOUS
10
135.947
20
-97.8862
11
135.947
21
-100.386
0
LINE
8
BLACK
6
CONTINUOUS
10
129.824
20
-99.7512
11
127.274
21
-99.7512
0
LINE
8
BLACK
6
CONTINUOUS
10
127.274
20
-99.7512
11
127.274
21
-97.2512
0
LINE
8
BLACK
6
CONTINUOUS
10
127.274
20
-97.2512
11
129.824
21
-97.2512
0
LINE
8
BLACK
6
CONTINUOUS
10
129.824
20
-97.2512
11
129.824
21
-99.7512
0
LINE
8
BLACK
6
CONTINUOUS
10
301.564
20
-99.7512
11
299.014
21
-99.7512
0
LINE
8
BLACK
6
CONTINUOUS
10
299.014
20
-99.7512
11
299.014
21
-97.2512
0
LINE
8
BLACK
6
CONTINUOUS
10
299.014
20
-97.2512
11
301.564
21
-97.2512
0
LINE
8
BLACK
6
CONTINUOUS
10
301.564
20
-97.2512
11
301.564
21
-99.7512
0
LINE
8
BLACK
6
CONTINUOUS
10
282.514
20
-97.8462
11
279.964
21
-97.8462
0
LINE
8
BLACK
6
CONTINUOUS
10
279.964
20
-97.8462
11
279.964
21
-95.3462
0
LINE
8
BLACK
6
CONTINUOUS
10
279.964
20
-95.3462
11
282.514
21
-95.3462
0
LINE
8
BLACK
6
CONTINUOUS
10
282.514
20
-95.3462
11
282.514
21
-97.8462
0
LINE
8
BLACK
6
CONTINUOUS
10
148.874
20
-97.8462
11
146.324
21
-97.8462
0
LINE
8
BLACK
6
CONTINUOUS
10
146.324
20
-97.8462
11
146.324
21
-95.3462
0
LINE
8
BLACK
6
CONTINUOUS
10
146.324
20
-95.3462
11
148.874
21
-95.3462
0
LINE
8
BLACK
6
CONTINUOUS
10
148.874
20
-95.3462
11
148.874
21
-97.8462
0
LINE
8
BLACK
6
CONTINUOUS
10
225.99
20
-92.3462
11
224.79
21
-92.3462
0
LINE
8
BLACK
6
CONTINUOUS
10
224.79
20
-92.3462
11
224.79
21
-91.4462
0
LINE
8
BLACK
6
CONTINUOUS
10
224.79
20
-91.4462
11
225.99
21
-91.4462
0
LINE
8
BLACK
6
CONTINUOUS
10
225.99
20
-91.4462
11
225.99
21
-92.3462
0
LINE
8
BLACK
6
CONTINUOUS
10
187.76
20
-92.3462
11
186.56
21
-92.3462
0
LINE
8
BLACK
6
CONTINUOUS
10
186.56
20
-92.3462
11
186.56
21
-91.4462
0
LINE
8
BLACK
6
CONTINUOUS
10
186.56
20
-91.4462
11
187.76
21
-91.4462
0
LINE
8
BLACK
6
CONTINUOUS
10
187.76
20
-91.4462
11
187.76
21
-92.3462
0
LINE
8
BLACK
6
CONTINUOUS
10
206.81
20
-92.3462
11
205.61
21
-92.3462
0
LINE
8
BLACK
6
CONTINUOUS
10
205.61
20
-92.3462
11
205.61
21
-91.4462
0
LINE
8
BLACK
6
CONTINUOUS
10
205.61
20
-91.4462
11
206.81
21
-91.4462
0
LINE
8
BLACK
6
CONTINUOUS
10
206.81
20
-91.4462
11
206.81
21
-92.3462
0
LINE
8
BLACK
6
CONTINUOUS
10
245.04
20
-92.3462
11
243.84
21
-92.3462
0
LINE
8
BLACK
6
CONTINUOUS
10
243.84
20
-92.3462
11
243.84
21
-91.4462
0
LINE
8
BLACK
6
CONTINUOUS
10
243.84
20
-91.4462
11
245.04
21
-91.4462
0
LINE
8
BLACK
6
CONTINUOUS
10
245.04
20
-91.4462
11
245.04
21
-92.3462
0
LINE
8
BLACK
6
CONTINUOUS
10
225.99
20
-89.0462
11
224.79
21
-89.0462
0
LINE
8
BLACK
6
CONTINUOUS
10
224.79
20
-89.0462
11
224.79
21
-88.1462
0
LINE
8
BLACK
6
CONTINUOUS
10
224.79
20
-88.1462
11
225.99
21
-88.1462
0
LINE
8
BLACK
6
CONTINUOUS
10
225.99
20
-88.1462
11
225.99
21
-89.0462
0
LINE
8
BLACK
6
CONTINUOUS
10
187.76
20
-89.0462
11
186.56
21
-89.0462
0
LINE
8
BLACK
6
CONTINUOUS
10
186.56
20
-89.0462
11
186.56
21
-88.1462
0
LINE
8
BLACK
6
CONTINUOUS
10
186.56
20
-88.1462
11
187.76
21
-88.1462
0
LINE
8
BLACK
6
CONTINUOUS
10
187.76
20
-88.1462
11
187.76
21
-89.0462
0
LINE
8
BLACK
6
CONTINUOUS
10
206.81
20
-89.0462
11
205.61
21
-89.0462
0
LINE
8
BLACK
6
CONTINUOUS
10
205.61
20
-89.0462
11
205.61
21
-88.1462
0
LINE
8
BLACK
6
CONTINUOUS
10
205.61
20
-88.1462
11
206.81
21
-88.1462
0
LINE
8
BLACK
6
CONTINUOUS
10
206.81
20
-88.1462
11
206.81
21
-89.0462
0
LINE
8
BLACK
6
CONTINUOUS
10
245.04
20
-89.0462
11
243.84
21
-89.0462
0
LINE
8
BLACK
6
CONTINUOUS
10
243.84
20
-89.0462
11
243.84
21
-88.1462
0
LINE
8
BLACK
6
CONTINUOUS
10
243.84
20
-88.1462
11
245.04
21
-88.1462
0
LINE
8
BLACK
6
CONTINUOUS
10
245.04
20
-88.1462
11
245.04
21
-89.0462
0
LINE
8
BLACK
6
CONTINUOUS
10
231.487
20
-88.9562
11
228.937
21
-88.9562
0
LINE
8
BLACK
6
CONTINUOUS
10
228.937
20
-88.9562
11
228.937
21
-86.4562
0
LINE
8
BLACK
6
CONTINUOUS
10
228.937
20
-86.4562
11
231.487
21
-86.4562
0
LINE
8
BLACK
6
CONTINUOUS
10
231.487
20
-86.4562
11
231.487
21
-88.9562
0
LINE
8
BLACK
6
CONTINUOUS
10
174.047
20
-88.9562
11
171.497
21
-88.9562
0
LINE
8
BLACK
6
CONTINUOUS
10
171.497
20
-88.9562
11
171.497
21
-86.4562
0
LINE
8
BLACK
6
CONTINUOUS
10
171.497
20
-86.4562
11
174.047
21
-86.4562
0
LINE
8
BLACK
6
CONTINUOUS
10
174.047
20
-86.4562
11
174.047
21
-88.9562
0
LINE
8
BLACK
6
CONTINUOUS
10
193.097
20
-88.9562
11
190.547
21
-88.9562
0
LINE
8
BLACK
6
CONTINUOUS
10
190.547
20
-88.9562
11
190.547
21
-86.4562
0
LINE
8
BLACK
6
CONTINUOUS
10
190.547
20
-86.4562
11
193.097
21
-86.4562
0
LINE
8
BLACK
6
CONTINUOUS
10
193.097
20
-86.4562
11
193.097
21
-88.9562
0
LINE
8
BLACK
6
CONTINUOUS
10
212.437
20
-88.9562
11
209.887
21
-88.9562
0
LINE
8
BLACK
6
CONTINUOUS
10
209.887
20
-88.9562
11
209.887
21
-86.4562
0
LINE
8
BLACK
6
CONTINUOUS
10
209.887
20
-86.4562
11
212.437
21
-86.4562
0
LINE
8
BLACK
6
CONTINUOUS
10
212.437
20
-86.4562
11
212.437
21
-88.9562
0
LINE
8
BLACK
6
CONTINUOUS
10
321.24
20
-88.5362
11
320.04
21
-88.5362
0
LINE
8
BLACK
6
CONTINUOUS
10
320.04
20
-88.5362
11
320.04
21
-87.6362
0
LINE
8
BLACK
6
CONTINUOUS
10
320.04
20
-87.6362
11
321.24
21
-87.6362
0
LINE
8
BLACK
6
CONTINUOUS
10
321.24
20
-87.6362
11
321.24
21
-88.5362
0
LINE
8
BLACK
6
CONTINUOUS
10
111.401
20
-88.5362
11
110.201
21
-88.5362
0
LINE
8
BLACK
6
CONTINUOUS
10
110.201
20
-88.5362
11
110.201
21
-87.6362
0
LINE
8
BLACK
6
CONTINUOUS
10
110.201
20
-87.6362
11
111.401
21
-87.6362
0
LINE
8
BLACK
6
CONTINUOUS
10
111.401
20
-87.6362
11
111.401
21
-88.5362
0
LINE
8
BLACK
6
CONTINUOUS
10
264.09
20
-87.2662
11
262.89
21
-87.2662
0
LINE
8
BLACK
6
CONTINUOUS
10
262.89
20
-87.2662
11
262.89
21
-86.3662
0
LINE
8
BLACK
6
CONTINUOUS
10
262.89
20
-86.3662
11
264.09
21
-86.3662
0
LINE
8
BLACK
6
CONTINUOUS
10
264.09
20
-86.3662
11
264.09
21
-87.2662
0
LINE
8
BLACK
6
CONTINUOUS
10
168.71
20
-87.2662
11
167.51
21
-87.2662
0
LINE
8
BLACK
6
CONTINUOUS
10
167.51
20
-87.2662
11
167.51
21
-86.3662
0
LINE
8
BLACK
6
CONTINUOUS
10
167.51
20
-86.3662
11
168.71
21
-86.3662
0
LINE
8
BLACK
6
CONTINUOUS
10
168.71
20
-86.3662
11
168.71
21
-87.2662
0
LINE
8
BLACK
6
CONTINUOUS
10
130.61
20
-86.6312
11
129.41
21
-86.6312
0
LINE
8
BLACK
6
CONTINUOUS
10
129.41
20
-86.6312
11
129.41
21
-85.7312
0
LINE
8
BLACK
6
CONTINUOUS
10
129.41
20
-85.7312
11
130.61
21
-85.7312
0
LINE
8
BLACK
6
CONTINUOUS
10
130.61
20
-85.7312
11
130.61
21
-86.6312
0
LINE
8
BLACK
6
CONTINUOUS
10
302.19
20
-86.6312
11
300.99
21
-86.6312
0
LINE
8
BLACK
6
CONTINUOUS
10
300.99
20
-86.6312
11
300.99
21
-85.7312
0
LINE
8
BLACK
6
CONTINUOUS
10
300.99
20
-85.7312
11
302.19
21
-85.7312
0
LINE
8
BLACK
6
CONTINUOUS
10
302.19
20
-85.7312
11
302.19
21
-86.6312
0
LINE
8
BLACK
6
CONTINUOUS
10
244.414
20
-86.4162
11
241.864
21
-86.4162
0
LINE
8
BLACK
6
CONTINUOUS
10
241.864
20
-86.4162
11
241.864
21
-83.9162
0
LINE
8
BLACK
6
CONTINUOUS
10
241.864
20
-83.9162
11
244.414
21
-83.9162
0
LINE
8
BLACK
6
CONTINUOUS
10
244.414
20
-83.9162
11
244.414
21
-86.4162
0
LINE
8
BLACK
6
CONTINUOUS
10
186.974
20
-86.4162
11
184.424
21
-86.4162
0
LINE
8
BLACK
6
CONTINUOUS
10
184.424
20
-86.4162
11
184.424
21
-83.9162
0
LINE
8
BLACK
6
CONTINUOUS
10
184.424
20
-83.9162
11
186.974
21
-83.9162
0
LINE
8
BLACK
6
CONTINUOUS
10
186.974
20
-83.9162
11
186.974
21
-86.4162
0
LINE
8
BLACK
6
CONTINUOUS
10
206.024
20
-86.4162
11
203.474
21
-86.4162
0
LINE
8
BLACK
6
CONTINUOUS
10
203.474
20
-86.4162
11
203.474
21
-83.9162
0
LINE
8
BLACK
6
CONTINUOUS
10
203.474
20
-83.9162
11
206.024
21
-83.9162
0
LINE
8
BLACK
6
CONTINUOUS
10
206.024
20
-83.9162
11
206.024
21
-86.4162
0
LINE
8
BLACK
6
CONTINUOUS
10
225.364
20
-86.4162
11
222.814
21
-86.4162
0
LINE
8
BLACK
6
CONTINUOUS
10
222.814
20
-86.4162
11
222.814
21
-83.9162
0
LINE
8
BLACK
6
CONTINUOUS
10
222.814
20
-83.9162
11
225.364
21
-83.9162
0
LINE
8
BLACK
6
CONTINUOUS
10
225.364
20
-83.9162
11
225.364
21
-86.4162
0
LINE
8
BLACK
6
CONTINUOUS
10
321.24
20
-85.2362
11
320.04
21
-85.2362
0
LINE
8
BLACK
6
CONTINUOUS
10
320.04
20
-85.2362
11
320.04
21
-84.3362
0
LINE
8
BLACK
6
CONTINUOUS
10
320.04
20
-84.3362
11
321.24
21
-84.3362
0
LINE
8
BLACK
6
CONTINUOUS
10
321.24
20
-84.3362
11
321.24
21
-85.2362
0
LINE
8
BLACK
6
CONTINUOUS
10
111.401
20
-85.2362
11
110.201
21
-85.2362
0
LINE
8
BLACK
6
CONTINUOUS
10
110.201
20
-85.2362
11
110.201
21
-84.3362
0
LINE
8
BLACK
6
CONTINUOUS
10
110.201
20
-84.3362
11
111.401
21
-84.3362
0
LINE
8
BLACK
6
CONTINUOUS
10
111.401
20
-84.3362
11
111.401
21
-85.2362
0
LINE
8
BLACK
6
CONTINUOUS
10
307.687
20
-85.1462
11
305.137
21
-85.1462
0
LINE
8
BLACK
6
CONTINUOUS
10
305.137
20
-85.1462
11
305.137
21
-82.6462
0
LINE
8
BLACK
6
CONTINUOUS
10
305.137
20
-82.6462
11
307.687
21
-82.6462
0
LINE
8
BLACK
6
CONTINUOUS
10
307.687
20
-82.6462
11
307.687
21
-85.1462
0
LINE
8
BLACK
6
CONTINUOUS
10
97.8474
20
-85.1462
11
95.2974
21
-85.1462
0
LINE
8
BLACK
6
CONTINUOUS
10
95.2974
20
-85.1462
11
95.2974
21
-82.6462
0
LINE
8
BLACK
6
CONTINUOUS
10
95.2974
20
-82.6462
11
97.8474
21
-82.6462
0
LINE
8
BLACK
6
CONTINUOUS
10
97.8474
20
-82.6462
11
97.8474
21
-85.1462
0
LINE
8
BLACK
6
CONTINUOUS
10
282.982
20
-84.7262
11
281.782
21
-84.7262
0
LINE
8
BLACK
6
CONTINUOUS
10
281.782
20
-84.7262
11
281.782
21
-83.8262
0
LINE
8
BLACK
6
CONTINUOUS
10
281.782
20
-83.8262
11
282.982
21
-83.8262
0
LINE
8
BLACK
6
CONTINUOUS
10
282.982
20
-83.8262
11
282.982
21
-84.7262
0
LINE
8
BLACK
6
CONTINUOUS
10
149.501
20
-84.7262
11
148.301
21
-84.7262
0
LINE
8
BLACK
6
CONTINUOUS
10
148.301
20
-84.7262
11
148.301
21
-83.8262
0
LINE
8
BLACK
6
CONTINUOUS
10
148.301
20
-83.8262
11
149.501
21
-83.8262
0
LINE
8
BLACK
6
CONTINUOUS
10
149.501
20
-83.8262
11
149.501
21
-84.7262
0
LINE
8
BLACK
6
CONTINUOUS
10
264.09
20
-83.9662
11
262.89
21
-83.9662
0
LINE
8
BLACK
6
CONTINUOUS
10
262.89
20
-83.9662
11
262.89
21
-83.0662
0
LINE
8
BLACK
6
CONTINUOUS
10
262.89
20
-83.0662
11
264.09
21
-83.0662
0
LINE
8
BLACK
6
CONTINUOUS
10
264.09
20
-83.0662
11
264.09
21
-83.9662
0
LINE
8
BLACK
6
CONTINUOUS
10
168.71
20
-83.9662
11
167.51
21
-83.9662
0
LINE
8
BLACK
6
CONTINUOUS
10
167.51
20
-83.9662
11
167.51
21
-83.0662
0
LINE
8
BLACK
6
CONTINUOUS
10
167.51
20
-83.0662
11
168.71
21
-83.0662
0
LINE
8
BLACK
6
CONTINUOUS
10
168.71
20
-83.0662
11
168.71
21
-83.9662
0
LINE
8
BLACK
6
CONTINUOUS
10
154.997
20
-83.8762
11
152.447
21
-83.8762
0
LINE
8
BLACK
6
CONTINUOUS
10
152.447
20
-83.8762
11
152.447
21
-81.3762
0
LINE
8
BLACK
6
CONTINUOUS
10
152.447
20
-81.3762
11
154.997
21
-81.3762
0
LINE
8
BLACK
6
CONTINUOUS
10
154.997
20
-81.3762
11
154.997
21
-83.8762
0
LINE
8
BLACK
6
CONTINUOUS
10
250.537
20
-83.8762
11
247.987
21
-83.8762
0
LINE
8
BLACK
6
CONTINUOUS
10
247.987
20
-83.8762
11
247.987
21
-81.3762
0
LINE
8
BLACK
6
CONTINUOUS
10
247.987
20
-81.3762
11
250.537
21
-81.3762
0
LINE
8
BLACK
6
CONTINUOUS
10
250.537
20
-81.3762
11
250.537
21
-83.8762
0
LINE
8
BLACK
6
CONTINUOUS
10
130.61
20
-83.3312
11
129.41
21
-83.3312
0
LINE
8
BLACK
6
CONTINUOUS
10
129.41
20
-83.3312
11
129.41
21
-82.4312
0
LINE
8
BLACK
6
CONTINUOUS
10
129.41
20
-82.4312
11
130.61
21
-82.4312
0
LINE
8
BLACK
6
CONTINUOUS
10
130.61
20
-82.4312
11
130.61
21
-83.3312
0
LINE
8
BLACK
6
CONTINUOUS
10
302.19
20
-83.3312
11
300.99
21
-83.3312
0
LINE
8
BLACK
6
CONTINUOUS
10
300.99
20
-83.3312
11
300.99
21
-82.4312
0
LINE
8
BLACK
6
CONTINUOUS
10
300.99
20
-82.4312
11
302.19
21
-82.4312
0
LINE
8
BLACK
6
CONTINUOUS
10
302.19
20
-82.4312
11
302.19
21
-83.3312
0
LINE
8
BLACK
6
CONTINUOUS
10
288.637
20
-83.2412
11
286.087
21
-83.2412
0
LINE
8
BLACK
6
CONTINUOUS
10
286.087
20
-83.2412
11
286.087
21
-80.7412
0
LINE
8
BLACK
6
CONTINUOUS
10
286.087
20
-80.7412
11
288.637
21
-80.7412
0
LINE
8
BLACK
6
CONTINUOUS
10
288.637
20
-80.7412
11
288.637
21
-83.2412
0
LINE
8
BLACK
6
CONTINUOUS
10
116.897
20
-83.2412
11
114.347
21
-83.2412
0
LINE
8
BLACK
6
CONTINUOUS
10
114.347
20
-83.2412
11
114.347
21
-80.7412
0
LINE
8
BLACK
6
CONTINUOUS
10
114.347
20
-80.7412
11
116.897
21
-80.7412
0
LINE
8
BLACK
6
CONTINUOUS
10
116.897
20
-80.7412
11
116.897
21
-83.2412
0
LINE
8
BLACK
6
CONTINUOUS
10
320.614
20
-82.6062
11
318.064
21
-82.6062
0
LINE
8
BLACK
6
CONTINUOUS
10
318.064
20
-82.6062
11
318.064
21
-80.1062
0
LINE
8
BLACK
6
CONTINUOUS
10
318.064
20
-80.1062
11
320.614
21
-80.1062
0
LINE
8
BLACK
6
CONTINUOUS
10
320.614
20
-80.1062
11
320.614
21
-82.6062
0
LINE
8
BLACK
6
CONTINUOUS
10
110.774
20
-82.6062
11
108.224
21
-82.6062
0
LINE
8
BLACK
6
CONTINUOUS
10
108.224
20
-82.6062
11
108.224
21
-80.1062
0
LINE
8
BLACK
6
CONTINUOUS
10
108.224
20
-80.1062
11
110.774
21
-80.1062
0
LINE
8
BLACK
6
CONTINUOUS
10
110.774
20
-80.1062
11
110.774
21
-82.6062
0
LINE
8
BLACK
6
CONTINUOUS
10
282.982
20
-81.4262
11
281.782
21
-81.4262
0
LINE
8
BLACK
6
CONTINUOUS
10
281.782
20
-81.4262
11
281.782
21
-80.5262
0
LINE
8
BLACK
6
CONTINUOUS
10
281.782
20
-80.5262
11
282.982
21
-80.5262
0
LINE
8
BLACK
6
CONTINUOUS
10
282.982
20
-80.5262
11
282.982
21
-81.4262
0
LINE
8
BLACK
6
CONTINUOUS
10
149.501
20
-81.4262
11
148.301
21
-81.4262
0
LINE
8
BLACK
6
CONTINUOUS
10
148.301
20
-81.4262
11
148.301
21
-80.5262
0
LINE
8
BLACK
6
CONTINUOUS
10
148.301
20
-80.5262
11
149.501
21
-80.5262
0
LINE
8
BLACK
6
CONTINUOUS
10
149.501
20
-80.5262
11
149.501
21
-81.4262
0
LINE
8
BLACK
6
CONTINUOUS
10
135.947
20
-81.3362
11
133.397
21
-81.3362
0
LINE
8
BLACK
6
CONTINUOUS
10
133.397
20
-81.3362
11
133.397
21
-78.8362
0
LINE
8
BLACK
6
CONTINUOUS
10
133.397
20
-78.8362
11
135.947
21
-78.8362
0
LINE
8
BLACK
6
CONTINUOUS
10
135.947
20
-78.8362
11
135.947
21
-81.3362
0
LINE
8
BLACK
6
CONTINUOUS
10
167.924
20
-81.3362
11
165.374
21
-81.3362
0
LINE
8
BLACK
6
CONTINUOUS
10
165.374
20
-81.3362
11
165.374
21
-78.8362
0
LINE
8
BLACK
6
CONTINUOUS
10
165.374
20
-78.8362
11
167.924
21
-78.8362
0
LINE
8
BLACK
6
CONTINUOUS
10
167.924
20
-78.8362
11
167.924
21
-81.3362
0
LINE
8
BLACK
6
CONTINUOUS
10
269.587
20
-81.3362
11
267.037
21
-81.3362
0
LINE
8
BLACK
6
CONTINUOUS
10
267.037
20
-81.3362
11
267.037
21
-78.8362
0
LINE
8
BLACK
6
CONTINUOUS
10
267.037
20
-78.8362
11
269.587
21
-78.8362
0
LINE
8
BLACK
6
CONTINUOUS
10
269.587
20
-78.8362
11
269.587
21
-81.3362
0
LINE
8
BLACK
6
CONTINUOUS
10
263.464
20
-81.3362
11
260.914
21
-81.3362
0
LINE
8
BLACK
6
CONTINUOUS
10
260.914
20
-81.3362
11
260.914
21
-78.8362
0
LINE
8
BLACK
6
CONTINUOUS
10
260.914
20
-78.8362
11
263.464
21
-78.8362
0
LINE
8
BLACK
6
CONTINUOUS
10
263.464
20
-78.8362
11
263.464
21
-81.3362
0
LINE
8
BLACK
6
CONTINUOUS
10
301.564
20
-80.7012
11
299.014
21
-80.7012
0
LINE
8
BLACK
6
CONTINUOUS
10
299.014
20
-80.7012
11
299.014
21
-78.2012
0
LINE
8
BLACK
6
CONTINUOUS
10
299.014
20
-78.2012
11
301.564
21
-78.2012
0
LINE
8
BLACK
6
CONTINUOUS
10
301.564
20
-78.2012
11
301.564
21
-80.7012
0
LINE
8
BLACK
6
CONTINUOUS
10
129.824
20
-80.7012
11
127.274
21
-80.7012
0
LINE
8
BLACK
6
CONTINUOUS
10
127.274
20
-80.7012
11
127.274
21
-78.2012
0
LINE
8
BLACK
6
CONTINUOUS
10
127.274
20
-78.2012
11
129.824
21
-78.2012
0
LINE
8
BLACK
6
CONTINUOUS
10
129.824
20
-78.2012
11
129.824
21
-80.7012
0
LINE
8
BLACK
6
CONTINUOUS
10
148.874
20
-78.7962
11
146.324
21
-78.7962
0
LINE
8
BLACK
6
CONTINUOUS
10
146.324
20
-78.7962
11
146.324
21
-76.2962
0
LINE
8
BLACK
6
CONTINUOUS
10
146.324
20
-76.2962
11
148.874
21
-76.2962
0
LINE
8
BLACK
6
CONTINUOUS
10
148.874
20
-76.2962
11
148.874
21
-78.7962
0
LINE
8
BLACK
6
CONTINUOUS
10
282.514
20
-78.7962
11
279.964
21
-78.7962
0
LINE
8
BLACK
6
CONTINUOUS
10
279.964
20
-78.7962
11
279.964
21
-76.2962
0
LINE
8
BLACK
6
CONTINUOUS
10
279.964
20
-76.2962
11
282.514
21
-76.2962
0
LINE
8
BLACK
6
CONTINUOUS
10
282.514
20
-76.2962
11
282.514
21
-78.7962
0
LINE
8
BLACK
6
CONTINUOUS
10
206.81
20
-73.2962
11
205.61
21
-73.2962
0
LINE
8
BLACK
6
CONTINUOUS
10
205.61
20
-73.2962
11
205.61
21
-72.3962
0
LINE
8
BLACK
6
CONTINUOUS
10
205.61
20
-72.3962
11
206.81
21
-72.3962
0
LINE
8
BLACK
6
CONTINUOUS
10
206.81
20
-72.3962
11
206.81
21
-73.2962
0
LINE
8
BLACK
6
CONTINUOUS
10
187.76
20
-73.2962
11
186.56
21
-73.2962
0
LINE
8
BLACK
6
CONTINUOUS
10
186.56
20
-73.2962
11
186.56
21
-72.3962
0
LINE
8
BLACK
6
CONTINUOUS
10
186.56
20
-72.3962
11
187.76
21
-72.3962
0
LINE
8
BLACK
6
CONTINUOUS
10
187.76
20
-72.3962
11
187.76
21
-73.2962
0
LINE
8
BLACK
6
CONTINUOUS
10
245.04
20
-73.2962
11
243.84
21
-73.2962
0
LINE
8
BLACK
6
CONTINUOUS
10
243.84
20
-73.2962
11
243.84
21
-72.3962
0
LINE
8
BLACK
6
CONTINUOUS
10
243.84
20
-72.3962
11
245.04
21
-72.3962
0
LINE
8
BLACK
6
CONTINUOUS
10
245.04
20
-72.3962
11
245.04
21
-73.2962
0
LINE
8
BLACK
6
CONTINUOUS
10
225.99
20
-73.2962
11
224.79
21
-73.2962
0
LINE
8
BLACK
6
CONTINUOUS
10
224.79
20
-73.2962
11
224.79
21
-72.3962
0
LINE
8
BLACK
6
CONTINUOUS
10
224.79
20
-72.3962
11
225.99
21
-72.3962
0
LINE
8
BLACK
6
CONTINUOUS
10
225.99
20
-72.3962
11
225.99
21
-73.2962
0
LINE
8
BLACK
6
CONTINUOUS
10
206.81
20
-69.9962
11
205.61
21
-69.9962
0
LINE
8
BLACK
6
CONTINUOUS
10
205.61
20
-69.9962
11
205.61
21
-69.0962
0
LINE
8
BLACK
6
CONTINUOUS
10
205.61
20
-69.0962
11
206.81
21
-69.0962
0
LINE
8
BLACK
6
CONTINUOUS
10
206.81
20
-69.0962
11
206.81
21
-69.9962
0
LINE
8
BLACK
6
CONTINUOUS
10
187.76
20
-69.9962
11
186.56
21
-69.9962
0
LINE
8
BLACK
6
CONTINUOUS
10
186.56
20
-69.9962
11
186.56
21
-69.0962
0
LINE
8
BLACK
6
CONTINUOUS
10
186.56
20
-69.0962
11
187.76
21
-69.0962
0
LINE
8
BLACK
6
CONTINUOUS
10
187.76
20
-69.0962
11
187.76
21
-69.9962
0
LINE
8
BLACK
6
CONTINUOUS
10
245.04
20
-69.9962
11
243.84
21
-69.9962
0
LINE
8
BLACK
6
CONTINUOUS
10
243.84
20
-69.9962
11
243.84
21
-69.0962
0
LINE
8
BLACK
6
CONTINUOUS
10
243.84
20
-69.0962
11
245.04
21
-69.0962
0
LINE
8
BLACK
6
CONTINUOUS
10
245.04
20
-69.0962
11
245.04
21
-69.9962
0
LINE
8
BLACK
6
CONTINUOUS
10
225.99
20
-69.9962
11
224.79
21
-69.9962
0
LINE
8
BLACK
6
CONTINUOUS
10
224.79
20
-69.9962
11
224.79
21
-69.0962
0
LINE
8
BLACK
6
CONTINUOUS
10
224.79
20
-69.0962
11
225.99
21
-69.0962
0
LINE
8
BLACK
6
CONTINUOUS
10
225.99
20
-69.0962
11
225.99
21
-69.9962
0
LINE
8
BLACK
6
CONTINUOUS
10
193.097
20
-69.9062
11
190.547
21
-69.9062
0
LINE
8
BLACK
6
CONTINUOUS
10
190.547
20
-69.9062
11
190.547
21
-67.4062
0
LINE
8
BLACK
6
CONTINUOUS
10
190.547
20
-67.4062
11
193.097
21
-67.4062
0
LINE
8
BLACK
6
CONTINUOUS
10
193.097
20
-67.4062
11
193.097
21
-69.9062
0
LINE
8
BLACK
6
CONTINUOUS
10
212.437
20
-69.9062
11
209.887
21
-69.9062
0
LINE
8
BLACK
6
CONTINUOUS
10
209.887
20
-69.9062
11
209.887
21
-67.4062
0
LINE
8
BLACK
6
CONTINUOUS
10
209.887
20
-67.4062
11
212.437
21
-67.4062
0
LINE
8
BLACK
6
CONTINUOUS
10
212.437
20
-67.4062
11
212.437
21
-69.9062
0
LINE
8
BLACK
6
CONTINUOUS
10
174.047
20
-69.9062
11
171.497
21
-69.9062
0
LINE
8
BLACK
6
CONTINUOUS
10
171.497
20
-69.9062
11
171.497
21
-67.4062
0
LINE
8
BLACK
6
CONTINUOUS
10
171.497
20
-67.4062
11
174.047
21
-67.4062
0
LINE
8
BLACK
6
CONTINUOUS
10
174.047
20
-67.4062
11
174.047
21
-69.9062
0
LINE
8
BLACK
6
CONTINUOUS
10
231.487
20
-69.9062
11
228.937
21
-69.9062
0
LINE
8
BLACK
6
CONTINUOUS
10
228.937
20
-69.9062
11
228.937
21
-67.4062
0
LINE
8
BLACK
6
CONTINUOUS
10
228.937
20
-67.4062
11
231.487
21
-67.4062
0
LINE
8
BLACK
6
CONTINUOUS
10
231.487
20
-67.4062
11
231.487
21
-69.9062
0
LINE
8
BLACK
6
CONTINUOUS
10
321.24
20
-69.4862
11
320.04
21
-69.4862
0
LINE
8
BLACK
6
CONTINUOUS
10
320.04
20
-69.4862
11
320.04
21
-68.5862
0
LINE
8
BLACK
6
CONTINUOUS
10
320.04
20
-68.5862
11
321.24
21
-68.5862
0
LINE
8
BLACK
6
CONTINUOUS
10
321.24
20
-68.5862
11
321.24
21
-69.4862
0
LINE
8
BLACK
6
CONTINUOUS
10
111.401
20
-69.4862
11
110.201
21
-69.4862
0
LINE
8
BLACK
6
CONTINUOUS
10
110.201
20
-69.4862
11
110.201
21
-68.5862
0
LINE
8
BLACK
6
CONTINUOUS
10
110.201
20
-68.5862
11
111.401
21
-68.5862
0
LINE
8
BLACK
6
CONTINUOUS
10
111.401
20
-68.5862
11
111.401
21
-69.4862
0
LINE
8
BLACK
6
CONTINUOUS
10
168.71
20
-68.2162
11
167.51
21
-68.2162
0
LINE
8
BLACK
6
CONTINUOUS
10
167.51
20
-68.2162
11
167.51
21
-67.3162
0
LINE
8
BLACK
6
CONTINUOUS
10
167.51
20
-67.3162
11
168.71
21
-67.3162
0
LINE
8
BLACK
6
CONTINUOUS
10
168.71
20
-67.3162
11
168.71
21
-68.2162
0
LINE
8
BLACK
6
CONTINUOUS
10
264.09
20
-68.2162
11
262.89
21
-68.2162
0
LINE
8
BLACK
6
CONTINUOUS
10
262.89
20
-68.2162
11
262.89
21
-67.3162
0
LINE
8
BLACK
6
CONTINUOUS
10
262.89
20
-67.3162
11
264.09
21
-67.3162
0
LINE
8
BLACK
6
CONTINUOUS
10
264.09
20
-67.3162
11
264.09
21
-68.2162
0
LINE
8
BLACK
6
CONTINUOUS
10
130.451
20
-67.5812
11
129.251
21
-67.5812
0
LINE
8
BLACK
6
CONTINUOUS
10
129.251
20
-67.5812
11
129.251
21
-66.6812
0
LINE
8
BLACK
6
CONTINUOUS
10
129.251
20
-66.6812
11
130.451
21
-66.6812
0
LINE
8
BLACK
6
CONTINUOUS
10
130.451
20
-66.6812
11
130.451
21
-67.5812
0
LINE
8
BLACK
6
CONTINUOUS
10
302.19
20
-67.5812
11
300.99
21
-67.5812
0
LINE
8
BLACK
6
CONTINUOUS
10
300.99
20
-67.5812
11
300.99
21
-66.6812
0
LINE
8
BLACK
6
CONTINUOUS
10
300.99
20
-66.6812
11
302.19
21
-66.6812
0
LINE
8
BLACK
6
CONTINUOUS
10
302.19
20
-66.6812
11
302.19
21
-67.5812
0
LINE
8
BLACK
6
CONTINUOUS
10
206.024
20
-67.3662
11
203.474
21
-67.3662
0
LINE
8
BLACK
6
CONTINUOUS
10
203.474
20
-67.3662
11
203.474
21
-64.8662
0
LINE
8
BLACK
6
CONTINUOUS
10
203.474
20
-64.8662
11
206.024
21
-64.8662
0
LINE
8
BLACK
6
CONTINUOUS
10
206.024
20
-64.8662
11
206.024
21
-67.3662
0
LINE
8
BLACK
6
CONTINUOUS
10
225.364
20
-67.3662
11
222.814
21
-67.3662
0
LINE
8
BLACK
6
CONTINUOUS
10
222.814
20
-67.3662
11
222.814
21
-64.8662
0
LINE
8
BLACK
6
CONTINUOUS
10
222.814
20
-64.8662
11
225.364
21
-64.8662
0
LINE
8
BLACK
6
CONTINUOUS
10
225.364
20
-64.8662
11
225.364
21
-67.3662
0
LINE
8
BLACK
6
CONTINUOUS
10
186.974
20
-67.3662
11
184.424
21
-67.3662
0
LINE
8
BLACK
6
CONTINUOUS
10
184.424
20
-67.3662
11
184.424
21
-64.8662
0
LINE
8
BLACK
6
CONTINUOUS
10
184.424
20
-64.8662
11
186.974
21
-64.8662
0
LINE
8
BLACK
6
CONTINUOUS
10
186.974
20
-64.8662
11
186.974
21
-67.3662
0
LINE
8
BLACK
6
CONTINUOUS
10
244.414
20
-67.3662
11
241.864
21
-67.3662
0
LINE
8
BLACK
6
CONTINUOUS
10
241.864
20
-67.3662
11
241.864
21
-64.8662
0
LINE
8
BLACK
6
CONTINUOUS
10
241.864
20
-64.8662
11
244.414
21
-64.8662
0
LINE
8
BLACK
6
CONTINUOUS
10
244.414
20
-64.8662
11
244.414
21
-67.3662
0
LINE
8
BLACK
6
CONTINUOUS
10
111.401
20
-66.1862
11
110.201
21
-66.1862
0
LINE
8
BLACK
6
CONTINUOUS
10
110.201
20
-66.1862
11
110.201
21
-65.2862
0
LINE
8
BLACK
6
CONTINUOUS
10
110.201
20
-65.2862
11
111.401
21
-65.2862
0
LINE
8
BLACK
6
CONTINUOUS
10
111.401
20
-65.2862
11
111.401
21
-66.1862
0
LINE
8
BLACK
6
CONTINUOUS
10
321.24
20
-66.1862
11
320.04
21
-66.1862
0
LINE
8
BLACK
6
CONTINUOUS
10
320.04
20
-66.1862
11
320.04
21
-65.2862
0
LINE
8
BLACK
6
CONTINUOUS
10
320.04
20
-65.2862
11
321.24
21
-65.2862
0
LINE
8
BLACK
6
CONTINUOUS
10
321.24
20
-65.2862
11
321.24
21
-66.1862
0
LINE
8
BLACK
6
CONTINUOUS
10
307.687
20
-66.0962
11
305.137
21
-66.0962
0
LINE
8
BLACK
6
CONTINUOUS
10
305.137
20
-66.0962
11
305.137
21
-63.5962
0
LINE
8
BLACK
6
CONTINUOUS
10
305.137
20
-63.5962
11
307.687
21
-63.5962
0
LINE
8
BLACK
6
CONTINUOUS
10
307.687
20
-63.5962
11
307.687
21
-66.0962
0
LINE
8
BLACK
6
CONTINUOUS
10
97.8474
20
-66.0962
11
95.2974
21
-66.0962
0
LINE
8
BLACK
6
CONTINUOUS
10
95.2974
20
-66.0962
11
95.2974
21
-63.5962
0
LINE
8
BLACK
6
CONTINUOUS
10
95.2974
20
-63.5962
11
97.8474
21
-63.5962
0
LINE
8
BLACK
6
CONTINUOUS
10
97.8474
20
-63.5962
11
97.8474
21
-66.0962
0
LINE
8
BLACK
6
CONTINUOUS
10
149.501
20
-65.6762
11
148.301
21
-65.6762
0
LINE
8
BLACK
6
CONTINUOUS
10
148.301
20
-65.6762
11
148.301
21
-64.7762
0
LINE
8
BLACK
6
CONTINUOUS
10
148.301
20
-64.7762
11
149.501
21
-64.7762
0
LINE
8
BLACK
6
CONTINUOUS
10
149.501
20
-64.7762
11
149.501
21
-65.6762
0
LINE
8
BLACK
6
CONTINUOUS
10
282.982
20
-65.6762
11
281.782
21
-65.6762
0
LINE
8
BLACK
6
CONTINUOUS
10
281.782
20
-65.6762
11
281.782
21
-64.7762
0
LINE
8
BLACK
6
CONTINUOUS
10
281.782
20
-64.7762
11
282.982
21
-64.7762
0
LINE
8
BLACK
6
CONTINUOUS
10
282.982
20
-64.7762
11
282.982
21
-65.6762
0
LINE
8
BLACK
6
CONTINUOUS
10
168.71
20
-64.9162
11
167.51
21
-64.9162
0
LINE
8
BLACK
6
CONTINUOUS
10
167.51
20
-64.9162
11
167.51
21
-64.0162
0
LINE
8
BLACK
6
CONTINUOUS
10
167.51
20
-64.0162
11
168.71
21
-64.0162
0
LINE
8
BLACK
6
CONTINUOUS
10
168.71
20
-64.0162
11
168.71
21
-64.9162
0
LINE
8
BLACK
6
CONTINUOUS
10
264.09
20
-64.9162
11
262.89
21
-64.9162
0
LINE
8
BLACK
6
CONTINUOUS
10
262.89
20
-64.9162
11
262.89
21
-64.0162
0
LINE
8
BLACK
6
CONTINUOUS
10
262.89
20
-64.0162
11
264.09
21
-64.0162
0
LINE
8
BLACK
6
CONTINUOUS
10
264.09
20
-64.0162
11
264.09
21
-64.9162
0
LINE
8
BLACK
6
CONTINUOUS
10
250.537
20
-64.8262
11
247.987
21
-64.8262
0
LINE
8
BLACK
6
CONTINUOUS
10
247.987
20
-64.8262
11
247.987
21
-62.3262
0
LINE
8
BLACK
6
CONTINUOUS
10
247.987
20
-62.3262
11
250.537
21
-62.3262
0
LINE
8
BLACK
6
CONTINUOUS
10
250.537
20
-62.3262
11
250.537
21
-64.8262
0
LINE
8
BLACK
6
CONTINUOUS
10
154.997
20
-64.8262
11
152.447
21
-64.8262
0
LINE
8
BLACK
6
CONTINUOUS
10
152.447
20
-64.8262
11
152.447
21
-62.3262
0
LINE
8
BLACK
6
CONTINUOUS
10
152.447
20
-62.3262
11
154.997
21
-62.3262
0
LINE
8
BLACK
6
CONTINUOUS
10
154.997
20
-62.3262
11
154.997
21
-64.8262
0
LINE
8
BLACK
6
CONTINUOUS
10
130.451
20
-64.2812
11
129.251
21
-64.2812
0
LINE
8
BLACK
6
CONTINUOUS
10
129.251
20
-64.2812
11
129.251
21
-63.3812
0
LINE
8
BLACK
6
CONTINUOUS
10
129.251
20
-63.3812
11
130.451
21
-63.3812
0
LINE
8
BLACK
6
CONTINUOUS
10
130.451
20
-63.3812
11
130.451
21
-64.2812
0
LINE
8
BLACK
6
CONTINUOUS
10
302.19
20
-64.2812
11
300.99
21
-64.2812
0
LINE
8
BLACK
6
CONTINUOUS
10
300.99
20
-64.2812
11
300.99
21
-63.3812
0
LINE
8
BLACK
6
CONTINUOUS
10
300.99
20
-63.3812
11
302.19
21
-63.3812
0
LINE
8
BLACK
6
CONTINUOUS
10
302.19
20
-63.3812
11
302.19
21
-64.2812
0
LINE
8
BLACK
6
CONTINUOUS
10
116.897
20
-64.1912
11
114.347
21
-64.1912
0
LINE
8
BLACK
6
CONTINUOUS
10
114.347
20
-64.1912
11
114.347
21
-61.6912
0
LINE
8
BLACK
6
CONTINUOUS
10
114.347
20
-61.6912
11
116.897
21
-61.6912
0
LINE
8
BLACK
6
CONTINUOUS
10
116.897
20
-61.6912
11
116.897
21
-64.1912
0
LINE
8
BLACK
6
CONTINUOUS
10
288.637
20
-64.1912
11
286.087
21
-64.1912
0
LINE
8
BLACK
6
CONTINUOUS
10
286.087
20
-64.1912
11
286.087
21
-61.6912
0
LINE
8
BLACK
6
CONTINUOUS
10
286.087
20
-61.6912
11
288.637
21
-61.6912
0
LINE
8
BLACK
6
CONTINUOUS
10
288.637
20
-61.6912
11
288.637
21
-64.1912
0
LINE
8
BLACK
6
CONTINUOUS
10
320.614
20
-63.5562
11
318.064
21
-63.5562
0
LINE
8
BLACK
6
CONTINUOUS
10
318.064
20
-63.5562
11
318.064
21
-61.0562
0
LINE
8
BLACK
6
CONTINUOUS
10
318.064
20
-61.0562
11
320.614
21
-61.0562
0
LINE
8
BLACK
6
CONTINUOUS
10
320.614
20
-61.0562
11
320.614
21
-63.5562
0
LINE
8
BLACK
6
CONTINUOUS
10
110.774
20
-63.5562
11
108.224
21
-63.5562
0
LINE
8
BLACK
6
CONTINUOUS
10
108.224
20
-63.5562
11
108.224
21
-61.0562
0
LINE
8
BLACK
6
CONTINUOUS
10
108.224
20
-61.0562
11
110.774
21
-61.0562
0
LINE
8
BLACK
6
CONTINUOUS
10
110.774
20
-61.0562
11
110.774
21
-63.5562
0
LINE
8
BLACK
6
CONTINUOUS
10
282.982
20
-62.3762
11
281.782
21
-62.3762
0
LINE
8
BLACK
6
CONTINUOUS
10
281.782
20
-62.3762
11
281.782
21
-61.4762
0
LINE
8
BLACK
6
CONTINUOUS
10
281.782
20
-61.4762
11
282.982
21
-61.4762
0
LINE
8
BLACK
6
CONTINUOUS
10
282.982
20
-61.4762
11
282.982
21
-62.3762
0
LINE
8
BLACK
6
CONTINUOUS
10
149.501
20
-62.3762
11
148.301
21
-62.3762
0
LINE
8
BLACK
6
CONTINUOUS
10
148.301
20
-62.3762
11
148.301
21
-61.4762
0
LINE
8
BLACK
6
CONTINUOUS
10
148.301
20
-61.4762
11
149.501
21
-61.4762
0
LINE
8
BLACK
6
CONTINUOUS
10
149.501
20
-61.4762
11
149.501
21
-62.3762
0
LINE
8
BLACK
6
CONTINUOUS
10
263.464
20
-62.2862
11
260.914
21
-62.2862
0
LINE
8
BLACK
6
CONTINUOUS
10
260.914
20
-62.2862
11
260.914
21
-59.7862
0
LINE
8
BLACK
6
CONTINUOUS
10
260.914
20
-59.7862
11
263.464
21
-59.7862
0
LINE
8
BLACK
6
CONTINUOUS
10
263.464
20
-59.7862
11
263.464
21
-62.2862
0
LINE
8
BLACK
6
CONTINUOUS
10
167.924
20
-62.2862
11
165.374
21
-62.2862
0
LINE
8
BLACK
6
CONTINUOUS
10
165.374
20
-62.2862
11
165.374
21
-59.7862
0
LINE
8
BLACK
6
CONTINUOUS
10
165.374
20
-59.7862
11
167.924
21
-59.7862
0
LINE
8
BLACK
6
CONTINUOUS
10
167.924
20
-59.7862
11
167.924
21
-62.2862
0
LINE
8
BLACK
6
CONTINUOUS
10
269.587
20
-62.2862
11
267.037
21
-62.2862
0
LINE
8
BLACK
6
CONTINUOUS
10
267.037
20
-62.2862
11
267.037
21
-59.7862
0
LINE
8
BLACK
6
CONTINUOUS
10
267.037
20
-59.7862
11
269.587
21
-59.7862
0
LINE
8
BLACK
6
CONTINUOUS
10
269.587
20
-59.7862
11
269.587
21
-62.2862
0
LINE
8
BLACK
6
CONTINUOUS
10
135.947
20
-62.2862
11
133.397
21
-62.2862
0
LINE
8
BLACK
6
CONTINUOUS
10
133.397
20
-62.2862
11
133.397
21
-59.7862
0
LINE
8
BLACK
6
CONTINUOUS
10
133.397
20
-59.7862
11
135.947
21
-59.7862
0
LINE
8
BLACK
6
CONTINUOUS
10
135.947
20
-59.7862
11
135.947
21
-62.2862
0
LINE
8
BLACK
6
CONTINUOUS
10
129.824
20
-61.6512
11
127.274
21
-61.6512
0
LINE
8
BLACK
6
CONTINUOUS
10
127.274
20
-61.6512
11
127.274
21
-59.1512
0
LINE
8
BLACK
6
CONTINUOUS
10
127.274
20
-59.1512
11
129.824
21
-59.1512
0
LINE
8
BLACK
6
CONTINUOUS
10
129.824
20
-59.1512
11
129.824
21
-61.6512
0
LINE
8
BLACK
6
CONTINUOUS
10
301.564
20
-61.6512
11
299.014
21
-61.6512
0
LINE
8
BLACK
6
CONTINUOUS
10
299.014
20
-61.6512
11
299.014
21
-59.1512
0
LINE
8
BLACK
6
CONTINUOUS
10
299.014
20
-59.1512
11
301.564
21
-59.1512
0
LINE
8
BLACK
6
CONTINUOUS
10
301.564
20
-59.1512
11
301.564
21
-61.6512
0
LINE
8
BLACK
6
CONTINUOUS
10
282.514
20
-59.7462
11
279.964
21
-59.7462
0
LINE
8
BLACK
6
CONTINUOUS
10
279.964
20
-59.7462
11
279.964
21
-57.2462
0
LINE
8
BLACK
6
CONTINUOUS
10
279.964
20
-57.2462
11
282.514
21
-57.2462
0
LINE
8
BLACK
6
CONTINUOUS
10
282.514
20
-57.2462
11
282.514
21
-59.7462
0
LINE
8
BLACK
6
CONTINUOUS
10
148.874
20
-59.7462
11
146.324
21
-59.7462
0
LINE
8
BLACK
6
CONTINUOUS
10
146.324
20
-59.7462
11
146.324
21
-57.2462
0
LINE
8
BLACK
6
CONTINUOUS
10
146.324
20
-57.2462
11
148.874
21
-57.2462
0
LINE
8
BLACK
6
CONTINUOUS
10
148.874
20
-57.2462
11
148.874
21
-59.7462
  0
ENDSEC
  0
EOF
