M48
; DRILL file {KiCad (6.0.2)} date Sat May 21 05:00:12 2022
; FORMAT={-:-/ absolute / metric / decimal}
; #@! TF.CreationDate,2022-05-21T05:00:12+01:00
; #@! TF.GenerationSoftware,Kicad,Pcbnew,(6.0.2)
; #@! TF.FileFunction,NonPlated,1,2,NPTH
FMAT,2
METRIC
; #@! TA.AperFunction,NonPlated,NPTH,ComponentDrill
T1C0.600
; #@! TA.AperFunction,NonPlated,NPTH,ComponentDrill
T2C1.750
; #@! TA.AperFunction,NonPlated,NPTH,ComponentDrill
T3C3.000
; #@! TA.AperFunction,NonPlated,NPTH,ComponentDrill
T4C3.988
%
G90
G05
T1
X163.099Y-70.292
X163.099Y-71.992
T2
X18.959Y-38.403
X18.959Y-76.503
X18.959Y-57.453
X18.959Y-114.603
X18.959Y-95.553
X29.119Y-38.403
X29.119Y-76.503
X29.119Y-57.453
X29.119Y-114.603
X29.119Y-95.553
X38.008Y-112.222
X38.008Y-36.022
X38.009Y-55.072
X38.009Y-93.171
X38.009Y-74.121
X48.168Y-112.222
X48.168Y-36.022
X48.169Y-55.072
X48.169Y-93.171
X48.169Y-74.121
X57.059Y-50.309
X57.059Y-69.359
X57.059Y-88.409
X57.059Y-31.259
X57.059Y-107.459
X67.219Y-50.309
X67.219Y-69.359
X67.219Y-88.409
X67.219Y-31.259
X67.219Y-107.459
X76.109Y-65.39
X76.109Y-84.44
X76.109Y-46.34
X76.109Y-27.29
X86.269Y-65.39
X86.269Y-84.44
X86.269Y-46.34
X86.269Y-27.29
X88.809Y-112.221
X95.158Y-50.309
X95.159Y-31.259
X95.159Y-88.409
X95.159Y-69.359
X98.969Y-112.221
X105.318Y-50.309
X105.319Y-31.259
X105.319Y-88.409
X105.319Y-69.359
X110.826Y-113.764
X114.208Y-91.584
X114.209Y-34.434
X114.209Y-72.534
X114.209Y-53.484
X120.639Y-116.394
X124.368Y-91.584
X124.369Y-34.434
X124.369Y-72.534
X124.369Y-53.484
X131.57Y-120.968
X140.369Y-126.048
T3
X20.229Y-35.863
X20.229Y-73.963
X20.229Y-54.913
X20.229Y-112.063
X20.229Y-93.013
X21.499Y-33.323
X21.499Y-71.423
X21.499Y-52.373
X21.499Y-109.523
X21.499Y-90.473
X26.579Y-33.323
X26.579Y-71.423
X26.579Y-52.373
X26.579Y-109.523
X26.579Y-90.473
X27.849Y-35.863
X27.849Y-73.963
X27.849Y-54.913
X27.849Y-112.063
X27.849Y-93.013
X39.278Y-109.682
X39.279Y-33.482
X39.279Y-52.532
X39.279Y-90.631
X39.279Y-71.581
X40.548Y-107.142
X40.548Y-30.942
X40.549Y-49.992
X40.549Y-88.091
X40.549Y-69.041
X45.628Y-107.142
X45.628Y-30.942
X45.629Y-49.992
X45.629Y-88.091
X45.629Y-69.041
X46.898Y-109.682
X46.898Y-33.482
X46.899Y-52.532
X46.899Y-90.631
X46.899Y-71.581
X58.329Y-47.769
X58.329Y-66.819
X58.329Y-85.869
X58.329Y-28.719
X58.329Y-104.919
X59.599Y-45.229
X59.599Y-64.279
X59.599Y-83.329
X59.599Y-26.179
X59.599Y-102.379
X64.679Y-45.229
X64.679Y-64.279
X64.679Y-83.329
X64.679Y-26.179
X64.679Y-102.379
X65.949Y-47.769
X65.949Y-66.819
X65.949Y-85.869
X65.949Y-28.719
X65.949Y-104.919
X77.379Y-62.85
X77.379Y-81.9
X77.379Y-43.8
X77.379Y-24.75
X78.649Y-60.31
X78.649Y-79.36
X78.649Y-41.26
X78.649Y-22.21
X83.729Y-60.31
X83.729Y-79.36
X83.729Y-41.26
X83.729Y-22.21
X84.999Y-62.85
X84.999Y-81.9
X84.999Y-43.8
X84.999Y-24.75
X90.079Y-109.681
X91.349Y-107.141
X96.428Y-47.769
X96.429Y-28.719
X96.429Y-107.141
X96.429Y-85.869
X96.429Y-66.819
X97.698Y-45.229
X97.699Y-26.179
X97.699Y-109.681
X97.699Y-83.329
X97.699Y-64.279
X102.778Y-45.229
X102.779Y-26.179
X102.779Y-83.329
X102.779Y-64.279
X104.048Y-47.769
X104.049Y-28.719
X104.049Y-85.869
X104.049Y-66.819
X112.71Y-111.639
X114.594Y-109.515
X115.478Y-89.044
X115.479Y-31.894
X115.479Y-69.994
X115.479Y-50.944
X116.748Y-86.504
X116.749Y-29.354
X116.749Y-67.454
X116.749Y-48.404
X119.501Y-110.83
X120.07Y-113.612
X121.828Y-86.504
X121.829Y-29.354
X121.829Y-67.454
X121.829Y-48.404
X123.098Y-89.044
X123.099Y-31.894
X123.099Y-69.994
X123.099Y-50.944
X133.94Y-119.403
X136.31Y-117.839
X140.539Y-123.213
X140.709Y-120.379
T4
X24.039Y-38.403
X24.039Y-76.503
X24.039Y-57.453
X24.039Y-114.603
X24.039Y-95.553
X43.088Y-112.222
X43.088Y-36.022
X43.089Y-55.072
X43.089Y-93.171
X43.089Y-74.121
X62.139Y-50.309
X62.139Y-69.359
X62.139Y-88.409
X62.139Y-31.259
X62.139Y-107.459
X81.189Y-65.39
X81.189Y-84.44
X81.189Y-46.34
X81.189Y-27.29
X93.889Y-112.221
X100.238Y-50.309
X100.239Y-31.259
X100.239Y-88.409
X100.239Y-69.359
X115.733Y-115.079
X119.288Y-91.584
X119.289Y-34.434
X119.289Y-72.534
X119.289Y-53.484
X135.969Y-123.508
T0
M30
