M48
; DRILL file {KiCad (6.0.2)} date Sat May 21 05:00:12 2022
; FORMAT={-:-/ absolute / metric / decimal}
; #@! TF.CreationDate,2022-05-21T05:00:12+01:00
; #@! TF.GenerationSoftware,Kicad,Pcbnew,(6.0.2)
; #@! TF.FileFunction,Plated,1,2,PTH
FMAT,2
METRIC
; #@! TA.AperFunction,Plated,PTH,ViaDrill
T1C0.300
; #@! TA.AperFunction,Plated,PTH,ComponentDrill
T2C0.300
; #@! TA.AperFunction,Plated,PTH,ComponentDrill
T3C0.600
; #@! TA.AperFunction,Plated,PTH,ComponentDrill
T4C1.000
; #@! TA.AperFunction,Plated,PTH,ComponentDrill
T5C1.500
; #@! TA.AperFunction,Plated,PTH,ComponentDrill
T6C2.200
%
G90
G05
T1
X122.777Y-57.276
X122.994Y-58.045
X123.242Y-58.806
X123.533Y-59.55
X123.786Y-60.309
X124.039Y-61.067
X130.039Y-50.567
X130.164Y-102.567
X131.539Y-57.317
X131.539Y-70.317
X131.943Y-47.233
X132.039Y-49.067
X132.289Y-56.567
X133.289Y-87.633
X133.289Y-88.383
X133.289Y-89.133
X133.289Y-89.883
X133.539Y-62.317
X133.754Y-65.097
X133.754Y-66.097
X133.754Y-67.097
X133.754Y-68.097
X133.943Y-40.733
X134.039Y-84.317
X134.039Y-91.317
X134.754Y-68.097
X134.789Y-60.317
X135.164Y-52.442
X135.754Y-68.097
X136.539Y-47.067
X136.539Y-54.567
X136.539Y-55.567
X136.539Y-56.567
X136.539Y-57.567
X136.539Y-58.567
X136.754Y-68.097
X137.539Y-54.567
X137.539Y-58.567
X137.754Y-64.097
X137.754Y-65.097
X137.754Y-66.097
X137.754Y-67.097
X137.754Y-68.097
X137.943Y-40.983
X138.539Y-54.567
X138.539Y-58.567
X138.754Y-68.097
X138.943Y-22.483
X139.039Y-61.567
X139.539Y-54.567
X139.539Y-58.567
X139.693Y-22.483
X139.754Y-68.097
X139.943Y-45.233
X140.443Y-22.483
X140.539Y-54.567
X140.539Y-55.567
X140.539Y-56.567
X140.539Y-57.567
X140.539Y-58.567
X140.749Y-47.783
X140.754Y-68.097
X141.193Y-37.983
X141.249Y-48.533
X141.749Y-49.283
X141.754Y-65.097
X141.754Y-66.097
X141.754Y-67.097
X141.754Y-68.097
X141.943Y-24.908
X142.249Y-50.033
X142.404Y-60.847
X142.404Y-63.097
X142.443Y-21.733
X142.693Y-24.908
X142.693Y-27.658
X142.943Y-48.854
X142.999Y-36.533
X143.154Y-63.097
X143.193Y-21.733
X143.443Y-24.908
X143.443Y-46.233
X143.904Y-60.847
X144.193Y-26.65
X144.193Y-102.567
X144.443Y-21.983
X144.53Y-42.123
X144.693Y-35.483
X144.904Y-63.097
X145.105Y-50.567
X145.193Y-26.65
X145.371Y-49.808
X145.404Y-65.097
X145.904Y-71.547
X145.904Y-75.297
X146.039Y-52.383
X146.085Y-39.05
X146.193Y-22.483
X146.193Y-36.983
X146.404Y-65.797
X146.404Y-70.597
X146.599Y-35.892
X146.789Y-52.383
X146.904Y-62.847
X146.904Y-66.597
X147.193Y-25.158
X147.193Y-28.077
X147.193Y-44.41
X147.249Y-33.483
X147.249Y-37.283
X147.539Y-51.684
X147.654Y-67.347
X147.693Y-22.483
X148.039Y-55.567
X148.371Y-42.124
X148.789Y-55.567
X149.193Y-26.65
X149.539Y-55.567
X149.601Y-45.383
X149.601Y-47.383
X149.693Y-42.158
X149.943Y-21.983
X149.956Y-53.351
X150.193Y-26.65
X150.349Y-34.633
X150.404Y-70.597
X150.539Y-50.484
X150.549Y-41.893
X150.799Y-35.685
X150.899Y-33.683
X150.943Y-29.733
X151.099Y-34.633
X151.193Y-21.733
X151.693Y-29.733
X151.943Y-21.733
X152.039Y-59.302
X152.039Y-60.052
X152.193Y-32.658
X152.263Y-62.832
X152.349Y-37.133
X152.849Y-38.424
X153.042Y-54.108
X153.373Y-34.633
X153.599Y-39.633
X153.693Y-22.658
X153.693Y-23.408
X153.693Y-24.158
X153.693Y-30.908
X153.693Y-31.658
X153.693Y-32.408
X154.542Y-54.058
X155.539Y-57.133
X155.764Y-70.758
X155.764Y-72.508
X155.789Y-27.067
X156.199Y-33.633
X156.199Y-35.133
X156.539Y-27.067
X156.699Y-30.633
X156.699Y-31.383
X156.699Y-32.633
X156.699Y-36.633
X156.699Y-37.883
X156.699Y-38.633
X157.289Y-27.067
X158.443Y-24.233
X158.589Y-72.233
X159.193Y-24.233
X159.564Y-68.358
X159.797Y-72.817
X159.943Y-24.233
T2
X16.654Y-34.323
X16.654Y-72.423
X16.654Y-53.373
X16.654Y-110.523
X16.654Y-91.473
X18.497Y-34.863
X18.497Y-72.963
X18.497Y-53.913
X18.497Y-111.063
X18.497Y-92.013
X29.581Y-34.863
X29.581Y-72.963
X29.581Y-53.913
X29.581Y-111.063
X29.581Y-92.013
X31.424Y-34.323
X31.424Y-72.423
X31.424Y-53.373
X31.424Y-110.523
X31.424Y-91.473
X35.703Y-108.142
X35.703Y-31.942
X35.704Y-50.992
X35.704Y-89.091
X35.704Y-70.041
X37.546Y-108.682
X37.547Y-32.482
X37.547Y-51.532
X37.547Y-89.631
X37.547Y-70.581
X48.63Y-108.682
X48.63Y-32.482
X48.631Y-51.532
X48.631Y-89.631
X48.631Y-70.581
X50.473Y-108.142
X50.473Y-31.942
X50.474Y-50.992
X50.474Y-89.091
X50.474Y-70.041
X54.754Y-46.229
X54.754Y-65.279
X54.754Y-84.329
X54.754Y-27.179
X54.754Y-103.379
X56.597Y-46.769
X56.597Y-65.819
X56.597Y-84.869
X56.597Y-27.719
X56.597Y-103.919
X67.681Y-46.769
X67.681Y-65.819
X67.681Y-84.869
X67.681Y-27.719
X67.681Y-103.919
X69.524Y-46.229
X69.524Y-65.279
X69.524Y-84.329
X69.524Y-27.179
X69.524Y-103.379
X73.804Y-61.31
X73.804Y-80.36
X73.804Y-42.26
X73.804Y-23.21
X75.647Y-61.85
X75.647Y-80.9
X75.647Y-42.8
X75.647Y-23.75
X86.504Y-108.141
X86.731Y-61.85
X86.731Y-80.9
X86.731Y-42.8
X86.731Y-23.75
X88.347Y-108.681
X88.574Y-61.31
X88.574Y-80.36
X88.574Y-42.26
X88.574Y-23.21
X92.853Y-46.229
X92.854Y-27.179
X92.854Y-84.329
X92.854Y-65.279
X94.696Y-46.769
X94.697Y-27.719
X94.697Y-84.869
X94.697Y-65.819
X99.431Y-108.681
X101.274Y-108.141
X105.78Y-46.769
X105.781Y-27.719
X105.781Y-84.869
X105.781Y-65.819
X107.623Y-46.229
X107.624Y-27.179
X107.624Y-84.329
X107.624Y-65.279
X109.655Y-109.227
X111.296Y-110.225
X111.903Y-87.504
X111.904Y-30.354
X111.904Y-68.454
X111.904Y-49.404
X113.746Y-88.044
X113.747Y-30.894
X113.747Y-68.994
X113.747Y-49.944
X122.002Y-113.094
X123.922Y-113.049
X124.83Y-88.044
X124.831Y-30.894
X124.831Y-68.994
X124.831Y-49.944
X126.673Y-87.504
X126.674Y-30.354
X126.674Y-68.454
X126.674Y-49.404
X131.614Y-116.282
X132.94Y-117.671
X142.539Y-123.213
X144.405Y-123.667
T4
X135.789Y-31.423
X135.789Y-33.963
X135.789Y-36.503
X135.789Y-39.043
X143.383Y-44.41
X144.693Y-85.14
X144.693Y-99.64
X145.923Y-44.41
X147.193Y-85.14
X148.463Y-44.41
X149.693Y-85.14
X149.693Y-99.64
X151.003Y-44.41
X153.959Y-50.254
X156.499Y-50.254
X159.039Y-50.254
T6
X135.323Y-20.11
X135.323Y-43.91
X159.063Y-20.11
X159.063Y-43.91
T3
G00X141.618Y-14.983
M15
G01X141.618Y-16.183
M16
G05
G00X141.618Y-19.183
M15
G01X141.618Y-19.983
M16
G05
G00X152.768Y-14.983
M15
G01X152.768Y-16.183
M16
G05
G00X152.768Y-19.183
M15
G01X152.768Y-19.983
M16
G05
G00X159.499Y-29.058
M15
G01X158.699Y-29.058
M16
G05
G00X159.499Y-40.208
M15
G01X158.699Y-40.208
M16
G05
G00X163.699Y-29.058
M15
G01X162.499Y-29.058
M16
G05
G00X163.699Y-40.208
M15
G01X162.499Y-40.208
M16
G05
T5
G00X141.593Y-91.99
M15
G01X141.593Y-93.29
M16
G05
G00X152.793Y-91.99
M15
G01X152.793Y-93.29
M16
G05
T0
M30
