G04 #@! TF.GenerationSoftware,KiCad,Pcbnew,(6.0.2)*
G04 #@! TF.CreationDate,2022-05-21T05:00:10+01:00*
G04 #@! TF.ProjectId,Cantaloupe,43616e74-616c-46f7-9570-652e6b696361,rev?*
G04 #@! TF.SameCoordinates,Original*
G04 #@! TF.FileFunction,Profile,NP*
%FSLAX46Y46*%
G04 Gerber Fmt 4.6, Leading zero omitted, Abs format (unit mm)*
G04 Created by KiCad (PCBNEW (6.0.2)) date 2022-05-21 05:00:10*
%MOMM*%
%LPD*%
G01*
G04 APERTURE LIST*
G04 #@! TA.AperFunction,Profile*
%ADD10C,0.100000*%
G04 #@! TD*
G04 APERTURE END LIST*
D10*
X151693078Y-14283418D02*
X151693077Y-19983417D01*
X141396626Y-14283417D02*
G75*
G03*
X140896631Y-14783418I10J-500005D01*
G01*
X142593078Y-14283418D02*
X141396625Y-14283411D01*
X71663851Y-17783411D02*
G75*
G03*
X14513857Y-28864557I457541J-155273225D01*
G01*
X164035523Y-74392009D02*
X164035521Y-67892009D01*
X160964788Y-90496057D02*
X160964522Y-74392010D01*
X160964522Y-67892010D02*
X160964503Y-40883410D01*
X164398504Y-40383414D02*
X164398503Y-39133417D01*
X156647718Y-106650869D02*
G75*
G03*
X160964788Y-90496057I-28065740J16154276D01*
G01*
X140896631Y-17783418D02*
X71663851Y-17783411D01*
X164398503Y-39133417D02*
X158698504Y-39133417D01*
X14513516Y-124115050D02*
X84389250Y-124114260D01*
X152943078Y-14283418D02*
X151693078Y-14283418D01*
X14513857Y-28864557D02*
X14513516Y-124115050D01*
X160964522Y-17783417D02*
X153443079Y-17783417D01*
X160960949Y-28336970D02*
X160964522Y-17783417D01*
X153443069Y-14783411D02*
G75*
G03*
X152943078Y-14283418I-500003J-10D01*
G01*
X158698504Y-39133417D02*
X158698504Y-30033417D01*
X163898515Y-40883403D02*
G75*
G03*
X164398504Y-40383414I1J499988D01*
G01*
X164398501Y-28836960D02*
G75*
G03*
X163898510Y-28336971I-499991J-2D01*
G01*
X144154078Y-105139811D02*
X152654078Y-105139811D01*
X152654078Y-105139811D02*
X152654078Y-108639811D01*
X152654078Y-108639811D02*
X144154078Y-108639811D01*
X144154078Y-108639811D02*
X144154078Y-105139811D01*
X164398504Y-30033417D02*
X164398501Y-28836960D01*
X164035521Y-67892009D02*
X160964522Y-67892010D01*
X163898510Y-28336971D02*
X160960949Y-28336970D01*
X158698504Y-30033417D02*
X164398504Y-30033417D01*
X160964503Y-40883410D02*
X163898515Y-40883403D01*
X142593078Y-19983417D02*
X142593078Y-14283418D01*
X139455860Y-136519265D02*
G75*
G03*
X84389250Y-124114260I-56699107J-123266358D01*
G01*
X151693077Y-19983417D02*
X142593078Y-19983417D01*
X153443079Y-17783417D02*
X153443076Y-14783410D01*
X139455860Y-136519265D02*
X156647718Y-106650872D01*
X160964522Y-74392010D02*
X164035523Y-74392009D01*
X140896631Y-14783418D02*
X140896631Y-17783418D01*
M02*
