G04 #@! TF.GenerationSoftware,KiCad,Pcbnew,(6.0.2)*
G04 #@! TF.CreationDate,2022-05-21T05:00:10+01:00*
G04 #@! TF.ProjectId,Cantaloupe,43616e74-616c-46f7-9570-652e6b696361,rev?*
G04 #@! TF.SameCoordinates,Original*
G04 #@! TF.FileFunction,Paste,Bot*
G04 #@! TF.FilePolarity,Positive*
%FSLAX46Y46*%
G04 Gerber Fmt 4.6, Leading zero omitted, Abs format (unit mm)*
G04 Created by KiCad (PCBNEW (6.0.2)) date 2022-05-21 05:00:10*
%MOMM*%
%LPD*%
G01*
G04 APERTURE LIST*
G04 Aperture macros list*
%AMRotRect*
0 Rectangle, with rotation*
0 The origin of the aperture is its center*
0 $1 length*
0 $2 width*
0 $3 Rotation angle, in degrees counterclockwise*
0 Add horizontal line*
21,1,$1,$2,0,0,$3*%
G04 Aperture macros list end*
%ADD10RotRect,2.550000X2.500000X345.000000*%
%ADD11RotRect,2.550000X2.500000X330.000000*%
%ADD12R,2.550000X2.500000*%
%ADD13R,0.700000X0.700000*%
%ADD14R,0.300000X1.300000*%
%ADD15R,1.800000X2.200000*%
G04 APERTURE END LIST*
D10*
X109546337Y-110791823D03*
X122690260Y-111684126D03*
D11*
X131103491Y-117765793D03*
X143568601Y-122029589D03*
D12*
X16953511Y-35862748D03*
X29880511Y-33322748D03*
X93153514Y-85868990D03*
X106080514Y-83328990D03*
X112203499Y-89044011D03*
X125130499Y-86504011D03*
X55053504Y-85869002D03*
X67980504Y-83329002D03*
X74103504Y-81900249D03*
X87030504Y-79360249D03*
X16953519Y-112062754D03*
X29880519Y-109522754D03*
X93153499Y-47768999D03*
X106080499Y-45228999D03*
X112203509Y-50944005D03*
X125130509Y-48404005D03*
X16953511Y-73962757D03*
X29880511Y-71422757D03*
X36003518Y-71581487D03*
X48930518Y-69041487D03*
X55053504Y-66818989D03*
X67980504Y-64278989D03*
X93153517Y-66819014D03*
X106080517Y-64279014D03*
X74103502Y-62850254D03*
X87030502Y-60310254D03*
X112203506Y-69994002D03*
X125130506Y-67454002D03*
X16953521Y-93012756D03*
X29880521Y-90472756D03*
X36003505Y-90631499D03*
X48930505Y-88091499D03*
X36003498Y-109681502D03*
X48930498Y-107141502D03*
X55053508Y-104918999D03*
X67980508Y-102378999D03*
X86803507Y-109681498D03*
X99730507Y-107141498D03*
X55053507Y-28719007D03*
X67980507Y-26179007D03*
X16953513Y-54912742D03*
X29880513Y-52372742D03*
X55053502Y-47769002D03*
X67980502Y-45229002D03*
X93153507Y-28718993D03*
X106080507Y-26178993D03*
X74103509Y-43800246D03*
X87030509Y-41260246D03*
X74103510Y-24750244D03*
X87030510Y-22210244D03*
X36003500Y-33481501D03*
X48930500Y-30941501D03*
X36003505Y-52531507D03*
X48930505Y-49991507D03*
X112203503Y-31894012D03*
X125130503Y-29354012D03*
D13*
X153588503Y-53182012D03*
X152488503Y-53182012D03*
X152488503Y-55012012D03*
X153588503Y-55012012D03*
D14*
X151154078Y-69197012D03*
X150654078Y-69197012D03*
X150154078Y-69197012D03*
X149654078Y-69197012D03*
X149154078Y-69197012D03*
X148654078Y-69197012D03*
X148154078Y-69197012D03*
X147654078Y-69197012D03*
X147154078Y-69197012D03*
X146654078Y-69197012D03*
X146154078Y-69197012D03*
X145654078Y-69197012D03*
D15*
X143754078Y-72447012D03*
X153054078Y-72447012D03*
M02*
