G04 #@! TF.GenerationSoftware,KiCad,Pcbnew,(6.0.2)*
G04 #@! TF.CreationDate,2022-05-21T05:00:10+01:00*
G04 #@! TF.ProjectId,Cantaloupe,43616e74-616c-46f7-9570-652e6b696361,rev?*
G04 #@! TF.SameCoordinates,Original*
G04 #@! TF.FileFunction,Soldermask,Bot*
G04 #@! TF.FilePolarity,Negative*
%FSLAX46Y46*%
G04 Gerber Fmt 4.6, Leading zero omitted, Abs format (unit mm)*
G04 Created by KiCad (PCBNEW (6.0.2)) date 2022-05-21 05:00:10*
%MOMM*%
%LPD*%
G01*
G04 APERTURE LIST*
G04 Aperture macros list*
%AMRotRect*
0 Rectangle, with rotation*
0 The origin of the aperture is its center*
0 $1 length*
0 $2 width*
0 $3 Rotation angle, in degrees counterclockwise*
0 Add horizontal line*
21,1,$1,$2,0,0,$3*%
%AMFreePoly0*
4,1,40,0.702426,0.732426,0.720000,0.690000,0.702426,0.647574,0.696697,0.645201,0.692962,0.637491,0.685177,0.634787,0.579564,0.521125,0.493298,0.383056,0.434696,0.231165,0.405873,0.070933,0.407870,-0.091858,0.440613,-0.251334,0.502922,-0.401742,0.592548,-0.537654,0.700916,-0.648692,0.708765,-0.651204,0.709979,-0.653560,0.712426,-0.654574,0.720333,-0.673664,0.729793,-0.692029,
0.728986,-0.694551,0.730000,-0.697000,0.722094,-0.716087,0.715796,-0.735765,0.713440,-0.736979,0.712426,-0.739426,0.693336,-0.747333,0.674971,-0.756793,0.672449,-0.755986,0.670000,-0.757000,-0.350000,-0.757000,-0.366899,-0.750000,-0.400000,-0.750000,-0.400000,-0.721141,-0.410000,-0.697000,-0.410000,0.690000,-0.400000,0.714141,-0.400000,0.750000,0.660000,0.750000,0.702426,0.732426,
0.702426,0.732426,$1*%
G04 Aperture macros list end*
%ADD10C,1.400000*%
%ADD11C,3.500000*%
%ADD12FreePoly0,270.000000*%
%ADD13C,3.000000*%
%ADD14C,1.750000*%
%ADD15C,3.987800*%
%ADD16C,0.500000*%
%ADD17RotRect,2.550000X2.500000X345.000000*%
%ADD18RotRect,2.550000X2.500000X330.000000*%
%ADD19C,2.000000*%
%ADD20R,2.000000X3.200000*%
%ADD21R,2.550000X2.500000*%
%ADD22O,1.000000X1.800000*%
%ADD23O,1.000000X2.200000*%
%ADD24O,2.200000X1.000000*%
%ADD25O,1.800000X1.000000*%
%ADD26R,0.700000X0.700000*%
%ADD27R,1.700000X1.700000*%
%ADD28O,1.700000X1.700000*%
%ADD29C,0.600000*%
%ADD30R,1.200000X0.900000*%
%ADD31R,1.300000X1.150000*%
%ADD32R,1.000000X1.500000*%
%ADD33R,0.300000X1.300000*%
%ADD34R,1.800000X2.200000*%
G04 APERTURE END LIST*
D10*
X145923078Y-44409596D03*
X148463078Y-44409596D03*
D11*
X159063078Y-20109596D03*
X135323078Y-20109596D03*
D10*
X151003078Y-44409596D03*
D11*
X135323078Y-43909596D03*
D10*
X143383078Y-44409596D03*
D11*
X159063078Y-43909596D03*
D12*
X151013078Y-43069596D03*
X148473078Y-43069596D03*
X145933078Y-43069596D03*
X143393078Y-43069596D03*
D13*
X119500773Y-110829505D03*
D14*
X110825618Y-113764207D03*
D13*
X114593870Y-109514704D03*
D14*
X120639424Y-116393809D03*
D13*
X120070099Y-113611657D03*
X112709744Y-111639456D03*
D15*
X115732521Y-115079008D03*
D16*
X109655140Y-109226652D03*
D17*
X109546337Y-110791823D03*
D16*
X111295579Y-110225255D03*
D17*
X122690260Y-111684126D03*
D16*
X123921865Y-113049409D03*
X122001901Y-113094006D03*
D13*
X140538838Y-123213293D03*
X136309576Y-117838589D03*
D14*
X131569872Y-120967998D03*
X140368690Y-126047998D03*
D13*
X140708986Y-120378589D03*
D15*
X135969281Y-123507998D03*
D13*
X133939724Y-119403293D03*
D16*
X132939768Y-117671268D03*
X131613683Y-116282114D03*
D18*
X131103491Y-117765793D03*
D16*
X142538794Y-123213268D03*
D18*
X143568601Y-122029589D03*
D16*
X144404879Y-123667114D03*
D19*
X149693078Y-85139811D03*
X144693078Y-85139811D03*
X147193078Y-85139811D03*
D20*
X141593078Y-92639811D03*
X152793078Y-92639811D03*
D19*
X144693078Y-99639811D03*
X149693078Y-99639811D03*
D14*
X18958511Y-38402748D03*
D13*
X26578511Y-33322748D03*
X27848511Y-35862748D03*
X21498511Y-33322748D03*
X20228511Y-35862748D03*
D14*
X29118511Y-38402748D03*
D15*
X24038511Y-38402748D03*
D21*
X16953511Y-35862748D03*
D16*
X16653511Y-34322748D03*
X18496511Y-34862748D03*
X29580511Y-34862748D03*
D21*
X29880511Y-33322748D03*
D16*
X31423511Y-34322748D03*
D14*
X105318514Y-88408990D03*
D13*
X97698514Y-83328990D03*
D14*
X95158514Y-88408990D03*
D15*
X100238514Y-88408990D03*
D13*
X96428514Y-85868990D03*
X104048514Y-85868990D03*
X102778514Y-83328990D03*
D16*
X94696514Y-84868990D03*
X92853514Y-84328990D03*
D21*
X93153514Y-85868990D03*
D16*
X105780514Y-84868990D03*
X107623514Y-84328990D03*
D21*
X106080514Y-83328990D03*
D13*
X115478499Y-89044011D03*
D15*
X119288499Y-91584011D03*
D14*
X124368499Y-91584011D03*
D13*
X121828499Y-86504011D03*
D14*
X114208499Y-91584011D03*
D13*
X116748499Y-86504011D03*
X123098499Y-89044011D03*
D16*
X113746499Y-88044011D03*
D21*
X112203499Y-89044011D03*
D16*
X111903499Y-87504011D03*
X126673499Y-87504011D03*
D21*
X125130499Y-86504011D03*
D16*
X124830499Y-88044011D03*
D15*
X62138504Y-88409002D03*
D14*
X67218504Y-88409002D03*
X57058504Y-88409002D03*
D13*
X59598504Y-83329002D03*
X58328504Y-85869002D03*
X65948504Y-85869002D03*
X64678504Y-83329002D03*
D21*
X55053504Y-85869002D03*
D16*
X56596504Y-84869002D03*
X54753504Y-84329002D03*
D21*
X67980504Y-83329002D03*
D16*
X67680504Y-84869002D03*
X69523504Y-84329002D03*
D15*
X81188504Y-84440249D03*
D13*
X77378504Y-81900249D03*
D14*
X76108504Y-84440249D03*
X86268504Y-84440249D03*
D13*
X83728504Y-79360249D03*
X78648504Y-79360249D03*
X84998504Y-81900249D03*
D21*
X74103504Y-81900249D03*
D16*
X73803504Y-80360249D03*
X75646504Y-80900249D03*
X88573504Y-80360249D03*
X86730504Y-80900249D03*
D21*
X87030504Y-79360249D03*
D13*
X20228519Y-112062754D03*
D14*
X18958519Y-114602754D03*
D15*
X24038519Y-114602754D03*
D13*
X21498519Y-109522754D03*
D14*
X29118519Y-114602754D03*
D13*
X27848519Y-112062754D03*
X26578519Y-109522754D03*
D21*
X16953519Y-112062754D03*
D16*
X16653519Y-110522754D03*
X18496519Y-111062754D03*
X29580519Y-111062754D03*
D21*
X29880519Y-109522754D03*
D16*
X31423519Y-110522754D03*
D13*
X104048499Y-47768999D03*
D14*
X95158499Y-50308999D03*
D13*
X97698499Y-45228999D03*
D15*
X100238499Y-50308999D03*
D14*
X105318499Y-50308999D03*
D13*
X96428499Y-47768999D03*
X102778499Y-45228999D03*
D21*
X93153499Y-47768999D03*
D16*
X92853499Y-46228999D03*
X94696499Y-46768999D03*
X105780499Y-46768999D03*
X107623499Y-46228999D03*
D21*
X106080499Y-45228999D03*
D13*
X115478509Y-50944005D03*
X116748509Y-48404005D03*
D15*
X119288509Y-53484005D03*
D13*
X121828509Y-48404005D03*
D14*
X124368509Y-53484005D03*
X114208509Y-53484005D03*
D13*
X123098509Y-50944005D03*
D16*
X113746509Y-49944005D03*
D21*
X112203509Y-50944005D03*
D16*
X111903509Y-49404005D03*
X126673509Y-49404005D03*
X124830509Y-49944005D03*
D21*
X125130509Y-48404005D03*
D14*
X29118511Y-76502757D03*
X18958511Y-76502757D03*
D15*
X24038511Y-76502757D03*
D13*
X20228511Y-73962757D03*
X21498511Y-71422757D03*
X27848511Y-73962757D03*
X26578511Y-71422757D03*
D16*
X18496511Y-72962757D03*
D21*
X16953511Y-73962757D03*
D16*
X16653511Y-72422757D03*
D21*
X29880511Y-71422757D03*
D16*
X31423511Y-72422757D03*
X29580511Y-72962757D03*
D13*
X46898518Y-71581487D03*
X40548518Y-69041487D03*
D15*
X43088518Y-74121487D03*
D14*
X38008518Y-74121487D03*
X48168518Y-74121487D03*
D13*
X39278518Y-71581487D03*
X45628518Y-69041487D03*
D16*
X37546518Y-70581487D03*
D21*
X36003518Y-71581487D03*
D16*
X35703518Y-70041487D03*
X50473518Y-70041487D03*
D21*
X48930518Y-69041487D03*
D16*
X48630518Y-70581487D03*
D13*
X58328504Y-66818989D03*
X65948504Y-66818989D03*
X59598504Y-64278989D03*
D14*
X67218504Y-69358989D03*
D13*
X64678504Y-64278989D03*
D14*
X57058504Y-69358989D03*
D15*
X62138504Y-69358989D03*
D21*
X55053504Y-66818989D03*
D16*
X54753504Y-65278989D03*
X56596504Y-65818989D03*
X67680504Y-65818989D03*
D21*
X67980504Y-64278989D03*
D16*
X69523504Y-65278989D03*
D13*
X97698517Y-64279014D03*
D15*
X100238517Y-69359014D03*
D14*
X95158517Y-69359014D03*
D13*
X102778517Y-64279014D03*
X104048517Y-66819014D03*
D14*
X105318517Y-69359014D03*
D13*
X96428517Y-66819014D03*
D16*
X92853517Y-65279014D03*
D21*
X93153517Y-66819014D03*
D16*
X94696517Y-65819014D03*
X107623517Y-65279014D03*
D21*
X106080517Y-64279014D03*
D16*
X105780517Y-65819014D03*
D14*
X76108502Y-65390254D03*
X86268502Y-65390254D03*
D13*
X83728502Y-60310254D03*
D15*
X81188502Y-65390254D03*
D13*
X84998502Y-62850254D03*
X77378502Y-62850254D03*
X78648502Y-60310254D03*
D21*
X74103502Y-62850254D03*
D16*
X73803502Y-61310254D03*
X75646502Y-61850254D03*
D21*
X87030502Y-60310254D03*
D16*
X88573502Y-61310254D03*
X86730502Y-61850254D03*
D14*
X124368506Y-72534002D03*
D15*
X119288506Y-72534002D03*
D14*
X114208506Y-72534002D03*
D13*
X116748506Y-67454002D03*
X123098506Y-69994002D03*
X115478506Y-69994002D03*
X121828506Y-67454002D03*
D21*
X112203506Y-69994002D03*
D16*
X113746506Y-68994002D03*
X111903506Y-68454002D03*
X126673506Y-68454002D03*
X124830506Y-68994002D03*
D21*
X125130506Y-67454002D03*
D13*
X21498521Y-90472756D03*
X20228521Y-93012756D03*
X26578521Y-90472756D03*
D14*
X18958521Y-95552756D03*
D13*
X27848521Y-93012756D03*
D15*
X24038521Y-95552756D03*
D14*
X29118521Y-95552756D03*
D21*
X16953521Y-93012756D03*
D16*
X18496521Y-92012756D03*
X16653521Y-91472756D03*
X31423521Y-91472756D03*
D21*
X29880521Y-90472756D03*
D16*
X29580521Y-92012756D03*
D13*
X40548505Y-88091499D03*
D14*
X38008505Y-93171499D03*
X48168505Y-93171499D03*
D13*
X46898505Y-90631499D03*
D15*
X43088505Y-93171499D03*
D13*
X39278505Y-90631499D03*
X45628505Y-88091499D03*
D21*
X36003505Y-90631499D03*
D16*
X35703505Y-89091499D03*
X37546505Y-89631499D03*
X48630505Y-89631499D03*
D21*
X48930505Y-88091499D03*
D16*
X50473505Y-89091499D03*
D14*
X38008498Y-112221502D03*
D13*
X39278498Y-109681502D03*
X46898498Y-109681502D03*
D15*
X43088498Y-112221502D03*
D13*
X40548498Y-107141502D03*
D14*
X48168498Y-112221502D03*
D13*
X45628498Y-107141502D03*
D16*
X35703498Y-108141502D03*
X37546498Y-108681502D03*
D21*
X36003498Y-109681502D03*
D16*
X50473498Y-108141502D03*
X48630498Y-108681502D03*
D21*
X48930498Y-107141502D03*
D14*
X67218508Y-107458999D03*
D13*
X59598508Y-102378999D03*
X65948508Y-104918999D03*
D14*
X57058508Y-107458999D03*
D13*
X64678508Y-102378999D03*
D15*
X62138508Y-107458999D03*
D13*
X58328508Y-104918999D03*
D16*
X54753508Y-103378999D03*
D21*
X55053508Y-104918999D03*
D16*
X56596508Y-103918999D03*
D21*
X67980508Y-102378999D03*
D16*
X69523508Y-103378999D03*
X67680508Y-103918999D03*
D14*
X88808507Y-112221498D03*
D13*
X97698507Y-109681498D03*
X91348507Y-107141498D03*
X90078507Y-109681498D03*
D15*
X93888507Y-112221498D03*
D14*
X98968507Y-112221498D03*
D13*
X96428507Y-107141498D03*
D16*
X88346507Y-108681498D03*
X86503507Y-108141498D03*
D21*
X86803507Y-109681498D03*
X99730507Y-107141498D03*
D16*
X99430507Y-108681498D03*
X101273507Y-108141498D03*
D22*
X141618078Y-19583417D03*
X152768078Y-19583417D03*
D23*
X152768078Y-15583417D03*
X141618078Y-15583417D03*
D24*
X163098503Y-29058417D03*
X163098503Y-40208417D03*
D25*
X159098503Y-29058417D03*
X159098503Y-40208417D03*
D14*
X57058507Y-31259007D03*
D15*
X62138507Y-31259007D03*
D13*
X65948507Y-28719007D03*
X64678507Y-26179007D03*
D14*
X67218507Y-31259007D03*
D13*
X58328507Y-28719007D03*
X59598507Y-26179007D03*
D21*
X55053507Y-28719007D03*
D16*
X54753507Y-27179007D03*
X56596507Y-27719007D03*
X67680507Y-27719007D03*
X69523507Y-27179007D03*
D21*
X67980507Y-26179007D03*
D13*
X20228513Y-54912742D03*
D14*
X18958513Y-57452742D03*
D13*
X27848513Y-54912742D03*
X21498513Y-52372742D03*
D14*
X29118513Y-57452742D03*
D13*
X26578513Y-52372742D03*
D15*
X24038513Y-57452742D03*
D16*
X16653513Y-53372742D03*
D21*
X16953513Y-54912742D03*
D16*
X18496513Y-53912742D03*
D21*
X29880513Y-52372742D03*
D16*
X29580513Y-53912742D03*
X31423513Y-53372742D03*
D13*
X59598502Y-45229002D03*
X58328502Y-47769002D03*
D14*
X57058502Y-50309002D03*
D13*
X64678502Y-45229002D03*
X65948502Y-47769002D03*
D14*
X67218502Y-50309002D03*
D15*
X62138502Y-50309002D03*
D16*
X56596502Y-46769002D03*
X54753502Y-46229002D03*
D21*
X55053502Y-47769002D03*
D16*
X67680502Y-46769002D03*
X69523502Y-46229002D03*
D21*
X67980502Y-45229002D03*
D13*
X97698507Y-26178993D03*
D15*
X100238507Y-31258993D03*
D13*
X102778507Y-26178993D03*
X104048507Y-28718993D03*
D14*
X105318507Y-31258993D03*
D13*
X96428507Y-28718993D03*
D14*
X95158507Y-31258993D03*
D16*
X92853507Y-27178993D03*
X94696507Y-27718993D03*
D21*
X93153507Y-28718993D03*
D16*
X105780507Y-27718993D03*
X107623507Y-27178993D03*
D21*
X106080507Y-26178993D03*
D13*
X83728509Y-41260246D03*
X77378509Y-43800246D03*
D14*
X76108509Y-46340246D03*
D13*
X84998509Y-43800246D03*
D14*
X86268509Y-46340246D03*
D15*
X81188509Y-46340246D03*
D13*
X78648509Y-41260246D03*
D16*
X73803509Y-42260246D03*
X75646509Y-42800246D03*
D21*
X74103509Y-43800246D03*
X87030509Y-41260246D03*
D16*
X86730509Y-42800246D03*
X88573509Y-42260246D03*
D15*
X81188510Y-27290244D03*
D13*
X83728510Y-22210244D03*
X77378510Y-24750244D03*
X84998510Y-24750244D03*
D14*
X86268510Y-27290244D03*
D13*
X78648510Y-22210244D03*
D14*
X76108510Y-27290244D03*
D16*
X75646510Y-23750244D03*
X73803510Y-23210244D03*
D21*
X74103510Y-24750244D03*
D16*
X86730510Y-23750244D03*
D21*
X87030510Y-22210244D03*
D16*
X88573510Y-23210244D03*
D13*
X46898500Y-33481501D03*
D14*
X48168500Y-36021501D03*
X38008500Y-36021501D03*
D13*
X45628500Y-30941501D03*
D15*
X43088500Y-36021501D03*
D13*
X40548500Y-30941501D03*
X39278500Y-33481501D03*
D16*
X35703500Y-31941501D03*
X37546500Y-32481501D03*
D21*
X36003500Y-33481501D03*
D16*
X50473500Y-31941501D03*
D21*
X48930500Y-30941501D03*
D16*
X48630500Y-32481501D03*
D14*
X38008505Y-55071507D03*
D13*
X46898505Y-52531507D03*
D15*
X43088505Y-55071507D03*
D13*
X40548505Y-49991507D03*
X45628505Y-49991507D03*
X39278505Y-52531507D03*
D14*
X48168505Y-55071507D03*
D16*
X37546505Y-51531507D03*
D21*
X36003505Y-52531507D03*
D16*
X35703505Y-50991507D03*
X48630505Y-51531507D03*
D21*
X48930505Y-49991507D03*
D16*
X50473505Y-50991507D03*
D13*
X121828503Y-29354012D03*
X123098503Y-31894012D03*
D14*
X114208503Y-34434012D03*
D13*
X116748503Y-29354012D03*
D15*
X119288503Y-34434012D03*
D13*
X115478503Y-31894012D03*
D14*
X124368503Y-34434012D03*
D21*
X112203503Y-31894012D03*
D16*
X111903503Y-30354012D03*
X113746503Y-30894012D03*
X126673503Y-30354012D03*
X124830503Y-30894012D03*
D21*
X125130503Y-29354012D03*
D26*
X153588503Y-53182012D03*
X152488503Y-53182012D03*
X152488503Y-55012012D03*
X153588503Y-55012012D03*
D27*
X135788503Y-39043417D03*
D28*
X135788503Y-36503417D03*
X135788503Y-33963417D03*
X135788503Y-31423417D03*
D29*
X163098503Y-70292009D03*
D30*
X163098503Y-68842009D03*
D29*
X163098503Y-71992009D03*
D30*
X163098503Y-73442009D03*
D31*
X161548503Y-72817009D03*
X161548503Y-69467009D03*
D32*
X148638503Y-52184012D03*
X149938503Y-52184012D03*
D33*
X151154078Y-69197012D03*
X150654078Y-69197012D03*
X150154078Y-69197012D03*
X149654078Y-69197012D03*
X149154078Y-69197012D03*
X148654078Y-69197012D03*
X148154078Y-69197012D03*
X147654078Y-69197012D03*
X147154078Y-69197012D03*
X146654078Y-69197012D03*
X146154078Y-69197012D03*
X145654078Y-69197012D03*
D34*
X143754078Y-72447012D03*
X153054078Y-72447012D03*
D27*
X159038503Y-50254012D03*
D28*
X156498503Y-50254012D03*
X153958503Y-50254012D03*
D32*
X148598503Y-36283417D03*
X149898503Y-36283417D03*
X148598503Y-33083417D03*
X149898503Y-33083417D03*
M02*
