G04 #@! TF.GenerationSoftware,KiCad,Pcbnew,(6.0.2)*
G04 #@! TF.CreationDate,2022-05-21T05:00:10+01:00*
G04 #@! TF.ProjectId,Cantaloupe,43616e74-616c-46f7-9570-652e6b696361,rev?*
G04 #@! TF.SameCoordinates,Original*
G04 #@! TF.FileFunction,Legend,Top*
G04 #@! TF.FilePolarity,Positive*
%FSLAX46Y46*%
G04 Gerber Fmt 4.6, Leading zero omitted, Abs format (unit mm)*
G04 Created by KiCad (PCBNEW (6.0.2)) date 2022-05-21 05:00:10*
%MOMM*%
%LPD*%
G01*
G04 APERTURE LIST*
%ADD10C,0.200000*%
%ADD11C,0.300000*%
%ADD12C,0.120000*%
%ADD13C,0.150000*%
%ADD14C,0.100000*%
%ADD15C,0.127000*%
G04 APERTURE END LIST*
D10*
X135657363Y-77850559D02*
X135871649Y-77921988D01*
X136228792Y-77921988D01*
X136371649Y-77850559D01*
X136443078Y-77779131D01*
X136514506Y-77636274D01*
X136514506Y-77493417D01*
X136443078Y-77350559D01*
X136371649Y-77279131D01*
X136228792Y-77207702D01*
X135943078Y-77136274D01*
X135800220Y-77064845D01*
X135728792Y-76993417D01*
X135657363Y-76850559D01*
X135657363Y-76707702D01*
X135728792Y-76564845D01*
X135800220Y-76493417D01*
X135943078Y-76421988D01*
X136300220Y-76421988D01*
X136514506Y-76493417D01*
X137371649Y-77921988D02*
X137228792Y-77850559D01*
X137157363Y-77779131D01*
X137085935Y-77636274D01*
X137085935Y-77207702D01*
X137157363Y-77064845D01*
X137228792Y-76993417D01*
X137371649Y-76921988D01*
X137585935Y-76921988D01*
X137728792Y-76993417D01*
X137800220Y-77064845D01*
X137871649Y-77207702D01*
X137871649Y-77636274D01*
X137800220Y-77779131D01*
X137728792Y-77850559D01*
X137585935Y-77921988D01*
X137371649Y-77921988D01*
X138728792Y-77921988D02*
X138585935Y-77850559D01*
X138514506Y-77707702D01*
X138514506Y-76421988D01*
X139943078Y-77921988D02*
X139943078Y-76421988D01*
X139943078Y-77850559D02*
X139800220Y-77921988D01*
X139514506Y-77921988D01*
X139371649Y-77850559D01*
X139300220Y-77779131D01*
X139228792Y-77636274D01*
X139228792Y-77207702D01*
X139300220Y-77064845D01*
X139371649Y-76993417D01*
X139514506Y-76921988D01*
X139800220Y-76921988D01*
X139943078Y-76993417D01*
X141228792Y-77850559D02*
X141085935Y-77921988D01*
X140800220Y-77921988D01*
X140657363Y-77850559D01*
X140585935Y-77707702D01*
X140585935Y-77136274D01*
X140657363Y-76993417D01*
X140800220Y-76921988D01*
X141085935Y-76921988D01*
X141228792Y-76993417D01*
X141300220Y-77136274D01*
X141300220Y-77279131D01*
X140585935Y-77421988D01*
X141943078Y-77921988D02*
X141943078Y-76921988D01*
X141943078Y-77207702D02*
X142014506Y-77064845D01*
X142085935Y-76993417D01*
X142228792Y-76921988D01*
X142371649Y-76921988D01*
X144014506Y-76921988D02*
X144014506Y-78207702D01*
X143943078Y-78350559D01*
X143800220Y-78421988D01*
X143728792Y-78421988D01*
X144014506Y-76421988D02*
X143943078Y-76493417D01*
X144014506Y-76564845D01*
X144085935Y-76493417D01*
X144014506Y-76421988D01*
X144014506Y-76564845D01*
X145371649Y-76921988D02*
X145371649Y-77921988D01*
X144728792Y-76921988D02*
X144728792Y-77707702D01*
X144800220Y-77850559D01*
X144943078Y-77921988D01*
X145157363Y-77921988D01*
X145300220Y-77850559D01*
X145371649Y-77779131D01*
X146085935Y-77921988D02*
X146085935Y-76921988D01*
X146085935Y-77064845D02*
X146157363Y-76993417D01*
X146300220Y-76921988D01*
X146514506Y-76921988D01*
X146657363Y-76993417D01*
X146728792Y-77136274D01*
X146728792Y-77921988D01*
X146728792Y-77136274D02*
X146800220Y-76993417D01*
X146943078Y-76921988D01*
X147157363Y-76921988D01*
X147300220Y-76993417D01*
X147371649Y-77136274D01*
X147371649Y-77921988D01*
X148085935Y-76921988D02*
X148085935Y-78421988D01*
X148085935Y-76993417D02*
X148228792Y-76921988D01*
X148514506Y-76921988D01*
X148657363Y-76993417D01*
X148728792Y-77064845D01*
X148800220Y-77207702D01*
X148800220Y-77636274D01*
X148728792Y-77779131D01*
X148657363Y-77850559D01*
X148514506Y-77921988D01*
X148228792Y-77921988D01*
X148085935Y-77850559D01*
X150014506Y-77850559D02*
X149871649Y-77921988D01*
X149585935Y-77921988D01*
X149443078Y-77850559D01*
X149371649Y-77707702D01*
X149371649Y-77136274D01*
X149443078Y-76993417D01*
X149585935Y-76921988D01*
X149871649Y-76921988D01*
X150014506Y-76993417D01*
X150085935Y-77136274D01*
X150085935Y-77279131D01*
X149371649Y-77421988D01*
X150728792Y-77921988D02*
X150728792Y-76921988D01*
X150728792Y-77207702D02*
X150800220Y-77064845D01*
X150871649Y-76993417D01*
X151014506Y-76921988D01*
X151157363Y-76921988D01*
X151585935Y-77850559D02*
X151728792Y-77921988D01*
X152014506Y-77921988D01*
X152157363Y-77850559D01*
X152228792Y-77707702D01*
X152228792Y-77636274D01*
X152157363Y-77493417D01*
X152014506Y-77421988D01*
X151800220Y-77421988D01*
X151657363Y-77350559D01*
X151585935Y-77207702D01*
X151585935Y-77136274D01*
X151657363Y-76993417D01*
X151800220Y-76921988D01*
X152014506Y-76921988D01*
X152157363Y-76993417D01*
X154228792Y-77921988D02*
X154085935Y-77850559D01*
X154014506Y-77779131D01*
X153943078Y-77636274D01*
X153943078Y-77207702D01*
X154014506Y-77064845D01*
X154085935Y-76993417D01*
X154228792Y-76921988D01*
X154443078Y-76921988D01*
X154585935Y-76993417D01*
X154657363Y-77064845D01*
X154728792Y-77207702D01*
X154728792Y-77636274D01*
X154657363Y-77779131D01*
X154585935Y-77850559D01*
X154443078Y-77921988D01*
X154228792Y-77921988D01*
X155371649Y-76921988D02*
X155371649Y-77921988D01*
X155371649Y-77064845D02*
X155443078Y-76993417D01*
X155585935Y-76921988D01*
X155800220Y-76921988D01*
X155943078Y-76993417D01*
X156014506Y-77136274D01*
X156014506Y-77921988D01*
X137085935Y-79336988D02*
X137657363Y-79336988D01*
X137300220Y-78836988D02*
X137300220Y-80122702D01*
X137371649Y-80265559D01*
X137514506Y-80336988D01*
X137657363Y-80336988D01*
X138157363Y-80336988D02*
X138157363Y-78836988D01*
X138800220Y-80336988D02*
X138800220Y-79551274D01*
X138728792Y-79408417D01*
X138585935Y-79336988D01*
X138371649Y-79336988D01*
X138228792Y-79408417D01*
X138157363Y-79479845D01*
X139514506Y-80336988D02*
X139514506Y-79336988D01*
X139514506Y-78836988D02*
X139443078Y-78908417D01*
X139514506Y-78979845D01*
X139585935Y-78908417D01*
X139514506Y-78836988D01*
X139514506Y-78979845D01*
X140157363Y-80265559D02*
X140300220Y-80336988D01*
X140585935Y-80336988D01*
X140728792Y-80265559D01*
X140800220Y-80122702D01*
X140800220Y-80051274D01*
X140728792Y-79908417D01*
X140585935Y-79836988D01*
X140371649Y-79836988D01*
X140228792Y-79765559D01*
X140157363Y-79622702D01*
X140157363Y-79551274D01*
X140228792Y-79408417D01*
X140371649Y-79336988D01*
X140585935Y-79336988D01*
X140728792Y-79408417D01*
X142514506Y-80265559D02*
X142657363Y-80336988D01*
X142943078Y-80336988D01*
X143085935Y-80265559D01*
X143157363Y-80122702D01*
X143157363Y-80051274D01*
X143085935Y-79908417D01*
X142943078Y-79836988D01*
X142728792Y-79836988D01*
X142585935Y-79765559D01*
X142514506Y-79622702D01*
X142514506Y-79551274D01*
X142585935Y-79408417D01*
X142728792Y-79336988D01*
X142943078Y-79336988D01*
X143085935Y-79408417D01*
X143800220Y-80336988D02*
X143800220Y-79336988D01*
X143800220Y-78836988D02*
X143728792Y-78908417D01*
X143800220Y-78979845D01*
X143871649Y-78908417D01*
X143800220Y-78836988D01*
X143800220Y-78979845D01*
X145157363Y-80336988D02*
X145157363Y-78836988D01*
X145157363Y-80265559D02*
X145014506Y-80336988D01*
X144728792Y-80336988D01*
X144585935Y-80265559D01*
X144514506Y-80194131D01*
X144443078Y-80051274D01*
X144443078Y-79622702D01*
X144514506Y-79479845D01*
X144585935Y-79408417D01*
X144728792Y-79336988D01*
X145014506Y-79336988D01*
X145157363Y-79408417D01*
X146443078Y-80265559D02*
X146300220Y-80336988D01*
X146014506Y-80336988D01*
X145871649Y-80265559D01*
X145800220Y-80122702D01*
X145800220Y-79551274D01*
X145871649Y-79408417D01*
X146014506Y-79336988D01*
X146300220Y-79336988D01*
X146443078Y-79408417D01*
X146514506Y-79551274D01*
X146514506Y-79694131D01*
X145800220Y-79836988D01*
X148300220Y-80336988D02*
X148300220Y-79336988D01*
X148300220Y-78836988D02*
X148228792Y-78908417D01*
X148300220Y-78979845D01*
X148371649Y-78908417D01*
X148300220Y-78836988D01*
X148300220Y-78979845D01*
X148800220Y-79336988D02*
X149371649Y-79336988D01*
X149014506Y-80336988D02*
X149014506Y-79051274D01*
X149085935Y-78908417D01*
X149228792Y-78836988D01*
X149371649Y-78836988D01*
X150800220Y-79336988D02*
X151371649Y-79336988D01*
X151014506Y-78836988D02*
X151014506Y-80122702D01*
X151085935Y-80265559D01*
X151228792Y-80336988D01*
X151371649Y-80336988D01*
X151871649Y-80336988D02*
X151871649Y-78836988D01*
X152514506Y-80336988D02*
X152514506Y-79551274D01*
X152443078Y-79408417D01*
X152300220Y-79336988D01*
X152085935Y-79336988D01*
X151943078Y-79408417D01*
X151871649Y-79479845D01*
X153228792Y-80336988D02*
X153228792Y-79336988D01*
X153228792Y-78836988D02*
X153157363Y-78908417D01*
X153228792Y-78979845D01*
X153300220Y-78908417D01*
X153228792Y-78836988D01*
X153228792Y-78979845D01*
X153871649Y-80265559D02*
X154014506Y-80336988D01*
X154300220Y-80336988D01*
X154443078Y-80265559D01*
X154514506Y-80122702D01*
X154514506Y-80051274D01*
X154443078Y-79908417D01*
X154300220Y-79836988D01*
X154085935Y-79836988D01*
X153943078Y-79765559D01*
X153871649Y-79622702D01*
X153871649Y-79551274D01*
X153943078Y-79408417D01*
X154085935Y-79336988D01*
X154300220Y-79336988D01*
X154443078Y-79408417D01*
X137585935Y-82751988D02*
X137585935Y-81751988D01*
X137585935Y-81251988D02*
X137514506Y-81323417D01*
X137585935Y-81394845D01*
X137657363Y-81323417D01*
X137585935Y-81251988D01*
X137585935Y-81394845D01*
X138228792Y-82680559D02*
X138371649Y-82751988D01*
X138657363Y-82751988D01*
X138800220Y-82680559D01*
X138871649Y-82537702D01*
X138871649Y-82466274D01*
X138800220Y-82323417D01*
X138657363Y-82251988D01*
X138443078Y-82251988D01*
X138300220Y-82180559D01*
X138228792Y-82037702D01*
X138228792Y-81966274D01*
X138300220Y-81823417D01*
X138443078Y-81751988D01*
X138657363Y-81751988D01*
X138800220Y-81823417D01*
X140443078Y-81751988D02*
X141014506Y-81751988D01*
X140657363Y-81251988D02*
X140657363Y-82537702D01*
X140728792Y-82680559D01*
X140871649Y-82751988D01*
X141014506Y-82751988D01*
X141514506Y-82751988D02*
X141514506Y-81251988D01*
X142157363Y-82751988D02*
X142157363Y-81966274D01*
X142085935Y-81823417D01*
X141943078Y-81751988D01*
X141728792Y-81751988D01*
X141585935Y-81823417D01*
X141514506Y-81894845D01*
X143443078Y-82680559D02*
X143300220Y-82751988D01*
X143014506Y-82751988D01*
X142871649Y-82680559D01*
X142800220Y-82537702D01*
X142800220Y-81966274D01*
X142871649Y-81823417D01*
X143014506Y-81751988D01*
X143300220Y-81751988D01*
X143443078Y-81823417D01*
X143514506Y-81966274D01*
X143514506Y-82109131D01*
X142800220Y-82251988D01*
X145300220Y-82751988D02*
X145300220Y-81751988D01*
X145300220Y-82037702D02*
X145371649Y-81894845D01*
X145443078Y-81823417D01*
X145585935Y-81751988D01*
X145728792Y-81751988D01*
X146228792Y-82751988D02*
X146228792Y-81751988D01*
X146228792Y-81251988D02*
X146157363Y-81323417D01*
X146228792Y-81394845D01*
X146300220Y-81323417D01*
X146228792Y-81251988D01*
X146228792Y-81394845D01*
X147585935Y-81751988D02*
X147585935Y-82966274D01*
X147514506Y-83109131D01*
X147443078Y-83180559D01*
X147300220Y-83251988D01*
X147085935Y-83251988D01*
X146943078Y-83180559D01*
X147585935Y-82680559D02*
X147443078Y-82751988D01*
X147157363Y-82751988D01*
X147014506Y-82680559D01*
X146943078Y-82609131D01*
X146871649Y-82466274D01*
X146871649Y-82037702D01*
X146943078Y-81894845D01*
X147014506Y-81823417D01*
X147157363Y-81751988D01*
X147443078Y-81751988D01*
X147585935Y-81823417D01*
X148300220Y-82751988D02*
X148300220Y-81251988D01*
X148943078Y-82751988D02*
X148943078Y-81966274D01*
X148871649Y-81823417D01*
X148728792Y-81751988D01*
X148514506Y-81751988D01*
X148371649Y-81823417D01*
X148300220Y-81894845D01*
X149443078Y-81751988D02*
X150014506Y-81751988D01*
X149657363Y-81251988D02*
X149657363Y-82537702D01*
X149728792Y-82680559D01*
X149871649Y-82751988D01*
X150014506Y-82751988D01*
X151657363Y-82751988D02*
X151657363Y-81251988D01*
X152300220Y-82751988D02*
X152300220Y-81966274D01*
X152228792Y-81823417D01*
X152085935Y-81751988D01*
X151871649Y-81751988D01*
X151728792Y-81823417D01*
X151657363Y-81894845D01*
X153657363Y-82751988D02*
X153657363Y-81966274D01*
X153585935Y-81823417D01*
X153443078Y-81751988D01*
X153157363Y-81751988D01*
X153014506Y-81823417D01*
X153657363Y-82680559D02*
X153514506Y-82751988D01*
X153157363Y-82751988D01*
X153014506Y-82680559D01*
X152943078Y-82537702D01*
X152943078Y-82394845D01*
X153014506Y-82251988D01*
X153157363Y-82180559D01*
X153514506Y-82180559D01*
X153657363Y-82109131D01*
X154585935Y-82751988D02*
X154443078Y-82680559D01*
X154371649Y-82537702D01*
X154371649Y-81251988D01*
X154943078Y-81751988D02*
X155514506Y-81751988D01*
X155157363Y-82751988D02*
X155157363Y-81466274D01*
X155228792Y-81323417D01*
X155371649Y-81251988D01*
X155514506Y-81251988D01*
D11*
X75681173Y-102122702D02*
X75585935Y-102217940D01*
X75300220Y-102313178D01*
X75109744Y-102313178D01*
X74824030Y-102217940D01*
X74633554Y-102027464D01*
X74538316Y-101836988D01*
X74443078Y-101456036D01*
X74443078Y-101170321D01*
X74538316Y-100789369D01*
X74633554Y-100598893D01*
X74824030Y-100408417D01*
X75109744Y-100313178D01*
X75300220Y-100313178D01*
X75585935Y-100408417D01*
X75681173Y-100503655D01*
X77395458Y-102313178D02*
X77395458Y-101265559D01*
X77300220Y-101075083D01*
X77109744Y-100979845D01*
X76728792Y-100979845D01*
X76538316Y-101075083D01*
X77395458Y-102217940D02*
X77204982Y-102313178D01*
X76728792Y-102313178D01*
X76538316Y-102217940D01*
X76443078Y-102027464D01*
X76443078Y-101836988D01*
X76538316Y-101646512D01*
X76728792Y-101551274D01*
X77204982Y-101551274D01*
X77395458Y-101456036D01*
X78347839Y-100979845D02*
X78347839Y-102313178D01*
X78347839Y-101170321D02*
X78443078Y-101075083D01*
X78633554Y-100979845D01*
X78919268Y-100979845D01*
X79109744Y-101075083D01*
X79204982Y-101265559D01*
X79204982Y-102313178D01*
X79871649Y-100979845D02*
X80633554Y-100979845D01*
X80157363Y-100313178D02*
X80157363Y-102027464D01*
X80252601Y-102217940D01*
X80443078Y-102313178D01*
X80633554Y-102313178D01*
X82157363Y-102313178D02*
X82157363Y-101265559D01*
X82062125Y-101075083D01*
X81871649Y-100979845D01*
X81490697Y-100979845D01*
X81300220Y-101075083D01*
X82157363Y-102217940D02*
X81966887Y-102313178D01*
X81490697Y-102313178D01*
X81300220Y-102217940D01*
X81204982Y-102027464D01*
X81204982Y-101836988D01*
X81300220Y-101646512D01*
X81490697Y-101551274D01*
X81966887Y-101551274D01*
X82157363Y-101456036D01*
X83395458Y-102313178D02*
X83204982Y-102217940D01*
X83109744Y-102027464D01*
X83109744Y-100313178D01*
X84443077Y-102313178D02*
X84252601Y-102217940D01*
X84157363Y-102122702D01*
X84062125Y-101932226D01*
X84062125Y-101360797D01*
X84157363Y-101170321D01*
X84252601Y-101075083D01*
X84443077Y-100979845D01*
X84728792Y-100979845D01*
X84919268Y-101075083D01*
X85014506Y-101170321D01*
X85109744Y-101360797D01*
X85109744Y-101932226D01*
X85014506Y-102122702D01*
X84919268Y-102217940D01*
X84728792Y-102313178D01*
X84443077Y-102313178D01*
X86824030Y-100979845D02*
X86824030Y-102313178D01*
X85966887Y-100979845D02*
X85966887Y-102027464D01*
X86062125Y-102217940D01*
X86252601Y-102313178D01*
X86538316Y-102313178D01*
X86728792Y-102217940D01*
X86824030Y-102122702D01*
X87776411Y-100979845D02*
X87776411Y-102979845D01*
X87776411Y-101075083D02*
X87966887Y-100979845D01*
X88347839Y-100979845D01*
X88538316Y-101075083D01*
X88633554Y-101170321D01*
X88728792Y-101360797D01*
X88728792Y-101932226D01*
X88633554Y-102122702D01*
X88538316Y-102217940D01*
X88347839Y-102313178D01*
X87966887Y-102313178D01*
X87776411Y-102217940D01*
X90347839Y-102217940D02*
X90157363Y-102313178D01*
X89776411Y-102313178D01*
X89585935Y-102217940D01*
X89490697Y-102027464D01*
X89490697Y-101265559D01*
X89585935Y-101075083D01*
X89776411Y-100979845D01*
X90157363Y-100979845D01*
X90347839Y-101075083D01*
X90443078Y-101265559D01*
X90443078Y-101456036D01*
X89490697Y-101646512D01*
X92538316Y-100313178D02*
X93204982Y-102313178D01*
X93871649Y-100313178D01*
X94443077Y-100503655D02*
X94538316Y-100408417D01*
X94728792Y-100313178D01*
X95204982Y-100313178D01*
X95395458Y-100408417D01*
X95490697Y-100503655D01*
X95585935Y-100694131D01*
X95585935Y-100884607D01*
X95490697Y-101170321D01*
X94347839Y-102313178D01*
X95585935Y-102313178D01*
X96443077Y-102122702D02*
X96538316Y-102217940D01*
X96443077Y-102313178D01*
X96347839Y-102217940D01*
X96443077Y-102122702D01*
X96443077Y-102313178D01*
X98443077Y-102313178D02*
X97300220Y-102313178D01*
X97871649Y-102313178D02*
X97871649Y-100313178D01*
X97681173Y-100598893D01*
X97490697Y-100789369D01*
X97300220Y-100884607D01*
D12*
X157538503Y-68033417D02*
X157788503Y-67783417D01*
X153788503Y-59558417D02*
X152538503Y-59558417D01*
X159538503Y-73033417D02*
X159288503Y-73283417D01*
X153788503Y-62308417D02*
X154038503Y-62558417D01*
X152288503Y-59308417D02*
X152538503Y-59558417D01*
X149443078Y-23113420D02*
X149443078Y-23363420D01*
X154038503Y-60558417D02*
X154288503Y-60808417D01*
X150693078Y-31733417D02*
X150943078Y-31983417D01*
X150943078Y-31983417D02*
X150943078Y-32733417D01*
X153788503Y-59558417D02*
X154038503Y-59808417D01*
X151193078Y-30233417D02*
X151443078Y-30233417D01*
X152538503Y-59808417D02*
X153538503Y-59808417D01*
X154038503Y-59808417D02*
X154038503Y-60558417D01*
X150943078Y-32733417D02*
X151193078Y-32983417D01*
X155538503Y-24067009D02*
X155038503Y-24567009D01*
X156288503Y-68033417D02*
X157538503Y-68033417D01*
X148193078Y-31733417D02*
X150693078Y-31733417D01*
X155538503Y-21067009D02*
X155538503Y-24067009D01*
X153538503Y-59808417D02*
X153788503Y-60033417D01*
X151443078Y-30233417D02*
X151693078Y-30483417D01*
X153788503Y-60033417D02*
X153788503Y-62308417D01*
X159538503Y-66783417D02*
X159538503Y-73033417D01*
X152288503Y-60058417D02*
X152538503Y-59808417D01*
D13*
X153261220Y-48418440D02*
X154023125Y-48418440D01*
X156023125Y-48418440D02*
X156070744Y-48180345D01*
X156118363Y-48085107D01*
X156213601Y-48037488D01*
X156308839Y-48085107D01*
X156356458Y-48180345D01*
X156451697Y-48656535D01*
X156499316Y-48751773D01*
X156594554Y-48799392D01*
X156689792Y-48751773D01*
X156737411Y-48656535D01*
X156785030Y-48418440D01*
X158785030Y-48418440D02*
X159546935Y-48418440D01*
X159165982Y-48799392D02*
X159165982Y-48037488D01*
X141761220Y-63990559D02*
X141713601Y-64038178D01*
X141570744Y-64085797D01*
X141475506Y-64085797D01*
X141332649Y-64038178D01*
X141237411Y-63942940D01*
X141189792Y-63847702D01*
X141142173Y-63657226D01*
X141142173Y-63514369D01*
X141189792Y-63323893D01*
X141237411Y-63228655D01*
X141332649Y-63133417D01*
X141475506Y-63085797D01*
X141570744Y-63085797D01*
X141713601Y-63133417D01*
X141761220Y-63181036D01*
X142713601Y-64085797D02*
X142142173Y-64085797D01*
X142427887Y-64085797D02*
X142427887Y-63085797D01*
X142332649Y-63228655D01*
X142237411Y-63323893D01*
X142142173Y-63371512D01*
X143094554Y-63181036D02*
X143142173Y-63133417D01*
X143237411Y-63085797D01*
X143475506Y-63085797D01*
X143570744Y-63133417D01*
X143618363Y-63181036D01*
X143665982Y-63276274D01*
X143665982Y-63371512D01*
X143618363Y-63514369D01*
X143046935Y-64085797D01*
X143665982Y-64085797D01*
X137776604Y-51066385D02*
X137776604Y-51875909D01*
X137824223Y-51971147D01*
X137871842Y-52018766D01*
X137967080Y-52066385D01*
X138157556Y-52066385D01*
X138252794Y-52018766D01*
X138300413Y-51971147D01*
X138348032Y-51875909D01*
X138348032Y-51066385D01*
X139348032Y-52066385D02*
X138776604Y-52066385D01*
X139062318Y-52066385D02*
X139062318Y-51066385D01*
X138967080Y-51209243D01*
X138871842Y-51304481D01*
X138776604Y-51352100D01*
X139187411Y-61954154D02*
X139139792Y-62001773D01*
X138996935Y-62049392D01*
X138901697Y-62049392D01*
X138758839Y-62001773D01*
X138663601Y-61906535D01*
X138615982Y-61811297D01*
X138568363Y-61620821D01*
X138568363Y-61477964D01*
X138615982Y-61287488D01*
X138663601Y-61192250D01*
X138758839Y-61097012D01*
X138901697Y-61049392D01*
X138996935Y-61049392D01*
X139139792Y-61097012D01*
X139187411Y-61144631D01*
X139520744Y-61049392D02*
X140139792Y-61049392D01*
X139806458Y-61430345D01*
X139949316Y-61430345D01*
X140044554Y-61477964D01*
X140092173Y-61525583D01*
X140139792Y-61620821D01*
X140139792Y-61858916D01*
X140092173Y-61954154D01*
X140044554Y-62001773D01*
X139949316Y-62049392D01*
X139663601Y-62049392D01*
X139568363Y-62001773D01*
X139520744Y-61954154D01*
X137277887Y-68573202D02*
X137277887Y-69049392D01*
X136944554Y-68049392D02*
X137277887Y-68573202D01*
X137611220Y-68049392D01*
X138468363Y-69049392D02*
X137896935Y-69049392D01*
X138182649Y-69049392D02*
X138182649Y-68049392D01*
X138087411Y-68192250D01*
X137992173Y-68287488D01*
X137896935Y-68335107D01*
X133116191Y-89924151D02*
X133068572Y-89971770D01*
X132925715Y-90019389D01*
X132830477Y-90019389D01*
X132687619Y-89971770D01*
X132592381Y-89876532D01*
X132544762Y-89781294D01*
X132497143Y-89590818D01*
X132497143Y-89447961D01*
X132544762Y-89257485D01*
X132592381Y-89162247D01*
X132687619Y-89067009D01*
X132830477Y-89019389D01*
X132925715Y-89019389D01*
X133068572Y-89067009D01*
X133116191Y-89114628D01*
X133497143Y-89114628D02*
X133544762Y-89067009D01*
X133640000Y-89019389D01*
X133878096Y-89019389D01*
X133973334Y-89067009D01*
X134020953Y-89114628D01*
X134068572Y-89209866D01*
X134068572Y-89305104D01*
X134020953Y-89447961D01*
X133449524Y-90019389D01*
X134068572Y-90019389D01*
X130895645Y-60924151D02*
X130848026Y-60971770D01*
X130705169Y-61019389D01*
X130609931Y-61019389D01*
X130467074Y-60971770D01*
X130371836Y-60876532D01*
X130324217Y-60781294D01*
X130276598Y-60590818D01*
X130276598Y-60447961D01*
X130324217Y-60257485D01*
X130371836Y-60162247D01*
X130467074Y-60067009D01*
X130609931Y-60019389D01*
X130705169Y-60019389D01*
X130848026Y-60067009D01*
X130895645Y-60114628D01*
X131848026Y-61019389D02*
X131276598Y-61019389D01*
X131562312Y-61019389D02*
X131562312Y-60019389D01*
X131467074Y-60162247D01*
X131371836Y-60257485D01*
X131276598Y-60305104D01*
X132800407Y-61019389D02*
X132228979Y-61019389D01*
X132514693Y-61019389D02*
X132514693Y-60019389D01*
X132419455Y-60162247D01*
X132324217Y-60257485D01*
X132228979Y-60305104D01*
X133121836Y-88174151D02*
X133074217Y-88221770D01*
X132931360Y-88269389D01*
X132836122Y-88269389D01*
X132693264Y-88221770D01*
X132598026Y-88126532D01*
X132550407Y-88031294D01*
X132502788Y-87840818D01*
X132502788Y-87697961D01*
X132550407Y-87507485D01*
X132598026Y-87412247D01*
X132693264Y-87317009D01*
X132836122Y-87269389D01*
X132931360Y-87269389D01*
X133074217Y-87317009D01*
X133121836Y-87364628D01*
X133978979Y-87602723D02*
X133978979Y-88269389D01*
X133740883Y-87221770D02*
X133502788Y-87936056D01*
X134121836Y-87936056D01*
X134395645Y-50490559D02*
X134348026Y-50538178D01*
X134205169Y-50585797D01*
X134109931Y-50585797D01*
X133967074Y-50538178D01*
X133871836Y-50442940D01*
X133824217Y-50347702D01*
X133776598Y-50157226D01*
X133776598Y-50014369D01*
X133824217Y-49823893D01*
X133871836Y-49728655D01*
X133967074Y-49633417D01*
X134109931Y-49585797D01*
X134205169Y-49585797D01*
X134348026Y-49633417D01*
X134395645Y-49681036D01*
X135348026Y-50585797D02*
X134776598Y-50585797D01*
X135062312Y-50585797D02*
X135062312Y-49585797D01*
X134967074Y-49728655D01*
X134871836Y-49823893D01*
X134776598Y-49871512D01*
X135967074Y-49585797D02*
X136062312Y-49585797D01*
X136157550Y-49633417D01*
X136205169Y-49681036D01*
X136252788Y-49776274D01*
X136300407Y-49966750D01*
X136300407Y-50204845D01*
X136252788Y-50395321D01*
X136205169Y-50490559D01*
X136157550Y-50538178D01*
X136062312Y-50585797D01*
X135967074Y-50585797D01*
X135871836Y-50538178D01*
X135824217Y-50490559D01*
X135776598Y-50395321D01*
X135728979Y-50204845D01*
X135728979Y-49966750D01*
X135776598Y-49776274D01*
X135824217Y-49681036D01*
X135871836Y-49633417D01*
X135967074Y-49585797D01*
X142895645Y-50490559D02*
X142848026Y-50538178D01*
X142705169Y-50585797D01*
X142609931Y-50585797D01*
X142467074Y-50538178D01*
X142371836Y-50442940D01*
X142324217Y-50347702D01*
X142276598Y-50157226D01*
X142276598Y-50014369D01*
X142324217Y-49823893D01*
X142371836Y-49728655D01*
X142467074Y-49633417D01*
X142609931Y-49585797D01*
X142705169Y-49585797D01*
X142848026Y-49633417D01*
X142895645Y-49681036D01*
X143848026Y-50585797D02*
X143276598Y-50585797D01*
X143562312Y-50585797D02*
X143562312Y-49585797D01*
X143467074Y-49728655D01*
X143371836Y-49823893D01*
X143276598Y-49871512D01*
X144181360Y-49585797D02*
X144800407Y-49585797D01*
X144467074Y-49966750D01*
X144609931Y-49966750D01*
X144705169Y-50014369D01*
X144752788Y-50061988D01*
X144800407Y-50157226D01*
X144800407Y-50395321D01*
X144752788Y-50490559D01*
X144705169Y-50538178D01*
X144609931Y-50585797D01*
X144324217Y-50585797D01*
X144228979Y-50538178D01*
X144181360Y-50490559D01*
X133121836Y-84769389D02*
X132788503Y-84293199D01*
X132550407Y-84769389D02*
X132550407Y-83769389D01*
X132931360Y-83769389D01*
X133026598Y-83817009D01*
X133074217Y-83864628D01*
X133121836Y-83959866D01*
X133121836Y-84102723D01*
X133074217Y-84197961D01*
X133026598Y-84245580D01*
X132931360Y-84293199D01*
X132550407Y-84293199D01*
X133455169Y-83769389D02*
X134074217Y-83769389D01*
X133740883Y-84150342D01*
X133883741Y-84150342D01*
X133978979Y-84197961D01*
X134026598Y-84245580D01*
X134074217Y-84340818D01*
X134074217Y-84578913D01*
X134026598Y-84674151D01*
X133978979Y-84721770D01*
X133883741Y-84769389D01*
X133598026Y-84769389D01*
X133502788Y-84721770D01*
X133455169Y-84674151D01*
X133081829Y-91769389D02*
X132748496Y-91293199D01*
X132510400Y-91769389D02*
X132510400Y-90769389D01*
X132891353Y-90769389D01*
X132986591Y-90817009D01*
X133034210Y-90864628D01*
X133081829Y-90959866D01*
X133081829Y-91102723D01*
X133034210Y-91197961D01*
X132986591Y-91245580D01*
X132891353Y-91293199D01*
X132510400Y-91293199D01*
X133462781Y-90864628D02*
X133510400Y-90817009D01*
X133605638Y-90769389D01*
X133843734Y-90769389D01*
X133938972Y-90817009D01*
X133986591Y-90864628D01*
X134034210Y-90959866D01*
X134034210Y-91055104D01*
X133986591Y-91197961D01*
X133415162Y-91769389D01*
X134034210Y-91769389D01*
X133116192Y-93543073D02*
X132782859Y-93066883D01*
X132544763Y-93543073D02*
X132544763Y-92543073D01*
X132925716Y-92543073D01*
X133020954Y-92590693D01*
X133068573Y-92638312D01*
X133116192Y-92733550D01*
X133116192Y-92876407D01*
X133068573Y-92971645D01*
X133020954Y-93019264D01*
X132925716Y-93066883D01*
X132544763Y-93066883D01*
X134068573Y-93543073D02*
X133497144Y-93543073D01*
X133782859Y-93543073D02*
X133782859Y-92543073D01*
X133687620Y-92685931D01*
X133592382Y-92781169D01*
X133497144Y-92828788D01*
X133121836Y-86519389D02*
X132788503Y-86043199D01*
X132550407Y-86519389D02*
X132550407Y-85519389D01*
X132931360Y-85519389D01*
X133026598Y-85567009D01*
X133074217Y-85614628D01*
X133121836Y-85709866D01*
X133121836Y-85852723D01*
X133074217Y-85947961D01*
X133026598Y-85995580D01*
X132931360Y-86043199D01*
X132550407Y-86043199D01*
X133978979Y-85852723D02*
X133978979Y-86519389D01*
X133740883Y-85471770D02*
X133502788Y-86186056D01*
X134121836Y-86186056D01*
X135987411Y-61954154D02*
X135939792Y-62001773D01*
X135796935Y-62049392D01*
X135701697Y-62049392D01*
X135558839Y-62001773D01*
X135463601Y-61906535D01*
X135415982Y-61811297D01*
X135368363Y-61620821D01*
X135368363Y-61477964D01*
X135415982Y-61287488D01*
X135463601Y-61192250D01*
X135558839Y-61097012D01*
X135701697Y-61049392D01*
X135796935Y-61049392D01*
X135939792Y-61097012D01*
X135987411Y-61144631D01*
X136939792Y-62049392D02*
X136368363Y-62049392D01*
X136654078Y-62049392D02*
X136654078Y-61049392D01*
X136558839Y-61192250D01*
X136463601Y-61287488D01*
X136368363Y-61335107D01*
X146431173Y-30685797D02*
X146431173Y-31495321D01*
X146478792Y-31590559D01*
X146526411Y-31638178D01*
X146621649Y-31685797D01*
X146812125Y-31685797D01*
X146907363Y-31638178D01*
X146954982Y-31590559D01*
X147002601Y-31495321D01*
X147002601Y-30685797D01*
X147907363Y-31019131D02*
X147907363Y-31685797D01*
X147669268Y-30638178D02*
X147431173Y-31352464D01*
X148050220Y-31352464D01*
X145871836Y-52240559D02*
X145824217Y-52288178D01*
X145681360Y-52335797D01*
X145586122Y-52335797D01*
X145443264Y-52288178D01*
X145348026Y-52192940D01*
X145300407Y-52097702D01*
X145252788Y-51907226D01*
X145252788Y-51764369D01*
X145300407Y-51573893D01*
X145348026Y-51478655D01*
X145443264Y-51383417D01*
X145586122Y-51335797D01*
X145681360Y-51335797D01*
X145824217Y-51383417D01*
X145871836Y-51431036D01*
X146776598Y-51335797D02*
X146300407Y-51335797D01*
X146252788Y-51811988D01*
X146300407Y-51764369D01*
X146395645Y-51716750D01*
X146633741Y-51716750D01*
X146728979Y-51764369D01*
X146776598Y-51811988D01*
X146824217Y-51907226D01*
X146824217Y-52145321D01*
X146776598Y-52240559D01*
X146728979Y-52288178D01*
X146633741Y-52335797D01*
X146395645Y-52335797D01*
X146300407Y-52288178D01*
X146252788Y-52240559D01*
X145871836Y-57335797D02*
X145538503Y-56859607D01*
X145300407Y-57335797D02*
X145300407Y-56335797D01*
X145681360Y-56335797D01*
X145776598Y-56383417D01*
X145824217Y-56431036D01*
X145871836Y-56526274D01*
X145871836Y-56669131D01*
X145824217Y-56764369D01*
X145776598Y-56811988D01*
X145681360Y-56859607D01*
X145300407Y-56859607D01*
X146205169Y-56335797D02*
X146871836Y-56335797D01*
X146443264Y-57335797D01*
X148455169Y-49699392D02*
X148455169Y-50413678D01*
X148407550Y-50556535D01*
X148312312Y-50651773D01*
X148169455Y-50699392D01*
X148074217Y-50699392D01*
X148931360Y-50699392D02*
X148931360Y-49699392D01*
X149312312Y-49699392D01*
X149407550Y-49747012D01*
X149455169Y-49794631D01*
X149502788Y-49889869D01*
X149502788Y-50032726D01*
X149455169Y-50127964D01*
X149407550Y-50175583D01*
X149312312Y-50223202D01*
X148931360Y-50223202D01*
X149883741Y-49794631D02*
X149931360Y-49747012D01*
X150026598Y-49699392D01*
X150264693Y-49699392D01*
X150359931Y-49747012D01*
X150407550Y-49794631D01*
X150455169Y-49889869D01*
X150455169Y-49985107D01*
X150407550Y-50127964D01*
X149836122Y-50699392D01*
X150455169Y-50699392D01*
X148963839Y-56385115D02*
X148630506Y-55908925D01*
X148392410Y-56385115D02*
X148392410Y-55385115D01*
X148773363Y-55385115D01*
X148868601Y-55432735D01*
X148916220Y-55480354D01*
X148963839Y-55575592D01*
X148963839Y-55718449D01*
X148916220Y-55813687D01*
X148868601Y-55861306D01*
X148773363Y-55908925D01*
X148392410Y-55908925D01*
X149820982Y-55385115D02*
X149630506Y-55385115D01*
X149535267Y-55432735D01*
X149487648Y-55480354D01*
X149392410Y-55623211D01*
X149344791Y-55813687D01*
X149344791Y-56194639D01*
X149392410Y-56289877D01*
X149440029Y-56337496D01*
X149535267Y-56385115D01*
X149725744Y-56385115D01*
X149820982Y-56337496D01*
X149868601Y-56289877D01*
X149916220Y-56194639D01*
X149916220Y-55956544D01*
X149868601Y-55861306D01*
X149820982Y-55813687D01*
X149725744Y-55766068D01*
X149535267Y-55766068D01*
X149440029Y-55813687D01*
X149392410Y-55861306D01*
X149344791Y-55956544D01*
X145050220Y-39185797D02*
X144716887Y-38709607D01*
X144478792Y-39185797D02*
X144478792Y-38185797D01*
X144859744Y-38185797D01*
X144954982Y-38233417D01*
X145002601Y-38281036D01*
X145050220Y-38376274D01*
X145050220Y-38519131D01*
X145002601Y-38614369D01*
X144954982Y-38661988D01*
X144859744Y-38709607D01*
X144478792Y-38709607D01*
X146002601Y-39185797D02*
X145431173Y-39185797D01*
X145716887Y-39185797D02*
X145716887Y-38185797D01*
X145621649Y-38328655D01*
X145526411Y-38423893D01*
X145431173Y-38471512D01*
X146859744Y-38519131D02*
X146859744Y-39185797D01*
X146621649Y-38138178D02*
X146383554Y-38852464D01*
X147002601Y-38852464D01*
X157895645Y-56735797D02*
X157562312Y-56259607D01*
X157324217Y-56735797D02*
X157324217Y-55735797D01*
X157705169Y-55735797D01*
X157800407Y-55783417D01*
X157848026Y-55831036D01*
X157895645Y-55926274D01*
X157895645Y-56069131D01*
X157848026Y-56164369D01*
X157800407Y-56211988D01*
X157705169Y-56259607D01*
X157324217Y-56259607D01*
X158848026Y-56735797D02*
X158276598Y-56735797D01*
X158562312Y-56735797D02*
X158562312Y-55735797D01*
X158467074Y-55878655D01*
X158371836Y-55973893D01*
X158276598Y-56021512D01*
X159800407Y-56735797D02*
X159228979Y-56735797D01*
X159514693Y-56735797D02*
X159514693Y-55735797D01*
X159419455Y-55878655D01*
X159324217Y-55973893D01*
X159228979Y-56021512D01*
X158871836Y-53510797D02*
X158538503Y-53034607D01*
X158300407Y-53510797D02*
X158300407Y-52510797D01*
X158681360Y-52510797D01*
X158776598Y-52558417D01*
X158824217Y-52606036D01*
X158871836Y-52701274D01*
X158871836Y-52844131D01*
X158824217Y-52939369D01*
X158776598Y-52986988D01*
X158681360Y-53034607D01*
X158300407Y-53034607D01*
X159776598Y-52510797D02*
X159300407Y-52510797D01*
X159252788Y-52986988D01*
X159300407Y-52939369D01*
X159395645Y-52891750D01*
X159633741Y-52891750D01*
X159728979Y-52939369D01*
X159776598Y-52986988D01*
X159824217Y-53082226D01*
X159824217Y-53320321D01*
X159776598Y-53415559D01*
X159728979Y-53463178D01*
X159633741Y-53510797D01*
X159395645Y-53510797D01*
X159300407Y-53463178D01*
X159252788Y-53415559D01*
X150145645Y-59386392D02*
X149812312Y-58910202D01*
X149574217Y-59386392D02*
X149574217Y-58386392D01*
X149955169Y-58386392D01*
X150050407Y-58434012D01*
X150098026Y-58481631D01*
X150145645Y-58576869D01*
X150145645Y-58719726D01*
X150098026Y-58814964D01*
X150050407Y-58862583D01*
X149955169Y-58910202D01*
X149574217Y-58910202D01*
X151098026Y-59386392D02*
X150526598Y-59386392D01*
X150812312Y-59386392D02*
X150812312Y-58386392D01*
X150717074Y-58529250D01*
X150621836Y-58624488D01*
X150526598Y-58672107D01*
X151955169Y-58386392D02*
X151764693Y-58386392D01*
X151669455Y-58434012D01*
X151621836Y-58481631D01*
X151526598Y-58624488D01*
X151478979Y-58814964D01*
X151478979Y-59195916D01*
X151526598Y-59291154D01*
X151574217Y-59338773D01*
X151669455Y-59386392D01*
X151859931Y-59386392D01*
X151955169Y-59338773D01*
X152002788Y-59291154D01*
X152050407Y-59195916D01*
X152050407Y-58957821D01*
X152002788Y-58862583D01*
X151955169Y-58814964D01*
X151859931Y-58767345D01*
X151669455Y-58767345D01*
X151574217Y-58814964D01*
X151526598Y-58862583D01*
X151478979Y-58957821D01*
X151776411Y-37490559D02*
X151728792Y-37538178D01*
X151585935Y-37585797D01*
X151490697Y-37585797D01*
X151347839Y-37538178D01*
X151252601Y-37442940D01*
X151204982Y-37347702D01*
X151157363Y-37157226D01*
X151157363Y-37014369D01*
X151204982Y-36823893D01*
X151252601Y-36728655D01*
X151347839Y-36633417D01*
X151490697Y-36585797D01*
X151585935Y-36585797D01*
X151728792Y-36633417D01*
X151776411Y-36681036D01*
X152347839Y-37014369D02*
X152252601Y-36966750D01*
X152204982Y-36919131D01*
X152157363Y-36823893D01*
X152157363Y-36776274D01*
X152204982Y-36681036D01*
X152252601Y-36633417D01*
X152347839Y-36585797D01*
X152538316Y-36585797D01*
X152633554Y-36633417D01*
X152681173Y-36681036D01*
X152728792Y-36776274D01*
X152728792Y-36823893D01*
X152681173Y-36919131D01*
X152633554Y-36966750D01*
X152538316Y-37014369D01*
X152347839Y-37014369D01*
X152252601Y-37061988D01*
X152204982Y-37109607D01*
X152157363Y-37204845D01*
X152157363Y-37395321D01*
X152204982Y-37490559D01*
X152252601Y-37538178D01*
X152347839Y-37585797D01*
X152538316Y-37585797D01*
X152633554Y-37538178D01*
X152681173Y-37490559D01*
X152728792Y-37395321D01*
X152728792Y-37204845D01*
X152681173Y-37109607D01*
X152633554Y-37061988D01*
X152538316Y-37014369D01*
X150145645Y-57636392D02*
X149812312Y-57160202D01*
X149574217Y-57636392D02*
X149574217Y-56636392D01*
X149955169Y-56636392D01*
X150050407Y-56684012D01*
X150098026Y-56731631D01*
X150145645Y-56826869D01*
X150145645Y-56969726D01*
X150098026Y-57064964D01*
X150050407Y-57112583D01*
X149955169Y-57160202D01*
X149574217Y-57160202D01*
X151098026Y-57636392D02*
X150526598Y-57636392D01*
X150812312Y-57636392D02*
X150812312Y-56636392D01*
X150717074Y-56779250D01*
X150621836Y-56874488D01*
X150526598Y-56922107D01*
X151478979Y-56731631D02*
X151526598Y-56684012D01*
X151621836Y-56636392D01*
X151859931Y-56636392D01*
X151955169Y-56684012D01*
X152002788Y-56731631D01*
X152050407Y-56826869D01*
X152050407Y-56922107D01*
X152002788Y-57064964D01*
X151431360Y-57636392D01*
X152050407Y-57636392D01*
X154681173Y-42269389D02*
X154681173Y-43078913D01*
X154728792Y-43174151D01*
X154776411Y-43221770D01*
X154871649Y-43269389D01*
X155062125Y-43269389D01*
X155157363Y-43221770D01*
X155204982Y-43174151D01*
X155252601Y-43078913D01*
X155252601Y-42269389D01*
X155681173Y-42364628D02*
X155728792Y-42317009D01*
X155824030Y-42269389D01*
X156062125Y-42269389D01*
X156157363Y-42317009D01*
X156204982Y-42364628D01*
X156252601Y-42459866D01*
X156252601Y-42555104D01*
X156204982Y-42697961D01*
X155633554Y-43269389D01*
X156252601Y-43269389D01*
X150145645Y-64985797D02*
X149812312Y-64509607D01*
X149574217Y-64985797D02*
X149574217Y-63985797D01*
X149955169Y-63985797D01*
X150050407Y-64033417D01*
X150098026Y-64081036D01*
X150145645Y-64176274D01*
X150145645Y-64319131D01*
X150098026Y-64414369D01*
X150050407Y-64461988D01*
X149955169Y-64509607D01*
X149574217Y-64509607D01*
X151098026Y-64985797D02*
X150526598Y-64985797D01*
X150812312Y-64985797D02*
X150812312Y-63985797D01*
X150717074Y-64128655D01*
X150621836Y-64223893D01*
X150526598Y-64271512D01*
X151431360Y-63985797D02*
X152098026Y-63985797D01*
X151669455Y-64985797D01*
X158359744Y-23661988D02*
X158026411Y-23661988D01*
X158026411Y-24185797D02*
X158026411Y-23185797D01*
X158502601Y-23185797D01*
X159216887Y-23661988D02*
X159359744Y-23709607D01*
X159407363Y-23757226D01*
X159454982Y-23852464D01*
X159454982Y-23995321D01*
X159407363Y-24090559D01*
X159359744Y-24138178D01*
X159264506Y-24185797D01*
X158883554Y-24185797D01*
X158883554Y-23185797D01*
X159216887Y-23185797D01*
X159312125Y-23233417D01*
X159359744Y-23281036D01*
X159407363Y-23376274D01*
X159407363Y-23471512D01*
X159359744Y-23566750D01*
X159312125Y-23614369D01*
X159216887Y-23661988D01*
X158883554Y-23661988D01*
X159835935Y-23281036D02*
X159883554Y-23233417D01*
X159978792Y-23185797D01*
X160216887Y-23185797D01*
X160312125Y-23233417D01*
X160359744Y-23281036D01*
X160407363Y-23376274D01*
X160407363Y-23471512D01*
X160359744Y-23614369D01*
X159788316Y-24185797D01*
X160407363Y-24185797D01*
X148300220Y-23035797D02*
X147966887Y-22559607D01*
X147728792Y-23035797D02*
X147728792Y-22035797D01*
X148109744Y-22035797D01*
X148204982Y-22083417D01*
X148252601Y-22131036D01*
X148300220Y-22226274D01*
X148300220Y-22369131D01*
X148252601Y-22464369D01*
X148204982Y-22511988D01*
X148109744Y-22559607D01*
X147728792Y-22559607D01*
X149252601Y-23035797D02*
X148681173Y-23035797D01*
X148966887Y-23035797D02*
X148966887Y-22035797D01*
X148871649Y-22178655D01*
X148776411Y-22273893D01*
X148681173Y-22321512D01*
X149824030Y-22464369D02*
X149728792Y-22416750D01*
X149681173Y-22369131D01*
X149633554Y-22273893D01*
X149633554Y-22226274D01*
X149681173Y-22131036D01*
X149728792Y-22083417D01*
X149824030Y-22035797D01*
X150014506Y-22035797D01*
X150109744Y-22083417D01*
X150157363Y-22131036D01*
X150204982Y-22226274D01*
X150204982Y-22273893D01*
X150157363Y-22369131D01*
X150109744Y-22416750D01*
X150014506Y-22464369D01*
X149824030Y-22464369D01*
X149728792Y-22511988D01*
X149681173Y-22559607D01*
X149633554Y-22654845D01*
X149633554Y-22845321D01*
X149681173Y-22940559D01*
X149728792Y-22988178D01*
X149824030Y-23035797D01*
X150014506Y-23035797D01*
X150109744Y-22988178D01*
X150157363Y-22940559D01*
X150204982Y-22845321D01*
X150204982Y-22654845D01*
X150157363Y-22559607D01*
X150109744Y-22511988D01*
X150014506Y-22464369D01*
X155943264Y-56606036D02*
X155848026Y-56558417D01*
X155752788Y-56463178D01*
X155609931Y-56320321D01*
X155514693Y-56272702D01*
X155419455Y-56272702D01*
X155467074Y-56510797D02*
X155371836Y-56463178D01*
X155276598Y-56367940D01*
X155228979Y-56177464D01*
X155228979Y-55844131D01*
X155276598Y-55653655D01*
X155371836Y-55558417D01*
X155467074Y-55510797D01*
X155657550Y-55510797D01*
X155752788Y-55558417D01*
X155848026Y-55653655D01*
X155895645Y-55844131D01*
X155895645Y-56177464D01*
X155848026Y-56367940D01*
X155752788Y-56463178D01*
X155657550Y-56510797D01*
X155467074Y-56510797D01*
X156848026Y-56510797D02*
X156276598Y-56510797D01*
X156562312Y-56510797D02*
X156562312Y-55510797D01*
X156467074Y-55653655D01*
X156371836Y-55748893D01*
X156276598Y-55796512D01*
X148478792Y-31110797D02*
X148478792Y-30110797D01*
X148716887Y-30110797D01*
X148859744Y-30158417D01*
X148954982Y-30253655D01*
X149002601Y-30348893D01*
X149050220Y-30539369D01*
X149050220Y-30682226D01*
X149002601Y-30872702D01*
X148954982Y-30967940D01*
X148859744Y-31063178D01*
X148716887Y-31110797D01*
X148478792Y-31110797D01*
X149383554Y-30110797D02*
X150002601Y-30110797D01*
X149669268Y-30491750D01*
X149812125Y-30491750D01*
X149907363Y-30539369D01*
X149954982Y-30586988D01*
X150002601Y-30682226D01*
X150002601Y-30920321D01*
X149954982Y-31015559D01*
X149907363Y-31063178D01*
X149812125Y-31110797D01*
X149526411Y-31110797D01*
X149431173Y-31063178D01*
X149383554Y-31015559D01*
X150335935Y-30110797D02*
X150954982Y-30110797D01*
X150621649Y-30491750D01*
X150764506Y-30491750D01*
X150859744Y-30539369D01*
X150907363Y-30586988D01*
X150954982Y-30682226D01*
X150954982Y-30920321D01*
X150907363Y-31015559D01*
X150859744Y-31063178D01*
X150764506Y-31110797D01*
X150478792Y-31110797D01*
X150383554Y-31063178D01*
X150335935Y-31015559D01*
X146931173Y-27685797D02*
X146931173Y-28495321D01*
X146978792Y-28590559D01*
X147026411Y-28638178D01*
X147121649Y-28685797D01*
X147312125Y-28685797D01*
X147407363Y-28638178D01*
X147454982Y-28590559D01*
X147502601Y-28495321D01*
X147502601Y-27685797D01*
X147883554Y-27685797D02*
X148502601Y-27685797D01*
X148169268Y-28066750D01*
X148312125Y-28066750D01*
X148407363Y-28114369D01*
X148454982Y-28161988D01*
X148502601Y-28257226D01*
X148502601Y-28495321D01*
X148454982Y-28590559D01*
X148407363Y-28638178D01*
X148312125Y-28685797D01*
X148026411Y-28685797D01*
X147931173Y-28638178D01*
X147883554Y-28590559D01*
X138728792Y-25360797D02*
X138728792Y-24360797D01*
X138966887Y-24360797D01*
X139109744Y-24408417D01*
X139204982Y-24503655D01*
X139252601Y-24598893D01*
X139300220Y-24789369D01*
X139300220Y-24932226D01*
X139252601Y-25122702D01*
X139204982Y-25217940D01*
X139109744Y-25313178D01*
X138966887Y-25360797D01*
X138728792Y-25360797D01*
X139633554Y-24360797D02*
X140252601Y-24360797D01*
X139919268Y-24741750D01*
X140062125Y-24741750D01*
X140157363Y-24789369D01*
X140204982Y-24836988D01*
X140252601Y-24932226D01*
X140252601Y-25170321D01*
X140204982Y-25265559D01*
X140157363Y-25313178D01*
X140062125Y-25360797D01*
X139776411Y-25360797D01*
X139681173Y-25313178D01*
X139633554Y-25265559D01*
X141157363Y-24360797D02*
X140681173Y-24360797D01*
X140633554Y-24836988D01*
X140681173Y-24789369D01*
X140776411Y-24741750D01*
X141014506Y-24741750D01*
X141109744Y-24789369D01*
X141157363Y-24836988D01*
X141204982Y-24932226D01*
X141204982Y-25170321D01*
X141157363Y-25265559D01*
X141109744Y-25313178D01*
X141014506Y-25360797D01*
X140776411Y-25360797D01*
X140681173Y-25313178D01*
X140633554Y-25265559D01*
X152693264Y-67606036D02*
X152598026Y-67558417D01*
X152502788Y-67463178D01*
X152359931Y-67320321D01*
X152264693Y-67272702D01*
X152169455Y-67272702D01*
X152217074Y-67510797D02*
X152121836Y-67463178D01*
X152026598Y-67367940D01*
X151978979Y-67177464D01*
X151978979Y-66844131D01*
X152026598Y-66653655D01*
X152121836Y-66558417D01*
X152217074Y-66510797D01*
X152407550Y-66510797D01*
X152502788Y-66558417D01*
X152598026Y-66653655D01*
X152645645Y-66844131D01*
X152645645Y-67177464D01*
X152598026Y-67367940D01*
X152502788Y-67463178D01*
X152407550Y-67510797D01*
X152217074Y-67510797D01*
X153026598Y-66606036D02*
X153074217Y-66558417D01*
X153169455Y-66510797D01*
X153407550Y-66510797D01*
X153502788Y-66558417D01*
X153550407Y-66606036D01*
X153598026Y-66701274D01*
X153598026Y-66796512D01*
X153550407Y-66939369D01*
X152978979Y-67510797D01*
X153598026Y-67510797D01*
X151776411Y-40590559D02*
X151728792Y-40638178D01*
X151585935Y-40685797D01*
X151490697Y-40685797D01*
X151347839Y-40638178D01*
X151252601Y-40542940D01*
X151204982Y-40447702D01*
X151157363Y-40257226D01*
X151157363Y-40114369D01*
X151204982Y-39923893D01*
X151252601Y-39828655D01*
X151347839Y-39733417D01*
X151490697Y-39685797D01*
X151585935Y-39685797D01*
X151728792Y-39733417D01*
X151776411Y-39781036D01*
X152252601Y-40685797D02*
X152443078Y-40685797D01*
X152538316Y-40638178D01*
X152585935Y-40590559D01*
X152681173Y-40447702D01*
X152728792Y-40257226D01*
X152728792Y-39876274D01*
X152681173Y-39781036D01*
X152633554Y-39733417D01*
X152538316Y-39685797D01*
X152347839Y-39685797D01*
X152252601Y-39733417D01*
X152204982Y-39781036D01*
X152157363Y-39876274D01*
X152157363Y-40114369D01*
X152204982Y-40209607D01*
X152252601Y-40257226D01*
X152347839Y-40304845D01*
X152538316Y-40304845D01*
X152633554Y-40257226D01*
X152681173Y-40209607D01*
X152728792Y-40114369D01*
X151074083Y-52510847D02*
X151074083Y-51510737D01*
X151312205Y-51510737D01*
X151455078Y-51558362D01*
X151550326Y-51653610D01*
X151597950Y-51748859D01*
X151645575Y-51939356D01*
X151645575Y-52082229D01*
X151597950Y-52272726D01*
X151550326Y-52367974D01*
X151455078Y-52463223D01*
X151312205Y-52510847D01*
X151074083Y-52510847D01*
X151978945Y-51510737D02*
X152598060Y-51510737D01*
X152264690Y-51891732D01*
X152407563Y-51891732D01*
X152502812Y-51939356D01*
X152550436Y-51986980D01*
X152598060Y-52082229D01*
X152598060Y-52320350D01*
X152550436Y-52415599D01*
X152502812Y-52463223D01*
X152407563Y-52510847D01*
X152121818Y-52510847D01*
X152026569Y-52463223D01*
X151978945Y-52415599D01*
X152931430Y-51510737D02*
X153598170Y-51510737D01*
X153169552Y-52510847D01*
X145365169Y-35844389D02*
X145365169Y-36558675D01*
X145317550Y-36701532D01*
X145222312Y-36796770D01*
X145079455Y-36844389D01*
X144984217Y-36844389D01*
X145841360Y-36844389D02*
X145841360Y-35844389D01*
X146222312Y-35844389D01*
X146317550Y-35892009D01*
X146365169Y-35939628D01*
X146412788Y-36034866D01*
X146412788Y-36177723D01*
X146365169Y-36272961D01*
X146317550Y-36320580D01*
X146222312Y-36368199D01*
X145841360Y-36368199D01*
X146746122Y-35844389D02*
X147365169Y-35844389D01*
X147031836Y-36225342D01*
X147174693Y-36225342D01*
X147269931Y-36272961D01*
X147317550Y-36320580D01*
X147365169Y-36415818D01*
X147365169Y-36653913D01*
X147317550Y-36749151D01*
X147269931Y-36796770D01*
X147174693Y-36844389D01*
X146888979Y-36844389D01*
X146793741Y-36796770D01*
X146746122Y-36749151D01*
X155145645Y-72985797D02*
X154812312Y-72509607D01*
X154574217Y-72985797D02*
X154574217Y-71985797D01*
X154955169Y-71985797D01*
X155050407Y-72033417D01*
X155098026Y-72081036D01*
X155145645Y-72176274D01*
X155145645Y-72319131D01*
X155098026Y-72414369D01*
X155050407Y-72461988D01*
X154955169Y-72509607D01*
X154574217Y-72509607D01*
X156098026Y-72985797D02*
X155526598Y-72985797D01*
X155812312Y-72985797D02*
X155812312Y-71985797D01*
X155717074Y-72128655D01*
X155621836Y-72223893D01*
X155526598Y-72271512D01*
X156431360Y-71985797D02*
X157050407Y-71985797D01*
X156717074Y-72366750D01*
X156859931Y-72366750D01*
X156955169Y-72414369D01*
X157002788Y-72461988D01*
X157050407Y-72557226D01*
X157050407Y-72795321D01*
X157002788Y-72890559D01*
X156955169Y-72938178D01*
X156859931Y-72985797D01*
X156574217Y-72985797D01*
X156478979Y-72938178D01*
X156431360Y-72890559D01*
X150621836Y-62541154D02*
X150574217Y-62588773D01*
X150431360Y-62636392D01*
X150336122Y-62636392D01*
X150193264Y-62588773D01*
X150098026Y-62493535D01*
X150050407Y-62398297D01*
X150002788Y-62207821D01*
X150002788Y-62064964D01*
X150050407Y-61874488D01*
X150098026Y-61779250D01*
X150193264Y-61684012D01*
X150336122Y-61636392D01*
X150431360Y-61636392D01*
X150574217Y-61684012D01*
X150621836Y-61731631D01*
X150955169Y-61636392D02*
X151621836Y-61636392D01*
X151193264Y-62636392D01*
X156574217Y-74485797D02*
X156574217Y-73485797D01*
X156812312Y-73485797D01*
X156955169Y-73533417D01*
X157050407Y-73628655D01*
X157098026Y-73723893D01*
X157145645Y-73914369D01*
X157145645Y-74057226D01*
X157098026Y-74247702D01*
X157050407Y-74342940D01*
X156955169Y-74438178D01*
X156812312Y-74485797D01*
X156574217Y-74485797D01*
X157478979Y-73485797D02*
X158098026Y-73485797D01*
X157764693Y-73866750D01*
X157907550Y-73866750D01*
X158002788Y-73914369D01*
X158050407Y-73961988D01*
X158098026Y-74057226D01*
X158098026Y-74295321D01*
X158050407Y-74390559D01*
X158002788Y-74438178D01*
X157907550Y-74485797D01*
X157621836Y-74485797D01*
X157526598Y-74438178D01*
X157478979Y-74390559D01*
X158478979Y-73581036D02*
X158526598Y-73533417D01*
X158621836Y-73485797D01*
X158859931Y-73485797D01*
X158955169Y-73533417D01*
X159002788Y-73581036D01*
X159050407Y-73676274D01*
X159050407Y-73771512D01*
X159002788Y-73914369D01*
X158431360Y-74485797D01*
X159050407Y-74485797D01*
X155205169Y-20245580D02*
X154871836Y-20245580D01*
X154871836Y-20769389D02*
X154871836Y-19769389D01*
X155348026Y-19769389D01*
X156252788Y-20769389D02*
X155681360Y-20769389D01*
X155967074Y-20769389D02*
X155967074Y-19769389D01*
X155871836Y-19912247D01*
X155776598Y-20007485D01*
X155681360Y-20055104D01*
X149880220Y-29610797D02*
X149546887Y-29134607D01*
X149308792Y-29610797D02*
X149308792Y-28610797D01*
X149689744Y-28610797D01*
X149784982Y-28658417D01*
X149832601Y-28706036D01*
X149880220Y-28801274D01*
X149880220Y-28944131D01*
X149832601Y-29039369D01*
X149784982Y-29086988D01*
X149689744Y-29134607D01*
X149308792Y-29134607D01*
X150261173Y-28706036D02*
X150308792Y-28658417D01*
X150404030Y-28610797D01*
X150642125Y-28610797D01*
X150737363Y-28658417D01*
X150784982Y-28706036D01*
X150832601Y-28801274D01*
X150832601Y-28896512D01*
X150784982Y-29039369D01*
X150213554Y-29610797D01*
X150832601Y-29610797D01*
X151784982Y-29610797D02*
X151213554Y-29610797D01*
X151499268Y-29610797D02*
X151499268Y-28610797D01*
X151404030Y-28753655D01*
X151308792Y-28848893D01*
X151213554Y-28896512D01*
X152112836Y-47341797D02*
X151779503Y-46865607D01*
X151541407Y-47341797D02*
X151541407Y-46341797D01*
X151922360Y-46341797D01*
X152017598Y-46389417D01*
X152065217Y-46437036D01*
X152112836Y-46532274D01*
X152112836Y-46675131D01*
X152065217Y-46770369D01*
X152017598Y-46817988D01*
X151922360Y-46865607D01*
X151541407Y-46865607D01*
X152589026Y-47341797D02*
X152779503Y-47341797D01*
X152874741Y-47294178D01*
X152922360Y-47246559D01*
X153017598Y-47103702D01*
X153065217Y-46913226D01*
X153065217Y-46532274D01*
X153017598Y-46437036D01*
X152969979Y-46389417D01*
X152874741Y-46341797D01*
X152684264Y-46341797D01*
X152589026Y-46389417D01*
X152541407Y-46437036D01*
X152493788Y-46532274D01*
X152493788Y-46770369D01*
X152541407Y-46865607D01*
X152589026Y-46913226D01*
X152684264Y-46960845D01*
X152874741Y-46960845D01*
X152969979Y-46913226D01*
X153017598Y-46865607D01*
X153065217Y-46770369D01*
X151728792Y-21979797D02*
X151728792Y-20979797D01*
X151966887Y-20979797D01*
X152109744Y-21027417D01*
X152204982Y-21122655D01*
X152252601Y-21217893D01*
X152300220Y-21408369D01*
X152300220Y-21551226D01*
X152252601Y-21741702D01*
X152204982Y-21836940D01*
X152109744Y-21932178D01*
X151966887Y-21979797D01*
X151728792Y-21979797D01*
X152633554Y-20979797D02*
X153252601Y-20979797D01*
X152919268Y-21360750D01*
X153062125Y-21360750D01*
X153157363Y-21408369D01*
X153204982Y-21455988D01*
X153252601Y-21551226D01*
X153252601Y-21789321D01*
X153204982Y-21884559D01*
X153157363Y-21932178D01*
X153062125Y-21979797D01*
X152776411Y-21979797D01*
X152681173Y-21932178D01*
X152633554Y-21884559D01*
X154109744Y-21313131D02*
X154109744Y-21979797D01*
X153871649Y-20932178D02*
X153633554Y-21646464D01*
X154252601Y-21646464D01*
X145365169Y-32594389D02*
X145365169Y-33308675D01*
X145317550Y-33451532D01*
X145222312Y-33546770D01*
X145079455Y-33594389D01*
X144984217Y-33594389D01*
X145841360Y-33594389D02*
X145841360Y-32594389D01*
X146222312Y-32594389D01*
X146317550Y-32642009D01*
X146365169Y-32689628D01*
X146412788Y-32784866D01*
X146412788Y-32927723D01*
X146365169Y-33022961D01*
X146317550Y-33070580D01*
X146222312Y-33118199D01*
X145841360Y-33118199D01*
X147269931Y-32927723D02*
X147269931Y-33594389D01*
X147031836Y-32546770D02*
X146793741Y-33261056D01*
X147412788Y-33261056D01*
X137850288Y-30923417D02*
X137755050Y-30875797D01*
X137612193Y-30875797D01*
X137469336Y-30923417D01*
X137374098Y-31018655D01*
X137326479Y-31113893D01*
X137278860Y-31304369D01*
X137278860Y-31447226D01*
X137326479Y-31637702D01*
X137374098Y-31732940D01*
X137469336Y-31828178D01*
X137612193Y-31875797D01*
X137707431Y-31875797D01*
X137850288Y-31828178D01*
X137897907Y-31780559D01*
X137897907Y-31447226D01*
X137707431Y-31447226D01*
X138326479Y-31875797D02*
X138326479Y-30875797D01*
X138897907Y-31875797D01*
X138897907Y-30875797D01*
X139374098Y-31875797D02*
X139374098Y-30875797D01*
X139612193Y-30875797D01*
X139755050Y-30923417D01*
X139850288Y-31018655D01*
X139897907Y-31113893D01*
X139945526Y-31304369D01*
X139945526Y-31447226D01*
X139897907Y-31637702D01*
X139850288Y-31732940D01*
X139755050Y-31828178D01*
X139612193Y-31875797D01*
X139374098Y-31875797D01*
X137612193Y-38495797D02*
X138231241Y-38495797D01*
X137897907Y-38876750D01*
X138040764Y-38876750D01*
X138136003Y-38924369D01*
X138183622Y-38971988D01*
X138231241Y-39067226D01*
X138231241Y-39305321D01*
X138183622Y-39400559D01*
X138136003Y-39448178D01*
X138040764Y-39495797D01*
X137755050Y-39495797D01*
X137659812Y-39448178D01*
X137612193Y-39400559D01*
X138564574Y-38829131D02*
X138802669Y-39495797D01*
X139040764Y-38829131D01*
X139326479Y-38495797D02*
X139945526Y-38495797D01*
X139612193Y-38876750D01*
X139755050Y-38876750D01*
X139850288Y-38924369D01*
X139897907Y-38971988D01*
X139945526Y-39067226D01*
X139945526Y-39305321D01*
X139897907Y-39400559D01*
X139850288Y-39448178D01*
X139755050Y-39495797D01*
X139469336Y-39495797D01*
X139374098Y-39448178D01*
X139326479Y-39400559D01*
X138136003Y-34320559D02*
X138088383Y-34368178D01*
X137945526Y-34415797D01*
X137850288Y-34415797D01*
X137707431Y-34368178D01*
X137612193Y-34272940D01*
X137564574Y-34177702D01*
X137516955Y-33987226D01*
X137516955Y-33844369D01*
X137564574Y-33653893D01*
X137612193Y-33558655D01*
X137707431Y-33463417D01*
X137850288Y-33415797D01*
X137945526Y-33415797D01*
X138088383Y-33463417D01*
X138136003Y-33511036D01*
X139040764Y-34415797D02*
X138564574Y-34415797D01*
X138564574Y-33415797D01*
X139374098Y-34415797D02*
X139374098Y-33415797D01*
X139945526Y-34415797D02*
X139516955Y-33844369D01*
X139945526Y-33415797D02*
X139374098Y-33987226D01*
X137850288Y-36955797D02*
X137850288Y-35955797D01*
X138088383Y-35955797D01*
X138231241Y-36003417D01*
X138326479Y-36098655D01*
X138374098Y-36193893D01*
X138421717Y-36384369D01*
X138421717Y-36527226D01*
X138374098Y-36717702D01*
X138326479Y-36812940D01*
X138231241Y-36908178D01*
X138088383Y-36955797D01*
X137850288Y-36955797D01*
X138850288Y-36955797D02*
X138850288Y-35955797D01*
X139516955Y-35955797D02*
X139707431Y-35955797D01*
X139802669Y-36003417D01*
X139897907Y-36098655D01*
X139945526Y-36289131D01*
X139945526Y-36622464D01*
X139897907Y-36812940D01*
X139802669Y-36908178D01*
X139707431Y-36955797D01*
X139516955Y-36955797D01*
X139421717Y-36908178D01*
X139326479Y-36812940D01*
X139278860Y-36622464D01*
X139278860Y-36289131D01*
X139326479Y-36098655D01*
X139421717Y-36003417D01*
X139516955Y-35955797D01*
X149880220Y-28185797D02*
X149546887Y-27709607D01*
X149308792Y-28185797D02*
X149308792Y-27185797D01*
X149689744Y-27185797D01*
X149784982Y-27233417D01*
X149832601Y-27281036D01*
X149880220Y-27376274D01*
X149880220Y-27519131D01*
X149832601Y-27614369D01*
X149784982Y-27661988D01*
X149689744Y-27709607D01*
X149308792Y-27709607D01*
X150261173Y-27281036D02*
X150308792Y-27233417D01*
X150404030Y-27185797D01*
X150642125Y-27185797D01*
X150737363Y-27233417D01*
X150784982Y-27281036D01*
X150832601Y-27376274D01*
X150832601Y-27471512D01*
X150784982Y-27614369D01*
X150213554Y-28185797D01*
X150832601Y-28185797D01*
X151451649Y-27185797D02*
X151546887Y-27185797D01*
X151642125Y-27233417D01*
X151689744Y-27281036D01*
X151737363Y-27376274D01*
X151784982Y-27566750D01*
X151784982Y-27804845D01*
X151737363Y-27995321D01*
X151689744Y-28090559D01*
X151642125Y-28138178D01*
X151546887Y-28185797D01*
X151451649Y-28185797D01*
X151356411Y-28138178D01*
X151308792Y-28090559D01*
X151261173Y-27995321D01*
X151213554Y-27804845D01*
X151213554Y-27566750D01*
X151261173Y-27376274D01*
X151308792Y-27281036D01*
X151356411Y-27233417D01*
X151451649Y-27185797D01*
X154871836Y-70390559D02*
X154824217Y-70438178D01*
X154681360Y-70485797D01*
X154586122Y-70485797D01*
X154443264Y-70438178D01*
X154348026Y-70342940D01*
X154300407Y-70247702D01*
X154252788Y-70057226D01*
X154252788Y-69914369D01*
X154300407Y-69723893D01*
X154348026Y-69628655D01*
X154443264Y-69533417D01*
X154586122Y-69485797D01*
X154681360Y-69485797D01*
X154824217Y-69533417D01*
X154871836Y-69581036D01*
X155728979Y-69485797D02*
X155538503Y-69485797D01*
X155443264Y-69533417D01*
X155395645Y-69581036D01*
X155300407Y-69723893D01*
X155252788Y-69914369D01*
X155252788Y-70295321D01*
X155300407Y-70390559D01*
X155348026Y-70438178D01*
X155443264Y-70485797D01*
X155633741Y-70485797D01*
X155728979Y-70438178D01*
X155776598Y-70390559D01*
X155824217Y-70295321D01*
X155824217Y-70057226D01*
X155776598Y-69961988D01*
X155728979Y-69914369D01*
X155633741Y-69866750D01*
X155443264Y-69866750D01*
X155348026Y-69914369D01*
X155300407Y-69961988D01*
X155252788Y-70057226D01*
X150145645Y-61136392D02*
X149812312Y-60660202D01*
X149574217Y-61136392D02*
X149574217Y-60136392D01*
X149955169Y-60136392D01*
X150050407Y-60184012D01*
X150098026Y-60231631D01*
X150145645Y-60326869D01*
X150145645Y-60469726D01*
X150098026Y-60564964D01*
X150050407Y-60612583D01*
X149955169Y-60660202D01*
X149574217Y-60660202D01*
X151098026Y-61136392D02*
X150526598Y-61136392D01*
X150812312Y-61136392D02*
X150812312Y-60136392D01*
X150717074Y-60279250D01*
X150621836Y-60374488D01*
X150526598Y-60422107D01*
X152002788Y-60136392D02*
X151526598Y-60136392D01*
X151478979Y-60612583D01*
X151526598Y-60564964D01*
X151621836Y-60517345D01*
X151859931Y-60517345D01*
X151955169Y-60564964D01*
X152002788Y-60612583D01*
X152050407Y-60707821D01*
X152050407Y-60945916D01*
X152002788Y-61041154D01*
X151955169Y-61088773D01*
X151859931Y-61136392D01*
X151621836Y-61136392D01*
X151526598Y-61088773D01*
X151478979Y-61041154D01*
X155324217Y-30269389D02*
X155324217Y-29269389D01*
X155562312Y-29269389D01*
X155705169Y-29317009D01*
X155800407Y-29412247D01*
X155848026Y-29507485D01*
X155895645Y-29697961D01*
X155895645Y-29840818D01*
X155848026Y-30031294D01*
X155800407Y-30126532D01*
X155705169Y-30221770D01*
X155562312Y-30269389D01*
X155324217Y-30269389D01*
X156228979Y-29269389D02*
X156848026Y-29269389D01*
X156514693Y-29650342D01*
X156657550Y-29650342D01*
X156752788Y-29697961D01*
X156800407Y-29745580D01*
X156848026Y-29840818D01*
X156848026Y-30078913D01*
X156800407Y-30174151D01*
X156752788Y-30221770D01*
X156657550Y-30269389D01*
X156371836Y-30269389D01*
X156276598Y-30221770D01*
X156228979Y-30174151D01*
X157705169Y-29269389D02*
X157514693Y-29269389D01*
X157419455Y-29317009D01*
X157371836Y-29364628D01*
X157276598Y-29507485D01*
X157228979Y-29697961D01*
X157228979Y-30078913D01*
X157276598Y-30174151D01*
X157324217Y-30221770D01*
X157419455Y-30269389D01*
X157609931Y-30269389D01*
X157705169Y-30221770D01*
X157752788Y-30174151D01*
X157800407Y-30078913D01*
X157800407Y-29840818D01*
X157752788Y-29745580D01*
X157705169Y-29697961D01*
X157609931Y-29650342D01*
X157419455Y-29650342D01*
X157324217Y-29697961D01*
X157276598Y-29745580D01*
X157228979Y-29840818D01*
X153895645Y-68985797D02*
X153562312Y-68509607D01*
X153324217Y-68985797D02*
X153324217Y-67985797D01*
X153705169Y-67985797D01*
X153800407Y-68033417D01*
X153848026Y-68081036D01*
X153895645Y-68176274D01*
X153895645Y-68319131D01*
X153848026Y-68414369D01*
X153800407Y-68461988D01*
X153705169Y-68509607D01*
X153324217Y-68509607D01*
X154848026Y-68985797D02*
X154276598Y-68985797D01*
X154562312Y-68985797D02*
X154562312Y-67985797D01*
X154467074Y-68128655D01*
X154371836Y-68223893D01*
X154276598Y-68271512D01*
X155467074Y-67985797D02*
X155562312Y-67985797D01*
X155657550Y-68033417D01*
X155705169Y-68081036D01*
X155752788Y-68176274D01*
X155800407Y-68366750D01*
X155800407Y-68604845D01*
X155752788Y-68795321D01*
X155705169Y-68890559D01*
X155657550Y-68938178D01*
X155562312Y-68985797D01*
X155467074Y-68985797D01*
X155371836Y-68938178D01*
X155324217Y-68890559D01*
X155276598Y-68795321D01*
X155228979Y-68604845D01*
X155228979Y-68366750D01*
X155276598Y-68176274D01*
X155324217Y-68081036D01*
X155371836Y-68033417D01*
X155467074Y-67985797D01*
X138859744Y-22911988D02*
X138526411Y-22911988D01*
X138526411Y-23435797D02*
X138526411Y-22435797D01*
X139002601Y-22435797D01*
X139716887Y-22911988D02*
X139859744Y-22959607D01*
X139907363Y-23007226D01*
X139954982Y-23102464D01*
X139954982Y-23245321D01*
X139907363Y-23340559D01*
X139859744Y-23388178D01*
X139764506Y-23435797D01*
X139383554Y-23435797D01*
X139383554Y-22435797D01*
X139716887Y-22435797D01*
X139812125Y-22483417D01*
X139859744Y-22531036D01*
X139907363Y-22626274D01*
X139907363Y-22721512D01*
X139859744Y-22816750D01*
X139812125Y-22864369D01*
X139716887Y-22911988D01*
X139383554Y-22911988D01*
X140907363Y-23435797D02*
X140335935Y-23435797D01*
X140621649Y-23435797D02*
X140621649Y-22435797D01*
X140526411Y-22578655D01*
X140431173Y-22673893D01*
X140335935Y-22721512D01*
X146712836Y-47342392D02*
X146379503Y-46866202D01*
X146141407Y-47342392D02*
X146141407Y-46342392D01*
X146522360Y-46342392D01*
X146617598Y-46390012D01*
X146665217Y-46437631D01*
X146712836Y-46532869D01*
X146712836Y-46675726D01*
X146665217Y-46770964D01*
X146617598Y-46818583D01*
X146522360Y-46866202D01*
X146141407Y-46866202D01*
X147284264Y-46770964D02*
X147189026Y-46723345D01*
X147141407Y-46675726D01*
X147093788Y-46580488D01*
X147093788Y-46532869D01*
X147141407Y-46437631D01*
X147189026Y-46390012D01*
X147284264Y-46342392D01*
X147474741Y-46342392D01*
X147569979Y-46390012D01*
X147617598Y-46437631D01*
X147665217Y-46532869D01*
X147665217Y-46580488D01*
X147617598Y-46675726D01*
X147569979Y-46723345D01*
X147474741Y-46770964D01*
X147284264Y-46770964D01*
X147189026Y-46818583D01*
X147141407Y-46866202D01*
X147093788Y-46961440D01*
X147093788Y-47151916D01*
X147141407Y-47247154D01*
X147189026Y-47294773D01*
X147284264Y-47342392D01*
X147474741Y-47342392D01*
X147569979Y-47294773D01*
X147617598Y-47247154D01*
X147665217Y-47151916D01*
X147665217Y-46961440D01*
X147617598Y-46866202D01*
X147569979Y-46818583D01*
X147474741Y-46770964D01*
X144111220Y-28549392D02*
X143777887Y-28073202D01*
X143539792Y-28549392D02*
X143539792Y-27549392D01*
X143920744Y-27549392D01*
X144015982Y-27597012D01*
X144063601Y-27644631D01*
X144111220Y-27739869D01*
X144111220Y-27882726D01*
X144063601Y-27977964D01*
X144015982Y-28025583D01*
X143920744Y-28073202D01*
X143539792Y-28073202D01*
X145063601Y-28549392D02*
X144492173Y-28549392D01*
X144777887Y-28549392D02*
X144777887Y-27549392D01*
X144682649Y-27692250D01*
X144587411Y-27787488D01*
X144492173Y-27835107D01*
X145539792Y-28549392D02*
X145730268Y-28549392D01*
X145825506Y-28501773D01*
X145873125Y-28454154D01*
X145968363Y-28311297D01*
X146015982Y-28120821D01*
X146015982Y-27739869D01*
X145968363Y-27644631D01*
X145920744Y-27597012D01*
X145825506Y-27549392D01*
X145635030Y-27549392D01*
X145539792Y-27597012D01*
X145492173Y-27644631D01*
X145444554Y-27739869D01*
X145444554Y-27977964D01*
X145492173Y-28073202D01*
X145539792Y-28120821D01*
X145635030Y-28168440D01*
X145825506Y-28168440D01*
X145920744Y-28120821D01*
X145968363Y-28073202D01*
X146015982Y-27977964D01*
X158395645Y-55165559D02*
X158348026Y-55213178D01*
X158205169Y-55260797D01*
X158109931Y-55260797D01*
X157967074Y-55213178D01*
X157871836Y-55117940D01*
X157824217Y-55022702D01*
X157776598Y-54832226D01*
X157776598Y-54689369D01*
X157824217Y-54498893D01*
X157871836Y-54403655D01*
X157967074Y-54308417D01*
X158109931Y-54260797D01*
X158205169Y-54260797D01*
X158348026Y-54308417D01*
X158395645Y-54356036D01*
X159348026Y-55260797D02*
X158776598Y-55260797D01*
X159062312Y-55260797D02*
X159062312Y-54260797D01*
X158967074Y-54403655D01*
X158871836Y-54498893D01*
X158776598Y-54546512D01*
X160205169Y-54594131D02*
X160205169Y-55260797D01*
X159967074Y-54213178D02*
X159728979Y-54927464D01*
X160348026Y-54927464D01*
D12*
X142544658Y-62577009D02*
X142263498Y-62577009D01*
X142544658Y-61557009D02*
X142263498Y-61557009D01*
X160893078Y-42509596D02*
X160893078Y-18009596D01*
X136693078Y-45959596D02*
X157693078Y-45959596D01*
X160893078Y-18009596D02*
X133493078Y-18009596D01*
X133493078Y-18009596D02*
X133493078Y-42509596D01*
X134928503Y-59702009D02*
X134928503Y-60177009D01*
X142148503Y-60177009D02*
X141673503Y-60177009D01*
X142148503Y-53432009D02*
X142148503Y-52957009D01*
X142148503Y-52957009D02*
X141673503Y-52957009D01*
X134928503Y-53432009D02*
X134928503Y-52957009D01*
X134928503Y-52957009D02*
X135403503Y-52957009D01*
X142148503Y-59702009D02*
X142148503Y-60177009D01*
X139494658Y-63607012D02*
X139213498Y-63607012D01*
X139494658Y-62587012D02*
X139213498Y-62587012D01*
X134704078Y-64047012D02*
X134704078Y-67647012D01*
X134704078Y-67647012D02*
X140454078Y-67647012D01*
X140454078Y-64047012D02*
X134704078Y-64047012D01*
D14*
X128813518Y-73283999D02*
X128813518Y-72883999D01*
X128813518Y-72883999D02*
X128413518Y-72283999D01*
X129213518Y-72283999D02*
X128813518Y-72883999D01*
D12*
X129813518Y-74783999D02*
X129813518Y-70883999D01*
D14*
X128813518Y-72283999D02*
X128813518Y-71783999D01*
X129363518Y-72883999D02*
X128263518Y-72883999D01*
D12*
X127813518Y-74783999D02*
X127813518Y-70883999D01*
X127813518Y-74783999D02*
X129813518Y-74783999D01*
D14*
X128413518Y-72283999D02*
X129213518Y-72283999D01*
X147443078Y-102167012D02*
X147443078Y-102967012D01*
D12*
X144943078Y-101567012D02*
X144943078Y-103567012D01*
D14*
X147443078Y-102967012D02*
X146843078Y-102567012D01*
D12*
X144943078Y-103567012D02*
X148843078Y-103567012D01*
D14*
X146843078Y-102567012D02*
X147443078Y-102167012D01*
D12*
X144943078Y-101567012D02*
X148843078Y-101567012D01*
D14*
X146843078Y-103117012D02*
X146843078Y-102017012D01*
X146443078Y-102567012D02*
X146843078Y-102567012D01*
X147443078Y-102567012D02*
X147943078Y-102567012D01*
X53163518Y-74471503D02*
X52063518Y-74471503D01*
X52613518Y-74471503D02*
X52213518Y-73871503D01*
D12*
X51613518Y-76371503D02*
X53613518Y-76371503D01*
X51613518Y-76371503D02*
X51613518Y-72471503D01*
D14*
X53013518Y-73871503D02*
X52613518Y-74471503D01*
X52213518Y-73871503D02*
X53013518Y-73871503D01*
D12*
X53613518Y-76371503D02*
X53613518Y-72471503D01*
D14*
X52613518Y-74871503D02*
X52613518Y-74471503D01*
X52613518Y-73871503D02*
X52613518Y-73371503D01*
X127498970Y-118328996D02*
X128191790Y-118728996D01*
D12*
X127461405Y-121194059D02*
X129411405Y-117816560D01*
D14*
X127545380Y-119048611D02*
X127498970Y-118328996D01*
D12*
X125729355Y-120194059D02*
X127679355Y-116816560D01*
D14*
X127845380Y-118528996D02*
X128095380Y-118095983D01*
X128191790Y-118728996D02*
X127545380Y-119048611D01*
D12*
X125729355Y-120194059D02*
X127461405Y-121194059D01*
D14*
X127345380Y-119395021D02*
X127545380Y-119048611D01*
X128021694Y-119323611D02*
X127069066Y-118773611D01*
X103413514Y-112971500D02*
X103413514Y-112571500D01*
D12*
X102413514Y-114471500D02*
X102413514Y-110571500D01*
X104413514Y-114471500D02*
X104413514Y-110571500D01*
D14*
X103013514Y-111971500D02*
X103813514Y-111971500D01*
D12*
X102413514Y-114471500D02*
X104413514Y-114471500D01*
D14*
X103413514Y-112571500D02*
X103013514Y-111971500D01*
X103963514Y-112571500D02*
X102863514Y-112571500D01*
X103413514Y-111971500D02*
X103413514Y-111471500D01*
X103813514Y-111971500D02*
X103413514Y-112571500D01*
X110313519Y-88758992D02*
X109213519Y-88758992D01*
X109763519Y-88158992D02*
X109763519Y-87658992D01*
X109363519Y-88158992D02*
X110163519Y-88158992D01*
X110163519Y-88158992D02*
X109763519Y-88758992D01*
D12*
X108763519Y-90658992D02*
X108763519Y-86758992D01*
X110763519Y-90658992D02*
X110763519Y-86758992D01*
X108763519Y-90658992D02*
X110763519Y-90658992D01*
D14*
X109763519Y-88758992D02*
X109363519Y-88158992D01*
X109763519Y-89158992D02*
X109763519Y-88758992D01*
X71663517Y-89159002D02*
X71663517Y-88759002D01*
D12*
X72663517Y-90659002D02*
X72663517Y-86759002D01*
D14*
X71663517Y-88759002D02*
X71263517Y-88159002D01*
X72213517Y-88759002D02*
X71113517Y-88759002D01*
D12*
X70663517Y-90659002D02*
X70663517Y-86759002D01*
D14*
X71663517Y-88159002D02*
X71663517Y-87659002D01*
D12*
X70663517Y-90659002D02*
X72663517Y-90659002D01*
D14*
X71263517Y-88159002D02*
X72063517Y-88159002D01*
X72063517Y-88159002D02*
X71663517Y-88759002D01*
X52613520Y-93521500D02*
X52213520Y-92921500D01*
D12*
X53613520Y-95421500D02*
X53613520Y-91521500D01*
D14*
X53163520Y-93521500D02*
X52063520Y-93521500D01*
X52613520Y-92921500D02*
X52613520Y-92421500D01*
D12*
X51613520Y-95421500D02*
X51613520Y-91521500D01*
X51613520Y-95421500D02*
X53613520Y-95421500D01*
D14*
X52613520Y-93921500D02*
X52613520Y-93521500D01*
X52213520Y-92921500D02*
X53013520Y-92921500D01*
X53013520Y-92921500D02*
X52613520Y-93521500D01*
X91263516Y-65740243D02*
X90163516Y-65740243D01*
X91113516Y-65140243D02*
X90713516Y-65740243D01*
X90313516Y-65140243D02*
X91113516Y-65140243D01*
D12*
X91713516Y-67640243D02*
X91713516Y-63740243D01*
D14*
X90713516Y-66140243D02*
X90713516Y-65740243D01*
D12*
X89713516Y-67640243D02*
X91713516Y-67640243D01*
D14*
X90713516Y-65140243D02*
X90713516Y-64640243D01*
X90713516Y-65740243D02*
X90313516Y-65140243D01*
D12*
X89713516Y-67640243D02*
X89713516Y-63740243D01*
D14*
X128813523Y-92333994D02*
X128813523Y-91933994D01*
X128413523Y-91333994D02*
X129213523Y-91333994D01*
X129363523Y-91933994D02*
X128263523Y-91933994D01*
X129213523Y-91333994D02*
X128813523Y-91933994D01*
X128813523Y-91333994D02*
X128813523Y-90833994D01*
D12*
X127813523Y-93833994D02*
X127813523Y-89933994D01*
X129813523Y-93833994D02*
X129813523Y-89933994D01*
X127813523Y-93833994D02*
X129813523Y-93833994D01*
D14*
X128813523Y-91933994D02*
X128413523Y-91333994D01*
X71663516Y-107809001D02*
X71263516Y-107209001D01*
D12*
X72663516Y-109709001D02*
X72663516Y-105809001D01*
D14*
X71663516Y-108209001D02*
X71663516Y-107809001D01*
X71663516Y-107209001D02*
X71663516Y-106709001D01*
D12*
X70663516Y-109709001D02*
X70663516Y-105809001D01*
D14*
X71263516Y-107209001D02*
X72063516Y-107209001D01*
X72063516Y-107209001D02*
X71663516Y-107809001D01*
X72213516Y-107809001D02*
X71113516Y-107809001D01*
D12*
X70663516Y-109709001D02*
X72663516Y-109709001D01*
X51613514Y-57321498D02*
X53613514Y-57321498D01*
D14*
X53163514Y-55421498D02*
X52063514Y-55421498D01*
X52613514Y-55821498D02*
X52613514Y-55421498D01*
X52613514Y-55421498D02*
X52213514Y-54821498D01*
X52213514Y-54821498D02*
X53013514Y-54821498D01*
D12*
X53613514Y-57321498D02*
X53613514Y-53421498D01*
D14*
X52613514Y-54821498D02*
X52613514Y-54321498D01*
X53013514Y-54821498D02*
X52613514Y-55421498D01*
D12*
X51613514Y-57321498D02*
X51613514Y-53421498D01*
D14*
X90713523Y-84790253D02*
X90313523Y-84190253D01*
X90713523Y-85190253D02*
X90713523Y-84790253D01*
D12*
X89713523Y-86690253D02*
X89713523Y-82790253D01*
D14*
X90313523Y-84190253D02*
X91113523Y-84190253D01*
X91113523Y-84190253D02*
X90713523Y-84790253D01*
D12*
X89713523Y-86690253D02*
X91713523Y-86690253D01*
X91713523Y-86690253D02*
X91713523Y-82790253D01*
D14*
X91263523Y-84790253D02*
X90163523Y-84790253D01*
X90713523Y-84190253D02*
X90713523Y-83690253D01*
X52613511Y-111971498D02*
X52613511Y-111471498D01*
D12*
X51613511Y-114471498D02*
X53613511Y-114471498D01*
D14*
X52213511Y-111971498D02*
X53013511Y-111971498D01*
X53163511Y-112571498D02*
X52063511Y-112571498D01*
X52613511Y-112571498D02*
X52213511Y-111971498D01*
X53013511Y-111971498D02*
X52613511Y-112571498D01*
X52613511Y-112971498D02*
X52613511Y-112571498D01*
D12*
X53613511Y-114471498D02*
X53613511Y-110571498D01*
X51613511Y-114471498D02*
X51613511Y-110571498D01*
X127813516Y-55734003D02*
X129813516Y-55734003D01*
X129813516Y-55734003D02*
X129813516Y-51834003D01*
D14*
X128813516Y-54234003D02*
X128813516Y-53834003D01*
X128813516Y-53834003D02*
X128413516Y-53234003D01*
X129213516Y-53234003D02*
X128813516Y-53834003D01*
D12*
X127813516Y-55734003D02*
X127813516Y-51834003D01*
D14*
X128413516Y-53234003D02*
X129213516Y-53234003D01*
X128813516Y-53234003D02*
X128813516Y-52734003D01*
X129363516Y-53834003D02*
X128263516Y-53834003D01*
D12*
X32563516Y-116852751D02*
X34563516Y-116852751D01*
D14*
X33963516Y-114352751D02*
X33563516Y-114952751D01*
X33563516Y-114352751D02*
X33563516Y-113852751D01*
D12*
X34563516Y-116852751D02*
X34563516Y-112952751D01*
D14*
X34113516Y-114952751D02*
X33013516Y-114952751D01*
X33563516Y-114952751D02*
X33163516Y-114352751D01*
D12*
X32563516Y-116852751D02*
X32563516Y-112952751D01*
D14*
X33563516Y-115352751D02*
X33563516Y-114952751D01*
X33163516Y-114352751D02*
X33963516Y-114352751D01*
X72213517Y-69708996D02*
X71113517Y-69708996D01*
X71663517Y-69108996D02*
X71663517Y-68608996D01*
D12*
X72663517Y-71608996D02*
X72663517Y-67708996D01*
X70663517Y-71608996D02*
X72663517Y-71608996D01*
D14*
X71263517Y-69108996D02*
X72063517Y-69108996D01*
X72063517Y-69108996D02*
X71663517Y-69708996D01*
D12*
X70663517Y-71608996D02*
X70663517Y-67708996D01*
D14*
X71663517Y-69708996D02*
X71263517Y-69108996D01*
X71663517Y-70108996D02*
X71663517Y-69708996D01*
X33563515Y-95902750D02*
X33163515Y-95302750D01*
X33163515Y-95302750D02*
X33963515Y-95302750D01*
X33963515Y-95302750D02*
X33563515Y-95902750D01*
D12*
X32563515Y-97802750D02*
X34563515Y-97802750D01*
D14*
X33563515Y-96302750D02*
X33563515Y-95902750D01*
D12*
X34563515Y-97802750D02*
X34563515Y-93902750D01*
D14*
X33563515Y-95302750D02*
X33563515Y-94802750D01*
D12*
X32563515Y-97802750D02*
X32563515Y-93902750D01*
D14*
X34113515Y-95902750D02*
X33013515Y-95902750D01*
X109763514Y-70108988D02*
X109763514Y-69708988D01*
D12*
X110763514Y-71608988D02*
X110763514Y-67708988D01*
X108763514Y-71608988D02*
X108763514Y-67708988D01*
D14*
X109763514Y-69708988D02*
X109363514Y-69108988D01*
X110163514Y-69108988D02*
X109763514Y-69708988D01*
X109763514Y-69108988D02*
X109763514Y-68608988D01*
X110313514Y-69708988D02*
X109213514Y-69708988D01*
X109363514Y-69108988D02*
X110163514Y-69108988D01*
D12*
X108763514Y-71608988D02*
X110763514Y-71608988D01*
D14*
X33563525Y-77252749D02*
X33563525Y-76852749D01*
D12*
X34563525Y-78752749D02*
X34563525Y-74852749D01*
X32563525Y-78752749D02*
X34563525Y-78752749D01*
D14*
X33563525Y-76852749D02*
X33163525Y-76252749D01*
X34113525Y-76852749D02*
X33013525Y-76852749D01*
X33563525Y-76252749D02*
X33563525Y-75752749D01*
D12*
X32563525Y-78752749D02*
X32563525Y-74852749D01*
D14*
X33163525Y-76252749D02*
X33963525Y-76252749D01*
X33963525Y-76252749D02*
X33563525Y-76852749D01*
D12*
X123384693Y-119458772D02*
X125316545Y-119976410D01*
D14*
X124611296Y-117199249D02*
X125384037Y-117406304D01*
X125384037Y-117406304D02*
X124842375Y-117882332D01*
X124738848Y-118268702D02*
X124842375Y-117882332D01*
X125373635Y-118024683D02*
X124311116Y-117739982D01*
X124997667Y-117302777D02*
X125127076Y-116819814D01*
X124842375Y-117882332D02*
X124611296Y-117199249D01*
D12*
X123384693Y-119458772D02*
X124394088Y-115691661D01*
X125316545Y-119976410D02*
X126325939Y-116209299D01*
D14*
X91263521Y-46690247D02*
X90163521Y-46690247D01*
X91113521Y-46090247D02*
X90713521Y-46690247D01*
X90713521Y-46690247D02*
X90313521Y-46090247D01*
D12*
X89713521Y-48590247D02*
X91713521Y-48590247D01*
D14*
X90313521Y-46090247D02*
X91113521Y-46090247D01*
D12*
X89713521Y-48590247D02*
X89713521Y-44690247D01*
X91713521Y-48590247D02*
X91713521Y-44690247D01*
D14*
X90713521Y-46090247D02*
X90713521Y-45590247D01*
X90713521Y-47090247D02*
X90713521Y-46690247D01*
X71663522Y-50058998D02*
X71663522Y-49558998D01*
X71663522Y-50658998D02*
X71263522Y-50058998D01*
D12*
X72663522Y-52558998D02*
X72663522Y-48658998D01*
D14*
X72213522Y-50658998D02*
X71113522Y-50658998D01*
D12*
X70663522Y-52558998D02*
X72663522Y-52558998D01*
D14*
X71663522Y-51058998D02*
X71663522Y-50658998D01*
D12*
X70663522Y-52558998D02*
X70663522Y-48658998D01*
D14*
X71263522Y-50058998D02*
X72063522Y-50058998D01*
X72063522Y-50058998D02*
X71663522Y-50658998D01*
X109763514Y-51058998D02*
X109763514Y-50658998D01*
X110313514Y-50658998D02*
X109213514Y-50658998D01*
D12*
X110763514Y-52558998D02*
X110763514Y-48658998D01*
X108763514Y-52558998D02*
X108763514Y-48658998D01*
D14*
X109763514Y-50658998D02*
X109363514Y-50058998D01*
X110163514Y-50058998D02*
X109763514Y-50658998D01*
X109763514Y-50058998D02*
X109763514Y-49558998D01*
X109363514Y-50058998D02*
X110163514Y-50058998D01*
D12*
X108763514Y-52558998D02*
X110763514Y-52558998D01*
D14*
X110163514Y-31008998D02*
X109763514Y-31608998D01*
D12*
X108763514Y-33508998D02*
X110763514Y-33508998D01*
D14*
X109363514Y-31008998D02*
X110163514Y-31008998D01*
X110313514Y-31608998D02*
X109213514Y-31608998D01*
X109763514Y-32008998D02*
X109763514Y-31608998D01*
D12*
X108763514Y-33508998D02*
X108763514Y-29608998D01*
X110763514Y-33508998D02*
X110763514Y-29608998D01*
D14*
X109763514Y-31608998D02*
X109363514Y-31008998D01*
X109763514Y-31008998D02*
X109763514Y-30508998D01*
X91263513Y-27640251D02*
X90163513Y-27640251D01*
D12*
X89713513Y-29540251D02*
X91713513Y-29540251D01*
D14*
X90713513Y-28040251D02*
X90713513Y-27640251D01*
X91113513Y-27040251D02*
X90713513Y-27640251D01*
D12*
X89713513Y-29540251D02*
X89713513Y-25640251D01*
D14*
X90313513Y-27040251D02*
X91113513Y-27040251D01*
X90713513Y-27040251D02*
X90713513Y-26540251D01*
X90713513Y-27640251D02*
X90313513Y-27040251D01*
D12*
X91713513Y-29540251D02*
X91713513Y-25640251D01*
D14*
X33963516Y-57202745D02*
X33563516Y-57802745D01*
D12*
X32563516Y-59702745D02*
X32563516Y-55802745D01*
D14*
X34113516Y-57802745D02*
X33013516Y-57802745D01*
X33163516Y-57202745D02*
X33963516Y-57202745D01*
X33563516Y-57802745D02*
X33163516Y-57202745D01*
X33563516Y-58202745D02*
X33563516Y-57802745D01*
D12*
X34563516Y-59702745D02*
X34563516Y-55802745D01*
D14*
X33563516Y-57202745D02*
X33563516Y-56702745D01*
D12*
X32563516Y-59702745D02*
X34563516Y-59702745D01*
D14*
X128413520Y-34184001D02*
X129213520Y-34184001D01*
X129213520Y-34184001D02*
X128813520Y-34784001D01*
D12*
X129813520Y-36684001D02*
X129813520Y-32784001D01*
D14*
X128813520Y-34184001D02*
X128813520Y-33684001D01*
X128813520Y-35184001D02*
X128813520Y-34784001D01*
D12*
X127813520Y-36684001D02*
X127813520Y-32784001D01*
X127813520Y-36684001D02*
X129813520Y-36684001D01*
D14*
X128813520Y-34784001D02*
X128413520Y-34184001D01*
X129363520Y-34784001D02*
X128263520Y-34784001D01*
X71663510Y-31609000D02*
X71263510Y-31009000D01*
D12*
X72663510Y-33509000D02*
X72663510Y-29609000D01*
D14*
X71263510Y-31009000D02*
X72063510Y-31009000D01*
X71663510Y-31009000D02*
X71663510Y-30509000D01*
X71663510Y-32009000D02*
X71663510Y-31609000D01*
X72213510Y-31609000D02*
X71113510Y-31609000D01*
D12*
X70663510Y-33509000D02*
X70663510Y-29609000D01*
D14*
X72063510Y-31009000D02*
X71663510Y-31609000D01*
D12*
X70663510Y-33509000D02*
X72663510Y-33509000D01*
D14*
X33563515Y-38152747D02*
X33563515Y-37652747D01*
X34113515Y-38752747D02*
X33013515Y-38752747D01*
D12*
X34563515Y-40652747D02*
X34563515Y-36752747D01*
D14*
X33563515Y-39152747D02*
X33563515Y-38752747D01*
X33563515Y-38752747D02*
X33163515Y-38152747D01*
X33163515Y-38152747D02*
X33963515Y-38152747D01*
X33963515Y-38152747D02*
X33563515Y-38752747D01*
D12*
X32563515Y-40652747D02*
X32563515Y-36752747D01*
X32563515Y-40652747D02*
X34563515Y-40652747D01*
D14*
X53163514Y-36371501D02*
X52063514Y-36371501D01*
X52613514Y-35771501D02*
X52613514Y-35271501D01*
X52613514Y-36371501D02*
X52213514Y-35771501D01*
X53013514Y-35771501D02*
X52613514Y-36371501D01*
D12*
X51613514Y-38271501D02*
X53613514Y-38271501D01*
X53613514Y-38271501D02*
X53613514Y-34371501D01*
D14*
X52613514Y-36771501D02*
X52613514Y-36371501D01*
X52213514Y-35771501D02*
X53013514Y-35771501D01*
D12*
X51613514Y-38271501D02*
X51613514Y-34371501D01*
X135647923Y-89057009D02*
X135929083Y-89057009D01*
X135647923Y-90077009D02*
X135929083Y-90077009D01*
X133072503Y-60426429D02*
X133072503Y-60707589D01*
X134092503Y-60426429D02*
X134092503Y-60707589D01*
X135647923Y-87307009D02*
X135929083Y-87307009D01*
X135647923Y-88327009D02*
X135929083Y-88327009D01*
X135179083Y-52077009D02*
X134897923Y-52077009D01*
X135179083Y-51057009D02*
X134897923Y-51057009D01*
X141293078Y-98739811D02*
X141293078Y-94639811D01*
X153093078Y-94639811D02*
X153093078Y-98739811D01*
X147193078Y-92139811D02*
X147193078Y-93139811D01*
X147693078Y-92639811D02*
X146693078Y-92639811D01*
X148493078Y-98739811D02*
X145893078Y-98739811D01*
X153093078Y-86539811D02*
X141293078Y-86539811D01*
X153093078Y-98739811D02*
X150693078Y-98739811D01*
X143693078Y-98739811D02*
X141293078Y-98739811D01*
X153093078Y-90639811D02*
X153093078Y-86539811D01*
X141293078Y-90639811D02*
X141293078Y-86539811D01*
X150193078Y-92639811D02*
G75*
G03*
X150193078Y-92639811I-3000000J0D01*
G01*
X144048503Y-52457589D02*
X144048503Y-52176429D01*
X143028503Y-52457589D02*
X143028503Y-52176429D01*
X135551245Y-84839509D02*
X136025761Y-84839509D01*
X135551245Y-83794509D02*
X136025761Y-83794509D01*
X136025761Y-90794509D02*
X135551245Y-90794509D01*
X136025761Y-91839509D02*
X135551245Y-91839509D01*
X135551245Y-92544509D02*
X136025761Y-92544509D01*
X135551245Y-93589509D02*
X136025761Y-93589509D01*
X136025761Y-85544509D02*
X135551245Y-85544509D01*
X136025761Y-86589509D02*
X135551245Y-86589509D01*
X136013498Y-63607012D02*
X136294658Y-63607012D01*
X136013498Y-62587012D02*
X136294658Y-62587012D01*
X153348503Y-33073417D02*
X154148503Y-33073417D01*
X153348503Y-36193417D02*
X152548503Y-36193417D01*
X153348503Y-33073417D02*
X151548503Y-33073417D01*
X153348503Y-36193417D02*
X154148503Y-36193417D01*
X146179083Y-52873417D02*
X145897923Y-52873417D01*
X146179083Y-53893417D02*
X145897923Y-53893417D01*
X145801245Y-54860917D02*
X146275761Y-54860917D01*
X145801245Y-55905917D02*
X146275761Y-55905917D01*
X150688503Y-51184012D02*
X150688503Y-53184012D01*
X147888503Y-51184012D02*
X150688503Y-51184012D01*
X147888503Y-53184012D02*
X147888503Y-51184012D01*
X150688503Y-53184012D02*
X147888503Y-53184012D01*
X148893248Y-53860916D02*
X149367764Y-53860916D01*
X148893248Y-54905916D02*
X149367764Y-54905916D01*
X148930336Y-39255917D02*
X148455820Y-39255917D01*
X148930336Y-38210917D02*
X148455820Y-38210917D01*
X158016003Y-58770675D02*
X158016003Y-58296159D01*
X159061003Y-58770675D02*
X159061003Y-58296159D01*
X156279539Y-53580917D02*
X155805023Y-53580917D01*
X156279539Y-52535917D02*
X155805023Y-52535917D01*
X155775761Y-61905917D02*
X155301245Y-61905917D01*
X155775761Y-60860917D02*
X155301245Y-60860917D01*
X154302498Y-37643417D02*
X154583658Y-37643417D01*
X154302498Y-36623417D02*
X154583658Y-36623417D01*
X152516003Y-58289426D02*
X152516003Y-57814910D01*
X153561003Y-58289426D02*
X153561003Y-57814910D01*
X155443078Y-38757009D02*
X153768078Y-38757009D01*
X155443078Y-41877009D02*
X154793078Y-41877009D01*
X155443078Y-38757009D02*
X156093078Y-38757009D01*
X155443078Y-41877009D02*
X156093078Y-41877009D01*
X152516003Y-64296159D02*
X152516003Y-64770675D01*
X153561003Y-64296159D02*
X153561003Y-64770675D01*
X158638503Y-25947390D02*
X158638503Y-26746634D01*
X159758503Y-25947390D02*
X159758503Y-26746634D01*
X149170578Y-25145675D02*
X149170578Y-24671159D01*
X150215578Y-25145675D02*
X150215578Y-24671159D01*
X157098503Y-58633417D02*
X157098503Y-59283417D01*
X153978503Y-58633417D02*
X153978503Y-57983417D01*
X153978503Y-58633417D02*
X153978503Y-59283417D01*
X157098503Y-58633417D02*
X157098503Y-56958417D01*
D14*
X153343078Y-31658417D02*
X153943078Y-31258417D01*
X152943078Y-31658417D02*
X153343078Y-31658417D01*
D12*
X151443078Y-30658417D02*
X155343078Y-30658417D01*
X151443078Y-30658417D02*
X151443078Y-32658417D01*
D14*
X153943078Y-31658417D02*
X154443078Y-31658417D01*
D12*
X151443078Y-32658417D02*
X155343078Y-32658417D01*
D14*
X153343078Y-32208417D02*
X153343078Y-31108417D01*
X153943078Y-31258417D02*
X153943078Y-32058417D01*
X153943078Y-32058417D02*
X153343078Y-31658417D01*
D12*
X145633078Y-25327417D02*
X145633078Y-24527417D01*
X148753078Y-25327417D02*
X148753078Y-23527417D01*
X145633078Y-25327417D02*
X145633078Y-26127417D01*
X148753078Y-25327417D02*
X148753078Y-26127417D01*
D14*
X142693078Y-24658417D02*
X142693078Y-24158417D01*
D12*
X141693078Y-27158417D02*
X143693078Y-27158417D01*
D14*
X142293078Y-24658417D02*
X143093078Y-24658417D01*
X142693078Y-25658417D02*
X142693078Y-25258417D01*
X142693078Y-25258417D02*
X142293078Y-24658417D01*
X143243078Y-25258417D02*
X142143078Y-25258417D01*
D12*
X141693078Y-27158417D02*
X141693078Y-23258417D01*
D14*
X143093078Y-24658417D02*
X142693078Y-25258417D01*
D12*
X143693078Y-27158417D02*
X143693078Y-23258417D01*
X157098503Y-65883417D02*
X157098503Y-66533417D01*
X153978503Y-65883417D02*
X153978503Y-66533417D01*
X157098503Y-65883417D02*
X157098503Y-64208417D01*
X153978503Y-65883417D02*
X153978503Y-65233417D01*
X152083658Y-38223417D02*
X151802498Y-38223417D01*
X152083658Y-39243417D02*
X151802498Y-39243417D01*
D10*
X153771459Y-52327012D02*
G75*
G03*
X153771459Y-52327012I-102956J0D01*
G01*
D15*
X152038503Y-53797012D02*
X152038503Y-54397012D01*
X154038503Y-53797012D02*
X154038503Y-54397012D01*
D12*
X147848503Y-35283417D02*
X150648503Y-35283417D01*
X150648503Y-35283417D02*
X150648503Y-37283417D01*
X150648503Y-37283417D02*
X147848503Y-37283417D01*
X147848503Y-37283417D02*
X147848503Y-35283417D01*
X158000760Y-70410918D02*
X157526244Y-70410918D01*
X158000760Y-71455918D02*
X157526244Y-71455918D01*
X152528503Y-61167837D02*
X152528503Y-61448997D01*
X153548503Y-61167837D02*
X153548503Y-61448997D01*
D14*
X159088503Y-62883417D02*
X157988503Y-62883417D01*
X158538503Y-62883417D02*
X158138503Y-62283417D01*
D12*
X157538503Y-64783417D02*
X159538503Y-64783417D01*
X157538503Y-64783417D02*
X157538503Y-60883417D01*
D14*
X158138503Y-62283417D02*
X158938503Y-62283417D01*
D12*
X159538503Y-64783417D02*
X159538503Y-60883417D01*
D14*
X158538503Y-63283417D02*
X158538503Y-62883417D01*
X158938503Y-62283417D02*
X158538503Y-62883417D01*
X158538503Y-62283417D02*
X158538503Y-61783417D01*
D12*
X153545142Y-26818417D02*
X152341014Y-26818417D01*
X153545142Y-24998417D02*
X152341014Y-24998417D01*
X153760336Y-29135917D02*
X153285820Y-29135917D01*
X153760336Y-30180917D02*
X153285820Y-30180917D01*
X150107003Y-47152159D02*
X150107003Y-47626675D01*
X151152003Y-47152159D02*
X151152003Y-47626675D01*
X150693078Y-22408417D02*
X150693078Y-24408417D01*
X150693078Y-22408417D02*
X154593078Y-22408417D01*
D14*
X153193078Y-23808417D02*
X152593078Y-23408417D01*
X152593078Y-23958417D02*
X152593078Y-22858417D01*
X152593078Y-23408417D02*
X153193078Y-23008417D01*
D12*
X150693078Y-24408417D02*
X154593078Y-24408417D01*
D14*
X153193078Y-23408417D02*
X153693078Y-23408417D01*
X153193078Y-23008417D02*
X153193078Y-23808417D01*
X152193078Y-23408417D02*
X152593078Y-23408417D01*
D12*
X150648503Y-34083417D02*
X147848503Y-34083417D01*
X150648503Y-32083417D02*
X150648503Y-34083417D01*
X147848503Y-34083417D02*
X147848503Y-32083417D01*
X147848503Y-32083417D02*
X150648503Y-32083417D01*
X153285820Y-27385917D02*
X153760336Y-27385917D01*
X153285820Y-28430917D02*
X153760336Y-28430917D01*
X157904083Y-68673418D02*
X157622923Y-68673418D01*
X157904083Y-69693418D02*
X157622923Y-69693418D01*
X155301245Y-63655917D02*
X155775761Y-63655917D01*
X155301245Y-62610917D02*
X155775761Y-62610917D01*
X155538503Y-28817009D02*
X157538503Y-28817009D01*
D14*
X156138503Y-26317009D02*
X156938503Y-26317009D01*
X156538503Y-26317009D02*
X156538503Y-25817009D01*
X157088503Y-26917009D02*
X155988503Y-26917009D01*
X156538503Y-26917009D02*
X156138503Y-26317009D01*
X156938503Y-26317009D02*
X156538503Y-26917009D01*
D12*
X155538503Y-28817009D02*
X155538503Y-24917009D01*
D14*
X156538503Y-27317009D02*
X156538503Y-26917009D01*
D12*
X157538503Y-28817009D02*
X157538503Y-24917009D01*
X158016003Y-66770675D02*
X158016003Y-66296159D01*
X159061003Y-66770675D02*
X159061003Y-66296159D01*
X140253078Y-20883039D02*
X140253078Y-20083795D01*
X139133078Y-20883039D02*
X139133078Y-20083795D01*
X149152003Y-47152159D02*
X149152003Y-47626675D01*
X148107003Y-47152159D02*
X148107003Y-47626675D01*
X144170578Y-25145675D02*
X144170578Y-24671159D01*
X145215578Y-25145675D02*
X145215578Y-24671159D01*
X156182861Y-54298417D02*
X155901701Y-54298417D01*
X156182861Y-55318417D02*
X155901701Y-55318417D01*
X143754078Y-69747012D02*
X143754078Y-71087012D01*
X153054078Y-75547012D02*
X153054078Y-73807012D01*
X145244078Y-69747012D02*
X145244078Y-68547012D01*
X143754078Y-73807012D02*
X143754078Y-75547012D01*
X145244078Y-69747012D02*
X143754078Y-69747012D01*
X153054078Y-69747012D02*
X153054078Y-71087012D01*
X151564078Y-69747012D02*
X153054078Y-69747012D01*
X143754078Y-75547012D02*
X153054078Y-75547012D01*
M02*
