G04 #@! TF.GenerationSoftware,KiCad,Pcbnew,(6.0.2)*
G04 #@! TF.CreationDate,2022-05-21T05:00:10+01:00*
G04 #@! TF.ProjectId,Cantaloupe,43616e74-616c-46f7-9570-652e6b696361,rev?*
G04 #@! TF.SameCoordinates,Original*
G04 #@! TF.FileFunction,Legend,Bot*
G04 #@! TF.FilePolarity,Positive*
%FSLAX46Y46*%
G04 Gerber Fmt 4.6, Leading zero omitted, Abs format (unit mm)*
G04 Created by KiCad (PCBNEW (6.0.2)) date 2022-05-21 05:00:10*
%MOMM*%
%LPD*%
G01*
G04 APERTURE LIST*
%ADD10C,0.200000*%
%ADD11C,0.150000*%
%ADD12C,0.120000*%
%ADD13C,0.127000*%
G04 APERTURE END LIST*
D10*
X157228792Y-77850559D02*
X157014506Y-77921988D01*
X156657363Y-77921988D01*
X156514506Y-77850559D01*
X156443078Y-77779131D01*
X156371649Y-77636274D01*
X156371649Y-77493417D01*
X156443078Y-77350559D01*
X156514506Y-77279131D01*
X156657363Y-77207702D01*
X156943078Y-77136274D01*
X157085935Y-77064845D01*
X157157363Y-76993417D01*
X157228792Y-76850559D01*
X157228792Y-76707702D01*
X157157363Y-76564845D01*
X157085935Y-76493417D01*
X156943078Y-76421988D01*
X156585935Y-76421988D01*
X156371649Y-76493417D01*
X155514506Y-77921988D02*
X155657363Y-77850559D01*
X155728792Y-77779131D01*
X155800220Y-77636274D01*
X155800220Y-77207702D01*
X155728792Y-77064845D01*
X155657363Y-76993417D01*
X155514506Y-76921988D01*
X155300220Y-76921988D01*
X155157363Y-76993417D01*
X155085935Y-77064845D01*
X155014506Y-77207702D01*
X155014506Y-77636274D01*
X155085935Y-77779131D01*
X155157363Y-77850559D01*
X155300220Y-77921988D01*
X155514506Y-77921988D01*
X154157363Y-77921988D02*
X154300220Y-77850559D01*
X154371649Y-77707702D01*
X154371649Y-76421988D01*
X152943078Y-77921988D02*
X152943078Y-76421988D01*
X152943078Y-77850559D02*
X153085935Y-77921988D01*
X153371649Y-77921988D01*
X153514506Y-77850559D01*
X153585935Y-77779131D01*
X153657363Y-77636274D01*
X153657363Y-77207702D01*
X153585935Y-77064845D01*
X153514506Y-76993417D01*
X153371649Y-76921988D01*
X153085935Y-76921988D01*
X152943078Y-76993417D01*
X151657363Y-77850559D02*
X151800220Y-77921988D01*
X152085935Y-77921988D01*
X152228792Y-77850559D01*
X152300220Y-77707702D01*
X152300220Y-77136274D01*
X152228792Y-76993417D01*
X152085935Y-76921988D01*
X151800220Y-76921988D01*
X151657363Y-76993417D01*
X151585935Y-77136274D01*
X151585935Y-77279131D01*
X152300220Y-77421988D01*
X150943078Y-77921988D02*
X150943078Y-76921988D01*
X150943078Y-77207702D02*
X150871649Y-77064845D01*
X150800220Y-76993417D01*
X150657363Y-76921988D01*
X150514506Y-76921988D01*
X148871649Y-76921988D02*
X148871649Y-78207702D01*
X148943078Y-78350559D01*
X149085935Y-78421988D01*
X149157363Y-78421988D01*
X148871649Y-76421988D02*
X148943078Y-76493417D01*
X148871649Y-76564845D01*
X148800220Y-76493417D01*
X148871649Y-76421988D01*
X148871649Y-76564845D01*
X147514506Y-76921988D02*
X147514506Y-77921988D01*
X148157363Y-76921988D02*
X148157363Y-77707702D01*
X148085935Y-77850559D01*
X147943078Y-77921988D01*
X147728792Y-77921988D01*
X147585935Y-77850559D01*
X147514506Y-77779131D01*
X146800220Y-77921988D02*
X146800220Y-76921988D01*
X146800220Y-77064845D02*
X146728792Y-76993417D01*
X146585935Y-76921988D01*
X146371649Y-76921988D01*
X146228792Y-76993417D01*
X146157363Y-77136274D01*
X146157363Y-77921988D01*
X146157363Y-77136274D02*
X146085935Y-76993417D01*
X145943078Y-76921988D01*
X145728792Y-76921988D01*
X145585935Y-76993417D01*
X145514506Y-77136274D01*
X145514506Y-77921988D01*
X144800220Y-76921988D02*
X144800220Y-78421988D01*
X144800220Y-76993417D02*
X144657363Y-76921988D01*
X144371649Y-76921988D01*
X144228792Y-76993417D01*
X144157363Y-77064845D01*
X144085935Y-77207702D01*
X144085935Y-77636274D01*
X144157363Y-77779131D01*
X144228792Y-77850559D01*
X144371649Y-77921988D01*
X144657363Y-77921988D01*
X144800220Y-77850559D01*
X142871649Y-77850559D02*
X143014506Y-77921988D01*
X143300220Y-77921988D01*
X143443078Y-77850559D01*
X143514506Y-77707702D01*
X143514506Y-77136274D01*
X143443078Y-76993417D01*
X143300220Y-76921988D01*
X143014506Y-76921988D01*
X142871649Y-76993417D01*
X142800220Y-77136274D01*
X142800220Y-77279131D01*
X143514506Y-77421988D01*
X142157363Y-77921988D02*
X142157363Y-76921988D01*
X142157363Y-77207702D02*
X142085935Y-77064845D01*
X142014506Y-76993417D01*
X141871649Y-76921988D01*
X141728792Y-76921988D01*
X141300220Y-77850559D02*
X141157363Y-77921988D01*
X140871649Y-77921988D01*
X140728792Y-77850559D01*
X140657363Y-77707702D01*
X140657363Y-77636274D01*
X140728792Y-77493417D01*
X140871649Y-77421988D01*
X141085935Y-77421988D01*
X141228792Y-77350559D01*
X141300220Y-77207702D01*
X141300220Y-77136274D01*
X141228792Y-76993417D01*
X141085935Y-76921988D01*
X140871649Y-76921988D01*
X140728792Y-76993417D01*
X138657363Y-77921988D02*
X138800220Y-77850559D01*
X138871649Y-77779131D01*
X138943078Y-77636274D01*
X138943078Y-77207702D01*
X138871649Y-77064845D01*
X138800220Y-76993417D01*
X138657363Y-76921988D01*
X138443078Y-76921988D01*
X138300220Y-76993417D01*
X138228792Y-77064845D01*
X138157363Y-77207702D01*
X138157363Y-77636274D01*
X138228792Y-77779131D01*
X138300220Y-77850559D01*
X138443078Y-77921988D01*
X138657363Y-77921988D01*
X137514506Y-76921988D02*
X137514506Y-77921988D01*
X137514506Y-77064845D02*
X137443078Y-76993417D01*
X137300220Y-76921988D01*
X137085935Y-76921988D01*
X136943078Y-76993417D01*
X136871649Y-77136274D01*
X136871649Y-77921988D01*
X155800220Y-79336988D02*
X155228792Y-79336988D01*
X155585935Y-78836988D02*
X155585935Y-80122702D01*
X155514506Y-80265559D01*
X155371649Y-80336988D01*
X155228792Y-80336988D01*
X154728792Y-80336988D02*
X154728792Y-78836988D01*
X154085935Y-80336988D02*
X154085935Y-79551274D01*
X154157363Y-79408417D01*
X154300220Y-79336988D01*
X154514506Y-79336988D01*
X154657363Y-79408417D01*
X154728792Y-79479845D01*
X153371649Y-80336988D02*
X153371649Y-79336988D01*
X153371649Y-78836988D02*
X153443078Y-78908417D01*
X153371649Y-78979845D01*
X153300220Y-78908417D01*
X153371649Y-78836988D01*
X153371649Y-78979845D01*
X152728792Y-80265559D02*
X152585935Y-80336988D01*
X152300220Y-80336988D01*
X152157363Y-80265559D01*
X152085935Y-80122702D01*
X152085935Y-80051274D01*
X152157363Y-79908417D01*
X152300220Y-79836988D01*
X152514506Y-79836988D01*
X152657363Y-79765559D01*
X152728792Y-79622702D01*
X152728792Y-79551274D01*
X152657363Y-79408417D01*
X152514506Y-79336988D01*
X152300220Y-79336988D01*
X152157363Y-79408417D01*
X150371649Y-80265559D02*
X150228792Y-80336988D01*
X149943078Y-80336988D01*
X149800220Y-80265559D01*
X149728792Y-80122702D01*
X149728792Y-80051274D01*
X149800220Y-79908417D01*
X149943078Y-79836988D01*
X150157363Y-79836988D01*
X150300220Y-79765559D01*
X150371649Y-79622702D01*
X150371649Y-79551274D01*
X150300220Y-79408417D01*
X150157363Y-79336988D01*
X149943078Y-79336988D01*
X149800220Y-79408417D01*
X149085935Y-80336988D02*
X149085935Y-79336988D01*
X149085935Y-78836988D02*
X149157363Y-78908417D01*
X149085935Y-78979845D01*
X149014506Y-78908417D01*
X149085935Y-78836988D01*
X149085935Y-78979845D01*
X147728792Y-80336988D02*
X147728792Y-78836988D01*
X147728792Y-80265559D02*
X147871649Y-80336988D01*
X148157363Y-80336988D01*
X148300220Y-80265559D01*
X148371649Y-80194131D01*
X148443078Y-80051274D01*
X148443078Y-79622702D01*
X148371649Y-79479845D01*
X148300220Y-79408417D01*
X148157363Y-79336988D01*
X147871649Y-79336988D01*
X147728792Y-79408417D01*
X146443078Y-80265559D02*
X146585935Y-80336988D01*
X146871649Y-80336988D01*
X147014506Y-80265559D01*
X147085935Y-80122702D01*
X147085935Y-79551274D01*
X147014506Y-79408417D01*
X146871649Y-79336988D01*
X146585935Y-79336988D01*
X146443078Y-79408417D01*
X146371649Y-79551274D01*
X146371649Y-79694131D01*
X147085935Y-79836988D01*
X144585935Y-80336988D02*
X144585935Y-79336988D01*
X144585935Y-78836988D02*
X144657363Y-78908417D01*
X144585935Y-78979845D01*
X144514506Y-78908417D01*
X144585935Y-78836988D01*
X144585935Y-78979845D01*
X144085935Y-79336988D02*
X143514506Y-79336988D01*
X143871649Y-80336988D02*
X143871649Y-79051274D01*
X143800220Y-78908417D01*
X143657363Y-78836988D01*
X143514506Y-78836988D01*
X142085935Y-79336988D02*
X141514506Y-79336988D01*
X141871649Y-78836988D02*
X141871649Y-80122702D01*
X141800220Y-80265559D01*
X141657363Y-80336988D01*
X141514506Y-80336988D01*
X141014506Y-80336988D02*
X141014506Y-78836988D01*
X140371649Y-80336988D02*
X140371649Y-79551274D01*
X140443078Y-79408417D01*
X140585935Y-79336988D01*
X140800220Y-79336988D01*
X140943078Y-79408417D01*
X141014506Y-79479845D01*
X139657363Y-80336988D02*
X139657363Y-79336988D01*
X139657363Y-78836988D02*
X139728792Y-78908417D01*
X139657363Y-78979845D01*
X139585935Y-78908417D01*
X139657363Y-78836988D01*
X139657363Y-78979845D01*
X139014506Y-80265559D02*
X138871649Y-80336988D01*
X138585935Y-80336988D01*
X138443078Y-80265559D01*
X138371649Y-80122702D01*
X138371649Y-80051274D01*
X138443078Y-79908417D01*
X138585935Y-79836988D01*
X138800220Y-79836988D01*
X138943078Y-79765559D01*
X139014506Y-79622702D01*
X139014506Y-79551274D01*
X138943078Y-79408417D01*
X138800220Y-79336988D01*
X138585935Y-79336988D01*
X138443078Y-79408417D01*
X154585935Y-82751988D02*
X154585935Y-81751988D01*
X154585935Y-81251988D02*
X154657363Y-81323417D01*
X154585935Y-81394845D01*
X154514506Y-81323417D01*
X154585935Y-81251988D01*
X154585935Y-81394845D01*
X153943078Y-82680559D02*
X153800220Y-82751988D01*
X153514506Y-82751988D01*
X153371649Y-82680559D01*
X153300220Y-82537702D01*
X153300220Y-82466274D01*
X153371649Y-82323417D01*
X153514506Y-82251988D01*
X153728792Y-82251988D01*
X153871649Y-82180559D01*
X153943078Y-82037702D01*
X153943078Y-81966274D01*
X153871649Y-81823417D01*
X153728792Y-81751988D01*
X153514506Y-81751988D01*
X153371649Y-81823417D01*
X151728792Y-81751988D02*
X151157363Y-81751988D01*
X151514506Y-81251988D02*
X151514506Y-82537702D01*
X151443078Y-82680559D01*
X151300220Y-82751988D01*
X151157363Y-82751988D01*
X150657363Y-82751988D02*
X150657363Y-81251988D01*
X150014506Y-82751988D02*
X150014506Y-81966274D01*
X150085935Y-81823417D01*
X150228792Y-81751988D01*
X150443078Y-81751988D01*
X150585935Y-81823417D01*
X150657363Y-81894845D01*
X148728792Y-82680559D02*
X148871649Y-82751988D01*
X149157363Y-82751988D01*
X149300220Y-82680559D01*
X149371649Y-82537702D01*
X149371649Y-81966274D01*
X149300220Y-81823417D01*
X149157363Y-81751988D01*
X148871649Y-81751988D01*
X148728792Y-81823417D01*
X148657363Y-81966274D01*
X148657363Y-82109131D01*
X149371649Y-82251988D01*
X146657363Y-82751988D02*
X146800220Y-82680559D01*
X146871649Y-82537702D01*
X146871649Y-81251988D01*
X145514506Y-82680559D02*
X145657363Y-82751988D01*
X145943078Y-82751988D01*
X146085935Y-82680559D01*
X146157363Y-82537702D01*
X146157363Y-81966274D01*
X146085935Y-81823417D01*
X145943078Y-81751988D01*
X145657363Y-81751988D01*
X145514506Y-81823417D01*
X145443078Y-81966274D01*
X145443078Y-82109131D01*
X146157363Y-82251988D01*
X145014506Y-81751988D02*
X144443078Y-81751988D01*
X144800220Y-82751988D02*
X144800220Y-81466274D01*
X144728792Y-81323417D01*
X144585935Y-81251988D01*
X144443078Y-81251988D01*
X144157363Y-81751988D02*
X143585935Y-81751988D01*
X143943078Y-81251988D02*
X143943078Y-82537702D01*
X143871649Y-82680559D01*
X143728792Y-82751988D01*
X143585935Y-82751988D01*
X141943078Y-82751988D02*
X141943078Y-81251988D01*
X141300220Y-82751988D02*
X141300220Y-81966274D01*
X141371649Y-81823417D01*
X141514506Y-81751988D01*
X141728792Y-81751988D01*
X141871649Y-81823417D01*
X141943078Y-81894845D01*
X139943078Y-82751988D02*
X139943078Y-81966274D01*
X140014506Y-81823417D01*
X140157363Y-81751988D01*
X140443078Y-81751988D01*
X140585935Y-81823417D01*
X139943078Y-82680559D02*
X140085935Y-82751988D01*
X140443078Y-82751988D01*
X140585935Y-82680559D01*
X140657363Y-82537702D01*
X140657363Y-82394845D01*
X140585935Y-82251988D01*
X140443078Y-82180559D01*
X140085935Y-82180559D01*
X139943078Y-82109131D01*
X139014506Y-82751988D02*
X139157363Y-82680559D01*
X139228792Y-82537702D01*
X139228792Y-81251988D01*
X138657363Y-81751988D02*
X138085935Y-81751988D01*
X138443078Y-82751988D02*
X138443078Y-81466274D01*
X138371649Y-81323417D01*
X138228792Y-81251988D01*
X138085935Y-81251988D01*
D11*
X159546935Y-48418440D02*
X158785030Y-48418440D01*
X159165982Y-48799392D02*
X159165982Y-48037488D01*
X156785030Y-48418440D02*
X156737411Y-48180345D01*
X156689792Y-48085107D01*
X156594554Y-48037488D01*
X156499316Y-48085107D01*
X156451697Y-48180345D01*
X156356458Y-48656535D01*
X156308839Y-48751773D01*
X156213601Y-48799392D01*
X156118363Y-48751773D01*
X156070744Y-48656535D01*
X156023125Y-48418440D01*
X154023125Y-48418440D02*
X153261220Y-48418440D01*
X139897907Y-36955797D02*
X139897907Y-35955797D01*
X139659812Y-35955797D01*
X139516955Y-36003417D01*
X139421717Y-36098655D01*
X139374098Y-36193893D01*
X139326479Y-36384369D01*
X139326479Y-36527226D01*
X139374098Y-36717702D01*
X139421717Y-36812940D01*
X139516955Y-36908178D01*
X139659812Y-36955797D01*
X139897907Y-36955797D01*
X138897907Y-36955797D02*
X138897907Y-35955797D01*
X138231241Y-35955797D02*
X138040764Y-35955797D01*
X137945526Y-36003417D01*
X137850288Y-36098655D01*
X137802669Y-36289131D01*
X137802669Y-36622464D01*
X137850288Y-36812940D01*
X137945526Y-36908178D01*
X138040764Y-36955797D01*
X138231241Y-36955797D01*
X138326479Y-36908178D01*
X138421717Y-36812940D01*
X138469336Y-36622464D01*
X138469336Y-36289131D01*
X138421717Y-36098655D01*
X138326479Y-36003417D01*
X138231241Y-35955797D01*
X139326479Y-34320559D02*
X139374098Y-34368178D01*
X139516955Y-34415797D01*
X139612193Y-34415797D01*
X139755050Y-34368178D01*
X139850288Y-34272940D01*
X139897907Y-34177702D01*
X139945526Y-33987226D01*
X139945526Y-33844369D01*
X139897907Y-33653893D01*
X139850288Y-33558655D01*
X139755050Y-33463417D01*
X139612193Y-33415797D01*
X139516955Y-33415797D01*
X139374098Y-33463417D01*
X139326479Y-33511036D01*
X138421717Y-34415797D02*
X138897907Y-34415797D01*
X138897907Y-33415797D01*
X138088383Y-34415797D02*
X138088383Y-33415797D01*
X137516955Y-34415797D02*
X137945526Y-33844369D01*
X137516955Y-33415797D02*
X138088383Y-33987226D01*
X139374098Y-30923417D02*
X139469336Y-30875797D01*
X139612193Y-30875797D01*
X139755050Y-30923417D01*
X139850288Y-31018655D01*
X139897907Y-31113893D01*
X139945526Y-31304369D01*
X139945526Y-31447226D01*
X139897907Y-31637702D01*
X139850288Y-31732940D01*
X139755050Y-31828178D01*
X139612193Y-31875797D01*
X139516955Y-31875797D01*
X139374098Y-31828178D01*
X139326479Y-31780559D01*
X139326479Y-31447226D01*
X139516955Y-31447226D01*
X138897907Y-31875797D02*
X138897907Y-30875797D01*
X138326479Y-31875797D01*
X138326479Y-30875797D01*
X137850288Y-31875797D02*
X137850288Y-30875797D01*
X137612193Y-30875797D01*
X137469336Y-30923417D01*
X137374098Y-31018655D01*
X137326479Y-31113893D01*
X137278860Y-31304369D01*
X137278860Y-31447226D01*
X137326479Y-31637702D01*
X137374098Y-31732940D01*
X137469336Y-31828178D01*
X137612193Y-31875797D01*
X137850288Y-31875797D01*
X139993145Y-38495797D02*
X139374098Y-38495797D01*
X139707431Y-38876750D01*
X139564574Y-38876750D01*
X139469336Y-38924369D01*
X139421717Y-38971988D01*
X139374098Y-39067226D01*
X139374098Y-39305321D01*
X139421717Y-39400559D01*
X139469336Y-39448178D01*
X139564574Y-39495797D01*
X139850288Y-39495797D01*
X139945526Y-39448178D01*
X139993145Y-39400559D01*
X139040764Y-38829131D02*
X138802669Y-39495797D01*
X138564574Y-38829131D01*
X138278860Y-38495797D02*
X137659812Y-38495797D01*
X137993145Y-38876750D01*
X137850288Y-38876750D01*
X137755050Y-38924369D01*
X137707431Y-38971988D01*
X137659812Y-39067226D01*
X137659812Y-39305321D01*
X137707431Y-39400559D01*
X137755050Y-39448178D01*
X137850288Y-39495797D01*
X138136003Y-39495797D01*
X138231241Y-39448178D01*
X138278860Y-39400559D01*
X150121836Y-49699392D02*
X150121836Y-50413678D01*
X150169455Y-50556535D01*
X150264693Y-50651773D01*
X150407550Y-50699392D01*
X150502788Y-50699392D01*
X149645645Y-50699392D02*
X149645645Y-49699392D01*
X149264693Y-49699392D01*
X149169455Y-49747012D01*
X149121836Y-49794631D01*
X149074217Y-49889869D01*
X149074217Y-50032726D01*
X149121836Y-50127964D01*
X149169455Y-50175583D01*
X149264693Y-50223202D01*
X149645645Y-50223202D01*
X148121836Y-50699392D02*
X148693264Y-50699392D01*
X148407550Y-50699392D02*
X148407550Y-49699392D01*
X148502788Y-49842250D01*
X148598026Y-49937488D01*
X148693264Y-49985107D01*
X147031836Y-35844389D02*
X147031836Y-36558675D01*
X147079455Y-36701532D01*
X147174693Y-36796770D01*
X147317550Y-36844389D01*
X147412788Y-36844389D01*
X146555645Y-36844389D02*
X146555645Y-35844389D01*
X146174693Y-35844389D01*
X146079455Y-35892009D01*
X146031836Y-35939628D01*
X145984217Y-36034866D01*
X145984217Y-36177723D01*
X146031836Y-36272961D01*
X146079455Y-36320580D01*
X146174693Y-36368199D01*
X146555645Y-36368199D01*
X145079455Y-35844389D02*
X145555645Y-35844389D01*
X145603264Y-36320580D01*
X145555645Y-36272961D01*
X145460407Y-36225342D01*
X145222312Y-36225342D01*
X145127074Y-36272961D01*
X145079455Y-36320580D01*
X145031836Y-36415818D01*
X145031836Y-36653913D01*
X145079455Y-36749151D01*
X145127074Y-36796770D01*
X145222312Y-36844389D01*
X145460407Y-36844389D01*
X145555645Y-36796770D01*
X145603264Y-36749151D01*
X147281836Y-32594389D02*
X147281836Y-33308675D01*
X147329455Y-33451532D01*
X147424693Y-33546770D01*
X147567550Y-33594389D01*
X147662788Y-33594389D01*
X146805645Y-33594389D02*
X146805645Y-32594389D01*
X146424693Y-32594389D01*
X146329455Y-32642009D01*
X146281836Y-32689628D01*
X146234217Y-32784866D01*
X146234217Y-32927723D01*
X146281836Y-33022961D01*
X146329455Y-33070580D01*
X146424693Y-33118199D01*
X146805645Y-33118199D01*
X145377074Y-32594389D02*
X145567550Y-32594389D01*
X145662788Y-32642009D01*
X145710407Y-32689628D01*
X145805645Y-32832485D01*
X145853264Y-33022961D01*
X145853264Y-33403913D01*
X145805645Y-33499151D01*
X145758026Y-33546770D01*
X145662788Y-33594389D01*
X145472312Y-33594389D01*
X145377074Y-33546770D01*
X145329455Y-33499151D01*
X145281836Y-33403913D01*
X145281836Y-33165818D01*
X145329455Y-33070580D01*
X145377074Y-33022961D01*
X145472312Y-32975342D01*
X145662788Y-32975342D01*
X145758026Y-33022961D01*
X145805645Y-33070580D01*
X145853264Y-33165818D01*
D12*
X157693078Y-45959596D02*
X136693078Y-45959596D01*
X160893078Y-21509596D02*
X160893078Y-42509596D01*
X136593078Y-18009596D02*
X157793078Y-18009596D01*
X133493078Y-42509596D02*
X133493078Y-21509596D01*
X153093078Y-90639811D02*
X153093078Y-86539811D01*
X145893078Y-98739811D02*
X148493078Y-98739811D01*
X146693078Y-92639811D02*
X147693078Y-92639811D01*
X147193078Y-92139811D02*
X147193078Y-93139811D01*
X141293078Y-94639811D02*
X141293078Y-98739811D01*
X141293078Y-98739811D02*
X143693078Y-98739811D01*
X141293078Y-86539811D02*
X153093078Y-86539811D01*
X153093078Y-98739811D02*
X153093078Y-94639811D01*
X141293078Y-90639811D02*
X141293078Y-86539811D01*
X150693078Y-98739811D02*
X153093078Y-98739811D01*
X150193078Y-92639811D02*
G75*
G03*
X150193078Y-92639811I-3000000J0D01*
G01*
D10*
X153771459Y-55867012D02*
G75*
G03*
X153771459Y-55867012I-102956J0D01*
G01*
D13*
X154038503Y-54397012D02*
X154038503Y-53797012D01*
X152038503Y-54397012D02*
X152038503Y-53797012D01*
D12*
X147888503Y-51184012D02*
X147888503Y-53184012D01*
X150688503Y-53184012D02*
X150688503Y-51184012D01*
X147888503Y-53184012D02*
X150688503Y-53184012D01*
X150688503Y-51184012D02*
X147888503Y-51184012D01*
X145244078Y-69747012D02*
X143754078Y-69747012D01*
X153054078Y-73807012D02*
X153054078Y-75547012D01*
X151564078Y-69747012D02*
X151564078Y-68547012D01*
X143754078Y-75547012D02*
X143754078Y-73807012D01*
X153054078Y-69747012D02*
X153054078Y-71087012D01*
X143754078Y-69747012D02*
X143754078Y-71087012D01*
X151564078Y-69747012D02*
X153054078Y-69747012D01*
X153054078Y-75547012D02*
X143754078Y-75547012D01*
X150648503Y-35283417D02*
X147848503Y-35283417D01*
X147848503Y-35283417D02*
X147848503Y-37283417D01*
X147848503Y-37283417D02*
X150648503Y-37283417D01*
X150648503Y-37283417D02*
X150648503Y-35283417D01*
X150648503Y-34083417D02*
X150648503Y-32083417D01*
X150648503Y-32083417D02*
X147848503Y-32083417D01*
X147848503Y-34083417D02*
X150648503Y-34083417D01*
X147848503Y-32083417D02*
X147848503Y-34083417D01*
M02*
