G04 #@! TF.GenerationSoftware,KiCad,Pcbnew,(6.0.2)*
G04 #@! TF.CreationDate,2022-05-21T05:00:10+01:00*
G04 #@! TF.ProjectId,Cantaloupe,43616e74-616c-46f7-9570-652e6b696361,rev?*
G04 #@! TF.SameCoordinates,Original*
G04 #@! TF.FileFunction,Paste,Top*
G04 #@! TF.FilePolarity,Positive*
%FSLAX46Y46*%
G04 Gerber Fmt 4.6, Leading zero omitted, Abs format (unit mm)*
G04 Created by KiCad (PCBNEW (6.0.2)) date 2022-05-21 05:00:10*
%MOMM*%
%LPD*%
G01*
G04 APERTURE LIST*
G04 Aperture macros list*
%AMRoundRect*
0 Rectangle with rounded corners*
0 $1 Rounding radius*
0 $2 $3 $4 $5 $6 $7 $8 $9 X,Y pos of 4 corners*
0 Add a 4 corners polygon primitive as box body*
4,1,4,$2,$3,$4,$5,$6,$7,$8,$9,$2,$3,0*
0 Add four circle primitives for the rounded corners*
1,1,$1+$1,$2,$3*
1,1,$1+$1,$4,$5*
1,1,$1+$1,$6,$7*
1,1,$1+$1,$8,$9*
0 Add four rect primitives between the rounded corners*
20,1,$1+$1,$2,$3,$4,$5,0*
20,1,$1+$1,$4,$5,$6,$7,0*
20,1,$1+$1,$6,$7,$8,$9,0*
20,1,$1+$1,$8,$9,$2,$3,0*%
%AMRotRect*
0 Rectangle, with rotation*
0 The origin of the aperture is its center*
0 $1 length*
0 $2 width*
0 $3 Rotation angle, in degrees counterclockwise*
0 Add horizontal line*
21,1,$1,$2,0,0,$3*%
G04 Aperture macros list end*
%ADD10RoundRect,0.225000X0.225000X0.250000X-0.225000X0.250000X-0.225000X-0.250000X0.225000X-0.250000X0*%
%ADD11RoundRect,0.250000X0.315000X-0.315000X0.315000X0.315000X-0.315000X0.315000X-0.315000X-0.315000X0*%
%ADD12RoundRect,0.062500X0.062500X-0.375000X0.062500X0.375000X-0.062500X0.375000X-0.062500X-0.375000X0*%
%ADD13RoundRect,0.062500X0.375000X-0.062500X0.375000X0.062500X-0.375000X0.062500X-0.375000X-0.062500X0*%
%ADD14R,2.000000X2.400000*%
%ADD15R,1.200000X0.900000*%
%ADD16R,0.900000X1.200000*%
%ADD17RotRect,0.900000X1.200000X60.000000*%
%ADD18RotRect,0.900000X1.200000X75.000000*%
%ADD19RoundRect,0.225000X-0.225000X-0.250000X0.225000X-0.250000X0.225000X0.250000X-0.225000X0.250000X0*%
%ADD20RoundRect,0.225000X-0.250000X0.225000X-0.250000X-0.225000X0.250000X-0.225000X0.250000X0.225000X0*%
%ADD21RotRect,2.550000X2.500000X165.000000*%
%ADD22RotRect,2.550000X2.500000X150.000000*%
%ADD23R,2.550000X2.500000*%
%ADD24RoundRect,0.225000X0.250000X-0.225000X0.250000X0.225000X-0.250000X0.225000X-0.250000X-0.225000X0*%
%ADD25R,0.600000X1.200000*%
%ADD26R,0.300000X1.200000*%
%ADD27R,1.200000X0.600000*%
%ADD28R,1.200000X0.300000*%
%ADD29RoundRect,0.200000X-0.200000X-0.275000X0.200000X-0.275000X0.200000X0.275000X-0.200000X0.275000X0*%
%ADD30RoundRect,0.200000X0.200000X0.275000X-0.200000X0.275000X-0.200000X-0.275000X0.200000X-0.275000X0*%
%ADD31RoundRect,0.150000X-0.512500X-0.150000X0.512500X-0.150000X0.512500X0.150000X-0.512500X0.150000X0*%
%ADD32RoundRect,0.200000X0.275000X-0.200000X0.275000X0.200000X-0.275000X0.200000X-0.275000X-0.200000X0*%
%ADD33RoundRect,0.150000X-0.587500X-0.150000X0.587500X-0.150000X0.587500X0.150000X-0.587500X0.150000X0*%
%ADD34RoundRect,0.200000X-0.275000X0.200000X-0.275000X-0.200000X0.275000X-0.200000X0.275000X0.200000X0*%
%ADD35RoundRect,0.218750X-0.381250X0.218750X-0.381250X-0.218750X0.381250X-0.218750X0.381250X0.218750X0*%
%ADD36RoundRect,0.150000X-0.150000X0.587500X-0.150000X-0.587500X0.150000X-0.587500X0.150000X0.587500X0*%
%ADD37RoundRect,0.150000X-0.150000X0.512500X-0.150000X-0.512500X0.150000X-0.512500X0.150000X0.512500X0*%
%ADD38R,0.700000X0.700000*%
%ADD39RoundRect,0.250000X0.375000X0.625000X-0.375000X0.625000X-0.375000X-0.625000X0.375000X-0.625000X0*%
%ADD40RoundRect,0.218750X0.381250X-0.218750X0.381250X0.218750X-0.381250X0.218750X-0.381250X-0.218750X0*%
%ADD41R,0.300000X1.300000*%
%ADD42R,1.800000X2.200000*%
G04 APERTURE END LIST*
D10*
X143179078Y-62067009D03*
X141629078Y-62067009D03*
D11*
X136438503Y-57267009D03*
X136438503Y-54467009D03*
X137838503Y-54467009D03*
X139238503Y-55867009D03*
X140638503Y-58667009D03*
X139238503Y-57267009D03*
X140638503Y-57267009D03*
X136438503Y-55867009D03*
X140638503Y-55867009D03*
X140638503Y-54467009D03*
X137838503Y-57267009D03*
X137838503Y-58667009D03*
X139238503Y-58667009D03*
X136438503Y-58667009D03*
X137838503Y-55867009D03*
X139238503Y-54467009D03*
D12*
X135788503Y-60004509D03*
X136288503Y-60004509D03*
X136788503Y-60004509D03*
X137288503Y-60004509D03*
X137788503Y-60004509D03*
X138288503Y-60004509D03*
X138788503Y-60004509D03*
X139288503Y-60004509D03*
X139788503Y-60004509D03*
X140288503Y-60004509D03*
X140788503Y-60004509D03*
X141288503Y-60004509D03*
D13*
X141976003Y-59317009D03*
X141976003Y-58817009D03*
X141976003Y-58317009D03*
X141976003Y-57817009D03*
X141976003Y-57317009D03*
X141976003Y-56817009D03*
X141976003Y-56317009D03*
X141976003Y-55817009D03*
X141976003Y-55317009D03*
X141976003Y-54817009D03*
X141976003Y-54317009D03*
X141976003Y-53817009D03*
D12*
X141288503Y-53129509D03*
X140788503Y-53129509D03*
X140288503Y-53129509D03*
X139788503Y-53129509D03*
X139288503Y-53129509D03*
X138788503Y-53129509D03*
X138288503Y-53129509D03*
X137788503Y-53129509D03*
X137288503Y-53129509D03*
X136788503Y-53129509D03*
X136288503Y-53129509D03*
X135788503Y-53129509D03*
D13*
X135101003Y-53817009D03*
X135101003Y-54317009D03*
X135101003Y-54817009D03*
X135101003Y-55317009D03*
X135101003Y-55817009D03*
X135101003Y-56317009D03*
X135101003Y-56817009D03*
X135101003Y-57317009D03*
X135101003Y-57817009D03*
X135101003Y-58317009D03*
X135101003Y-58817009D03*
X135101003Y-59317009D03*
D10*
X140129078Y-63097012D03*
X138579078Y-63097012D03*
D14*
X135904078Y-65847012D03*
X139604078Y-65847012D03*
D15*
X128813518Y-74183999D03*
X128813518Y-70883999D03*
D16*
X145543078Y-102567012D03*
X148843078Y-102567012D03*
D15*
X52613518Y-75771503D03*
X52613518Y-72471503D03*
D17*
X126895380Y-120174444D03*
X128545380Y-117316560D03*
D15*
X103413514Y-113871500D03*
X103413514Y-110571500D03*
X109763519Y-90058992D03*
X109763519Y-86758992D03*
X71663517Y-90059002D03*
X71663517Y-86759002D03*
X52613520Y-94821500D03*
X52613520Y-91521500D03*
X90713516Y-67040243D03*
X90713516Y-63740243D03*
X128813523Y-93233994D03*
X128813523Y-89933994D03*
X71663516Y-109109001D03*
X71663516Y-105809001D03*
X52613514Y-56721498D03*
X52613514Y-53421498D03*
X90713523Y-86090253D03*
X90713523Y-82790253D03*
X52613511Y-113871498D03*
X52613511Y-110571498D03*
X128813516Y-55134003D03*
X128813516Y-51834003D03*
X33563516Y-116252751D03*
X33563516Y-112952751D03*
X71663517Y-71008996D03*
X71663517Y-67708996D03*
X33563515Y-97202750D03*
X33563515Y-93902750D03*
X109763514Y-71008988D03*
X109763514Y-67708988D03*
X33563525Y-78152749D03*
X33563525Y-74852749D03*
D18*
X124505911Y-119138036D03*
X125360013Y-115950480D03*
D15*
X90713521Y-47990247D03*
X90713521Y-44690247D03*
X71663522Y-51958998D03*
X71663522Y-48658998D03*
X109763514Y-51958998D03*
X109763514Y-48658998D03*
X109763514Y-32908998D03*
X109763514Y-29608998D03*
X90713513Y-28940251D03*
X90713513Y-25640251D03*
X33563516Y-59102745D03*
X33563516Y-55802745D03*
X128813520Y-36084001D03*
X128813520Y-32784001D03*
X71663510Y-32909000D03*
X71663510Y-29609000D03*
X33563515Y-40052747D03*
X33563515Y-36752747D03*
X52613514Y-37671501D03*
X52613514Y-34371501D03*
D19*
X135013503Y-89567009D03*
X136563503Y-89567009D03*
D20*
X133582503Y-59792009D03*
X133582503Y-61342009D03*
D19*
X135013503Y-87817009D03*
X136563503Y-87817009D03*
D10*
X135813503Y-51567009D03*
X134263503Y-51567009D03*
D21*
X111404383Y-108660084D03*
X123233506Y-114459289D03*
D22*
X133449961Y-116187589D03*
X143375071Y-124850793D03*
D23*
X18196511Y-33322748D03*
X31123511Y-35862748D03*
D24*
X143538503Y-53092009D03*
X143538503Y-51542009D03*
D23*
X94396514Y-83328990D03*
X107323514Y-85868990D03*
X113446499Y-86504011D03*
X126373499Y-89044011D03*
X56296504Y-83329002D03*
X69223504Y-85869002D03*
X75346504Y-79360249D03*
X88273504Y-81900249D03*
X18196519Y-109522754D03*
X31123519Y-112062754D03*
X94396499Y-45228999D03*
X107323499Y-47768999D03*
X113446509Y-48404005D03*
X126373509Y-50944005D03*
X18196511Y-71422757D03*
X31123511Y-73962757D03*
X37246518Y-69041487D03*
X50173518Y-71581487D03*
X56296504Y-64278989D03*
X69223504Y-66818989D03*
X94396517Y-64279014D03*
X107323517Y-66819014D03*
X75346502Y-60310254D03*
X88273502Y-62850254D03*
X113446506Y-67454002D03*
X126373506Y-69994002D03*
X18196521Y-90472756D03*
X31123521Y-93012756D03*
X37246505Y-88091499D03*
X50173505Y-90631499D03*
X37246498Y-107141502D03*
X50173498Y-109681502D03*
X56296508Y-102378999D03*
X69223508Y-104918999D03*
X88046507Y-107141498D03*
X100973507Y-109681498D03*
D25*
X143993078Y-20683417D03*
X150393078Y-20683417D03*
X144793078Y-20683417D03*
X149593078Y-20683417D03*
D26*
X148443078Y-20683417D03*
X147443078Y-20683417D03*
X146943078Y-20683417D03*
X145943078Y-20683417D03*
X145443078Y-20683417D03*
X146443078Y-20683417D03*
X147943078Y-20683417D03*
X148943078Y-20683417D03*
D27*
X157998503Y-37833417D03*
X157998503Y-31433417D03*
X157998503Y-32233417D03*
X157998503Y-37033417D03*
D28*
X157998503Y-35883417D03*
X157998503Y-34883417D03*
X157998503Y-34383417D03*
X157998503Y-33383417D03*
X157998503Y-32883417D03*
X157998503Y-33883417D03*
X157998503Y-35383417D03*
X157998503Y-36383417D03*
D23*
X56296507Y-26179007D03*
X69223507Y-28719007D03*
X18196513Y-52372742D03*
X31123513Y-54912742D03*
X56296502Y-45229002D03*
X69223502Y-47769002D03*
X94396507Y-26178993D03*
X107323507Y-28718993D03*
X75346509Y-41260246D03*
X88273509Y-43800246D03*
X75346510Y-22210244D03*
X88273510Y-24750244D03*
X37246500Y-30941501D03*
X50173500Y-33481501D03*
X37246505Y-49991507D03*
X50173505Y-52531507D03*
X113446503Y-29354012D03*
X126373503Y-31894012D03*
D29*
X134963503Y-84317009D03*
X136613503Y-84317009D03*
D30*
X136613503Y-91317009D03*
X134963503Y-91317009D03*
D29*
X134963503Y-93067009D03*
X136613503Y-93067009D03*
D30*
X136613503Y-86067009D03*
X134963503Y-86067009D03*
D19*
X135379078Y-63097012D03*
X136929078Y-63097012D03*
D31*
X152211003Y-33683417D03*
X152211003Y-34633417D03*
X152211003Y-35583417D03*
X154486003Y-35583417D03*
X154486003Y-34633417D03*
X154486003Y-33683417D03*
D10*
X146813503Y-53383417D03*
X145263503Y-53383417D03*
D29*
X145213503Y-55383417D03*
X146863503Y-55383417D03*
X148305506Y-54383416D03*
X149955506Y-54383416D03*
D30*
X149518078Y-38733417D03*
X147868078Y-38733417D03*
D32*
X158538503Y-59358417D03*
X158538503Y-57708417D03*
D30*
X156867281Y-53058417D03*
X155217281Y-53058417D03*
X156363503Y-61383417D03*
X154713503Y-61383417D03*
D19*
X153668078Y-37133417D03*
X155218078Y-37133417D03*
D32*
X153038503Y-58877168D03*
X153038503Y-57227168D03*
D33*
X154505578Y-39367009D03*
X154505578Y-41267009D03*
X156380578Y-40317009D03*
D34*
X153038503Y-63708417D03*
X153038503Y-65358417D03*
D35*
X159198503Y-25284512D03*
X159198503Y-27409512D03*
D32*
X149693078Y-25733417D03*
X149693078Y-24083417D03*
D36*
X156488503Y-57695917D03*
X154588503Y-57695917D03*
X155538503Y-59570917D03*
D16*
X152043078Y-31658417D03*
X155343078Y-31658417D03*
D37*
X148143078Y-24189917D03*
X147193078Y-24189917D03*
X146243078Y-24189917D03*
X146243078Y-26464917D03*
X147193078Y-26464917D03*
X148143078Y-26464917D03*
D15*
X142693078Y-26558417D03*
X142693078Y-23258417D03*
D36*
X156488503Y-64945917D03*
X154588503Y-64945917D03*
X155538503Y-66820917D03*
D10*
X152718078Y-38733417D03*
X151168078Y-38733417D03*
D38*
X153588503Y-55012012D03*
X152488503Y-55012012D03*
X152488503Y-53182012D03*
X153588503Y-53182012D03*
D30*
X158588502Y-70933418D03*
X156938502Y-70933418D03*
D20*
X153038503Y-60533417D03*
X153038503Y-62083417D03*
D15*
X158538503Y-64183417D03*
X158538503Y-60883417D03*
D39*
X154343078Y-25908417D03*
X151543078Y-25908417D03*
D30*
X154348078Y-29658417D03*
X152698078Y-29658417D03*
D34*
X150629503Y-46564417D03*
X150629503Y-48214417D03*
D16*
X151293078Y-23408417D03*
X154593078Y-23408417D03*
D29*
X152698078Y-27908417D03*
X154348078Y-27908417D03*
D10*
X158538503Y-69183418D03*
X156988503Y-69183418D03*
D29*
X154713503Y-63133417D03*
X156363503Y-63133417D03*
D15*
X156538503Y-28217009D03*
X156538503Y-24917009D03*
D32*
X158538503Y-67358417D03*
X158538503Y-65708417D03*
D40*
X139693078Y-21545917D03*
X139693078Y-19420917D03*
D34*
X148629503Y-46564417D03*
X148629503Y-48214417D03*
D32*
X144693078Y-25733417D03*
X144693078Y-24083417D03*
D10*
X156817281Y-54808417D03*
X155267281Y-54808417D03*
D41*
X145654078Y-69197012D03*
X146154078Y-69197012D03*
X146654078Y-69197012D03*
X147154078Y-69197012D03*
X147654078Y-69197012D03*
X148154078Y-69197012D03*
X148654078Y-69197012D03*
X149154078Y-69197012D03*
X149654078Y-69197012D03*
X150154078Y-69197012D03*
X150654078Y-69197012D03*
X151154078Y-69197012D03*
D42*
X143754078Y-72447012D03*
X153054078Y-72447012D03*
M02*
