G04 #@! TF.GenerationSoftware,KiCad,Pcbnew,(5.1.6)-1*
G04 #@! TF.CreationDate,2020-09-26T10:30:12+08:00*
G04 #@! TF.ProjectId,Cantaloupe,43616e74-616c-46f7-9570-652e6b696361,rev?*
G04 #@! TF.SameCoordinates,Original*
G04 #@! TF.FileFunction,Profile,NP*
%FSLAX46Y46*%
G04 Gerber Fmt 4.6, Leading zero omitted, Abs format (unit mm)*
G04 Created by KiCad (PCBNEW (5.1.6)-1) date 2020-09-26 10:30:12*
%MOMM*%
%LPD*%
G01*
G04 APERTURE LIST*
G04 #@! TA.AperFunction,Profile*
%ADD10C,0.010000*%
G04 #@! TD*
G04 APERTURE END LIST*
D10*
X328198845Y-168098519D02*
X308973876Y-156855044D01*
X329564870Y-167732494D02*
G75*
G02*
X328198845Y-168098519I-866025J500000D01*
G01*
X307110663Y-156350205D02*
G75*
G02*
X308973876Y-156855044I-21093J-3768552D01*
G01*
X307110662Y-156350204D02*
X210077097Y-156350205D01*
X346650072Y-138263595D02*
X329563051Y-167735631D01*
X347151597Y-118548451D02*
X347151597Y-136398451D01*
X347151597Y-136398451D02*
G75*
G02*
X346650072Y-138263595I-3743472J6595D01*
G01*
X347151597Y-108748451D02*
X347151597Y-56258105D01*
X253962845Y-55258079D02*
X327873596Y-55264909D01*
X210077597Y-63335305D02*
X243918464Y-63335305D01*
X245624125Y-62626755D02*
X252257184Y-55966538D01*
X245624125Y-62626755D02*
G75*
G02*
X243918464Y-63335305I-1705661J1698706D01*
G01*
X252257184Y-55966537D02*
G75*
G02*
X253962845Y-55258079I1705440J-1698487D01*
G01*
X93577400Y-131073447D02*
X93577402Y-96448447D01*
X75502398Y-97448448D02*
X75502400Y-96448447D01*
X209077194Y-92862407D02*
X208076794Y-92862407D01*
X71002399Y-97448445D02*
X75502398Y-97448448D01*
X71002398Y-96448447D02*
X75502400Y-96448447D01*
X76502402Y-106448450D02*
G75*
G03*
X77502490Y-107448448I1000043J45D01*
G01*
X77502397Y-119848449D02*
G75*
G03*
X76502399Y-120848537I45J-1000043D01*
G01*
X71002400Y-131073446D02*
X71002400Y-130073445D01*
X70002400Y-118548447D02*
X70002400Y-136398447D01*
X70002400Y-108748447D02*
X70002402Y-56258099D01*
X93577400Y-96448447D02*
X76501597Y-96448443D01*
X75352401Y-118548446D02*
X75352400Y-108748447D01*
X75352400Y-108748447D02*
X70002400Y-108748447D01*
X77502490Y-107448448D02*
X77927401Y-107448446D01*
X71002398Y-96448447D02*
X71002399Y-97448445D01*
X70002400Y-118548447D02*
X75352401Y-118548446D01*
X208279970Y-65506608D02*
X208873981Y-65506608D01*
X208076777Y-65303414D02*
G75*
G03*
X208279970Y-65506608I203195J1D01*
G01*
X208280013Y-154178000D02*
X208874017Y-154178001D01*
X209077172Y-65303410D02*
G75*
G02*
X208873981Y-65506608I-203196J-2D01*
G01*
X78927402Y-108448446D02*
X78927399Y-118848447D01*
X209077210Y-154381195D02*
G75*
G03*
X208874017Y-154178001I-203195J-1D01*
G01*
X77502397Y-119848449D02*
X77927400Y-119848447D01*
X93578203Y-131073451D02*
X76502399Y-131073447D01*
X78927490Y-108448449D02*
G75*
G03*
X77927400Y-107448447I-1000046J-44D01*
G01*
X75502399Y-130073449D02*
X75502402Y-131073447D01*
X208076820Y-154381194D02*
G75*
G02*
X208280013Y-154178000I203195J-1D01*
G01*
X209077194Y-71043807D02*
X208076794Y-71043807D01*
X76502402Y-106448450D02*
X76501597Y-96448443D01*
X77927398Y-119848536D02*
G75*
G03*
X78927399Y-118848447I-44J1000045D01*
G01*
X209077194Y-87426807D02*
X208076794Y-87426807D01*
X76502400Y-120848447D02*
X76502399Y-131073447D01*
X71002400Y-130073445D02*
X75502399Y-130073449D01*
X71002400Y-131073446D02*
X75502402Y-131073447D01*
X210077097Y-156350206D02*
G75*
G02*
X209077596Y-155350205I250J999751D01*
G01*
X209077597Y-64335305D02*
G75*
G02*
X210077597Y-63335305I1000000J0D01*
G01*
X74822400Y-88667200D02*
X88280399Y-88667199D01*
X88955152Y-168098514D02*
X108180119Y-156855039D01*
X209077194Y-111912407D02*
X208076794Y-111912407D01*
X209077194Y-71043807D02*
X209077194Y-87426807D01*
X209077173Y-65303414D02*
X209077600Y-64335300D01*
X208076794Y-111912407D02*
X208076794Y-125526807D01*
X209077200Y-130911600D02*
X209077194Y-148666207D01*
X71002400Y-55258102D02*
G75*
G03*
X70002400Y-56258100I-1J-999999D01*
G01*
X171529873Y-62626752D02*
X164896813Y-55966534D01*
X209077194Y-148666207D02*
X208076794Y-148666207D01*
X87589128Y-167732490D02*
G75*
G03*
X88955152Y-168098514I866024J500000D01*
G01*
X209077194Y-125526807D02*
X209077194Y-111912407D01*
X88280400Y-56264995D02*
X88280399Y-88667199D01*
X164896814Y-55966532D02*
G75*
G03*
X163191152Y-55258074I-1705440J-1698488D01*
G01*
X70503926Y-138263591D02*
X87590946Y-167735626D01*
X208076401Y-64335300D02*
G75*
G03*
X207076399Y-63335302I-1000000J-2D01*
G01*
X110043335Y-156350199D02*
X207076897Y-156350201D01*
X209077210Y-154381195D02*
X209077599Y-155350200D01*
X207076901Y-156350198D02*
G75*
G03*
X208076401Y-155350200I-249J999749D01*
G01*
X208076794Y-130911607D02*
X209077200Y-130911600D01*
X171529869Y-62626751D02*
G75*
G03*
X173235531Y-63335302I1705663J1698707D01*
G01*
X73822399Y-55258097D02*
X71002400Y-55258099D01*
X208076794Y-87426807D02*
X208076794Y-71043807D01*
X208076399Y-64335300D02*
X208076777Y-65303414D01*
X208076820Y-154381195D02*
X208076401Y-155350200D01*
X89280401Y-55264908D02*
G75*
G03*
X88280400Y-56264995I43J-1000044D01*
G01*
X208076794Y-106527607D02*
X208076794Y-92862407D01*
X209077194Y-125526807D02*
X208076794Y-125526807D01*
X207076399Y-63335302D02*
X173235531Y-63335302D01*
X208076794Y-148666207D02*
X208076794Y-130911607D01*
X209077194Y-106527607D02*
X208076794Y-106527607D01*
X70002401Y-136398447D02*
G75*
G03*
X70503926Y-138263591I3743473J6596D01*
G01*
X74822400Y-88667200D02*
X74822400Y-56258100D01*
X110043332Y-156350200D02*
G75*
G03*
X108180119Y-156855039I21093J-3768552D01*
G01*
X163191152Y-55258074D02*
X89280401Y-55264908D01*
X209077200Y-92862400D02*
X209077194Y-106527607D01*
X74822400Y-56258100D02*
G75*
G03*
X73822399Y-55258097I-1000002J1D01*
G01*
X339652311Y-107448448D02*
X339227398Y-107448446D01*
X340652397Y-106448449D02*
X340653201Y-96448441D01*
X339652403Y-119848449D02*
G75*
G02*
X340652400Y-120848538I-46J-1000043D01*
G01*
X340652399Y-120848445D02*
X340652400Y-131073447D01*
X340652395Y-106448450D02*
G75*
G02*
X339652311Y-107448448I-1000041J43D01*
G01*
X339652402Y-119848449D02*
X339227398Y-119848447D01*
X346152400Y-130073447D02*
X341652400Y-130073447D01*
X346152400Y-131073447D02*
X346152400Y-130073447D01*
X341652400Y-130073447D02*
X341652400Y-131073447D01*
X346152400Y-131073447D02*
X341652400Y-131073447D01*
X346152400Y-96448447D02*
X341652400Y-96448447D01*
X341652400Y-97448447D02*
X341652400Y-96448447D01*
X346152400Y-96448447D02*
X346152400Y-97448447D01*
X346152400Y-97448447D02*
X341652400Y-97448447D01*
X338226597Y-108448451D02*
X338226597Y-118848451D01*
X339226599Y-119848541D02*
G75*
G02*
X338226597Y-118848451I44J1000046D01*
G01*
X338226507Y-108448453D02*
G75*
G02*
X339226597Y-107448451I1000046J-44D01*
G01*
X323576597Y-96448451D02*
X340652400Y-96448447D01*
X323576597Y-131073451D02*
X323576597Y-96448451D01*
X323576597Y-131073451D02*
X340652400Y-131073447D01*
X341801597Y-108748451D02*
X347151597Y-108748451D01*
X341801597Y-118548451D02*
X341801597Y-108748451D01*
X347151597Y-118548451D02*
X341801597Y-118548451D01*
X342331597Y-88667205D02*
X328873597Y-88667205D01*
X343331597Y-55258105D02*
X346151597Y-55258105D01*
X346151597Y-55258105D02*
G75*
G02*
X347151597Y-56258105I0J-1000000D01*
G01*
X342331597Y-88667205D02*
X342331597Y-56258105D01*
X328873597Y-56265000D02*
X328873597Y-88667205D01*
X342331597Y-56258105D02*
G75*
G02*
X343331597Y-55258105I1000000J0D01*
G01*
X327873596Y-55264909D02*
G75*
G02*
X328873597Y-56265000I-45J-1000046D01*
G01*
M02*
