  0
SECTION
  2
HEADER
  9
$ANGBASE
  50
0.0
  9
$ANGDIR
  70
1
  9
$MEASUREMENT
  70
0
  0
ENDSEC
  0
SECTION
  2
TABLES
  0
TABLE
  2
LTYPE
  70
4
  0
LTYPE
  5
40F
  2
CONTINUOUS
  70
0
  3
Solid line
  72
65
  73
0
  40
0.0
  0
LTYPE
  5
410
  2
DASHDOT
 70
0
  3
Dash Dot ____ _ ____ _
 72
65
 73
4
 40
2.0
 49
1.25
 49
-0.25
 49
0.25
 49
-0.25
  0
LTYPE
  5
411
  2
DASHED
 70
0
  3
Dashed __ __ __ __ __
 72
65
 73
2
 40
0.75
 49
0.5
 49
-0.25
  0
LTYPE
  5
43B
  2
DOTTED
 70
0
  3
Dotted .  .  .  .
 72
65
 73
2
 40
0.2
 49
0.0
 49
-0.2
  0
ENDTAB
  0
TABLE
  2
STYLE
  70
4
  0
STYLE
  2
KICAD
  70
0
  40
0
  41
1
  42
1
  50
0
  71
0
  3
isocp.shx
  0
STYLE
  2
KICADB
  70
0
  40
0
  41
1
  42
1
  50
0
  71
0
  3
isocp.shx
  0
STYLE
  2
KICADI
  70
0
  40
0
  41
1
  42
1
  50
15
  71
0
  3
isocp.shx
  0
STYLE
  2
KICADBI
  70
0
  40
0
  41
1
  42
1
  50
15
  71
0
  3
isocp.shx
  0
ENDTAB
  0
TABLE
  2
LAYER
  70
1
  0
LAYER
  2
BLACK
  70
0
  62
7
  6
CONTINUOUS
  0
ENDTAB
  0
ENDSEC
  0
SECTION
  2
ENTITIES
0
LINE
8
BLACK
6
CONTINUOUS
10
7.58352
20
-5.19892
11
7.58771
21
-5.19975
0
LINE
8
BLACK
6
CONTINUOUS
10
7.58771
20
-5.19975
11
7.59954
21
-5.20465
0
LINE
8
BLACK
6
CONTINUOUS
10
7.59954
20
-5.20465
11
7.61019
21
-5.21176
0
LINE
8
BLACK
6
CONTINUOUS
10
7.61019
20
-5.21176
11
7.61924
21
-5.22081
0
LINE
8
BLACK
6
CONTINUOUS
10
7.61924
20
-5.22081
11
7.62635
21
-5.23146
0
LINE
8
BLACK
6
CONTINUOUS
10
7.62635
20
-5.23146
11
7.63125
21
-5.24329
0
LINE
8
BLACK
6
CONTINUOUS
10
7.63125
20
-5.24329
11
7.63375
21
-5.25585
0
LINE
8
BLACK
6
CONTINUOUS
10
7.63375
20
-5.25585
11
7.63375
21
-5.26865
0
LINE
8
BLACK
6
CONTINUOUS
10
7.63375
20
-5.26865
11
7.63125
21
-5.28121
0
LINE
8
BLACK
6
CONTINUOUS
10
7.63125
20
-5.28121
11
7.62635
21
-5.29304
0
LINE
8
BLACK
6
CONTINUOUS
10
7.62635
20
-5.29304
11
7.61924
21
-5.30369
0
LINE
8
BLACK
6
CONTINUOUS
10
7.61924
20
-5.30369
11
7.61019
21
-5.31274
0
LINE
8
BLACK
6
CONTINUOUS
10
7.61019
20
-5.31274
11
7.59954
21
-5.31985
0
LINE
8
BLACK
6
CONTINUOUS
10
7.59954
20
-5.31985
11
7.58771
21
-5.32475
0
LINE
8
BLACK
6
CONTINUOUS
10
7.58771
20
-5.32475
11
7.58352
21
-5.32558
0
LINE
8
BLACK
6
CONTINUOUS
10
7.58352
20
-5.32558
11
7.57515
21
-5.32725
0
LINE
8
BLACK
6
CONTINUOUS
10
7.57515
20
-5.32725
11
7.56235
21
-5.32725
0
LINE
8
BLACK
6
CONTINUOUS
10
7.56235
20
-5.32725
11
7.55398
21
-5.32558
0
LINE
8
BLACK
6
CONTINUOUS
10
7.55398
20
-5.32558
11
7.54979
21
-5.32475
0
LINE
8
BLACK
6
CONTINUOUS
10
7.54979
20
-5.32475
11
7.53796
21
-5.31985
0
LINE
8
BLACK
6
CONTINUOUS
10
7.53796
20
-5.31985
11
7.52731
21
-5.31274
0
LINE
8
BLACK
6
CONTINUOUS
10
7.52731
20
-5.31274
11
7.51826
21
-5.30369
0
LINE
8
BLACK
6
CONTINUOUS
10
7.51826
20
-5.30369
11
7.51115
21
-5.29304
0
LINE
8
BLACK
6
CONTINUOUS
10
7.51115
20
-5.29304
11
7.50625
21
-5.28121
0
LINE
8
BLACK
6
CONTINUOUS
10
7.50625
20
-5.28121
11
7.50375
21
-5.26865
0
LINE
8
BLACK
6
CONTINUOUS
10
7.50375
20
-5.26865
11
7.50375
21
-5.25585
0
LINE
8
BLACK
6
CONTINUOUS
10
7.50375
20
-5.25585
11
7.50625
21
-5.24329
0
LINE
8
BLACK
6
CONTINUOUS
10
7.50625
20
-5.24329
11
7.51115
21
-5.23146
0
LINE
8
BLACK
6
CONTINUOUS
10
7.51115
20
-5.23146
11
7.51826
21
-5.22081
0
LINE
8
BLACK
6
CONTINUOUS
10
7.51826
20
-5.22081
11
7.52731
21
-5.21176
0
LINE
8
BLACK
6
CONTINUOUS
10
7.52731
20
-5.21176
11
7.53796
21
-5.20465
0
LINE
8
BLACK
6
CONTINUOUS
10
7.53796
20
-5.20465
11
7.54979
21
-5.19975
0
LINE
8
BLACK
6
CONTINUOUS
10
7.54979
20
-5.19975
11
7.55398
21
-5.19892
0
LINE
8
BLACK
6
CONTINUOUS
10
7.55398
20
-5.19892
11
7.56235
21
-5.19725
0
LINE
8
BLACK
6
CONTINUOUS
10
7.56235
20
-5.19725
11
7.57515
21
-5.19725
0
LINE
8
BLACK
6
CONTINUOUS
10
7.57515
20
-5.19725
11
7.58352
21
-5.19892
0
LINE
8
BLACK
6
CONTINUOUS
10
3.99077
20
-4.85517
11
3.99496
21
-4.856
0
LINE
8
BLACK
6
CONTINUOUS
10
3.99496
20
-4.856
11
4.00679
21
-4.8609
0
LINE
8
BLACK
6
CONTINUOUS
10
4.00679
20
-4.8609
11
4.01744
21
-4.86801
0
LINE
8
BLACK
6
CONTINUOUS
10
4.01744
20
-4.86801
11
4.02649
21
-4.87706
0
LINE
8
BLACK
6
CONTINUOUS
10
4.02649
20
-4.87706
11
4.0336
21
-4.88771
0
LINE
8
BLACK
6
CONTINUOUS
10
4.0336
20
-4.88771
11
4.0385
21
-4.89954
0
LINE
8
BLACK
6
CONTINUOUS
10
4.0385
20
-4.89954
11
4.041
21
-4.9121
0
LINE
8
BLACK
6
CONTINUOUS
10
4.041
20
-4.9121
11
4.041
21
-4.9249
0
LINE
8
BLACK
6
CONTINUOUS
10
4.041
20
-4.9249
11
4.0385
21
-4.93746
0
LINE
8
BLACK
6
CONTINUOUS
10
4.0385
20
-4.93746
11
4.0336
21
-4.94929
0
LINE
8
BLACK
6
CONTINUOUS
10
4.0336
20
-4.94929
11
4.02649
21
-4.95994
0
LINE
8
BLACK
6
CONTINUOUS
10
4.02649
20
-4.95994
11
4.01744
21
-4.96899
0
LINE
8
BLACK
6
CONTINUOUS
10
4.01744
20
-4.96899
11
4.00679
21
-4.9761
0
LINE
8
BLACK
6
CONTINUOUS
10
4.00679
20
-4.9761
11
3.99496
21
-4.981
0
LINE
8
BLACK
6
CONTINUOUS
10
3.99496
20
-4.981
11
3.99077
21
-4.98183
0
LINE
8
BLACK
6
CONTINUOUS
10
3.99077
20
-4.98183
11
3.9824
21
-4.9835
0
LINE
8
BLACK
6
CONTINUOUS
10
3.9824
20
-4.9835
11
3.9696
21
-4.9835
0
LINE
8
BLACK
6
CONTINUOUS
10
3.9696
20
-4.9835
11
3.96123
21
-4.98183
0
LINE
8
BLACK
6
CONTINUOUS
10
3.96123
20
-4.98183
11
3.95704
21
-4.981
0
LINE
8
BLACK
6
CONTINUOUS
10
3.95704
20
-4.981
11
3.94521
21
-4.9761
0
LINE
8
BLACK
6
CONTINUOUS
10
3.94521
20
-4.9761
11
3.93456
21
-4.96899
0
LINE
8
BLACK
6
CONTINUOUS
10
3.93456
20
-4.96899
11
3.92551
21
-4.95994
0
LINE
8
BLACK
6
CONTINUOUS
10
3.92551
20
-4.95994
11
3.9184
21
-4.94929
0
LINE
8
BLACK
6
CONTINUOUS
10
3.9184
20
-4.94929
11
3.9135
21
-4.93746
0
LINE
8
BLACK
6
CONTINUOUS
10
3.9135
20
-4.93746
11
3.911
21
-4.9249
0
LINE
8
BLACK
6
CONTINUOUS
10
3.911
20
-4.9249
11
3.911
21
-4.9121
0
LINE
8
BLACK
6
CONTINUOUS
10
3.911
20
-4.9121
11
3.9135
21
-4.89954
0
LINE
8
BLACK
6
CONTINUOUS
10
3.9135
20
-4.89954
11
3.9184
21
-4.88771
0
LINE
8
BLACK
6
CONTINUOUS
10
3.9184
20
-4.88771
11
3.92551
21
-4.87706
0
LINE
8
BLACK
6
CONTINUOUS
10
3.92551
20
-4.87706
11
3.93456
21
-4.86801
0
LINE
8
BLACK
6
CONTINUOUS
10
3.93456
20
-4.86801
11
3.94521
21
-4.8609
0
LINE
8
BLACK
6
CONTINUOUS
10
3.94521
20
-4.8609
11
3.95704
21
-4.856
0
LINE
8
BLACK
6
CONTINUOUS
10
3.95704
20
-4.856
11
3.96123
21
-4.85517
0
LINE
8
BLACK
6
CONTINUOUS
10
3.96123
20
-4.85517
11
3.9696
21
-4.8535
0
LINE
8
BLACK
6
CONTINUOUS
10
3.9696
20
-4.8535
11
3.9824
21
-4.8535
0
LINE
8
BLACK
6
CONTINUOUS
10
3.9824
20
-4.8535
11
3.99077
21
-4.85517
0
LINE
8
BLACK
6
CONTINUOUS
10
5.89602
20
-4.66767
11
5.90021
21
-4.6685
0
LINE
8
BLACK
6
CONTINUOUS
10
5.90021
20
-4.6685
11
5.91204
21
-4.6734
0
LINE
8
BLACK
6
CONTINUOUS
10
5.91204
20
-4.6734
11
5.92269
21
-4.68051
0
LINE
8
BLACK
6
CONTINUOUS
10
5.92269
20
-4.68051
11
5.93174
21
-4.68956
0
LINE
8
BLACK
6
CONTINUOUS
10
5.93174
20
-4.68956
11
5.93885
21
-4.70021
0
LINE
8
BLACK
6
CONTINUOUS
10
5.93885
20
-4.70021
11
5.94375
21
-4.71204
0
LINE
8
BLACK
6
CONTINUOUS
10
5.94375
20
-4.71204
11
5.94625
21
-4.7246
0
LINE
8
BLACK
6
CONTINUOUS
10
5.94625
20
-4.7246
11
5.94625
21
-4.7374
0
LINE
8
BLACK
6
CONTINUOUS
10
5.94625
20
-4.7374
11
5.94375
21
-4.74996
0
LINE
8
BLACK
6
CONTINUOUS
10
5.94375
20
-4.74996
11
5.93885
21
-4.76179
0
LINE
8
BLACK
6
CONTINUOUS
10
5.93885
20
-4.76179
11
5.93174
21
-4.77244
0
LINE
8
BLACK
6
CONTINUOUS
10
5.93174
20
-4.77244
11
5.92269
21
-4.78149
0
LINE
8
BLACK
6
CONTINUOUS
10
5.92269
20
-4.78149
11
5.91204
21
-4.7886
0
LINE
8
BLACK
6
CONTINUOUS
10
5.91204
20
-4.7886
11
5.90021
21
-4.7935
0
LINE
8
BLACK
6
CONTINUOUS
10
5.90021
20
-4.7935
11
5.89602
21
-4.79433
0
LINE
8
BLACK
6
CONTINUOUS
10
5.89602
20
-4.79433
11
5.88765
21
-4.796
0
LINE
8
BLACK
6
CONTINUOUS
10
5.88765
20
-4.796
11
5.87485
21
-4.796
0
LINE
8
BLACK
6
CONTINUOUS
10
5.87485
20
-4.796
11
5.86648
21
-4.79433
0
LINE
8
BLACK
6
CONTINUOUS
10
5.86648
20
-4.79433
11
5.86229
21
-4.7935
0
LINE
8
BLACK
6
CONTINUOUS
10
5.86229
20
-4.7935
11
5.85046
21
-4.7886
0
LINE
8
BLACK
6
CONTINUOUS
10
5.85046
20
-4.7886
11
5.83981
21
-4.78149
0
LINE
8
BLACK
6
CONTINUOUS
10
5.83981
20
-4.78149
11
5.83076
21
-4.77244
0
LINE
8
BLACK
6
CONTINUOUS
10
5.83076
20
-4.77244
11
5.82365
21
-4.76179
0
LINE
8
BLACK
6
CONTINUOUS
10
5.82365
20
-4.76179
11
5.81875
21
-4.74996
0
LINE
8
BLACK
6
CONTINUOUS
10
5.81875
20
-4.74996
11
5.81625
21
-4.7374
0
LINE
8
BLACK
6
CONTINUOUS
10
5.81625
20
-4.7374
11
5.81625
21
-4.7246
0
LINE
8
BLACK
6
CONTINUOUS
10
5.81625
20
-4.7246
11
5.81875
21
-4.71204
0
LINE
8
BLACK
6
CONTINUOUS
10
5.81875
20
-4.71204
11
5.82365
21
-4.70021
0
LINE
8
BLACK
6
CONTINUOUS
10
5.82365
20
-4.70021
11
5.83076
21
-4.68956
0
LINE
8
BLACK
6
CONTINUOUS
10
5.83076
20
-4.68956
11
5.83981
21
-4.68051
0
LINE
8
BLACK
6
CONTINUOUS
10
5.83981
20
-4.68051
11
5.85046
21
-4.6734
0
LINE
8
BLACK
6
CONTINUOUS
10
5.85046
20
-4.6734
11
5.86229
21
-4.6685
0
LINE
8
BLACK
6
CONTINUOUS
10
5.86229
20
-4.6685
11
5.86648
21
-4.66767
0
LINE
8
BLACK
6
CONTINUOUS
10
5.86648
20
-4.66767
11
5.87485
21
-4.666
0
LINE
8
BLACK
6
CONTINUOUS
10
5.87485
20
-4.666
11
5.88765
21
-4.666
0
LINE
8
BLACK
6
CONTINUOUS
10
5.88765
20
-4.666
11
5.89602
21
-4.66767
0
LINE
8
BLACK
6
CONTINUOUS
10
3.98977
20
-2.60517
11
3.99396
21
-2.606
0
LINE
8
BLACK
6
CONTINUOUS
10
3.99396
20
-2.606
11
4.00579
21
-2.6109
0
LINE
8
BLACK
6
CONTINUOUS
10
4.00579
20
-2.6109
11
4.01644
21
-2.61801
0
LINE
8
BLACK
6
CONTINUOUS
10
4.01644
20
-2.61801
11
4.02549
21
-2.62706
0
LINE
8
BLACK
6
CONTINUOUS
10
4.02549
20
-2.62706
11
4.0326
21
-2.63771
0
LINE
8
BLACK
6
CONTINUOUS
10
4.0326
20
-2.63771
11
4.0375
21
-2.64954
0
LINE
8
BLACK
6
CONTINUOUS
10
4.0375
20
-2.64954
11
4.04
21
-2.6621
0
LINE
8
BLACK
6
CONTINUOUS
10
4.04
20
-2.6621
11
4.04
21
-2.6749
0
LINE
8
BLACK
6
CONTINUOUS
10
4.04
20
-2.6749
11
4.0375
21
-2.68746
0
LINE
8
BLACK
6
CONTINUOUS
10
4.0375
20
-2.68746
11
4.0326
21
-2.69929
0
LINE
8
BLACK
6
CONTINUOUS
10
4.0326
20
-2.69929
11
4.02549
21
-2.70994
0
LINE
8
BLACK
6
CONTINUOUS
10
4.02549
20
-2.70994
11
4.01644
21
-2.71899
0
LINE
8
BLACK
6
CONTINUOUS
10
4.01644
20
-2.71899
11
4.00579
21
-2.7261
0
LINE
8
BLACK
6
CONTINUOUS
10
4.00579
20
-2.7261
11
3.99396
21
-2.731
0
LINE
8
BLACK
6
CONTINUOUS
10
3.99396
20
-2.731
11
3.98977
21
-2.73183
0
LINE
8
BLACK
6
CONTINUOUS
10
3.98977
20
-2.73183
11
3.9814
21
-2.7335
0
LINE
8
BLACK
6
CONTINUOUS
10
3.9814
20
-2.7335
11
3.9686
21
-2.7335
0
LINE
8
BLACK
6
CONTINUOUS
10
3.9686
20
-2.7335
11
3.96023
21
-2.73183
0
LINE
8
BLACK
6
CONTINUOUS
10
3.96023
20
-2.73183
11
3.95604
21
-2.731
0
LINE
8
BLACK
6
CONTINUOUS
10
3.95604
20
-2.731
11
3.94421
21
-2.7261
0
LINE
8
BLACK
6
CONTINUOUS
10
3.94421
20
-2.7261
11
3.93356
21
-2.71899
0
LINE
8
BLACK
6
CONTINUOUS
10
3.93356
20
-2.71899
11
3.92451
21
-2.70994
0
LINE
8
BLACK
6
CONTINUOUS
10
3.92451
20
-2.70994
11
3.9174
21
-2.69929
0
LINE
8
BLACK
6
CONTINUOUS
10
3.9174
20
-2.69929
11
3.9125
21
-2.68746
0
LINE
8
BLACK
6
CONTINUOUS
10
3.9125
20
-2.68746
11
3.91
21
-2.6749
0
LINE
8
BLACK
6
CONTINUOUS
10
3.91
20
-2.6749
11
3.91
21
-2.6621
0
LINE
8
BLACK
6
CONTINUOUS
10
3.91
20
-2.6621
11
3.9125
21
-2.64954
0
LINE
8
BLACK
6
CONTINUOUS
10
3.9125
20
-2.64954
11
3.9174
21
-2.63771
0
LINE
8
BLACK
6
CONTINUOUS
10
3.9174
20
-2.63771
11
3.92451
21
-2.62706
0
LINE
8
BLACK
6
CONTINUOUS
10
3.92451
20
-2.62706
11
3.93356
21
-2.61801
0
LINE
8
BLACK
6
CONTINUOUS
10
3.93356
20
-2.61801
11
3.94421
21
-2.6109
0
LINE
8
BLACK
6
CONTINUOUS
10
3.94421
20
-2.6109
11
3.95604
21
-2.606
0
LINE
8
BLACK
6
CONTINUOUS
10
3.95604
20
-2.606
11
3.96023
21
-2.60517
0
LINE
8
BLACK
6
CONTINUOUS
10
3.96023
20
-2.60517
11
3.9686
21
-2.6035
0
LINE
8
BLACK
6
CONTINUOUS
10
3.9686
20
-2.6035
11
3.9814
21
-2.6035
0
LINE
8
BLACK
6
CONTINUOUS
10
3.9814
20
-2.6035
11
3.98977
21
-2.60517
0
LINE
8
BLACK
6
CONTINUOUS
10
6.98977
20
-2.41767
11
6.99396
21
-2.4185
0
LINE
8
BLACK
6
CONTINUOUS
10
6.99396
20
-2.4185
11
7.00579
21
-2.4234
0
LINE
8
BLACK
6
CONTINUOUS
10
7.00579
20
-2.4234
11
7.01644
21
-2.43051
0
LINE
8
BLACK
6
CONTINUOUS
10
7.01644
20
-2.43051
11
7.02549
21
-2.43956
0
LINE
8
BLACK
6
CONTINUOUS
10
7.02549
20
-2.43956
11
7.0326
21
-2.45021
0
LINE
8
BLACK
6
CONTINUOUS
10
7.0326
20
-2.45021
11
7.0375
21
-2.46204
0
LINE
8
BLACK
6
CONTINUOUS
10
7.0375
20
-2.46204
11
7.04
21
-2.4746
0
LINE
8
BLACK
6
CONTINUOUS
10
7.04
20
-2.4746
11
7.04
21
-2.4874
0
LINE
8
BLACK
6
CONTINUOUS
10
7.04
20
-2.4874
11
7.0375
21
-2.49996
0
LINE
8
BLACK
6
CONTINUOUS
10
7.0375
20
-2.49996
11
7.0326
21
-2.51179
0
LINE
8
BLACK
6
CONTINUOUS
10
7.0326
20
-2.51179
11
7.02549
21
-2.52243
0
LINE
8
BLACK
6
CONTINUOUS
10
7.02549
20
-2.52243
11
7.01644
21
-2.53149
0
LINE
8
BLACK
6
CONTINUOUS
10
7.01644
20
-2.53149
11
7.00579
21
-2.5386
0
LINE
8
BLACK
6
CONTINUOUS
10
7.00579
20
-2.5386
11
6.99396
21
-2.5435
0
LINE
8
BLACK
6
CONTINUOUS
10
6.99396
20
-2.5435
11
6.98977
21
-2.54433
0
LINE
8
BLACK
6
CONTINUOUS
10
6.98977
20
-2.54433
11
6.9814
21
-2.546
0
LINE
8
BLACK
6
CONTINUOUS
10
6.9814
20
-2.546
11
6.9686
21
-2.546
0
LINE
8
BLACK
6
CONTINUOUS
10
6.9686
20
-2.546
11
6.96023
21
-2.54433
0
LINE
8
BLACK
6
CONTINUOUS
10
6.96023
20
-2.54433
11
6.95604
21
-2.5435
0
LINE
8
BLACK
6
CONTINUOUS
10
6.95604
20
-2.5435
11
6.94421
21
-2.5386
0
LINE
8
BLACK
6
CONTINUOUS
10
6.94421
20
-2.5386
11
6.93357
21
-2.53149
0
LINE
8
BLACK
6
CONTINUOUS
10
6.93357
20
-2.53149
11
6.92451
21
-2.52243
0
LINE
8
BLACK
6
CONTINUOUS
10
6.92451
20
-2.52243
11
6.9174
21
-2.51179
0
LINE
8
BLACK
6
CONTINUOUS
10
6.9174
20
-2.51179
11
6.9125
21
-2.49996
0
LINE
8
BLACK
6
CONTINUOUS
10
6.9125
20
-2.49996
11
6.91
21
-2.4874
0
LINE
8
BLACK
6
CONTINUOUS
10
6.91
20
-2.4874
11
6.91
21
-2.4746
0
LINE
8
BLACK
6
CONTINUOUS
10
6.91
20
-2.4746
11
6.9125
21
-2.46204
0
LINE
8
BLACK
6
CONTINUOUS
10
6.9125
20
-2.46204
11
6.9174
21
-2.45021
0
LINE
8
BLACK
6
CONTINUOUS
10
6.9174
20
-2.45021
11
6.92451
21
-2.43956
0
LINE
8
BLACK
6
CONTINUOUS
10
6.92451
20
-2.43956
11
6.93357
21
-2.43051
0
LINE
8
BLACK
6
CONTINUOUS
10
6.93357
20
-2.43051
11
6.94421
21
-2.4234
0
LINE
8
BLACK
6
CONTINUOUS
10
6.94421
20
-2.4234
11
6.95604
21
-2.4185
0
LINE
8
BLACK
6
CONTINUOUS
10
6.95604
20
-2.4185
11
6.96023
21
-2.41767
0
LINE
8
BLACK
6
CONTINUOUS
10
6.96023
20
-2.41767
11
6.9686
21
-2.416
0
LINE
8
BLACK
6
CONTINUOUS
10
6.9686
20
-2.416
11
6.9814
21
-2.416
0
LINE
8
BLACK
6
CONTINUOUS
10
6.9814
20
-2.416
11
6.98977
21
-2.41767
  0
ENDSEC
  0
EOF
