  0
SECTION
  2
HEADER
  9
$ANGBASE
  50
0.0
  9
$ANGDIR
  70
1
  9
$MEASUREMENT
  70
0
  0
ENDSEC
  0
SECTION
  2
TABLES
  0
TABLE
  2
LTYPE
  70
4
  0
LTYPE
  5
40F
  2
CONTINUOUS
  70
0
  3
Solid line
  72
65
  73
0
  40
0.0
  0
LTYPE
  5
410
  2
DASHDOT
 70
0
  3
Dash Dot ____ _ ____ _
 72
65
 73
4
 40
2.0
 49
1.25
 49
-0.25
 49
0.25
 49
-0.25
  0
LTYPE
  5
411
  2
DASHED
 70
0
  3
Dashed __ __ __ __ __
 72
65
 73
2
 40
0.75
 49
0.5
 49
-0.25
  0
LTYPE
  5
43B
  2
DOTTED
 70
0
  3
Dotted .  .  .  .
 72
65
 73
2
 40
0.2
 49
0.0
 49
-0.2
  0
ENDTAB
  0
TABLE
  2
STYLE
  70
4
  0
STYLE
  2
KICAD
  70
0
  40
0
  41
1
  42
1
  50
0
  71
0
  3
isocp.shx
  0
STYLE
  2
KICADB
  70
0
  40
0
  41
1
  42
1
  50
0
  71
0
  3
isocp.shx
  0
STYLE
  2
KICADI
  70
0
  40
0
  41
1
  42
1
  50
15
  71
0
  3
isocp.shx
  0
STYLE
  2
KICADBI
  70
0
  40
0
  41
1
  42
1
  50
15
  71
0
  3
isocp.shx
  0
ENDTAB
  0
TABLE
  2
LAYER
  70
1
  0
LAYER
  2
BLACK
  70
0
  62
7
  6
CONTINUOUS
  0
ENDTAB
  0
ENDSEC
  0
SECTION
  2
ENTITIES
0
LINE
8
BLACK
6
CONTINUOUS
10
7.58712
20
-5.20168
11
7.59859
21
-5.20643
0
LINE
8
BLACK
6
CONTINUOUS
10
7.59859
20
-5.20643
11
7.60891
21
-5.21332
0
LINE
8
BLACK
6
CONTINUOUS
10
7.60891
20
-5.21332
11
7.61768
21
-5.22209
0
LINE
8
BLACK
6
CONTINUOUS
10
7.61768
20
-5.22209
11
7.62457
21
-5.23241
0
LINE
8
BLACK
6
CONTINUOUS
10
7.62457
20
-5.23241
11
7.62932
21
-5.24388
0
LINE
8
BLACK
6
CONTINUOUS
10
7.62932
20
-5.24388
11
7.63174
21
-5.25605
0
LINE
8
BLACK
6
CONTINUOUS
10
7.63174
20
-5.25605
11
7.63174
21
-5.26845
0
LINE
8
BLACK
6
CONTINUOUS
10
7.63174
20
-5.26845
11
7.62932
21
-5.28062
0
LINE
8
BLACK
6
CONTINUOUS
10
7.62932
20
-5.28062
11
7.62457
21
-5.29209
0
LINE
8
BLACK
6
CONTINUOUS
10
7.62457
20
-5.29209
11
7.61768
21
-5.30241
0
LINE
8
BLACK
6
CONTINUOUS
10
7.61768
20
-5.30241
11
7.60891
21
-5.31118
0
LINE
8
BLACK
6
CONTINUOUS
10
7.60891
20
-5.31118
11
7.59859
21
-5.31807
0
LINE
8
BLACK
6
CONTINUOUS
10
7.59859
20
-5.31807
11
7.58712
21
-5.32282
0
LINE
8
BLACK
6
CONTINUOUS
10
7.58712
20
-5.32282
11
7.57495
21
-5.32524
0
LINE
8
BLACK
6
CONTINUOUS
10
7.57495
20
-5.32524
11
7.56255
21
-5.32524
0
LINE
8
BLACK
6
CONTINUOUS
10
7.56255
20
-5.32524
11
7.55038
21
-5.32282
0
LINE
8
BLACK
6
CONTINUOUS
10
7.55038
20
-5.32282
11
7.53891
21
-5.31807
0
LINE
8
BLACK
6
CONTINUOUS
10
7.53891
20
-5.31807
11
7.52859
21
-5.31118
0
LINE
8
BLACK
6
CONTINUOUS
10
7.52859
20
-5.31118
11
7.51982
21
-5.30241
0
LINE
8
BLACK
6
CONTINUOUS
10
7.51982
20
-5.30241
11
7.51293
21
-5.29209
0
LINE
8
BLACK
6
CONTINUOUS
10
7.51293
20
-5.29209
11
7.50818
21
-5.28062
0
LINE
8
BLACK
6
CONTINUOUS
10
7.50818
20
-5.28062
11
7.50576
21
-5.26845
0
LINE
8
BLACK
6
CONTINUOUS
10
7.50576
20
-5.26845
11
7.50576
21
-5.25605
0
LINE
8
BLACK
6
CONTINUOUS
10
7.50576
20
-5.25605
11
7.50818
21
-5.24388
0
LINE
8
BLACK
6
CONTINUOUS
10
7.50818
20
-5.24388
11
7.51293
21
-5.23241
0
LINE
8
BLACK
6
CONTINUOUS
10
7.51293
20
-5.23241
11
7.51982
21
-5.22209
0
LINE
8
BLACK
6
CONTINUOUS
10
7.51982
20
-5.22209
11
7.52859
21
-5.21332
0
LINE
8
BLACK
6
CONTINUOUS
10
7.52859
20
-5.21332
11
7.53891
21
-5.20643
0
LINE
8
BLACK
6
CONTINUOUS
10
7.53891
20
-5.20643
11
7.55038
21
-5.20168
0
LINE
8
BLACK
6
CONTINUOUS
10
7.55038
20
-5.20168
11
7.56255
21
-5.19926
0
LINE
8
BLACK
6
CONTINUOUS
10
7.56255
20
-5.19926
11
7.57495
21
-5.19926
0
LINE
8
BLACK
6
CONTINUOUS
10
7.57495
20
-5.19926
11
7.58712
21
-5.20168
0
LINE
8
BLACK
6
CONTINUOUS
10
3.99437
20
-4.85793
11
4.00584
21
-4.86268
0
LINE
8
BLACK
6
CONTINUOUS
10
4.00584
20
-4.86268
11
4.01616
21
-4.86957
0
LINE
8
BLACK
6
CONTINUOUS
10
4.01616
20
-4.86957
11
4.02493
21
-4.87834
0
LINE
8
BLACK
6
CONTINUOUS
10
4.02493
20
-4.87834
11
4.03182
21
-4.88866
0
LINE
8
BLACK
6
CONTINUOUS
10
4.03182
20
-4.88866
11
4.03657
21
-4.90013
0
LINE
8
BLACK
6
CONTINUOUS
10
4.03657
20
-4.90013
11
4.03899
21
-4.9123
0
LINE
8
BLACK
6
CONTINUOUS
10
4.03899
20
-4.9123
11
4.03899
21
-4.9247
0
LINE
8
BLACK
6
CONTINUOUS
10
4.03899
20
-4.9247
11
4.03657
21
-4.93687
0
LINE
8
BLACK
6
CONTINUOUS
10
4.03657
20
-4.93687
11
4.03182
21
-4.94834
0
LINE
8
BLACK
6
CONTINUOUS
10
4.03182
20
-4.94834
11
4.02493
21
-4.95866
0
LINE
8
BLACK
6
CONTINUOUS
10
4.02493
20
-4.95866
11
4.01616
21
-4.96743
0
LINE
8
BLACK
6
CONTINUOUS
10
4.01616
20
-4.96743
11
4.00584
21
-4.97432
0
LINE
8
BLACK
6
CONTINUOUS
10
4.00584
20
-4.97432
11
3.99437
21
-4.97907
0
LINE
8
BLACK
6
CONTINUOUS
10
3.99437
20
-4.97907
11
3.9822
21
-4.98149
0
LINE
8
BLACK
6
CONTINUOUS
10
3.9822
20
-4.98149
11
3.9698
21
-4.98149
0
LINE
8
BLACK
6
CONTINUOUS
10
3.9698
20
-4.98149
11
3.95763
21
-4.97907
0
LINE
8
BLACK
6
CONTINUOUS
10
3.95763
20
-4.97907
11
3.94616
21
-4.97432
0
LINE
8
BLACK
6
CONTINUOUS
10
3.94616
20
-4.97432
11
3.93584
21
-4.96743
0
LINE
8
BLACK
6
CONTINUOUS
10
3.93584
20
-4.96743
11
3.92707
21
-4.95866
0
LINE
8
BLACK
6
CONTINUOUS
10
3.92707
20
-4.95866
11
3.92018
21
-4.94834
0
LINE
8
BLACK
6
CONTINUOUS
10
3.92018
20
-4.94834
11
3.91543
21
-4.93687
0
LINE
8
BLACK
6
CONTINUOUS
10
3.91543
20
-4.93687
11
3.91301
21
-4.9247
0
LINE
8
BLACK
6
CONTINUOUS
10
3.91301
20
-4.9247
11
3.91301
21
-4.9123
0
LINE
8
BLACK
6
CONTINUOUS
10
3.91301
20
-4.9123
11
3.91543
21
-4.90013
0
LINE
8
BLACK
6
CONTINUOUS
10
3.91543
20
-4.90013
11
3.92018
21
-4.88866
0
LINE
8
BLACK
6
CONTINUOUS
10
3.92018
20
-4.88866
11
3.92707
21
-4.87834
0
LINE
8
BLACK
6
CONTINUOUS
10
3.92707
20
-4.87834
11
3.93584
21
-4.86957
0
LINE
8
BLACK
6
CONTINUOUS
10
3.93584
20
-4.86957
11
3.94616
21
-4.86268
0
LINE
8
BLACK
6
CONTINUOUS
10
3.94616
20
-4.86268
11
3.95763
21
-4.85793
0
LINE
8
BLACK
6
CONTINUOUS
10
3.95763
20
-4.85793
11
3.9698
21
-4.85551
0
LINE
8
BLACK
6
CONTINUOUS
10
3.9698
20
-4.85551
11
3.9822
21
-4.85551
0
LINE
8
BLACK
6
CONTINUOUS
10
3.9822
20
-4.85551
11
3.99437
21
-4.85793
0
LINE
8
BLACK
6
CONTINUOUS
10
5.89962
20
-4.67043
11
5.91109
21
-4.67518
0
LINE
8
BLACK
6
CONTINUOUS
10
5.91109
20
-4.67518
11
5.92141
21
-4.68207
0
LINE
8
BLACK
6
CONTINUOUS
10
5.92141
20
-4.68207
11
5.93018
21
-4.69084
0
LINE
8
BLACK
6
CONTINUOUS
10
5.93018
20
-4.69084
11
5.93707
21
-4.70116
0
LINE
8
BLACK
6
CONTINUOUS
10
5.93707
20
-4.70116
11
5.94182
21
-4.71263
0
LINE
8
BLACK
6
CONTINUOUS
10
5.94182
20
-4.71263
11
5.94424
21
-4.7248
0
LINE
8
BLACK
6
CONTINUOUS
10
5.94424
20
-4.7248
11
5.94424
21
-4.7372
0
LINE
8
BLACK
6
CONTINUOUS
10
5.94424
20
-4.7372
11
5.94182
21
-4.74937
0
LINE
8
BLACK
6
CONTINUOUS
10
5.94182
20
-4.74937
11
5.93707
21
-4.76084
0
LINE
8
BLACK
6
CONTINUOUS
10
5.93707
20
-4.76084
11
5.93018
21
-4.77116
0
LINE
8
BLACK
6
CONTINUOUS
10
5.93018
20
-4.77116
11
5.92141
21
-4.77993
0
LINE
8
BLACK
6
CONTINUOUS
10
5.92141
20
-4.77993
11
5.91109
21
-4.78682
0
LINE
8
BLACK
6
CONTINUOUS
10
5.91109
20
-4.78682
11
5.89962
21
-4.79157
0
LINE
8
BLACK
6
CONTINUOUS
10
5.89962
20
-4.79157
11
5.88745
21
-4.79399
0
LINE
8
BLACK
6
CONTINUOUS
10
5.88745
20
-4.79399
11
5.87505
21
-4.79399
0
LINE
8
BLACK
6
CONTINUOUS
10
5.87505
20
-4.79399
11
5.86288
21
-4.79157
0
LINE
8
BLACK
6
CONTINUOUS
10
5.86288
20
-4.79157
11
5.85141
21
-4.78682
0
LINE
8
BLACK
6
CONTINUOUS
10
5.85141
20
-4.78682
11
5.84109
21
-4.77993
0
LINE
8
BLACK
6
CONTINUOUS
10
5.84109
20
-4.77993
11
5.83232
21
-4.77116
0
LINE
8
BLACK
6
CONTINUOUS
10
5.83232
20
-4.77116
11
5.82543
21
-4.76084
0
LINE
8
BLACK
6
CONTINUOUS
10
5.82543
20
-4.76084
11
5.82068
21
-4.74937
0
LINE
8
BLACK
6
CONTINUOUS
10
5.82068
20
-4.74937
11
5.81826
21
-4.7372
0
LINE
8
BLACK
6
CONTINUOUS
10
5.81826
20
-4.7372
11
5.81826
21
-4.7248
0
LINE
8
BLACK
6
CONTINUOUS
10
5.81826
20
-4.7248
11
5.82068
21
-4.71263
0
LINE
8
BLACK
6
CONTINUOUS
10
5.82068
20
-4.71263
11
5.82543
21
-4.70116
0
LINE
8
BLACK
6
CONTINUOUS
10
5.82543
20
-4.70116
11
5.83232
21
-4.69084
0
LINE
8
BLACK
6
CONTINUOUS
10
5.83232
20
-4.69084
11
5.84109
21
-4.68207
0
LINE
8
BLACK
6
CONTINUOUS
10
5.84109
20
-4.68207
11
5.85141
21
-4.67518
0
LINE
8
BLACK
6
CONTINUOUS
10
5.85141
20
-4.67518
11
5.86288
21
-4.67043
0
LINE
8
BLACK
6
CONTINUOUS
10
5.86288
20
-4.67043
11
5.87505
21
-4.66801
0
LINE
8
BLACK
6
CONTINUOUS
10
5.87505
20
-4.66801
11
5.88745
21
-4.66801
0
LINE
8
BLACK
6
CONTINUOUS
10
5.88745
20
-4.66801
11
5.89962
21
-4.67043
0
LINE
8
BLACK
6
CONTINUOUS
10
3.99337
20
-2.60793
11
4.00484
21
-2.61268
0
LINE
8
BLACK
6
CONTINUOUS
10
4.00484
20
-2.61268
11
4.01516
21
-2.61957
0
LINE
8
BLACK
6
CONTINUOUS
10
4.01516
20
-2.61957
11
4.02393
21
-2.62834
0
LINE
8
BLACK
6
CONTINUOUS
10
4.02393
20
-2.62834
11
4.03082
21
-2.63866
0
LINE
8
BLACK
6
CONTINUOUS
10
4.03082
20
-2.63866
11
4.03557
21
-2.65013
0
LINE
8
BLACK
6
CONTINUOUS
10
4.03557
20
-2.65013
11
4.03799
21
-2.6623
0
LINE
8
BLACK
6
CONTINUOUS
10
4.03799
20
-2.6623
11
4.03799
21
-2.6747
0
LINE
8
BLACK
6
CONTINUOUS
10
4.03799
20
-2.6747
11
4.03557
21
-2.68687
0
LINE
8
BLACK
6
CONTINUOUS
10
4.03557
20
-2.68687
11
4.03082
21
-2.69834
0
LINE
8
BLACK
6
CONTINUOUS
10
4.03082
20
-2.69834
11
4.02393
21
-2.70866
0
LINE
8
BLACK
6
CONTINUOUS
10
4.02393
20
-2.70866
11
4.01516
21
-2.71743
0
LINE
8
BLACK
6
CONTINUOUS
10
4.01516
20
-2.71743
11
4.00484
21
-2.72432
0
LINE
8
BLACK
6
CONTINUOUS
10
4.00484
20
-2.72432
11
3.99337
21
-2.72907
0
LINE
8
BLACK
6
CONTINUOUS
10
3.99337
20
-2.72907
11
3.9812
21
-2.73149
0
LINE
8
BLACK
6
CONTINUOUS
10
3.9812
20
-2.73149
11
3.9688
21
-2.73149
0
LINE
8
BLACK
6
CONTINUOUS
10
3.9688
20
-2.73149
11
3.95663
21
-2.72907
0
LINE
8
BLACK
6
CONTINUOUS
10
3.95663
20
-2.72907
11
3.94516
21
-2.72432
0
LINE
8
BLACK
6
CONTINUOUS
10
3.94516
20
-2.72432
11
3.93484
21
-2.71743
0
LINE
8
BLACK
6
CONTINUOUS
10
3.93484
20
-2.71743
11
3.92607
21
-2.70866
0
LINE
8
BLACK
6
CONTINUOUS
10
3.92607
20
-2.70866
11
3.91918
21
-2.69834
0
LINE
8
BLACK
6
CONTINUOUS
10
3.91918
20
-2.69834
11
3.91443
21
-2.68687
0
LINE
8
BLACK
6
CONTINUOUS
10
3.91443
20
-2.68687
11
3.91201
21
-2.6747
0
LINE
8
BLACK
6
CONTINUOUS
10
3.91201
20
-2.6747
11
3.91201
21
-2.6623
0
LINE
8
BLACK
6
CONTINUOUS
10
3.91201
20
-2.6623
11
3.91443
21
-2.65013
0
LINE
8
BLACK
6
CONTINUOUS
10
3.91443
20
-2.65013
11
3.91918
21
-2.63866
0
LINE
8
BLACK
6
CONTINUOUS
10
3.91918
20
-2.63866
11
3.92607
21
-2.62834
0
LINE
8
BLACK
6
CONTINUOUS
10
3.92607
20
-2.62834
11
3.93484
21
-2.61957
0
LINE
8
BLACK
6
CONTINUOUS
10
3.93484
20
-2.61957
11
3.94516
21
-2.61268
0
LINE
8
BLACK
6
CONTINUOUS
10
3.94516
20
-2.61268
11
3.95663
21
-2.60793
0
LINE
8
BLACK
6
CONTINUOUS
10
3.95663
20
-2.60793
11
3.9688
21
-2.60551
0
LINE
8
BLACK
6
CONTINUOUS
10
3.9688
20
-2.60551
11
3.9812
21
-2.60551
0
LINE
8
BLACK
6
CONTINUOUS
10
3.9812
20
-2.60551
11
3.99337
21
-2.60793
0
LINE
8
BLACK
6
CONTINUOUS
10
6.99337
20
-2.42043
11
7.00484
21
-2.42518
0
LINE
8
BLACK
6
CONTINUOUS
10
7.00484
20
-2.42518
11
7.01516
21
-2.43207
0
LINE
8
BLACK
6
CONTINUOUS
10
7.01516
20
-2.43207
11
7.02393
21
-2.44084
0
LINE
8
BLACK
6
CONTINUOUS
10
7.02393
20
-2.44084
11
7.03082
21
-2.45116
0
LINE
8
BLACK
6
CONTINUOUS
10
7.03082
20
-2.45116
11
7.03557
21
-2.46263
0
LINE
8
BLACK
6
CONTINUOUS
10
7.03557
20
-2.46263
11
7.03799
21
-2.4748
0
LINE
8
BLACK
6
CONTINUOUS
10
7.03799
20
-2.4748
11
7.03799
21
-2.4872
0
LINE
8
BLACK
6
CONTINUOUS
10
7.03799
20
-2.4872
11
7.03557
21
-2.49937
0
LINE
8
BLACK
6
CONTINUOUS
10
7.03557
20
-2.49937
11
7.03082
21
-2.51084
0
LINE
8
BLACK
6
CONTINUOUS
10
7.03082
20
-2.51084
11
7.02393
21
-2.52115
0
LINE
8
BLACK
6
CONTINUOUS
10
7.02393
20
-2.52115
11
7.01516
21
-2.52993
0
LINE
8
BLACK
6
CONTINUOUS
10
7.01516
20
-2.52993
11
7.00484
21
-2.53682
0
LINE
8
BLACK
6
CONTINUOUS
10
7.00484
20
-2.53682
11
6.99337
21
-2.54157
0
LINE
8
BLACK
6
CONTINUOUS
10
6.99337
20
-2.54157
11
6.9812
21
-2.54399
0
LINE
8
BLACK
6
CONTINUOUS
10
6.9812
20
-2.54399
11
6.9688
21
-2.54399
0
LINE
8
BLACK
6
CONTINUOUS
10
6.9688
20
-2.54399
11
6.95663
21
-2.54157
0
LINE
8
BLACK
6
CONTINUOUS
10
6.95663
20
-2.54157
11
6.94516
21
-2.53682
0
LINE
8
BLACK
6
CONTINUOUS
10
6.94516
20
-2.53682
11
6.93484
21
-2.52993
0
LINE
8
BLACK
6
CONTINUOUS
10
6.93484
20
-2.52993
11
6.92607
21
-2.52115
0
LINE
8
BLACK
6
CONTINUOUS
10
6.92607
20
-2.52115
11
6.91918
21
-2.51084
0
LINE
8
BLACK
6
CONTINUOUS
10
6.91918
20
-2.51084
11
6.91443
21
-2.49937
0
LINE
8
BLACK
6
CONTINUOUS
10
6.91443
20
-2.49937
11
6.91201
21
-2.4872
0
LINE
8
BLACK
6
CONTINUOUS
10
6.91201
20
-2.4872
11
6.91201
21
-2.4748
0
LINE
8
BLACK
6
CONTINUOUS
10
6.91201
20
-2.4748
11
6.91443
21
-2.46263
0
LINE
8
BLACK
6
CONTINUOUS
10
6.91443
20
-2.46263
11
6.91918
21
-2.45116
0
LINE
8
BLACK
6
CONTINUOUS
10
6.91918
20
-2.45116
11
6.92607
21
-2.44084
0
LINE
8
BLACK
6
CONTINUOUS
10
6.92607
20
-2.44084
11
6.93484
21
-2.43207
0
LINE
8
BLACK
6
CONTINUOUS
10
6.93484
20
-2.43207
11
6.94516
21
-2.42518
0
LINE
8
BLACK
6
CONTINUOUS
10
6.94516
20
-2.42518
11
6.95663
21
-2.42043
0
LINE
8
BLACK
6
CONTINUOUS
10
6.95663
20
-2.42043
11
6.9688
21
-2.41801
0
LINE
8
BLACK
6
CONTINUOUS
10
6.9688
20
-2.41801
11
6.9812
21
-2.41801
0
LINE
8
BLACK
6
CONTINUOUS
10
6.9812
20
-2.41801
11
6.99337
21
-2.42043
  0
ENDSEC
  0
EOF
