  0
SECTION
  2
HEADER
  9
$ANGBASE
  50
0.0
  9
$ANGDIR
  70
1
  9
$MEASUREMENT
  70
0
  0
ENDSEC
  0
SECTION
  2
TABLES
  0
TABLE
  2
LTYPE
  70
4
  0
LTYPE
  5
40F
  2
CONTINUOUS
  70
0
  3
Solid line
  72
65
  73
0
  40
0.0
  0
LTYPE
  5
410
  2
DASHDOT
 70
0
  3
Dash Dot ____ _ ____ _
 72
65
 73
4
 40
2.0
 49
1.25
 49
-0.25
 49
0.25
 49
-0.25
  0
LTYPE
  5
411
  2
DASHED
 70
0
  3
Dashed __ __ __ __ __
 72
65
 73
2
 40
0.75
 49
0.5
 49
-0.25
  0
LTYPE
  5
43B
  2
DOTTED
 70
0
  3
Dotted .  .  .  .
 72
65
 73
2
 40
0.2
 49
0.0
 49
-0.2
  0
ENDTAB
  0
TABLE
  2
STYLE
  70
4
  0
STYLE
  2
KICAD
  70
0
  40
0
  41
1
  42
1
  50
0
  71
0
  3
isocp.shx
  0
STYLE
  2
KICADB
  70
0
  40
0
  41
1
  42
1
  50
0
  71
0
  3
isocp.shx
  0
STYLE
  2
KICADI
  70
0
  40
0
  41
1
  42
1
  50
15
  71
0
  3
isocp.shx
  0
STYLE
  2
KICADBI
  70
0
  40
0
  41
1
  42
1
  50
15
  71
0
  3
isocp.shx
  0
ENDTAB
  0
TABLE
  2
LAYER
  70
1
  0
LAYER
  2
BLACK
  70
0
  62
7
  6
CONTINUOUS
  0
ENDTAB
  0
ENDSEC
  0
SECTION
  2
ENTITIES
0
LINE
8
BLACK
6
CONTINUOUS
10
8.80078
20
-1.50909
11
8.8008
21
-1.50909
0
LINE
8
BLACK
6
CONTINUOUS
10
8.8008
20
-1.50909
11
8.80081
21
-1.5091
0
LINE
8
BLACK
6
CONTINUOUS
10
8.80081
20
-1.5091
11
8.80817
21
-1.51132
0
LINE
8
BLACK
6
CONTINUOUS
10
8.80817
20
-1.51132
11
8.80817
21
-1.51132
0
LINE
8
BLACK
6
CONTINUOUS
10
8.80817
20
-1.51132
11
8.80819
21
-1.51133
0
LINE
8
BLACK
6
CONTINUOUS
10
8.80819
20
-1.51133
11
8.80821
21
-1.51133
0
LINE
8
BLACK
6
CONTINUOUS
10
8.80821
20
-1.51133
11
8.80821
21
-1.51133
0
LINE
8
BLACK
6
CONTINUOUS
10
8.80821
20
-1.51133
11
8.80821
21
-1.51133
0
LINE
8
BLACK
6
CONTINUOUS
10
8.80821
20
-1.51133
11
8.80821
21
-1.51133
0
LINE
8
BLACK
6
CONTINUOUS
10
8.80821
20
-1.51133
11
8.81499
21
-1.51494
0
LINE
8
BLACK
6
CONTINUOUS
10
8.81499
20
-1.51494
11
8.81499
21
-1.51494
0
LINE
8
BLACK
6
CONTINUOUS
10
8.81499
20
-1.51494
11
8.81501
21
-1.51495
0
LINE
8
BLACK
6
CONTINUOUS
10
8.81501
20
-1.51495
11
8.81502
21
-1.51496
0
LINE
8
BLACK
6
CONTINUOUS
10
8.81502
20
-1.51496
11
8.82098
21
-1.51982
0
LINE
8
BLACK
6
CONTINUOUS
10
8.82098
20
-1.51982
11
8.82098
21
-1.51982
0
LINE
8
BLACK
6
CONTINUOUS
10
8.82098
20
-1.51982
11
8.82099
21
-1.51983
0
LINE
8
BLACK
6
CONTINUOUS
10
8.82099
20
-1.51983
11
8.821
21
-1.51984
0
LINE
8
BLACK
6
CONTINUOUS
10
8.821
20
-1.51984
11
8.8259
21
-1.52576
0
LINE
8
BLACK
6
CONTINUOUS
10
8.8259
20
-1.52576
11
8.8259
21
-1.52576
0
LINE
8
BLACK
6
CONTINUOUS
10
8.8259
20
-1.52576
11
8.8259
21
-1.52576
0
LINE
8
BLACK
6
CONTINUOUS
10
8.8259
20
-1.52576
11
8.8259
21
-1.52577
0
LINE
8
BLACK
6
CONTINUOUS
10
8.8259
20
-1.52577
11
8.82591
21
-1.52578
0
LINE
8
BLACK
6
CONTINUOUS
10
8.82591
20
-1.52578
11
8.82592
21
-1.5258
0
LINE
8
BLACK
6
CONTINUOUS
10
8.82592
20
-1.5258
11
8.82958
21
-1.53256
0
LINE
8
BLACK
6
CONTINUOUS
10
8.82958
20
-1.53256
11
8.82958
21
-1.53256
0
LINE
8
BLACK
6
CONTINUOUS
10
8.82958
20
-1.53256
11
8.82958
21
-1.53256
0
LINE
8
BLACK
6
CONTINUOUS
10
8.82958
20
-1.53256
11
8.82958
21
-1.53256
0
LINE
8
BLACK
6
CONTINUOUS
10
8.82958
20
-1.53256
11
8.82959
21
-1.53257
0
LINE
8
BLACK
6
CONTINUOUS
10
8.82959
20
-1.53257
11
8.82959
21
-1.53259
0
LINE
8
BLACK
6
CONTINUOUS
10
8.82959
20
-1.53259
11
8.83186
21
-1.53993
0
LINE
8
BLACK
6
CONTINUOUS
10
8.83186
20
-1.53993
11
8.83186
21
-1.53993
0
LINE
8
BLACK
6
CONTINUOUS
10
8.83186
20
-1.53993
11
8.83186
21
-1.53993
0
LINE
8
BLACK
6
CONTINUOUS
10
8.83186
20
-1.53993
11
8.83187
21
-1.53993
0
LINE
8
BLACK
6
CONTINUOUS
10
8.83187
20
-1.53993
11
8.83187
21
-1.53995
0
LINE
8
BLACK
6
CONTINUOUS
10
8.83187
20
-1.53995
11
8.83187
21
-1.53997
0
LINE
8
BLACK
6
CONTINUOUS
10
8.83187
20
-1.53997
11
8.83268
21
-1.54761
0
LINE
8
BLACK
6
CONTINUOUS
10
8.83268
20
-1.54761
11
8.83268
21
-1.54761
0
LINE
8
BLACK
6
CONTINUOUS
10
8.83268
20
-1.54761
11
8.83268
21
-1.54762
0
LINE
8
BLACK
6
CONTINUOUS
10
8.83268
20
-1.54762
11
8.83268
21
-1.54763
0
LINE
8
BLACK
6
CONTINUOUS
10
8.83268
20
-1.54763
11
8.83268
21
-1.5479
0
LINE
8
BLACK
6
CONTINUOUS
10
8.83268
20
-1.5479
11
8.83268
21
-1.54791
0
LINE
8
BLACK
6
CONTINUOUS
10
8.83268
20
-1.54791
11
8.83268
21
-1.54791
0
LINE
8
BLACK
6
CONTINUOUS
10
8.83268
20
-1.54791
11
8.83268
21
-4.90288
0
LINE
8
BLACK
6
CONTINUOUS
10
8.83268
20
-4.90288
11
8.83267
21
-4.90291
0
LINE
8
BLACK
6
CONTINUOUS
10
8.83267
20
-4.90291
11
8.83267
21
-4.90291
0
LINE
8
BLACK
6
CONTINUOUS
10
8.83267
20
-4.90291
11
8.82766
21
-4.9365
0
LINE
8
BLACK
6
CONTINUOUS
10
8.82766
20
-4.9365
11
8.82766
21
-4.9365
0
LINE
8
BLACK
6
CONTINUOUS
10
8.82766
20
-4.9365
11
8.82766
21
-4.93652
0
LINE
8
BLACK
6
CONTINUOUS
10
8.82766
20
-4.93652
11
8.82766
21
-4.93653
0
LINE
8
BLACK
6
CONTINUOUS
10
8.82766
20
-4.93653
11
8.81661
21
-4.96865
0
LINE
8
BLACK
6
CONTINUOUS
10
8.81661
20
-4.96865
11
8.81661
21
-4.96866
0
LINE
8
BLACK
6
CONTINUOUS
10
8.81661
20
-4.96866
11
8.8166
21
-4.96866
0
LINE
8
BLACK
6
CONTINUOUS
10
8.8166
20
-4.96866
11
8.8166
21
-4.96867
0
LINE
8
BLACK
6
CONTINUOUS
10
8.8166
20
-4.96867
11
8.81291
21
-4.97639
0
LINE
8
BLACK
6
CONTINUOUS
10
8.81291
20
-4.97639
11
8.81291
21
-4.97639
0
LINE
8
BLACK
6
CONTINUOUS
10
8.81291
20
-4.97639
11
8.03962
21
-6.31018
0
LINE
8
BLACK
6
CONTINUOUS
10
8.03962
20
-6.31018
11
8.03961
21
-6.31019
0
LINE
8
BLACK
6
CONTINUOUS
10
8.03961
20
-6.31019
11
8.03961
21
-6.31019
0
LINE
8
BLACK
6
CONTINUOUS
10
8.03961
20
-6.31019
11
8.03514
21
-6.31641
0
LINE
8
BLACK
6
CONTINUOUS
10
8.03514
20
-6.31641
11
8.03514
21
-6.31641
0
LINE
8
BLACK
6
CONTINUOUS
10
8.03514
20
-6.31641
11
8.03513
21
-6.31642
0
LINE
8
BLACK
6
CONTINUOUS
10
8.03513
20
-6.31642
11
8.03512
21
-6.31643
0
LINE
8
BLACK
6
CONTINUOUS
10
8.03512
20
-6.31643
11
8.02953
21
-6.32166
0
LINE
8
BLACK
6
CONTINUOUS
10
8.02953
20
-6.32166
11
8.02953
21
-6.32166
0
LINE
8
BLACK
6
CONTINUOUS
10
8.02953
20
-6.32166
11
8.02953
21
-6.32166
0
LINE
8
BLACK
6
CONTINUOUS
10
8.02953
20
-6.32166
11
8.02953
21
-6.32167
0
LINE
8
BLACK
6
CONTINUOUS
10
8.02953
20
-6.32167
11
8.02951
21
-6.32168
0
LINE
8
BLACK
6
CONTINUOUS
10
8.02951
20
-6.32168
11
8.0295
21
-6.32169
0
LINE
8
BLACK
6
CONTINUOUS
10
8.0295
20
-6.32169
11
8.023
21
-6.32573
0
LINE
8
BLACK
6
CONTINUOUS
10
8.023
20
-6.32573
11
8.023
21
-6.32573
0
LINE
8
BLACK
6
CONTINUOUS
10
8.023
20
-6.32573
11
8.02298
21
-6.32574
0
LINE
8
BLACK
6
CONTINUOUS
10
8.02298
20
-6.32574
11
8.02296
21
-6.32575
0
LINE
8
BLACK
6
CONTINUOUS
10
8.02296
20
-6.32575
11
8.0158
21
-6.32845
0
LINE
8
BLACK
6
CONTINUOUS
10
8.0158
20
-6.32845
11
8.0158
21
-6.32845
0
LINE
8
BLACK
6
CONTINUOUS
10
8.0158
20
-6.32845
11
8.0158
21
-6.32845
0
LINE
8
BLACK
6
CONTINUOUS
10
8.0158
20
-6.32845
11
8.0158
21
-6.32846
0
LINE
8
BLACK
6
CONTINUOUS
10
8.0158
20
-6.32846
11
8.01578
21
-6.32846
0
LINE
8
BLACK
6
CONTINUOUS
10
8.01578
20
-6.32846
11
8.01577
21
-6.32846
0
LINE
8
BLACK
6
CONTINUOUS
10
8.01577
20
-6.32846
11
8.00822
21
-6.32973
0
LINE
8
BLACK
6
CONTINUOUS
10
8.00822
20
-6.32973
11
8.00822
21
-6.32973
0
LINE
8
BLACK
6
CONTINUOUS
10
8.00822
20
-6.32973
11
8.00822
21
-6.32973
0
LINE
8
BLACK
6
CONTINUOUS
10
8.00822
20
-6.32973
11
8.00821
21
-6.32973
0
LINE
8
BLACK
6
CONTINUOUS
10
8.00821
20
-6.32973
11
8.0082
21
-6.32973
0
LINE
8
BLACK
6
CONTINUOUS
10
8.0082
20
-6.32973
11
8.00818
21
-6.32973
0
LINE
8
BLACK
6
CONTINUOUS
10
8.00818
20
-6.32973
11
8.00818
21
-6.32973
0
LINE
8
BLACK
6
CONTINUOUS
10
8.00818
20
-6.32973
11
8.00818
21
-6.32973
0
LINE
8
BLACK
6
CONTINUOUS
10
8.00818
20
-6.32973
11
8.00053
21
-6.3295
0
LINE
8
BLACK
6
CONTINUOUS
10
8.00053
20
-6.3295
11
8.00052
21
-6.3295
0
LINE
8
BLACK
6
CONTINUOUS
10
8.00052
20
-6.3295
11
8.00051
21
-6.3295
0
LINE
8
BLACK
6
CONTINUOUS
10
8.00051
20
-6.3295
11
8.00049
21
-6.3295
0
LINE
8
BLACK
6
CONTINUOUS
10
8.00049
20
-6.3295
11
7.99303
21
-6.32779
0
LINE
8
BLACK
6
CONTINUOUS
10
7.99303
20
-6.32779
11
7.99303
21
-6.32779
0
LINE
8
BLACK
6
CONTINUOUS
10
7.99303
20
-6.32779
11
7.99301
21
-6.32778
0
LINE
8
BLACK
6
CONTINUOUS
10
7.99301
20
-6.32778
11
7.99299
21
-6.32778
0
LINE
8
BLACK
6
CONTINUOUS
10
7.99299
20
-6.32778
11
7.986
21
-6.32465
0
LINE
8
BLACK
6
CONTINUOUS
10
7.986
20
-6.32465
11
7.986
21
-6.32465
0
LINE
8
BLACK
6
CONTINUOUS
10
7.986
20
-6.32465
11
7.98599
21
-6.32464
0
LINE
8
BLACK
6
CONTINUOUS
10
7.98599
20
-6.32464
11
7.98599
21
-6.32464
0
LINE
8
BLACK
6
CONTINUOUS
10
7.98599
20
-6.32464
11
7.98563
21
-6.32443
0
LINE
8
BLACK
6
CONTINUOUS
10
7.98563
20
-6.32443
11
7.98563
21
-6.32443
0
LINE
8
BLACK
6
CONTINUOUS
10
7.98563
20
-6.32443
11
7.98562
21
-6.32443
0
LINE
8
BLACK
6
CONTINUOUS
10
7.98562
20
-6.32443
11
7.98562
21
-6.32443
0
LINE
8
BLACK
6
CONTINUOUS
10
7.98562
20
-6.32443
11
7.98562
21
-6.32443
0
LINE
8
BLACK
6
CONTINUOUS
10
7.98562
20
-6.32443
11
7.12918
21
-5.82355
0
LINE
8
BLACK
6
CONTINUOUS
10
7.12918
20
-5.82355
11
7.11121
21
-5.81465
0
LINE
8
BLACK
6
CONTINUOUS
10
7.11121
20
-5.81465
11
7.0841
21
-5.80646
0
LINE
8
BLACK
6
CONTINUOUS
10
7.0841
20
-5.80646
11
7.05591
21
-5.8037
0
LINE
8
BLACK
6
CONTINUOUS
10
7.05591
20
-5.8037
11
3.1209
21
-5.8037
0
LINE
8
BLACK
6
CONTINUOUS
10
3.1209
20
-5.8037
11
3.12089
21
-5.8037
0
LINE
8
BLACK
6
CONTINUOUS
10
3.12089
20
-5.8037
11
3.12089
21
-5.8037
0
LINE
8
BLACK
6
CONTINUOUS
10
3.12089
20
-5.8037
11
3.11324
21
-5.80295
0
LINE
8
BLACK
6
CONTINUOUS
10
3.11324
20
-5.80295
11
3.11324
21
-5.80295
0
LINE
8
BLACK
6
CONTINUOUS
10
3.11324
20
-5.80295
11
3.11322
21
-5.80294
0
LINE
8
BLACK
6
CONTINUOUS
10
3.11322
20
-5.80294
11
3.1132
21
-5.80294
0
LINE
8
BLACK
6
CONTINUOUS
10
3.1132
20
-5.80294
11
3.10585
21
-5.80072
0
LINE
8
BLACK
6
CONTINUOUS
10
3.10585
20
-5.80072
11
3.10584
21
-5.80072
0
LINE
8
BLACK
6
CONTINUOUS
10
3.10584
20
-5.80072
11
3.10583
21
-5.80071
0
LINE
8
BLACK
6
CONTINUOUS
10
3.10583
20
-5.80071
11
3.10581
21
-5.8007
0
LINE
8
BLACK
6
CONTINUOUS
10
3.10581
20
-5.8007
11
3.09903
21
-5.7971
0
LINE
8
BLACK
6
CONTINUOUS
10
3.09903
20
-5.7971
11
3.09903
21
-5.7971
0
LINE
8
BLACK
6
CONTINUOUS
10
3.09903
20
-5.7971
11
3.09903
21
-5.7971
0
LINE
8
BLACK
6
CONTINUOUS
10
3.09903
20
-5.7971
11
3.09902
21
-5.79709
0
LINE
8
BLACK
6
CONTINUOUS
10
3.09902
20
-5.79709
11
3.09901
21
-5.79708
0
LINE
8
BLACK
6
CONTINUOUS
10
3.09901
20
-5.79708
11
3.09899
21
-5.79707
0
LINE
8
BLACK
6
CONTINUOUS
10
3.09899
20
-5.79707
11
3.09304
21
-5.79222
0
LINE
8
BLACK
6
CONTINUOUS
10
3.09304
20
-5.79222
11
3.09304
21
-5.79222
0
LINE
8
BLACK
6
CONTINUOUS
10
3.09304
20
-5.79222
11
3.09303
21
-5.7922
0
LINE
8
BLACK
6
CONTINUOUS
10
3.09303
20
-5.7922
11
3.09301
21
-5.79219
0
LINE
8
BLACK
6
CONTINUOUS
10
3.09301
20
-5.79219
11
3.08811
21
-5.78627
0
LINE
8
BLACK
6
CONTINUOUS
10
3.08811
20
-5.78627
11
3.08811
21
-5.78627
0
LINE
8
BLACK
6
CONTINUOUS
10
3.08811
20
-5.78627
11
3.0881
21
-5.78625
0
LINE
8
BLACK
6
CONTINUOUS
10
3.0881
20
-5.78625
11
3.08809
21
-5.78624
0
LINE
8
BLACK
6
CONTINUOUS
10
3.08809
20
-5.78624
11
3.08444
21
-5.77948
0
LINE
8
BLACK
6
CONTINUOUS
10
3.08444
20
-5.77948
11
3.08444
21
-5.77948
0
LINE
8
BLACK
6
CONTINUOUS
10
3.08444
20
-5.77948
11
3.08444
21
-5.77948
0
LINE
8
BLACK
6
CONTINUOUS
10
3.08444
20
-5.77948
11
3.08444
21
-5.77948
0
LINE
8
BLACK
6
CONTINUOUS
10
3.08444
20
-5.77948
11
3.08443
21
-5.77946
0
LINE
8
BLACK
6
CONTINUOUS
10
3.08443
20
-5.77946
11
3.08442
21
-5.77944
0
LINE
8
BLACK
6
CONTINUOUS
10
3.08442
20
-5.77944
11
3.08215
21
-5.7721
0
LINE
8
BLACK
6
CONTINUOUS
10
3.08215
20
-5.7721
11
3.08215
21
-5.7721
0
LINE
8
BLACK
6
CONTINUOUS
10
3.08215
20
-5.7721
11
3.08215
21
-5.7721
0
LINE
8
BLACK
6
CONTINUOUS
10
3.08215
20
-5.7721
11
3.08215
21
-5.7721
0
LINE
8
BLACK
6
CONTINUOUS
10
3.08215
20
-5.7721
11
3.08215
21
-5.77208
0
LINE
8
BLACK
6
CONTINUOUS
10
3.08215
20
-5.77208
11
3.08214
21
-5.77207
0
LINE
8
BLACK
6
CONTINUOUS
10
3.08214
20
-5.77207
11
3.08134
21
-5.76443
0
LINE
8
BLACK
6
CONTINUOUS
10
3.08134
20
-5.76443
11
3.08134
21
-5.76442
0
LINE
8
BLACK
6
CONTINUOUS
10
3.08134
20
-5.76442
11
3.08134
21
-5.76441
0
LINE
8
BLACK
6
CONTINUOUS
10
3.08134
20
-5.76441
11
3.08134
21
-5.76441
0
LINE
8
BLACK
6
CONTINUOUS
10
3.08134
20
-5.76441
11
3.08134
21
-5.76414
0
LINE
8
BLACK
6
CONTINUOUS
10
3.08134
20
-5.76414
11
3.08134
21
-5.76414
0
LINE
8
BLACK
6
CONTINUOUS
10
3.08134
20
-5.76414
11
3.08134
21
-1.8659
0
LINE
8
BLACK
6
CONTINUOUS
10
3.08134
20
-1.8659
11
3.08134
21
-1.86589
0
LINE
8
BLACK
6
CONTINUOUS
10
3.08134
20
-1.86589
11
3.08209
21
-1.85824
0
LINE
8
BLACK
6
CONTINUOUS
10
3.08209
20
-1.85824
11
3.08209
21
-1.85824
0
LINE
8
BLACK
6
CONTINUOUS
10
3.08209
20
-1.85824
11
3.08209
21
-1.85822
0
LINE
8
BLACK
6
CONTINUOUS
10
3.08209
20
-1.85822
11
3.0821
21
-1.8582
0
LINE
8
BLACK
6
CONTINUOUS
10
3.0821
20
-1.8582
11
3.08432
21
-1.85085
0
LINE
8
BLACK
6
CONTINUOUS
10
3.08432
20
-1.85085
11
3.08432
21
-1.85084
0
LINE
8
BLACK
6
CONTINUOUS
10
3.08432
20
-1.85084
11
3.08433
21
-1.85083
0
LINE
8
BLACK
6
CONTINUOUS
10
3.08433
20
-1.85083
11
3.08433
21
-1.85081
0
LINE
8
BLACK
6
CONTINUOUS
10
3.08433
20
-1.85081
11
3.08794
21
-1.84403
0
LINE
8
BLACK
6
CONTINUOUS
10
3.08794
20
-1.84403
11
3.08794
21
-1.84402
0
LINE
8
BLACK
6
CONTINUOUS
10
3.08794
20
-1.84402
11
3.08795
21
-1.84401
0
LINE
8
BLACK
6
CONTINUOUS
10
3.08795
20
-1.84401
11
3.08796
21
-1.84399
0
LINE
8
BLACK
6
CONTINUOUS
10
3.08796
20
-1.84399
11
3.09282
21
-1.83804
0
LINE
8
BLACK
6
CONTINUOUS
10
3.09282
20
-1.83804
11
3.09282
21
-1.83804
0
LINE
8
BLACK
6
CONTINUOUS
10
3.09282
20
-1.83804
11
3.09283
21
-1.83802
0
LINE
8
BLACK
6
CONTINUOUS
10
3.09283
20
-1.83802
11
3.09284
21
-1.83801
0
LINE
8
BLACK
6
CONTINUOUS
10
3.09284
20
-1.83801
11
3.09876
21
-1.83311
0
LINE
8
BLACK
6
CONTINUOUS
10
3.09876
20
-1.83311
11
3.09877
21
-1.83311
0
LINE
8
BLACK
6
CONTINUOUS
10
3.09877
20
-1.83311
11
3.09878
21
-1.8331
0
LINE
8
BLACK
6
CONTINUOUS
10
3.09878
20
-1.8331
11
3.0988
21
-1.83309
0
LINE
8
BLACK
6
CONTINUOUS
10
3.0988
20
-1.83309
11
3.0988
21
-1.83309
0
LINE
8
BLACK
6
CONTINUOUS
10
3.0988
20
-1.83309
11
3.0988
21
-1.83309
0
LINE
8
BLACK
6
CONTINUOUS
10
3.0988
20
-1.83309
11
3.0988
21
-1.83309
0
LINE
8
BLACK
6
CONTINUOUS
10
3.0988
20
-1.83309
11
3.10556
21
-1.82944
0
LINE
8
BLACK
6
CONTINUOUS
10
3.10556
20
-1.82944
11
3.10556
21
-1.82944
0
LINE
8
BLACK
6
CONTINUOUS
10
3.10556
20
-1.82944
11
3.10556
21
-1.82944
0
LINE
8
BLACK
6
CONTINUOUS
10
3.10556
20
-1.82944
11
3.10556
21
-1.82944
0
LINE
8
BLACK
6
CONTINUOUS
10
3.10556
20
-1.82944
11
3.10557
21
-1.82943
0
LINE
8
BLACK
6
CONTINUOUS
10
3.10557
20
-1.82943
11
3.10559
21
-1.82942
0
LINE
8
BLACK
6
CONTINUOUS
10
3.10559
20
-1.82942
11
3.10559
21
-1.82942
0
LINE
8
BLACK
6
CONTINUOUS
10
3.10559
20
-1.82942
11
3.10559
21
-1.82942
0
LINE
8
BLACK
6
CONTINUOUS
10
3.10559
20
-1.82942
11
3.10559
21
-1.82942
0
LINE
8
BLACK
6
CONTINUOUS
10
3.10559
20
-1.82942
11
3.11293
21
-1.82715
0
LINE
8
BLACK
6
CONTINUOUS
10
3.11293
20
-1.82715
11
3.11293
21
-1.82715
0
LINE
8
BLACK
6
CONTINUOUS
10
3.11293
20
-1.82715
11
3.11293
21
-1.82715
0
LINE
8
BLACK
6
CONTINUOUS
10
3.11293
20
-1.82715
11
3.11293
21
-1.82715
0
LINE
8
BLACK
6
CONTINUOUS
10
3.11293
20
-1.82715
11
3.11295
21
-1.82715
0
LINE
8
BLACK
6
CONTINUOUS
10
3.11295
20
-1.82715
11
3.11297
21
-1.82714
0
LINE
8
BLACK
6
CONTINUOUS
10
3.11297
20
-1.82714
11
3.12061
21
-1.82634
0
LINE
8
BLACK
6
CONTINUOUS
10
3.12061
20
-1.82634
11
3.12061
21
-1.82634
0
LINE
8
BLACK
6
CONTINUOUS
10
3.12061
20
-1.82634
11
3.12062
21
-1.82634
0
LINE
8
BLACK
6
CONTINUOUS
10
3.12062
20
-1.82634
11
3.12063
21
-1.82634
0
LINE
8
BLACK
6
CONTINUOUS
10
3.12063
20
-1.82634
11
3.1209
21
-1.82634
0
LINE
8
BLACK
6
CONTINUOUS
10
3.1209
20
-1.82634
11
3.1209
21
-1.82634
0
LINE
8
BLACK
6
CONTINUOUS
10
3.1209
20
-1.82634
11
4.54528
21
-1.82634
0
LINE
8
BLACK
6
CONTINUOUS
10
4.54528
20
-1.82634
11
4.54528
21
-1.82634
0
LINE
8
BLACK
6
CONTINUOUS
10
4.54528
20
-1.82634
11
4.5458
21
-1.82634
0
LINE
8
BLACK
6
CONTINUOUS
10
4.5458
20
-1.82634
11
4.56417
21
-1.82443
0
LINE
8
BLACK
6
CONTINUOUS
10
4.56417
20
-1.82443
11
4.58181
21
-1.819
0
LINE
8
BLACK
6
CONTINUOUS
10
4.58181
20
-1.819
11
4.59806
21
-1.81025
0
LINE
8
BLACK
6
CONTINUOUS
10
4.59806
20
-1.81025
11
4.6123
21
-1.79849
0
LINE
8
BLACK
6
CONTINUOUS
10
4.6123
20
-1.79849
11
4.87344
21
-1.53628
0
LINE
8
BLACK
6
CONTINUOUS
10
4.87344
20
-1.53628
11
4.87345
21
-1.53628
0
LINE
8
BLACK
6
CONTINUOUS
10
4.87345
20
-1.53628
11
4.87345
21
-1.53628
0
LINE
8
BLACK
6
CONTINUOUS
10
4.87345
20
-1.53628
11
4.88772
21
-1.52451
0
LINE
8
BLACK
6
CONTINUOUS
10
4.88772
20
-1.52451
11
4.88772
21
-1.52451
0
LINE
8
BLACK
6
CONTINUOUS
10
4.88772
20
-1.52451
11
4.88774
21
-1.5245
0
LINE
8
BLACK
6
CONTINUOUS
10
4.88774
20
-1.5245
11
4.88775
21
-1.52449
0
LINE
8
BLACK
6
CONTINUOUS
10
4.88775
20
-1.52449
11
4.90404
21
-1.51571
0
LINE
8
BLACK
6
CONTINUOUS
10
4.90404
20
-1.51571
11
4.90404
21
-1.51571
0
LINE
8
BLACK
6
CONTINUOUS
10
4.90404
20
-1.51571
11
4.90405
21
-1.51571
0
LINE
8
BLACK
6
CONTINUOUS
10
4.90405
20
-1.51571
11
4.90407
21
-1.5157
0
LINE
8
BLACK
6
CONTINUOUS
10
4.90407
20
-1.5157
11
4.92175
21
-1.51025
0
LINE
8
BLACK
6
CONTINUOUS
10
4.92175
20
-1.51025
11
4.92175
21
-1.51025
0
LINE
8
BLACK
6
CONTINUOUS
10
4.92175
20
-1.51025
11
4.92175
21
-1.51025
0
LINE
8
BLACK
6
CONTINUOUS
10
4.92175
20
-1.51025
11
4.92175
21
-1.51025
0
LINE
8
BLACK
6
CONTINUOUS
10
4.92175
20
-1.51025
11
4.92177
21
-1.51025
0
LINE
8
BLACK
6
CONTINUOUS
10
4.92177
20
-1.51025
11
4.92179
21
-1.51025
0
LINE
8
BLACK
6
CONTINUOUS
10
4.92179
20
-1.51025
11
4.94018
21
-1.50834
0
LINE
8
BLACK
6
CONTINUOUS
10
4.94018
20
-1.50834
11
4.94019
21
-1.50834
0
LINE
8
BLACK
6
CONTINUOUS
10
4.94019
20
-1.50834
11
4.9402
21
-1.50834
0
LINE
8
BLACK
6
CONTINUOUS
10
4.9402
20
-1.50834
11
4.9402
21
-1.50834
0
LINE
8
BLACK
6
CONTINUOUS
10
4.9402
20
-1.50834
11
4.94072
21
-1.50834
0
LINE
8
BLACK
6
CONTINUOUS
10
4.94072
20
-1.50834
11
4.94072
21
-1.50834
0
LINE
8
BLACK
6
CONTINUOUS
10
4.94072
20
-1.50834
11
4.94073
21
-1.50834
0
LINE
8
BLACK
6
CONTINUOUS
10
4.94073
20
-1.50834
11
8.79312
21
-1.50834
0
LINE
8
BLACK
6
CONTINUOUS
10
8.79312
20
-1.50834
11
8.79313
21
-1.50834
0
LINE
8
BLACK
6
CONTINUOUS
10
8.79313
20
-1.50834
11
8.79313
21
-1.50834
0
LINE
8
BLACK
6
CONTINUOUS
10
8.79313
20
-1.50834
11
8.80078
21
-1.50909
0
LINE
8
BLACK
6
CONTINUOUS
10
8.80078
20
-1.50909
11
8.80078
21
-1.50909
0
LINE
8
BLACK
6
CONTINUOUS
10
8.80078
20
-1.50909
11
8.80078
21
-1.50909
0
LINE
8
BLACK
6
CONTINUOUS
10
4.94073
20
-1.50873
11
4.94021
21
-1.50873
0
LINE
8
BLACK
6
CONTINUOUS
10
4.94021
20
-1.50873
11
4.92185
21
-1.51064
0
LINE
8
BLACK
6
CONTINUOUS
10
4.92185
20
-1.51064
11
4.90421
21
-1.51607
0
LINE
8
BLACK
6
CONTINUOUS
10
4.90421
20
-1.51607
11
4.88796
21
-1.52482
0
LINE
8
BLACK
6
CONTINUOUS
10
4.88796
20
-1.52482
11
4.87371
21
-1.53658
0
LINE
8
BLACK
6
CONTINUOUS
10
4.87371
20
-1.53658
11
4.61257
21
-1.79879
0
LINE
8
BLACK
6
CONTINUOUS
10
4.61257
20
-1.79879
11
4.61256
21
-1.79879
0
LINE
8
BLACK
6
CONTINUOUS
10
4.61256
20
-1.79879
11
4.61256
21
-1.79879
0
LINE
8
BLACK
6
CONTINUOUS
10
4.61256
20
-1.79879
11
4.59829
21
-1.81056
0
LINE
8
BLACK
6
CONTINUOUS
10
4.59829
20
-1.81056
11
4.59829
21
-1.81056
0
LINE
8
BLACK
6
CONTINUOUS
10
4.59829
20
-1.81056
11
4.59827
21
-1.81057
0
LINE
8
BLACK
6
CONTINUOUS
10
4.59827
20
-1.81057
11
4.59826
21
-1.81058
0
LINE
8
BLACK
6
CONTINUOUS
10
4.59826
20
-1.81058
11
4.59826
21
-1.81058
0
LINE
8
BLACK
6
CONTINUOUS
10
4.59826
20
-1.81058
11
4.59826
21
-1.81058
0
LINE
8
BLACK
6
CONTINUOUS
10
4.59826
20
-1.81058
11
4.59826
21
-1.81058
0
LINE
8
BLACK
6
CONTINUOUS
10
4.59826
20
-1.81058
11
4.58198
21
-1.81936
0
LINE
8
BLACK
6
CONTINUOUS
10
4.58198
20
-1.81936
11
4.58198
21
-1.81936
0
LINE
8
BLACK
6
CONTINUOUS
10
4.58198
20
-1.81936
11
4.58196
21
-1.81936
0
LINE
8
BLACK
6
CONTINUOUS
10
4.58196
20
-1.81936
11
4.58194
21
-1.81937
0
LINE
8
BLACK
6
CONTINUOUS
10
4.58194
20
-1.81937
11
4.56426
21
-1.82482
0
LINE
8
BLACK
6
CONTINUOUS
10
4.56426
20
-1.82482
11
4.56426
21
-1.82482
0
LINE
8
BLACK
6
CONTINUOUS
10
4.56426
20
-1.82482
11
4.56424
21
-1.82482
0
LINE
8
BLACK
6
CONTINUOUS
10
4.56424
20
-1.82482
11
4.56423
21
-1.82482
0
LINE
8
BLACK
6
CONTINUOUS
10
4.56423
20
-1.82482
11
4.54583
21
-1.82673
0
LINE
8
BLACK
6
CONTINUOUS
10
4.54583
20
-1.82673
11
4.54583
21
-1.82673
0
LINE
8
BLACK
6
CONTINUOUS
10
4.54583
20
-1.82673
11
4.54582
21
-1.82673
0
LINE
8
BLACK
6
CONTINUOUS
10
4.54582
20
-1.82673
11
4.54581
21
-1.82673
0
LINE
8
BLACK
6
CONTINUOUS
10
4.54581
20
-1.82673
11
4.54529
21
-1.82673
0
LINE
8
BLACK
6
CONTINUOUS
10
4.54529
20
-1.82673
11
4.54529
21
-1.82673
0
LINE
8
BLACK
6
CONTINUOUS
10
4.54529
20
-1.82673
11
3.12091
21
-1.82673
0
LINE
8
BLACK
6
CONTINUOUS
10
3.12091
20
-1.82673
11
3.12064
21
-1.82673
0
LINE
8
BLACK
6
CONTINUOUS
10
3.12064
20
-1.82673
11
3.11303
21
-1.82753
0
LINE
8
BLACK
6
CONTINUOUS
10
3.11303
20
-1.82753
11
3.10573
21
-1.82979
0
LINE
8
BLACK
6
CONTINUOUS
10
3.10573
20
-1.82979
11
3.099
21
-1.83343
0
LINE
8
BLACK
6
CONTINUOUS
10
3.099
20
-1.83343
11
3.09311
21
-1.8383
0
LINE
8
BLACK
6
CONTINUOUS
10
3.09311
20
-1.8383
11
3.08828
21
-1.84423
0
LINE
8
BLACK
6
CONTINUOUS
10
3.08828
20
-1.84423
11
3.08469
21
-1.85098
0
LINE
8
BLACK
6
CONTINUOUS
10
3.08469
20
-1.85098
11
3.08248
21
-1.8583
0
LINE
8
BLACK
6
CONTINUOUS
10
3.08248
20
-1.8583
11
3.08173
21
-1.86592
0
LINE
8
BLACK
6
CONTINUOUS
10
3.08173
20
-1.86592
11
3.08173
21
-5.76413
0
LINE
8
BLACK
6
CONTINUOUS
10
3.08173
20
-5.76413
11
3.08173
21
-5.76439
0
LINE
8
BLACK
6
CONTINUOUS
10
3.08173
20
-5.76439
11
3.08253
21
-5.77201
0
LINE
8
BLACK
6
CONTINUOUS
10
3.08253
20
-5.77201
11
3.08479
21
-5.77931
0
LINE
8
BLACK
6
CONTINUOUS
10
3.08479
20
-5.77931
11
3.08843
21
-5.78603
0
LINE
8
BLACK
6
CONTINUOUS
10
3.08843
20
-5.78603
11
3.0933
21
-5.79193
0
LINE
8
BLACK
6
CONTINUOUS
10
3.0933
20
-5.79193
11
3.09923
21
-5.79676
0
LINE
8
BLACK
6
CONTINUOUS
10
3.09923
20
-5.79676
11
3.10598
21
-5.80035
0
LINE
8
BLACK
6
CONTINUOUS
10
3.10598
20
-5.80035
11
3.1133
21
-5.80256
0
LINE
8
BLACK
6
CONTINUOUS
10
3.1133
20
-5.80256
11
3.12092
21
-5.8033
0
LINE
8
BLACK
6
CONTINUOUS
10
3.12092
20
-5.8033
11
7.05593
21
-5.8033
0
LINE
8
BLACK
6
CONTINUOUS
10
7.05593
20
-5.8033
11
7.05595
21
-5.80331
0
LINE
8
BLACK
6
CONTINUOUS
10
7.05595
20
-5.80331
11
7.05595
21
-5.80331
0
LINE
8
BLACK
6
CONTINUOUS
10
7.05595
20
-5.80331
11
7.08416
21
-5.80607
0
LINE
8
BLACK
6
CONTINUOUS
10
7.08416
20
-5.80607
11
7.08416
21
-5.80607
0
LINE
8
BLACK
6
CONTINUOUS
10
7.08416
20
-5.80607
11
7.08418
21
-5.80608
0
LINE
8
BLACK
6
CONTINUOUS
10
7.08418
20
-5.80608
11
7.0842
21
-5.80608
0
LINE
8
BLACK
6
CONTINUOUS
10
7.0842
20
-5.80608
11
7.11134
21
-5.81428
0
LINE
8
BLACK
6
CONTINUOUS
10
7.11134
20
-5.81428
11
7.11135
21
-5.81428
0
LINE
8
BLACK
6
CONTINUOUS
10
7.11135
20
-5.81428
11
7.11136
21
-5.81428
0
LINE
8
BLACK
6
CONTINUOUS
10
7.11136
20
-5.81428
11
7.11137
21
-5.81429
0
LINE
8
BLACK
6
CONTINUOUS
10
7.11137
20
-5.81429
11
7.12936
21
-5.8232
0
LINE
8
BLACK
6
CONTINUOUS
10
7.12936
20
-5.8232
11
7.12936
21
-5.8232
0
LINE
8
BLACK
6
CONTINUOUS
10
7.12936
20
-5.8232
11
7.98582
21
-6.32409
0
LINE
8
BLACK
6
CONTINUOUS
10
7.98582
20
-6.32409
11
7.98582
21
-6.32409
0
LINE
8
BLACK
6
CONTINUOUS
10
7.98582
20
-6.32409
11
7.98617
21
-6.32429
0
LINE
8
BLACK
6
CONTINUOUS
10
7.98617
20
-6.32429
11
7.99313
21
-6.32741
0
LINE
8
BLACK
6
CONTINUOUS
10
7.99313
20
-6.32741
11
8.00056
21
-6.32911
0
LINE
8
BLACK
6
CONTINUOUS
10
8.00056
20
-6.32911
11
8.00817
21
-6.32934
0
LINE
8
BLACK
6
CONTINUOUS
10
8.00817
20
-6.32934
11
8.01568
21
-6.32808
0
LINE
8
BLACK
6
CONTINUOUS
10
8.01568
20
-6.32808
11
8.02281
21
-6.32539
0
LINE
8
BLACK
6
CONTINUOUS
10
8.02281
20
-6.32539
11
8.02927
21
-6.32136
0
LINE
8
BLACK
6
CONTINUOUS
10
8.02927
20
-6.32136
11
8.03484
21
-6.31616
0
LINE
8
BLACK
6
CONTINUOUS
10
8.03484
20
-6.31616
11
8.03929
21
-6.30997
0
LINE
8
BLACK
6
CONTINUOUS
10
8.03929
20
-6.30997
11
8.81256
21
-4.97621
0
LINE
8
BLACK
6
CONTINUOUS
10
8.81256
20
-4.97621
11
8.81624
21
-4.96851
0
LINE
8
BLACK
6
CONTINUOUS
10
8.81624
20
-4.96851
11
8.82728
21
-4.93642
0
LINE
8
BLACK
6
CONTINUOUS
10
8.82728
20
-4.93642
11
8.83228
21
-4.90286
0
LINE
8
BLACK
6
CONTINUOUS
10
8.83228
20
-4.90286
11
8.83228
21
-1.5479
0
LINE
8
BLACK
6
CONTINUOUS
10
8.83228
20
-1.5479
11
8.83228
21
-1.54764
0
LINE
8
BLACK
6
CONTINUOUS
10
8.83228
20
-1.54764
11
8.83148
21
-1.54003
0
LINE
8
BLACK
6
CONTINUOUS
10
8.83148
20
-1.54003
11
8.82922
21
-1.53273
0
LINE
8
BLACK
6
CONTINUOUS
10
8.82922
20
-1.53273
11
8.82559
21
-1.526
0
LINE
8
BLACK
6
CONTINUOUS
10
8.82559
20
-1.526
11
8.82071
21
-1.52011
0
LINE
8
BLACK
6
CONTINUOUS
10
8.82071
20
-1.52011
11
8.81479
21
-1.51528
0
LINE
8
BLACK
6
CONTINUOUS
10
8.81479
20
-1.51528
11
8.80804
21
-1.51169
0
LINE
8
BLACK
6
CONTINUOUS
10
8.80804
20
-1.51169
11
8.80072
21
-1.50948
0
LINE
8
BLACK
6
CONTINUOUS
10
8.80072
20
-1.50948
11
8.7931
21
-1.50873
0
LINE
8
BLACK
6
CONTINUOUS
10
8.7931
20
-1.50873
11
4.94073
21
-1.50873
0
LINE
8
BLACK
6
CONTINUOUS
10
4.94073
20
-1.50873
11
4.94073
21
-1.50873
0
LINE
8
BLACK
6
CONTINUOUS
10
7.75317
20
-5.27146
11
7.75321
21
-5.27146
0
LINE
8
BLACK
6
CONTINUOUS
10
7.75321
20
-5.27146
11
7.75324
21
-5.27148
0
LINE
8
BLACK
6
CONTINUOUS
10
7.75324
20
-5.27148
11
7.75324
21
-5.27148
0
LINE
8
BLACK
6
CONTINUOUS
10
7.75324
20
-5.27148
11
7.75324
21
-5.27148
0
LINE
8
BLACK
6
CONTINUOUS
10
7.75324
20
-5.27148
11
7.75325
21
-5.27149
0
LINE
8
BLACK
6
CONTINUOUS
10
7.75325
20
-5.27149
11
8.23057
21
-5.54707
0
LINE
8
BLACK
6
CONTINUOUS
10
8.23057
20
-5.54707
11
8.23058
21
-5.54707
0
LINE
8
BLACK
6
CONTINUOUS
10
8.23058
20
-5.54707
11
8.23059
21
-5.54708
0
LINE
8
BLACK
6
CONTINUOUS
10
8.23059
20
-5.54708
11
8.23059
21
-5.54708
0
LINE
8
BLACK
6
CONTINUOUS
10
8.23059
20
-5.54708
11
8.23061
21
-5.54709
0
LINE
8
BLACK
6
CONTINUOUS
10
8.23061
20
-5.54709
11
8.23064
21
-5.54712
0
LINE
8
BLACK
6
CONTINUOUS
10
8.23064
20
-5.54712
11
8.23066
21
-5.54715
0
LINE
8
BLACK
6
CONTINUOUS
10
8.23066
20
-5.54715
11
8.23067
21
-5.54719
0
LINE
8
BLACK
6
CONTINUOUS
10
8.23067
20
-5.54719
11
8.23067
21
-5.54719
0
LINE
8
BLACK
6
CONTINUOUS
10
8.23067
20
-5.54719
11
8.23068
21
-5.54723
0
LINE
8
BLACK
6
CONTINUOUS
10
8.23068
20
-5.54723
11
8.23068
21
-5.54727
0
LINE
8
BLACK
6
CONTINUOUS
10
8.23068
20
-5.54727
11
8.23067
21
-5.54731
0
LINE
8
BLACK
6
CONTINUOUS
10
8.23067
20
-5.54731
11
8.23066
21
-5.54733
0
LINE
8
BLACK
6
CONTINUOUS
10
8.23066
20
-5.54733
11
8.23065
21
-5.54734
0
LINE
8
BLACK
6
CONTINUOUS
10
8.23065
20
-5.54734
11
8.23065
21
-5.54735
0
LINE
8
BLACK
6
CONTINUOUS
10
8.23065
20
-5.54735
11
7.95507
21
-6.02467
0
LINE
8
BLACK
6
CONTINUOUS
10
7.95507
20
-6.02467
11
7.95506
21
-6.02468
0
LINE
8
BLACK
6
CONTINUOUS
10
7.95506
20
-6.02468
11
7.95506
21
-6.02469
0
LINE
8
BLACK
6
CONTINUOUS
10
7.95506
20
-6.02469
11
7.95506
21
-6.02469
0
LINE
8
BLACK
6
CONTINUOUS
10
7.95506
20
-6.02469
11
7.95504
21
-6.02471
0
LINE
8
BLACK
6
CONTINUOUS
10
7.95504
20
-6.02471
11
7.95501
21
-6.02474
0
LINE
8
BLACK
6
CONTINUOUS
10
7.95501
20
-6.02474
11
7.95498
21
-6.02476
0
LINE
8
BLACK
6
CONTINUOUS
10
7.95498
20
-6.02476
11
7.95494
21
-6.02477
0
LINE
8
BLACK
6
CONTINUOUS
10
7.95494
20
-6.02477
11
7.95491
21
-6.02478
0
LINE
8
BLACK
6
CONTINUOUS
10
7.95491
20
-6.02478
11
7.95487
21
-6.02477
0
LINE
8
BLACK
6
CONTINUOUS
10
7.95487
20
-6.02477
11
7.95483
21
-6.02477
0
LINE
8
BLACK
6
CONTINUOUS
10
7.95483
20
-6.02477
11
7.9548
21
-6.02475
0
LINE
8
BLACK
6
CONTINUOUS
10
7.9548
20
-6.02475
11
7.9548
21
-6.02475
0
LINE
8
BLACK
6
CONTINUOUS
10
7.9548
20
-6.02475
11
7.95479
21
-6.02475
0
LINE
8
BLACK
6
CONTINUOUS
10
7.95479
20
-6.02475
11
7.95479
21
-6.02474
0
LINE
8
BLACK
6
CONTINUOUS
10
7.95479
20
-6.02474
11
7.47746
21
-5.74916
0
LINE
8
BLACK
6
CONTINUOUS
10
7.47746
20
-5.74916
11
7.47746
21
-5.74916
0
LINE
8
BLACK
6
CONTINUOUS
10
7.47746
20
-5.74916
11
7.47745
21
-5.74915
0
LINE
8
BLACK
6
CONTINUOUS
10
7.47745
20
-5.74915
11
7.47745
21
-5.74915
0
LINE
8
BLACK
6
CONTINUOUS
10
7.47745
20
-5.74915
11
7.47742
21
-5.74914
0
LINE
8
BLACK
6
CONTINUOUS
10
7.47742
20
-5.74914
11
7.4774
21
-5.74911
0
LINE
8
BLACK
6
CONTINUOUS
10
7.4774
20
-5.74911
11
7.47738
21
-5.74908
0
LINE
8
BLACK
6
CONTINUOUS
10
7.47738
20
-5.74908
11
7.47736
21
-5.74904
0
LINE
8
BLACK
6
CONTINUOUS
10
7.47736
20
-5.74904
11
7.47736
21
-5.749
0
LINE
8
BLACK
6
CONTINUOUS
10
7.47736
20
-5.749
11
7.47736
21
-5.74896
0
LINE
8
BLACK
6
CONTINUOUS
10
7.47736
20
-5.74896
11
7.47737
21
-5.74892
0
LINE
8
BLACK
6
CONTINUOUS
10
7.47737
20
-5.74892
11
7.47738
21
-5.7489
0
LINE
8
BLACK
6
CONTINUOUS
10
7.47738
20
-5.7489
11
7.47738
21
-5.7489
0
LINE
8
BLACK
6
CONTINUOUS
10
7.47738
20
-5.7489
11
7.47738
21
-5.74889
0
LINE
8
BLACK
6
CONTINUOUS
10
7.47738
20
-5.74889
11
7.47739
21
-5.74888
0
LINE
8
BLACK
6
CONTINUOUS
10
7.47739
20
-5.74888
11
7.75297
21
-5.27156
0
LINE
8
BLACK
6
CONTINUOUS
10
7.75297
20
-5.27156
11
7.75297
21
-5.27155
0
LINE
8
BLACK
6
CONTINUOUS
10
7.75297
20
-5.27155
11
7.75298
21
-5.27155
0
LINE
8
BLACK
6
CONTINUOUS
10
7.75298
20
-5.27155
11
7.75298
21
-5.27154
0
LINE
8
BLACK
6
CONTINUOUS
10
7.75298
20
-5.27154
11
7.753
21
-5.27152
0
LINE
8
BLACK
6
CONTINUOUS
10
7.753
20
-5.27152
11
7.75303
21
-5.27149
0
LINE
8
BLACK
6
CONTINUOUS
10
7.75303
20
-5.27149
11
7.75306
21
-5.27147
0
LINE
8
BLACK
6
CONTINUOUS
10
7.75306
20
-5.27147
11
7.75309
21
-5.27146
0
LINE
8
BLACK
6
CONTINUOUS
10
7.75309
20
-5.27146
11
7.75313
21
-5.27145
0
LINE
8
BLACK
6
CONTINUOUS
10
7.75313
20
-5.27145
11
7.75313
21
-5.27145
0
LINE
8
BLACK
6
CONTINUOUS
10
7.75313
20
-5.27145
11
7.75317
21
-5.27146
0
LINE
8
BLACK
6
CONTINUOUS
10
7.47782
20
-5.74892
11
7.95482
21
-6.02431
0
LINE
8
BLACK
6
CONTINUOUS
10
7.95482
20
-6.02431
11
8.23021
21
-5.54731
0
LINE
8
BLACK
6
CONTINUOUS
10
8.23021
20
-5.54731
11
7.75322
21
-5.27192
0
LINE
8
BLACK
6
CONTINUOUS
10
7.75322
20
-5.27192
11
7.47782
21
-5.74892
0
LINE
8
BLACK
6
CONTINUOUS
10
7.25683
20
-5.68572
11
7.25683
21
-5.68572
0
LINE
8
BLACK
6
CONTINUOUS
10
7.25683
20
-5.68572
11
7.25682
21
-5.68572
0
LINE
8
BLACK
6
CONTINUOUS
10
7.25682
20
-5.68572
11
7.25681
21
-5.68572
0
LINE
8
BLACK
6
CONTINUOUS
10
7.25681
20
-5.68572
11
6.72443
21
-5.54306
0
LINE
8
BLACK
6
CONTINUOUS
10
6.72443
20
-5.54306
11
6.72442
21
-5.54306
0
LINE
8
BLACK
6
CONTINUOUS
10
6.72442
20
-5.54306
11
6.72438
21
-5.54305
0
LINE
8
BLACK
6
CONTINUOUS
10
6.72438
20
-5.54305
11
6.72435
21
-5.54303
0
LINE
8
BLACK
6
CONTINUOUS
10
6.72435
20
-5.54303
11
6.72432
21
-5.543
0
LINE
8
BLACK
6
CONTINUOUS
10
6.72432
20
-5.543
11
6.7243
21
-5.54297
0
LINE
8
BLACK
6
CONTINUOUS
10
6.7243
20
-5.54297
11
6.72428
21
-5.54294
0
LINE
8
BLACK
6
CONTINUOUS
10
6.72428
20
-5.54294
11
6.72428
21
-5.5429
0
LINE
8
BLACK
6
CONTINUOUS
10
6.72428
20
-5.5429
11
6.72427
21
-5.54286
0
LINE
8
BLACK
6
CONTINUOUS
10
6.72427
20
-5.54286
11
6.72428
21
-5.54283
0
LINE
8
BLACK
6
CONTINUOUS
10
6.72428
20
-5.54283
11
6.72428
21
-5.54283
0
LINE
8
BLACK
6
CONTINUOUS
10
6.72428
20
-5.54283
11
6.72428
21
-5.54282
0
LINE
8
BLACK
6
CONTINUOUS
10
6.72428
20
-5.54282
11
6.72428
21
-5.54281
0
LINE
8
BLACK
6
CONTINUOUS
10
6.72428
20
-5.54281
11
6.86694
21
-5.01043
0
LINE
8
BLACK
6
CONTINUOUS
10
6.86694
20
-5.01043
11
6.86694
21
-5.01042
0
LINE
8
BLACK
6
CONTINUOUS
10
6.86694
20
-5.01042
11
6.86694
21
-5.01041
0
LINE
8
BLACK
6
CONTINUOUS
10
6.86694
20
-5.01041
11
6.86694
21
-5.01041
0
LINE
8
BLACK
6
CONTINUOUS
10
6.86694
20
-5.01041
11
6.86695
21
-5.01038
0
LINE
8
BLACK
6
CONTINUOUS
10
6.86695
20
-5.01038
11
6.86697
21
-5.01035
0
LINE
8
BLACK
6
CONTINUOUS
10
6.86697
20
-5.01035
11
6.867
21
-5.01032
0
LINE
8
BLACK
6
CONTINUOUS
10
6.867
20
-5.01032
11
6.86703
21
-5.0103
0
LINE
8
BLACK
6
CONTINUOUS
10
6.86703
20
-5.0103
11
6.86706
21
-5.01028
0
LINE
8
BLACK
6
CONTINUOUS
10
6.86706
20
-5.01028
11
6.8671
21
-5.01028
0
LINE
8
BLACK
6
CONTINUOUS
10
6.8671
20
-5.01028
11
6.86714
21
-5.01027
0
LINE
8
BLACK
6
CONTINUOUS
10
6.86714
20
-5.01027
11
6.86718
21
-5.01028
0
LINE
8
BLACK
6
CONTINUOUS
10
6.86718
20
-5.01028
11
6.86719
21
-5.01028
0
LINE
8
BLACK
6
CONTINUOUS
10
6.86719
20
-5.01028
11
7.39957
21
-5.15294
0
LINE
8
BLACK
6
CONTINUOUS
10
7.39957
20
-5.15294
11
7.39958
21
-5.15294
0
LINE
8
BLACK
6
CONTINUOUS
10
7.39958
20
-5.15294
11
7.39959
21
-5.15294
0
LINE
8
BLACK
6
CONTINUOUS
10
7.39959
20
-5.15294
11
7.39959
21
-5.15294
0
LINE
8
BLACK
6
CONTINUOUS
10
7.39959
20
-5.15294
11
7.39962
21
-5.15295
0
LINE
8
BLACK
6
CONTINUOUS
10
7.39962
20
-5.15295
11
7.39965
21
-5.15297
0
LINE
8
BLACK
6
CONTINUOUS
10
7.39965
20
-5.15297
11
7.39968
21
-5.153
0
LINE
8
BLACK
6
CONTINUOUS
10
7.39968
20
-5.153
11
7.3997
21
-5.15303
0
LINE
8
BLACK
6
CONTINUOUS
10
7.3997
20
-5.15303
11
7.39972
21
-5.15306
0
LINE
8
BLACK
6
CONTINUOUS
10
7.39972
20
-5.15306
11
7.39972
21
-5.1531
0
LINE
8
BLACK
6
CONTINUOUS
10
7.39972
20
-5.1531
11
7.39973
21
-5.15314
0
LINE
8
BLACK
6
CONTINUOUS
10
7.39973
20
-5.15314
11
7.39972
21
-5.15318
0
LINE
8
BLACK
6
CONTINUOUS
10
7.39972
20
-5.15318
11
7.39972
21
-5.15319
0
LINE
8
BLACK
6
CONTINUOUS
10
7.39972
20
-5.15319
11
7.25706
21
-5.68557
0
LINE
8
BLACK
6
CONTINUOUS
10
7.25706
20
-5.68557
11
7.25706
21
-5.68558
0
LINE
8
BLACK
6
CONTINUOUS
10
7.25706
20
-5.68558
11
7.25705
21
-5.68562
0
LINE
8
BLACK
6
CONTINUOUS
10
7.25705
20
-5.68562
11
7.25703
21
-5.68565
0
LINE
8
BLACK
6
CONTINUOUS
10
7.25703
20
-5.68565
11
7.257
21
-5.68568
0
LINE
8
BLACK
6
CONTINUOUS
10
7.257
20
-5.68568
11
7.25697
21
-5.6857
0
LINE
8
BLACK
6
CONTINUOUS
10
7.25697
20
-5.6857
11
7.25694
21
-5.68572
0
LINE
8
BLACK
6
CONTINUOUS
10
7.25694
20
-5.68572
11
7.25692
21
-5.68572
0
LINE
8
BLACK
6
CONTINUOUS
10
7.25692
20
-5.68572
11
7.2569
21
-5.68572
0
LINE
8
BLACK
6
CONTINUOUS
10
7.2569
20
-5.68572
11
7.25686
21
-5.68573
0
LINE
8
BLACK
6
CONTINUOUS
10
7.25686
20
-5.68573
11
7.25686
21
-5.68573
0
LINE
8
BLACK
6
CONTINUOUS
10
7.25686
20
-5.68573
11
7.25683
21
-5.68572
0
LINE
8
BLACK
6
CONTINUOUS
10
6.72471
20
-5.54273
11
7.25673
21
-5.68529
0
LINE
8
BLACK
6
CONTINUOUS
10
7.25673
20
-5.68529
11
7.39929
21
-5.15327
0
LINE
8
BLACK
6
CONTINUOUS
10
7.39929
20
-5.15327
11
6.86727
21
-5.01071
0
LINE
8
BLACK
6
CONTINUOUS
10
6.86727
20
-5.01071
11
6.72471
21
-5.54273
0
LINE
8
BLACK
6
CONTINUOUS
10
3.8756
20
-5.01771
11
3.87563
21
-5.01772
0
LINE
8
BLACK
6
CONTINUOUS
10
3.87563
20
-5.01772
11
3.87567
21
-5.01773
0
LINE
8
BLACK
6
CONTINUOUS
10
3.87567
20
-5.01773
11
3.8757
21
-5.01774
0
LINE
8
BLACK
6
CONTINUOUS
10
3.8757
20
-5.01774
11
3.87573
21
-5.01777
0
LINE
8
BLACK
6
CONTINUOUS
10
3.87573
20
-5.01777
11
3.87575
21
-5.0178
0
LINE
8
BLACK
6
CONTINUOUS
10
3.87575
20
-5.0178
11
3.87577
21
-5.01783
0
LINE
8
BLACK
6
CONTINUOUS
10
3.87577
20
-5.01783
11
3.87578
21
-5.01787
0
LINE
8
BLACK
6
CONTINUOUS
10
3.87578
20
-5.01787
11
3.87579
21
-5.01791
0
LINE
8
BLACK
6
CONTINUOUS
10
3.87579
20
-5.01791
11
3.87579
21
-5.01792
0
LINE
8
BLACK
6
CONTINUOUS
10
3.87579
20
-5.01792
11
3.87579
21
-5.56908
0
LINE
8
BLACK
6
CONTINUOUS
10
3.87579
20
-5.56908
11
3.87579
21
-5.56909
0
LINE
8
BLACK
6
CONTINUOUS
10
3.87579
20
-5.56909
11
3.87579
21
-5.5691
0
LINE
8
BLACK
6
CONTINUOUS
10
3.87579
20
-5.5691
11
3.87579
21
-5.5691
0
LINE
8
BLACK
6
CONTINUOUS
10
3.87579
20
-5.5691
11
3.87578
21
-5.56913
0
LINE
8
BLACK
6
CONTINUOUS
10
3.87578
20
-5.56913
11
3.87577
21
-5.56917
0
LINE
8
BLACK
6
CONTINUOUS
10
3.87577
20
-5.56917
11
3.87575
21
-5.5692
0
LINE
8
BLACK
6
CONTINUOUS
10
3.87575
20
-5.5692
11
3.87573
21
-5.56923
0
LINE
8
BLACK
6
CONTINUOUS
10
3.87573
20
-5.56923
11
3.8757
21
-5.56926
0
LINE
8
BLACK
6
CONTINUOUS
10
3.8757
20
-5.56926
11
3.87567
21
-5.56927
0
LINE
8
BLACK
6
CONTINUOUS
10
3.87567
20
-5.56927
11
3.87563
21
-5.56928
0
LINE
8
BLACK
6
CONTINUOUS
10
3.87563
20
-5.56928
11
3.8756
21
-5.56929
0
LINE
8
BLACK
6
CONTINUOUS
10
3.8756
20
-5.56929
11
3.8756
21
-5.56929
0
LINE
8
BLACK
6
CONTINUOUS
10
3.8756
20
-5.56929
11
3.87559
21
-5.56929
0
LINE
8
BLACK
6
CONTINUOUS
10
3.87559
20
-5.56929
11
3.87558
21
-5.56929
0
LINE
8
BLACK
6
CONTINUOUS
10
3.87558
20
-5.56929
11
3.32442
21
-5.56929
0
LINE
8
BLACK
6
CONTINUOUS
10
3.32442
20
-5.56929
11
3.32441
21
-5.56929
0
LINE
8
BLACK
6
CONTINUOUS
10
3.32441
20
-5.56929
11
3.32437
21
-5.56928
0
LINE
8
BLACK
6
CONTINUOUS
10
3.32437
20
-5.56928
11
3.32433
21
-5.56927
0
LINE
8
BLACK
6
CONTINUOUS
10
3.32433
20
-5.56927
11
3.3243
21
-5.56926
0
LINE
8
BLACK
6
CONTINUOUS
10
3.3243
20
-5.56926
11
3.32427
21
-5.56923
0
LINE
8
BLACK
6
CONTINUOUS
10
3.32427
20
-5.56923
11
3.32427
21
-5.56923
0
LINE
8
BLACK
6
CONTINUOUS
10
3.32427
20
-5.56923
11
3.32424
21
-5.5692
0
LINE
8
BLACK
6
CONTINUOUS
10
3.32424
20
-5.5692
11
3.32423
21
-5.56917
0
LINE
8
BLACK
6
CONTINUOUS
10
3.32423
20
-5.56917
11
3.32422
21
-5.56913
0
LINE
8
BLACK
6
CONTINUOUS
10
3.32422
20
-5.56913
11
3.32421
21
-5.56909
0
LINE
8
BLACK
6
CONTINUOUS
10
3.32421
20
-5.56909
11
3.32421
21
-5.56908
0
LINE
8
BLACK
6
CONTINUOUS
10
3.32421
20
-5.56908
11
3.32421
21
-5.01792
0
LINE
8
BLACK
6
CONTINUOUS
10
3.32421
20
-5.01792
11
3.32421
21
-5.01791
0
LINE
8
BLACK
6
CONTINUOUS
10
3.32421
20
-5.01791
11
3.32422
21
-5.01787
0
LINE
8
BLACK
6
CONTINUOUS
10
3.32422
20
-5.01787
11
3.32423
21
-5.01783
0
LINE
8
BLACK
6
CONTINUOUS
10
3.32423
20
-5.01783
11
3.32424
21
-5.0178
0
LINE
8
BLACK
6
CONTINUOUS
10
3.32424
20
-5.0178
11
3.32427
21
-5.01777
0
LINE
8
BLACK
6
CONTINUOUS
10
3.32427
20
-5.01777
11
3.3243
21
-5.01774
0
LINE
8
BLACK
6
CONTINUOUS
10
3.3243
20
-5.01774
11
3.32433
21
-5.01773
0
LINE
8
BLACK
6
CONTINUOUS
10
3.32433
20
-5.01773
11
3.32437
21
-5.01772
0
LINE
8
BLACK
6
CONTINUOUS
10
3.32437
20
-5.01772
11
3.3244
21
-5.01771
0
LINE
8
BLACK
6
CONTINUOUS
10
3.3244
20
-5.01771
11
3.32441
21
-5.01771
0
LINE
8
BLACK
6
CONTINUOUS
10
3.32441
20
-5.01771
11
3.32442
21
-5.01771
0
LINE
8
BLACK
6
CONTINUOUS
10
3.32442
20
-5.01771
11
3.87558
21
-5.01771
0
LINE
8
BLACK
6
CONTINUOUS
10
3.87558
20
-5.01771
11
3.87559
21
-5.01771
0
LINE
8
BLACK
6
CONTINUOUS
10
3.87559
20
-5.01771
11
3.8756
21
-5.01771
0
LINE
8
BLACK
6
CONTINUOUS
10
3.32461
20
-5.01811
11
3.32461
21
-5.56889
0
LINE
8
BLACK
6
CONTINUOUS
10
3.32461
20
-5.56889
11
3.87539
21
-5.56889
0
LINE
8
BLACK
6
CONTINUOUS
10
3.87539
20
-5.56889
11
3.87539
21
-5.01811
0
LINE
8
BLACK
6
CONTINUOUS
10
3.87539
20
-5.01811
11
3.32461
21
-5.01811
0
LINE
8
BLACK
6
CONTINUOUS
10
4.62561
20
-5.01771
11
4.62563
21
-5.01772
0
LINE
8
BLACK
6
CONTINUOUS
10
4.62563
20
-5.01772
11
4.62567
21
-5.01773
0
LINE
8
BLACK
6
CONTINUOUS
10
4.62567
20
-5.01773
11
4.6257
21
-5.01774
0
LINE
8
BLACK
6
CONTINUOUS
10
4.6257
20
-5.01774
11
4.62573
21
-5.01777
0
LINE
8
BLACK
6
CONTINUOUS
10
4.62573
20
-5.01777
11
4.62575
21
-5.0178
0
LINE
8
BLACK
6
CONTINUOUS
10
4.62575
20
-5.0178
11
4.62577
21
-5.01783
0
LINE
8
BLACK
6
CONTINUOUS
10
4.62577
20
-5.01783
11
4.62578
21
-5.01787
0
LINE
8
BLACK
6
CONTINUOUS
10
4.62578
20
-5.01787
11
4.62579
21
-5.01791
0
LINE
8
BLACK
6
CONTINUOUS
10
4.62579
20
-5.01791
11
4.62579
21
-5.01792
0
LINE
8
BLACK
6
CONTINUOUS
10
4.62579
20
-5.01792
11
4.62579
21
-5.56908
0
LINE
8
BLACK
6
CONTINUOUS
10
4.62579
20
-5.56908
11
4.62579
21
-5.56909
0
LINE
8
BLACK
6
CONTINUOUS
10
4.62579
20
-5.56909
11
4.62578
21
-5.56913
0
LINE
8
BLACK
6
CONTINUOUS
10
4.62578
20
-5.56913
11
4.62577
21
-5.56917
0
LINE
8
BLACK
6
CONTINUOUS
10
4.62577
20
-5.56917
11
4.62575
21
-5.5692
0
LINE
8
BLACK
6
CONTINUOUS
10
4.62575
20
-5.5692
11
4.62573
21
-5.56923
0
LINE
8
BLACK
6
CONTINUOUS
10
4.62573
20
-5.56923
11
4.6257
21
-5.56925
0
LINE
8
BLACK
6
CONTINUOUS
10
4.6257
20
-5.56925
11
4.62567
21
-5.56927
0
LINE
8
BLACK
6
CONTINUOUS
10
4.62567
20
-5.56927
11
4.62563
21
-5.56928
0
LINE
8
BLACK
6
CONTINUOUS
10
4.62563
20
-5.56928
11
4.6256
21
-5.56929
0
LINE
8
BLACK
6
CONTINUOUS
10
4.6256
20
-5.56929
11
4.62559
21
-5.56929
0
LINE
8
BLACK
6
CONTINUOUS
10
4.62559
20
-5.56929
11
4.62558
21
-5.56929
0
LINE
8
BLACK
6
CONTINUOUS
10
4.62558
20
-5.56929
11
4.07442
21
-5.56929
0
LINE
8
BLACK
6
CONTINUOUS
10
4.07442
20
-5.56929
11
4.07441
21
-5.56929
0
LINE
8
BLACK
6
CONTINUOUS
10
4.07441
20
-5.56929
11
4.07437
21
-5.56928
0
LINE
8
BLACK
6
CONTINUOUS
10
4.07437
20
-5.56928
11
4.07433
21
-5.56927
0
LINE
8
BLACK
6
CONTINUOUS
10
4.07433
20
-5.56927
11
4.0743
21
-5.56925
0
LINE
8
BLACK
6
CONTINUOUS
10
4.0743
20
-5.56925
11
4.07427
21
-5.56923
0
LINE
8
BLACK
6
CONTINUOUS
10
4.07427
20
-5.56923
11
4.07424
21
-5.5692
0
LINE
8
BLACK
6
CONTINUOUS
10
4.07424
20
-5.5692
11
4.07423
21
-5.56917
0
LINE
8
BLACK
6
CONTINUOUS
10
4.07423
20
-5.56917
11
4.07422
21
-5.56913
0
LINE
8
BLACK
6
CONTINUOUS
10
4.07422
20
-5.56913
11
4.07421
21
-5.56909
0
LINE
8
BLACK
6
CONTINUOUS
10
4.07421
20
-5.56909
11
4.07421
21
-5.56908
0
LINE
8
BLACK
6
CONTINUOUS
10
4.07421
20
-5.56908
11
4.07421
21
-5.01792
0
LINE
8
BLACK
6
CONTINUOUS
10
4.07421
20
-5.01792
11
4.07421
21
-5.01791
0
LINE
8
BLACK
6
CONTINUOUS
10
4.07421
20
-5.01791
11
4.07422
21
-5.01787
0
LINE
8
BLACK
6
CONTINUOUS
10
4.07422
20
-5.01787
11
4.07423
21
-5.01783
0
LINE
8
BLACK
6
CONTINUOUS
10
4.07423
20
-5.01783
11
4.07424
21
-5.0178
0
LINE
8
BLACK
6
CONTINUOUS
10
4.07424
20
-5.0178
11
4.07427
21
-5.01777
0
LINE
8
BLACK
6
CONTINUOUS
10
4.07427
20
-5.01777
11
4.0743
21
-5.01774
0
LINE
8
BLACK
6
CONTINUOUS
10
4.0743
20
-5.01774
11
4.07433
21
-5.01773
0
LINE
8
BLACK
6
CONTINUOUS
10
4.07433
20
-5.01773
11
4.07437
21
-5.01772
0
LINE
8
BLACK
6
CONTINUOUS
10
4.07437
20
-5.01772
11
4.07439
21
-5.01771
0
LINE
8
BLACK
6
CONTINUOUS
10
4.07439
20
-5.01771
11
4.07441
21
-5.01771
0
LINE
8
BLACK
6
CONTINUOUS
10
4.07441
20
-5.01771
11
4.07442
21
-5.01771
0
LINE
8
BLACK
6
CONTINUOUS
10
4.07442
20
-5.01771
11
4.62558
21
-5.01771
0
LINE
8
BLACK
6
CONTINUOUS
10
4.62558
20
-5.01771
11
4.62559
21
-5.01771
0
LINE
8
BLACK
6
CONTINUOUS
10
4.62559
20
-5.01771
11
4.62561
21
-5.01771
0
LINE
8
BLACK
6
CONTINUOUS
10
4.07461
20
-5.01811
11
4.07461
21
-5.56889
0
LINE
8
BLACK
6
CONTINUOUS
10
4.07461
20
-5.56889
11
4.62539
21
-5.56889
0
LINE
8
BLACK
6
CONTINUOUS
10
4.62539
20
-5.56889
11
4.62539
21
-5.01811
0
LINE
8
BLACK
6
CONTINUOUS
10
4.62539
20
-5.01811
11
4.07461
21
-5.01811
0
LINE
8
BLACK
6
CONTINUOUS
10
6.5006
20
-4.99271
11
6.50063
21
-4.99272
0
LINE
8
BLACK
6
CONTINUOUS
10
6.50063
20
-4.99272
11
6.50067
21
-4.99273
0
LINE
8
BLACK
6
CONTINUOUS
10
6.50067
20
-4.99273
11
6.5007
21
-4.99274
0
LINE
8
BLACK
6
CONTINUOUS
10
6.5007
20
-4.99274
11
6.50073
21
-4.99277
0
LINE
8
BLACK
6
CONTINUOUS
10
6.50073
20
-4.99277
11
6.50075
21
-4.9928
0
LINE
8
BLACK
6
CONTINUOUS
10
6.50075
20
-4.9928
11
6.50077
21
-4.99283
0
LINE
8
BLACK
6
CONTINUOUS
10
6.50077
20
-4.99283
11
6.50078
21
-4.99287
0
LINE
8
BLACK
6
CONTINUOUS
10
6.50078
20
-4.99287
11
6.50079
21
-4.99291
0
LINE
8
BLACK
6
CONTINUOUS
10
6.50079
20
-4.99291
11
6.50079
21
-4.99292
0
LINE
8
BLACK
6
CONTINUOUS
10
6.50079
20
-4.99292
11
6.50079
21
-5.54408
0
LINE
8
BLACK
6
CONTINUOUS
10
6.50079
20
-5.54408
11
6.50079
21
-5.54409
0
LINE
8
BLACK
6
CONTINUOUS
10
6.50079
20
-5.54409
11
6.50078
21
-5.54413
0
LINE
8
BLACK
6
CONTINUOUS
10
6.50078
20
-5.54413
11
6.50077
21
-5.54417
0
LINE
8
BLACK
6
CONTINUOUS
10
6.50077
20
-5.54417
11
6.50075
21
-5.5442
0
LINE
8
BLACK
6
CONTINUOUS
10
6.50075
20
-5.5442
11
6.50073
21
-5.54423
0
LINE
8
BLACK
6
CONTINUOUS
10
6.50073
20
-5.54423
11
6.5007
21
-5.54425
0
LINE
8
BLACK
6
CONTINUOUS
10
6.5007
20
-5.54425
11
6.50067
21
-5.54427
0
LINE
8
BLACK
6
CONTINUOUS
10
6.50067
20
-5.54427
11
6.50063
21
-5.54428
0
LINE
8
BLACK
6
CONTINUOUS
10
6.50063
20
-5.54428
11
6.5006
21
-5.54429
0
LINE
8
BLACK
6
CONTINUOUS
10
6.5006
20
-5.54429
11
6.50059
21
-5.54429
0
LINE
8
BLACK
6
CONTINUOUS
10
6.50059
20
-5.54429
11
6.50058
21
-5.54429
0
LINE
8
BLACK
6
CONTINUOUS
10
6.50058
20
-5.54429
11
5.94942
21
-5.54429
0
LINE
8
BLACK
6
CONTINUOUS
10
5.94942
20
-5.54429
11
5.94941
21
-5.54429
0
LINE
8
BLACK
6
CONTINUOUS
10
5.94941
20
-5.54429
11
5.94937
21
-5.54428
0
LINE
8
BLACK
6
CONTINUOUS
10
5.94937
20
-5.54428
11
5.94933
21
-5.54427
0
LINE
8
BLACK
6
CONTINUOUS
10
5.94933
20
-5.54427
11
5.9493
21
-5.54425
0
LINE
8
BLACK
6
CONTINUOUS
10
5.9493
20
-5.54425
11
5.94927
21
-5.54423
0
LINE
8
BLACK
6
CONTINUOUS
10
5.94927
20
-5.54423
11
5.94924
21
-5.5442
0
LINE
8
BLACK
6
CONTINUOUS
10
5.94924
20
-5.5442
11
5.94923
21
-5.54417
0
LINE
8
BLACK
6
CONTINUOUS
10
5.94923
20
-5.54417
11
5.94922
21
-5.54413
0
LINE
8
BLACK
6
CONTINUOUS
10
5.94922
20
-5.54413
11
5.94921
21
-5.54409
0
LINE
8
BLACK
6
CONTINUOUS
10
5.94921
20
-5.54409
11
5.94921
21
-5.54408
0
LINE
8
BLACK
6
CONTINUOUS
10
5.94921
20
-5.54408
11
5.94921
21
-4.99292
0
LINE
8
BLACK
6
CONTINUOUS
10
5.94921
20
-4.99292
11
5.94921
21
-4.99291
0
LINE
8
BLACK
6
CONTINUOUS
10
5.94921
20
-4.99291
11
5.94922
21
-4.99287
0
LINE
8
BLACK
6
CONTINUOUS
10
5.94922
20
-4.99287
11
5.94923
21
-4.99283
0
LINE
8
BLACK
6
CONTINUOUS
10
5.94923
20
-4.99283
11
5.94924
21
-4.9928
0
LINE
8
BLACK
6
CONTINUOUS
10
5.94924
20
-4.9928
11
5.94927
21
-4.99277
0
LINE
8
BLACK
6
CONTINUOUS
10
5.94927
20
-4.99277
11
5.9493
21
-4.99274
0
LINE
8
BLACK
6
CONTINUOUS
10
5.9493
20
-4.99274
11
5.94933
21
-4.99273
0
LINE
8
BLACK
6
CONTINUOUS
10
5.94933
20
-4.99273
11
5.94937
21
-4.99272
0
LINE
8
BLACK
6
CONTINUOUS
10
5.94937
20
-4.99272
11
5.9494
21
-4.99271
0
LINE
8
BLACK
6
CONTINUOUS
10
5.9494
20
-4.99271
11
5.94941
21
-4.99271
0
LINE
8
BLACK
6
CONTINUOUS
10
5.94941
20
-4.99271
11
5.94942
21
-4.99271
0
LINE
8
BLACK
6
CONTINUOUS
10
5.94942
20
-4.99271
11
6.50058
21
-4.99271
0
LINE
8
BLACK
6
CONTINUOUS
10
6.50058
20
-4.99271
11
6.50059
21
-4.99271
0
LINE
8
BLACK
6
CONTINUOUS
10
6.50059
20
-4.99271
11
6.5006
21
-4.99271
0
LINE
8
BLACK
6
CONTINUOUS
10
5.94961
20
-4.99311
11
5.94961
21
-5.54389
0
LINE
8
BLACK
6
CONTINUOUS
10
5.94961
20
-5.54389
11
6.50039
21
-5.54389
0
LINE
8
BLACK
6
CONTINUOUS
10
6.50039
20
-5.54389
11
6.50039
21
-4.99311
0
LINE
8
BLACK
6
CONTINUOUS
10
6.50039
20
-4.99311
11
5.94961
21
-4.99311
0
LINE
8
BLACK
6
CONTINUOUS
10
5.3756
20
-4.81771
11
5.37563
21
-4.81772
0
LINE
8
BLACK
6
CONTINUOUS
10
5.37563
20
-4.81772
11
5.37567
21
-4.81773
0
LINE
8
BLACK
6
CONTINUOUS
10
5.37567
20
-4.81773
11
5.3757
21
-4.81774
0
LINE
8
BLACK
6
CONTINUOUS
10
5.3757
20
-4.81774
11
5.37573
21
-4.81777
0
LINE
8
BLACK
6
CONTINUOUS
10
5.37573
20
-4.81777
11
5.37575
21
-4.8178
0
LINE
8
BLACK
6
CONTINUOUS
10
5.37575
20
-4.8178
11
5.37577
21
-4.81783
0
LINE
8
BLACK
6
CONTINUOUS
10
5.37577
20
-4.81783
11
5.37578
21
-4.81787
0
LINE
8
BLACK
6
CONTINUOUS
10
5.37578
20
-4.81787
11
5.37579
21
-4.81791
0
LINE
8
BLACK
6
CONTINUOUS
10
5.37579
20
-4.81791
11
5.37579
21
-4.81792
0
LINE
8
BLACK
6
CONTINUOUS
10
5.37579
20
-4.81792
11
5.37579
21
-5.36908
0
LINE
8
BLACK
6
CONTINUOUS
10
5.37579
20
-5.36908
11
5.37579
21
-5.36909
0
LINE
8
BLACK
6
CONTINUOUS
10
5.37579
20
-5.36909
11
5.37578
21
-5.36913
0
LINE
8
BLACK
6
CONTINUOUS
10
5.37578
20
-5.36913
11
5.37577
21
-5.36917
0
LINE
8
BLACK
6
CONTINUOUS
10
5.37577
20
-5.36917
11
5.37575
21
-5.3692
0
LINE
8
BLACK
6
CONTINUOUS
10
5.37575
20
-5.3692
11
5.37573
21
-5.36923
0
LINE
8
BLACK
6
CONTINUOUS
10
5.37573
20
-5.36923
11
5.3757
21
-5.36925
0
LINE
8
BLACK
6
CONTINUOUS
10
5.3757
20
-5.36925
11
5.37567
21
-5.36927
0
LINE
8
BLACK
6
CONTINUOUS
10
5.37567
20
-5.36927
11
5.37563
21
-5.36928
0
LINE
8
BLACK
6
CONTINUOUS
10
5.37563
20
-5.36928
11
5.3756
21
-5.36929
0
LINE
8
BLACK
6
CONTINUOUS
10
5.3756
20
-5.36929
11
5.37559
21
-5.36929
0
LINE
8
BLACK
6
CONTINUOUS
10
5.37559
20
-5.36929
11
5.37558
21
-5.36929
0
LINE
8
BLACK
6
CONTINUOUS
10
5.37558
20
-5.36929
11
4.82442
21
-5.36929
0
LINE
8
BLACK
6
CONTINUOUS
10
4.82442
20
-5.36929
11
4.82441
21
-5.36929
0
LINE
8
BLACK
6
CONTINUOUS
10
4.82441
20
-5.36929
11
4.82437
21
-5.36928
0
LINE
8
BLACK
6
CONTINUOUS
10
4.82437
20
-5.36928
11
4.82433
21
-5.36927
0
LINE
8
BLACK
6
CONTINUOUS
10
4.82433
20
-5.36927
11
4.8243
21
-5.36925
0
LINE
8
BLACK
6
CONTINUOUS
10
4.8243
20
-5.36925
11
4.82427
21
-5.36923
0
LINE
8
BLACK
6
CONTINUOUS
10
4.82427
20
-5.36923
11
4.82424
21
-5.3692
0
LINE
8
BLACK
6
CONTINUOUS
10
4.82424
20
-5.3692
11
4.82423
21
-5.36917
0
LINE
8
BLACK
6
CONTINUOUS
10
4.82423
20
-5.36917
11
4.82422
21
-5.36913
0
LINE
8
BLACK
6
CONTINUOUS
10
4.82422
20
-5.36913
11
4.82421
21
-5.36909
0
LINE
8
BLACK
6
CONTINUOUS
10
4.82421
20
-5.36909
11
4.82421
21
-5.36908
0
LINE
8
BLACK
6
CONTINUOUS
10
4.82421
20
-5.36908
11
4.82421
21
-4.81792
0
LINE
8
BLACK
6
CONTINUOUS
10
4.82421
20
-4.81792
11
4.82421
21
-4.81791
0
LINE
8
BLACK
6
CONTINUOUS
10
4.82421
20
-4.81791
11
4.82422
21
-4.81787
0
LINE
8
BLACK
6
CONTINUOUS
10
4.82422
20
-4.81787
11
4.82423
21
-4.81783
0
LINE
8
BLACK
6
CONTINUOUS
10
4.82423
20
-4.81783
11
4.82424
21
-4.8178
0
LINE
8
BLACK
6
CONTINUOUS
10
4.82424
20
-4.8178
11
4.82427
21
-4.81777
0
LINE
8
BLACK
6
CONTINUOUS
10
4.82427
20
-4.81777
11
4.8243
21
-4.81774
0
LINE
8
BLACK
6
CONTINUOUS
10
4.8243
20
-4.81774
11
4.82433
21
-4.81773
0
LINE
8
BLACK
6
CONTINUOUS
10
4.82433
20
-4.81773
11
4.82437
21
-4.81772
0
LINE
8
BLACK
6
CONTINUOUS
10
4.82437
20
-4.81772
11
4.8244
21
-4.81771
0
LINE
8
BLACK
6
CONTINUOUS
10
4.8244
20
-4.81771
11
4.82441
21
-4.81771
0
LINE
8
BLACK
6
CONTINUOUS
10
4.82441
20
-4.81771
11
4.82442
21
-4.81771
0
LINE
8
BLACK
6
CONTINUOUS
10
4.82442
20
-4.81771
11
5.37558
21
-4.81771
0
LINE
8
BLACK
6
CONTINUOUS
10
5.37558
20
-4.81771
11
5.37559
21
-4.81771
0
LINE
8
BLACK
6
CONTINUOUS
10
5.37559
20
-4.81771
11
5.3756
21
-4.81771
0
LINE
8
BLACK
6
CONTINUOUS
10
4.82461
20
-4.81811
11
4.82461
21
-5.36889
0
LINE
8
BLACK
6
CONTINUOUS
10
4.82461
20
-5.36889
11
5.37539
21
-5.36889
0
LINE
8
BLACK
6
CONTINUOUS
10
5.37539
20
-5.36889
11
5.37539
21
-4.81811
0
LINE
8
BLACK
6
CONTINUOUS
10
5.37539
20
-4.81811
11
4.82461
21
-4.81811
0
LINE
8
BLACK
6
CONTINUOUS
10
8.31211
20
-5.32524
11
8.31208
21
-5.32522
0
LINE
8
BLACK
6
CONTINUOUS
10
8.31208
20
-5.32522
11
8.31208
21
-5.32522
0
LINE
8
BLACK
6
CONTINUOUS
10
8.31208
20
-5.32522
11
8.31207
21
-5.32522
0
LINE
8
BLACK
6
CONTINUOUS
10
8.31207
20
-5.32522
11
8.31206
21
-5.32521
0
LINE
8
BLACK
6
CONTINUOUS
10
8.31206
20
-5.32521
11
7.90464
21
-5.08999
0
LINE
8
BLACK
6
CONTINUOUS
10
7.90464
20
-5.08999
11
7.90463
21
-5.08998
0
LINE
8
BLACK
6
CONTINUOUS
10
7.90463
20
-5.08998
11
7.90462
21
-5.08998
0
LINE
8
BLACK
6
CONTINUOUS
10
7.90462
20
-5.08998
11
7.90462
21
-5.08998
0
LINE
8
BLACK
6
CONTINUOUS
10
7.90462
20
-5.08998
11
7.9046
21
-5.08996
0
LINE
8
BLACK
6
CONTINUOUS
10
7.9046
20
-5.08996
11
7.90457
21
-5.08993
0
LINE
8
BLACK
6
CONTINUOUS
10
7.90457
20
-5.08993
11
7.90455
21
-5.0899
0
LINE
8
BLACK
6
CONTINUOUS
10
7.90455
20
-5.0899
11
7.90454
21
-5.08986
0
LINE
8
BLACK
6
CONTINUOUS
10
7.90454
20
-5.08986
11
7.90453
21
-5.08983
0
LINE
8
BLACK
6
CONTINUOUS
10
7.90453
20
-5.08983
11
7.90453
21
-5.08979
0
LINE
8
BLACK
6
CONTINUOUS
10
7.90453
20
-5.08979
11
7.90454
21
-5.08975
0
LINE
8
BLACK
6
CONTINUOUS
10
7.90454
20
-5.08975
11
7.90455
21
-5.08972
0
LINE
8
BLACK
6
CONTINUOUS
10
7.90455
20
-5.08972
11
7.90455
21
-5.08972
0
LINE
8
BLACK
6
CONTINUOUS
10
7.90455
20
-5.08972
11
7.90456
21
-5.08971
0
LINE
8
BLACK
6
CONTINUOUS
10
7.90456
20
-5.08971
11
7.90456
21
-5.08971
0
LINE
8
BLACK
6
CONTINUOUS
10
7.90456
20
-5.08971
11
8.14569
21
-4.67205
0
LINE
8
BLACK
6
CONTINUOUS
10
8.14569
20
-4.67205
11
8.1457
21
-4.67204
0
LINE
8
BLACK
6
CONTINUOUS
10
8.1457
20
-4.67204
11
8.1457
21
-4.67204
0
LINE
8
BLACK
6
CONTINUOUS
10
8.1457
20
-4.67204
11
8.1457
21
-4.67204
0
LINE
8
BLACK
6
CONTINUOUS
10
8.1457
20
-4.67204
11
8.14572
21
-4.67201
0
LINE
8
BLACK
6
CONTINUOUS
10
8.14572
20
-4.67201
11
8.14575
21
-4.67199
0
LINE
8
BLACK
6
CONTINUOUS
10
8.14575
20
-4.67199
11
8.14578
21
-4.67197
0
LINE
8
BLACK
6
CONTINUOUS
10
8.14578
20
-4.67197
11
8.14582
21
-4.67195
0
LINE
8
BLACK
6
CONTINUOUS
10
8.14582
20
-4.67195
11
8.14586
21
-4.67195
0
LINE
8
BLACK
6
CONTINUOUS
10
8.14586
20
-4.67195
11
8.1459
21
-4.67195
0
LINE
8
BLACK
6
CONTINUOUS
10
8.1459
20
-4.67195
11
8.14593
21
-4.67196
0
LINE
8
BLACK
6
CONTINUOUS
10
8.14593
20
-4.67196
11
8.14597
21
-4.67197
0
LINE
8
BLACK
6
CONTINUOUS
10
8.14597
20
-4.67197
11
8.14598
21
-4.67198
0
LINE
8
BLACK
6
CONTINUOUS
10
8.14598
20
-4.67198
11
8.5534
21
-4.9072
0
LINE
8
BLACK
6
CONTINUOUS
10
8.5534
20
-4.9072
11
8.55341
21
-4.90721
0
LINE
8
BLACK
6
CONTINUOUS
10
8.55341
20
-4.90721
11
8.55342
21
-4.90721
0
LINE
8
BLACK
6
CONTINUOUS
10
8.55342
20
-4.90721
11
8.55342
21
-4.90721
0
LINE
8
BLACK
6
CONTINUOUS
10
8.55342
20
-4.90721
11
8.55344
21
-4.90723
0
LINE
8
BLACK
6
CONTINUOUS
10
8.55344
20
-4.90723
11
8.55347
21
-4.90726
0
LINE
8
BLACK
6
CONTINUOUS
10
8.55347
20
-4.90726
11
8.55349
21
-4.90729
0
LINE
8
BLACK
6
CONTINUOUS
10
8.55349
20
-4.90729
11
8.55349
21
-4.90729
0
LINE
8
BLACK
6
CONTINUOUS
10
8.55349
20
-4.90729
11
8.5535
21
-4.90733
0
LINE
8
BLACK
6
CONTINUOUS
10
8.5535
20
-4.90733
11
8.55351
21
-4.90737
0
LINE
8
BLACK
6
CONTINUOUS
10
8.55351
20
-4.90737
11
8.55351
21
-4.9074
0
LINE
8
BLACK
6
CONTINUOUS
10
8.55351
20
-4.9074
11
8.5535
21
-4.90744
0
LINE
8
BLACK
6
CONTINUOUS
10
8.5535
20
-4.90744
11
8.55349
21
-4.90747
0
LINE
8
BLACK
6
CONTINUOUS
10
8.55349
20
-4.90747
11
8.55349
21
-4.90747
0
LINE
8
BLACK
6
CONTINUOUS
10
8.55349
20
-4.90747
11
8.55348
21
-4.90748
0
LINE
8
BLACK
6
CONTINUOUS
10
8.55348
20
-4.90748
11
8.55348
21
-4.90749
0
LINE
8
BLACK
6
CONTINUOUS
10
8.55348
20
-4.90749
11
8.31234
21
-5.32514
0
LINE
8
BLACK
6
CONTINUOUS
10
8.31234
20
-5.32514
11
8.31234
21
-5.32515
0
LINE
8
BLACK
6
CONTINUOUS
10
8.31234
20
-5.32515
11
8.31233
21
-5.32516
0
LINE
8
BLACK
6
CONTINUOUS
10
8.31233
20
-5.32516
11
8.31233
21
-5.32516
0
LINE
8
BLACK
6
CONTINUOUS
10
8.31233
20
-5.32516
11
8.31232
21
-5.32517
0
LINE
8
BLACK
6
CONTINUOUS
10
8.31232
20
-5.32517
11
8.31232
21
-5.32518
0
LINE
8
BLACK
6
CONTINUOUS
10
8.31232
20
-5.32518
11
8.31229
21
-5.32521
0
LINE
8
BLACK
6
CONTINUOUS
10
8.31229
20
-5.32521
11
8.31226
21
-5.32523
0
LINE
8
BLACK
6
CONTINUOUS
10
8.31226
20
-5.32523
11
8.31222
21
-5.32524
0
LINE
8
BLACK
6
CONTINUOUS
10
8.31222
20
-5.32524
11
8.31218
21
-5.32525
0
LINE
8
BLACK
6
CONTINUOUS
10
8.31218
20
-5.32525
11
8.31214
21
-5.32524
0
LINE
8
BLACK
6
CONTINUOUS
10
8.31214
20
-5.32524
11
8.31211
21
-5.32524
0
LINE
8
BLACK
6
CONTINUOUS
10
7.905
20
-5.08974
11
8.3121
21
-5.32478
0
LINE
8
BLACK
6
CONTINUOUS
10
8.3121
20
-5.32478
11
8.55304
21
-4.90745
0
LINE
8
BLACK
6
CONTINUOUS
10
8.55304
20
-4.90745
11
8.14594
21
-4.67241
0
LINE
8
BLACK
6
CONTINUOUS
10
8.14594
20
-4.67241
11
7.905
21
-5.08974
0
LINE
8
BLACK
6
CONTINUOUS
10
3.8756
20
-4.26771
11
3.87563
21
-4.26772
0
LINE
8
BLACK
6
CONTINUOUS
10
3.87563
20
-4.26772
11
3.87567
21
-4.26773
0
LINE
8
BLACK
6
CONTINUOUS
10
3.87567
20
-4.26773
11
3.8757
21
-4.26774
0
LINE
8
BLACK
6
CONTINUOUS
10
3.8757
20
-4.26774
11
3.87573
21
-4.26777
0
LINE
8
BLACK
6
CONTINUOUS
10
3.87573
20
-4.26777
11
3.87575
21
-4.2678
0
LINE
8
BLACK
6
CONTINUOUS
10
3.87575
20
-4.2678
11
3.87577
21
-4.26783
0
LINE
8
BLACK
6
CONTINUOUS
10
3.87577
20
-4.26783
11
3.87578
21
-4.26787
0
LINE
8
BLACK
6
CONTINUOUS
10
3.87578
20
-4.26787
11
3.87579
21
-4.26791
0
LINE
8
BLACK
6
CONTINUOUS
10
3.87579
20
-4.26791
11
3.87579
21
-4.26792
0
LINE
8
BLACK
6
CONTINUOUS
10
3.87579
20
-4.26792
11
3.87579
21
-4.81908
0
LINE
8
BLACK
6
CONTINUOUS
10
3.87579
20
-4.81908
11
3.87579
21
-4.81909
0
LINE
8
BLACK
6
CONTINUOUS
10
3.87579
20
-4.81909
11
3.87579
21
-4.8191
0
LINE
8
BLACK
6
CONTINUOUS
10
3.87579
20
-4.8191
11
3.87579
21
-4.8191
0
LINE
8
BLACK
6
CONTINUOUS
10
3.87579
20
-4.8191
11
3.87578
21
-4.81913
0
LINE
8
BLACK
6
CONTINUOUS
10
3.87578
20
-4.81913
11
3.87577
21
-4.81917
0
LINE
8
BLACK
6
CONTINUOUS
10
3.87577
20
-4.81917
11
3.87575
21
-4.8192
0
LINE
8
BLACK
6
CONTINUOUS
10
3.87575
20
-4.8192
11
3.87573
21
-4.81923
0
LINE
8
BLACK
6
CONTINUOUS
10
3.87573
20
-4.81923
11
3.8757
21
-4.81925
0
LINE
8
BLACK
6
CONTINUOUS
10
3.8757
20
-4.81925
11
3.87567
21
-4.81927
0
LINE
8
BLACK
6
CONTINUOUS
10
3.87567
20
-4.81927
11
3.87563
21
-4.81928
0
LINE
8
BLACK
6
CONTINUOUS
10
3.87563
20
-4.81928
11
3.8756
21
-4.81929
0
LINE
8
BLACK
6
CONTINUOUS
10
3.8756
20
-4.81929
11
3.8756
21
-4.81929
0
LINE
8
BLACK
6
CONTINUOUS
10
3.8756
20
-4.81929
11
3.87559
21
-4.81929
0
LINE
8
BLACK
6
CONTINUOUS
10
3.87559
20
-4.81929
11
3.87558
21
-4.81929
0
LINE
8
BLACK
6
CONTINUOUS
10
3.87558
20
-4.81929
11
3.32442
21
-4.81929
0
LINE
8
BLACK
6
CONTINUOUS
10
3.32442
20
-4.81929
11
3.32441
21
-4.81929
0
LINE
8
BLACK
6
CONTINUOUS
10
3.32441
20
-4.81929
11
3.32437
21
-4.81928
0
LINE
8
BLACK
6
CONTINUOUS
10
3.32437
20
-4.81928
11
3.32433
21
-4.81927
0
LINE
8
BLACK
6
CONTINUOUS
10
3.32433
20
-4.81927
11
3.3243
21
-4.81925
0
LINE
8
BLACK
6
CONTINUOUS
10
3.3243
20
-4.81925
11
3.32427
21
-4.81923
0
LINE
8
BLACK
6
CONTINUOUS
10
3.32427
20
-4.81923
11
3.32427
21
-4.81923
0
LINE
8
BLACK
6
CONTINUOUS
10
3.32427
20
-4.81923
11
3.32424
21
-4.8192
0
LINE
8
BLACK
6
CONTINUOUS
10
3.32424
20
-4.8192
11
3.32423
21
-4.81917
0
LINE
8
BLACK
6
CONTINUOUS
10
3.32423
20
-4.81917
11
3.32422
21
-4.81913
0
LINE
8
BLACK
6
CONTINUOUS
10
3.32422
20
-4.81913
11
3.32421
21
-4.81909
0
LINE
8
BLACK
6
CONTINUOUS
10
3.32421
20
-4.81909
11
3.32421
21
-4.81908
0
LINE
8
BLACK
6
CONTINUOUS
10
3.32421
20
-4.81908
11
3.32421
21
-4.26792
0
LINE
8
BLACK
6
CONTINUOUS
10
3.32421
20
-4.26792
11
3.32421
21
-4.26791
0
LINE
8
BLACK
6
CONTINUOUS
10
3.32421
20
-4.26791
11
3.32422
21
-4.26787
0
LINE
8
BLACK
6
CONTINUOUS
10
3.32422
20
-4.26787
11
3.32423
21
-4.26783
0
LINE
8
BLACK
6
CONTINUOUS
10
3.32423
20
-4.26783
11
3.32424
21
-4.2678
0
LINE
8
BLACK
6
CONTINUOUS
10
3.32424
20
-4.2678
11
3.32427
21
-4.26777
0
LINE
8
BLACK
6
CONTINUOUS
10
3.32427
20
-4.26777
11
3.3243
21
-4.26774
0
LINE
8
BLACK
6
CONTINUOUS
10
3.3243
20
-4.26774
11
3.32433
21
-4.26773
0
LINE
8
BLACK
6
CONTINUOUS
10
3.32433
20
-4.26773
11
3.32437
21
-4.26772
0
LINE
8
BLACK
6
CONTINUOUS
10
3.32437
20
-4.26772
11
3.3244
21
-4.26771
0
LINE
8
BLACK
6
CONTINUOUS
10
3.3244
20
-4.26771
11
3.32441
21
-4.26771
0
LINE
8
BLACK
6
CONTINUOUS
10
3.32441
20
-4.26771
11
3.32442
21
-4.26771
0
LINE
8
BLACK
6
CONTINUOUS
10
3.32442
20
-4.26771
11
3.87558
21
-4.26771
0
LINE
8
BLACK
6
CONTINUOUS
10
3.87558
20
-4.26771
11
3.87559
21
-4.26771
0
LINE
8
BLACK
6
CONTINUOUS
10
3.87559
20
-4.26771
11
3.8756
21
-4.26771
0
LINE
8
BLACK
6
CONTINUOUS
10
3.32461
20
-4.26811
11
3.32461
21
-4.81889
0
LINE
8
BLACK
6
CONTINUOUS
10
3.32461
20
-4.81889
11
3.87539
21
-4.81889
0
LINE
8
BLACK
6
CONTINUOUS
10
3.87539
20
-4.81889
11
3.87539
21
-4.26811
0
LINE
8
BLACK
6
CONTINUOUS
10
3.87539
20
-4.26811
11
3.32461
21
-4.26811
0
LINE
8
BLACK
6
CONTINUOUS
10
4.6256
20
-4.26771
11
4.62563
21
-4.26772
0
LINE
8
BLACK
6
CONTINUOUS
10
4.62563
20
-4.26772
11
4.62567
21
-4.26773
0
LINE
8
BLACK
6
CONTINUOUS
10
4.62567
20
-4.26773
11
4.6257
21
-4.26774
0
LINE
8
BLACK
6
CONTINUOUS
10
4.6257
20
-4.26774
11
4.62573
21
-4.26777
0
LINE
8
BLACK
6
CONTINUOUS
10
4.62573
20
-4.26777
11
4.62575
21
-4.2678
0
LINE
8
BLACK
6
CONTINUOUS
10
4.62575
20
-4.2678
11
4.62577
21
-4.26783
0
LINE
8
BLACK
6
CONTINUOUS
10
4.62577
20
-4.26783
11
4.62578
21
-4.26787
0
LINE
8
BLACK
6
CONTINUOUS
10
4.62578
20
-4.26787
11
4.62579
21
-4.26791
0
LINE
8
BLACK
6
CONTINUOUS
10
4.62579
20
-4.26791
11
4.62579
21
-4.26792
0
LINE
8
BLACK
6
CONTINUOUS
10
4.62579
20
-4.26792
11
4.62579
21
-4.81908
0
LINE
8
BLACK
6
CONTINUOUS
10
4.62579
20
-4.81908
11
4.62579
21
-4.81909
0
LINE
8
BLACK
6
CONTINUOUS
10
4.62579
20
-4.81909
11
4.62578
21
-4.81913
0
LINE
8
BLACK
6
CONTINUOUS
10
4.62578
20
-4.81913
11
4.62577
21
-4.81917
0
LINE
8
BLACK
6
CONTINUOUS
10
4.62577
20
-4.81917
11
4.62575
21
-4.8192
0
LINE
8
BLACK
6
CONTINUOUS
10
4.62575
20
-4.8192
11
4.62573
21
-4.81923
0
LINE
8
BLACK
6
CONTINUOUS
10
4.62573
20
-4.81923
11
4.6257
21
-4.81925
0
LINE
8
BLACK
6
CONTINUOUS
10
4.6257
20
-4.81925
11
4.62567
21
-4.81927
0
LINE
8
BLACK
6
CONTINUOUS
10
4.62567
20
-4.81927
11
4.62563
21
-4.81928
0
LINE
8
BLACK
6
CONTINUOUS
10
4.62563
20
-4.81928
11
4.6256
21
-4.81929
0
LINE
8
BLACK
6
CONTINUOUS
10
4.6256
20
-4.81929
11
4.62559
21
-4.81929
0
LINE
8
BLACK
6
CONTINUOUS
10
4.62559
20
-4.81929
11
4.62558
21
-4.81929
0
LINE
8
BLACK
6
CONTINUOUS
10
4.62558
20
-4.81929
11
4.07442
21
-4.81929
0
LINE
8
BLACK
6
CONTINUOUS
10
4.07442
20
-4.81929
11
4.07441
21
-4.81929
0
LINE
8
BLACK
6
CONTINUOUS
10
4.07441
20
-4.81929
11
4.07437
21
-4.81928
0
LINE
8
BLACK
6
CONTINUOUS
10
4.07437
20
-4.81928
11
4.07433
21
-4.81927
0
LINE
8
BLACK
6
CONTINUOUS
10
4.07433
20
-4.81927
11
4.0743
21
-4.81925
0
LINE
8
BLACK
6
CONTINUOUS
10
4.0743
20
-4.81925
11
4.07427
21
-4.81923
0
LINE
8
BLACK
6
CONTINUOUS
10
4.07427
20
-4.81923
11
4.07425
21
-4.8192
0
LINE
8
BLACK
6
CONTINUOUS
10
4.07425
20
-4.8192
11
4.07424
21
-4.8192
0
LINE
8
BLACK
6
CONTINUOUS
10
4.07424
20
-4.8192
11
4.07423
21
-4.81917
0
LINE
8
BLACK
6
CONTINUOUS
10
4.07423
20
-4.81917
11
4.07422
21
-4.81913
0
LINE
8
BLACK
6
CONTINUOUS
10
4.07422
20
-4.81913
11
4.07421
21
-4.81909
0
LINE
8
BLACK
6
CONTINUOUS
10
4.07421
20
-4.81909
11
4.07421
21
-4.81908
0
LINE
8
BLACK
6
CONTINUOUS
10
4.07421
20
-4.81908
11
4.07421
21
-4.26792
0
LINE
8
BLACK
6
CONTINUOUS
10
4.07421
20
-4.26792
11
4.07421
21
-4.26791
0
LINE
8
BLACK
6
CONTINUOUS
10
4.07421
20
-4.26791
11
4.07422
21
-4.26787
0
LINE
8
BLACK
6
CONTINUOUS
10
4.07422
20
-4.26787
11
4.07423
21
-4.26783
0
LINE
8
BLACK
6
CONTINUOUS
10
4.07423
20
-4.26783
11
4.07424
21
-4.2678
0
LINE
8
BLACK
6
CONTINUOUS
10
4.07424
20
-4.2678
11
4.07427
21
-4.26777
0
LINE
8
BLACK
6
CONTINUOUS
10
4.07427
20
-4.26777
11
4.0743
21
-4.26774
0
LINE
8
BLACK
6
CONTINUOUS
10
4.0743
20
-4.26774
11
4.07433
21
-4.26773
0
LINE
8
BLACK
6
CONTINUOUS
10
4.07433
20
-4.26773
11
4.07437
21
-4.26772
0
LINE
8
BLACK
6
CONTINUOUS
10
4.07437
20
-4.26772
11
4.0744
21
-4.26771
0
LINE
8
BLACK
6
CONTINUOUS
10
4.0744
20
-4.26771
11
4.07441
21
-4.26771
0
LINE
8
BLACK
6
CONTINUOUS
10
4.07441
20
-4.26771
11
4.07442
21
-4.26771
0
LINE
8
BLACK
6
CONTINUOUS
10
4.07442
20
-4.26771
11
4.62558
21
-4.26771
0
LINE
8
BLACK
6
CONTINUOUS
10
4.62558
20
-4.26771
11
4.62559
21
-4.26771
0
LINE
8
BLACK
6
CONTINUOUS
10
4.62559
20
-4.26771
11
4.6256
21
-4.26771
0
LINE
8
BLACK
6
CONTINUOUS
10
4.07461
20
-4.26811
11
4.07461
21
-4.81889
0
LINE
8
BLACK
6
CONTINUOUS
10
4.07461
20
-4.81889
11
4.62539
21
-4.81889
0
LINE
8
BLACK
6
CONTINUOUS
10
4.62539
20
-4.81889
11
4.62539
21
-4.26811
0
LINE
8
BLACK
6
CONTINUOUS
10
4.62539
20
-4.26811
11
4.07461
21
-4.26811
0
LINE
8
BLACK
6
CONTINUOUS
10
7.6256
20
-4.11771
11
7.62563
21
-4.11772
0
LINE
8
BLACK
6
CONTINUOUS
10
7.62563
20
-4.11772
11
7.62567
21
-4.11773
0
LINE
8
BLACK
6
CONTINUOUS
10
7.62567
20
-4.11773
11
7.6257
21
-4.11774
0
LINE
8
BLACK
6
CONTINUOUS
10
7.6257
20
-4.11774
11
7.62573
21
-4.11777
0
LINE
8
BLACK
6
CONTINUOUS
10
7.62573
20
-4.11777
11
7.62575
21
-4.1178
0
LINE
8
BLACK
6
CONTINUOUS
10
7.62575
20
-4.1178
11
7.62577
21
-4.11783
0
LINE
8
BLACK
6
CONTINUOUS
10
7.62577
20
-4.11783
11
7.62578
21
-4.11787
0
LINE
8
BLACK
6
CONTINUOUS
10
7.62578
20
-4.11787
11
7.62579
21
-4.11791
0
LINE
8
BLACK
6
CONTINUOUS
10
7.62579
20
-4.11791
11
7.62579
21
-4.11792
0
LINE
8
BLACK
6
CONTINUOUS
10
7.62579
20
-4.11792
11
7.62579
21
-4.66908
0
LINE
8
BLACK
6
CONTINUOUS
10
7.62579
20
-4.66908
11
7.62579
21
-4.66909
0
LINE
8
BLACK
6
CONTINUOUS
10
7.62579
20
-4.66909
11
7.62578
21
-4.66913
0
LINE
8
BLACK
6
CONTINUOUS
10
7.62578
20
-4.66913
11
7.62577
21
-4.66917
0
LINE
8
BLACK
6
CONTINUOUS
10
7.62577
20
-4.66917
11
7.62575
21
-4.6692
0
LINE
8
BLACK
6
CONTINUOUS
10
7.62575
20
-4.6692
11
7.62573
21
-4.66923
0
LINE
8
BLACK
6
CONTINUOUS
10
7.62573
20
-4.66923
11
7.6257
21
-4.66925
0
LINE
8
BLACK
6
CONTINUOUS
10
7.6257
20
-4.66925
11
7.62567
21
-4.66927
0
LINE
8
BLACK
6
CONTINUOUS
10
7.62567
20
-4.66927
11
7.62563
21
-4.66928
0
LINE
8
BLACK
6
CONTINUOUS
10
7.62563
20
-4.66928
11
7.6256
21
-4.66929
0
LINE
8
BLACK
6
CONTINUOUS
10
7.6256
20
-4.66929
11
7.62559
21
-4.66929
0
LINE
8
BLACK
6
CONTINUOUS
10
7.62559
20
-4.66929
11
7.62558
21
-4.66929
0
LINE
8
BLACK
6
CONTINUOUS
10
7.62558
20
-4.66929
11
7.07442
21
-4.66929
0
LINE
8
BLACK
6
CONTINUOUS
10
7.07442
20
-4.66929
11
7.07441
21
-4.66929
0
LINE
8
BLACK
6
CONTINUOUS
10
7.07441
20
-4.66929
11
7.07437
21
-4.66928
0
LINE
8
BLACK
6
CONTINUOUS
10
7.07437
20
-4.66928
11
7.07433
21
-4.66927
0
LINE
8
BLACK
6
CONTINUOUS
10
7.07433
20
-4.66927
11
7.0743
21
-4.66925
0
LINE
8
BLACK
6
CONTINUOUS
10
7.0743
20
-4.66925
11
7.07427
21
-4.66923
0
LINE
8
BLACK
6
CONTINUOUS
10
7.07427
20
-4.66923
11
7.07424
21
-4.6692
0
LINE
8
BLACK
6
CONTINUOUS
10
7.07424
20
-4.6692
11
7.07423
21
-4.66917
0
LINE
8
BLACK
6
CONTINUOUS
10
7.07423
20
-4.66917
11
7.07422
21
-4.66913
0
LINE
8
BLACK
6
CONTINUOUS
10
7.07422
20
-4.66913
11
7.07421
21
-4.66909
0
LINE
8
BLACK
6
CONTINUOUS
10
7.07421
20
-4.66909
11
7.07421
21
-4.66908
0
LINE
8
BLACK
6
CONTINUOUS
10
7.07421
20
-4.66908
11
7.07421
21
-4.11792
0
LINE
8
BLACK
6
CONTINUOUS
10
7.07421
20
-4.11792
11
7.07421
21
-4.11791
0
LINE
8
BLACK
6
CONTINUOUS
10
7.07421
20
-4.11791
11
7.07422
21
-4.11787
0
LINE
8
BLACK
6
CONTINUOUS
10
7.07422
20
-4.11787
11
7.07423
21
-4.11783
0
LINE
8
BLACK
6
CONTINUOUS
10
7.07423
20
-4.11783
11
7.07424
21
-4.1178
0
LINE
8
BLACK
6
CONTINUOUS
10
7.07424
20
-4.1178
11
7.07427
21
-4.11777
0
LINE
8
BLACK
6
CONTINUOUS
10
7.07427
20
-4.11777
11
7.0743
21
-4.11774
0
LINE
8
BLACK
6
CONTINUOUS
10
7.0743
20
-4.11774
11
7.07433
21
-4.11773
0
LINE
8
BLACK
6
CONTINUOUS
10
7.07433
20
-4.11773
11
7.07437
21
-4.11772
0
LINE
8
BLACK
6
CONTINUOUS
10
7.07437
20
-4.11772
11
7.0744
21
-4.11771
0
LINE
8
BLACK
6
CONTINUOUS
10
7.0744
20
-4.11771
11
7.07441
21
-4.11771
0
LINE
8
BLACK
6
CONTINUOUS
10
7.07441
20
-4.11771
11
7.07442
21
-4.11771
0
LINE
8
BLACK
6
CONTINUOUS
10
7.07442
20
-4.11771
11
7.62558
21
-4.11771
0
LINE
8
BLACK
6
CONTINUOUS
10
7.62558
20
-4.11771
11
7.62559
21
-4.11771
0
LINE
8
BLACK
6
CONTINUOUS
10
7.62559
20
-4.11771
11
7.6256
21
-4.11771
0
LINE
8
BLACK
6
CONTINUOUS
10
7.07461
20
-4.11811
11
7.07461
21
-4.66889
0
LINE
8
BLACK
6
CONTINUOUS
10
7.07461
20
-4.66889
11
7.62539
21
-4.66889
0
LINE
8
BLACK
6
CONTINUOUS
10
7.62539
20
-4.66889
11
7.62539
21
-4.11811
0
LINE
8
BLACK
6
CONTINUOUS
10
7.62539
20
-4.11811
11
7.07461
21
-4.11811
0
LINE
8
BLACK
6
CONTINUOUS
10
5.3756
20
-4.06771
11
5.37563
21
-4.06772
0
LINE
8
BLACK
6
CONTINUOUS
10
5.37563
20
-4.06772
11
5.37567
21
-4.06773
0
LINE
8
BLACK
6
CONTINUOUS
10
5.37567
20
-4.06773
11
5.3757
21
-4.06774
0
LINE
8
BLACK
6
CONTINUOUS
10
5.3757
20
-4.06774
11
5.37573
21
-4.06777
0
LINE
8
BLACK
6
CONTINUOUS
10
5.37573
20
-4.06777
11
5.37575
21
-4.0678
0
LINE
8
BLACK
6
CONTINUOUS
10
5.37575
20
-4.0678
11
5.37577
21
-4.06783
0
LINE
8
BLACK
6
CONTINUOUS
10
5.37577
20
-4.06783
11
5.37578
21
-4.06787
0
LINE
8
BLACK
6
CONTINUOUS
10
5.37578
20
-4.06787
11
5.37579
21
-4.06791
0
LINE
8
BLACK
6
CONTINUOUS
10
5.37579
20
-4.06791
11
5.37579
21
-4.06792
0
LINE
8
BLACK
6
CONTINUOUS
10
5.37579
20
-4.06792
11
5.37579
21
-4.61908
0
LINE
8
BLACK
6
CONTINUOUS
10
5.37579
20
-4.61908
11
5.37579
21
-4.61909
0
LINE
8
BLACK
6
CONTINUOUS
10
5.37579
20
-4.61909
11
5.37578
21
-4.61913
0
LINE
8
BLACK
6
CONTINUOUS
10
5.37578
20
-4.61913
11
5.37577
21
-4.61917
0
LINE
8
BLACK
6
CONTINUOUS
10
5.37577
20
-4.61917
11
5.37575
21
-4.6192
0
LINE
8
BLACK
6
CONTINUOUS
10
5.37575
20
-4.6192
11
5.37573
21
-4.61923
0
LINE
8
BLACK
6
CONTINUOUS
10
5.37573
20
-4.61923
11
5.3757
21
-4.61925
0
LINE
8
BLACK
6
CONTINUOUS
10
5.3757
20
-4.61925
11
5.37567
21
-4.61927
0
LINE
8
BLACK
6
CONTINUOUS
10
5.37567
20
-4.61927
11
5.37563
21
-4.61928
0
LINE
8
BLACK
6
CONTINUOUS
10
5.37563
20
-4.61928
11
5.3756
21
-4.61929
0
LINE
8
BLACK
6
CONTINUOUS
10
5.3756
20
-4.61929
11
5.37559
21
-4.61929
0
LINE
8
BLACK
6
CONTINUOUS
10
5.37559
20
-4.61929
11
5.37558
21
-4.61929
0
LINE
8
BLACK
6
CONTINUOUS
10
5.37558
20
-4.61929
11
4.82442
21
-4.61929
0
LINE
8
BLACK
6
CONTINUOUS
10
4.82442
20
-4.61929
11
4.82441
21
-4.61929
0
LINE
8
BLACK
6
CONTINUOUS
10
4.82441
20
-4.61929
11
4.82437
21
-4.61928
0
LINE
8
BLACK
6
CONTINUOUS
10
4.82437
20
-4.61928
11
4.82433
21
-4.61927
0
LINE
8
BLACK
6
CONTINUOUS
10
4.82433
20
-4.61927
11
4.8243
21
-4.61925
0
LINE
8
BLACK
6
CONTINUOUS
10
4.8243
20
-4.61925
11
4.82427
21
-4.61923
0
LINE
8
BLACK
6
CONTINUOUS
10
4.82427
20
-4.61923
11
4.82424
21
-4.6192
0
LINE
8
BLACK
6
CONTINUOUS
10
4.82424
20
-4.6192
11
4.82423
21
-4.61917
0
LINE
8
BLACK
6
CONTINUOUS
10
4.82423
20
-4.61917
11
4.82422
21
-4.61913
0
LINE
8
BLACK
6
CONTINUOUS
10
4.82422
20
-4.61913
11
4.82421
21
-4.61909
0
LINE
8
BLACK
6
CONTINUOUS
10
4.82421
20
-4.61909
11
4.82421
21
-4.61908
0
LINE
8
BLACK
6
CONTINUOUS
10
4.82421
20
-4.61908
11
4.82421
21
-4.06792
0
LINE
8
BLACK
6
CONTINUOUS
10
4.82421
20
-4.06792
11
4.82421
21
-4.06791
0
LINE
8
BLACK
6
CONTINUOUS
10
4.82421
20
-4.06791
11
4.82422
21
-4.06787
0
LINE
8
BLACK
6
CONTINUOUS
10
4.82422
20
-4.06787
11
4.82423
21
-4.06783
0
LINE
8
BLACK
6
CONTINUOUS
10
4.82423
20
-4.06783
11
4.82424
21
-4.0678
0
LINE
8
BLACK
6
CONTINUOUS
10
4.82424
20
-4.0678
11
4.82427
21
-4.06777
0
LINE
8
BLACK
6
CONTINUOUS
10
4.82427
20
-4.06777
11
4.8243
21
-4.06774
0
LINE
8
BLACK
6
CONTINUOUS
10
4.8243
20
-4.06774
11
4.82433
21
-4.06773
0
LINE
8
BLACK
6
CONTINUOUS
10
4.82433
20
-4.06773
11
4.82437
21
-4.06772
0
LINE
8
BLACK
6
CONTINUOUS
10
4.82437
20
-4.06772
11
4.8244
21
-4.06771
0
LINE
8
BLACK
6
CONTINUOUS
10
4.8244
20
-4.06771
11
4.82441
21
-4.06771
0
LINE
8
BLACK
6
CONTINUOUS
10
4.82441
20
-4.06771
11
4.82442
21
-4.06771
0
LINE
8
BLACK
6
CONTINUOUS
10
4.82442
20
-4.06771
11
5.37558
21
-4.06771
0
LINE
8
BLACK
6
CONTINUOUS
10
5.37558
20
-4.06771
11
5.37559
21
-4.06771
0
LINE
8
BLACK
6
CONTINUOUS
10
5.37559
20
-4.06771
11
5.3756
21
-4.06771
0
LINE
8
BLACK
6
CONTINUOUS
10
4.82461
20
-4.06811
11
4.82461
21
-4.61889
0
LINE
8
BLACK
6
CONTINUOUS
10
4.82461
20
-4.61889
11
5.37539
21
-4.61889
0
LINE
8
BLACK
6
CONTINUOUS
10
5.37539
20
-4.61889
11
5.37539
21
-4.06811
0
LINE
8
BLACK
6
CONTINUOUS
10
5.37539
20
-4.06811
11
4.82461
21
-4.06811
0
LINE
8
BLACK
6
CONTINUOUS
10
6.8756
20
-4.04271
11
6.87563
21
-4.04272
0
LINE
8
BLACK
6
CONTINUOUS
10
6.87563
20
-4.04272
11
6.87567
21
-4.04273
0
LINE
8
BLACK
6
CONTINUOUS
10
6.87567
20
-4.04273
11
6.8757
21
-4.04275
0
LINE
8
BLACK
6
CONTINUOUS
10
6.8757
20
-4.04275
11
6.87573
21
-4.04277
0
LINE
8
BLACK
6
CONTINUOUS
10
6.87573
20
-4.04277
11
6.87575
21
-4.0428
0
LINE
8
BLACK
6
CONTINUOUS
10
6.87575
20
-4.0428
11
6.87577
21
-4.04283
0
LINE
8
BLACK
6
CONTINUOUS
10
6.87577
20
-4.04283
11
6.87578
21
-4.04287
0
LINE
8
BLACK
6
CONTINUOUS
10
6.87578
20
-4.04287
11
6.87579
21
-4.04291
0
LINE
8
BLACK
6
CONTINUOUS
10
6.87579
20
-4.04291
11
6.87579
21
-4.04292
0
LINE
8
BLACK
6
CONTINUOUS
10
6.87579
20
-4.04292
11
6.87579
21
-4.59408
0
LINE
8
BLACK
6
CONTINUOUS
10
6.87579
20
-4.59408
11
6.87579
21
-4.59409
0
LINE
8
BLACK
6
CONTINUOUS
10
6.87579
20
-4.59409
11
6.87578
21
-4.59413
0
LINE
8
BLACK
6
CONTINUOUS
10
6.87578
20
-4.59413
11
6.87577
21
-4.59417
0
LINE
8
BLACK
6
CONTINUOUS
10
6.87577
20
-4.59417
11
6.87575
21
-4.5942
0
LINE
8
BLACK
6
CONTINUOUS
10
6.87575
20
-4.5942
11
6.87573
21
-4.59423
0
LINE
8
BLACK
6
CONTINUOUS
10
6.87573
20
-4.59423
11
6.8757
21
-4.59426
0
LINE
8
BLACK
6
CONTINUOUS
10
6.8757
20
-4.59426
11
6.87567
21
-4.59427
0
LINE
8
BLACK
6
CONTINUOUS
10
6.87567
20
-4.59427
11
6.87563
21
-4.59428
0
LINE
8
BLACK
6
CONTINUOUS
10
6.87563
20
-4.59428
11
6.8756
21
-4.59429
0
LINE
8
BLACK
6
CONTINUOUS
10
6.8756
20
-4.59429
11
6.87559
21
-4.59429
0
LINE
8
BLACK
6
CONTINUOUS
10
6.87559
20
-4.59429
11
6.87558
21
-4.59429
0
LINE
8
BLACK
6
CONTINUOUS
10
6.87558
20
-4.59429
11
6.32442
21
-4.59429
0
LINE
8
BLACK
6
CONTINUOUS
10
6.32442
20
-4.59429
11
6.32441
21
-4.59429
0
LINE
8
BLACK
6
CONTINUOUS
10
6.32441
20
-4.59429
11
6.32437
21
-4.59428
0
LINE
8
BLACK
6
CONTINUOUS
10
6.32437
20
-4.59428
11
6.32433
21
-4.59427
0
LINE
8
BLACK
6
CONTINUOUS
10
6.32433
20
-4.59427
11
6.3243
21
-4.59426
0
LINE
8
BLACK
6
CONTINUOUS
10
6.3243
20
-4.59426
11
6.32427
21
-4.59423
0
LINE
8
BLACK
6
CONTINUOUS
10
6.32427
20
-4.59423
11
6.32424
21
-4.5942
0
LINE
8
BLACK
6
CONTINUOUS
10
6.32424
20
-4.5942
11
6.32423
21
-4.59417
0
LINE
8
BLACK
6
CONTINUOUS
10
6.32423
20
-4.59417
11
6.32422
21
-4.59413
0
LINE
8
BLACK
6
CONTINUOUS
10
6.32422
20
-4.59413
11
6.32421
21
-4.59409
0
LINE
8
BLACK
6
CONTINUOUS
10
6.32421
20
-4.59409
11
6.32421
21
-4.59408
0
LINE
8
BLACK
6
CONTINUOUS
10
6.32421
20
-4.59408
11
6.32421
21
-4.04292
0
LINE
8
BLACK
6
CONTINUOUS
10
6.32421
20
-4.04292
11
6.32421
21
-4.04291
0
LINE
8
BLACK
6
CONTINUOUS
10
6.32421
20
-4.04291
11
6.32422
21
-4.04287
0
LINE
8
BLACK
6
CONTINUOUS
10
6.32422
20
-4.04287
11
6.32423
21
-4.04283
0
LINE
8
BLACK
6
CONTINUOUS
10
6.32423
20
-4.04283
11
6.32424
21
-4.0428
0
LINE
8
BLACK
6
CONTINUOUS
10
6.32424
20
-4.0428
11
6.32427
21
-4.04277
0
LINE
8
BLACK
6
CONTINUOUS
10
6.32427
20
-4.04277
11
6.3243
21
-4.04275
0
LINE
8
BLACK
6
CONTINUOUS
10
6.3243
20
-4.04275
11
6.32433
21
-4.04273
0
LINE
8
BLACK
6
CONTINUOUS
10
6.32433
20
-4.04273
11
6.32437
21
-4.04272
0
LINE
8
BLACK
6
CONTINUOUS
10
6.32437
20
-4.04272
11
6.3244
21
-4.04271
0
LINE
8
BLACK
6
CONTINUOUS
10
6.3244
20
-4.04271
11
6.32441
21
-4.04271
0
LINE
8
BLACK
6
CONTINUOUS
10
6.32441
20
-4.04271
11
6.32442
21
-4.04271
0
LINE
8
BLACK
6
CONTINUOUS
10
6.32442
20
-4.04271
11
6.87558
21
-4.04271
0
LINE
8
BLACK
6
CONTINUOUS
10
6.87558
20
-4.04271
11
6.87559
21
-4.04271
0
LINE
8
BLACK
6
CONTINUOUS
10
6.87559
20
-4.04271
11
6.8756
21
-4.04271
0
LINE
8
BLACK
6
CONTINUOUS
10
6.32461
20
-4.04311
11
6.32461
21
-4.59389
0
LINE
8
BLACK
6
CONTINUOUS
10
6.32461
20
-4.59389
11
6.87539
21
-4.59389
0
LINE
8
BLACK
6
CONTINUOUS
10
6.87539
20
-4.59389
11
6.87539
21
-4.04311
0
LINE
8
BLACK
6
CONTINUOUS
10
6.87539
20
-4.04311
11
6.32461
21
-4.04311
0
LINE
8
BLACK
6
CONTINUOUS
10
6.1256
20
-3.96771
11
6.12563
21
-3.96772
0
LINE
8
BLACK
6
CONTINUOUS
10
6.12563
20
-3.96772
11
6.12567
21
-3.96773
0
LINE
8
BLACK
6
CONTINUOUS
10
6.12567
20
-3.96773
11
6.1257
21
-3.96774
0
LINE
8
BLACK
6
CONTINUOUS
10
6.1257
20
-3.96774
11
6.12573
21
-3.96777
0
LINE
8
BLACK
6
CONTINUOUS
10
6.12573
20
-3.96777
11
6.12575
21
-3.9678
0
LINE
8
BLACK
6
CONTINUOUS
10
6.12575
20
-3.9678
11
6.12577
21
-3.96783
0
LINE
8
BLACK
6
CONTINUOUS
10
6.12577
20
-3.96783
11
6.12578
21
-3.96787
0
LINE
8
BLACK
6
CONTINUOUS
10
6.12578
20
-3.96787
11
6.12579
21
-3.96791
0
LINE
8
BLACK
6
CONTINUOUS
10
6.12579
20
-3.96791
11
6.12579
21
-3.96792
0
LINE
8
BLACK
6
CONTINUOUS
10
6.12579
20
-3.96792
11
6.12579
21
-4.51908
0
LINE
8
BLACK
6
CONTINUOUS
10
6.12579
20
-4.51908
11
6.12579
21
-4.51909
0
LINE
8
BLACK
6
CONTINUOUS
10
6.12579
20
-4.51909
11
6.12578
21
-4.51913
0
LINE
8
BLACK
6
CONTINUOUS
10
6.12578
20
-4.51913
11
6.12577
21
-4.51917
0
LINE
8
BLACK
6
CONTINUOUS
10
6.12577
20
-4.51917
11
6.12575
21
-4.5192
0
LINE
8
BLACK
6
CONTINUOUS
10
6.12575
20
-4.5192
11
6.12573
21
-4.51923
0
LINE
8
BLACK
6
CONTINUOUS
10
6.12573
20
-4.51923
11
6.1257
21
-4.51925
0
LINE
8
BLACK
6
CONTINUOUS
10
6.1257
20
-4.51925
11
6.12567
21
-4.51927
0
LINE
8
BLACK
6
CONTINUOUS
10
6.12567
20
-4.51927
11
6.12563
21
-4.51928
0
LINE
8
BLACK
6
CONTINUOUS
10
6.12563
20
-4.51928
11
6.1256
21
-4.51929
0
LINE
8
BLACK
6
CONTINUOUS
10
6.1256
20
-4.51929
11
6.12559
21
-4.51929
0
LINE
8
BLACK
6
CONTINUOUS
10
6.12559
20
-4.51929
11
6.12558
21
-4.51929
0
LINE
8
BLACK
6
CONTINUOUS
10
6.12558
20
-4.51929
11
5.57442
21
-4.51929
0
LINE
8
BLACK
6
CONTINUOUS
10
5.57442
20
-4.51929
11
5.57441
21
-4.51929
0
LINE
8
BLACK
6
CONTINUOUS
10
5.57441
20
-4.51929
11
5.57437
21
-4.51928
0
LINE
8
BLACK
6
CONTINUOUS
10
5.57437
20
-4.51928
11
5.57433
21
-4.51927
0
LINE
8
BLACK
6
CONTINUOUS
10
5.57433
20
-4.51927
11
5.5743
21
-4.51925
0
LINE
8
BLACK
6
CONTINUOUS
10
5.5743
20
-4.51925
11
5.57427
21
-4.51923
0
LINE
8
BLACK
6
CONTINUOUS
10
5.57427
20
-4.51923
11
5.57424
21
-4.5192
0
LINE
8
BLACK
6
CONTINUOUS
10
5.57424
20
-4.5192
11
5.57423
21
-4.51917
0
LINE
8
BLACK
6
CONTINUOUS
10
5.57423
20
-4.51917
11
5.57422
21
-4.51913
0
LINE
8
BLACK
6
CONTINUOUS
10
5.57422
20
-4.51913
11
5.57421
21
-4.51909
0
LINE
8
BLACK
6
CONTINUOUS
10
5.57421
20
-4.51909
11
5.57421
21
-4.51908
0
LINE
8
BLACK
6
CONTINUOUS
10
5.57421
20
-4.51908
11
5.57421
21
-3.96792
0
LINE
8
BLACK
6
CONTINUOUS
10
5.57421
20
-3.96792
11
5.57421
21
-3.96791
0
LINE
8
BLACK
6
CONTINUOUS
10
5.57421
20
-3.96791
11
5.57422
21
-3.96787
0
LINE
8
BLACK
6
CONTINUOUS
10
5.57422
20
-3.96787
11
5.57423
21
-3.96783
0
LINE
8
BLACK
6
CONTINUOUS
10
5.57423
20
-3.96783
11
5.57424
21
-3.9678
0
LINE
8
BLACK
6
CONTINUOUS
10
5.57424
20
-3.9678
11
5.57427
21
-3.96777
0
LINE
8
BLACK
6
CONTINUOUS
10
5.57427
20
-3.96777
11
5.5743
21
-3.96774
0
LINE
8
BLACK
6
CONTINUOUS
10
5.5743
20
-3.96774
11
5.57433
21
-3.96773
0
LINE
8
BLACK
6
CONTINUOUS
10
5.57433
20
-3.96773
11
5.57437
21
-3.96772
0
LINE
8
BLACK
6
CONTINUOUS
10
5.57437
20
-3.96772
11
5.5744
21
-3.96771
0
LINE
8
BLACK
6
CONTINUOUS
10
5.5744
20
-3.96771
11
5.57441
21
-3.96771
0
LINE
8
BLACK
6
CONTINUOUS
10
5.57441
20
-3.96771
11
5.57442
21
-3.96771
0
LINE
8
BLACK
6
CONTINUOUS
10
5.57442
20
-3.96771
11
6.12558
21
-3.96771
0
LINE
8
BLACK
6
CONTINUOUS
10
6.12558
20
-3.96771
11
6.12559
21
-3.96771
0
LINE
8
BLACK
6
CONTINUOUS
10
6.12559
20
-3.96771
11
6.1256
21
-3.96771
0
LINE
8
BLACK
6
CONTINUOUS
10
5.57461
20
-3.96811
11
5.57461
21
-4.51889
0
LINE
8
BLACK
6
CONTINUOUS
10
5.57461
20
-4.51889
11
6.12539
21
-4.51889
0
LINE
8
BLACK
6
CONTINUOUS
10
6.12539
20
-4.51889
11
6.12539
21
-3.96811
0
LINE
8
BLACK
6
CONTINUOUS
10
6.12539
20
-3.96811
11
5.57461
21
-3.96811
0
LINE
8
BLACK
6
CONTINUOUS
10
4.6256
20
-3.51771
11
4.62563
21
-3.51772
0
LINE
8
BLACK
6
CONTINUOUS
10
4.62563
20
-3.51772
11
4.62567
21
-3.51773
0
LINE
8
BLACK
6
CONTINUOUS
10
4.62567
20
-3.51773
11
4.6257
21
-3.51774
0
LINE
8
BLACK
6
CONTINUOUS
10
4.6257
20
-3.51774
11
4.62573
21
-3.51777
0
LINE
8
BLACK
6
CONTINUOUS
10
4.62573
20
-3.51777
11
4.62575
21
-3.5178
0
LINE
8
BLACK
6
CONTINUOUS
10
4.62575
20
-3.5178
11
4.62577
21
-3.51783
0
LINE
8
BLACK
6
CONTINUOUS
10
4.62577
20
-3.51783
11
4.62578
21
-3.51787
0
LINE
8
BLACK
6
CONTINUOUS
10
4.62578
20
-3.51787
11
4.62579
21
-3.51791
0
LINE
8
BLACK
6
CONTINUOUS
10
4.62579
20
-3.51791
11
4.62579
21
-3.51792
0
LINE
8
BLACK
6
CONTINUOUS
10
4.62579
20
-3.51792
11
4.62579
21
-4.06908
0
LINE
8
BLACK
6
CONTINUOUS
10
4.62579
20
-4.06908
11
4.62579
21
-4.06909
0
LINE
8
BLACK
6
CONTINUOUS
10
4.62579
20
-4.06909
11
4.62579
21
-4.0691
0
LINE
8
BLACK
6
CONTINUOUS
10
4.62579
20
-4.0691
11
4.62579
21
-4.0691
0
LINE
8
BLACK
6
CONTINUOUS
10
4.62579
20
-4.0691
11
4.62578
21
-4.06913
0
LINE
8
BLACK
6
CONTINUOUS
10
4.62578
20
-4.06913
11
4.62577
21
-4.06917
0
LINE
8
BLACK
6
CONTINUOUS
10
4.62577
20
-4.06917
11
4.62575
21
-4.0692
0
LINE
8
BLACK
6
CONTINUOUS
10
4.62575
20
-4.0692
11
4.62573
21
-4.06923
0
LINE
8
BLACK
6
CONTINUOUS
10
4.62573
20
-4.06923
11
4.6257
21
-4.06925
0
LINE
8
BLACK
6
CONTINUOUS
10
4.6257
20
-4.06925
11
4.62567
21
-4.06927
0
LINE
8
BLACK
6
CONTINUOUS
10
4.62567
20
-4.06927
11
4.62563
21
-4.06928
0
LINE
8
BLACK
6
CONTINUOUS
10
4.62563
20
-4.06928
11
4.6256
21
-4.06929
0
LINE
8
BLACK
6
CONTINUOUS
10
4.6256
20
-4.06929
11
4.6256
21
-4.06929
0
LINE
8
BLACK
6
CONTINUOUS
10
4.6256
20
-4.06929
11
4.62559
21
-4.06929
0
LINE
8
BLACK
6
CONTINUOUS
10
4.62559
20
-4.06929
11
4.62558
21
-4.06929
0
LINE
8
BLACK
6
CONTINUOUS
10
4.62558
20
-4.06929
11
4.07442
21
-4.06929
0
LINE
8
BLACK
6
CONTINUOUS
10
4.07442
20
-4.06929
11
4.07441
21
-4.06929
0
LINE
8
BLACK
6
CONTINUOUS
10
4.07441
20
-4.06929
11
4.07437
21
-4.06928
0
LINE
8
BLACK
6
CONTINUOUS
10
4.07437
20
-4.06928
11
4.07433
21
-4.06927
0
LINE
8
BLACK
6
CONTINUOUS
10
4.07433
20
-4.06927
11
4.0743
21
-4.06925
0
LINE
8
BLACK
6
CONTINUOUS
10
4.0743
20
-4.06925
11
4.07427
21
-4.06923
0
LINE
8
BLACK
6
CONTINUOUS
10
4.07427
20
-4.06923
11
4.07427
21
-4.06923
0
LINE
8
BLACK
6
CONTINUOUS
10
4.07427
20
-4.06923
11
4.07424
21
-4.0692
0
LINE
8
BLACK
6
CONTINUOUS
10
4.07424
20
-4.0692
11
4.07423
21
-4.06917
0
LINE
8
BLACK
6
CONTINUOUS
10
4.07423
20
-4.06917
11
4.07422
21
-4.06913
0
LINE
8
BLACK
6
CONTINUOUS
10
4.07422
20
-4.06913
11
4.07421
21
-4.06909
0
LINE
8
BLACK
6
CONTINUOUS
10
4.07421
20
-4.06909
11
4.07421
21
-4.06908
0
LINE
8
BLACK
6
CONTINUOUS
10
4.07421
20
-4.06908
11
4.07421
21
-3.51792
0
LINE
8
BLACK
6
CONTINUOUS
10
4.07421
20
-3.51792
11
4.07421
21
-3.51791
0
LINE
8
BLACK
6
CONTINUOUS
10
4.07421
20
-3.51791
11
4.07422
21
-3.51787
0
LINE
8
BLACK
6
CONTINUOUS
10
4.07422
20
-3.51787
11
4.07423
21
-3.51783
0
LINE
8
BLACK
6
CONTINUOUS
10
4.07423
20
-3.51783
11
4.07424
21
-3.5178
0
LINE
8
BLACK
6
CONTINUOUS
10
4.07424
20
-3.5178
11
4.07427
21
-3.51777
0
LINE
8
BLACK
6
CONTINUOUS
10
4.07427
20
-3.51777
11
4.0743
21
-3.51774
0
LINE
8
BLACK
6
CONTINUOUS
10
4.0743
20
-3.51774
11
4.07433
21
-3.51773
0
LINE
8
BLACK
6
CONTINUOUS
10
4.07433
20
-3.51773
11
4.07437
21
-3.51772
0
LINE
8
BLACK
6
CONTINUOUS
10
4.07437
20
-3.51772
11
4.0744
21
-3.51771
0
LINE
8
BLACK
6
CONTINUOUS
10
4.0744
20
-3.51771
11
4.07441
21
-3.51771
0
LINE
8
BLACK
6
CONTINUOUS
10
4.07441
20
-3.51771
11
4.07442
21
-3.51771
0
LINE
8
BLACK
6
CONTINUOUS
10
4.07442
20
-3.51771
11
4.62558
21
-3.51771
0
LINE
8
BLACK
6
CONTINUOUS
10
4.62558
20
-3.51771
11
4.62559
21
-3.51771
0
LINE
8
BLACK
6
CONTINUOUS
10
4.62559
20
-3.51771
11
4.6256
21
-3.51771
0
LINE
8
BLACK
6
CONTINUOUS
10
4.07461
20
-3.51811
11
4.07461
21
-4.06889
0
LINE
8
BLACK
6
CONTINUOUS
10
4.07461
20
-4.06889
11
4.62539
21
-4.06889
0
LINE
8
BLACK
6
CONTINUOUS
10
4.62539
20
-4.06889
11
4.62539
21
-3.51811
0
LINE
8
BLACK
6
CONTINUOUS
10
4.62539
20
-3.51811
11
4.07461
21
-3.51811
0
LINE
8
BLACK
6
CONTINUOUS
10
3.8756
20
-3.51771
11
3.87563
21
-3.51772
0
LINE
8
BLACK
6
CONTINUOUS
10
3.87563
20
-3.51772
11
3.87567
21
-3.51773
0
LINE
8
BLACK
6
CONTINUOUS
10
3.87567
20
-3.51773
11
3.8757
21
-3.51774
0
LINE
8
BLACK
6
CONTINUOUS
10
3.8757
20
-3.51774
11
3.87573
21
-3.51777
0
LINE
8
BLACK
6
CONTINUOUS
10
3.87573
20
-3.51777
11
3.87575
21
-3.5178
0
LINE
8
BLACK
6
CONTINUOUS
10
3.87575
20
-3.5178
11
3.87577
21
-3.51783
0
LINE
8
BLACK
6
CONTINUOUS
10
3.87577
20
-3.51783
11
3.87578
21
-3.51787
0
LINE
8
BLACK
6
CONTINUOUS
10
3.87578
20
-3.51787
11
3.87579
21
-3.51791
0
LINE
8
BLACK
6
CONTINUOUS
10
3.87579
20
-3.51791
11
3.87579
21
-3.51792
0
LINE
8
BLACK
6
CONTINUOUS
10
3.87579
20
-3.51792
11
3.87579
21
-4.06908
0
LINE
8
BLACK
6
CONTINUOUS
10
3.87579
20
-4.06908
11
3.87579
21
-4.06909
0
LINE
8
BLACK
6
CONTINUOUS
10
3.87579
20
-4.06909
11
3.87578
21
-4.06913
0
LINE
8
BLACK
6
CONTINUOUS
10
3.87578
20
-4.06913
11
3.87577
21
-4.06917
0
LINE
8
BLACK
6
CONTINUOUS
10
3.87577
20
-4.06917
11
3.87575
21
-4.0692
0
LINE
8
BLACK
6
CONTINUOUS
10
3.87575
20
-4.0692
11
3.87573
21
-4.06923
0
LINE
8
BLACK
6
CONTINUOUS
10
3.87573
20
-4.06923
11
3.8757
21
-4.06925
0
LINE
8
BLACK
6
CONTINUOUS
10
3.8757
20
-4.06925
11
3.87567
21
-4.06927
0
LINE
8
BLACK
6
CONTINUOUS
10
3.87567
20
-4.06927
11
3.87563
21
-4.06928
0
LINE
8
BLACK
6
CONTINUOUS
10
3.87563
20
-4.06928
11
3.8756
21
-4.06929
0
LINE
8
BLACK
6
CONTINUOUS
10
3.8756
20
-4.06929
11
3.87559
21
-4.06929
0
LINE
8
BLACK
6
CONTINUOUS
10
3.87559
20
-4.06929
11
3.87558
21
-4.06929
0
LINE
8
BLACK
6
CONTINUOUS
10
3.87558
20
-4.06929
11
3.32442
21
-4.06929
0
LINE
8
BLACK
6
CONTINUOUS
10
3.32442
20
-4.06929
11
3.32441
21
-4.06929
0
LINE
8
BLACK
6
CONTINUOUS
10
3.32441
20
-4.06929
11
3.32437
21
-4.06928
0
LINE
8
BLACK
6
CONTINUOUS
10
3.32437
20
-4.06928
11
3.32433
21
-4.06927
0
LINE
8
BLACK
6
CONTINUOUS
10
3.32433
20
-4.06927
11
3.3243
21
-4.06925
0
LINE
8
BLACK
6
CONTINUOUS
10
3.3243
20
-4.06925
11
3.32427
21
-4.06923
0
LINE
8
BLACK
6
CONTINUOUS
10
3.32427
20
-4.06923
11
3.32424
21
-4.0692
0
LINE
8
BLACK
6
CONTINUOUS
10
3.32424
20
-4.0692
11
3.32423
21
-4.06917
0
LINE
8
BLACK
6
CONTINUOUS
10
3.32423
20
-4.06917
11
3.32422
21
-4.06913
0
LINE
8
BLACK
6
CONTINUOUS
10
3.32422
20
-4.06913
11
3.32421
21
-4.06909
0
LINE
8
BLACK
6
CONTINUOUS
10
3.32421
20
-4.06909
11
3.32421
21
-4.06908
0
LINE
8
BLACK
6
CONTINUOUS
10
3.32421
20
-4.06908
11
3.32421
21
-3.51792
0
LINE
8
BLACK
6
CONTINUOUS
10
3.32421
20
-3.51792
11
3.32421
21
-3.51791
0
LINE
8
BLACK
6
CONTINUOUS
10
3.32421
20
-3.51791
11
3.32422
21
-3.51787
0
LINE
8
BLACK
6
CONTINUOUS
10
3.32422
20
-3.51787
11
3.32423
21
-3.51783
0
LINE
8
BLACK
6
CONTINUOUS
10
3.32423
20
-3.51783
11
3.32424
21
-3.5178
0
LINE
8
BLACK
6
CONTINUOUS
10
3.32424
20
-3.5178
11
3.32427
21
-3.51777
0
LINE
8
BLACK
6
CONTINUOUS
10
3.32427
20
-3.51777
11
3.3243
21
-3.51774
0
LINE
8
BLACK
6
CONTINUOUS
10
3.3243
20
-3.51774
11
3.32433
21
-3.51773
0
LINE
8
BLACK
6
CONTINUOUS
10
3.32433
20
-3.51773
11
3.32437
21
-3.51772
0
LINE
8
BLACK
6
CONTINUOUS
10
3.32437
20
-3.51772
11
3.3244
21
-3.51771
0
LINE
8
BLACK
6
CONTINUOUS
10
3.3244
20
-3.51771
11
3.32441
21
-3.51771
0
LINE
8
BLACK
6
CONTINUOUS
10
3.32441
20
-3.51771
11
3.32442
21
-3.51771
0
LINE
8
BLACK
6
CONTINUOUS
10
3.32442
20
-3.51771
11
3.87558
21
-3.51771
0
LINE
8
BLACK
6
CONTINUOUS
10
3.87558
20
-3.51771
11
3.87559
21
-3.51771
0
LINE
8
BLACK
6
CONTINUOUS
10
3.87559
20
-3.51771
11
3.8756
21
-3.51771
0
LINE
8
BLACK
6
CONTINUOUS
10
3.32461
20
-3.51811
11
3.32461
21
-4.06889
0
LINE
8
BLACK
6
CONTINUOUS
10
3.32461
20
-4.06889
11
3.87539
21
-4.06889
0
LINE
8
BLACK
6
CONTINUOUS
10
3.87539
20
-4.06889
11
3.87539
21
-3.51811
0
LINE
8
BLACK
6
CONTINUOUS
10
3.87539
20
-3.51811
11
3.32461
21
-3.51811
0
LINE
8
BLACK
6
CONTINUOUS
10
7.6256
20
-3.36771
11
7.62563
21
-3.36772
0
LINE
8
BLACK
6
CONTINUOUS
10
7.62563
20
-3.36772
11
7.62567
21
-3.36773
0
LINE
8
BLACK
6
CONTINUOUS
10
7.62567
20
-3.36773
11
7.6257
21
-3.36774
0
LINE
8
BLACK
6
CONTINUOUS
10
7.6257
20
-3.36774
11
7.62573
21
-3.36777
0
LINE
8
BLACK
6
CONTINUOUS
10
7.62573
20
-3.36777
11
7.62575
21
-3.3678
0
LINE
8
BLACK
6
CONTINUOUS
10
7.62575
20
-3.3678
11
7.62577
21
-3.36783
0
LINE
8
BLACK
6
CONTINUOUS
10
7.62577
20
-3.36783
11
7.62578
21
-3.36787
0
LINE
8
BLACK
6
CONTINUOUS
10
7.62578
20
-3.36787
11
7.62579
21
-3.36791
0
LINE
8
BLACK
6
CONTINUOUS
10
7.62579
20
-3.36791
11
7.62579
21
-3.36792
0
LINE
8
BLACK
6
CONTINUOUS
10
7.62579
20
-3.36792
11
7.62579
21
-3.91908
0
LINE
8
BLACK
6
CONTINUOUS
10
7.62579
20
-3.91908
11
7.62579
21
-3.91909
0
LINE
8
BLACK
6
CONTINUOUS
10
7.62579
20
-3.91909
11
7.62578
21
-3.91913
0
LINE
8
BLACK
6
CONTINUOUS
10
7.62578
20
-3.91913
11
7.62577
21
-3.91917
0
LINE
8
BLACK
6
CONTINUOUS
10
7.62577
20
-3.91917
11
7.62575
21
-3.9192
0
LINE
8
BLACK
6
CONTINUOUS
10
7.62575
20
-3.9192
11
7.62573
21
-3.91923
0
LINE
8
BLACK
6
CONTINUOUS
10
7.62573
20
-3.91923
11
7.6257
21
-3.91925
0
LINE
8
BLACK
6
CONTINUOUS
10
7.6257
20
-3.91925
11
7.62567
21
-3.91927
0
LINE
8
BLACK
6
CONTINUOUS
10
7.62567
20
-3.91927
11
7.62563
21
-3.91928
0
LINE
8
BLACK
6
CONTINUOUS
10
7.62563
20
-3.91928
11
7.6256
21
-3.91929
0
LINE
8
BLACK
6
CONTINUOUS
10
7.6256
20
-3.91929
11
7.62559
21
-3.91929
0
LINE
8
BLACK
6
CONTINUOUS
10
7.62559
20
-3.91929
11
7.62558
21
-3.91929
0
LINE
8
BLACK
6
CONTINUOUS
10
7.62558
20
-3.91929
11
7.07442
21
-3.91929
0
LINE
8
BLACK
6
CONTINUOUS
10
7.07442
20
-3.91929
11
7.07441
21
-3.91929
0
LINE
8
BLACK
6
CONTINUOUS
10
7.07441
20
-3.91929
11
7.07437
21
-3.91928
0
LINE
8
BLACK
6
CONTINUOUS
10
7.07437
20
-3.91928
11
7.07433
21
-3.91927
0
LINE
8
BLACK
6
CONTINUOUS
10
7.07433
20
-3.91927
11
7.0743
21
-3.91925
0
LINE
8
BLACK
6
CONTINUOUS
10
7.0743
20
-3.91925
11
7.07427
21
-3.91923
0
LINE
8
BLACK
6
CONTINUOUS
10
7.07427
20
-3.91923
11
7.07424
21
-3.9192
0
LINE
8
BLACK
6
CONTINUOUS
10
7.07424
20
-3.9192
11
7.07423
21
-3.91917
0
LINE
8
BLACK
6
CONTINUOUS
10
7.07423
20
-3.91917
11
7.07422
21
-3.91913
0
LINE
8
BLACK
6
CONTINUOUS
10
7.07422
20
-3.91913
11
7.07421
21
-3.91909
0
LINE
8
BLACK
6
CONTINUOUS
10
7.07421
20
-3.91909
11
7.07421
21
-3.91908
0
LINE
8
BLACK
6
CONTINUOUS
10
7.07421
20
-3.91908
11
7.07421
21
-3.36792
0
LINE
8
BLACK
6
CONTINUOUS
10
7.07421
20
-3.36792
11
7.07421
21
-3.36791
0
LINE
8
BLACK
6
CONTINUOUS
10
7.07421
20
-3.36791
11
7.07422
21
-3.36787
0
LINE
8
BLACK
6
CONTINUOUS
10
7.07422
20
-3.36787
11
7.07423
21
-3.36783
0
LINE
8
BLACK
6
CONTINUOUS
10
7.07423
20
-3.36783
11
7.07424
21
-3.3678
0
LINE
8
BLACK
6
CONTINUOUS
10
7.07424
20
-3.3678
11
7.07427
21
-3.36777
0
LINE
8
BLACK
6
CONTINUOUS
10
7.07427
20
-3.36777
11
7.0743
21
-3.36774
0
LINE
8
BLACK
6
CONTINUOUS
10
7.0743
20
-3.36774
11
7.07433
21
-3.36773
0
LINE
8
BLACK
6
CONTINUOUS
10
7.07433
20
-3.36773
11
7.07437
21
-3.36772
0
LINE
8
BLACK
6
CONTINUOUS
10
7.07437
20
-3.36772
11
7.0744
21
-3.36771
0
LINE
8
BLACK
6
CONTINUOUS
10
7.0744
20
-3.36771
11
7.07441
21
-3.36771
0
LINE
8
BLACK
6
CONTINUOUS
10
7.07441
20
-3.36771
11
7.07442
21
-3.36771
0
LINE
8
BLACK
6
CONTINUOUS
10
7.07442
20
-3.36771
11
7.62558
21
-3.36771
0
LINE
8
BLACK
6
CONTINUOUS
10
7.62558
20
-3.36771
11
7.62559
21
-3.36771
0
LINE
8
BLACK
6
CONTINUOUS
10
7.62559
20
-3.36771
11
7.6256
21
-3.36771
0
LINE
8
BLACK
6
CONTINUOUS
10
7.07461
20
-3.36811
11
7.07461
21
-3.91889
0
LINE
8
BLACK
6
CONTINUOUS
10
7.07461
20
-3.91889
11
7.62539
21
-3.91889
0
LINE
8
BLACK
6
CONTINUOUS
10
7.62539
20
-3.91889
11
7.62539
21
-3.36811
0
LINE
8
BLACK
6
CONTINUOUS
10
7.62539
20
-3.36811
11
7.07461
21
-3.36811
0
LINE
8
BLACK
6
CONTINUOUS
10
5.3756
20
-3.31771
11
5.37563
21
-3.31772
0
LINE
8
BLACK
6
CONTINUOUS
10
5.37563
20
-3.31772
11
5.37567
21
-3.31773
0
LINE
8
BLACK
6
CONTINUOUS
10
5.37567
20
-3.31773
11
5.3757
21
-3.31775
0
LINE
8
BLACK
6
CONTINUOUS
10
5.3757
20
-3.31775
11
5.37573
21
-3.31777
0
LINE
8
BLACK
6
CONTINUOUS
10
5.37573
20
-3.31777
11
5.37575
21
-3.3178
0
LINE
8
BLACK
6
CONTINUOUS
10
5.37575
20
-3.3178
11
5.37577
21
-3.31783
0
LINE
8
BLACK
6
CONTINUOUS
10
5.37577
20
-3.31783
11
5.37578
21
-3.31787
0
LINE
8
BLACK
6
CONTINUOUS
10
5.37578
20
-3.31787
11
5.37579
21
-3.31791
0
LINE
8
BLACK
6
CONTINUOUS
10
5.37579
20
-3.31791
11
5.37579
21
-3.31792
0
LINE
8
BLACK
6
CONTINUOUS
10
5.37579
20
-3.31792
11
5.37579
21
-3.86908
0
LINE
8
BLACK
6
CONTINUOUS
10
5.37579
20
-3.86908
11
5.37579
21
-3.86909
0
LINE
8
BLACK
6
CONTINUOUS
10
5.37579
20
-3.86909
11
5.37578
21
-3.86913
0
LINE
8
BLACK
6
CONTINUOUS
10
5.37578
20
-3.86913
11
5.37577
21
-3.86917
0
LINE
8
BLACK
6
CONTINUOUS
10
5.37577
20
-3.86917
11
5.37575
21
-3.8692
0
LINE
8
BLACK
6
CONTINUOUS
10
5.37575
20
-3.8692
11
5.37573
21
-3.86923
0
LINE
8
BLACK
6
CONTINUOUS
10
5.37573
20
-3.86923
11
5.3757
21
-3.86926
0
LINE
8
BLACK
6
CONTINUOUS
10
5.3757
20
-3.86926
11
5.37567
21
-3.86927
0
LINE
8
BLACK
6
CONTINUOUS
10
5.37567
20
-3.86927
11
5.37563
21
-3.86928
0
LINE
8
BLACK
6
CONTINUOUS
10
5.37563
20
-3.86928
11
5.3756
21
-3.86929
0
LINE
8
BLACK
6
CONTINUOUS
10
5.3756
20
-3.86929
11
5.37559
21
-3.86929
0
LINE
8
BLACK
6
CONTINUOUS
10
5.37559
20
-3.86929
11
5.37558
21
-3.86929
0
LINE
8
BLACK
6
CONTINUOUS
10
5.37558
20
-3.86929
11
4.82442
21
-3.86929
0
LINE
8
BLACK
6
CONTINUOUS
10
4.82442
20
-3.86929
11
4.82441
21
-3.86929
0
LINE
8
BLACK
6
CONTINUOUS
10
4.82441
20
-3.86929
11
4.82437
21
-3.86928
0
LINE
8
BLACK
6
CONTINUOUS
10
4.82437
20
-3.86928
11
4.82433
21
-3.86927
0
LINE
8
BLACK
6
CONTINUOUS
10
4.82433
20
-3.86927
11
4.8243
21
-3.86926
0
LINE
8
BLACK
6
CONTINUOUS
10
4.8243
20
-3.86926
11
4.82427
21
-3.86923
0
LINE
8
BLACK
6
CONTINUOUS
10
4.82427
20
-3.86923
11
4.82424
21
-3.8692
0
LINE
8
BLACK
6
CONTINUOUS
10
4.82424
20
-3.8692
11
4.82423
21
-3.86917
0
LINE
8
BLACK
6
CONTINUOUS
10
4.82423
20
-3.86917
11
4.82422
21
-3.86913
0
LINE
8
BLACK
6
CONTINUOUS
10
4.82422
20
-3.86913
11
4.82421
21
-3.86909
0
LINE
8
BLACK
6
CONTINUOUS
10
4.82421
20
-3.86909
11
4.82421
21
-3.86908
0
LINE
8
BLACK
6
CONTINUOUS
10
4.82421
20
-3.86908
11
4.82421
21
-3.31792
0
LINE
8
BLACK
6
CONTINUOUS
10
4.82421
20
-3.31792
11
4.82421
21
-3.31791
0
LINE
8
BLACK
6
CONTINUOUS
10
4.82421
20
-3.31791
11
4.82422
21
-3.31787
0
LINE
8
BLACK
6
CONTINUOUS
10
4.82422
20
-3.31787
11
4.82423
21
-3.31783
0
LINE
8
BLACK
6
CONTINUOUS
10
4.82423
20
-3.31783
11
4.82424
21
-3.3178
0
LINE
8
BLACK
6
CONTINUOUS
10
4.82424
20
-3.3178
11
4.82427
21
-3.31777
0
LINE
8
BLACK
6
CONTINUOUS
10
4.82427
20
-3.31777
11
4.8243
21
-3.31775
0
LINE
8
BLACK
6
CONTINUOUS
10
4.8243
20
-3.31775
11
4.82433
21
-3.31773
0
LINE
8
BLACK
6
CONTINUOUS
10
4.82433
20
-3.31773
11
4.82437
21
-3.31772
0
LINE
8
BLACK
6
CONTINUOUS
10
4.82437
20
-3.31772
11
4.8244
21
-3.31771
0
LINE
8
BLACK
6
CONTINUOUS
10
4.8244
20
-3.31771
11
4.82441
21
-3.31771
0
LINE
8
BLACK
6
CONTINUOUS
10
4.82441
20
-3.31771
11
4.82442
21
-3.31771
0
LINE
8
BLACK
6
CONTINUOUS
10
4.82442
20
-3.31771
11
5.37558
21
-3.31771
0
LINE
8
BLACK
6
CONTINUOUS
10
5.37558
20
-3.31771
11
5.37559
21
-3.31771
0
LINE
8
BLACK
6
CONTINUOUS
10
5.37559
20
-3.31771
11
5.3756
21
-3.31771
0
LINE
8
BLACK
6
CONTINUOUS
10
4.82461
20
-3.31811
11
4.82461
21
-3.86889
0
LINE
8
BLACK
6
CONTINUOUS
10
4.82461
20
-3.86889
11
5.37539
21
-3.86889
0
LINE
8
BLACK
6
CONTINUOUS
10
5.37539
20
-3.86889
11
5.37539
21
-3.31811
0
LINE
8
BLACK
6
CONTINUOUS
10
5.37539
20
-3.31811
11
4.82461
21
-3.31811
0
LINE
8
BLACK
6
CONTINUOUS
10
6.8756
20
-3.29271
11
6.87563
21
-3.29272
0
LINE
8
BLACK
6
CONTINUOUS
10
6.87563
20
-3.29272
11
6.87567
21
-3.29273
0
LINE
8
BLACK
6
CONTINUOUS
10
6.87567
20
-3.29273
11
6.8757
21
-3.29274
0
LINE
8
BLACK
6
CONTINUOUS
10
6.8757
20
-3.29274
11
6.87573
21
-3.29277
0
LINE
8
BLACK
6
CONTINUOUS
10
6.87573
20
-3.29277
11
6.87575
21
-3.2928
0
LINE
8
BLACK
6
CONTINUOUS
10
6.87575
20
-3.2928
11
6.87577
21
-3.29283
0
LINE
8
BLACK
6
CONTINUOUS
10
6.87577
20
-3.29283
11
6.87578
21
-3.29287
0
LINE
8
BLACK
6
CONTINUOUS
10
6.87578
20
-3.29287
11
6.87579
21
-3.29291
0
LINE
8
BLACK
6
CONTINUOUS
10
6.87579
20
-3.29291
11
6.87579
21
-3.29292
0
LINE
8
BLACK
6
CONTINUOUS
10
6.87579
20
-3.29292
11
6.87579
21
-3.84408
0
LINE
8
BLACK
6
CONTINUOUS
10
6.87579
20
-3.84408
11
6.87579
21
-3.84409
0
LINE
8
BLACK
6
CONTINUOUS
10
6.87579
20
-3.84409
11
6.87578
21
-3.84413
0
LINE
8
BLACK
6
CONTINUOUS
10
6.87578
20
-3.84413
11
6.87577
21
-3.84417
0
LINE
8
BLACK
6
CONTINUOUS
10
6.87577
20
-3.84417
11
6.87575
21
-3.8442
0
LINE
8
BLACK
6
CONTINUOUS
10
6.87575
20
-3.8442
11
6.87573
21
-3.84423
0
LINE
8
BLACK
6
CONTINUOUS
10
6.87573
20
-3.84423
11
6.8757
21
-3.84425
0
LINE
8
BLACK
6
CONTINUOUS
10
6.8757
20
-3.84425
11
6.87567
21
-3.84427
0
LINE
8
BLACK
6
CONTINUOUS
10
6.87567
20
-3.84427
11
6.87563
21
-3.84428
0
LINE
8
BLACK
6
CONTINUOUS
10
6.87563
20
-3.84428
11
6.8756
21
-3.84429
0
LINE
8
BLACK
6
CONTINUOUS
10
6.8756
20
-3.84429
11
6.87559
21
-3.84429
0
LINE
8
BLACK
6
CONTINUOUS
10
6.87559
20
-3.84429
11
6.87558
21
-3.84429
0
LINE
8
BLACK
6
CONTINUOUS
10
6.87558
20
-3.84429
11
6.32442
21
-3.84429
0
LINE
8
BLACK
6
CONTINUOUS
10
6.32442
20
-3.84429
11
6.32441
21
-3.84429
0
LINE
8
BLACK
6
CONTINUOUS
10
6.32441
20
-3.84429
11
6.32437
21
-3.84428
0
LINE
8
BLACK
6
CONTINUOUS
10
6.32437
20
-3.84428
11
6.32433
21
-3.84427
0
LINE
8
BLACK
6
CONTINUOUS
10
6.32433
20
-3.84427
11
6.3243
21
-3.84425
0
LINE
8
BLACK
6
CONTINUOUS
10
6.3243
20
-3.84425
11
6.32427
21
-3.84423
0
LINE
8
BLACK
6
CONTINUOUS
10
6.32427
20
-3.84423
11
6.32424
21
-3.8442
0
LINE
8
BLACK
6
CONTINUOUS
10
6.32424
20
-3.8442
11
6.32423
21
-3.84417
0
LINE
8
BLACK
6
CONTINUOUS
10
6.32423
20
-3.84417
11
6.32422
21
-3.84413
0
LINE
8
BLACK
6
CONTINUOUS
10
6.32422
20
-3.84413
11
6.32421
21
-3.84409
0
LINE
8
BLACK
6
CONTINUOUS
10
6.32421
20
-3.84409
11
6.32421
21
-3.84408
0
LINE
8
BLACK
6
CONTINUOUS
10
6.32421
20
-3.84408
11
6.32421
21
-3.29292
0
LINE
8
BLACK
6
CONTINUOUS
10
6.32421
20
-3.29292
11
6.32421
21
-3.29291
0
LINE
8
BLACK
6
CONTINUOUS
10
6.32421
20
-3.29291
11
6.32422
21
-3.29287
0
LINE
8
BLACK
6
CONTINUOUS
10
6.32422
20
-3.29287
11
6.32423
21
-3.29283
0
LINE
8
BLACK
6
CONTINUOUS
10
6.32423
20
-3.29283
11
6.32424
21
-3.2928
0
LINE
8
BLACK
6
CONTINUOUS
10
6.32424
20
-3.2928
11
6.32427
21
-3.29277
0
LINE
8
BLACK
6
CONTINUOUS
10
6.32427
20
-3.29277
11
6.3243
21
-3.29274
0
LINE
8
BLACK
6
CONTINUOUS
10
6.3243
20
-3.29274
11
6.32433
21
-3.29273
0
LINE
8
BLACK
6
CONTINUOUS
10
6.32433
20
-3.29273
11
6.32437
21
-3.29272
0
LINE
8
BLACK
6
CONTINUOUS
10
6.32437
20
-3.29272
11
6.3244
21
-3.29271
0
LINE
8
BLACK
6
CONTINUOUS
10
6.3244
20
-3.29271
11
6.32441
21
-3.29271
0
LINE
8
BLACK
6
CONTINUOUS
10
6.32441
20
-3.29271
11
6.32442
21
-3.29271
0
LINE
8
BLACK
6
CONTINUOUS
10
6.32442
20
-3.29271
11
6.87558
21
-3.29271
0
LINE
8
BLACK
6
CONTINUOUS
10
6.87558
20
-3.29271
11
6.87559
21
-3.29271
0
LINE
8
BLACK
6
CONTINUOUS
10
6.87559
20
-3.29271
11
6.8756
21
-3.29271
0
LINE
8
BLACK
6
CONTINUOUS
10
6.32461
20
-3.29311
11
6.32461
21
-3.84389
0
LINE
8
BLACK
6
CONTINUOUS
10
6.32461
20
-3.84389
11
6.87539
21
-3.84389
0
LINE
8
BLACK
6
CONTINUOUS
10
6.87539
20
-3.84389
11
6.87539
21
-3.29311
0
LINE
8
BLACK
6
CONTINUOUS
10
6.87539
20
-3.29311
11
6.32461
21
-3.29311
0
LINE
8
BLACK
6
CONTINUOUS
10
6.1256
20
-3.21771
11
6.12563
21
-3.21772
0
LINE
8
BLACK
6
CONTINUOUS
10
6.12563
20
-3.21772
11
6.12567
21
-3.21773
0
LINE
8
BLACK
6
CONTINUOUS
10
6.12567
20
-3.21773
11
6.1257
21
-3.21774
0
LINE
8
BLACK
6
CONTINUOUS
10
6.1257
20
-3.21774
11
6.12573
21
-3.21777
0
LINE
8
BLACK
6
CONTINUOUS
10
6.12573
20
-3.21777
11
6.12575
21
-3.2178
0
LINE
8
BLACK
6
CONTINUOUS
10
6.12575
20
-3.2178
11
6.12577
21
-3.21783
0
LINE
8
BLACK
6
CONTINUOUS
10
6.12577
20
-3.21783
11
6.12578
21
-3.21787
0
LINE
8
BLACK
6
CONTINUOUS
10
6.12578
20
-3.21787
11
6.12579
21
-3.21791
0
LINE
8
BLACK
6
CONTINUOUS
10
6.12579
20
-3.21791
11
6.12579
21
-3.21792
0
LINE
8
BLACK
6
CONTINUOUS
10
6.12579
20
-3.21792
11
6.12579
21
-3.76908
0
LINE
8
BLACK
6
CONTINUOUS
10
6.12579
20
-3.76908
11
6.12579
21
-3.76909
0
LINE
8
BLACK
6
CONTINUOUS
10
6.12579
20
-3.76909
11
6.12578
21
-3.76913
0
LINE
8
BLACK
6
CONTINUOUS
10
6.12578
20
-3.76913
11
6.12577
21
-3.76917
0
LINE
8
BLACK
6
CONTINUOUS
10
6.12577
20
-3.76917
11
6.12575
21
-3.7692
0
LINE
8
BLACK
6
CONTINUOUS
10
6.12575
20
-3.7692
11
6.12573
21
-3.76923
0
LINE
8
BLACK
6
CONTINUOUS
10
6.12573
20
-3.76923
11
6.1257
21
-3.76925
0
LINE
8
BLACK
6
CONTINUOUS
10
6.1257
20
-3.76925
11
6.12567
21
-3.76927
0
LINE
8
BLACK
6
CONTINUOUS
10
6.12567
20
-3.76927
11
6.12563
21
-3.76928
0
LINE
8
BLACK
6
CONTINUOUS
10
6.12563
20
-3.76928
11
6.1256
21
-3.76929
0
LINE
8
BLACK
6
CONTINUOUS
10
6.1256
20
-3.76929
11
6.12559
21
-3.76929
0
LINE
8
BLACK
6
CONTINUOUS
10
6.12559
20
-3.76929
11
6.12558
21
-3.76929
0
LINE
8
BLACK
6
CONTINUOUS
10
6.12558
20
-3.76929
11
5.57442
21
-3.76929
0
LINE
8
BLACK
6
CONTINUOUS
10
5.57442
20
-3.76929
11
5.57441
21
-3.76929
0
LINE
8
BLACK
6
CONTINUOUS
10
5.57441
20
-3.76929
11
5.57437
21
-3.76928
0
LINE
8
BLACK
6
CONTINUOUS
10
5.57437
20
-3.76928
11
5.57433
21
-3.76927
0
LINE
8
BLACK
6
CONTINUOUS
10
5.57433
20
-3.76927
11
5.5743
21
-3.76925
0
LINE
8
BLACK
6
CONTINUOUS
10
5.5743
20
-3.76925
11
5.57427
21
-3.76923
0
LINE
8
BLACK
6
CONTINUOUS
10
5.57427
20
-3.76923
11
5.57424
21
-3.7692
0
LINE
8
BLACK
6
CONTINUOUS
10
5.57424
20
-3.7692
11
5.57423
21
-3.76917
0
LINE
8
BLACK
6
CONTINUOUS
10
5.57423
20
-3.76917
11
5.57422
21
-3.76913
0
LINE
8
BLACK
6
CONTINUOUS
10
5.57422
20
-3.76913
11
5.57421
21
-3.76909
0
LINE
8
BLACK
6
CONTINUOUS
10
5.57421
20
-3.76909
11
5.57421
21
-3.76908
0
LINE
8
BLACK
6
CONTINUOUS
10
5.57421
20
-3.76908
11
5.57421
21
-3.21792
0
LINE
8
BLACK
6
CONTINUOUS
10
5.57421
20
-3.21792
11
5.57421
21
-3.21791
0
LINE
8
BLACK
6
CONTINUOUS
10
5.57421
20
-3.21791
11
5.57422
21
-3.21787
0
LINE
8
BLACK
6
CONTINUOUS
10
5.57422
20
-3.21787
11
5.57423
21
-3.21783
0
LINE
8
BLACK
6
CONTINUOUS
10
5.57423
20
-3.21783
11
5.57424
21
-3.2178
0
LINE
8
BLACK
6
CONTINUOUS
10
5.57424
20
-3.2178
11
5.57427
21
-3.21777
0
LINE
8
BLACK
6
CONTINUOUS
10
5.57427
20
-3.21777
11
5.5743
21
-3.21774
0
LINE
8
BLACK
6
CONTINUOUS
10
5.5743
20
-3.21774
11
5.57433
21
-3.21773
0
LINE
8
BLACK
6
CONTINUOUS
10
5.57433
20
-3.21773
11
5.57437
21
-3.21772
0
LINE
8
BLACK
6
CONTINUOUS
10
5.57437
20
-3.21772
11
5.5744
21
-3.21771
0
LINE
8
BLACK
6
CONTINUOUS
10
5.5744
20
-3.21771
11
5.57441
21
-3.21771
0
LINE
8
BLACK
6
CONTINUOUS
10
5.57441
20
-3.21771
11
5.57442
21
-3.21771
0
LINE
8
BLACK
6
CONTINUOUS
10
5.57442
20
-3.21771
11
6.12558
21
-3.21771
0
LINE
8
BLACK
6
CONTINUOUS
10
6.12558
20
-3.21771
11
6.12559
21
-3.21771
0
LINE
8
BLACK
6
CONTINUOUS
10
6.12559
20
-3.21771
11
6.1256
21
-3.21771
0
LINE
8
BLACK
6
CONTINUOUS
10
5.57461
20
-3.21811
11
5.57461
21
-3.76889
0
LINE
8
BLACK
6
CONTINUOUS
10
5.57461
20
-3.76889
11
6.12539
21
-3.76889
0
LINE
8
BLACK
6
CONTINUOUS
10
6.12539
20
-3.76889
11
6.12539
21
-3.21811
0
LINE
8
BLACK
6
CONTINUOUS
10
6.12539
20
-3.21811
11
5.57461
21
-3.21811
0
LINE
8
BLACK
6
CONTINUOUS
10
4.6256
20
-2.76771
11
4.62563
21
-2.76772
0
LINE
8
BLACK
6
CONTINUOUS
10
4.62563
20
-2.76772
11
4.62567
21
-2.76773
0
LINE
8
BLACK
6
CONTINUOUS
10
4.62567
20
-2.76773
11
4.6257
21
-2.76775
0
LINE
8
BLACK
6
CONTINUOUS
10
4.6257
20
-2.76775
11
4.62573
21
-2.76777
0
LINE
8
BLACK
6
CONTINUOUS
10
4.62573
20
-2.76777
11
4.62575
21
-2.7678
0
LINE
8
BLACK
6
CONTINUOUS
10
4.62575
20
-2.7678
11
4.62577
21
-2.76783
0
LINE
8
BLACK
6
CONTINUOUS
10
4.62577
20
-2.76783
11
4.62578
21
-2.76787
0
LINE
8
BLACK
6
CONTINUOUS
10
4.62578
20
-2.76787
11
4.62579
21
-2.76791
0
LINE
8
BLACK
6
CONTINUOUS
10
4.62579
20
-2.76791
11
4.62579
21
-2.76792
0
LINE
8
BLACK
6
CONTINUOUS
10
4.62579
20
-2.76792
11
4.62579
21
-3.31908
0
LINE
8
BLACK
6
CONTINUOUS
10
4.62579
20
-3.31908
11
4.62579
21
-3.31909
0
LINE
8
BLACK
6
CONTINUOUS
10
4.62579
20
-3.31909
11
4.62578
21
-3.31913
0
LINE
8
BLACK
6
CONTINUOUS
10
4.62578
20
-3.31913
11
4.62577
21
-3.31917
0
LINE
8
BLACK
6
CONTINUOUS
10
4.62577
20
-3.31917
11
4.62575
21
-3.3192
0
LINE
8
BLACK
6
CONTINUOUS
10
4.62575
20
-3.3192
11
4.62573
21
-3.31923
0
LINE
8
BLACK
6
CONTINUOUS
10
4.62573
20
-3.31923
11
4.6257
21
-3.31926
0
LINE
8
BLACK
6
CONTINUOUS
10
4.6257
20
-3.31926
11
4.62567
21
-3.31927
0
LINE
8
BLACK
6
CONTINUOUS
10
4.62567
20
-3.31927
11
4.62563
21
-3.31928
0
LINE
8
BLACK
6
CONTINUOUS
10
4.62563
20
-3.31928
11
4.6256
21
-3.31929
0
LINE
8
BLACK
6
CONTINUOUS
10
4.6256
20
-3.31929
11
4.62559
21
-3.31929
0
LINE
8
BLACK
6
CONTINUOUS
10
4.62559
20
-3.31929
11
4.62558
21
-3.31929
0
LINE
8
BLACK
6
CONTINUOUS
10
4.62558
20
-3.31929
11
4.07442
21
-3.31929
0
LINE
8
BLACK
6
CONTINUOUS
10
4.07442
20
-3.31929
11
4.07441
21
-3.31929
0
LINE
8
BLACK
6
CONTINUOUS
10
4.07441
20
-3.31929
11
4.07437
21
-3.31928
0
LINE
8
BLACK
6
CONTINUOUS
10
4.07437
20
-3.31928
11
4.07433
21
-3.31927
0
LINE
8
BLACK
6
CONTINUOUS
10
4.07433
20
-3.31927
11
4.0743
21
-3.31926
0
LINE
8
BLACK
6
CONTINUOUS
10
4.0743
20
-3.31926
11
4.07427
21
-3.31923
0
LINE
8
BLACK
6
CONTINUOUS
10
4.07427
20
-3.31923
11
4.07427
21
-3.31923
0
LINE
8
BLACK
6
CONTINUOUS
10
4.07427
20
-3.31923
11
4.07424
21
-3.3192
0
LINE
8
BLACK
6
CONTINUOUS
10
4.07424
20
-3.3192
11
4.07423
21
-3.31917
0
LINE
8
BLACK
6
CONTINUOUS
10
4.07423
20
-3.31917
11
4.07422
21
-3.31913
0
LINE
8
BLACK
6
CONTINUOUS
10
4.07422
20
-3.31913
11
4.07421
21
-3.31909
0
LINE
8
BLACK
6
CONTINUOUS
10
4.07421
20
-3.31909
11
4.07421
21
-3.31908
0
LINE
8
BLACK
6
CONTINUOUS
10
4.07421
20
-3.31908
11
4.07421
21
-2.76792
0
LINE
8
BLACK
6
CONTINUOUS
10
4.07421
20
-2.76792
11
4.07421
21
-2.76791
0
LINE
8
BLACK
6
CONTINUOUS
10
4.07421
20
-2.76791
11
4.07422
21
-2.76787
0
LINE
8
BLACK
6
CONTINUOUS
10
4.07422
20
-2.76787
11
4.07423
21
-2.76783
0
LINE
8
BLACK
6
CONTINUOUS
10
4.07423
20
-2.76783
11
4.07424
21
-2.7678
0
LINE
8
BLACK
6
CONTINUOUS
10
4.07424
20
-2.7678
11
4.07427
21
-2.76777
0
LINE
8
BLACK
6
CONTINUOUS
10
4.07427
20
-2.76777
11
4.0743
21
-2.76775
0
LINE
8
BLACK
6
CONTINUOUS
10
4.0743
20
-2.76775
11
4.07433
21
-2.76773
0
LINE
8
BLACK
6
CONTINUOUS
10
4.07433
20
-2.76773
11
4.07437
21
-2.76772
0
LINE
8
BLACK
6
CONTINUOUS
10
4.07437
20
-2.76772
11
4.0744
21
-2.76771
0
LINE
8
BLACK
6
CONTINUOUS
10
4.0744
20
-2.76771
11
4.07441
21
-2.76771
0
LINE
8
BLACK
6
CONTINUOUS
10
4.07441
20
-2.76771
11
4.07442
21
-2.76771
0
LINE
8
BLACK
6
CONTINUOUS
10
4.07442
20
-2.76771
11
4.62558
21
-2.76771
0
LINE
8
BLACK
6
CONTINUOUS
10
4.62558
20
-2.76771
11
4.62559
21
-2.76771
0
LINE
8
BLACK
6
CONTINUOUS
10
4.62559
20
-2.76771
11
4.6256
21
-2.76771
0
LINE
8
BLACK
6
CONTINUOUS
10
4.07461
20
-2.76811
11
4.07461
21
-3.31889
0
LINE
8
BLACK
6
CONTINUOUS
10
4.07461
20
-3.31889
11
4.62539
21
-3.31889
0
LINE
8
BLACK
6
CONTINUOUS
10
4.62539
20
-3.31889
11
4.62539
21
-2.76811
0
LINE
8
BLACK
6
CONTINUOUS
10
4.62539
20
-2.76811
11
4.07461
21
-2.76811
0
LINE
8
BLACK
6
CONTINUOUS
10
3.8756
20
-2.76771
11
3.87563
21
-2.76772
0
LINE
8
BLACK
6
CONTINUOUS
10
3.87563
20
-2.76772
11
3.87567
21
-2.76773
0
LINE
8
BLACK
6
CONTINUOUS
10
3.87567
20
-2.76773
11
3.8757
21
-2.76774
0
LINE
8
BLACK
6
CONTINUOUS
10
3.8757
20
-2.76774
11
3.87573
21
-2.76777
0
LINE
8
BLACK
6
CONTINUOUS
10
3.87573
20
-2.76777
11
3.87576
21
-2.7678
0
LINE
8
BLACK
6
CONTINUOUS
10
3.87576
20
-2.7678
11
3.87577
21
-2.76783
0
LINE
8
BLACK
6
CONTINUOUS
10
3.87577
20
-2.76783
11
3.87578
21
-2.76787
0
LINE
8
BLACK
6
CONTINUOUS
10
3.87578
20
-2.76787
11
3.87579
21
-2.76791
0
LINE
8
BLACK
6
CONTINUOUS
10
3.87579
20
-2.76791
11
3.87579
21
-2.76792
0
LINE
8
BLACK
6
CONTINUOUS
10
3.87579
20
-2.76792
11
3.87579
21
-3.31908
0
LINE
8
BLACK
6
CONTINUOUS
10
3.87579
20
-3.31908
11
3.87579
21
-3.31909
0
LINE
8
BLACK
6
CONTINUOUS
10
3.87579
20
-3.31909
11
3.87578
21
-3.31913
0
LINE
8
BLACK
6
CONTINUOUS
10
3.87578
20
-3.31913
11
3.87577
21
-3.31917
0
LINE
8
BLACK
6
CONTINUOUS
10
3.87577
20
-3.31917
11
3.87576
21
-3.3192
0
LINE
8
BLACK
6
CONTINUOUS
10
3.87576
20
-3.3192
11
3.87573
21
-3.31923
0
LINE
8
BLACK
6
CONTINUOUS
10
3.87573
20
-3.31923
11
3.8757
21
-3.31925
0
LINE
8
BLACK
6
CONTINUOUS
10
3.8757
20
-3.31925
11
3.87567
21
-3.31927
0
LINE
8
BLACK
6
CONTINUOUS
10
3.87567
20
-3.31927
11
3.87563
21
-3.31928
0
LINE
8
BLACK
6
CONTINUOUS
10
3.87563
20
-3.31928
11
3.8756
21
-3.31929
0
LINE
8
BLACK
6
CONTINUOUS
10
3.8756
20
-3.31929
11
3.87559
21
-3.31929
0
LINE
8
BLACK
6
CONTINUOUS
10
3.87559
20
-3.31929
11
3.87558
21
-3.31929
0
LINE
8
BLACK
6
CONTINUOUS
10
3.87558
20
-3.31929
11
3.32442
21
-3.31929
0
LINE
8
BLACK
6
CONTINUOUS
10
3.32442
20
-3.31929
11
3.32441
21
-3.31929
0
LINE
8
BLACK
6
CONTINUOUS
10
3.32441
20
-3.31929
11
3.32437
21
-3.31928
0
LINE
8
BLACK
6
CONTINUOUS
10
3.32437
20
-3.31928
11
3.32433
21
-3.31927
0
LINE
8
BLACK
6
CONTINUOUS
10
3.32433
20
-3.31927
11
3.3243
21
-3.31925
0
LINE
8
BLACK
6
CONTINUOUS
10
3.3243
20
-3.31925
11
3.32427
21
-3.31923
0
LINE
8
BLACK
6
CONTINUOUS
10
3.32427
20
-3.31923
11
3.32425
21
-3.3192
0
LINE
8
BLACK
6
CONTINUOUS
10
3.32425
20
-3.3192
11
3.32423
21
-3.31917
0
LINE
8
BLACK
6
CONTINUOUS
10
3.32423
20
-3.31917
11
3.32422
21
-3.31913
0
LINE
8
BLACK
6
CONTINUOUS
10
3.32422
20
-3.31913
11
3.32421
21
-3.31909
0
LINE
8
BLACK
6
CONTINUOUS
10
3.32421
20
-3.31909
11
3.32421
21
-3.31908
0
LINE
8
BLACK
6
CONTINUOUS
10
3.32421
20
-3.31908
11
3.32421
21
-2.76792
0
LINE
8
BLACK
6
CONTINUOUS
10
3.32421
20
-2.76792
11
3.32421
21
-2.76791
0
LINE
8
BLACK
6
CONTINUOUS
10
3.32421
20
-2.76791
11
3.32422
21
-2.76787
0
LINE
8
BLACK
6
CONTINUOUS
10
3.32422
20
-2.76787
11
3.32423
21
-2.76783
0
LINE
8
BLACK
6
CONTINUOUS
10
3.32423
20
-2.76783
11
3.32425
21
-2.7678
0
LINE
8
BLACK
6
CONTINUOUS
10
3.32425
20
-2.7678
11
3.32427
21
-2.76777
0
LINE
8
BLACK
6
CONTINUOUS
10
3.32427
20
-2.76777
11
3.3243
21
-2.76774
0
LINE
8
BLACK
6
CONTINUOUS
10
3.3243
20
-2.76774
11
3.32433
21
-2.76773
0
LINE
8
BLACK
6
CONTINUOUS
10
3.32433
20
-2.76773
11
3.32437
21
-2.76772
0
LINE
8
BLACK
6
CONTINUOUS
10
3.32437
20
-2.76772
11
3.3244
21
-2.76771
0
LINE
8
BLACK
6
CONTINUOUS
10
3.3244
20
-2.76771
11
3.32441
21
-2.76771
0
LINE
8
BLACK
6
CONTINUOUS
10
3.32441
20
-2.76771
11
3.32442
21
-2.76771
0
LINE
8
BLACK
6
CONTINUOUS
10
3.32442
20
-2.76771
11
3.87558
21
-2.76771
0
LINE
8
BLACK
6
CONTINUOUS
10
3.87558
20
-2.76771
11
3.87559
21
-2.76771
0
LINE
8
BLACK
6
CONTINUOUS
10
3.87559
20
-2.76771
11
3.8756
21
-2.76771
0
LINE
8
BLACK
6
CONTINUOUS
10
3.32461
20
-2.76811
11
3.32461
21
-3.31889
0
LINE
8
BLACK
6
CONTINUOUS
10
3.32461
20
-3.31889
11
3.87539
21
-3.31889
0
LINE
8
BLACK
6
CONTINUOUS
10
3.87539
20
-3.31889
11
3.87539
21
-2.76811
0
LINE
8
BLACK
6
CONTINUOUS
10
3.87539
20
-2.76811
11
3.32461
21
-2.76811
0
LINE
8
BLACK
6
CONTINUOUS
10
7.6256
20
-2.61771
11
7.62563
21
-2.61772
0
LINE
8
BLACK
6
CONTINUOUS
10
7.62563
20
-2.61772
11
7.62567
21
-2.61773
0
LINE
8
BLACK
6
CONTINUOUS
10
7.62567
20
-2.61773
11
7.6257
21
-2.61774
0
LINE
8
BLACK
6
CONTINUOUS
10
7.6257
20
-2.61774
11
7.62573
21
-2.61777
0
LINE
8
BLACK
6
CONTINUOUS
10
7.62573
20
-2.61777
11
7.62575
21
-2.6178
0
LINE
8
BLACK
6
CONTINUOUS
10
7.62575
20
-2.6178
11
7.62577
21
-2.61783
0
LINE
8
BLACK
6
CONTINUOUS
10
7.62577
20
-2.61783
11
7.62578
21
-2.61787
0
LINE
8
BLACK
6
CONTINUOUS
10
7.62578
20
-2.61787
11
7.62579
21
-2.61791
0
LINE
8
BLACK
6
CONTINUOUS
10
7.62579
20
-2.61791
11
7.62579
21
-2.61792
0
LINE
8
BLACK
6
CONTINUOUS
10
7.62579
20
-2.61792
11
7.62579
21
-3.16908
0
LINE
8
BLACK
6
CONTINUOUS
10
7.62579
20
-3.16908
11
7.62579
21
-3.16909
0
LINE
8
BLACK
6
CONTINUOUS
10
7.62579
20
-3.16909
11
7.62578
21
-3.16913
0
LINE
8
BLACK
6
CONTINUOUS
10
7.62578
20
-3.16913
11
7.62577
21
-3.16917
0
LINE
8
BLACK
6
CONTINUOUS
10
7.62577
20
-3.16917
11
7.62575
21
-3.1692
0
LINE
8
BLACK
6
CONTINUOUS
10
7.62575
20
-3.1692
11
7.62573
21
-3.16923
0
LINE
8
BLACK
6
CONTINUOUS
10
7.62573
20
-3.16923
11
7.6257
21
-3.16925
0
LINE
8
BLACK
6
CONTINUOUS
10
7.6257
20
-3.16925
11
7.62567
21
-3.16927
0
LINE
8
BLACK
6
CONTINUOUS
10
7.62567
20
-3.16927
11
7.62563
21
-3.16928
0
LINE
8
BLACK
6
CONTINUOUS
10
7.62563
20
-3.16928
11
7.6256
21
-3.16929
0
LINE
8
BLACK
6
CONTINUOUS
10
7.6256
20
-3.16929
11
7.62559
21
-3.16929
0
LINE
8
BLACK
6
CONTINUOUS
10
7.62559
20
-3.16929
11
7.62558
21
-3.16929
0
LINE
8
BLACK
6
CONTINUOUS
10
7.62558
20
-3.16929
11
7.07442
21
-3.16929
0
LINE
8
BLACK
6
CONTINUOUS
10
7.07442
20
-3.16929
11
7.07441
21
-3.16929
0
LINE
8
BLACK
6
CONTINUOUS
10
7.07441
20
-3.16929
11
7.07437
21
-3.16928
0
LINE
8
BLACK
6
CONTINUOUS
10
7.07437
20
-3.16928
11
7.07433
21
-3.16927
0
LINE
8
BLACK
6
CONTINUOUS
10
7.07433
20
-3.16927
11
7.0743
21
-3.16925
0
LINE
8
BLACK
6
CONTINUOUS
10
7.0743
20
-3.16925
11
7.07427
21
-3.16923
0
LINE
8
BLACK
6
CONTINUOUS
10
7.07427
20
-3.16923
11
7.07424
21
-3.1692
0
LINE
8
BLACK
6
CONTINUOUS
10
7.07424
20
-3.1692
11
7.07423
21
-3.16917
0
LINE
8
BLACK
6
CONTINUOUS
10
7.07423
20
-3.16917
11
7.07422
21
-3.16913
0
LINE
8
BLACK
6
CONTINUOUS
10
7.07422
20
-3.16913
11
7.07421
21
-3.16909
0
LINE
8
BLACK
6
CONTINUOUS
10
7.07421
20
-3.16909
11
7.07421
21
-3.16908
0
LINE
8
BLACK
6
CONTINUOUS
10
7.07421
20
-3.16908
11
7.07421
21
-2.61792
0
LINE
8
BLACK
6
CONTINUOUS
10
7.07421
20
-2.61792
11
7.07421
21
-2.61791
0
LINE
8
BLACK
6
CONTINUOUS
10
7.07421
20
-2.61791
11
7.07422
21
-2.61787
0
LINE
8
BLACK
6
CONTINUOUS
10
7.07422
20
-2.61787
11
7.07423
21
-2.61783
0
LINE
8
BLACK
6
CONTINUOUS
10
7.07423
20
-2.61783
11
7.07424
21
-2.6178
0
LINE
8
BLACK
6
CONTINUOUS
10
7.07424
20
-2.6178
11
7.07427
21
-2.61777
0
LINE
8
BLACK
6
CONTINUOUS
10
7.07427
20
-2.61777
11
7.0743
21
-2.61774
0
LINE
8
BLACK
6
CONTINUOUS
10
7.0743
20
-2.61774
11
7.07433
21
-2.61773
0
LINE
8
BLACK
6
CONTINUOUS
10
7.07433
20
-2.61773
11
7.07437
21
-2.61772
0
LINE
8
BLACK
6
CONTINUOUS
10
7.07437
20
-2.61772
11
7.0744
21
-2.61771
0
LINE
8
BLACK
6
CONTINUOUS
10
7.0744
20
-2.61771
11
7.07441
21
-2.61771
0
LINE
8
BLACK
6
CONTINUOUS
10
7.07441
20
-2.61771
11
7.07442
21
-2.61771
0
LINE
8
BLACK
6
CONTINUOUS
10
7.07442
20
-2.61771
11
7.62558
21
-2.61771
0
LINE
8
BLACK
6
CONTINUOUS
10
7.62558
20
-2.61771
11
7.62559
21
-2.61771
0
LINE
8
BLACK
6
CONTINUOUS
10
7.62559
20
-2.61771
11
7.6256
21
-2.61771
0
LINE
8
BLACK
6
CONTINUOUS
10
7.07461
20
-2.61811
11
7.07461
21
-3.16889
0
LINE
8
BLACK
6
CONTINUOUS
10
7.07461
20
-3.16889
11
7.62539
21
-3.16889
0
LINE
8
BLACK
6
CONTINUOUS
10
7.62539
20
-3.16889
11
7.62539
21
-2.61811
0
LINE
8
BLACK
6
CONTINUOUS
10
7.62539
20
-2.61811
11
7.07461
21
-2.61811
0
LINE
8
BLACK
6
CONTINUOUS
10
5.3756
20
-2.56771
11
5.37563
21
-2.56772
0
LINE
8
BLACK
6
CONTINUOUS
10
5.37563
20
-2.56772
11
5.37567
21
-2.56773
0
LINE
8
BLACK
6
CONTINUOUS
10
5.37567
20
-2.56773
11
5.3757
21
-2.56774
0
LINE
8
BLACK
6
CONTINUOUS
10
5.3757
20
-2.56774
11
5.37573
21
-2.56777
0
LINE
8
BLACK
6
CONTINUOUS
10
5.37573
20
-2.56777
11
5.37575
21
-2.5678
0
LINE
8
BLACK
6
CONTINUOUS
10
5.37575
20
-2.5678
11
5.37577
21
-2.56783
0
LINE
8
BLACK
6
CONTINUOUS
10
5.37577
20
-2.56783
11
5.37578
21
-2.56787
0
LINE
8
BLACK
6
CONTINUOUS
10
5.37578
20
-2.56787
11
5.37579
21
-2.56791
0
LINE
8
BLACK
6
CONTINUOUS
10
5.37579
20
-2.56791
11
5.37579
21
-2.56792
0
LINE
8
BLACK
6
CONTINUOUS
10
5.37579
20
-2.56792
11
5.37579
21
-3.11908
0
LINE
8
BLACK
6
CONTINUOUS
10
5.37579
20
-3.11908
11
5.37579
21
-3.11909
0
LINE
8
BLACK
6
CONTINUOUS
10
5.37579
20
-3.11909
11
5.37578
21
-3.11913
0
LINE
8
BLACK
6
CONTINUOUS
10
5.37578
20
-3.11913
11
5.37577
21
-3.11917
0
LINE
8
BLACK
6
CONTINUOUS
10
5.37577
20
-3.11917
11
5.37575
21
-3.1192
0
LINE
8
BLACK
6
CONTINUOUS
10
5.37575
20
-3.1192
11
5.37573
21
-3.11923
0
LINE
8
BLACK
6
CONTINUOUS
10
5.37573
20
-3.11923
11
5.3757
21
-3.11925
0
LINE
8
BLACK
6
CONTINUOUS
10
5.3757
20
-3.11925
11
5.37567
21
-3.11927
0
LINE
8
BLACK
6
CONTINUOUS
10
5.37567
20
-3.11927
11
5.37563
21
-3.11928
0
LINE
8
BLACK
6
CONTINUOUS
10
5.37563
20
-3.11928
11
5.3756
21
-3.11929
0
LINE
8
BLACK
6
CONTINUOUS
10
5.3756
20
-3.11929
11
5.37559
21
-3.11929
0
LINE
8
BLACK
6
CONTINUOUS
10
5.37559
20
-3.11929
11
5.37558
21
-3.11929
0
LINE
8
BLACK
6
CONTINUOUS
10
5.37558
20
-3.11929
11
4.82442
21
-3.11929
0
LINE
8
BLACK
6
CONTINUOUS
10
4.82442
20
-3.11929
11
4.82441
21
-3.11929
0
LINE
8
BLACK
6
CONTINUOUS
10
4.82441
20
-3.11929
11
4.82437
21
-3.11928
0
LINE
8
BLACK
6
CONTINUOUS
10
4.82437
20
-3.11928
11
4.82433
21
-3.11927
0
LINE
8
BLACK
6
CONTINUOUS
10
4.82433
20
-3.11927
11
4.8243
21
-3.11925
0
LINE
8
BLACK
6
CONTINUOUS
10
4.8243
20
-3.11925
11
4.82427
21
-3.11923
0
LINE
8
BLACK
6
CONTINUOUS
10
4.82427
20
-3.11923
11
4.82424
21
-3.1192
0
LINE
8
BLACK
6
CONTINUOUS
10
4.82424
20
-3.1192
11
4.82423
21
-3.11917
0
LINE
8
BLACK
6
CONTINUOUS
10
4.82423
20
-3.11917
11
4.82422
21
-3.11913
0
LINE
8
BLACK
6
CONTINUOUS
10
4.82422
20
-3.11913
11
4.82421
21
-3.11909
0
LINE
8
BLACK
6
CONTINUOUS
10
4.82421
20
-3.11909
11
4.82421
21
-3.11908
0
LINE
8
BLACK
6
CONTINUOUS
10
4.82421
20
-3.11908
11
4.82421
21
-2.56792
0
LINE
8
BLACK
6
CONTINUOUS
10
4.82421
20
-2.56792
11
4.82421
21
-2.56791
0
LINE
8
BLACK
6
CONTINUOUS
10
4.82421
20
-2.56791
11
4.82422
21
-2.56787
0
LINE
8
BLACK
6
CONTINUOUS
10
4.82422
20
-2.56787
11
4.82423
21
-2.56783
0
LINE
8
BLACK
6
CONTINUOUS
10
4.82423
20
-2.56783
11
4.82424
21
-2.5678
0
LINE
8
BLACK
6
CONTINUOUS
10
4.82424
20
-2.5678
11
4.82427
21
-2.56777
0
LINE
8
BLACK
6
CONTINUOUS
10
4.82427
20
-2.56777
11
4.8243
21
-2.56774
0
LINE
8
BLACK
6
CONTINUOUS
10
4.8243
20
-2.56774
11
4.82433
21
-2.56773
0
LINE
8
BLACK
6
CONTINUOUS
10
4.82433
20
-2.56773
11
4.82437
21
-2.56772
0
LINE
8
BLACK
6
CONTINUOUS
10
4.82437
20
-2.56772
11
4.8244
21
-2.56771
0
LINE
8
BLACK
6
CONTINUOUS
10
4.8244
20
-2.56771
11
4.82441
21
-2.56771
0
LINE
8
BLACK
6
CONTINUOUS
10
4.82441
20
-2.56771
11
4.82442
21
-2.56771
0
LINE
8
BLACK
6
CONTINUOUS
10
4.82442
20
-2.56771
11
5.37558
21
-2.56771
0
LINE
8
BLACK
6
CONTINUOUS
10
5.37558
20
-2.56771
11
5.37559
21
-2.56771
0
LINE
8
BLACK
6
CONTINUOUS
10
5.37559
20
-2.56771
11
5.3756
21
-2.56771
0
LINE
8
BLACK
6
CONTINUOUS
10
4.82461
20
-2.56811
11
4.82461
21
-3.11889
0
LINE
8
BLACK
6
CONTINUOUS
10
4.82461
20
-3.11889
11
5.37539
21
-3.11889
0
LINE
8
BLACK
6
CONTINUOUS
10
5.37539
20
-3.11889
11
5.37539
21
-2.56811
0
LINE
8
BLACK
6
CONTINUOUS
10
5.37539
20
-2.56811
11
4.82461
21
-2.56811
0
LINE
8
BLACK
6
CONTINUOUS
10
6.8756
20
-2.54271
11
6.87563
21
-2.54272
0
LINE
8
BLACK
6
CONTINUOUS
10
6.87563
20
-2.54272
11
6.87567
21
-2.54273
0
LINE
8
BLACK
6
CONTINUOUS
10
6.87567
20
-2.54273
11
6.8757
21
-2.54275
0
LINE
8
BLACK
6
CONTINUOUS
10
6.8757
20
-2.54275
11
6.87573
21
-2.54277
0
LINE
8
BLACK
6
CONTINUOUS
10
6.87573
20
-2.54277
11
6.87575
21
-2.5428
0
LINE
8
BLACK
6
CONTINUOUS
10
6.87575
20
-2.5428
11
6.87577
21
-2.54283
0
LINE
8
BLACK
6
CONTINUOUS
10
6.87577
20
-2.54283
11
6.87578
21
-2.54287
0
LINE
8
BLACK
6
CONTINUOUS
10
6.87578
20
-2.54287
11
6.87579
21
-2.54291
0
LINE
8
BLACK
6
CONTINUOUS
10
6.87579
20
-2.54291
11
6.87579
21
-2.54292
0
LINE
8
BLACK
6
CONTINUOUS
10
6.87579
20
-2.54292
11
6.87579
21
-3.09408
0
LINE
8
BLACK
6
CONTINUOUS
10
6.87579
20
-3.09408
11
6.87579
21
-3.09409
0
LINE
8
BLACK
6
CONTINUOUS
10
6.87579
20
-3.09409
11
6.87578
21
-3.09413
0
LINE
8
BLACK
6
CONTINUOUS
10
6.87578
20
-3.09413
11
6.87577
21
-3.09417
0
LINE
8
BLACK
6
CONTINUOUS
10
6.87577
20
-3.09417
11
6.87575
21
-3.0942
0
LINE
8
BLACK
6
CONTINUOUS
10
6.87575
20
-3.0942
11
6.87573
21
-3.09423
0
LINE
8
BLACK
6
CONTINUOUS
10
6.87573
20
-3.09423
11
6.8757
21
-3.09425
0
LINE
8
BLACK
6
CONTINUOUS
10
6.8757
20
-3.09425
11
6.87567
21
-3.09427
0
LINE
8
BLACK
6
CONTINUOUS
10
6.87567
20
-3.09427
11
6.87563
21
-3.09428
0
LINE
8
BLACK
6
CONTINUOUS
10
6.87563
20
-3.09428
11
6.8756
21
-3.09429
0
LINE
8
BLACK
6
CONTINUOUS
10
6.8756
20
-3.09429
11
6.87559
21
-3.09429
0
LINE
8
BLACK
6
CONTINUOUS
10
6.87559
20
-3.09429
11
6.87558
21
-3.09429
0
LINE
8
BLACK
6
CONTINUOUS
10
6.87558
20
-3.09429
11
6.32442
21
-3.09429
0
LINE
8
BLACK
6
CONTINUOUS
10
6.32442
20
-3.09429
11
6.32441
21
-3.09429
0
LINE
8
BLACK
6
CONTINUOUS
10
6.32441
20
-3.09429
11
6.32437
21
-3.09428
0
LINE
8
BLACK
6
CONTINUOUS
10
6.32437
20
-3.09428
11
6.32433
21
-3.09427
0
LINE
8
BLACK
6
CONTINUOUS
10
6.32433
20
-3.09427
11
6.3243
21
-3.09425
0
LINE
8
BLACK
6
CONTINUOUS
10
6.3243
20
-3.09425
11
6.32427
21
-3.09423
0
LINE
8
BLACK
6
CONTINUOUS
10
6.32427
20
-3.09423
11
6.32424
21
-3.0942
0
LINE
8
BLACK
6
CONTINUOUS
10
6.32424
20
-3.0942
11
6.32423
21
-3.09417
0
LINE
8
BLACK
6
CONTINUOUS
10
6.32423
20
-3.09417
11
6.32422
21
-3.09413
0
LINE
8
BLACK
6
CONTINUOUS
10
6.32422
20
-3.09413
11
6.32421
21
-3.09409
0
LINE
8
BLACK
6
CONTINUOUS
10
6.32421
20
-3.09409
11
6.32421
21
-3.09408
0
LINE
8
BLACK
6
CONTINUOUS
10
6.32421
20
-3.09408
11
6.32421
21
-2.54292
0
LINE
8
BLACK
6
CONTINUOUS
10
6.32421
20
-2.54292
11
6.32421
21
-2.54291
0
LINE
8
BLACK
6
CONTINUOUS
10
6.32421
20
-2.54291
11
6.32422
21
-2.54287
0
LINE
8
BLACK
6
CONTINUOUS
10
6.32422
20
-2.54287
11
6.32423
21
-2.54283
0
LINE
8
BLACK
6
CONTINUOUS
10
6.32423
20
-2.54283
11
6.32424
21
-2.5428
0
LINE
8
BLACK
6
CONTINUOUS
10
6.32424
20
-2.5428
11
6.32427
21
-2.54277
0
LINE
8
BLACK
6
CONTINUOUS
10
6.32427
20
-2.54277
11
6.3243
21
-2.54275
0
LINE
8
BLACK
6
CONTINUOUS
10
6.3243
20
-2.54275
11
6.32433
21
-2.54273
0
LINE
8
BLACK
6
CONTINUOUS
10
6.32433
20
-2.54273
11
6.32437
21
-2.54272
0
LINE
8
BLACK
6
CONTINUOUS
10
6.32437
20
-2.54272
11
6.3244
21
-2.54271
0
LINE
8
BLACK
6
CONTINUOUS
10
6.3244
20
-2.54271
11
6.32441
21
-2.54271
0
LINE
8
BLACK
6
CONTINUOUS
10
6.32441
20
-2.54271
11
6.32442
21
-2.54271
0
LINE
8
BLACK
6
CONTINUOUS
10
6.32442
20
-2.54271
11
6.87558
21
-2.54271
0
LINE
8
BLACK
6
CONTINUOUS
10
6.87558
20
-2.54271
11
6.87559
21
-2.54271
0
LINE
8
BLACK
6
CONTINUOUS
10
6.87559
20
-2.54271
11
6.8756
21
-2.54271
0
LINE
8
BLACK
6
CONTINUOUS
10
6.32461
20
-2.54311
11
6.32461
21
-3.09389
0
LINE
8
BLACK
6
CONTINUOUS
10
6.32461
20
-3.09389
11
6.87539
21
-3.09389
0
LINE
8
BLACK
6
CONTINUOUS
10
6.87539
20
-3.09389
11
6.87539
21
-2.54311
0
LINE
8
BLACK
6
CONTINUOUS
10
6.87539
20
-2.54311
11
6.32461
21
-2.54311
0
LINE
8
BLACK
6
CONTINUOUS
10
6.1256
20
-2.46771
11
6.12563
21
-2.46772
0
LINE
8
BLACK
6
CONTINUOUS
10
6.12563
20
-2.46772
11
6.12567
21
-2.46773
0
LINE
8
BLACK
6
CONTINUOUS
10
6.12567
20
-2.46773
11
6.1257
21
-2.46774
0
LINE
8
BLACK
6
CONTINUOUS
10
6.1257
20
-2.46774
11
6.12573
21
-2.46777
0
LINE
8
BLACK
6
CONTINUOUS
10
6.12573
20
-2.46777
11
6.12575
21
-2.4678
0
LINE
8
BLACK
6
CONTINUOUS
10
6.12575
20
-2.4678
11
6.12577
21
-2.46783
0
LINE
8
BLACK
6
CONTINUOUS
10
6.12577
20
-2.46783
11
6.12578
21
-2.46787
0
LINE
8
BLACK
6
CONTINUOUS
10
6.12578
20
-2.46787
11
6.12579
21
-2.46791
0
LINE
8
BLACK
6
CONTINUOUS
10
6.12579
20
-2.46791
11
6.12579
21
-2.46792
0
LINE
8
BLACK
6
CONTINUOUS
10
6.12579
20
-2.46792
11
6.12579
21
-3.01908
0
LINE
8
BLACK
6
CONTINUOUS
10
6.12579
20
-3.01908
11
6.12579
21
-3.01909
0
LINE
8
BLACK
6
CONTINUOUS
10
6.12579
20
-3.01909
11
6.12578
21
-3.01913
0
LINE
8
BLACK
6
CONTINUOUS
10
6.12578
20
-3.01913
11
6.12577
21
-3.01917
0
LINE
8
BLACK
6
CONTINUOUS
10
6.12577
20
-3.01917
11
6.12575
21
-3.0192
0
LINE
8
BLACK
6
CONTINUOUS
10
6.12575
20
-3.0192
11
6.12573
21
-3.01923
0
LINE
8
BLACK
6
CONTINUOUS
10
6.12573
20
-3.01923
11
6.1257
21
-3.01925
0
LINE
8
BLACK
6
CONTINUOUS
10
6.1257
20
-3.01925
11
6.12567
21
-3.01927
0
LINE
8
BLACK
6
CONTINUOUS
10
6.12567
20
-3.01927
11
6.12563
21
-3.01928
0
LINE
8
BLACK
6
CONTINUOUS
10
6.12563
20
-3.01928
11
6.1256
21
-3.01929
0
LINE
8
BLACK
6
CONTINUOUS
10
6.1256
20
-3.01929
11
6.12559
21
-3.01929
0
LINE
8
BLACK
6
CONTINUOUS
10
6.12559
20
-3.01929
11
6.12558
21
-3.01929
0
LINE
8
BLACK
6
CONTINUOUS
10
6.12558
20
-3.01929
11
5.57442
21
-3.01929
0
LINE
8
BLACK
6
CONTINUOUS
10
5.57442
20
-3.01929
11
5.57441
21
-3.01929
0
LINE
8
BLACK
6
CONTINUOUS
10
5.57441
20
-3.01929
11
5.57437
21
-3.01928
0
LINE
8
BLACK
6
CONTINUOUS
10
5.57437
20
-3.01928
11
5.57433
21
-3.01927
0
LINE
8
BLACK
6
CONTINUOUS
10
5.57433
20
-3.01927
11
5.5743
21
-3.01925
0
LINE
8
BLACK
6
CONTINUOUS
10
5.5743
20
-3.01925
11
5.57427
21
-3.01923
0
LINE
8
BLACK
6
CONTINUOUS
10
5.57427
20
-3.01923
11
5.57424
21
-3.0192
0
LINE
8
BLACK
6
CONTINUOUS
10
5.57424
20
-3.0192
11
5.57423
21
-3.01917
0
LINE
8
BLACK
6
CONTINUOUS
10
5.57423
20
-3.01917
11
5.57422
21
-3.01913
0
LINE
8
BLACK
6
CONTINUOUS
10
5.57422
20
-3.01913
11
5.57421
21
-3.01909
0
LINE
8
BLACK
6
CONTINUOUS
10
5.57421
20
-3.01909
11
5.57421
21
-3.01908
0
LINE
8
BLACK
6
CONTINUOUS
10
5.57421
20
-3.01908
11
5.57421
21
-2.46792
0
LINE
8
BLACK
6
CONTINUOUS
10
5.57421
20
-2.46792
11
5.57421
21
-2.46791
0
LINE
8
BLACK
6
CONTINUOUS
10
5.57421
20
-2.46791
11
5.57422
21
-2.46787
0
LINE
8
BLACK
6
CONTINUOUS
10
5.57422
20
-2.46787
11
5.57423
21
-2.46783
0
LINE
8
BLACK
6
CONTINUOUS
10
5.57423
20
-2.46783
11
5.57424
21
-2.4678
0
LINE
8
BLACK
6
CONTINUOUS
10
5.57424
20
-2.4678
11
5.57427
21
-2.46777
0
LINE
8
BLACK
6
CONTINUOUS
10
5.57427
20
-2.46777
11
5.5743
21
-2.46774
0
LINE
8
BLACK
6
CONTINUOUS
10
5.5743
20
-2.46774
11
5.57433
21
-2.46773
0
LINE
8
BLACK
6
CONTINUOUS
10
5.57433
20
-2.46773
11
5.57437
21
-2.46772
0
LINE
8
BLACK
6
CONTINUOUS
10
5.57437
20
-2.46772
11
5.5744
21
-2.46771
0
LINE
8
BLACK
6
CONTINUOUS
10
5.5744
20
-2.46771
11
5.57441
21
-2.46771
0
LINE
8
BLACK
6
CONTINUOUS
10
5.57441
20
-2.46771
11
5.57442
21
-2.46771
0
LINE
8
BLACK
6
CONTINUOUS
10
5.57442
20
-2.46771
11
6.12558
21
-2.46771
0
LINE
8
BLACK
6
CONTINUOUS
10
6.12558
20
-2.46771
11
6.12559
21
-2.46771
0
LINE
8
BLACK
6
CONTINUOUS
10
6.12559
20
-2.46771
11
6.1256
21
-2.46771
0
LINE
8
BLACK
6
CONTINUOUS
10
5.57461
20
-2.46811
11
5.57461
21
-3.01889
0
LINE
8
BLACK
6
CONTINUOUS
10
5.57461
20
-3.01889
11
6.12539
21
-3.01889
0
LINE
8
BLACK
6
CONTINUOUS
10
6.12539
20
-3.01889
11
6.12539
21
-2.46811
0
LINE
8
BLACK
6
CONTINUOUS
10
6.12539
20
-2.46811
11
5.57461
21
-2.46811
0
LINE
8
BLACK
6
CONTINUOUS
10
7.7685
20
-2.80768
11
7.76851
21
-2.80768
0
LINE
8
BLACK
6
CONTINUOUS
10
7.76851
20
-2.80768
11
7.76851
21
-2.80768
0
LINE
8
BLACK
6
CONTINUOUS
10
7.76851
20
-2.80768
11
7.76852
21
-2.80768
0
LINE
8
BLACK
6
CONTINUOUS
10
7.76852
20
-2.80768
11
7.76967
21
-2.80767
0
LINE
8
BLACK
6
CONTINUOUS
10
7.76967
20
-2.80767
11
7.76968
21
-2.80767
0
LINE
8
BLACK
6
CONTINUOUS
10
7.76968
20
-2.80767
11
7.84272
21
-2.80767
0
LINE
8
BLACK
6
CONTINUOUS
10
7.84272
20
-2.80767
11
7.84272
21
-2.05964
0
LINE
8
BLACK
6
CONTINUOUS
10
7.84272
20
-2.05964
11
7.76968
21
-2.05964
0
LINE
8
BLACK
6
CONTINUOUS
10
7.76968
20
-2.05964
11
7.76967
21
-2.05964
0
LINE
8
BLACK
6
CONTINUOUS
10
7.76967
20
-2.05964
11
7.76967
21
-2.05964
0
LINE
8
BLACK
6
CONTINUOUS
10
7.76967
20
-2.05964
11
7.75353
21
-2.05806
0
LINE
8
BLACK
6
CONTINUOUS
10
7.75353
20
-2.05806
11
7.75353
21
-2.05806
0
LINE
8
BLACK
6
CONTINUOUS
10
7.75353
20
-2.05806
11
7.75351
21
-2.05805
0
LINE
8
BLACK
6
CONTINUOUS
10
7.75351
20
-2.05805
11
7.75349
21
-2.05805
0
LINE
8
BLACK
6
CONTINUOUS
10
7.75349
20
-2.05805
11
7.73797
21
-2.05337
0
LINE
8
BLACK
6
CONTINUOUS
10
7.73797
20
-2.05337
11
7.73797
21
-2.05336
0
LINE
8
BLACK
6
CONTINUOUS
10
7.73797
20
-2.05336
11
7.73795
21
-2.05336
0
LINE
8
BLACK
6
CONTINUOUS
10
7.73795
20
-2.05336
11
7.73794
21
-2.05335
0
LINE
8
BLACK
6
CONTINUOUS
10
7.73794
20
-2.05335
11
7.72362
21
-2.04574
0
LINE
8
BLACK
6
CONTINUOUS
10
7.72362
20
-2.04574
11
7.72362
21
-2.04574
0
LINE
8
BLACK
6
CONTINUOUS
10
7.72362
20
-2.04574
11
7.7236
21
-2.04573
0
LINE
8
BLACK
6
CONTINUOUS
10
7.7236
20
-2.04573
11
7.72359
21
-2.04572
0
LINE
8
BLACK
6
CONTINUOUS
10
7.72359
20
-2.04572
11
7.71103
21
-2.03547
0
LINE
8
BLACK
6
CONTINUOUS
10
7.71103
20
-2.03547
11
7.71102
21
-2.03547
0
LINE
8
BLACK
6
CONTINUOUS
10
7.71102
20
-2.03547
11
7.71101
21
-2.03546
0
LINE
8
BLACK
6
CONTINUOUS
10
7.71101
20
-2.03546
11
7.711
21
-2.03544
0
LINE
8
BLACK
6
CONTINUOUS
10
7.711
20
-2.03544
11
7.70066
21
-2.02295
0
LINE
8
BLACK
6
CONTINUOUS
10
7.70066
20
-2.02295
11
7.70066
21
-2.02295
0
LINE
8
BLACK
6
CONTINUOUS
10
7.70066
20
-2.02295
11
7.70065
21
-2.02293
0
LINE
8
BLACK
6
CONTINUOUS
10
7.70065
20
-2.02293
11
7.70064
21
-2.02292
0
LINE
8
BLACK
6
CONTINUOUS
10
7.70064
20
-2.02292
11
7.69293
21
-2.00866
0
LINE
8
BLACK
6
CONTINUOUS
10
7.69293
20
-2.00866
11
7.69293
21
-2.00866
0
LINE
8
BLACK
6
CONTINUOUS
10
7.69293
20
-2.00866
11
7.69292
21
-2.00864
0
LINE
8
BLACK
6
CONTINUOUS
10
7.69292
20
-2.00864
11
7.69292
21
-2.00862
0
LINE
8
BLACK
6
CONTINUOUS
10
7.69292
20
-2.00862
11
7.68812
21
-1.99314
0
LINE
8
BLACK
6
CONTINUOUS
10
7.68812
20
-1.99314
11
7.68812
21
-1.99314
0
LINE
8
BLACK
6
CONTINUOUS
10
7.68812
20
-1.99314
11
7.68812
21
-1.99314
0
LINE
8
BLACK
6
CONTINUOUS
10
7.68812
20
-1.99314
11
7.68812
21
-1.99313
0
LINE
8
BLACK
6
CONTINUOUS
10
7.68812
20
-1.99313
11
7.68812
21
-1.99312
0
LINE
8
BLACK
6
CONTINUOUS
10
7.68812
20
-1.99312
11
7.68811
21
-1.9931
0
LINE
8
BLACK
6
CONTINUOUS
10
7.68811
20
-1.9931
11
7.68642
21
-1.97697
0
LINE
8
BLACK
6
CONTINUOUS
10
7.68642
20
-1.97697
11
7.68642
21
-1.97697
0
LINE
8
BLACK
6
CONTINUOUS
10
7.68642
20
-1.97697
11
7.68642
21
-1.97695
0
LINE
8
BLACK
6
CONTINUOUS
10
7.68642
20
-1.97695
11
7.68642
21
-1.97694
0
LINE
8
BLACK
6
CONTINUOUS
10
7.68642
20
-1.97694
11
7.68789
21
-1.96079
0
LINE
8
BLACK
6
CONTINUOUS
10
7.68789
20
-1.96079
11
7.68789
21
-1.96079
0
LINE
8
BLACK
6
CONTINUOUS
10
7.68789
20
-1.96079
11
7.68789
21
-1.96079
0
LINE
8
BLACK
6
CONTINUOUS
10
7.68789
20
-1.96079
11
7.68789
21
-1.96079
0
LINE
8
BLACK
6
CONTINUOUS
10
7.68789
20
-1.96079
11
7.68789
21
-1.96077
0
LINE
8
BLACK
6
CONTINUOUS
10
7.68789
20
-1.96077
11
7.6879
21
-1.96075
0
LINE
8
BLACK
6
CONTINUOUS
10
7.6879
20
-1.96075
11
7.69247
21
-1.9452
0
LINE
8
BLACK
6
CONTINUOUS
10
7.69247
20
-1.9452
11
7.69247
21
-1.9452
0
LINE
8
BLACK
6
CONTINUOUS
10
7.69247
20
-1.9452
11
7.69248
21
-1.94518
0
LINE
8
BLACK
6
CONTINUOUS
10
7.69248
20
-1.94518
11
7.69249
21
-1.94516
0
LINE
8
BLACK
6
CONTINUOUS
10
7.69249
20
-1.94516
11
7.7
21
-1.9308
0
LINE
8
BLACK
6
CONTINUOUS
10
7.7
20
-1.9308
11
7.7
21
-1.9308
0
LINE
8
BLACK
6
CONTINUOUS
10
7.7
20
-1.9308
11
7.7
21
-1.9308
0
LINE
8
BLACK
6
CONTINUOUS
10
7.7
20
-1.9308
11
7.7
21
-1.93079
0
LINE
8
BLACK
6
CONTINUOUS
10
7.7
20
-1.93079
11
7.70001
21
-1.93078
0
LINE
8
BLACK
6
CONTINUOUS
10
7.70001
20
-1.93078
11
7.70002
21
-1.93076
0
LINE
8
BLACK
6
CONTINUOUS
10
7.70002
20
-1.93076
11
7.71018
21
-1.91813
0
LINE
8
BLACK
6
CONTINUOUS
10
7.71018
20
-1.91813
11
7.71018
21
-1.91813
0
LINE
8
BLACK
6
CONTINUOUS
10
7.71018
20
-1.91813
11
7.71019
21
-1.91811
0
LINE
8
BLACK
6
CONTINUOUS
10
7.71019
20
-1.91811
11
7.71021
21
-1.9181
0
LINE
8
BLACK
6
CONTINUOUS
10
7.71021
20
-1.9181
11
7.72263
21
-1.90768
0
LINE
8
BLACK
6
CONTINUOUS
10
7.72263
20
-1.90768
11
7.72263
21
-1.90768
0
LINE
8
BLACK
6
CONTINUOUS
10
7.72263
20
-1.90768
11
7.72263
21
-1.90768
0
LINE
8
BLACK
6
CONTINUOUS
10
7.72263
20
-1.90768
11
7.72263
21
-1.90768
0
LINE
8
BLACK
6
CONTINUOUS
10
7.72263
20
-1.90768
11
7.72264
21
-1.90767
0
LINE
8
BLACK
6
CONTINUOUS
10
7.72264
20
-1.90767
11
7.72266
21
-1.90766
0
LINE
8
BLACK
6
CONTINUOUS
10
7.72266
20
-1.90766
11
7.73686
21
-1.89985
0
LINE
8
BLACK
6
CONTINUOUS
10
7.73686
20
-1.89985
11
7.73687
21
-1.89985
0
LINE
8
BLACK
6
CONTINUOUS
10
7.73687
20
-1.89985
11
7.73688
21
-1.89984
0
LINE
8
BLACK
6
CONTINUOUS
10
7.73688
20
-1.89984
11
7.7369
21
-1.89983
0
LINE
8
BLACK
6
CONTINUOUS
10
7.7369
20
-1.89983
11
7.75235
21
-1.89493
0
LINE
8
BLACK
6
CONTINUOUS
10
7.75235
20
-1.89493
11
7.75236
21
-1.89493
0
LINE
8
BLACK
6
CONTINUOUS
10
7.75236
20
-1.89493
11
7.75238
21
-1.89493
0
LINE
8
BLACK
6
CONTINUOUS
10
7.75238
20
-1.89493
11
7.75239
21
-1.89492
0
LINE
8
BLACK
6
CONTINUOUS
10
7.75239
20
-1.89492
11
7.75239
21
-1.89492
0
LINE
8
BLACK
6
CONTINUOUS
10
7.75239
20
-1.89492
11
7.75239
21
-1.89492
0
LINE
8
BLACK
6
CONTINUOUS
10
7.75239
20
-1.89492
11
7.7685
21
-1.89312
0
LINE
8
BLACK
6
CONTINUOUS
10
7.7685
20
-1.89312
11
7.76851
21
-1.89312
0
LINE
8
BLACK
6
CONTINUOUS
10
7.76851
20
-1.89312
11
7.76851
21
-1.89312
0
LINE
8
BLACK
6
CONTINUOUS
10
7.76851
20
-1.89312
11
7.76852
21
-1.89311
0
LINE
8
BLACK
6
CONTINUOUS
10
7.76852
20
-1.89311
11
7.76967
21
-1.89311
0
LINE
8
BLACK
6
CONTINUOUS
10
7.76967
20
-1.89311
11
7.76968
21
-1.89311
0
LINE
8
BLACK
6
CONTINUOUS
10
7.76968
20
-1.89311
11
8.61101
21
-1.89311
0
LINE
8
BLACK
6
CONTINUOUS
10
8.61101
20
-1.89311
11
8.61102
21
-1.89311
0
LINE
8
BLACK
6
CONTINUOUS
10
8.61102
20
-1.89311
11
8.61106
21
-1.89311
0
LINE
8
BLACK
6
CONTINUOUS
10
8.61106
20
-1.89311
11
8.6111
21
-1.89312
0
LINE
8
BLACK
6
CONTINUOUS
10
8.6111
20
-1.89312
11
8.61113
21
-1.89314
0
LINE
8
BLACK
6
CONTINUOUS
10
8.61113
20
-1.89314
11
8.61116
21
-1.89316
0
LINE
8
BLACK
6
CONTINUOUS
10
8.61116
20
-1.89316
11
8.61119
21
-1.89319
0
LINE
8
BLACK
6
CONTINUOUS
10
8.61119
20
-1.89319
11
8.61121
21
-1.89323
0
LINE
8
BLACK
6
CONTINUOUS
10
8.61121
20
-1.89323
11
8.61122
21
-1.89326
0
LINE
8
BLACK
6
CONTINUOUS
10
8.61122
20
-1.89326
11
8.61122
21
-1.8933
0
LINE
8
BLACK
6
CONTINUOUS
10
8.61122
20
-1.8933
11
8.61122
21
-1.89331
0
LINE
8
BLACK
6
CONTINUOUS
10
8.61122
20
-1.89331
11
8.61122
21
-2.1185
0
LINE
8
BLACK
6
CONTINUOUS
10
8.61122
20
-2.1185
11
8.76239
21
-2.1185
0
LINE
8
BLACK
6
CONTINUOUS
10
8.76239
20
-2.1185
11
8.7624
21
-2.1185
0
LINE
8
BLACK
6
CONTINUOUS
10
8.7624
20
-2.1185
11
8.76241
21
-2.1185
0
LINE
8
BLACK
6
CONTINUOUS
10
8.76241
20
-2.1185
11
8.76244
21
-2.1185
0
LINE
8
BLACK
6
CONTINUOUS
10
8.76244
20
-2.1185
11
8.76248
21
-2.11851
0
LINE
8
BLACK
6
CONTINUOUS
10
8.76248
20
-2.11851
11
8.76251
21
-2.11853
0
LINE
8
BLACK
6
CONTINUOUS
10
8.76251
20
-2.11853
11
8.76254
21
-2.11856
0
LINE
8
BLACK
6
CONTINUOUS
10
8.76254
20
-2.11856
11
8.76257
21
-2.11859
0
LINE
8
BLACK
6
CONTINUOUS
10
8.76257
20
-2.11859
11
8.76258
21
-2.11862
0
LINE
8
BLACK
6
CONTINUOUS
10
8.76258
20
-2.11862
11
8.7626
21
-2.11866
0
LINE
8
BLACK
6
CONTINUOUS
10
8.7626
20
-2.11866
11
8.7626
21
-2.1187
0
LINE
8
BLACK
6
CONTINUOUS
10
8.7626
20
-2.1187
11
8.7626
21
-2.11871
0
LINE
8
BLACK
6
CONTINUOUS
10
8.7626
20
-2.11871
11
8.7626
21
-2.74861
0
LINE
8
BLACK
6
CONTINUOUS
10
8.7626
20
-2.74861
11
8.7626
21
-2.74862
0
LINE
8
BLACK
6
CONTINUOUS
10
8.7626
20
-2.74862
11
8.7626
21
-2.74866
0
LINE
8
BLACK
6
CONTINUOUS
10
8.7626
20
-2.74866
11
8.76258
21
-2.74869
0
LINE
8
BLACK
6
CONTINUOUS
10
8.76258
20
-2.74869
11
8.76257
21
-2.74873
0
LINE
8
BLACK
6
CONTINUOUS
10
8.76257
20
-2.74873
11
8.76254
21
-2.74876
0
LINE
8
BLACK
6
CONTINUOUS
10
8.76254
20
-2.74876
11
8.76251
21
-2.74878
0
LINE
8
BLACK
6
CONTINUOUS
10
8.76251
20
-2.74878
11
8.76248
21
-2.7488
0
LINE
8
BLACK
6
CONTINUOUS
10
8.76248
20
-2.7488
11
8.76244
21
-2.74881
0
LINE
8
BLACK
6
CONTINUOUS
10
8.76244
20
-2.74881
11
8.76241
21
-2.74881
0
LINE
8
BLACK
6
CONTINUOUS
10
8.76241
20
-2.74881
11
8.7624
21
-2.74882
0
LINE
8
BLACK
6
CONTINUOUS
10
8.7624
20
-2.74882
11
8.76239
21
-2.74881
0
LINE
8
BLACK
6
CONTINUOUS
10
8.76239
20
-2.74881
11
8.61122
21
-2.74881
0
LINE
8
BLACK
6
CONTINUOUS
10
8.61122
20
-2.74881
11
8.61122
21
-2.974
0
LINE
8
BLACK
6
CONTINUOUS
10
8.61122
20
-2.974
11
8.61122
21
-2.97401
0
LINE
8
BLACK
6
CONTINUOUS
10
8.61122
20
-2.97401
11
8.61122
21
-2.97405
0
LINE
8
BLACK
6
CONTINUOUS
10
8.61122
20
-2.97405
11
8.61121
21
-2.97409
0
LINE
8
BLACK
6
CONTINUOUS
10
8.61121
20
-2.97409
11
8.61119
21
-2.97412
0
LINE
8
BLACK
6
CONTINUOUS
10
8.61119
20
-2.97412
11
8.61116
21
-2.97415
0
LINE
8
BLACK
6
CONTINUOUS
10
8.61116
20
-2.97415
11
8.61113
21
-2.97418
0
LINE
8
BLACK
6
CONTINUOUS
10
8.61113
20
-2.97418
11
8.6111
21
-2.97419
0
LINE
8
BLACK
6
CONTINUOUS
10
8.6111
20
-2.97419
11
8.61106
21
-2.97421
0
LINE
8
BLACK
6
CONTINUOUS
10
8.61106
20
-2.97421
11
8.61103
21
-2.97421
0
LINE
8
BLACK
6
CONTINUOUS
10
8.61103
20
-2.97421
11
8.61102
21
-2.97421
0
LINE
8
BLACK
6
CONTINUOUS
10
8.61102
20
-2.97421
11
8.61101
21
-2.97421
0
LINE
8
BLACK
6
CONTINUOUS
10
8.61101
20
-2.97421
11
7.76968
21
-2.97421
0
LINE
8
BLACK
6
CONTINUOUS
10
7.76968
20
-2.97421
11
7.76965
21
-2.97421
0
LINE
8
BLACK
6
CONTINUOUS
10
7.76965
20
-2.97421
11
7.76965
21
-2.97421
0
LINE
8
BLACK
6
CONTINUOUS
10
7.76965
20
-2.97421
11
7.75353
21
-2.97263
0
LINE
8
BLACK
6
CONTINUOUS
10
7.75353
20
-2.97263
11
7.75353
21
-2.97263
0
LINE
8
BLACK
6
CONTINUOUS
10
7.75353
20
-2.97263
11
7.75351
21
-2.97262
0
LINE
8
BLACK
6
CONTINUOUS
10
7.75351
20
-2.97262
11
7.75349
21
-2.97262
0
LINE
8
BLACK
6
CONTINUOUS
10
7.75349
20
-2.97262
11
7.73797
21
-2.96793
0
LINE
8
BLACK
6
CONTINUOUS
10
7.73797
20
-2.96793
11
7.73797
21
-2.96793
0
LINE
8
BLACK
6
CONTINUOUS
10
7.73797
20
-2.96793
11
7.73795
21
-2.96792
0
LINE
8
BLACK
6
CONTINUOUS
10
7.73795
20
-2.96792
11
7.73794
21
-2.96792
0
LINE
8
BLACK
6
CONTINUOUS
10
7.73794
20
-2.96792
11
7.72362
21
-2.96031
0
LINE
8
BLACK
6
CONTINUOUS
10
7.72362
20
-2.96031
11
7.72362
21
-2.9603
0
LINE
8
BLACK
6
CONTINUOUS
10
7.72362
20
-2.9603
11
7.7236
21
-2.96029
0
LINE
8
BLACK
6
CONTINUOUS
10
7.7236
20
-2.96029
11
7.72359
21
-2.96028
0
LINE
8
BLACK
6
CONTINUOUS
10
7.72359
20
-2.96028
11
7.71103
21
-2.95004
0
LINE
8
BLACK
6
CONTINUOUS
10
7.71103
20
-2.95004
11
7.71102
21
-2.95004
0
LINE
8
BLACK
6
CONTINUOUS
10
7.71102
20
-2.95004
11
7.71101
21
-2.95002
0
LINE
8
BLACK
6
CONTINUOUS
10
7.71101
20
-2.95002
11
7.711
21
-2.95001
0
LINE
8
BLACK
6
CONTINUOUS
10
7.711
20
-2.95001
11
7.70066
21
-2.93752
0
LINE
8
BLACK
6
CONTINUOUS
10
7.70066
20
-2.93752
11
7.70066
21
-2.93752
0
LINE
8
BLACK
6
CONTINUOUS
10
7.70066
20
-2.93752
11
7.70065
21
-2.9375
0
LINE
8
BLACK
6
CONTINUOUS
10
7.70065
20
-2.9375
11
7.70064
21
-2.93749
0
LINE
8
BLACK
6
CONTINUOUS
10
7.70064
20
-2.93749
11
7.69293
21
-2.92323
0
LINE
8
BLACK
6
CONTINUOUS
10
7.69293
20
-2.92323
11
7.69293
21
-2.92322
0
LINE
8
BLACK
6
CONTINUOUS
10
7.69293
20
-2.92322
11
7.69292
21
-2.9232
0
LINE
8
BLACK
6
CONTINUOUS
10
7.69292
20
-2.9232
11
7.69292
21
-2.92319
0
LINE
8
BLACK
6
CONTINUOUS
10
7.69292
20
-2.92319
11
7.68812
21
-2.9077
0
LINE
8
BLACK
6
CONTINUOUS
10
7.68812
20
-2.9077
11
7.68812
21
-2.9077
0
LINE
8
BLACK
6
CONTINUOUS
10
7.68812
20
-2.9077
11
7.68812
21
-2.9077
0
LINE
8
BLACK
6
CONTINUOUS
10
7.68812
20
-2.9077
11
7.68812
21
-2.9077
0
LINE
8
BLACK
6
CONTINUOUS
10
7.68812
20
-2.9077
11
7.68812
21
-2.90768
0
LINE
8
BLACK
6
CONTINUOUS
10
7.68812
20
-2.90768
11
7.68811
21
-2.90767
0
LINE
8
BLACK
6
CONTINUOUS
10
7.68811
20
-2.90767
11
7.68642
21
-2.89154
0
LINE
8
BLACK
6
CONTINUOUS
10
7.68642
20
-2.89154
11
7.68642
21
-2.89154
0
LINE
8
BLACK
6
CONTINUOUS
10
7.68642
20
-2.89154
11
7.68642
21
-2.89152
0
LINE
8
BLACK
6
CONTINUOUS
10
7.68642
20
-2.89152
11
7.68642
21
-2.8915
0
LINE
8
BLACK
6
CONTINUOUS
10
7.68642
20
-2.8915
11
7.68789
21
-2.87536
0
LINE
8
BLACK
6
CONTINUOUS
10
7.68789
20
-2.87536
11
7.68789
21
-2.87536
0
LINE
8
BLACK
6
CONTINUOUS
10
7.68789
20
-2.87536
11
7.68789
21
-2.87536
0
LINE
8
BLACK
6
CONTINUOUS
10
7.68789
20
-2.87536
11
7.68789
21
-2.87535
0
LINE
8
BLACK
6
CONTINUOUS
10
7.68789
20
-2.87535
11
7.68789
21
-2.87534
0
LINE
8
BLACK
6
CONTINUOUS
10
7.68789
20
-2.87534
11
7.6879
21
-2.87532
0
LINE
8
BLACK
6
CONTINUOUS
10
7.6879
20
-2.87532
11
7.69247
21
-2.85977
0
LINE
8
BLACK
6
CONTINUOUS
10
7.69247
20
-2.85977
11
7.69247
21
-2.85976
0
LINE
8
BLACK
6
CONTINUOUS
10
7.69247
20
-2.85976
11
7.69248
21
-2.85975
0
LINE
8
BLACK
6
CONTINUOUS
10
7.69248
20
-2.85975
11
7.69249
21
-2.85973
0
LINE
8
BLACK
6
CONTINUOUS
10
7.69249
20
-2.85973
11
7.7
21
-2.84536
0
LINE
8
BLACK
6
CONTINUOUS
10
7.7
20
-2.84536
11
7.7
21
-2.84536
0
LINE
8
BLACK
6
CONTINUOUS
10
7.7
20
-2.84536
11
7.7
21
-2.84536
0
LINE
8
BLACK
6
CONTINUOUS
10
7.7
20
-2.84536
11
7.7
21
-2.84536
0
LINE
8
BLACK
6
CONTINUOUS
10
7.7
20
-2.84536
11
7.70001
21
-2.84535
0
LINE
8
BLACK
6
CONTINUOUS
10
7.70001
20
-2.84535
11
7.70002
21
-2.84533
0
LINE
8
BLACK
6
CONTINUOUS
10
7.70002
20
-2.84533
11
7.71018
21
-2.8327
0
LINE
8
BLACK
6
CONTINUOUS
10
7.71018
20
-2.8327
11
7.71018
21
-2.83269
0
LINE
8
BLACK
6
CONTINUOUS
10
7.71018
20
-2.83269
11
7.71019
21
-2.83268
0
LINE
8
BLACK
6
CONTINUOUS
10
7.71019
20
-2.83268
11
7.71021
21
-2.83267
0
LINE
8
BLACK
6
CONTINUOUS
10
7.71021
20
-2.83267
11
7.72263
21
-2.82225
0
LINE
8
BLACK
6
CONTINUOUS
10
7.72263
20
-2.82225
11
7.72263
21
-2.82225
0
LINE
8
BLACK
6
CONTINUOUS
10
7.72263
20
-2.82225
11
7.72263
21
-2.82225
0
LINE
8
BLACK
6
CONTINUOUS
10
7.72263
20
-2.82225
11
7.72263
21
-2.82225
0
LINE
8
BLACK
6
CONTINUOUS
10
7.72263
20
-2.82225
11
7.72264
21
-2.82224
0
LINE
8
BLACK
6
CONTINUOUS
10
7.72264
20
-2.82224
11
7.72266
21
-2.82223
0
LINE
8
BLACK
6
CONTINUOUS
10
7.72266
20
-2.82223
11
7.73686
21
-2.81442
0
LINE
8
BLACK
6
CONTINUOUS
10
7.73686
20
-2.81442
11
7.73687
21
-2.81441
0
LINE
8
BLACK
6
CONTINUOUS
10
7.73687
20
-2.81441
11
7.73688
21
-2.81441
0
LINE
8
BLACK
6
CONTINUOUS
10
7.73688
20
-2.81441
11
7.7369
21
-2.8144
0
LINE
8
BLACK
6
CONTINUOUS
10
7.7369
20
-2.8144
11
7.75235
21
-2.8095
0
LINE
8
BLACK
6
CONTINUOUS
10
7.75235
20
-2.8095
11
7.75236
21
-2.8095
0
LINE
8
BLACK
6
CONTINUOUS
10
7.75236
20
-2.8095
11
7.75238
21
-2.80949
0
LINE
8
BLACK
6
CONTINUOUS
10
7.75238
20
-2.80949
11
7.75239
21
-2.80949
0
LINE
8
BLACK
6
CONTINUOUS
10
7.75239
20
-2.80949
11
7.75239
21
-2.80949
0
LINE
8
BLACK
6
CONTINUOUS
10
7.75239
20
-2.80949
11
7.75239
21
-2.80949
0
LINE
8
BLACK
6
CONTINUOUS
10
7.75239
20
-2.80949
11
7.7685
21
-2.80768
0
LINE
8
BLACK
6
CONTINUOUS
10
7.76969
20
-1.8935
11
7.76969
21
-1.8935
0
LINE
8
BLACK
6
CONTINUOUS
10
7.76969
20
-1.8935
11
7.76854
21
-1.89351
0
LINE
8
BLACK
6
CONTINUOUS
10
7.76854
20
-1.89351
11
7.75245
21
-1.89531
0
LINE
8
BLACK
6
CONTINUOUS
10
7.75245
20
-1.89531
11
7.73704
21
-1.9002
0
LINE
8
BLACK
6
CONTINUOUS
10
7.73704
20
-1.9002
11
7.72286
21
-1.90799
0
LINE
8
BLACK
6
CONTINUOUS
10
7.72286
20
-1.90799
11
7.71047
21
-1.91839
0
LINE
8
BLACK
6
CONTINUOUS
10
7.71047
20
-1.91839
11
7.70034
21
-1.931
0
LINE
8
BLACK
6
CONTINUOUS
10
7.70034
20
-1.931
11
7.69285
21
-1.94533
0
LINE
8
BLACK
6
CONTINUOUS
10
7.69285
20
-1.94533
11
7.68828
21
-1.96085
0
LINE
8
BLACK
6
CONTINUOUS
10
7.68828
20
-1.96085
11
7.68681
21
-1.97695
0
LINE
8
BLACK
6
CONTINUOUS
10
7.68681
20
-1.97695
11
7.6885
21
-1.99304
0
LINE
8
BLACK
6
CONTINUOUS
10
7.6885
20
-1.99304
11
7.69329
21
-2.00849
0
LINE
8
BLACK
6
CONTINUOUS
10
7.69329
20
-2.00849
11
7.70098
21
-2.02272
0
LINE
8
BLACK
6
CONTINUOUS
10
7.70098
20
-2.02272
11
7.71129
21
-2.03518
0
LINE
8
BLACK
6
CONTINUOUS
10
7.71129
20
-2.03518
11
7.72382
21
-2.0454
0
LINE
8
BLACK
6
CONTINUOUS
10
7.72382
20
-2.0454
11
7.7381
21
-2.05299
0
LINE
8
BLACK
6
CONTINUOUS
10
7.7381
20
-2.05299
11
7.75359
21
-2.05767
0
LINE
8
BLACK
6
CONTINUOUS
10
7.75359
20
-2.05767
11
7.76969
21
-2.05925
0
LINE
8
BLACK
6
CONTINUOUS
10
7.76969
20
-2.05925
11
7.8429
21
-2.05925
0
LINE
8
BLACK
6
CONTINUOUS
10
7.8429
20
-2.05925
11
7.84291
21
-2.05925
0
LINE
8
BLACK
6
CONTINUOUS
10
7.84291
20
-2.05925
11
7.84292
21
-2.05925
0
LINE
8
BLACK
6
CONTINUOUS
10
7.84292
20
-2.05925
11
7.84295
21
-2.05925
0
LINE
8
BLACK
6
CONTINUOUS
10
7.84295
20
-2.05925
11
7.84299
21
-2.05926
0
LINE
8
BLACK
6
CONTINUOUS
10
7.84299
20
-2.05926
11
7.84302
21
-2.05928
0
LINE
8
BLACK
6
CONTINUOUS
10
7.84302
20
-2.05928
11
7.84305
21
-2.0593
0
LINE
8
BLACK
6
CONTINUOUS
10
7.84305
20
-2.0593
11
7.84308
21
-2.05933
0
LINE
8
BLACK
6
CONTINUOUS
10
7.84308
20
-2.05933
11
7.8431
21
-2.05937
0
LINE
8
BLACK
6
CONTINUOUS
10
7.8431
20
-2.05937
11
7.84311
21
-2.05941
0
LINE
8
BLACK
6
CONTINUOUS
10
7.84311
20
-2.05941
11
7.84311
21
-2.05944
0
LINE
8
BLACK
6
CONTINUOUS
10
7.84311
20
-2.05944
11
7.84311
21
-2.05945
0
LINE
8
BLACK
6
CONTINUOUS
10
7.84311
20
-2.05945
11
7.84311
21
-2.80786
0
LINE
8
BLACK
6
CONTINUOUS
10
7.84311
20
-2.80786
11
7.84311
21
-2.80787
0
LINE
8
BLACK
6
CONTINUOUS
10
7.84311
20
-2.80787
11
7.84311
21
-2.80791
0
LINE
8
BLACK
6
CONTINUOUS
10
7.84311
20
-2.80791
11
7.8431
21
-2.80795
0
LINE
8
BLACK
6
CONTINUOUS
10
7.8431
20
-2.80795
11
7.84308
21
-2.80798
0
LINE
8
BLACK
6
CONTINUOUS
10
7.84308
20
-2.80798
11
7.84305
21
-2.80801
0
LINE
8
BLACK
6
CONTINUOUS
10
7.84305
20
-2.80801
11
7.84302
21
-2.80803
0
LINE
8
BLACK
6
CONTINUOUS
10
7.84302
20
-2.80803
11
7.84299
21
-2.80805
0
LINE
8
BLACK
6
CONTINUOUS
10
7.84299
20
-2.80805
11
7.84295
21
-2.80806
0
LINE
8
BLACK
6
CONTINUOUS
10
7.84295
20
-2.80806
11
7.84292
21
-2.80807
0
LINE
8
BLACK
6
CONTINUOUS
10
7.84292
20
-2.80807
11
7.84291
21
-2.80807
0
LINE
8
BLACK
6
CONTINUOUS
10
7.84291
20
-2.80807
11
7.8429
21
-2.80807
0
LINE
8
BLACK
6
CONTINUOUS
10
7.8429
20
-2.80807
11
7.76969
21
-2.80807
0
LINE
8
BLACK
6
CONTINUOUS
10
7.76969
20
-2.80807
11
7.76854
21
-2.80808
0
LINE
8
BLACK
6
CONTINUOUS
10
7.76854
20
-2.80808
11
7.75245
21
-2.80988
0
LINE
8
BLACK
6
CONTINUOUS
10
7.75245
20
-2.80988
11
7.73704
21
-2.81477
0
LINE
8
BLACK
6
CONTINUOUS
10
7.73704
20
-2.81477
11
7.72286
21
-2.82256
0
LINE
8
BLACK
6
CONTINUOUS
10
7.72286
20
-2.82256
11
7.71047
21
-2.83296
0
LINE
8
BLACK
6
CONTINUOUS
10
7.71047
20
-2.83296
11
7.70034
21
-2.84556
0
LINE
8
BLACK
6
CONTINUOUS
10
7.70034
20
-2.84556
11
7.69285
21
-2.8599
0
LINE
8
BLACK
6
CONTINUOUS
10
7.69285
20
-2.8599
11
7.68828
21
-2.87541
0
LINE
8
BLACK
6
CONTINUOUS
10
7.68828
20
-2.87541
11
7.68681
21
-2.89152
0
LINE
8
BLACK
6
CONTINUOUS
10
7.68681
20
-2.89152
11
7.6885
21
-2.9076
0
LINE
8
BLACK
6
CONTINUOUS
10
7.6885
20
-2.9076
11
7.69329
21
-2.92306
0
LINE
8
BLACK
6
CONTINUOUS
10
7.69329
20
-2.92306
11
7.70098
21
-2.93728
0
LINE
8
BLACK
6
CONTINUOUS
10
7.70098
20
-2.93728
11
7.71129
21
-2.94975
0
LINE
8
BLACK
6
CONTINUOUS
10
7.71129
20
-2.94975
11
7.72382
21
-2.95997
0
LINE
8
BLACK
6
CONTINUOUS
10
7.72382
20
-2.95997
11
7.7381
21
-2.96756
0
LINE
8
BLACK
6
CONTINUOUS
10
7.7381
20
-2.96756
11
7.75359
21
-2.97224
0
LINE
8
BLACK
6
CONTINUOUS
10
7.75359
20
-2.97224
11
7.76969
21
-2.97381
0
LINE
8
BLACK
6
CONTINUOUS
10
7.76969
20
-2.97381
11
8.61083
21
-2.97381
0
LINE
8
BLACK
6
CONTINUOUS
10
8.61083
20
-2.97381
11
8.61083
21
-2.74863
0
LINE
8
BLACK
6
CONTINUOUS
10
8.61083
20
-2.74863
11
8.61083
21
-2.74862
0
LINE
8
BLACK
6
CONTINUOUS
10
8.61083
20
-2.74862
11
8.61083
21
-2.74858
0
LINE
8
BLACK
6
CONTINUOUS
10
8.61083
20
-2.74858
11
8.61084
21
-2.74854
0
LINE
8
BLACK
6
CONTINUOUS
10
8.61084
20
-2.74854
11
8.61086
21
-2.74851
0
LINE
8
BLACK
6
CONTINUOUS
10
8.61086
20
-2.74851
11
8.61088
21
-2.74848
0
LINE
8
BLACK
6
CONTINUOUS
10
8.61088
20
-2.74848
11
8.61091
21
-2.74845
0
LINE
8
BLACK
6
CONTINUOUS
10
8.61091
20
-2.74845
11
8.61095
21
-2.74844
0
LINE
8
BLACK
6
CONTINUOUS
10
8.61095
20
-2.74844
11
8.61098
21
-2.74842
0
LINE
8
BLACK
6
CONTINUOUS
10
8.61098
20
-2.74842
11
8.61101
21
-2.74842
0
LINE
8
BLACK
6
CONTINUOUS
10
8.61101
20
-2.74842
11
8.61102
21
-2.74842
0
LINE
8
BLACK
6
CONTINUOUS
10
8.61102
20
-2.74842
11
8.61103
21
-2.74842
0
LINE
8
BLACK
6
CONTINUOUS
10
8.61103
20
-2.74842
11
8.7622
21
-2.74842
0
LINE
8
BLACK
6
CONTINUOUS
10
8.7622
20
-2.74842
11
8.7622
21
-2.11889
0
LINE
8
BLACK
6
CONTINUOUS
10
8.7622
20
-2.11889
11
8.61103
21
-2.11889
0
LINE
8
BLACK
6
CONTINUOUS
10
8.61103
20
-2.11889
11
8.61102
21
-2.11889
0
LINE
8
BLACK
6
CONTINUOUS
10
8.61102
20
-2.11889
11
8.61098
21
-2.11889
0
LINE
8
BLACK
6
CONTINUOUS
10
8.61098
20
-2.11889
11
8.61095
21
-2.11888
0
LINE
8
BLACK
6
CONTINUOUS
10
8.61095
20
-2.11888
11
8.61091
21
-2.11886
0
LINE
8
BLACK
6
CONTINUOUS
10
8.61091
20
-2.11886
11
8.61088
21
-2.11884
0
LINE
8
BLACK
6
CONTINUOUS
10
8.61088
20
-2.11884
11
8.61086
21
-2.11881
0
LINE
8
BLACK
6
CONTINUOUS
10
8.61086
20
-2.11881
11
8.61084
21
-2.11877
0
LINE
8
BLACK
6
CONTINUOUS
10
8.61084
20
-2.11877
11
8.61083
21
-2.11874
0
LINE
8
BLACK
6
CONTINUOUS
10
8.61083
20
-2.11874
11
8.61083
21
-2.1187
0
LINE
8
BLACK
6
CONTINUOUS
10
8.61083
20
-2.1187
11
8.61083
21
-2.11869
0
LINE
8
BLACK
6
CONTINUOUS
10
8.61083
20
-2.11869
11
8.61083
21
-1.8935
0
LINE
8
BLACK
6
CONTINUOUS
10
8.61083
20
-1.8935
11
7.76969
21
-1.8935
0
LINE
8
BLACK
6
CONTINUOUS
10
3.8756
20
-2.01771
11
3.87563
21
-2.01772
0
LINE
8
BLACK
6
CONTINUOUS
10
3.87563
20
-2.01772
11
3.87567
21
-2.01773
0
LINE
8
BLACK
6
CONTINUOUS
10
3.87567
20
-2.01773
11
3.8757
21
-2.01775
0
LINE
8
BLACK
6
CONTINUOUS
10
3.8757
20
-2.01775
11
3.87573
21
-2.01777
0
LINE
8
BLACK
6
CONTINUOUS
10
3.87573
20
-2.01777
11
3.87575
21
-2.0178
0
LINE
8
BLACK
6
CONTINUOUS
10
3.87575
20
-2.0178
11
3.87577
21
-2.01783
0
LINE
8
BLACK
6
CONTINUOUS
10
3.87577
20
-2.01783
11
3.87578
21
-2.01787
0
LINE
8
BLACK
6
CONTINUOUS
10
3.87578
20
-2.01787
11
3.87579
21
-2.01791
0
LINE
8
BLACK
6
CONTINUOUS
10
3.87579
20
-2.01791
11
3.87579
21
-2.01792
0
LINE
8
BLACK
6
CONTINUOUS
10
3.87579
20
-2.01792
11
3.87579
21
-2.56908
0
LINE
8
BLACK
6
CONTINUOUS
10
3.87579
20
-2.56908
11
3.87579
21
-2.56909
0
LINE
8
BLACK
6
CONTINUOUS
10
3.87579
20
-2.56909
11
3.87578
21
-2.56913
0
LINE
8
BLACK
6
CONTINUOUS
10
3.87578
20
-2.56913
11
3.87577
21
-2.56917
0
LINE
8
BLACK
6
CONTINUOUS
10
3.87577
20
-2.56917
11
3.87575
21
-2.5692
0
LINE
8
BLACK
6
CONTINUOUS
10
3.87575
20
-2.5692
11
3.87573
21
-2.56923
0
LINE
8
BLACK
6
CONTINUOUS
10
3.87573
20
-2.56923
11
3.8757
21
-2.56926
0
LINE
8
BLACK
6
CONTINUOUS
10
3.8757
20
-2.56926
11
3.87567
21
-2.56927
0
LINE
8
BLACK
6
CONTINUOUS
10
3.87567
20
-2.56927
11
3.87563
21
-2.56928
0
LINE
8
BLACK
6
CONTINUOUS
10
3.87563
20
-2.56928
11
3.8756
21
-2.56929
0
LINE
8
BLACK
6
CONTINUOUS
10
3.8756
20
-2.56929
11
3.87559
21
-2.56929
0
LINE
8
BLACK
6
CONTINUOUS
10
3.87559
20
-2.56929
11
3.87558
21
-2.56929
0
LINE
8
BLACK
6
CONTINUOUS
10
3.87558
20
-2.56929
11
3.32442
21
-2.56929
0
LINE
8
BLACK
6
CONTINUOUS
10
3.32442
20
-2.56929
11
3.32441
21
-2.56929
0
LINE
8
BLACK
6
CONTINUOUS
10
3.32441
20
-2.56929
11
3.32437
21
-2.56928
0
LINE
8
BLACK
6
CONTINUOUS
10
3.32437
20
-2.56928
11
3.32433
21
-2.56927
0
LINE
8
BLACK
6
CONTINUOUS
10
3.32433
20
-2.56927
11
3.3243
21
-2.56926
0
LINE
8
BLACK
6
CONTINUOUS
10
3.3243
20
-2.56926
11
3.32427
21
-2.56923
0
LINE
8
BLACK
6
CONTINUOUS
10
3.32427
20
-2.56923
11
3.32427
21
-2.56923
0
LINE
8
BLACK
6
CONTINUOUS
10
3.32427
20
-2.56923
11
3.32424
21
-2.5692
0
LINE
8
BLACK
6
CONTINUOUS
10
3.32424
20
-2.5692
11
3.32423
21
-2.56917
0
LINE
8
BLACK
6
CONTINUOUS
10
3.32423
20
-2.56917
11
3.32422
21
-2.56913
0
LINE
8
BLACK
6
CONTINUOUS
10
3.32422
20
-2.56913
11
3.32421
21
-2.56909
0
LINE
8
BLACK
6
CONTINUOUS
10
3.32421
20
-2.56909
11
3.32421
21
-2.56908
0
LINE
8
BLACK
6
CONTINUOUS
10
3.32421
20
-2.56908
11
3.32421
21
-2.01792
0
LINE
8
BLACK
6
CONTINUOUS
10
3.32421
20
-2.01792
11
3.32421
21
-2.01791
0
LINE
8
BLACK
6
CONTINUOUS
10
3.32421
20
-2.01791
11
3.32422
21
-2.01787
0
LINE
8
BLACK
6
CONTINUOUS
10
3.32422
20
-2.01787
11
3.32423
21
-2.01783
0
LINE
8
BLACK
6
CONTINUOUS
10
3.32423
20
-2.01783
11
3.32424
21
-2.0178
0
LINE
8
BLACK
6
CONTINUOUS
10
3.32424
20
-2.0178
11
3.32427
21
-2.01777
0
LINE
8
BLACK
6
CONTINUOUS
10
3.32427
20
-2.01777
11
3.3243
21
-2.01775
0
LINE
8
BLACK
6
CONTINUOUS
10
3.3243
20
-2.01775
11
3.32433
21
-2.01773
0
LINE
8
BLACK
6
CONTINUOUS
10
3.32433
20
-2.01773
11
3.32437
21
-2.01772
0
LINE
8
BLACK
6
CONTINUOUS
10
3.32437
20
-2.01772
11
3.3244
21
-2.01771
0
LINE
8
BLACK
6
CONTINUOUS
10
3.3244
20
-2.01771
11
3.32441
21
-2.01771
0
LINE
8
BLACK
6
CONTINUOUS
10
3.32441
20
-2.01771
11
3.32442
21
-2.01771
0
LINE
8
BLACK
6
CONTINUOUS
10
3.32442
20
-2.01771
11
3.87558
21
-2.01771
0
LINE
8
BLACK
6
CONTINUOUS
10
3.87558
20
-2.01771
11
3.87559
21
-2.01771
0
LINE
8
BLACK
6
CONTINUOUS
10
3.87559
20
-2.01771
11
3.8756
21
-2.01771
0
LINE
8
BLACK
6
CONTINUOUS
10
3.32461
20
-2.01811
11
3.32461
21
-2.56889
0
LINE
8
BLACK
6
CONTINUOUS
10
3.32461
20
-2.56889
11
3.87539
21
-2.56889
0
LINE
8
BLACK
6
CONTINUOUS
10
3.87539
20
-2.56889
11
3.87539
21
-2.01811
0
LINE
8
BLACK
6
CONTINUOUS
10
3.87539
20
-2.01811
11
3.32461
21
-2.01811
0
LINE
8
BLACK
6
CONTINUOUS
10
4.6256
20
-2.01771
11
4.62563
21
-2.01772
0
LINE
8
BLACK
6
CONTINUOUS
10
4.62563
20
-2.01772
11
4.62567
21
-2.01773
0
LINE
8
BLACK
6
CONTINUOUS
10
4.62567
20
-2.01773
11
4.6257
21
-2.01774
0
LINE
8
BLACK
6
CONTINUOUS
10
4.6257
20
-2.01774
11
4.62573
21
-2.01777
0
LINE
8
BLACK
6
CONTINUOUS
10
4.62573
20
-2.01777
11
4.62575
21
-2.0178
0
LINE
8
BLACK
6
CONTINUOUS
10
4.62575
20
-2.0178
11
4.62577
21
-2.01783
0
LINE
8
BLACK
6
CONTINUOUS
10
4.62577
20
-2.01783
11
4.62578
21
-2.01787
0
LINE
8
BLACK
6
CONTINUOUS
10
4.62578
20
-2.01787
11
4.62579
21
-2.01791
0
LINE
8
BLACK
6
CONTINUOUS
10
4.62579
20
-2.01791
11
4.62579
21
-2.01792
0
LINE
8
BLACK
6
CONTINUOUS
10
4.62579
20
-2.01792
11
4.62579
21
-2.56908
0
LINE
8
BLACK
6
CONTINUOUS
10
4.62579
20
-2.56908
11
4.62579
21
-2.56909
0
LINE
8
BLACK
6
CONTINUOUS
10
4.62579
20
-2.56909
11
4.62578
21
-2.56913
0
LINE
8
BLACK
6
CONTINUOUS
10
4.62578
20
-2.56913
11
4.62577
21
-2.56917
0
LINE
8
BLACK
6
CONTINUOUS
10
4.62577
20
-2.56917
11
4.62575
21
-2.5692
0
LINE
8
BLACK
6
CONTINUOUS
10
4.62575
20
-2.5692
11
4.62573
21
-2.56923
0
LINE
8
BLACK
6
CONTINUOUS
10
4.62573
20
-2.56923
11
4.6257
21
-2.56925
0
LINE
8
BLACK
6
CONTINUOUS
10
4.6257
20
-2.56925
11
4.62567
21
-2.56927
0
LINE
8
BLACK
6
CONTINUOUS
10
4.62567
20
-2.56927
11
4.62563
21
-2.56928
0
LINE
8
BLACK
6
CONTINUOUS
10
4.62563
20
-2.56928
11
4.6256
21
-2.56929
0
LINE
8
BLACK
6
CONTINUOUS
10
4.6256
20
-2.56929
11
4.62559
21
-2.56929
0
LINE
8
BLACK
6
CONTINUOUS
10
4.62559
20
-2.56929
11
4.62558
21
-2.56929
0
LINE
8
BLACK
6
CONTINUOUS
10
4.62558
20
-2.56929
11
4.07442
21
-2.56929
0
LINE
8
BLACK
6
CONTINUOUS
10
4.07442
20
-2.56929
11
4.07441
21
-2.56929
0
LINE
8
BLACK
6
CONTINUOUS
10
4.07441
20
-2.56929
11
4.07437
21
-2.56928
0
LINE
8
BLACK
6
CONTINUOUS
10
4.07437
20
-2.56928
11
4.07433
21
-2.56927
0
LINE
8
BLACK
6
CONTINUOUS
10
4.07433
20
-2.56927
11
4.0743
21
-2.56925
0
LINE
8
BLACK
6
CONTINUOUS
10
4.0743
20
-2.56925
11
4.07427
21
-2.56923
0
LINE
8
BLACK
6
CONTINUOUS
10
4.07427
20
-2.56923
11
4.07424
21
-2.5692
0
LINE
8
BLACK
6
CONTINUOUS
10
4.07424
20
-2.5692
11
4.07423
21
-2.56917
0
LINE
8
BLACK
6
CONTINUOUS
10
4.07423
20
-2.56917
11
4.07422
21
-2.56913
0
LINE
8
BLACK
6
CONTINUOUS
10
4.07422
20
-2.56913
11
4.07421
21
-2.56909
0
LINE
8
BLACK
6
CONTINUOUS
10
4.07421
20
-2.56909
11
4.07421
21
-2.56908
0
LINE
8
BLACK
6
CONTINUOUS
10
4.07421
20
-2.56908
11
4.07421
21
-2.01792
0
LINE
8
BLACK
6
CONTINUOUS
10
4.07421
20
-2.01792
11
4.07421
21
-2.01791
0
LINE
8
BLACK
6
CONTINUOUS
10
4.07421
20
-2.01791
11
4.07422
21
-2.01787
0
LINE
8
BLACK
6
CONTINUOUS
10
4.07422
20
-2.01787
11
4.07423
21
-2.01783
0
LINE
8
BLACK
6
CONTINUOUS
10
4.07423
20
-2.01783
11
4.07424
21
-2.0178
0
LINE
8
BLACK
6
CONTINUOUS
10
4.07424
20
-2.0178
11
4.07427
21
-2.01777
0
LINE
8
BLACK
6
CONTINUOUS
10
4.07427
20
-2.01777
11
4.0743
21
-2.01774
0
LINE
8
BLACK
6
CONTINUOUS
10
4.0743
20
-2.01774
11
4.07433
21
-2.01773
0
LINE
8
BLACK
6
CONTINUOUS
10
4.07433
20
-2.01773
11
4.07437
21
-2.01772
0
LINE
8
BLACK
6
CONTINUOUS
10
4.07437
20
-2.01772
11
4.0744
21
-2.01771
0
LINE
8
BLACK
6
CONTINUOUS
10
4.0744
20
-2.01771
11
4.07441
21
-2.01771
0
LINE
8
BLACK
6
CONTINUOUS
10
4.07441
20
-2.01771
11
4.07442
21
-2.01771
0
LINE
8
BLACK
6
CONTINUOUS
10
4.07442
20
-2.01771
11
4.62558
21
-2.01771
0
LINE
8
BLACK
6
CONTINUOUS
10
4.62558
20
-2.01771
11
4.62559
21
-2.01771
0
LINE
8
BLACK
6
CONTINUOUS
10
4.62559
20
-2.01771
11
4.6256
21
-2.01771
0
LINE
8
BLACK
6
CONTINUOUS
10
4.07461
20
-2.01811
11
4.07461
21
-2.56889
0
LINE
8
BLACK
6
CONTINUOUS
10
4.07461
20
-2.56889
11
4.62539
21
-2.56889
0
LINE
8
BLACK
6
CONTINUOUS
10
4.62539
20
-2.56889
11
4.62539
21
-2.01811
0
LINE
8
BLACK
6
CONTINUOUS
10
4.62539
20
-2.01811
11
4.07461
21
-2.01811
0
LINE
8
BLACK
6
CONTINUOUS
10
7.6256
20
-1.86771
11
7.62563
21
-1.86772
0
LINE
8
BLACK
6
CONTINUOUS
10
7.62563
20
-1.86772
11
7.62567
21
-1.86773
0
LINE
8
BLACK
6
CONTINUOUS
10
7.62567
20
-1.86773
11
7.6257
21
-1.86774
0
LINE
8
BLACK
6
CONTINUOUS
10
7.6257
20
-1.86774
11
7.62573
21
-1.86777
0
LINE
8
BLACK
6
CONTINUOUS
10
7.62573
20
-1.86777
11
7.62575
21
-1.8678
0
LINE
8
BLACK
6
CONTINUOUS
10
7.62575
20
-1.8678
11
7.62577
21
-1.86783
0
LINE
8
BLACK
6
CONTINUOUS
10
7.62577
20
-1.86783
11
7.62578
21
-1.86787
0
LINE
8
BLACK
6
CONTINUOUS
10
7.62578
20
-1.86787
11
7.62579
21
-1.86791
0
LINE
8
BLACK
6
CONTINUOUS
10
7.62579
20
-1.86791
11
7.62579
21
-1.86792
0
LINE
8
BLACK
6
CONTINUOUS
10
7.62579
20
-1.86792
11
7.62579
21
-2.41908
0
LINE
8
BLACK
6
CONTINUOUS
10
7.62579
20
-2.41908
11
7.62579
21
-2.41909
0
LINE
8
BLACK
6
CONTINUOUS
10
7.62579
20
-2.41909
11
7.62578
21
-2.41913
0
LINE
8
BLACK
6
CONTINUOUS
10
7.62578
20
-2.41913
11
7.62577
21
-2.41917
0
LINE
8
BLACK
6
CONTINUOUS
10
7.62577
20
-2.41917
11
7.62575
21
-2.4192
0
LINE
8
BLACK
6
CONTINUOUS
10
7.62575
20
-2.4192
11
7.62573
21
-2.41923
0
LINE
8
BLACK
6
CONTINUOUS
10
7.62573
20
-2.41923
11
7.6257
21
-2.41925
0
LINE
8
BLACK
6
CONTINUOUS
10
7.6257
20
-2.41925
11
7.62567
21
-2.41927
0
LINE
8
BLACK
6
CONTINUOUS
10
7.62567
20
-2.41927
11
7.62563
21
-2.41928
0
LINE
8
BLACK
6
CONTINUOUS
10
7.62563
20
-2.41928
11
7.6256
21
-2.41929
0
LINE
8
BLACK
6
CONTINUOUS
10
7.6256
20
-2.41929
11
7.62559
21
-2.41929
0
LINE
8
BLACK
6
CONTINUOUS
10
7.62559
20
-2.41929
11
7.62558
21
-2.41929
0
LINE
8
BLACK
6
CONTINUOUS
10
7.62558
20
-2.41929
11
7.07442
21
-2.41929
0
LINE
8
BLACK
6
CONTINUOUS
10
7.07442
20
-2.41929
11
7.07441
21
-2.41929
0
LINE
8
BLACK
6
CONTINUOUS
10
7.07441
20
-2.41929
11
7.07437
21
-2.41928
0
LINE
8
BLACK
6
CONTINUOUS
10
7.07437
20
-2.41928
11
7.07433
21
-2.41927
0
LINE
8
BLACK
6
CONTINUOUS
10
7.07433
20
-2.41927
11
7.0743
21
-2.41925
0
LINE
8
BLACK
6
CONTINUOUS
10
7.0743
20
-2.41925
11
7.07427
21
-2.41923
0
LINE
8
BLACK
6
CONTINUOUS
10
7.07427
20
-2.41923
11
7.07424
21
-2.4192
0
LINE
8
BLACK
6
CONTINUOUS
10
7.07424
20
-2.4192
11
7.07423
21
-2.41917
0
LINE
8
BLACK
6
CONTINUOUS
10
7.07423
20
-2.41917
11
7.07422
21
-2.41913
0
LINE
8
BLACK
6
CONTINUOUS
10
7.07422
20
-2.41913
11
7.07421
21
-2.41909
0
LINE
8
BLACK
6
CONTINUOUS
10
7.07421
20
-2.41909
11
7.07421
21
-2.41908
0
LINE
8
BLACK
6
CONTINUOUS
10
7.07421
20
-2.41908
11
7.07421
21
-1.86792
0
LINE
8
BLACK
6
CONTINUOUS
10
7.07421
20
-1.86792
11
7.07421
21
-1.86791
0
LINE
8
BLACK
6
CONTINUOUS
10
7.07421
20
-1.86791
11
7.07422
21
-1.86787
0
LINE
8
BLACK
6
CONTINUOUS
10
7.07422
20
-1.86787
11
7.07423
21
-1.86783
0
LINE
8
BLACK
6
CONTINUOUS
10
7.07423
20
-1.86783
11
7.07424
21
-1.8678
0
LINE
8
BLACK
6
CONTINUOUS
10
7.07424
20
-1.8678
11
7.07427
21
-1.86777
0
LINE
8
BLACK
6
CONTINUOUS
10
7.07427
20
-1.86777
11
7.0743
21
-1.86774
0
LINE
8
BLACK
6
CONTINUOUS
10
7.0743
20
-1.86774
11
7.07433
21
-1.86773
0
LINE
8
BLACK
6
CONTINUOUS
10
7.07433
20
-1.86773
11
7.07437
21
-1.86772
0
LINE
8
BLACK
6
CONTINUOUS
10
7.07437
20
-1.86772
11
7.0744
21
-1.86771
0
LINE
8
BLACK
6
CONTINUOUS
10
7.0744
20
-1.86771
11
7.07441
21
-1.86771
0
LINE
8
BLACK
6
CONTINUOUS
10
7.07441
20
-1.86771
11
7.07442
21
-1.86771
0
LINE
8
BLACK
6
CONTINUOUS
10
7.07442
20
-1.86771
11
7.62558
21
-1.86771
0
LINE
8
BLACK
6
CONTINUOUS
10
7.62558
20
-1.86771
11
7.62559
21
-1.86771
0
LINE
8
BLACK
6
CONTINUOUS
10
7.62559
20
-1.86771
11
7.6256
21
-1.86771
0
LINE
8
BLACK
6
CONTINUOUS
10
7.07461
20
-1.86811
11
7.07461
21
-2.41889
0
LINE
8
BLACK
6
CONTINUOUS
10
7.07461
20
-2.41889
11
7.62539
21
-2.41889
0
LINE
8
BLACK
6
CONTINUOUS
10
7.62539
20
-2.41889
11
7.62539
21
-1.86811
0
LINE
8
BLACK
6
CONTINUOUS
10
7.62539
20
-1.86811
11
7.07461
21
-1.86811
0
LINE
8
BLACK
6
CONTINUOUS
10
5.3756
20
-1.81771
11
5.37563
21
-1.81772
0
LINE
8
BLACK
6
CONTINUOUS
10
5.37563
20
-1.81772
11
5.37567
21
-1.81773
0
LINE
8
BLACK
6
CONTINUOUS
10
5.37567
20
-1.81773
11
5.3757
21
-1.81775
0
LINE
8
BLACK
6
CONTINUOUS
10
5.3757
20
-1.81775
11
5.37573
21
-1.81777
0
LINE
8
BLACK
6
CONTINUOUS
10
5.37573
20
-1.81777
11
5.37575
21
-1.8178
0
LINE
8
BLACK
6
CONTINUOUS
10
5.37575
20
-1.8178
11
5.37577
21
-1.81783
0
LINE
8
BLACK
6
CONTINUOUS
10
5.37577
20
-1.81783
11
5.37578
21
-1.81787
0
LINE
8
BLACK
6
CONTINUOUS
10
5.37578
20
-1.81787
11
5.37579
21
-1.81791
0
LINE
8
BLACK
6
CONTINUOUS
10
5.37579
20
-1.81791
11
5.37579
21
-1.81792
0
LINE
8
BLACK
6
CONTINUOUS
10
5.37579
20
-1.81792
11
5.37579
21
-2.36908
0
LINE
8
BLACK
6
CONTINUOUS
10
5.37579
20
-2.36908
11
5.37579
21
-2.36909
0
LINE
8
BLACK
6
CONTINUOUS
10
5.37579
20
-2.36909
11
5.37578
21
-2.36913
0
LINE
8
BLACK
6
CONTINUOUS
10
5.37578
20
-2.36913
11
5.37577
21
-2.36917
0
LINE
8
BLACK
6
CONTINUOUS
10
5.37577
20
-2.36917
11
5.37575
21
-2.3692
0
LINE
8
BLACK
6
CONTINUOUS
10
5.37575
20
-2.3692
11
5.37573
21
-2.36923
0
LINE
8
BLACK
6
CONTINUOUS
10
5.37573
20
-2.36923
11
5.3757
21
-2.36926
0
LINE
8
BLACK
6
CONTINUOUS
10
5.3757
20
-2.36926
11
5.37567
21
-2.36927
0
LINE
8
BLACK
6
CONTINUOUS
10
5.37567
20
-2.36927
11
5.37563
21
-2.36928
0
LINE
8
BLACK
6
CONTINUOUS
10
5.37563
20
-2.36928
11
5.3756
21
-2.36929
0
LINE
8
BLACK
6
CONTINUOUS
10
5.3756
20
-2.36929
11
5.37559
21
-2.36929
0
LINE
8
BLACK
6
CONTINUOUS
10
5.37559
20
-2.36929
11
5.37558
21
-2.36929
0
LINE
8
BLACK
6
CONTINUOUS
10
5.37558
20
-2.36929
11
4.82442
21
-2.36929
0
LINE
8
BLACK
6
CONTINUOUS
10
4.82442
20
-2.36929
11
4.82441
21
-2.36929
0
LINE
8
BLACK
6
CONTINUOUS
10
4.82441
20
-2.36929
11
4.82437
21
-2.36928
0
LINE
8
BLACK
6
CONTINUOUS
10
4.82437
20
-2.36928
11
4.82433
21
-2.36927
0
LINE
8
BLACK
6
CONTINUOUS
10
4.82433
20
-2.36927
11
4.8243
21
-2.36926
0
LINE
8
BLACK
6
CONTINUOUS
10
4.8243
20
-2.36926
11
4.82427
21
-2.36923
0
LINE
8
BLACK
6
CONTINUOUS
10
4.82427
20
-2.36923
11
4.82424
21
-2.3692
0
LINE
8
BLACK
6
CONTINUOUS
10
4.82424
20
-2.3692
11
4.82423
21
-2.36917
0
LINE
8
BLACK
6
CONTINUOUS
10
4.82423
20
-2.36917
11
4.82422
21
-2.36913
0
LINE
8
BLACK
6
CONTINUOUS
10
4.82422
20
-2.36913
11
4.82421
21
-2.36909
0
LINE
8
BLACK
6
CONTINUOUS
10
4.82421
20
-2.36909
11
4.82421
21
-2.36908
0
LINE
8
BLACK
6
CONTINUOUS
10
4.82421
20
-2.36908
11
4.82421
21
-1.81792
0
LINE
8
BLACK
6
CONTINUOUS
10
4.82421
20
-1.81792
11
4.82421
21
-1.81791
0
LINE
8
BLACK
6
CONTINUOUS
10
4.82421
20
-1.81791
11
4.82422
21
-1.81787
0
LINE
8
BLACK
6
CONTINUOUS
10
4.82422
20
-1.81787
11
4.82423
21
-1.81783
0
LINE
8
BLACK
6
CONTINUOUS
10
4.82423
20
-1.81783
11
4.82424
21
-1.8178
0
LINE
8
BLACK
6
CONTINUOUS
10
4.82424
20
-1.8178
11
4.82427
21
-1.81777
0
LINE
8
BLACK
6
CONTINUOUS
10
4.82427
20
-1.81777
11
4.8243
21
-1.81775
0
LINE
8
BLACK
6
CONTINUOUS
10
4.8243
20
-1.81775
11
4.82433
21
-1.81773
0
LINE
8
BLACK
6
CONTINUOUS
10
4.82433
20
-1.81773
11
4.82437
21
-1.81772
0
LINE
8
BLACK
6
CONTINUOUS
10
4.82437
20
-1.81772
11
4.8244
21
-1.81771
0
LINE
8
BLACK
6
CONTINUOUS
10
4.8244
20
-1.81771
11
4.82441
21
-1.81771
0
LINE
8
BLACK
6
CONTINUOUS
10
4.82441
20
-1.81771
11
4.82442
21
-1.81771
0
LINE
8
BLACK
6
CONTINUOUS
10
4.82442
20
-1.81771
11
5.37558
21
-1.81771
0
LINE
8
BLACK
6
CONTINUOUS
10
5.37558
20
-1.81771
11
5.37559
21
-1.81771
0
LINE
8
BLACK
6
CONTINUOUS
10
5.37559
20
-1.81771
11
5.3756
21
-1.81771
0
LINE
8
BLACK
6
CONTINUOUS
10
4.82461
20
-1.81811
11
4.82461
21
-2.36889
0
LINE
8
BLACK
6
CONTINUOUS
10
4.82461
20
-2.36889
11
5.37539
21
-2.36889
0
LINE
8
BLACK
6
CONTINUOUS
10
5.37539
20
-2.36889
11
5.37539
21
-1.81811
0
LINE
8
BLACK
6
CONTINUOUS
10
5.37539
20
-1.81811
11
4.82461
21
-1.81811
0
LINE
8
BLACK
6
CONTINUOUS
10
6.8756
20
-1.79271
11
6.87563
21
-1.79272
0
LINE
8
BLACK
6
CONTINUOUS
10
6.87563
20
-1.79272
11
6.87567
21
-1.79273
0
LINE
8
BLACK
6
CONTINUOUS
10
6.87567
20
-1.79273
11
6.8757
21
-1.79275
0
LINE
8
BLACK
6
CONTINUOUS
10
6.8757
20
-1.79275
11
6.87573
21
-1.79277
0
LINE
8
BLACK
6
CONTINUOUS
10
6.87573
20
-1.79277
11
6.87575
21
-1.7928
0
LINE
8
BLACK
6
CONTINUOUS
10
6.87575
20
-1.7928
11
6.87577
21
-1.79283
0
LINE
8
BLACK
6
CONTINUOUS
10
6.87577
20
-1.79283
11
6.87578
21
-1.79287
0
LINE
8
BLACK
6
CONTINUOUS
10
6.87578
20
-1.79287
11
6.87579
21
-1.79291
0
LINE
8
BLACK
6
CONTINUOUS
10
6.87579
20
-1.79291
11
6.87579
21
-1.79292
0
LINE
8
BLACK
6
CONTINUOUS
10
6.87579
20
-1.79292
11
6.87579
21
-2.34408
0
LINE
8
BLACK
6
CONTINUOUS
10
6.87579
20
-2.34408
11
6.87579
21
-2.34409
0
LINE
8
BLACK
6
CONTINUOUS
10
6.87579
20
-2.34409
11
6.87578
21
-2.34413
0
LINE
8
BLACK
6
CONTINUOUS
10
6.87578
20
-2.34413
11
6.87577
21
-2.34417
0
LINE
8
BLACK
6
CONTINUOUS
10
6.87577
20
-2.34417
11
6.87575
21
-2.3442
0
LINE
8
BLACK
6
CONTINUOUS
10
6.87575
20
-2.3442
11
6.87573
21
-2.34423
0
LINE
8
BLACK
6
CONTINUOUS
10
6.87573
20
-2.34423
11
6.8757
21
-2.34425
0
LINE
8
BLACK
6
CONTINUOUS
10
6.8757
20
-2.34425
11
6.87567
21
-2.34427
0
LINE
8
BLACK
6
CONTINUOUS
10
6.87567
20
-2.34427
11
6.87563
21
-2.34428
0
LINE
8
BLACK
6
CONTINUOUS
10
6.87563
20
-2.34428
11
6.8756
21
-2.34429
0
LINE
8
BLACK
6
CONTINUOUS
10
6.8756
20
-2.34429
11
6.87559
21
-2.34429
0
LINE
8
BLACK
6
CONTINUOUS
10
6.87559
20
-2.34429
11
6.87558
21
-2.34429
0
LINE
8
BLACK
6
CONTINUOUS
10
6.87558
20
-2.34429
11
6.32442
21
-2.34429
0
LINE
8
BLACK
6
CONTINUOUS
10
6.32442
20
-2.34429
11
6.32441
21
-2.34429
0
LINE
8
BLACK
6
CONTINUOUS
10
6.32441
20
-2.34429
11
6.32437
21
-2.34428
0
LINE
8
BLACK
6
CONTINUOUS
10
6.32437
20
-2.34428
11
6.32433
21
-2.34427
0
LINE
8
BLACK
6
CONTINUOUS
10
6.32433
20
-2.34427
11
6.3243
21
-2.34425
0
LINE
8
BLACK
6
CONTINUOUS
10
6.3243
20
-2.34425
11
6.32427
21
-2.34423
0
LINE
8
BLACK
6
CONTINUOUS
10
6.32427
20
-2.34423
11
6.32424
21
-2.3442
0
LINE
8
BLACK
6
CONTINUOUS
10
6.32424
20
-2.3442
11
6.32423
21
-2.34417
0
LINE
8
BLACK
6
CONTINUOUS
10
6.32423
20
-2.34417
11
6.32422
21
-2.34413
0
LINE
8
BLACK
6
CONTINUOUS
10
6.32422
20
-2.34413
11
6.32421
21
-2.34409
0
LINE
8
BLACK
6
CONTINUOUS
10
6.32421
20
-2.34409
11
6.32421
21
-2.34408
0
LINE
8
BLACK
6
CONTINUOUS
10
6.32421
20
-2.34408
11
6.32421
21
-1.79292
0
LINE
8
BLACK
6
CONTINUOUS
10
6.32421
20
-1.79292
11
6.32421
21
-1.79291
0
LINE
8
BLACK
6
CONTINUOUS
10
6.32421
20
-1.79291
11
6.32422
21
-1.79287
0
LINE
8
BLACK
6
CONTINUOUS
10
6.32422
20
-1.79287
11
6.32423
21
-1.79283
0
LINE
8
BLACK
6
CONTINUOUS
10
6.32423
20
-1.79283
11
6.32424
21
-1.7928
0
LINE
8
BLACK
6
CONTINUOUS
10
6.32424
20
-1.7928
11
6.32427
21
-1.79277
0
LINE
8
BLACK
6
CONTINUOUS
10
6.32427
20
-1.79277
11
6.3243
21
-1.79275
0
LINE
8
BLACK
6
CONTINUOUS
10
6.3243
20
-1.79275
11
6.32433
21
-1.79273
0
LINE
8
BLACK
6
CONTINUOUS
10
6.32433
20
-1.79273
11
6.32437
21
-1.79272
0
LINE
8
BLACK
6
CONTINUOUS
10
6.32437
20
-1.79272
11
6.3244
21
-1.79271
0
LINE
8
BLACK
6
CONTINUOUS
10
6.3244
20
-1.79271
11
6.32441
21
-1.79271
0
LINE
8
BLACK
6
CONTINUOUS
10
6.32441
20
-1.79271
11
6.32442
21
-1.79271
0
LINE
8
BLACK
6
CONTINUOUS
10
6.32442
20
-1.79271
11
6.87558
21
-1.79271
0
LINE
8
BLACK
6
CONTINUOUS
10
6.87558
20
-1.79271
11
6.87559
21
-1.79271
0
LINE
8
BLACK
6
CONTINUOUS
10
6.87559
20
-1.79271
11
6.8756
21
-1.79271
0
LINE
8
BLACK
6
CONTINUOUS
10
6.32461
20
-1.79311
11
6.32461
21
-2.34389
0
LINE
8
BLACK
6
CONTINUOUS
10
6.32461
20
-2.34389
11
6.87539
21
-2.34389
0
LINE
8
BLACK
6
CONTINUOUS
10
6.87539
20
-2.34389
11
6.87539
21
-1.79311
0
LINE
8
BLACK
6
CONTINUOUS
10
6.87539
20
-1.79311
11
6.32461
21
-1.79311
0
LINE
8
BLACK
6
CONTINUOUS
10
6.1256
20
-1.71771
11
6.12563
21
-1.71772
0
LINE
8
BLACK
6
CONTINUOUS
10
6.12563
20
-1.71772
11
6.12567
21
-1.71773
0
LINE
8
BLACK
6
CONTINUOUS
10
6.12567
20
-1.71773
11
6.1257
21
-1.71774
0
LINE
8
BLACK
6
CONTINUOUS
10
6.1257
20
-1.71774
11
6.12573
21
-1.71777
0
LINE
8
BLACK
6
CONTINUOUS
10
6.12573
20
-1.71777
11
6.12575
21
-1.7178
0
LINE
8
BLACK
6
CONTINUOUS
10
6.12575
20
-1.7178
11
6.12577
21
-1.71783
0
LINE
8
BLACK
6
CONTINUOUS
10
6.12577
20
-1.71783
11
6.12578
21
-1.71787
0
LINE
8
BLACK
6
CONTINUOUS
10
6.12578
20
-1.71787
11
6.12579
21
-1.71791
0
LINE
8
BLACK
6
CONTINUOUS
10
6.12579
20
-1.71791
11
6.12579
21
-1.71792
0
LINE
8
BLACK
6
CONTINUOUS
10
6.12579
20
-1.71792
11
6.12579
21
-2.26908
0
LINE
8
BLACK
6
CONTINUOUS
10
6.12579
20
-2.26908
11
6.12579
21
-2.26909
0
LINE
8
BLACK
6
CONTINUOUS
10
6.12579
20
-2.26909
11
6.12578
21
-2.26913
0
LINE
8
BLACK
6
CONTINUOUS
10
6.12578
20
-2.26913
11
6.12577
21
-2.26917
0
LINE
8
BLACK
6
CONTINUOUS
10
6.12577
20
-2.26917
11
6.12575
21
-2.2692
0
LINE
8
BLACK
6
CONTINUOUS
10
6.12575
20
-2.2692
11
6.12573
21
-2.26923
0
LINE
8
BLACK
6
CONTINUOUS
10
6.12573
20
-2.26923
11
6.1257
21
-2.26925
0
LINE
8
BLACK
6
CONTINUOUS
10
6.1257
20
-2.26925
11
6.12567
21
-2.26927
0
LINE
8
BLACK
6
CONTINUOUS
10
6.12567
20
-2.26927
11
6.12563
21
-2.26928
0
LINE
8
BLACK
6
CONTINUOUS
10
6.12563
20
-2.26928
11
6.1256
21
-2.26929
0
LINE
8
BLACK
6
CONTINUOUS
10
6.1256
20
-2.26929
11
6.12559
21
-2.26929
0
LINE
8
BLACK
6
CONTINUOUS
10
6.12559
20
-2.26929
11
6.12558
21
-2.26929
0
LINE
8
BLACK
6
CONTINUOUS
10
6.12558
20
-2.26929
11
5.57442
21
-2.26929
0
LINE
8
BLACK
6
CONTINUOUS
10
5.57442
20
-2.26929
11
5.57441
21
-2.26929
0
LINE
8
BLACK
6
CONTINUOUS
10
5.57441
20
-2.26929
11
5.57437
21
-2.26928
0
LINE
8
BLACK
6
CONTINUOUS
10
5.57437
20
-2.26928
11
5.57433
21
-2.26927
0
LINE
8
BLACK
6
CONTINUOUS
10
5.57433
20
-2.26927
11
5.5743
21
-2.26925
0
LINE
8
BLACK
6
CONTINUOUS
10
5.5743
20
-2.26925
11
5.57427
21
-2.26923
0
LINE
8
BLACK
6
CONTINUOUS
10
5.57427
20
-2.26923
11
5.57424
21
-2.2692
0
LINE
8
BLACK
6
CONTINUOUS
10
5.57424
20
-2.2692
11
5.57423
21
-2.26917
0
LINE
8
BLACK
6
CONTINUOUS
10
5.57423
20
-2.26917
11
5.57422
21
-2.26913
0
LINE
8
BLACK
6
CONTINUOUS
10
5.57422
20
-2.26913
11
5.57421
21
-2.26909
0
LINE
8
BLACK
6
CONTINUOUS
10
5.57421
20
-2.26909
11
5.57421
21
-2.26908
0
LINE
8
BLACK
6
CONTINUOUS
10
5.57421
20
-2.26908
11
5.57421
21
-1.71792
0
LINE
8
BLACK
6
CONTINUOUS
10
5.57421
20
-1.71792
11
5.57421
21
-1.71791
0
LINE
8
BLACK
6
CONTINUOUS
10
5.57421
20
-1.71791
11
5.57422
21
-1.71787
0
LINE
8
BLACK
6
CONTINUOUS
10
5.57422
20
-1.71787
11
5.57423
21
-1.71783
0
LINE
8
BLACK
6
CONTINUOUS
10
5.57423
20
-1.71783
11
5.57424
21
-1.7178
0
LINE
8
BLACK
6
CONTINUOUS
10
5.57424
20
-1.7178
11
5.57427
21
-1.71777
0
LINE
8
BLACK
6
CONTINUOUS
10
5.57427
20
-1.71777
11
5.5743
21
-1.71774
0
LINE
8
BLACK
6
CONTINUOUS
10
5.5743
20
-1.71774
11
5.57433
21
-1.71773
0
LINE
8
BLACK
6
CONTINUOUS
10
5.57433
20
-1.71773
11
5.57437
21
-1.71772
0
LINE
8
BLACK
6
CONTINUOUS
10
5.57437
20
-1.71772
11
5.5744
21
-1.71771
0
LINE
8
BLACK
6
CONTINUOUS
10
5.5744
20
-1.71771
11
5.57441
21
-1.71771
0
LINE
8
BLACK
6
CONTINUOUS
10
5.57441
20
-1.71771
11
5.57442
21
-1.71771
0
LINE
8
BLACK
6
CONTINUOUS
10
5.57442
20
-1.71771
11
6.12558
21
-1.71771
0
LINE
8
BLACK
6
CONTINUOUS
10
6.12558
20
-1.71771
11
6.12559
21
-1.71771
0
LINE
8
BLACK
6
CONTINUOUS
10
6.12559
20
-1.71771
11
6.1256
21
-1.71771
0
LINE
8
BLACK
6
CONTINUOUS
10
5.57461
20
-1.71811
11
5.57461
21
-2.26889
0
LINE
8
BLACK
6
CONTINUOUS
10
5.57461
20
-2.26889
11
6.12539
21
-2.26889
0
LINE
8
BLACK
6
CONTINUOUS
10
6.12539
20
-2.26889
11
6.12539
21
-1.71811
0
LINE
8
BLACK
6
CONTINUOUS
10
6.12539
20
-1.71811
11
5.57461
21
-1.71811
0
LINE
8
BLACK
6
CONTINUOUS
10
7.50188
20
-5.24196
11
7.50712
21
-5.22931
0
LINE
8
BLACK
6
CONTINUOUS
10
7.50712
20
-5.22931
11
7.51473
21
-5.21792
0
LINE
8
BLACK
6
CONTINUOUS
10
7.51473
20
-5.21792
11
7.52442
21
-5.20823
0
LINE
8
BLACK
6
CONTINUOUS
10
7.52442
20
-5.20823
11
7.53581
21
-5.20062
0
LINE
8
BLACK
6
CONTINUOUS
10
7.53581
20
-5.20062
11
7.54846
21
-5.19538
0
LINE
8
BLACK
6
CONTINUOUS
10
7.54846
20
-5.19538
11
7.5619
21
-5.1927
0
LINE
8
BLACK
6
CONTINUOUS
10
7.5619
20
-5.1927
11
7.5756
21
-5.1927
0
LINE
8
BLACK
6
CONTINUOUS
10
7.5756
20
-5.1927
11
7.58904
21
-5.19538
0
LINE
8
BLACK
6
CONTINUOUS
10
7.58904
20
-5.19538
11
7.60169
21
-5.20062
0
LINE
8
BLACK
6
CONTINUOUS
10
7.60169
20
-5.20062
11
7.61308
21
-5.20823
0
LINE
8
BLACK
6
CONTINUOUS
10
7.61308
20
-5.20823
11
7.62277
21
-5.21792
0
LINE
8
BLACK
6
CONTINUOUS
10
7.62277
20
-5.21792
11
7.63038
21
-5.22931
0
LINE
8
BLACK
6
CONTINUOUS
10
7.63038
20
-5.22931
11
7.63562
21
-5.24196
0
LINE
8
BLACK
6
CONTINUOUS
10
7.63562
20
-5.24196
11
7.6383
21
-5.2554
0
LINE
8
BLACK
6
CONTINUOUS
10
7.6383
20
-5.2554
11
7.6383
21
-5.2691
0
LINE
8
BLACK
6
CONTINUOUS
10
7.6383
20
-5.2691
11
7.63562
21
-5.28254
0
LINE
8
BLACK
6
CONTINUOUS
10
7.63562
20
-5.28254
11
7.63038
21
-5.29519
0
LINE
8
BLACK
6
CONTINUOUS
10
7.63038
20
-5.29519
11
7.62277
21
-5.30658
0
LINE
8
BLACK
6
CONTINUOUS
10
7.62277
20
-5.30658
11
7.61308
21
-5.31627
0
LINE
8
BLACK
6
CONTINUOUS
10
7.61308
20
-5.31627
11
7.60169
21
-5.32388
0
LINE
8
BLACK
6
CONTINUOUS
10
7.60169
20
-5.32388
11
7.58904
21
-5.32912
0
LINE
8
BLACK
6
CONTINUOUS
10
7.58904
20
-5.32912
11
7.5756
21
-5.3318
0
LINE
8
BLACK
6
CONTINUOUS
10
7.5756
20
-5.3318
11
7.5619
21
-5.3318
0
LINE
8
BLACK
6
CONTINUOUS
10
7.5619
20
-5.3318
11
7.54846
21
-5.32912
0
LINE
8
BLACK
6
CONTINUOUS
10
7.54846
20
-5.32912
11
7.53581
21
-5.32388
0
LINE
8
BLACK
6
CONTINUOUS
10
7.53581
20
-5.32388
11
7.52442
21
-5.31627
0
LINE
8
BLACK
6
CONTINUOUS
10
7.52442
20
-5.31627
11
7.51473
21
-5.30658
0
LINE
8
BLACK
6
CONTINUOUS
10
7.51473
20
-5.30658
11
7.50712
21
-5.29519
0
LINE
8
BLACK
6
CONTINUOUS
10
7.50712
20
-5.29519
11
7.50188
21
-5.28254
0
LINE
8
BLACK
6
CONTINUOUS
10
7.50188
20
-5.28254
11
7.4992
21
-5.2691
0
LINE
8
BLACK
6
CONTINUOUS
10
7.4992
20
-5.2691
11
7.4992
21
-5.2554
0
LINE
8
BLACK
6
CONTINUOUS
10
7.4992
20
-5.2554
11
7.50188
21
-5.24196
0
LINE
8
BLACK
6
CONTINUOUS
10
7.50301
20
-5.28219
11
7.50816
21
-5.29464
0
LINE
8
BLACK
6
CONTINUOUS
10
7.50816
20
-5.29464
11
7.51564
21
-5.30583
0
LINE
8
BLACK
6
CONTINUOUS
10
7.51564
20
-5.30583
11
7.52517
21
-5.31536
0
LINE
8
BLACK
6
CONTINUOUS
10
7.52517
20
-5.31536
11
7.53636
21
-5.32284
0
LINE
8
BLACK
6
CONTINUOUS
10
7.53636
20
-5.32284
11
7.54881
21
-5.32799
0
LINE
8
BLACK
6
CONTINUOUS
10
7.54881
20
-5.32799
11
7.56202
21
-5.33062
0
LINE
8
BLACK
6
CONTINUOUS
10
7.56202
20
-5.33062
11
7.57548
21
-5.33062
0
LINE
8
BLACK
6
CONTINUOUS
10
7.57548
20
-5.33062
11
7.58869
21
-5.32799
0
LINE
8
BLACK
6
CONTINUOUS
10
7.58869
20
-5.32799
11
7.60114
21
-5.32284
0
LINE
8
BLACK
6
CONTINUOUS
10
7.60114
20
-5.32284
11
7.61233
21
-5.31536
0
LINE
8
BLACK
6
CONTINUOUS
10
7.61233
20
-5.31536
11
7.62186
21
-5.30583
0
LINE
8
BLACK
6
CONTINUOUS
10
7.62186
20
-5.30583
11
7.62934
21
-5.29464
0
LINE
8
BLACK
6
CONTINUOUS
10
7.62934
20
-5.29464
11
7.63449
21
-5.28219
0
LINE
8
BLACK
6
CONTINUOUS
10
7.63449
20
-5.28219
11
7.63712
21
-5.26898
0
LINE
8
BLACK
6
CONTINUOUS
10
7.63712
20
-5.26898
11
7.63712
21
-5.25552
0
LINE
8
BLACK
6
CONTINUOUS
10
7.63712
20
-5.25552
11
7.63449
21
-5.24231
0
LINE
8
BLACK
6
CONTINUOUS
10
7.63449
20
-5.24231
11
7.62934
21
-5.22986
0
LINE
8
BLACK
6
CONTINUOUS
10
7.62934
20
-5.22986
11
7.62186
21
-5.21867
0
LINE
8
BLACK
6
CONTINUOUS
10
7.62186
20
-5.21867
11
7.61233
21
-5.20914
0
LINE
8
BLACK
6
CONTINUOUS
10
7.61233
20
-5.20914
11
7.60114
21
-5.20166
0
LINE
8
BLACK
6
CONTINUOUS
10
7.60114
20
-5.20166
11
7.58869
21
-5.19651
0
LINE
8
BLACK
6
CONTINUOUS
10
7.58869
20
-5.19651
11
7.57548
21
-5.19388
0
LINE
8
BLACK
6
CONTINUOUS
10
7.57548
20
-5.19388
11
7.56202
21
-5.19388
0
LINE
8
BLACK
6
CONTINUOUS
10
7.56202
20
-5.19388
11
7.54881
21
-5.19651
0
LINE
8
BLACK
6
CONTINUOUS
10
7.54881
20
-5.19651
11
7.53636
21
-5.20166
0
LINE
8
BLACK
6
CONTINUOUS
10
7.53636
20
-5.20166
11
7.52517
21
-5.20914
0
LINE
8
BLACK
6
CONTINUOUS
10
7.52517
20
-5.20914
11
7.51564
21
-5.21867
0
LINE
8
BLACK
6
CONTINUOUS
10
7.51564
20
-5.21867
11
7.50816
21
-5.22986
0
LINE
8
BLACK
6
CONTINUOUS
10
7.50816
20
-5.22986
11
7.50301
21
-5.24231
0
LINE
8
BLACK
6
CONTINUOUS
10
7.50301
20
-5.24231
11
7.50038
21
-5.25552
0
LINE
8
BLACK
6
CONTINUOUS
10
7.50038
20
-5.25552
11
7.50038
21
-5.26898
0
LINE
8
BLACK
6
CONTINUOUS
10
7.50038
20
-5.26898
11
7.50301
21
-5.28219
0
LINE
8
BLACK
6
CONTINUOUS
10
3.90913
20
-4.89821
11
3.91437
21
-4.88556
0
LINE
8
BLACK
6
CONTINUOUS
10
3.91437
20
-4.88556
11
3.92198
21
-4.87417
0
LINE
8
BLACK
6
CONTINUOUS
10
3.92198
20
-4.87417
11
3.93167
21
-4.86448
0
LINE
8
BLACK
6
CONTINUOUS
10
3.93167
20
-4.86448
11
3.94306
21
-4.85687
0
LINE
8
BLACK
6
CONTINUOUS
10
3.94306
20
-4.85687
11
3.95571
21
-4.85163
0
LINE
8
BLACK
6
CONTINUOUS
10
3.95571
20
-4.85163
11
3.96915
21
-4.84895
0
LINE
8
BLACK
6
CONTINUOUS
10
3.96915
20
-4.84895
11
3.98285
21
-4.84895
0
LINE
8
BLACK
6
CONTINUOUS
10
3.98285
20
-4.84895
11
3.99629
21
-4.85163
0
LINE
8
BLACK
6
CONTINUOUS
10
3.99629
20
-4.85163
11
4.00894
21
-4.85687
0
LINE
8
BLACK
6
CONTINUOUS
10
4.00894
20
-4.85687
11
4.02033
21
-4.86448
0
LINE
8
BLACK
6
CONTINUOUS
10
4.02033
20
-4.86448
11
4.03002
21
-4.87417
0
LINE
8
BLACK
6
CONTINUOUS
10
4.03002
20
-4.87417
11
4.03763
21
-4.88556
0
LINE
8
BLACK
6
CONTINUOUS
10
4.03763
20
-4.88556
11
4.04287
21
-4.89821
0
LINE
8
BLACK
6
CONTINUOUS
10
4.04287
20
-4.89821
11
4.04555
21
-4.91165
0
LINE
8
BLACK
6
CONTINUOUS
10
4.04555
20
-4.91165
11
4.04555
21
-4.92535
0
LINE
8
BLACK
6
CONTINUOUS
10
4.04555
20
-4.92535
11
4.04287
21
-4.93879
0
LINE
8
BLACK
6
CONTINUOUS
10
4.04287
20
-4.93879
11
4.03763
21
-4.95144
0
LINE
8
BLACK
6
CONTINUOUS
10
4.03763
20
-4.95144
11
4.03002
21
-4.96283
0
LINE
8
BLACK
6
CONTINUOUS
10
4.03002
20
-4.96283
11
4.02033
21
-4.97252
0
LINE
8
BLACK
6
CONTINUOUS
10
4.02033
20
-4.97252
11
4.00894
21
-4.98013
0
LINE
8
BLACK
6
CONTINUOUS
10
4.00894
20
-4.98013
11
3.99629
21
-4.98537
0
LINE
8
BLACK
6
CONTINUOUS
10
3.99629
20
-4.98537
11
3.98285
21
-4.98805
0
LINE
8
BLACK
6
CONTINUOUS
10
3.98285
20
-4.98805
11
3.96915
21
-4.98805
0
LINE
8
BLACK
6
CONTINUOUS
10
3.96915
20
-4.98805
11
3.95571
21
-4.98537
0
LINE
8
BLACK
6
CONTINUOUS
10
3.95571
20
-4.98537
11
3.94306
21
-4.98013
0
LINE
8
BLACK
6
CONTINUOUS
10
3.94306
20
-4.98013
11
3.93167
21
-4.97252
0
LINE
8
BLACK
6
CONTINUOUS
10
3.93167
20
-4.97252
11
3.92198
21
-4.96283
0
LINE
8
BLACK
6
CONTINUOUS
10
3.92198
20
-4.96283
11
3.91437
21
-4.95144
0
LINE
8
BLACK
6
CONTINUOUS
10
3.91437
20
-4.95144
11
3.90913
21
-4.93879
0
LINE
8
BLACK
6
CONTINUOUS
10
3.90913
20
-4.93879
11
3.90645
21
-4.92535
0
LINE
8
BLACK
6
CONTINUOUS
10
3.90645
20
-4.92535
11
3.90645
21
-4.91165
0
LINE
8
BLACK
6
CONTINUOUS
10
3.90645
20
-4.91165
11
3.90913
21
-4.89821
0
LINE
8
BLACK
6
CONTINUOUS
10
3.91026
20
-4.93844
11
3.91541
21
-4.95089
0
LINE
8
BLACK
6
CONTINUOUS
10
3.91541
20
-4.95089
11
3.92289
21
-4.96208
0
LINE
8
BLACK
6
CONTINUOUS
10
3.92289
20
-4.96208
11
3.93242
21
-4.97161
0
LINE
8
BLACK
6
CONTINUOUS
10
3.93242
20
-4.97161
11
3.94361
21
-4.97909
0
LINE
8
BLACK
6
CONTINUOUS
10
3.94361
20
-4.97909
11
3.95606
21
-4.98424
0
LINE
8
BLACK
6
CONTINUOUS
10
3.95606
20
-4.98424
11
3.96927
21
-4.98687
0
LINE
8
BLACK
6
CONTINUOUS
10
3.96927
20
-4.98687
11
3.98273
21
-4.98687
0
LINE
8
BLACK
6
CONTINUOUS
10
3.98273
20
-4.98687
11
3.99594
21
-4.98424
0
LINE
8
BLACK
6
CONTINUOUS
10
3.99594
20
-4.98424
11
4.00839
21
-4.97909
0
LINE
8
BLACK
6
CONTINUOUS
10
4.00839
20
-4.97909
11
4.01958
21
-4.97161
0
LINE
8
BLACK
6
CONTINUOUS
10
4.01958
20
-4.97161
11
4.02911
21
-4.96208
0
LINE
8
BLACK
6
CONTINUOUS
10
4.02911
20
-4.96208
11
4.03659
21
-4.95089
0
LINE
8
BLACK
6
CONTINUOUS
10
4.03659
20
-4.95089
11
4.04174
21
-4.93844
0
LINE
8
BLACK
6
CONTINUOUS
10
4.04174
20
-4.93844
11
4.04437
21
-4.92523
0
LINE
8
BLACK
6
CONTINUOUS
10
4.04437
20
-4.92523
11
4.04437
21
-4.91177
0
LINE
8
BLACK
6
CONTINUOUS
10
4.04437
20
-4.91177
11
4.04174
21
-4.89856
0
LINE
8
BLACK
6
CONTINUOUS
10
4.04174
20
-4.89856
11
4.03659
21
-4.88611
0
LINE
8
BLACK
6
CONTINUOUS
10
4.03659
20
-4.88611
11
4.02911
21
-4.87492
0
LINE
8
BLACK
6
CONTINUOUS
10
4.02911
20
-4.87492
11
4.01958
21
-4.86539
0
LINE
8
BLACK
6
CONTINUOUS
10
4.01958
20
-4.86539
11
4.00839
21
-4.85791
0
LINE
8
BLACK
6
CONTINUOUS
10
4.00839
20
-4.85791
11
3.99594
21
-4.85276
0
LINE
8
BLACK
6
CONTINUOUS
10
3.99594
20
-4.85276
11
3.98273
21
-4.85013
0
LINE
8
BLACK
6
CONTINUOUS
10
3.98273
20
-4.85013
11
3.96927
21
-4.85013
0
LINE
8
BLACK
6
CONTINUOUS
10
3.96927
20
-4.85013
11
3.95606
21
-4.85276
0
LINE
8
BLACK
6
CONTINUOUS
10
3.95606
20
-4.85276
11
3.94361
21
-4.85791
0
LINE
8
BLACK
6
CONTINUOUS
10
3.94361
20
-4.85791
11
3.93242
21
-4.86539
0
LINE
8
BLACK
6
CONTINUOUS
10
3.93242
20
-4.86539
11
3.92289
21
-4.87492
0
LINE
8
BLACK
6
CONTINUOUS
10
3.92289
20
-4.87492
11
3.91541
21
-4.88611
0
LINE
8
BLACK
6
CONTINUOUS
10
3.91541
20
-4.88611
11
3.91026
21
-4.89856
0
LINE
8
BLACK
6
CONTINUOUS
10
3.91026
20
-4.89856
11
3.90763
21
-4.91177
0
LINE
8
BLACK
6
CONTINUOUS
10
3.90763
20
-4.91177
11
3.90763
21
-4.92523
0
LINE
8
BLACK
6
CONTINUOUS
10
3.90763
20
-4.92523
11
3.91026
21
-4.93844
0
LINE
8
BLACK
6
CONTINUOUS
10
5.81438
20
-4.71071
11
5.81962
21
-4.69806
0
LINE
8
BLACK
6
CONTINUOUS
10
5.81962
20
-4.69806
11
5.82723
21
-4.68667
0
LINE
8
BLACK
6
CONTINUOUS
10
5.82723
20
-4.68667
11
5.83692
21
-4.67698
0
LINE
8
BLACK
6
CONTINUOUS
10
5.83692
20
-4.67698
11
5.84831
21
-4.66937
0
LINE
8
BLACK
6
CONTINUOUS
10
5.84831
20
-4.66937
11
5.86096
21
-4.66413
0
LINE
8
BLACK
6
CONTINUOUS
10
5.86096
20
-4.66413
11
5.8744
21
-4.66145
0
LINE
8
BLACK
6
CONTINUOUS
10
5.8744
20
-4.66145
11
5.8881
21
-4.66145
0
LINE
8
BLACK
6
CONTINUOUS
10
5.8881
20
-4.66145
11
5.90154
21
-4.66413
0
LINE
8
BLACK
6
CONTINUOUS
10
5.90154
20
-4.66413
11
5.91419
21
-4.66937
0
LINE
8
BLACK
6
CONTINUOUS
10
5.91419
20
-4.66937
11
5.92558
21
-4.67698
0
LINE
8
BLACK
6
CONTINUOUS
10
5.92558
20
-4.67698
11
5.93527
21
-4.68667
0
LINE
8
BLACK
6
CONTINUOUS
10
5.93527
20
-4.68667
11
5.94288
21
-4.69806
0
LINE
8
BLACK
6
CONTINUOUS
10
5.94288
20
-4.69806
11
5.94812
21
-4.71071
0
LINE
8
BLACK
6
CONTINUOUS
10
5.94812
20
-4.71071
11
5.9508
21
-4.72415
0
LINE
8
BLACK
6
CONTINUOUS
10
5.9508
20
-4.72415
11
5.9508
21
-4.73785
0
LINE
8
BLACK
6
CONTINUOUS
10
5.9508
20
-4.73785
11
5.94812
21
-4.75129
0
LINE
8
BLACK
6
CONTINUOUS
10
5.94812
20
-4.75129
11
5.94288
21
-4.76394
0
LINE
8
BLACK
6
CONTINUOUS
10
5.94288
20
-4.76394
11
5.93527
21
-4.77533
0
LINE
8
BLACK
6
CONTINUOUS
10
5.93527
20
-4.77533
11
5.92558
21
-4.78502
0
LINE
8
BLACK
6
CONTINUOUS
10
5.92558
20
-4.78502
11
5.91419
21
-4.79263
0
LINE
8
BLACK
6
CONTINUOUS
10
5.91419
20
-4.79263
11
5.90154
21
-4.79787
0
LINE
8
BLACK
6
CONTINUOUS
10
5.90154
20
-4.79787
11
5.8881
21
-4.80055
0
LINE
8
BLACK
6
CONTINUOUS
10
5.8881
20
-4.80055
11
5.8744
21
-4.80055
0
LINE
8
BLACK
6
CONTINUOUS
10
5.8744
20
-4.80055
11
5.86096
21
-4.79787
0
LINE
8
BLACK
6
CONTINUOUS
10
5.86096
20
-4.79787
11
5.84831
21
-4.79263
0
LINE
8
BLACK
6
CONTINUOUS
10
5.84831
20
-4.79263
11
5.83692
21
-4.78502
0
LINE
8
BLACK
6
CONTINUOUS
10
5.83692
20
-4.78502
11
5.82723
21
-4.77533
0
LINE
8
BLACK
6
CONTINUOUS
10
5.82723
20
-4.77533
11
5.81962
21
-4.76394
0
LINE
8
BLACK
6
CONTINUOUS
10
5.81962
20
-4.76394
11
5.81438
21
-4.75129
0
LINE
8
BLACK
6
CONTINUOUS
10
5.81438
20
-4.75129
11
5.8117
21
-4.73785
0
LINE
8
BLACK
6
CONTINUOUS
10
5.8117
20
-4.73785
11
5.8117
21
-4.72415
0
LINE
8
BLACK
6
CONTINUOUS
10
5.8117
20
-4.72415
11
5.81438
21
-4.71071
0
LINE
8
BLACK
6
CONTINUOUS
10
5.81551
20
-4.75094
11
5.82066
21
-4.76339
0
LINE
8
BLACK
6
CONTINUOUS
10
5.82066
20
-4.76339
11
5.82814
21
-4.77458
0
LINE
8
BLACK
6
CONTINUOUS
10
5.82814
20
-4.77458
11
5.83767
21
-4.78411
0
LINE
8
BLACK
6
CONTINUOUS
10
5.83767
20
-4.78411
11
5.84886
21
-4.79159
0
LINE
8
BLACK
6
CONTINUOUS
10
5.84886
20
-4.79159
11
5.86131
21
-4.79674
0
LINE
8
BLACK
6
CONTINUOUS
10
5.86131
20
-4.79674
11
5.87452
21
-4.79937
0
LINE
8
BLACK
6
CONTINUOUS
10
5.87452
20
-4.79937
11
5.88798
21
-4.79937
0
LINE
8
BLACK
6
CONTINUOUS
10
5.88798
20
-4.79937
11
5.90119
21
-4.79674
0
LINE
8
BLACK
6
CONTINUOUS
10
5.90119
20
-4.79674
11
5.91364
21
-4.79159
0
LINE
8
BLACK
6
CONTINUOUS
10
5.91364
20
-4.79159
11
5.92483
21
-4.78411
0
LINE
8
BLACK
6
CONTINUOUS
10
5.92483
20
-4.78411
11
5.93436
21
-4.77458
0
LINE
8
BLACK
6
CONTINUOUS
10
5.93436
20
-4.77458
11
5.94184
21
-4.76339
0
LINE
8
BLACK
6
CONTINUOUS
10
5.94184
20
-4.76339
11
5.94699
21
-4.75094
0
LINE
8
BLACK
6
CONTINUOUS
10
5.94699
20
-4.75094
11
5.94962
21
-4.73773
0
LINE
8
BLACK
6
CONTINUOUS
10
5.94962
20
-4.73773
11
5.94962
21
-4.72427
0
LINE
8
BLACK
6
CONTINUOUS
10
5.94962
20
-4.72427
11
5.94699
21
-4.71106
0
LINE
8
BLACK
6
CONTINUOUS
10
5.94699
20
-4.71106
11
5.94184
21
-4.69861
0
LINE
8
BLACK
6
CONTINUOUS
10
5.94184
20
-4.69861
11
5.93436
21
-4.68742
0
LINE
8
BLACK
6
CONTINUOUS
10
5.93436
20
-4.68742
11
5.92483
21
-4.67789
0
LINE
8
BLACK
6
CONTINUOUS
10
5.92483
20
-4.67789
11
5.91364
21
-4.67041
0
LINE
8
BLACK
6
CONTINUOUS
10
5.91364
20
-4.67041
11
5.90119
21
-4.66526
0
LINE
8
BLACK
6
CONTINUOUS
10
5.90119
20
-4.66526
11
5.88798
21
-4.66263
0
LINE
8
BLACK
6
CONTINUOUS
10
5.88798
20
-4.66263
11
5.87452
21
-4.66263
0
LINE
8
BLACK
6
CONTINUOUS
10
5.87452
20
-4.66263
11
5.86131
21
-4.66526
0
LINE
8
BLACK
6
CONTINUOUS
10
5.86131
20
-4.66526
11
5.84886
21
-4.67041
0
LINE
8
BLACK
6
CONTINUOUS
10
5.84886
20
-4.67041
11
5.83767
21
-4.67789
0
LINE
8
BLACK
6
CONTINUOUS
10
5.83767
20
-4.67789
11
5.82814
21
-4.68742
0
LINE
8
BLACK
6
CONTINUOUS
10
5.82814
20
-4.68742
11
5.82066
21
-4.69861
0
LINE
8
BLACK
6
CONTINUOUS
10
5.82066
20
-4.69861
11
5.81551
21
-4.71106
0
LINE
8
BLACK
6
CONTINUOUS
10
5.81551
20
-4.71106
11
5.81288
21
-4.72427
0
LINE
8
BLACK
6
CONTINUOUS
10
5.81288
20
-4.72427
11
5.81288
21
-4.73773
0
LINE
8
BLACK
6
CONTINUOUS
10
5.81288
20
-4.73773
11
5.81551
21
-4.75094
0
LINE
8
BLACK
6
CONTINUOUS
10
3.91378
20
-2.64993
11
3.91858
21
-2.63834
0
LINE
8
BLACK
6
CONTINUOUS
10
3.91858
20
-2.63834
11
3.92555
21
-2.62791
0
LINE
8
BLACK
6
CONTINUOUS
10
3.92555
20
-2.62791
11
3.93441
21
-2.61905
0
LINE
8
BLACK
6
CONTINUOUS
10
3.93441
20
-2.61905
11
3.94484
21
-2.61208
0
LINE
8
BLACK
6
CONTINUOUS
10
3.94484
20
-2.61208
11
3.95643
21
-2.60728
0
LINE
8
BLACK
6
CONTINUOUS
10
3.95643
20
-2.60728
11
3.96873
21
-2.60483
0
LINE
8
BLACK
6
CONTINUOUS
10
3.96873
20
-2.60483
11
3.98127
21
-2.60483
0
LINE
8
BLACK
6
CONTINUOUS
10
3.98127
20
-2.60483
11
3.99357
21
-2.60728
0
LINE
8
BLACK
6
CONTINUOUS
10
3.99357
20
-2.60728
11
4.00516
21
-2.61208
0
LINE
8
BLACK
6
CONTINUOUS
10
4.00516
20
-2.61208
11
4.01559
21
-2.61905
0
LINE
8
BLACK
6
CONTINUOUS
10
4.01559
20
-2.61905
11
4.02445
21
-2.62791
0
LINE
8
BLACK
6
CONTINUOUS
10
4.02445
20
-2.62791
11
4.03142
21
-2.63834
0
LINE
8
BLACK
6
CONTINUOUS
10
4.03142
20
-2.63834
11
4.03622
21
-2.64993
0
LINE
8
BLACK
6
CONTINUOUS
10
4.03622
20
-2.64993
11
4.03867
21
-2.66223
0
LINE
8
BLACK
6
CONTINUOUS
10
4.03867
20
-2.66223
11
4.03867
21
-2.67477
0
LINE
8
BLACK
6
CONTINUOUS
10
4.03867
20
-2.67477
11
4.03622
21
-2.68707
0
LINE
8
BLACK
6
CONTINUOUS
10
4.03622
20
-2.68707
11
4.03142
21
-2.69866
0
LINE
8
BLACK
6
CONTINUOUS
10
4.03142
20
-2.69866
11
4.02445
21
-2.70909
0
LINE
8
BLACK
6
CONTINUOUS
10
4.02445
20
-2.70909
11
4.01559
21
-2.71795
0
LINE
8
BLACK
6
CONTINUOUS
10
4.01559
20
-2.71795
11
4.00516
21
-2.72492
0
LINE
8
BLACK
6
CONTINUOUS
10
4.00516
20
-2.72492
11
3.99357
21
-2.72972
0
LINE
8
BLACK
6
CONTINUOUS
10
3.99357
20
-2.72972
11
3.98127
21
-2.73217
0
LINE
8
BLACK
6
CONTINUOUS
10
3.98127
20
-2.73217
11
3.96873
21
-2.73217
0
LINE
8
BLACK
6
CONTINUOUS
10
3.96873
20
-2.73217
11
3.95643
21
-2.72972
0
LINE
8
BLACK
6
CONTINUOUS
10
3.95643
20
-2.72972
11
3.94484
21
-2.72492
0
LINE
8
BLACK
6
CONTINUOUS
10
3.94484
20
-2.72492
11
3.93441
21
-2.71795
0
LINE
8
BLACK
6
CONTINUOUS
10
3.93441
20
-2.71795
11
3.92555
21
-2.70909
0
LINE
8
BLACK
6
CONTINUOUS
10
3.92555
20
-2.70909
11
3.91858
21
-2.69866
0
LINE
8
BLACK
6
CONTINUOUS
10
3.91858
20
-2.69866
11
3.91378
21
-2.68707
0
LINE
8
BLACK
6
CONTINUOUS
10
3.91378
20
-2.68707
11
3.91133
21
-2.67477
0
LINE
8
BLACK
6
CONTINUOUS
10
3.91133
20
-2.67477
11
3.91133
21
-2.66223
0
LINE
8
BLACK
6
CONTINUOUS
10
3.91133
20
-2.66223
11
3.91378
21
-2.64993
0
LINE
8
BLACK
6
CONTINUOUS
10
3.91491
20
-2.68673
11
3.91962
21
-2.6981
0
LINE
8
BLACK
6
CONTINUOUS
10
3.91962
20
-2.6981
11
3.92646
21
-2.70834
0
LINE
8
BLACK
6
CONTINUOUS
10
3.92646
20
-2.70834
11
3.93516
21
-2.71704
0
LINE
8
BLACK
6
CONTINUOUS
10
3.93516
20
-2.71704
11
3.9454
21
-2.72388
0
LINE
8
BLACK
6
CONTINUOUS
10
3.9454
20
-2.72388
11
3.95677
21
-2.72859
0
LINE
8
BLACK
6
CONTINUOUS
10
3.95677
20
-2.72859
11
3.96884
21
-2.73099
0
LINE
8
BLACK
6
CONTINUOUS
10
3.96884
20
-2.73099
11
3.98115
21
-2.73099
0
LINE
8
BLACK
6
CONTINUOUS
10
3.98115
20
-2.73099
11
3.99323
21
-2.72859
0
LINE
8
BLACK
6
CONTINUOUS
10
3.99323
20
-2.72859
11
4.0046
21
-2.72388
0
LINE
8
BLACK
6
CONTINUOUS
10
4.0046
20
-2.72388
11
4.01484
21
-2.71704
0
LINE
8
BLACK
6
CONTINUOUS
10
4.01484
20
-2.71704
11
4.02354
21
-2.70834
0
LINE
8
BLACK
6
CONTINUOUS
10
4.02354
20
-2.70834
11
4.03038
21
-2.6981
0
LINE
8
BLACK
6
CONTINUOUS
10
4.03038
20
-2.6981
11
4.03509
21
-2.68673
0
LINE
8
BLACK
6
CONTINUOUS
10
4.03509
20
-2.68673
11
4.03749
21
-2.67466
0
LINE
8
BLACK
6
CONTINUOUS
10
4.03749
20
-2.67466
11
4.03749
21
-2.66234
0
LINE
8
BLACK
6
CONTINUOUS
10
4.03749
20
-2.66234
11
4.03509
21
-2.65027
0
LINE
8
BLACK
6
CONTINUOUS
10
4.03509
20
-2.65027
11
4.03038
21
-2.6389
0
LINE
8
BLACK
6
CONTINUOUS
10
4.03038
20
-2.6389
11
4.02354
21
-2.62866
0
LINE
8
BLACK
6
CONTINUOUS
10
4.02354
20
-2.62866
11
4.01484
21
-2.61996
0
LINE
8
BLACK
6
CONTINUOUS
10
4.01484
20
-2.61996
11
4.0046
21
-2.61312
0
LINE
8
BLACK
6
CONTINUOUS
10
4.0046
20
-2.61312
11
3.99323
21
-2.60841
0
LINE
8
BLACK
6
CONTINUOUS
10
3.99323
20
-2.60841
11
3.98115
21
-2.60601
0
LINE
8
BLACK
6
CONTINUOUS
10
3.98115
20
-2.60601
11
3.96884
21
-2.60601
0
LINE
8
BLACK
6
CONTINUOUS
10
3.96884
20
-2.60601
11
3.95677
21
-2.60841
0
LINE
8
BLACK
6
CONTINUOUS
10
3.95677
20
-2.60841
11
3.9454
21
-2.61312
0
LINE
8
BLACK
6
CONTINUOUS
10
3.9454
20
-2.61312
11
3.93516
21
-2.61996
0
LINE
8
BLACK
6
CONTINUOUS
10
3.93516
20
-2.61996
11
3.92646
21
-2.62866
0
LINE
8
BLACK
6
CONTINUOUS
10
3.92646
20
-2.62866
11
3.91962
21
-2.6389
0
LINE
8
BLACK
6
CONTINUOUS
10
3.91962
20
-2.6389
11
3.91491
21
-2.65027
0
LINE
8
BLACK
6
CONTINUOUS
10
3.91491
20
-2.65027
11
3.91251
21
-2.66234
0
LINE
8
BLACK
6
CONTINUOUS
10
3.91251
20
-2.66234
11
3.91251
21
-2.67466
0
LINE
8
BLACK
6
CONTINUOUS
10
3.91251
20
-2.67466
11
3.91491
21
-2.68673
0
LINE
8
BLACK
6
CONTINUOUS
10
6.90813
20
-2.46071
11
6.91337
21
-2.44806
0
LINE
8
BLACK
6
CONTINUOUS
10
6.91337
20
-2.44806
11
6.92098
21
-2.43667
0
LINE
8
BLACK
6
CONTINUOUS
10
6.92098
20
-2.43667
11
6.93067
21
-2.42698
0
LINE
8
BLACK
6
CONTINUOUS
10
6.93067
20
-2.42698
11
6.94206
21
-2.41937
0
LINE
8
BLACK
6
CONTINUOUS
10
6.94206
20
-2.41937
11
6.95471
21
-2.41413
0
LINE
8
BLACK
6
CONTINUOUS
10
6.95471
20
-2.41413
11
6.96815
21
-2.41145
0
LINE
8
BLACK
6
CONTINUOUS
10
6.96815
20
-2.41145
11
6.98185
21
-2.41145
0
LINE
8
BLACK
6
CONTINUOUS
10
6.98185
20
-2.41145
11
6.99529
21
-2.41413
0
LINE
8
BLACK
6
CONTINUOUS
10
6.99529
20
-2.41413
11
7.00794
21
-2.41937
0
LINE
8
BLACK
6
CONTINUOUS
10
7.00794
20
-2.41937
11
7.01933
21
-2.42698
0
LINE
8
BLACK
6
CONTINUOUS
10
7.01933
20
-2.42698
11
7.02902
21
-2.43667
0
LINE
8
BLACK
6
CONTINUOUS
10
7.02902
20
-2.43667
11
7.03663
21
-2.44806
0
LINE
8
BLACK
6
CONTINUOUS
10
7.03663
20
-2.44806
11
7.04187
21
-2.46071
0
LINE
8
BLACK
6
CONTINUOUS
10
7.04187
20
-2.46071
11
7.04455
21
-2.47415
0
LINE
8
BLACK
6
CONTINUOUS
10
7.04455
20
-2.47415
11
7.04455
21
-2.48785
0
LINE
8
BLACK
6
CONTINUOUS
10
7.04455
20
-2.48785
11
7.04187
21
-2.50129
0
LINE
8
BLACK
6
CONTINUOUS
10
7.04187
20
-2.50129
11
7.03663
21
-2.51394
0
LINE
8
BLACK
6
CONTINUOUS
10
7.03663
20
-2.51394
11
7.02902
21
-2.52533
0
LINE
8
BLACK
6
CONTINUOUS
10
7.02902
20
-2.52533
11
7.01933
21
-2.53502
0
LINE
8
BLACK
6
CONTINUOUS
10
7.01933
20
-2.53502
11
7.00794
21
-2.54263
0
LINE
8
BLACK
6
CONTINUOUS
10
7.00794
20
-2.54263
11
6.99529
21
-2.54787
0
LINE
8
BLACK
6
CONTINUOUS
10
6.99529
20
-2.54787
11
6.98185
21
-2.55055
0
LINE
8
BLACK
6
CONTINUOUS
10
6.98185
20
-2.55055
11
6.96815
21
-2.55055
0
LINE
8
BLACK
6
CONTINUOUS
10
6.96815
20
-2.55055
11
6.95471
21
-2.54787
0
LINE
8
BLACK
6
CONTINUOUS
10
6.95471
20
-2.54787
11
6.94206
21
-2.54263
0
LINE
8
BLACK
6
CONTINUOUS
10
6.94206
20
-2.54263
11
6.93067
21
-2.53502
0
LINE
8
BLACK
6
CONTINUOUS
10
6.93067
20
-2.53502
11
6.92098
21
-2.52533
0
LINE
8
BLACK
6
CONTINUOUS
10
6.92098
20
-2.52533
11
6.91337
21
-2.51394
0
LINE
8
BLACK
6
CONTINUOUS
10
6.91337
20
-2.51394
11
6.90813
21
-2.50129
0
LINE
8
BLACK
6
CONTINUOUS
10
6.90813
20
-2.50129
11
6.90545
21
-2.48785
0
LINE
8
BLACK
6
CONTINUOUS
10
6.90545
20
-2.48785
11
6.90545
21
-2.47415
0
LINE
8
BLACK
6
CONTINUOUS
10
6.90545
20
-2.47415
11
6.90813
21
-2.46071
0
LINE
8
BLACK
6
CONTINUOUS
10
6.90926
20
-2.50094
11
6.91441
21
-2.51339
0
LINE
8
BLACK
6
CONTINUOUS
10
6.91441
20
-2.51339
11
6.92189
21
-2.52458
0
LINE
8
BLACK
6
CONTINUOUS
10
6.92189
20
-2.52458
11
6.93142
21
-2.53411
0
LINE
8
BLACK
6
CONTINUOUS
10
6.93142
20
-2.53411
11
6.94261
21
-2.54159
0
LINE
8
BLACK
6
CONTINUOUS
10
6.94261
20
-2.54159
11
6.95506
21
-2.54674
0
LINE
8
BLACK
6
CONTINUOUS
10
6.95506
20
-2.54674
11
6.96827
21
-2.54937
0
LINE
8
BLACK
6
CONTINUOUS
10
6.96827
20
-2.54937
11
6.98173
21
-2.54937
0
LINE
8
BLACK
6
CONTINUOUS
10
6.98173
20
-2.54937
11
6.99494
21
-2.54674
0
LINE
8
BLACK
6
CONTINUOUS
10
6.99494
20
-2.54674
11
7.00739
21
-2.54159
0
LINE
8
BLACK
6
CONTINUOUS
10
7.00739
20
-2.54159
11
7.01858
21
-2.53411
0
LINE
8
BLACK
6
CONTINUOUS
10
7.01858
20
-2.53411
11
7.02811
21
-2.52458
0
LINE
8
BLACK
6
CONTINUOUS
10
7.02811
20
-2.52458
11
7.03559
21
-2.51339
0
LINE
8
BLACK
6
CONTINUOUS
10
7.03559
20
-2.51339
11
7.04074
21
-2.50094
0
LINE
8
BLACK
6
CONTINUOUS
10
7.04074
20
-2.50094
11
7.04337
21
-2.48773
0
LINE
8
BLACK
6
CONTINUOUS
10
7.04337
20
-2.48773
11
7.04337
21
-2.47427
0
LINE
8
BLACK
6
CONTINUOUS
10
7.04337
20
-2.47427
11
7.04074
21
-2.46106
0
LINE
8
BLACK
6
CONTINUOUS
10
7.04074
20
-2.46106
11
7.03559
21
-2.44861
0
LINE
8
BLACK
6
CONTINUOUS
10
7.03559
20
-2.44861
11
7.02811
21
-2.43742
0
LINE
8
BLACK
6
CONTINUOUS
10
7.02811
20
-2.43742
11
7.01858
21
-2.42789
0
LINE
8
BLACK
6
CONTINUOUS
10
7.01858
20
-2.42789
11
7.00739
21
-2.42041
0
LINE
8
BLACK
6
CONTINUOUS
10
7.00739
20
-2.42041
11
6.99494
21
-2.41526
0
LINE
8
BLACK
6
CONTINUOUS
10
6.99494
20
-2.41526
11
6.98173
21
-2.41263
0
LINE
8
BLACK
6
CONTINUOUS
10
6.98173
20
-2.41263
11
6.96827
21
-2.41263
0
LINE
8
BLACK
6
CONTINUOUS
10
6.96827
20
-2.41263
11
6.95506
21
-2.41526
0
LINE
8
BLACK
6
CONTINUOUS
10
6.95506
20
-2.41526
11
6.94261
21
-2.42041
0
LINE
8
BLACK
6
CONTINUOUS
10
6.94261
20
-2.42041
11
6.93142
21
-2.42789
0
LINE
8
BLACK
6
CONTINUOUS
10
6.93142
20
-2.42789
11
6.92189
21
-2.43742
0
LINE
8
BLACK
6
CONTINUOUS
10
6.92189
20
-2.43742
11
6.91441
21
-2.44861
0
LINE
8
BLACK
6
CONTINUOUS
10
6.91441
20
-2.44861
11
6.90926
21
-2.46106
0
LINE
8
BLACK
6
CONTINUOUS
10
6.90926
20
-2.46106
11
6.90663
21
-2.47427
0
LINE
8
BLACK
6
CONTINUOUS
10
6.90663
20
-2.47427
11
6.90663
21
-2.48773
0
LINE
8
BLACK
6
CONTINUOUS
10
6.90663
20
-2.48773
11
6.90926
21
-2.50094
  0
ENDSEC
  0
EOF
