  0
SECTION
  2
HEADER
  9
$ANGBASE
  50
0.0
  9
$ANGDIR
  70
1
  9
$MEASUREMENT
  70
1
  0
ENDSEC
  0
SECTION
  2
TABLES
  0
TABLE
  2
LTYPE
  70
4
  0
LTYPE
  5
40F
  2
CONTINUOUS
  70
0
  3
Solid line
  72
65
  73
0
  40
0.0
  0
LTYPE
  5
410
  2
DASHDOT
 70
0
  3
Dash Dot ____ _ ____ _
 72
65
 73
4
 40
2.0
 49
1.25
 49
-0.25
 49
0.25
 49
-0.25
  0
LTYPE
  5
411
  2
DASHED
 70
0
  3
Dashed __ __ __ __ __
 72
65
 73
2
 40
0.75
 49
0.5
 49
-0.25
  0
LTYPE
  5
43B
  2
DOTTED
 70
0
  3
Dotted .  .  .  .
 72
65
 73
2
 40
0.2
 49
0.0
 49
-0.2
  0
ENDTAB
  0
TABLE
  2
STYLE
  70
4
  0
STYLE
  2
KICAD
  70
0
  40
0
  41
1
  42
1
  50
0
  71
0
  3
isocp.shx
  0
STYLE
  2
KICADB
  70
0
  40
0
  41
1
  42
1
  50
0
  71
0
  3
isocp.shx
  0
STYLE
  2
KICADI
  70
0
  40
0
  41
1
  42
1
  50
15
  71
0
  3
isocp.shx
  0
STYLE
  2
KICADBI
  70
0
  40
0
  41
1
  42
1
  50
15
  71
0
  3
isocp.shx
  0
ENDTAB
  0
TABLE
  2
LAYER
  70
1
  0
LAYER
  2
BLACK
  70
0
  62
7
  6
CONTINUOUS
  0
ENDTAB
  0
ENDSEC
  0
SECTION
  2
ENTITIES
0
LINE
8
BLACK
6
CONTINUOUS
10
192.713
20
-132.123
11
193.004
21
-132.243
0
LINE
8
BLACK
6
CONTINUOUS
10
193.004
20
-132.243
11
193.266
21
-132.418
0
LINE
8
BLACK
6
CONTINUOUS
10
193.266
20
-132.418
11
193.489
21
-132.641
0
LINE
8
BLACK
6
CONTINUOUS
10
193.489
20
-132.641
11
193.664
21
-132.903
0
LINE
8
BLACK
6
CONTINUOUS
10
193.664
20
-132.903
11
193.785
21
-133.194
0
LINE
8
BLACK
6
CONTINUOUS
10
193.785
20
-133.194
11
193.846
21
-133.504
0
LINE
8
BLACK
6
CONTINUOUS
10
193.846
20
-133.504
11
193.846
21
-133.819
0
LINE
8
BLACK
6
CONTINUOUS
10
193.846
20
-133.819
11
193.785
21
-134.128
0
LINE
8
BLACK
6
CONTINUOUS
10
193.785
20
-134.128
11
193.664
21
-134.419
0
LINE
8
BLACK
6
CONTINUOUS
10
193.664
20
-134.419
11
193.489
21
-134.681
0
LINE
8
BLACK
6
CONTINUOUS
10
193.489
20
-134.681
11
193.266
21
-134.904
0
LINE
8
BLACK
6
CONTINUOUS
10
193.266
20
-134.904
11
193.004
21
-135.079
0
LINE
8
BLACK
6
CONTINUOUS
10
193.004
20
-135.079
11
192.713
21
-135.2
0
LINE
8
BLACK
6
CONTINUOUS
10
192.713
20
-135.2
11
192.404
21
-135.261
0
LINE
8
BLACK
6
CONTINUOUS
10
192.404
20
-135.261
11
192.089
21
-135.261
0
LINE
8
BLACK
6
CONTINUOUS
10
192.089
20
-135.261
11
191.78
21
-135.2
0
LINE
8
BLACK
6
CONTINUOUS
10
191.78
20
-135.2
11
191.488
21
-135.079
0
LINE
8
BLACK
6
CONTINUOUS
10
191.488
20
-135.079
11
191.226
21
-134.904
0
LINE
8
BLACK
6
CONTINUOUS
10
191.226
20
-134.904
11
191.003
21
-134.681
0
LINE
8
BLACK
6
CONTINUOUS
10
191.003
20
-134.681
11
190.828
21
-134.419
0
LINE
8
BLACK
6
CONTINUOUS
10
190.828
20
-134.419
11
190.708
21
-134.128
0
LINE
8
BLACK
6
CONTINUOUS
10
190.708
20
-134.128
11
190.646
21
-133.819
0
LINE
8
BLACK
6
CONTINUOUS
10
190.646
20
-133.819
11
190.646
21
-133.504
0
LINE
8
BLACK
6
CONTINUOUS
10
190.646
20
-133.504
11
190.708
21
-133.194
0
LINE
8
BLACK
6
CONTINUOUS
10
190.708
20
-133.194
11
190.828
21
-132.903
0
LINE
8
BLACK
6
CONTINUOUS
10
190.828
20
-132.903
11
191.003
21
-132.641
0
LINE
8
BLACK
6
CONTINUOUS
10
191.003
20
-132.641
11
191.226
21
-132.418
0
LINE
8
BLACK
6
CONTINUOUS
10
191.226
20
-132.418
11
191.488
21
-132.243
0
LINE
8
BLACK
6
CONTINUOUS
10
191.488
20
-132.243
11
191.78
21
-132.123
0
LINE
8
BLACK
6
CONTINUOUS
10
191.78
20
-132.123
11
192.089
21
-132.061
0
LINE
8
BLACK
6
CONTINUOUS
10
192.089
20
-132.061
11
192.404
21
-132.061
0
LINE
8
BLACK
6
CONTINUOUS
10
192.404
20
-132.061
11
192.713
21
-132.123
0
LINE
8
BLACK
6
CONTINUOUS
10
101.457
20
-123.391
11
101.748
21
-123.512
0
LINE
8
BLACK
6
CONTINUOUS
10
101.748
20
-123.512
11
102.01
21
-123.687
0
LINE
8
BLACK
6
CONTINUOUS
10
102.01
20
-123.687
11
102.233
21
-123.91
0
LINE
8
BLACK
6
CONTINUOUS
10
102.233
20
-123.91
11
102.408
21
-124.172
0
LINE
8
BLACK
6
CONTINUOUS
10
102.408
20
-124.172
11
102.529
21
-124.463
0
LINE
8
BLACK
6
CONTINUOUS
10
102.529
20
-124.463
11
102.59
21
-124.772
0
LINE
8
BLACK
6
CONTINUOUS
10
102.59
20
-124.772
11
102.59
21
-125.087
0
LINE
8
BLACK
6
CONTINUOUS
10
102.59
20
-125.087
11
102.529
21
-125.397
0
LINE
8
BLACK
6
CONTINUOUS
10
102.529
20
-125.397
11
102.408
21
-125.688
0
LINE
8
BLACK
6
CONTINUOUS
10
102.408
20
-125.688
11
102.233
21
-125.95
0
LINE
8
BLACK
6
CONTINUOUS
10
102.233
20
-125.95
11
102.01
21
-126.173
0
LINE
8
BLACK
6
CONTINUOUS
10
102.01
20
-126.173
11
101.748
21
-126.348
0
LINE
8
BLACK
6
CONTINUOUS
10
101.748
20
-126.348
11
101.457
21
-126.468
0
LINE
8
BLACK
6
CONTINUOUS
10
101.457
20
-126.468
11
101.148
21
-126.53
0
LINE
8
BLACK
6
CONTINUOUS
10
101.148
20
-126.53
11
100.833
21
-126.53
0
LINE
8
BLACK
6
CONTINUOUS
10
100.833
20
-126.53
11
100.524
21
-126.468
0
LINE
8
BLACK
6
CONTINUOUS
10
100.524
20
-126.468
11
100.233
21
-126.348
0
LINE
8
BLACK
6
CONTINUOUS
10
100.233
20
-126.348
11
99.9705
21
-126.173
0
LINE
8
BLACK
6
CONTINUOUS
10
99.9705
20
-126.173
11
99.7476
21
-125.95
0
LINE
8
BLACK
6
CONTINUOUS
10
99.7476
20
-125.95
11
99.5725
21
-125.688
0
LINE
8
BLACK
6
CONTINUOUS
10
99.5725
20
-125.688
11
99.4519
21
-125.397
0
LINE
8
BLACK
6
CONTINUOUS
10
99.4519
20
-125.397
11
99.3904
21
-125.087
0
LINE
8
BLACK
6
CONTINUOUS
10
99.3904
20
-125.087
11
99.3904
21
-124.772
0
LINE
8
BLACK
6
CONTINUOUS
10
99.3904
20
-124.772
11
99.4519
21
-124.463
0
LINE
8
BLACK
6
CONTINUOUS
10
99.4519
20
-124.463
11
99.5725
21
-124.172
0
LINE
8
BLACK
6
CONTINUOUS
10
99.5725
20
-124.172
11
99.7476
21
-123.91
0
LINE
8
BLACK
6
CONTINUOUS
10
99.7476
20
-123.91
11
99.9705
21
-123.687
0
LINE
8
BLACK
6
CONTINUOUS
10
99.9705
20
-123.687
11
100.233
21
-123.512
0
LINE
8
BLACK
6
CONTINUOUS
10
100.233
20
-123.512
11
100.524
21
-123.391
0
LINE
8
BLACK
6
CONTINUOUS
10
100.524
20
-123.391
11
100.833
21
-123.33
0
LINE
8
BLACK
6
CONTINUOUS
10
100.833
20
-123.33
11
101.148
21
-123.33
0
LINE
8
BLACK
6
CONTINUOUS
10
101.148
20
-123.33
11
101.457
21
-123.391
0
LINE
8
BLACK
6
CONTINUOUS
10
149.85
20
-118.629
11
150.142
21
-118.749
0
LINE
8
BLACK
6
CONTINUOUS
10
150.142
20
-118.749
11
150.404
21
-118.925
0
LINE
8
BLACK
6
CONTINUOUS
10
150.404
20
-118.925
11
150.627
21
-119.147
0
LINE
8
BLACK
6
CONTINUOUS
10
150.627
20
-119.147
11
150.802
21
-119.41
0
LINE
8
BLACK
6
CONTINUOUS
10
150.802
20
-119.41
11
150.922
21
-119.701
0
LINE
8
BLACK
6
CONTINUOUS
10
150.922
20
-119.701
11
150.984
21
-120.01
0
LINE
8
BLACK
6
CONTINUOUS
10
150.984
20
-120.01
11
150.984
21
-120.325
0
LINE
8
BLACK
6
CONTINUOUS
10
150.984
20
-120.325
11
150.922
21
-120.634
0
LINE
8
BLACK
6
CONTINUOUS
10
150.922
20
-120.634
11
150.802
21
-120.925
0
LINE
8
BLACK
6
CONTINUOUS
10
150.802
20
-120.925
11
150.627
21
-121.187
0
LINE
8
BLACK
6
CONTINUOUS
10
150.627
20
-121.187
11
150.404
21
-121.41
0
LINE
8
BLACK
6
CONTINUOUS
10
150.404
20
-121.41
11
150.142
21
-121.585
0
LINE
8
BLACK
6
CONTINUOUS
10
150.142
20
-121.585
11
149.85
21
-121.706
0
LINE
8
BLACK
6
CONTINUOUS
10
149.85
20
-121.706
11
149.541
21
-121.767
0
LINE
8
BLACK
6
CONTINUOUS
10
149.541
20
-121.767
11
149.226
21
-121.767
0
LINE
8
BLACK
6
CONTINUOUS
10
149.226
20
-121.767
11
148.917
21
-121.706
0
LINE
8
BLACK
6
CONTINUOUS
10
148.917
20
-121.706
11
148.626
21
-121.585
0
LINE
8
BLACK
6
CONTINUOUS
10
148.626
20
-121.585
11
148.364
21
-121.41
0
LINE
8
BLACK
6
CONTINUOUS
10
148.364
20
-121.41
11
148.141
21
-121.187
0
LINE
8
BLACK
6
CONTINUOUS
10
148.141
20
-121.187
11
147.966
21
-120.925
0
LINE
8
BLACK
6
CONTINUOUS
10
147.966
20
-120.925
11
147.845
21
-120.634
0
LINE
8
BLACK
6
CONTINUOUS
10
147.845
20
-120.634
11
147.784
21
-120.325
0
LINE
8
BLACK
6
CONTINUOUS
10
147.784
20
-120.325
11
147.784
21
-120.01
0
LINE
8
BLACK
6
CONTINUOUS
10
147.784
20
-120.01
11
147.845
21
-119.701
0
LINE
8
BLACK
6
CONTINUOUS
10
147.845
20
-119.701
11
147.966
21
-119.41
0
LINE
8
BLACK
6
CONTINUOUS
10
147.966
20
-119.41
11
148.141
21
-119.147
0
LINE
8
BLACK
6
CONTINUOUS
10
148.141
20
-119.147
11
148.364
21
-118.925
0
LINE
8
BLACK
6
CONTINUOUS
10
148.364
20
-118.925
11
148.626
21
-118.749
0
LINE
8
BLACK
6
CONTINUOUS
10
148.626
20
-118.749
11
148.917
21
-118.629
0
LINE
8
BLACK
6
CONTINUOUS
10
148.917
20
-118.629
11
149.226
21
-118.567
0
LINE
8
BLACK
6
CONTINUOUS
10
149.226
20
-118.567
11
149.541
21
-118.567
0
LINE
8
BLACK
6
CONTINUOUS
10
149.541
20
-118.567
11
149.85
21
-118.629
0
LINE
8
BLACK
6
CONTINUOUS
10
101.432
20
-66.2414
11
101.723
21
-66.362
0
LINE
8
BLACK
6
CONTINUOUS
10
101.723
20
-66.362
11
101.985
21
-66.5371
0
LINE
8
BLACK
6
CONTINUOUS
10
101.985
20
-66.5371
11
102.208
21
-66.76
0
LINE
8
BLACK
6
CONTINUOUS
10
102.208
20
-66.76
11
102.383
21
-67.022
0
LINE
8
BLACK
6
CONTINUOUS
10
102.383
20
-67.022
11
102.504
21
-67.3132
0
LINE
8
BLACK
6
CONTINUOUS
10
102.504
20
-67.3132
11
102.565
21
-67.6223
0
LINE
8
BLACK
6
CONTINUOUS
10
102.565
20
-67.6223
11
102.565
21
-67.9375
0
LINE
8
BLACK
6
CONTINUOUS
10
102.565
20
-67.9375
11
102.504
21
-68.2466
0
LINE
8
BLACK
6
CONTINUOUS
10
102.504
20
-68.2466
11
102.383
21
-68.5378
0
LINE
8
BLACK
6
CONTINUOUS
10
102.383
20
-68.5378
11
102.208
21
-68.7998
0
LINE
8
BLACK
6
CONTINUOUS
10
102.208
20
-68.7998
11
101.985
21
-69.0227
0
LINE
8
BLACK
6
CONTINUOUS
10
101.985
20
-69.0227
11
101.723
21
-69.1978
0
LINE
8
BLACK
6
CONTINUOUS
10
101.723
20
-69.1978
11
101.432
21
-69.3184
0
LINE
8
BLACK
6
CONTINUOUS
10
101.432
20
-69.3184
11
101.123
21
-69.3799
0
LINE
8
BLACK
6
CONTINUOUS
10
101.123
20
-69.3799
11
100.807
21
-69.3799
0
LINE
8
BLACK
6
CONTINUOUS
10
100.807
20
-69.3799
11
100.498
21
-69.3184
0
LINE
8
BLACK
6
CONTINUOUS
10
100.498
20
-69.3184
11
100.207
21
-69.1978
0
LINE
8
BLACK
6
CONTINUOUS
10
100.207
20
-69.1978
11
99.9451
21
-69.0227
0
LINE
8
BLACK
6
CONTINUOUS
10
99.9451
20
-69.0227
11
99.7222
21
-68.7998
0
LINE
8
BLACK
6
CONTINUOUS
10
99.7222
20
-68.7998
11
99.5471
21
-68.5378
0
LINE
8
BLACK
6
CONTINUOUS
10
99.5471
20
-68.5378
11
99.4265
21
-68.2466
0
LINE
8
BLACK
6
CONTINUOUS
10
99.4265
20
-68.2466
11
99.365
21
-67.9375
0
LINE
8
BLACK
6
CONTINUOUS
10
99.365
20
-67.9375
11
99.365
21
-67.6223
0
LINE
8
BLACK
6
CONTINUOUS
10
99.365
20
-67.6223
11
99.4265
21
-67.3132
0
LINE
8
BLACK
6
CONTINUOUS
10
99.4265
20
-67.3132
11
99.5471
21
-67.022
0
LINE
8
BLACK
6
CONTINUOUS
10
99.5471
20
-67.022
11
99.7222
21
-66.76
0
LINE
8
BLACK
6
CONTINUOUS
10
99.7222
20
-66.76
11
99.9451
21
-66.5371
0
LINE
8
BLACK
6
CONTINUOUS
10
99.9451
20
-66.5371
11
100.207
21
-66.362
0
LINE
8
BLACK
6
CONTINUOUS
10
100.207
20
-66.362
11
100.498
21
-66.2414
0
LINE
8
BLACK
6
CONTINUOUS
10
100.498
20
-66.2414
11
100.807
21
-66.1799
0
LINE
8
BLACK
6
CONTINUOUS
10
100.807
20
-66.1799
11
101.123
21
-66.1799
0
LINE
8
BLACK
6
CONTINUOUS
10
101.123
20
-66.1799
11
101.432
21
-66.2414
0
LINE
8
BLACK
6
CONTINUOUS
10
177.632
20
-61.4789
11
177.923
21
-61.5995
0
LINE
8
BLACK
6
CONTINUOUS
10
177.923
20
-61.5995
11
178.185
21
-61.7746
0
LINE
8
BLACK
6
CONTINUOUS
10
178.185
20
-61.7746
11
178.408
21
-61.9975
0
LINE
8
BLACK
6
CONTINUOUS
10
178.408
20
-61.9975
11
178.583
21
-62.2595
0
LINE
8
BLACK
6
CONTINUOUS
10
178.583
20
-62.2595
11
178.704
21
-62.5507
0
LINE
8
BLACK
6
CONTINUOUS
10
178.704
20
-62.5507
11
178.765
21
-62.8598
0
LINE
8
BLACK
6
CONTINUOUS
10
178.765
20
-62.8598
11
178.765
21
-63.175
0
LINE
8
BLACK
6
CONTINUOUS
10
178.765
20
-63.175
11
178.704
21
-63.4841
0
LINE
8
BLACK
6
CONTINUOUS
10
178.704
20
-63.4841
11
178.583
21
-63.7753
0
LINE
8
BLACK
6
CONTINUOUS
10
178.583
20
-63.7753
11
178.408
21
-64.0373
0
LINE
8
BLACK
6
CONTINUOUS
10
178.408
20
-64.0373
11
178.185
21
-64.2602
0
LINE
8
BLACK
6
CONTINUOUS
10
178.185
20
-64.2602
11
177.923
21
-64.4353
0
LINE
8
BLACK
6
CONTINUOUS
10
177.923
20
-64.4353
11
177.632
21
-64.5559
0
LINE
8
BLACK
6
CONTINUOUS
10
177.632
20
-64.5559
11
177.323
21
-64.6174
0
LINE
8
BLACK
6
CONTINUOUS
10
177.323
20
-64.6174
11
177.007
21
-64.6174
0
LINE
8
BLACK
6
CONTINUOUS
10
177.007
20
-64.6174
11
176.698
21
-64.5559
0
LINE
8
BLACK
6
CONTINUOUS
10
176.698
20
-64.5559
11
176.407
21
-64.4353
0
LINE
8
BLACK
6
CONTINUOUS
10
176.407
20
-64.4353
11
176.145
21
-64.2602
0
LINE
8
BLACK
6
CONTINUOUS
10
176.145
20
-64.2602
11
175.922
21
-64.0373
0
LINE
8
BLACK
6
CONTINUOUS
10
175.922
20
-64.0373
11
175.747
21
-63.7753
0
LINE
8
BLACK
6
CONTINUOUS
10
175.747
20
-63.7753
11
175.626
21
-63.4841
0
LINE
8
BLACK
6
CONTINUOUS
10
175.626
20
-63.4841
11
175.565
21
-63.175
0
LINE
8
BLACK
6
CONTINUOUS
10
175.565
20
-63.175
11
175.565
21
-62.8598
0
LINE
8
BLACK
6
CONTINUOUS
10
175.565
20
-62.8598
11
175.626
21
-62.5507
0
LINE
8
BLACK
6
CONTINUOUS
10
175.626
20
-62.5507
11
175.747
21
-62.2595
0
LINE
8
BLACK
6
CONTINUOUS
10
175.747
20
-62.2595
11
175.922
21
-61.9975
0
LINE
8
BLACK
6
CONTINUOUS
10
175.922
20
-61.9975
11
176.145
21
-61.7746
0
LINE
8
BLACK
6
CONTINUOUS
10
176.145
20
-61.7746
11
176.407
21
-61.5995
0
LINE
8
BLACK
6
CONTINUOUS
10
176.407
20
-61.5995
11
176.698
21
-61.4789
0
LINE
8
BLACK
6
CONTINUOUS
10
176.698
20
-61.4789
11
177.007
21
-61.4174
0
LINE
8
BLACK
6
CONTINUOUS
10
177.007
20
-61.4174
11
177.323
21
-61.4174
0
LINE
8
BLACK
6
CONTINUOUS
10
177.323
20
-61.4174
11
177.632
21
-61.4789
  0
ENDSEC
  0
EOF
