  0
SECTION
  2
HEADER
  9
$ANGBASE
  50
0.0
  9
$ANGDIR
  70
1
  9
$MEASUREMENT
  70
1
  0
ENDSEC
  0
SECTION
  2
TABLES
  0
TABLE
  2
LTYPE
  70
4
  0
LTYPE
  5
40F
  2
CONTINUOUS
  70
0
  3
Solid line
  72
65
  73
0
  40
0.0
  0
LTYPE
  5
410
  2
DASHDOT
 70
0
  3
Dash Dot ____ _ ____ _
 72
65
 73
4
 40
2.0
 49
1.25
 49
-0.25
 49
0.25
 49
-0.25
  0
LTYPE
  5
411
  2
DASHED
 70
0
  3
Dashed __ __ __ __ __
 72
65
 73
2
 40
0.75
 49
0.5
 49
-0.25
  0
LTYPE
  5
43B
  2
DOTTED
 70
0
  3
Dotted .  .  .  .
 72
65
 73
2
 40
0.2
 49
0.0
 49
-0.2
  0
ENDTAB
  0
TABLE
  2
STYLE
  70
4
  0
STYLE
  2
KICAD
  70
0
  40
0
  41
1
  42
1
  50
0
  71
0
  3
isocp.shx
  0
STYLE
  2
KICADB
  70
0
  40
0
  41
1
  42
1
  50
0
  71
0
  3
isocp.shx
  0
STYLE
  2
KICADI
  70
0
  40
0
  41
1
  42
1
  50
15
  71
0
  3
isocp.shx
  0
STYLE
  2
KICADBI
  70
0
  40
0
  41
1
  42
1
  50
15
  71
0
  3
isocp.shx
  0
ENDTAB
  0
TABLE
  2
LAYER
  70
1
  0
LAYER
  2
BLACK
  70
0
  62
7
  6
CONTINUOUS
  0
ENDTAB
  0
ENDSEC
  0
SECTION
  2
ENTITIES
0
CIRCLE
8
BLACK
10
177.165
20
-63.0174
40
1.6
0
CIRCLE
8
BLACK
10
192.246
20
-133.661
40
1.6
0
CIRCLE
8
BLACK
10
149.384
20
-120.167
40
1.6
0
CIRCLE
8
BLACK
10
100.99
20
-124.93
40
1.6
0
CIRCLE
8
BLACK
10
100.965
20
-67.7799
40
1.6
0
LINE
8
BLACK
6
CONTINUOUS
10
179.22
20
-147.409
11
79.271
21
-147.409
0
ARC
8
BLACK
10
79.271
20
-47.394
40
0.999999
50
90
51
180
0
LINE
8
BLACK
6
CONTINUOUS
10
125.495
20
-38.3168
11
223.345
21
-38.3168
0
ARC
8
BLACK
10
203.34
20
-159.776
40
0.996224
50
-120.321
51
-30.1038
0
LINE
8
BLACK
6
CONTINUOUS
10
117.156
20
-45.6854
11
123.789
21
-39.0253
0
ARC
8
BLACK
10
125.495
20
-40.724
40
2.40726
50
90
51
135.117
0
LINE
8
BLACK
6
CONTINUOUS
10
223.843
20
-126.398
11
204.202
21
-160.276
0
LINE
8
BLACK
6
CONTINUOUS
10
202.837
20
-160.636
11
181.083
21
-147.914
0
ARC
8
BLACK
10
179.22
20
-151.1
40
3.69071
50
59.6793
51
90
0
LINE
8
BLACK
6
CONTINUOUS
10
79.271
20
-46.394
11
115.45
21
-46.394
0
ARC
8
BLACK
10
219.638
20
-124.267
40
4.7145
50
-26.8717
51
-3.23216
0
LINE
8
BLACK
6
CONTINUOUS
10
224.345
20
-39.3168
11
224.345
21
-124.533
0
ARC
8
BLACK
10
223.345
20
-39.3168
40
1
50
-0
51
90
0
ARC
8
BLACK
10
115.45
20
-43.9867
40
2.40725
50
-90
51
-44.8829
0
LINE
8
BLACK
6
CONTINUOUS
10
78.271
20
-146.409
11
78.271
21
-47.394
0
ARC
8
BLACK
10
79.271
20
-146.409
40
1
50
180
51
270
0
LINE
8
BLACK
6
CONTINUOUS
10
197.35
20
-52.3099
11
199.21
21
-52.3099
0
LINE
8
BLACK
6
CONTINUOUS
10
218.72
20
-48.0899
11
197.35
21
-48.0899
0
ARC
8
BLACK
10
197.35
20
-50.1999
40
2.11
50
-270
51
-90
0
ARC
8
BLACK
10
197.35
20
-73.4299
40
2.11
50
90
51
270
0
LINE
8
BLACK
6
CONTINUOUS
10
199.21
20
-52.3099
11
199.21
21
-71.3199
0
LINE
8
BLACK
6
CONTINUOUS
10
218.72
20
-53.8149
11
218.72
21
-48.0899
0
LINE
8
BLACK
6
CONTINUOUS
10
222.565
20
-53.8149
11
218.72
21
-53.8149
0
LINE
8
BLACK
6
CONTINUOUS
10
222.565
20
-69.8149
11
222.565
21
-53.8149
0
LINE
8
BLACK
6
CONTINUOUS
10
218.72
20
-69.8149
11
222.565
21
-69.8149
0
LINE
8
BLACK
6
CONTINUOUS
10
218.72
20
-75.5399
11
218.72
21
-69.8149
0
LINE
8
BLACK
6
CONTINUOUS
10
218.72
20
-75.5399
11
197.35
21
-75.5399
0
LINE
8
BLACK
6
CONTINUOUS
10
197.35
20
-71.3199
11
199.21
21
-71.3199
0
LINE
8
BLACK
6
CONTINUOUS
10
200.78
20
-129.281
11
211.129
21
-135.256
0
LINE
8
BLACK
6
CONTINUOUS
10
217.254
20
-124.647
11
206.905
21
-118.672
0
LINE
8
BLACK
6
CONTINUOUS
10
217.254
20
-124.647
11
211.129
21
-135.256
0
LINE
8
BLACK
6
CONTINUOUS
10
206.905
20
-118.672
11
200.78
21
-129.281
0
LINE
8
BLACK
6
CONTINUOUS
10
151.115
20
-140.82
11
151.115
21
-126.82
0
LINE
8
BLACK
6
CONTINUOUS
10
151.115
20
-126.82
11
165.115
21
-126.82
0
LINE
8
BLACK
6
CONTINUOUS
10
165.115
20
-126.82
11
165.115
21
-140.82
0
LINE
8
BLACK
6
CONTINUOUS
10
151.115
20
-140.82
11
165.115
21
-140.82
0
LINE
8
BLACK
6
CONTINUOUS
10
122.54
20
-79.2249
11
122.54
21
-65.2249
0
LINE
8
BLACK
6
CONTINUOUS
10
122.54
20
-65.2249
11
136.54
21
-65.2249
0
LINE
8
BLACK
6
CONTINUOUS
10
136.54
20
-65.2249
11
136.54
21
-79.2249
0
LINE
8
BLACK
6
CONTINUOUS
10
122.54
20
-79.2249
11
136.54
21
-79.2249
0
LINE
8
BLACK
6
CONTINUOUS
10
84.44
20
-84.3049
11
84.44
21
-70.3049
0
LINE
8
BLACK
6
CONTINUOUS
10
84.44
20
-70.3049
11
98.44
21
-70.3049
0
LINE
8
BLACK
6
CONTINUOUS
10
98.44
20
-70.3049
11
98.44
21
-84.3049
0
LINE
8
BLACK
6
CONTINUOUS
10
84.44
20
-84.3049
11
98.44
21
-84.3049
0
LINE
8
BLACK
6
CONTINUOUS
10
122.54
20
-117.325
11
122.54
21
-103.325
0
LINE
8
BLACK
6
CONTINUOUS
10
122.54
20
-103.325
11
136.54
21
-103.325
0
LINE
8
BLACK
6
CONTINUOUS
10
136.54
20
-103.325
11
136.54
21
-117.325
0
LINE
8
BLACK
6
CONTINUOUS
10
122.54
20
-117.325
11
136.54
21
-117.325
0
LINE
8
BLACK
6
CONTINUOUS
10
160.64
20
-116.69
11
160.64
21
-102.69
0
LINE
8
BLACK
6
CONTINUOUS
10
160.64
20
-102.69
11
174.64
21
-102.69
0
LINE
8
BLACK
6
CONTINUOUS
10
174.64
20
-102.69
11
174.64
21
-116.69
0
LINE
8
BLACK
6
CONTINUOUS
10
160.64
20
-116.69
11
174.64
21
-116.69
0
LINE
8
BLACK
6
CONTINUOUS
10
84.44
20
-141.455
11
84.44
21
-127.455
0
LINE
8
BLACK
6
CONTINUOUS
10
84.44
20
-127.455
11
98.44
21
-127.455
0
LINE
8
BLACK
6
CONTINUOUS
10
98.44
20
-127.455
11
98.44
21
-141.455
0
LINE
8
BLACK
6
CONTINUOUS
10
84.44
20
-141.455
11
98.44
21
-141.455
0
LINE
8
BLACK
6
CONTINUOUS
10
141.59
20
-76.6849
11
141.59
21
-62.6849
0
LINE
8
BLACK
6
CONTINUOUS
10
141.59
20
-62.6849
11
155.59
21
-62.6849
0
LINE
8
BLACK
6
CONTINUOUS
10
155.59
20
-62.6849
11
155.59
21
-76.6849
0
LINE
8
BLACK
6
CONTINUOUS
10
141.59
20
-76.6849
11
155.59
21
-76.6849
0
LINE
8
BLACK
6
CONTINUOUS
10
84.44
20
-65.2549
11
84.44
21
-51.2549
0
LINE
8
BLACK
6
CONTINUOUS
10
84.44
20
-51.2549
11
98.44
21
-51.2549
0
LINE
8
BLACK
6
CONTINUOUS
10
98.44
20
-51.2549
11
98.44
21
-65.2549
0
LINE
8
BLACK
6
CONTINUOUS
10
84.44
20
-65.2549
11
98.44
21
-65.2549
0
LINE
8
BLACK
6
CONTINUOUS
10
103.49
20
-103.355
11
103.49
21
-89.3549
0
LINE
8
BLACK
6
CONTINUOUS
10
103.49
20
-89.3549
11
117.49
21
-89.3549
0
LINE
8
BLACK
6
CONTINUOUS
10
117.49
20
-89.3549
11
117.49
21
-103.355
0
LINE
8
BLACK
6
CONTINUOUS
10
103.49
20
-103.355
11
117.49
21
-103.355
0
LINE
8
BLACK
6
CONTINUOUS
10
84.44
20
-103.355
11
84.44
21
-89.3549
0
LINE
8
BLACK
6
CONTINUOUS
10
84.44
20
-89.3549
11
98.44
21
-89.3549
0
LINE
8
BLACK
6
CONTINUOUS
10
98.44
20
-89.3549
11
98.44
21
-103.355
0
LINE
8
BLACK
6
CONTINUOUS
10
84.44
20
-103.355
11
98.44
21
-103.355
0
LINE
8
BLACK
6
CONTINUOUS
10
84.44
20
-122.405
11
84.44
21
-108.405
0
LINE
8
BLACK
6
CONTINUOUS
10
84.44
20
-108.405
11
98.44
21
-108.405
0
LINE
8
BLACK
6
CONTINUOUS
10
98.44
20
-108.405
11
98.44
21
-122.405
0
LINE
8
BLACK
6
CONTINUOUS
10
84.44
20
-122.405
11
98.44
21
-122.405
0
LINE
8
BLACK
6
CONTINUOUS
10
103.49
20
-84.3049
11
103.49
21
-70.3049
0
LINE
8
BLACK
6
CONTINUOUS
10
103.49
20
-70.3049
11
117.49
21
-70.3049
0
LINE
8
BLACK
6
CONTINUOUS
10
117.49
20
-70.3049
11
117.49
21
-84.3049
0
LINE
8
BLACK
6
CONTINUOUS
10
103.49
20
-84.3049
11
117.49
21
-84.3049
0
LINE
8
BLACK
6
CONTINUOUS
10
160.64
20
-59.5399
11
160.64
21
-45.5399
0
LINE
8
BLACK
6
CONTINUOUS
10
160.64
20
-45.5399
11
174.64
21
-45.5399
0
LINE
8
BLACK
6
CONTINUOUS
10
174.64
20
-45.5399
11
174.64
21
-59.5399
0
LINE
8
BLACK
6
CONTINUOUS
10
160.64
20
-59.5399
11
174.64
21
-59.5399
0
LINE
8
BLACK
6
CONTINUOUS
10
103.49
20
-65.2549
11
103.49
21
-51.2549
0
LINE
8
BLACK
6
CONTINUOUS
10
103.49
20
-51.2549
11
117.49
21
-51.2549
0
LINE
8
BLACK
6
CONTINUOUS
10
117.49
20
-51.2549
11
117.49
21
-65.2549
0
LINE
8
BLACK
6
CONTINUOUS
10
103.49
20
-65.2549
11
117.49
21
-65.2549
0
LINE
8
BLACK
6
CONTINUOUS
10
122.54
20
-98.2749
11
122.54
21
-84.2749
0
LINE
8
BLACK
6
CONTINUOUS
10
122.54
20
-84.2749
11
136.54
21
-84.2749
0
LINE
8
BLACK
6
CONTINUOUS
10
136.54
20
-84.2749
11
136.54
21
-98.2749
0
LINE
8
BLACK
6
CONTINUOUS
10
122.54
20
-98.2749
11
136.54
21
-98.2749
0
LINE
8
BLACK
6
CONTINUOUS
10
103.49
20
-141.455
11
103.49
21
-127.455
0
LINE
8
BLACK
6
CONTINUOUS
10
103.49
20
-127.455
11
117.49
21
-127.455
0
LINE
8
BLACK
6
CONTINUOUS
10
117.49
20
-127.455
11
117.49
21
-141.455
0
LINE
8
BLACK
6
CONTINUOUS
10
103.49
20
-141.455
11
117.49
21
-141.455
0
LINE
8
BLACK
6
CONTINUOUS
10
141.59
20
-114.785
11
141.59
21
-100.785
0
LINE
8
BLACK
6
CONTINUOUS
10
141.59
20
-100.785
11
155.59
21
-100.785
0
LINE
8
BLACK
6
CONTINUOUS
10
155.59
20
-100.785
11
155.59
21
-114.785
0
LINE
8
BLACK
6
CONTINUOUS
10
141.59
20
-114.785
11
155.59
21
-114.785
0
LINE
8
BLACK
6
CONTINUOUS
10
189.93
20
-146.024
11
196.93
21
-133.9
0
LINE
8
BLACK
6
CONTINUOUS
10
196.93
20
-133.9
11
209.054
21
-140.9
0
LINE
8
BLACK
6
CONTINUOUS
10
209.054
20
-140.9
11
202.054
21
-153.024
0
LINE
8
BLACK
6
CONTINUOUS
10
189.93
20
-146.024
11
202.054
21
-153.024
0
LINE
8
BLACK
6
CONTINUOUS
10
170.802
20
-140.789
11
174.425
21
-127.266
0
LINE
8
BLACK
6
CONTINUOUS
10
174.425
20
-127.266
11
187.948
21
-130.889
0
LINE
8
BLACK
6
CONTINUOUS
10
187.948
20
-130.889
11
184.325
21
-144.412
0
LINE
8
BLACK
6
CONTINUOUS
10
170.802
20
-140.789
11
184.325
21
-144.412
0
LINE
8
BLACK
6
CONTINUOUS
10
179.69
20
-61.4449
11
179.69
21
-47.4449
0
LINE
8
BLACK
6
CONTINUOUS
10
179.69
20
-47.4449
11
193.69
21
-47.4449
0
LINE
8
BLACK
6
CONTINUOUS
10
193.69
20
-47.4449
11
193.69
21
-61.4449
0
LINE
8
BLACK
6
CONTINUOUS
10
179.69
20
-61.4449
11
193.69
21
-61.4449
0
LINE
8
BLACK
6
CONTINUOUS
10
122.54
20
-60.1749
11
122.54
21
-46.1749
0
LINE
8
BLACK
6
CONTINUOUS
10
122.54
20
-46.1749
11
136.54
21
-46.1749
0
LINE
8
BLACK
6
CONTINUOUS
10
136.54
20
-46.1749
11
136.54
21
-60.1749
0
LINE
8
BLACK
6
CONTINUOUS
10
122.54
20
-60.1749
11
136.54
21
-60.1749
0
LINE
8
BLACK
6
CONTINUOUS
10
141.59
20
-95.7349
11
141.59
21
-81.7349
0
LINE
8
BLACK
6
CONTINUOUS
10
141.59
20
-81.7349
11
155.59
21
-81.7349
0
LINE
8
BLACK
6
CONTINUOUS
10
155.59
20
-81.7349
11
155.59
21
-95.7349
0
LINE
8
BLACK
6
CONTINUOUS
10
141.59
20
-95.7349
11
155.59
21
-95.7349
0
LINE
8
BLACK
6
CONTINUOUS
10
141.59
20
-57.6349
11
141.59
21
-43.6349
0
LINE
8
BLACK
6
CONTINUOUS
10
141.59
20
-43.6349
11
155.59
21
-43.6349
0
LINE
8
BLACK
6
CONTINUOUS
10
155.59
20
-43.6349
11
155.59
21
-57.6349
0
LINE
8
BLACK
6
CONTINUOUS
10
141.59
20
-57.6349
11
155.59
21
-57.6349
0
LINE
8
BLACK
6
CONTINUOUS
10
103.49
20
-122.405
11
103.49
21
-108.405
0
LINE
8
BLACK
6
CONTINUOUS
10
103.49
20
-108.405
11
117.49
21
-108.405
0
LINE
8
BLACK
6
CONTINUOUS
10
117.49
20
-108.405
11
117.49
21
-122.405
0
LINE
8
BLACK
6
CONTINUOUS
10
103.49
20
-122.405
11
117.49
21
-122.405
0
LINE
8
BLACK
6
CONTINUOUS
10
179.69
20
-118.595
11
179.69
21
-104.595
0
LINE
8
BLACK
6
CONTINUOUS
10
179.69
20
-104.595
11
193.69
21
-104.595
0
LINE
8
BLACK
6
CONTINUOUS
10
193.69
20
-104.595
11
193.69
21
-118.595
0
LINE
8
BLACK
6
CONTINUOUS
10
179.69
20
-118.595
11
193.69
21
-118.595
0
LINE
8
BLACK
6
CONTINUOUS
10
160.64
20
-97.6399
11
160.64
21
-83.6399
0
LINE
8
BLACK
6
CONTINUOUS
10
160.64
20
-83.6399
11
174.64
21
-83.6399
0
LINE
8
BLACK
6
CONTINUOUS
10
174.64
20
-83.6399
11
174.64
21
-97.6399
0
LINE
8
BLACK
6
CONTINUOUS
10
160.64
20
-97.6399
11
174.64
21
-97.6399
0
LINE
8
BLACK
6
CONTINUOUS
10
179.69
20
-80.4949
11
179.69
21
-66.4949
0
LINE
8
BLACK
6
CONTINUOUS
10
179.69
20
-66.4949
11
193.69
21
-66.4949
0
LINE
8
BLACK
6
CONTINUOUS
10
193.69
20
-66.4949
11
193.69
21
-80.4949
0
LINE
8
BLACK
6
CONTINUOUS
10
179.69
20
-80.4949
11
193.69
21
-80.4949
0
LINE
8
BLACK
6
CONTINUOUS
10
160.64
20
-78.5899
11
160.64
21
-64.5899
0
LINE
8
BLACK
6
CONTINUOUS
10
160.64
20
-64.5899
11
174.64
21
-64.5899
0
LINE
8
BLACK
6
CONTINUOUS
10
174.64
20
-64.5899
11
174.64
21
-78.5899
0
LINE
8
BLACK
6
CONTINUOUS
10
160.64
20
-78.5899
11
174.64
21
-78.5899
0
LINE
8
BLACK
6
CONTINUOUS
10
122.54
20
-136.375
11
122.54
21
-122.375
0
LINE
8
BLACK
6
CONTINUOUS
10
122.54
20
-122.375
11
136.54
21
-122.375
0
LINE
8
BLACK
6
CONTINUOUS
10
136.54
20
-122.375
11
136.54
21
-136.375
0
LINE
8
BLACK
6
CONTINUOUS
10
122.54
20
-136.375
11
136.54
21
-136.375
0
LINE
8
BLACK
6
CONTINUOUS
10
179.69
20
-99.5449
11
179.69
21
-85.5449
0
LINE
8
BLACK
6
CONTINUOUS
10
179.69
20
-85.5449
11
193.69
21
-85.5449
0
LINE
8
BLACK
6
CONTINUOUS
10
193.69
20
-85.5449
11
193.69
21
-99.5449
0
LINE
8
BLACK
6
CONTINUOUS
10
179.69
20
-99.5449
11
193.69
21
-99.5449
  0
ENDSEC
  0
EOF
