  0
SECTION
  2
HEADER
  9
$ANGBASE
  50
0.0
  9
$ANGDIR
  70
1
  9
$MEASUREMENT
  70
1
  0
ENDSEC
  0
SECTION
  2
TABLES
  0
TABLE
  2
LTYPE
  70
4
  0
LTYPE
  5
40F
  2
CONTINUOUS
  70
0
  3
Solid line
  72
65
  73
0
  40
0.0
  0
LTYPE
  5
410
  2
DASHDOT
 70
0
  3
Dash Dot ____ _ ____ _
 72
65
 73
4
 40
2.0
 49
1.25
 49
-0.25
 49
0.25
 49
-0.25
  0
LTYPE
  5
411
  2
DASHED
 70
0
  3
Dashed __ __ __ __ __
 72
65
 73
2
 40
0.75
 49
0.5
 49
-0.25
  0
LTYPE
  5
43B
  2
DOTTED
 70
0
  3
Dotted .  .  .  .
 72
65
 73
2
 40
0.2
 49
0.0
 49
-0.2
  0
ENDTAB
  0
TABLE
  2
STYLE
  70
4
  0
STYLE
  2
KICAD
  70
0
  40
0
  41
1
  42
1
  50
0
  71
0
  3
isocp.shx
  0
STYLE
  2
KICADB
  70
0
  40
0
  41
1
  42
1
  50
0
  71
0
  3
isocp.shx
  0
STYLE
  2
KICADI
  70
0
  40
0
  41
1
  42
1
  50
15
  71
0
  3
isocp.shx
  0
STYLE
  2
KICADBI
  70
0
  40
0
  41
1
  42
1
  50
15
  71
0
  3
isocp.shx
  0
ENDTAB
  0
TABLE
  2
LAYER
  70
1
  0
LAYER
  2
BLACK
  70
0
  62
7
  6
CONTINUOUS
  0
ENDTAB
  0
ENDSEC
  0
SECTION
  2
ENTITIES
0
LINE
8
BLACK
6
CONTINUOUS
10
192.622
20
-132.052
11
192.728
21
-132.074
0
LINE
8
BLACK
6
CONTINUOUS
10
192.728
20
-132.074
11
193.028
21
-132.198
0
LINE
8
BLACK
6
CONTINUOUS
10
193.028
20
-132.198
11
193.299
21
-132.379
0
LINE
8
BLACK
6
CONTINUOUS
10
193.299
20
-132.379
11
193.529
21
-132.609
0
LINE
8
BLACK
6
CONTINUOUS
10
193.529
20
-132.609
11
193.709
21
-132.879
0
LINE
8
BLACK
6
CONTINUOUS
10
193.709
20
-132.879
11
193.834
21
-133.18
0
LINE
8
BLACK
6
CONTINUOUS
10
193.834
20
-133.18
11
193.897
21
-133.499
0
LINE
8
BLACK
6
CONTINUOUS
10
193.897
20
-133.499
11
193.897
21
-133.824
0
LINE
8
BLACK
6
CONTINUOUS
10
193.897
20
-133.824
11
193.834
21
-134.143
0
LINE
8
BLACK
6
CONTINUOUS
10
193.834
20
-134.143
11
193.709
21
-134.443
0
LINE
8
BLACK
6
CONTINUOUS
10
193.709
20
-134.443
11
193.529
21
-134.714
0
LINE
8
BLACK
6
CONTINUOUS
10
193.529
20
-134.714
11
193.299
21
-134.944
0
LINE
8
BLACK
6
CONTINUOUS
10
193.299
20
-134.944
11
193.028
21
-135.124
0
LINE
8
BLACK
6
CONTINUOUS
10
193.028
20
-135.124
11
192.728
21
-135.249
0
LINE
8
BLACK
6
CONTINUOUS
10
192.728
20
-135.249
11
192.622
21
-135.27
0
LINE
8
BLACK
6
CONTINUOUS
10
192.622
20
-135.27
11
192.409
21
-135.312
0
LINE
8
BLACK
6
CONTINUOUS
10
192.409
20
-135.312
11
192.084
21
-135.312
0
LINE
8
BLACK
6
CONTINUOUS
10
192.084
20
-135.312
11
191.871
21
-135.27
0
LINE
8
BLACK
6
CONTINUOUS
10
191.871
20
-135.27
11
191.765
21
-135.249
0
LINE
8
BLACK
6
CONTINUOUS
10
191.765
20
-135.249
11
191.464
21
-135.124
0
LINE
8
BLACK
6
CONTINUOUS
10
191.464
20
-135.124
11
191.194
21
-134.944
0
LINE
8
BLACK
6
CONTINUOUS
10
191.194
20
-134.944
11
190.964
21
-134.714
0
LINE
8
BLACK
6
CONTINUOUS
10
190.964
20
-134.714
11
190.783
21
-134.443
0
LINE
8
BLACK
6
CONTINUOUS
10
190.783
20
-134.443
11
190.659
21
-134.143
0
LINE
8
BLACK
6
CONTINUOUS
10
190.659
20
-134.143
11
190.595
21
-133.824
0
LINE
8
BLACK
6
CONTINUOUS
10
190.595
20
-133.824
11
190.595
21
-133.499
0
LINE
8
BLACK
6
CONTINUOUS
10
190.595
20
-133.499
11
190.659
21
-133.18
0
LINE
8
BLACK
6
CONTINUOUS
10
190.659
20
-133.18
11
190.783
21
-132.879
0
LINE
8
BLACK
6
CONTINUOUS
10
190.783
20
-132.879
11
190.964
21
-132.609
0
LINE
8
BLACK
6
CONTINUOUS
10
190.964
20
-132.609
11
191.194
21
-132.379
0
LINE
8
BLACK
6
CONTINUOUS
10
191.194
20
-132.379
11
191.464
21
-132.198
0
LINE
8
BLACK
6
CONTINUOUS
10
191.464
20
-132.198
11
191.765
21
-132.074
0
LINE
8
BLACK
6
CONTINUOUS
10
191.765
20
-132.074
11
191.871
21
-132.052
0
LINE
8
BLACK
6
CONTINUOUS
10
191.871
20
-132.052
11
192.084
21
-132.01
0
LINE
8
BLACK
6
CONTINUOUS
10
192.084
20
-132.01
11
192.409
21
-132.01
0
LINE
8
BLACK
6
CONTINUOUS
10
192.409
20
-132.01
11
192.622
21
-132.052
0
LINE
8
BLACK
6
CONTINUOUS
10
101.366
20
-123.321
11
101.472
21
-123.342
0
LINE
8
BLACK
6
CONTINUOUS
10
101.472
20
-123.342
11
101.772
21
-123.467
0
LINE
8
BLACK
6
CONTINUOUS
10
101.772
20
-123.467
11
102.043
21
-123.647
0
LINE
8
BLACK
6
CONTINUOUS
10
102.043
20
-123.647
11
102.273
21
-123.877
0
LINE
8
BLACK
6
CONTINUOUS
10
102.273
20
-123.877
11
102.453
21
-124.148
0
LINE
8
BLACK
6
CONTINUOUS
10
102.453
20
-124.148
11
102.578
21
-124.448
0
LINE
8
BLACK
6
CONTINUOUS
10
102.578
20
-124.448
11
102.641
21
-124.767
0
LINE
8
BLACK
6
CONTINUOUS
10
102.641
20
-124.767
11
102.641
21
-125.093
0
LINE
8
BLACK
6
CONTINUOUS
10
102.641
20
-125.093
11
102.578
21
-125.411
0
LINE
8
BLACK
6
CONTINUOUS
10
102.578
20
-125.411
11
102.453
21
-125.712
0
LINE
8
BLACK
6
CONTINUOUS
10
102.453
20
-125.712
11
102.273
21
-125.982
0
LINE
8
BLACK
6
CONTINUOUS
10
102.273
20
-125.982
11
102.043
21
-126.212
0
LINE
8
BLACK
6
CONTINUOUS
10
102.043
20
-126.212
11
101.772
21
-126.393
0
LINE
8
BLACK
6
CONTINUOUS
10
101.772
20
-126.393
11
101.472
21
-126.517
0
LINE
8
BLACK
6
CONTINUOUS
10
101.472
20
-126.517
11
101.366
21
-126.539
0
LINE
8
BLACK
6
CONTINUOUS
10
101.366
20
-126.539
11
101.153
21
-126.581
0
LINE
8
BLACK
6
CONTINUOUS
10
101.153
20
-126.581
11
100.828
21
-126.581
0
LINE
8
BLACK
6
CONTINUOUS
10
100.828
20
-126.581
11
100.615
21
-126.539
0
LINE
8
BLACK
6
CONTINUOUS
10
100.615
20
-126.539
11
100.509
21
-126.517
0
LINE
8
BLACK
6
CONTINUOUS
10
100.509
20
-126.517
11
100.208
21
-126.393
0
LINE
8
BLACK
6
CONTINUOUS
10
100.208
20
-126.393
11
99.9379
21
-126.212
0
LINE
8
BLACK
6
CONTINUOUS
10
99.9379
20
-126.212
11
99.708
21
-125.982
0
LINE
8
BLACK
6
CONTINUOUS
10
99.708
20
-125.982
11
99.5273
21
-125.712
0
LINE
8
BLACK
6
CONTINUOUS
10
99.5273
20
-125.712
11
99.4028
21
-125.411
0
LINE
8
BLACK
6
CONTINUOUS
10
99.4028
20
-125.411
11
99.3394
21
-125.093
0
LINE
8
BLACK
6
CONTINUOUS
10
99.3394
20
-125.093
11
99.3394
21
-124.767
0
LINE
8
BLACK
6
CONTINUOUS
10
99.3394
20
-124.767
11
99.4028
21
-124.448
0
LINE
8
BLACK
6
CONTINUOUS
10
99.4028
20
-124.448
11
99.5273
21
-124.148
0
LINE
8
BLACK
6
CONTINUOUS
10
99.5273
20
-124.148
11
99.708
21
-123.877
0
LINE
8
BLACK
6
CONTINUOUS
10
99.708
20
-123.877
11
99.9379
21
-123.647
0
LINE
8
BLACK
6
CONTINUOUS
10
99.9379
20
-123.647
11
100.208
21
-123.467
0
LINE
8
BLACK
6
CONTINUOUS
10
100.208
20
-123.467
11
100.509
21
-123.342
0
LINE
8
BLACK
6
CONTINUOUS
10
100.509
20
-123.342
11
100.615
21
-123.321
0
LINE
8
BLACK
6
CONTINUOUS
10
100.615
20
-123.321
11
100.828
21
-123.279
0
LINE
8
BLACK
6
CONTINUOUS
10
100.828
20
-123.279
11
101.153
21
-123.279
0
LINE
8
BLACK
6
CONTINUOUS
10
101.153
20
-123.279
11
101.366
21
-123.321
0
LINE
8
BLACK
6
CONTINUOUS
10
149.759
20
-118.559
11
149.865
21
-118.58
0
LINE
8
BLACK
6
CONTINUOUS
10
149.865
20
-118.58
11
150.166
21
-118.704
0
LINE
8
BLACK
6
CONTINUOUS
10
150.166
20
-118.704
11
150.436
21
-118.885
0
LINE
8
BLACK
6
CONTINUOUS
10
150.436
20
-118.885
11
150.666
21
-119.115
0
LINE
8
BLACK
6
CONTINUOUS
10
150.666
20
-119.115
11
150.847
21
-119.385
0
LINE
8
BLACK
6
CONTINUOUS
10
150.847
20
-119.385
11
150.971
21
-119.686
0
LINE
8
BLACK
6
CONTINUOUS
10
150.971
20
-119.686
11
151.035
21
-120.005
0
LINE
8
BLACK
6
CONTINUOUS
10
151.035
20
-120.005
11
151.035
21
-120.33
0
LINE
8
BLACK
6
CONTINUOUS
10
151.035
20
-120.33
11
150.971
21
-120.649
0
LINE
8
BLACK
6
CONTINUOUS
10
150.971
20
-120.649
11
150.847
21
-120.949
0
LINE
8
BLACK
6
CONTINUOUS
10
150.847
20
-120.949
11
150.666
21
-121.22
0
LINE
8
BLACK
6
CONTINUOUS
10
150.666
20
-121.22
11
150.436
21
-121.45
0
LINE
8
BLACK
6
CONTINUOUS
10
150.436
20
-121.45
11
150.166
21
-121.63
0
LINE
8
BLACK
6
CONTINUOUS
10
150.166
20
-121.63
11
149.865
21
-121.755
0
LINE
8
BLACK
6
CONTINUOUS
10
149.865
20
-121.755
11
149.759
21
-121.776
0
LINE
8
BLACK
6
CONTINUOUS
10
149.759
20
-121.776
11
149.546
21
-121.818
0
LINE
8
BLACK
6
CONTINUOUS
10
149.546
20
-121.818
11
149.221
21
-121.818
0
LINE
8
BLACK
6
CONTINUOUS
10
149.221
20
-121.818
11
149.008
21
-121.776
0
LINE
8
BLACK
6
CONTINUOUS
10
149.008
20
-121.776
11
148.902
21
-121.755
0
LINE
8
BLACK
6
CONTINUOUS
10
148.902
20
-121.755
11
148.602
21
-121.63
0
LINE
8
BLACK
6
CONTINUOUS
10
148.602
20
-121.63
11
148.331
21
-121.45
0
LINE
8
BLACK
6
CONTINUOUS
10
148.331
20
-121.45
11
148.101
21
-121.22
0
LINE
8
BLACK
6
CONTINUOUS
10
148.101
20
-121.22
11
147.921
21
-120.949
0
LINE
8
BLACK
6
CONTINUOUS
10
147.921
20
-120.949
11
147.796
21
-120.649
0
LINE
8
BLACK
6
CONTINUOUS
10
147.796
20
-120.649
11
147.733
21
-120.33
0
LINE
8
BLACK
6
CONTINUOUS
10
147.733
20
-120.33
11
147.733
21
-120.005
0
LINE
8
BLACK
6
CONTINUOUS
10
147.733
20
-120.005
11
147.796
21
-119.686
0
LINE
8
BLACK
6
CONTINUOUS
10
147.796
20
-119.686
11
147.921
21
-119.385
0
LINE
8
BLACK
6
CONTINUOUS
10
147.921
20
-119.385
11
148.101
21
-119.115
0
LINE
8
BLACK
6
CONTINUOUS
10
148.101
20
-119.115
11
148.331
21
-118.885
0
LINE
8
BLACK
6
CONTINUOUS
10
148.331
20
-118.885
11
148.602
21
-118.704
0
LINE
8
BLACK
6
CONTINUOUS
10
148.602
20
-118.704
11
148.902
21
-118.58
0
LINE
8
BLACK
6
CONTINUOUS
10
148.902
20
-118.58
11
149.008
21
-118.559
0
LINE
8
BLACK
6
CONTINUOUS
10
149.008
20
-118.559
11
149.221
21
-118.516
0
LINE
8
BLACK
6
CONTINUOUS
10
149.221
20
-118.516
11
149.546
21
-118.516
0
LINE
8
BLACK
6
CONTINUOUS
10
149.546
20
-118.516
11
149.759
21
-118.559
0
LINE
8
BLACK
6
CONTINUOUS
10
101.34
20
-66.1712
11
101.447
21
-66.1923
0
LINE
8
BLACK
6
CONTINUOUS
10
101.447
20
-66.1923
11
101.747
21
-66.3168
0
LINE
8
BLACK
6
CONTINUOUS
10
101.747
20
-66.3168
11
102.017
21
-66.4975
0
LINE
8
BLACK
6
CONTINUOUS
10
102.017
20
-66.4975
11
102.247
21
-66.7274
0
LINE
8
BLACK
6
CONTINUOUS
10
102.247
20
-66.7274
11
102.428
21
-66.9979
0
LINE
8
BLACK
6
CONTINUOUS
10
102.428
20
-66.9979
11
102.553
21
-67.2983
0
LINE
8
BLACK
6
CONTINUOUS
10
102.553
20
-67.2983
11
102.616
21
-67.6173
0
LINE
8
BLACK
6
CONTINUOUS
10
102.616
20
-67.6173
11
102.616
21
-67.9425
0
LINE
8
BLACK
6
CONTINUOUS
10
102.616
20
-67.9425
11
102.553
21
-68.2615
0
LINE
8
BLACK
6
CONTINUOUS
10
102.553
20
-68.2615
11
102.428
21
-68.5619
0
LINE
8
BLACK
6
CONTINUOUS
10
102.428
20
-68.5619
11
102.247
21
-68.8324
0
LINE
8
BLACK
6
CONTINUOUS
10
102.247
20
-68.8324
11
102.017
21
-69.0623
0
LINE
8
BLACK
6
CONTINUOUS
10
102.017
20
-69.0623
11
101.747
21
-69.243
0
LINE
8
BLACK
6
CONTINUOUS
10
101.747
20
-69.243
11
101.447
21
-69.3675
0
LINE
8
BLACK
6
CONTINUOUS
10
101.447
20
-69.3675
11
101.34
21
-69.3886
0
LINE
8
BLACK
6
CONTINUOUS
10
101.34
20
-69.3886
11
101.128
21
-69.4309
0
LINE
8
BLACK
6
CONTINUOUS
10
101.128
20
-69.4309
11
100.802
21
-69.4309
0
LINE
8
BLACK
6
CONTINUOUS
10
100.802
20
-69.4309
11
100.59
21
-69.3886
0
LINE
8
BLACK
6
CONTINUOUS
10
100.59
20
-69.3886
11
100.483
21
-69.3675
0
LINE
8
BLACK
6
CONTINUOUS
10
100.483
20
-69.3675
11
100.183
21
-69.243
0
LINE
8
BLACK
6
CONTINUOUS
10
100.183
20
-69.243
11
99.9125
21
-69.0623
0
LINE
8
BLACK
6
CONTINUOUS
10
99.9125
20
-69.0623
11
99.6826
21
-68.8324
0
LINE
8
BLACK
6
CONTINUOUS
10
99.6826
20
-68.8324
11
99.5019
21
-68.5619
0
LINE
8
BLACK
6
CONTINUOUS
10
99.5019
20
-68.5619
11
99.3774
21
-68.2615
0
LINE
8
BLACK
6
CONTINUOUS
10
99.3774
20
-68.2615
11
99.314
21
-67.9425
0
LINE
8
BLACK
6
CONTINUOUS
10
99.314
20
-67.9425
11
99.314
21
-67.6173
0
LINE
8
BLACK
6
CONTINUOUS
10
99.314
20
-67.6173
11
99.3774
21
-67.2983
0
LINE
8
BLACK
6
CONTINUOUS
10
99.3774
20
-67.2983
11
99.5019
21
-66.9979
0
LINE
8
BLACK
6
CONTINUOUS
10
99.5019
20
-66.9979
11
99.6826
21
-66.7274
0
LINE
8
BLACK
6
CONTINUOUS
10
99.6826
20
-66.7274
11
99.9125
21
-66.4975
0
LINE
8
BLACK
6
CONTINUOUS
10
99.9125
20
-66.4975
11
100.183
21
-66.3168
0
LINE
8
BLACK
6
CONTINUOUS
10
100.183
20
-66.3168
11
100.483
21
-66.1923
0
LINE
8
BLACK
6
CONTINUOUS
10
100.483
20
-66.1923
11
100.59
21
-66.1712
0
LINE
8
BLACK
6
CONTINUOUS
10
100.59
20
-66.1712
11
100.802
21
-66.1289
0
LINE
8
BLACK
6
CONTINUOUS
10
100.802
20
-66.1289
11
101.128
21
-66.1289
0
LINE
8
BLACK
6
CONTINUOUS
10
101.128
20
-66.1289
11
101.34
21
-66.1712
0
LINE
8
BLACK
6
CONTINUOUS
10
177.54
20
-61.4087
11
177.647
21
-61.4298
0
LINE
8
BLACK
6
CONTINUOUS
10
177.647
20
-61.4298
11
177.947
21
-61.5543
0
LINE
8
BLACK
6
CONTINUOUS
10
177.947
20
-61.5543
11
178.217
21
-61.735
0
LINE
8
BLACK
6
CONTINUOUS
10
178.217
20
-61.735
11
178.447
21
-61.9649
0
LINE
8
BLACK
6
CONTINUOUS
10
178.447
20
-61.9649
11
178.628
21
-62.2354
0
LINE
8
BLACK
6
CONTINUOUS
10
178.628
20
-62.2354
11
178.753
21
-62.5358
0
LINE
8
BLACK
6
CONTINUOUS
10
178.753
20
-62.5358
11
178.816
21
-62.8548
0
LINE
8
BLACK
6
CONTINUOUS
10
178.816
20
-62.8548
11
178.816
21
-63.18
0
LINE
8
BLACK
6
CONTINUOUS
10
178.816
20
-63.18
11
178.753
21
-63.499
0
LINE
8
BLACK
6
CONTINUOUS
10
178.753
20
-63.499
11
178.628
21
-63.7994
0
LINE
8
BLACK
6
CONTINUOUS
10
178.628
20
-63.7994
11
178.447
21
-64.0698
0
LINE
8
BLACK
6
CONTINUOUS
10
178.447
20
-64.0698
11
178.217
21
-64.2998
0
LINE
8
BLACK
6
CONTINUOUS
10
178.217
20
-64.2998
11
177.947
21
-64.4805
0
LINE
8
BLACK
6
CONTINUOUS
10
177.947
20
-64.4805
11
177.647
21
-64.6049
0
LINE
8
BLACK
6
CONTINUOUS
10
177.647
20
-64.6049
11
177.54
21
-64.6261
0
LINE
8
BLACK
6
CONTINUOUS
10
177.54
20
-64.6261
11
177.328
21
-64.6684
0
LINE
8
BLACK
6
CONTINUOUS
10
177.328
20
-64.6684
11
177.002
21
-64.6684
0
LINE
8
BLACK
6
CONTINUOUS
10
177.002
20
-64.6684
11
176.79
21
-64.6261
0
LINE
8
BLACK
6
CONTINUOUS
10
176.79
20
-64.6261
11
176.683
21
-64.6049
0
LINE
8
BLACK
6
CONTINUOUS
10
176.683
20
-64.6049
11
176.383
21
-64.4805
0
LINE
8
BLACK
6
CONTINUOUS
10
176.383
20
-64.4805
11
176.113
21
-64.2998
0
LINE
8
BLACK
6
CONTINUOUS
10
176.113
20
-64.2998
11
175.883
21
-64.0698
0
LINE
8
BLACK
6
CONTINUOUS
10
175.883
20
-64.0698
11
175.702
21
-63.7994
0
LINE
8
BLACK
6
CONTINUOUS
10
175.702
20
-63.7994
11
175.577
21
-63.499
0
LINE
8
BLACK
6
CONTINUOUS
10
175.577
20
-63.499
11
175.514
21
-63.18
0
LINE
8
BLACK
6
CONTINUOUS
10
175.514
20
-63.18
11
175.514
21
-62.8548
0
LINE
8
BLACK
6
CONTINUOUS
10
175.514
20
-62.8548
11
175.577
21
-62.5358
0
LINE
8
BLACK
6
CONTINUOUS
10
175.577
20
-62.5358
11
175.702
21
-62.2354
0
LINE
8
BLACK
6
CONTINUOUS
10
175.702
20
-62.2354
11
175.883
21
-61.9649
0
LINE
8
BLACK
6
CONTINUOUS
10
175.883
20
-61.9649
11
176.113
21
-61.735
0
LINE
8
BLACK
6
CONTINUOUS
10
176.113
20
-61.735
11
176.383
21
-61.5543
0
LINE
8
BLACK
6
CONTINUOUS
10
176.383
20
-61.5543
11
176.683
21
-61.4298
0
LINE
8
BLACK
6
CONTINUOUS
10
176.683
20
-61.4298
11
176.79
21
-61.4087
0
LINE
8
BLACK
6
CONTINUOUS
10
176.79
20
-61.4087
11
177.002
21
-61.3664
0
LINE
8
BLACK
6
CONTINUOUS
10
177.002
20
-61.3664
11
177.328
21
-61.3664
0
LINE
8
BLACK
6
CONTINUOUS
10
177.328
20
-61.3664
11
177.54
21
-61.4087
  0
ENDSEC
  0
EOF
