  0
SECTION
  2
HEADER
  9
$ANGBASE
  50
0.0
  9
$ANGDIR
  70
1
  9
$MEASUREMENT
  70
1
  0
ENDSEC
  0
SECTION
  2
TABLES
  0
TABLE
  2
LTYPE
  70
4
  0
LTYPE
  5
40F
  2
CONTINUOUS
  70
0
  3
Solid line
  72
65
  73
0
  40
0.0
  0
LTYPE
  5
410
  2
DASHDOT
 70
0
  3
Dash Dot ____ _ ____ _
 72
65
 73
4
 40
2.0
 49
1.25
 49
-0.25
 49
0.25
 49
-0.25
  0
LTYPE
  5
411
  2
DASHED
 70
0
  3
Dashed __ __ __ __ __
 72
65
 73
2
 40
0.75
 49
0.5
 49
-0.25
  0
LTYPE
  5
43B
  2
DOTTED
 70
0
  3
Dotted .  .  .  .
 72
65
 73
2
 40
0.2
 49
0.0
 49
-0.2
  0
ENDTAB
  0
TABLE
  2
STYLE
  70
4
  0
STYLE
  2
KICAD
  70
0
  40
0
  41
1
  42
1
  50
0
  71
0
  3
isocp.shx
  0
STYLE
  2
KICADB
  70
0
  40
0
  41
1
  42
1
  50
0
  71
0
  3
isocp.shx
  0
STYLE
  2
KICADI
  70
0
  40
0
  41
1
  42
1
  50
15
  71
0
  3
isocp.shx
  0
STYLE
  2
KICADBI
  70
0
  40
0
  41
1
  42
1
  50
15
  71
0
  3
isocp.shx
  0
ENDTAB
  0
TABLE
  2
LAYER
  70
1
  0
LAYER
  2
BLACK
  70
0
  62
7
  6
CONTINUOUS
  0
ENDTAB
  0
ENDSEC
  0
SECTION
  2
ENTITIES
0
LINE
8
BLACK
6
CONTINUOUS
10
316.263
20
-152.453
11
314.461
21
-152.453
0
LINE
8
BLACK
6
CONTINUOUS
10
314.461
20
-152.453
11
314.461
21
-150.651
0
LINE
8
BLACK
6
CONTINUOUS
10
314.461
20
-150.651
11
316.263
21
-150.651
0
LINE
8
BLACK
6
CONTINUOUS
10
316.263
20
-150.651
11
316.263
21
-152.453
0
LINE
8
BLACK
6
CONTINUOUS
10
312.935
20
-150.656
11
313.085
21
-150.686
0
LINE
8
BLACK
6
CONTINUOUS
10
313.085
20
-150.686
11
313.249
21
-150.753
0
LINE
8
BLACK
6
CONTINUOUS
10
313.249
20
-150.753
11
313.396
21
-150.852
0
LINE
8
BLACK
6
CONTINUOUS
10
313.396
20
-150.852
11
313.522
21
-150.978
0
LINE
8
BLACK
6
CONTINUOUS
10
313.522
20
-150.978
11
313.62
21
-151.125
0
LINE
8
BLACK
6
CONTINUOUS
10
313.62
20
-151.125
11
313.688
21
-151.289
0
LINE
8
BLACK
6
CONTINUOUS
10
313.688
20
-151.289
11
313.723
21
-151.463
0
LINE
8
BLACK
6
CONTINUOUS
10
313.723
20
-151.463
11
313.723
21
-151.641
0
LINE
8
BLACK
6
CONTINUOUS
10
313.723
20
-151.641
11
313.688
21
-151.815
0
LINE
8
BLACK
6
CONTINUOUS
10
313.688
20
-151.815
11
313.62
21
-151.979
0
LINE
8
BLACK
6
CONTINUOUS
10
313.62
20
-151.979
11
313.522
21
-152.126
0
LINE
8
BLACK
6
CONTINUOUS
10
313.522
20
-152.126
11
313.396
21
-152.252
0
LINE
8
BLACK
6
CONTINUOUS
10
313.396
20
-152.252
11
313.249
21
-152.35
0
LINE
8
BLACK
6
CONTINUOUS
10
313.249
20
-152.35
11
313.085
21
-152.418
0
LINE
8
BLACK
6
CONTINUOUS
10
313.085
20
-152.418
11
312.935
21
-152.448
0
LINE
8
BLACK
6
CONTINUOUS
10
312.935
20
-152.448
11
312.911
21
-152.453
0
LINE
8
BLACK
6
CONTINUOUS
10
312.911
20
-152.453
11
312.733
21
-152.453
0
LINE
8
BLACK
6
CONTINUOUS
10
312.733
20
-152.453
11
312.708
21
-152.448
0
LINE
8
BLACK
6
CONTINUOUS
10
312.708
20
-152.448
11
312.559
21
-152.418
0
LINE
8
BLACK
6
CONTINUOUS
10
312.559
20
-152.418
11
312.395
21
-152.35
0
LINE
8
BLACK
6
CONTINUOUS
10
312.395
20
-152.35
11
312.248
21
-152.252
0
LINE
8
BLACK
6
CONTINUOUS
10
312.248
20
-152.252
11
312.122
21
-152.126
0
LINE
8
BLACK
6
CONTINUOUS
10
312.122
20
-152.126
11
312.023
21
-151.979
0
LINE
8
BLACK
6
CONTINUOUS
10
312.023
20
-151.979
11
311.956
21
-151.815
0
LINE
8
BLACK
6
CONTINUOUS
10
311.956
20
-151.815
11
311.921
21
-151.641
0
LINE
8
BLACK
6
CONTINUOUS
10
311.921
20
-151.641
11
311.921
21
-151.463
0
LINE
8
BLACK
6
CONTINUOUS
10
311.921
20
-151.463
11
311.956
21
-151.289
0
LINE
8
BLACK
6
CONTINUOUS
10
311.956
20
-151.289
11
312.023
21
-151.125
0
LINE
8
BLACK
6
CONTINUOUS
10
312.023
20
-151.125
11
312.122
21
-150.978
0
LINE
8
BLACK
6
CONTINUOUS
10
312.122
20
-150.978
11
312.248
21
-150.852
0
LINE
8
BLACK
6
CONTINUOUS
10
312.248
20
-150.852
11
312.395
21
-150.753
0
LINE
8
BLACK
6
CONTINUOUS
10
312.395
20
-150.753
11
312.559
21
-150.686
0
LINE
8
BLACK
6
CONTINUOUS
10
312.559
20
-150.686
11
312.708
21
-150.656
0
LINE
8
BLACK
6
CONTINUOUS
10
312.708
20
-150.656
11
312.733
21
-150.651
0
LINE
8
BLACK
6
CONTINUOUS
10
312.733
20
-150.651
11
312.911
21
-150.651
0
LINE
8
BLACK
6
CONTINUOUS
10
312.911
20
-150.651
11
312.935
21
-150.656
0
LINE
8
BLACK
6
CONTINUOUS
10
310.395
20
-150.656
11
310.545
21
-150.686
0
LINE
8
BLACK
6
CONTINUOUS
10
310.545
20
-150.686
11
310.709
21
-150.753
0
LINE
8
BLACK
6
CONTINUOUS
10
310.709
20
-150.753
11
310.856
21
-150.852
0
LINE
8
BLACK
6
CONTINUOUS
10
310.856
20
-150.852
11
310.982
21
-150.978
0
LINE
8
BLACK
6
CONTINUOUS
10
310.982
20
-150.978
11
311.08
21
-151.125
0
LINE
8
BLACK
6
CONTINUOUS
10
311.08
20
-151.125
11
311.148
21
-151.289
0
LINE
8
BLACK
6
CONTINUOUS
10
311.148
20
-151.289
11
311.183
21
-151.463
0
LINE
8
BLACK
6
CONTINUOUS
10
311.183
20
-151.463
11
311.183
21
-151.641
0
LINE
8
BLACK
6
CONTINUOUS
10
311.183
20
-151.641
11
311.148
21
-151.815
0
LINE
8
BLACK
6
CONTINUOUS
10
311.148
20
-151.815
11
311.08
21
-151.979
0
LINE
8
BLACK
6
CONTINUOUS
10
311.08
20
-151.979
11
310.982
21
-152.126
0
LINE
8
BLACK
6
CONTINUOUS
10
310.982
20
-152.126
11
310.856
21
-152.252
0
LINE
8
BLACK
6
CONTINUOUS
10
310.856
20
-152.252
11
310.709
21
-152.35
0
LINE
8
BLACK
6
CONTINUOUS
10
310.709
20
-152.35
11
310.545
21
-152.418
0
LINE
8
BLACK
6
CONTINUOUS
10
310.545
20
-152.418
11
310.395
21
-152.448
0
LINE
8
BLACK
6
CONTINUOUS
10
310.395
20
-152.448
11
310.371
21
-152.453
0
LINE
8
BLACK
6
CONTINUOUS
10
310.371
20
-152.453
11
310.193
21
-152.453
0
LINE
8
BLACK
6
CONTINUOUS
10
310.193
20
-152.453
11
310.168
21
-152.448
0
LINE
8
BLACK
6
CONTINUOUS
10
310.168
20
-152.448
11
310.019
21
-152.418
0
LINE
8
BLACK
6
CONTINUOUS
10
310.019
20
-152.418
11
309.855
21
-152.35
0
LINE
8
BLACK
6
CONTINUOUS
10
309.855
20
-152.35
11
309.708
21
-152.252
0
LINE
8
BLACK
6
CONTINUOUS
10
309.708
20
-152.252
11
309.582
21
-152.126
0
LINE
8
BLACK
6
CONTINUOUS
10
309.582
20
-152.126
11
309.483
21
-151.979
0
LINE
8
BLACK
6
CONTINUOUS
10
309.483
20
-151.979
11
309.416
21
-151.815
0
LINE
8
BLACK
6
CONTINUOUS
10
309.416
20
-151.815
11
309.381
21
-151.641
0
LINE
8
BLACK
6
CONTINUOUS
10
309.381
20
-151.641
11
309.381
21
-151.463
0
LINE
8
BLACK
6
CONTINUOUS
10
309.381
20
-151.463
11
309.416
21
-151.289
0
LINE
8
BLACK
6
CONTINUOUS
10
309.416
20
-151.289
11
309.483
21
-151.125
0
LINE
8
BLACK
6
CONTINUOUS
10
309.483
20
-151.125
11
309.582
21
-150.978
0
LINE
8
BLACK
6
CONTINUOUS
10
309.582
20
-150.978
11
309.708
21
-150.852
0
LINE
8
BLACK
6
CONTINUOUS
10
309.708
20
-150.852
11
309.855
21
-150.753
0
LINE
8
BLACK
6
CONTINUOUS
10
309.855
20
-150.753
11
310.019
21
-150.686
0
LINE
8
BLACK
6
CONTINUOUS
10
310.019
20
-150.686
11
310.168
21
-150.656
0
LINE
8
BLACK
6
CONTINUOUS
10
310.168
20
-150.656
11
310.193
21
-150.651
0
LINE
8
BLACK
6
CONTINUOUS
10
310.193
20
-150.651
11
310.371
21
-150.651
0
LINE
8
BLACK
6
CONTINUOUS
10
310.371
20
-150.651
11
310.395
21
-150.656
0
LINE
8
BLACK
6
CONTINUOUS
10
307.855
20
-150.656
11
308.005
21
-150.686
0
LINE
8
BLACK
6
CONTINUOUS
10
308.005
20
-150.686
11
308.169
21
-150.753
0
LINE
8
BLACK
6
CONTINUOUS
10
308.169
20
-150.753
11
308.316
21
-150.852
0
LINE
8
BLACK
6
CONTINUOUS
10
308.316
20
-150.852
11
308.442
21
-150.978
0
LINE
8
BLACK
6
CONTINUOUS
10
308.442
20
-150.978
11
308.54
21
-151.125
0
LINE
8
BLACK
6
CONTINUOUS
10
308.54
20
-151.125
11
308.608
21
-151.289
0
LINE
8
BLACK
6
CONTINUOUS
10
308.608
20
-151.289
11
308.643
21
-151.463
0
LINE
8
BLACK
6
CONTINUOUS
10
308.643
20
-151.463
11
308.643
21
-151.641
0
LINE
8
BLACK
6
CONTINUOUS
10
308.643
20
-151.641
11
308.608
21
-151.815
0
LINE
8
BLACK
6
CONTINUOUS
10
308.608
20
-151.815
11
308.54
21
-151.979
0
LINE
8
BLACK
6
CONTINUOUS
10
308.54
20
-151.979
11
308.442
21
-152.126
0
LINE
8
BLACK
6
CONTINUOUS
10
308.442
20
-152.126
11
308.316
21
-152.252
0
LINE
8
BLACK
6
CONTINUOUS
10
308.316
20
-152.252
11
308.169
21
-152.35
0
LINE
8
BLACK
6
CONTINUOUS
10
308.169
20
-152.35
11
308.005
21
-152.418
0
LINE
8
BLACK
6
CONTINUOUS
10
308.005
20
-152.418
11
307.855
21
-152.448
0
LINE
8
BLACK
6
CONTINUOUS
10
307.855
20
-152.448
11
307.831
21
-152.453
0
LINE
8
BLACK
6
CONTINUOUS
10
307.831
20
-152.453
11
307.653
21
-152.453
0
LINE
8
BLACK
6
CONTINUOUS
10
307.653
20
-152.453
11
307.628
21
-152.448
0
LINE
8
BLACK
6
CONTINUOUS
10
307.628
20
-152.448
11
307.479
21
-152.418
0
LINE
8
BLACK
6
CONTINUOUS
10
307.479
20
-152.418
11
307.315
21
-152.35
0
LINE
8
BLACK
6
CONTINUOUS
10
307.315
20
-152.35
11
307.168
21
-152.252
0
LINE
8
BLACK
6
CONTINUOUS
10
307.168
20
-152.252
11
307.042
21
-152.126
0
LINE
8
BLACK
6
CONTINUOUS
10
307.042
20
-152.126
11
306.943
21
-151.979
0
LINE
8
BLACK
6
CONTINUOUS
10
306.943
20
-151.979
11
306.876
21
-151.815
0
LINE
8
BLACK
6
CONTINUOUS
10
306.876
20
-151.815
11
306.841
21
-151.641
0
LINE
8
BLACK
6
CONTINUOUS
10
306.841
20
-151.641
11
306.841
21
-151.463
0
LINE
8
BLACK
6
CONTINUOUS
10
306.841
20
-151.463
11
306.876
21
-151.289
0
LINE
8
BLACK
6
CONTINUOUS
10
306.876
20
-151.289
11
306.943
21
-151.125
0
LINE
8
BLACK
6
CONTINUOUS
10
306.943
20
-151.125
11
307.042
21
-150.978
0
LINE
8
BLACK
6
CONTINUOUS
10
307.042
20
-150.978
11
307.168
21
-150.852
0
LINE
8
BLACK
6
CONTINUOUS
10
307.168
20
-150.852
11
307.315
21
-150.753
0
LINE
8
BLACK
6
CONTINUOUS
10
307.315
20
-150.753
11
307.479
21
-150.686
0
LINE
8
BLACK
6
CONTINUOUS
10
307.479
20
-150.686
11
307.628
21
-150.656
0
LINE
8
BLACK
6
CONTINUOUS
10
307.628
20
-150.656
11
307.653
21
-150.651
0
LINE
8
BLACK
6
CONTINUOUS
10
307.653
20
-150.651
11
307.831
21
-150.651
0
LINE
8
BLACK
6
CONTINUOUS
10
307.831
20
-150.651
11
307.855
21
-150.656
  0
ENDSEC
  0
EOF
