0
SECTION
2
HEADER
9
$INSUNITS
70
4
9
$ACADVER
1
AC1014
9
$HANDSEED
5
FFFF
0
ENDSEC
0
SECTION
2
TABLES
0
TABLE
2
VPORT
5
8
100
AcDbSymbolTable
0
ENDTAB
0
TABLE
2
LTYPE
5
5
100
AcDbSymbolTable
0
LTYPE
5
14
100
AcDbSymbolTableRecord
100
AcDbLinetypeTableRecord
2
BYBLOCK
70
0
0
LTYPE
5
15
100
AcDbSymbolTableRecord
100
AcDbLinetypeTableRecord
2
BYLAYER
70
0
0
ENDTAB
0
TABLE
2
LAYER
5
2
100
AcDbSymbolTable
70
2
0
LAYER
5
50
100
AcDbSymbolTableRecord
100
AcDbLayerTableRecord
2
0
70
0
6
CONTINUOUS
0
ENDTAB
0
TABLE
2
STYLE
5
3
100
AcDbSymbolTable
70
1
0
STYLE
5
11
100
AcDbSymbolTableRecord
100
AcDbTextStyleTableRecord
2
STANDARD
70
0
0
ENDTAB
0
TABLE
2
VIEW
5
6
100
AcDbSymbolTable
70
0
0
ENDTAB
0
TABLE
2
UCS
5
7
100
AcDbSymbolTable
70
0
0
ENDTAB
0
TABLE
2
APPID
5
9
100
AcDbSymbolTable
70
2
0
APPID
5
12
100
AcDbSymbolTableRecord
100
AcDbRegAppTableRecord
2
ACAD
70
0
0
ENDTAB
0
TABLE
2
DIMSTYLE
5
A
100
AcDbSymbolTable
70
1
0
ENDTAB
0
TABLE
2
BLOCK_RECORD
5
1
100
AcDbSymbolTable
70
1
0
BLOCK_RECORD
5
1F
100
AcDbSymbolTableRecord
100
AcDbBlockTableRecord
2
*MODEL_SPACE
0
BLOCK_RECORD
5
1B
100
AcDbSymbolTableRecord
100
AcDbBlockTableRecord
2
*PAPER_SPACE
0
ENDTAB
0
ENDSEC
0
SECTION
2
BLOCKS
0
BLOCK
5
20
100
AcDbEntity
100
AcDbBlockBegin
2
*MODEL_SPACE
0
ENDBLK
5
21
100
AcDbEntity
100
AcDbBlockEnd
0
BLOCK
5
1C
100
AcDbEntity
100
AcDbBlockBegin
2
*PAPER_SPACE
0
ENDBLK
5
1D
100
AcDbEntity
100
AcDbBlockEnd
0
ENDSEC
0
SECTION
2
ENTITIES
0
LWPOLYLINE
5
100
100
AcDbEntity
8
0
100
AcDbPolyline
90
22
70
1
43
0.0
10
36.086255882975799
20
68.557272598038267
42
-0.41350722119041622
10
37.450911761699459
20
68.921813314340497
10
49.768096449137303
20
61.81773653042012
42
0.13154007695548345
10
78.446118445908297
20
54.140268324133544
10
166.8742471300659
20
54.140244516443275
42
-0.41421348038064643
10
167.87424586083409
20
53.14024552715091
10
167.87424696432817
20
-49.916265592744651
42
-0.37041598877481968
10
167.0254777586029
20
-50.904764084413756
10
114.05422149998225
20
-59.008858639960387
42
-0.037970296763679759
10
97.850378781617664
20
-60.241246403600414
10
41.604012436486464
20
-60.241528232898666
10
41.603999848853341
20
-58.241353329138747
10
27.203999849138498
20
-58.241443952172091
10
27.204012436655383
20
-60.241600385859982
10
16.391756981068824
20
-60.241654561988412
42
-0.41421503679357796
10
15.391751970446506
20
-59.241654538639494
10
15.391753060510425
20
-12.580899906296864
10
17.393000000015814
20
-12.580899906297468
10
17.393000000020123
20
1.8191000937025359
10
15.391753396915622
20
1.8191000937031321
10
15.391754116163792
20
32.606893759750399
42
-0.13215367313363358
10
15.526715479668397
20
33.108598716877935
0
LWPOLYLINE
5
101
100
AcDbEntity
8
0
100
AcDbPolyline
90
4
70
1
43
0.0
10
70.646000000000015
20
46.513999999999989
10
57.123000000000097
20
50.137
10
53.499000000000088
20
36.615000000000002
10
67.022000000000077
20
32.990999999999993
0
LWPOLYLINE
5
102
100
AcDbEntity
8
0
100
AcDbPolyline
90
4
70
1
43
0.0
10
44.542000000000073
20
39.614999999999995
10
51.542000000000066
20
51.739999999999981
10
39.418000000000148
20
58.739999999999988
10
32.418000000000085
20
46.614999999999981
0
LWPOLYLINE
5
103
100
AcDbEntity
8
0
100
AcDbPolyline
90
4
70
1
43
0.0
10
83.948000000000064
20
8.6024999999999885
10
83.948000000000064
20
22.602000000000011
10
69.948000000000093
20
22.602000000000011
10
69.948000000000093
20
8.6024999999999885
0
LWPOLYLINE
5
104
100
AcDbEntity
8
0
100
AcDbPolyline
90
4
70
1
43
0.0
10
88.998000000000104
20
4.6338000000000079
10
102.99800000000008
20
4.6338000000000079
10
102.99800000000008
20
18.633999999999986
10
88.998000000000104
20
18.633999999999986
0
LWPOLYLINE
5
105
100
AcDbEntity
8
0
100
AcDbPolyline
90
4
70
1
43
0.0
10
35.017000000000031
20
23.117999999999981
10
42.017000000000024
20
35.242000000000004
10
29.893000000000036
20
42.241999999999997
10
22.893000000000079
20
30.117999999999974
0
LWPOLYLINE
5
106
100
AcDbEntity
8
0
100
AcDbPolyline
90
4
70
1
43
0.0
10
64.899000000000029
20
-7.2725000000000151
10
64.899000000000029
20
6.7275000000000063
10
50.899000000000036
20
6.7275000000000063
10
50.899000000000036
20
-7.2725000000000151
0
LWPOLYLINE
5
107
100
AcDbEntity
8
0
100
AcDbPolyline
90
4
70
1
43
0.0
10
64.899000000000029
20
11.777499999999996
10
64.899000000000029
20
25.777000000000001
10
50.899000000000036
20
25.777000000000001
10
50.899000000000036
20
11.777499999999996
0
LWPOLYLINE
5
108
100
AcDbEntity
8
0
100
AcDbPolyline
90
4
70
1
43
0.0
10
122.04800000000009
20
27.652000000000001
10
122.04800000000009
20
41.651999999999987
10
108.04800000000003
20
41.651999999999987
10
108.04800000000003
20
27.652000000000001
0
LWPOLYLINE
5
109
100
AcDbEntity
8
0
100
AcDbPolyline
90
4
70
1
43
0.0
10
160.14900000000009
20
-43.785000000000025
10
160.14900000000009
20
-29.785000000000039
10
146.14900000000009
20
-29.785000000000039
10
146.14900000000009
20
-43.785000000000025
0
LWPOLYLINE
5
110
100
AcDbEntity
8
0
100
AcDbPolyline
90
4
70
1
43
0.0
10
76.299000000000092
20
32.414999999999985
10
90.299000000000092
20
32.414999999999985
10
90.299000000000092
20
46.414999999999992
10
76.299000000000092
20
46.414999999999992
0
LWPOLYLINE
5
111
100
AcDbEntity
8
0
100
AcDbPolyline
90
4
70
1
43
0.0
10
69.949000000000041
20
-48.547500000000028
10
83.949000000000041
20
-48.547500000000028
10
83.949000000000041
20
-34.547500000000007
10
69.949000000000041
20
-34.547500000000007
0
LWPOLYLINE
5
112
100
AcDbEntity
8
0
100
AcDbPolyline
90
4
70
1
43
0.0
10
83.948000000000064
20
-10.447500000000005
10
83.948000000000064
20
3.5524999999999807
10
69.948000000000093
20
3.5524999999999807
10
69.948000000000093
20
-10.447500000000005
0
LWPOLYLINE
5
113
100
AcDbEntity
8
0
100
AcDbPolyline
90
4
70
1
43
0.0
10
108.04900000000006
20
-48.547500000000028
10
122.04900000000006
20
-48.547500000000028
10
122.04900000000006
20
-34.547500000000007
10
108.04900000000006
20
-34.547500000000007
0
LWPOLYLINE
5
114
100
AcDbEntity
8
0
100
AcDbPolyline
90
4
70
1
43
0.0
10
64.899000000000029
20
-26.322499999999991
10
64.899000000000029
20
-12.322500000000005
10
50.899000000000036
20
-12.322500000000005
10
50.899000000000036
20
-26.322499999999991
0
LWPOLYLINE
5
115
100
AcDbEntity
8
0
100
AcDbPolyline
90
4
70
1
43
0.0
10
122.04900000000006
20
8.6024999999999885
10
122.04900000000006
20
22.602000000000011
10
108.04900000000006
20
22.602000000000011
10
108.04900000000006
20
8.6024999999999885
0
LWPOLYLINE
5
116
100
AcDbEntity
8
0
100
AcDbPolyline
90
4
70
1
43
0.0
10
102.99800000000008
20
-52.516200000000026
10
102.99800000000008
20
-38.516300000000001
10
88.998000000000104
20
-38.516300000000001
10
88.998000000000104
20
-52.516200000000026
0
LWPOLYLINE
5
117
100
AcDbEntity
8
0
100
AcDbPolyline
90
4
70
1
43
0.0
10
141.0980000000001
20
-5.6850000000000023
10
141.0980000000001
20
8.3149999999999835
10
127.09800000000004
20
8.3150000000000013
10
127.09800000000004
20
-5.6850000000000023
0
LWPOLYLINE
5
118
100
AcDbEntity
8
0
100
AcDbPolyline
90
4
70
1
43
0.0
10
102.99800000000008
20
-14.4163
10
102.99800000000008
20
-0.41630000000001388
10
88.998000000000104
20
-0.41630000000001388
10
88.998000000000104
20
-14.4163
0
LWPOLYLINE
5
119
100
AcDbEntity
8
0
100
AcDbPolyline
90
4
70
1
43
0.0
10
122.04900000000006
20
-10.447500000000005
10
122.04900000000006
20
3.5524999999999807
10
108.04900000000006
20
3.5524999999999807
10
108.04900000000006
20
-10.447500000000005
0
LWPOLYLINE
5
120
100
AcDbEntity
8
0
100
AcDbPolyline
90
4
70
1
43
0.0
10
141.09900000000007
20
13.364999999999974
10
141.09900000000007
20
27.364999999999977
10
127.09900000000007
20
27.364999999999995
10
127.09900000000007
20
13.364999999999991
0
LWPOLYLINE
5
121
100
AcDbEntity
8
0
100
AcDbPolyline
90
4
70
1
43
0.0
10
141.09900000000007
20
-24.735000000000014
10
141.09900000000007
20
-10.735000000000028
10
127.09900000000007
20
-10.735000000000028
10
127.09900000000007
20
-24.735000000000014
0
LWPOLYLINE
5
122
100
AcDbEntity
8
0
100
AcDbPolyline
90
4
70
1
43
0.0
10
64.898000000000053
20
-45.372500000000002
10
64.898000000000053
20
-31.372500000000016
10
50.898000000000074
20
-31.372500000000016
10
50.898000000000074
20
-45.372500000000002
0
LWPOLYLINE
5
123
100
AcDbEntity
8
0
100
AcDbPolyline
90
4
70
1
43
0.0
10
122.04900000000006
20
-29.497500000000016
10
122.04900000000006
20
-15.497500000000031
10
108.04900000000006
20
-15.497500000000031
10
108.04900000000006
20
-29.497500000000016
0
LWPOLYLINE
5
124
100
AcDbEntity
8
0
100
AcDbPolyline
90
4
70
1
43
0.0
10
141.09900000000007
20
32.414999999999964
10
141.09900000000007
20
46.414999999999971
10
127.09900000000007
20
46.414999999999992
10
127.09900000000007
20
32.414999999999985
0
LWPOLYLINE
5
125
100
AcDbEntity
8
0
100
AcDbPolyline
90
4
70
1
43
0.0
10
83.949000000000041
20
-29.497500000000016
10
83.949000000000041
20
-15.497499999999995
10
69.949000000000041
20
-15.497499999999995
10
69.949000000000041
20
-29.497500000000016
0
LWPOLYLINE
5
126
100
AcDbEntity
8
0
100
AcDbPolyline
90
4
70
1
43
0.0
10
88.998000000000104
20
-33.466200000000015
10
102.99800000000008
20
-33.466200000000015
10
102.99800000000008
20
-19.466200000000029
10
88.998000000000104
20
-19.466200000000029
0
LWPOLYLINE
5
127
100
AcDbEntity
8
0
100
AcDbPolyline
90
4
70
1
43
0.0
10
160.14900000000009
20
-24.735000000000014
10
160.14900000000009
20
-10.735000000000028
10
146.14900000000009
20
-10.735000000000028
10
146.14900000000009
20
-24.735000000000014
0
LWPOLYLINE
5
128
100
AcDbEntity
8
0
100
AcDbPolyline
90
4
70
1
43
0.0
10
141.09900000000007
20
-43.785000000000025
10
141.09900000000007
20
-29.785000000000039
10
127.09900000000007
20
-29.785000000000039
10
127.09900000000007
20
-43.785000000000025
0
LWPOLYLINE
5
129
100
AcDbEntity
8
0
100
AcDbPolyline
90
4
70
1
43
0.0
10
160.14800000000011
20
-5.6850000000000023
10
160.14800000000011
20
8.3149999999999835
10
146.14800000000005
20
8.3149999999999835
10
146.14800000000005
20
-5.6850000000000023
0
LWPOLYLINE
5
130
100
AcDbEntity
8
0
100
AcDbPolyline
90
4
70
1
43
0.0
10
160.14800000000011
20
32.414999999999964
10
160.14800000000011
20
46.414999999999971
10
146.14800000000005
20
46.414999999999971
10
146.14800000000005
20
32.414999999999964
0
LWPOLYLINE
5
131
100
AcDbEntity
8
0
100
AcDbPolyline
90
4
70
1
43
0.0
10
146.14800000000005
20
13.364999999999974
10
160.14800000000011
20
13.364999999999974
10
160.14800000000011
20
27.364999999999977
10
146.14800000000005
20
27.364999999999977
0
LWPOLYLINE
5
132
100
AcDbEntity
8
0
100
AcDbPolyline
90
12
70
1
43
0.0
10
41.203332545707639
20
-13.500500808314468
42
-0.33356516359261434
10
43.604667586145077
20
-13.500500907289773
10
45.853998947199102
20
-13.500500999999975
42
-0.41421390515169204
10
46.853997905981622
20
-14.500501211534743
10
46.85395017146778
20
-53.900498045697049
42
-0.41421321959458118
10
45.853950130251718
20
-54.900496834161061
10
22.953751316529186
20
-54.900495890288326
42
-0.41421356237309243
10
21.953751357745976
20
-53.90049584907154
10
21.953752981687092
20
-14.500500014908702
42
-0.41421356237309698
10
22.953753022903882
20
-13.500500056125485
10
25.203333424235606
20
-13.500500148845953
42
-0.33356485841029826
10
27.604666707617142
20
-13.500500247821188
0
CIRCLE
5
133
100
AcDbEntity
8
0
100
AcDbCircle
10
165.05181662323466
20
51.317815860426066
30
-1.1920929243736111e-07
40
1.0500000000000043
210
0
220
0
230
1
0
CIRCLE
5
134
100
AcDbEntity
8
0
100
AcDbCircle
10
23.703984116043166
20
-57.741465978712007
30
-1.1920929243736111e-07
40
1.0499999999999998
210
0
220
0
230
1
0
CIRCLE
5
135
100
AcDbEntity
8
0
100
AcDbCircle
10
17.930715221791086
20
32.191926983776362
30
-1.1920929243736111e-07
40
1.0499999999999998
210
0
220
0
230
1
0
CIRCLE
5
136
100
AcDbEntity
8
0
100
AcDbCircle
10
45.103984115619355
20
-57.741331302818885
30
-1.1920929243736111e-07
40
1.0500000000000043
210
0
220
0
230
1
0
CIRCLE
5
137
100
AcDbEntity
8
0
100
AcDbCircle
10
78.446051643462042
20
51.64002140763494
30
-1.1920929243736111e-07
40
1.0500000000000043
210
0
220
0
230
1
0
CIRCLE
5
138
100
AcDbEntity
8
0
100
AcDbCircle
10
165.10854073988853
20
-48.40029955518883
30
-1.1920929243736111e-07
40
1.0500000000000043
210
0
220
0
230
1
0
CIRCLE
5
139
100
AcDbEntity
8
0
100
AcDbCircle
10
17.892999761501013
20
-16.08089998438366
30
-1.1920929243736111e-07
40
1.0499999999999998
210
0
220
0
230
1
0
CIRCLE
5
140
100
AcDbEntity
8
0
100
AcDbCircle
10
17.893000095713127
20
5.3191000156163462
30
-1.1920929243736111e-07
40
1.0499999999999998
210
0
220
0
230
1
0
CIRCLE
5
141
100
AcDbEntity
8
0
100
AcDbCircle
10
97.774447712100681
20
-57.740999833579309
30
-1.1920929243736111e-07
40
1.0500000000000043
210
0
220
0
230
1
0
CIRCLE
5
142
100
AcDbEntity
8
0
100
AcDbCircle
10
37.614964737660685
20
65.569836179879076
30
-1.1920929243736111e-07
40
0.99999999999999645
210
0
220
0
230
1
0
ENDSEC
0
SECTION
2
OBJECTS
0
DICTIONARY
5
C
100
AcDbDictionary
3
ACAD_GROUP
350
D
3
ACAD_MLINESTYLE
350
17
0
DICTIONARY
5
D
100
AcDbDictionary
0
DICTIONARY
5
1A
330
C
100
AcDbDictionary
0
DICTIONARY
5
17
100
AcDbDictionary
0
ENDSEC
0
EOF
