G04 #@! TF.GenerationSoftware,KiCad,Pcbnew,(5.1.6)-1*
G04 #@! TF.CreationDate,2020-09-28T23:30:51+08:00*
G04 #@! TF.ProjectId,Cantaloupe-Plate,43616e74-616c-46f7-9570-652d506c6174,rev?*
G04 #@! TF.SameCoordinates,Original*
G04 #@! TF.FileFunction,Profile,NP*
%FSLAX46Y46*%
G04 Gerber Fmt 4.6, Leading zero omitted, Abs format (unit mm)*
G04 Created by KiCad (PCBNEW (5.1.6)-1) date 2020-09-28 23:30:51*
%MOMM*%
%LPD*%
G01*
G04 APERTURE LIST*
G04 #@! TA.AperFunction,Profile*
%ADD10C,0.010000*%
G04 #@! TD*
G04 APERTURE END LIST*
D10*
X200818022Y-158528090D02*
X177250948Y-144745898D01*
X220544395Y-126236171D02*
G75*
G02*
X220409511Y-126737713I-1000000J30D01*
G01*
X82071016Y-48194002D02*
X116781718Y-48193961D01*
X202187957Y-158166438D02*
G75*
G02*
X200818022Y-158528090I-865115J501572D01*
G01*
X176746135Y-144609123D02*
G75*
G02*
X177250948Y-144745898I-7J-1000000D01*
G01*
X82070232Y-144608442D02*
G75*
G02*
X81070239Y-143608434I7J1000000D01*
G01*
X218588999Y-80308704D02*
X220545746Y-80308704D01*
X123953451Y-41410821D02*
G75*
G02*
X124662048Y-41116528I708504J-705707D01*
G01*
X117490221Y-47899668D02*
G75*
G02*
X116781718Y-48193961I-708504J705707D01*
G01*
X81071018Y-49193995D02*
G75*
G02*
X82071016Y-48194002I1000000J-7D01*
G01*
X81070239Y-143608434D02*
X81071018Y-49193994D01*
X176746135Y-144609123D02*
X82070231Y-144608442D01*
X220409511Y-126737713D02*
X202187958Y-158166437D01*
X220545746Y-80308704D02*
X220544395Y-126236170D01*
X124662048Y-41116528D02*
X196338998Y-41123210D01*
X117490221Y-47899668D02*
X123953451Y-41410821D01*
X196338998Y-41123210D02*
X219545746Y-41123210D01*
X220545746Y-42123210D02*
X220545746Y-45408298D01*
X220545746Y-45408298D02*
X196338998Y-45408298D01*
X219545746Y-41123210D02*
G75*
G02*
X220545746Y-42123210I0J-1000000D01*
G01*
X196338998Y-45408298D02*
X196338999Y-80308701D01*
X218588999Y-81958701D02*
X218588999Y-80308704D01*
X218589000Y-81958697D02*
G75*
G02*
X215091942Y-82558701I-1800001J-2D01*
G01*
X202486055Y-82558701D02*
X215091942Y-82558701D01*
X202486055Y-82558700D02*
G75*
G02*
X198988998Y-81958702I-1697057J599999D01*
G01*
X196338999Y-80308701D02*
X198988998Y-80308700D01*
X198988998Y-80308700D02*
X198988998Y-81958702D01*
X179689995Y-99544899D02*
X193689995Y-99544899D01*
X193689995Y-85544899D02*
X193689995Y-99544899D01*
X179689995Y-85544899D02*
X193689995Y-85544899D01*
X179689995Y-99544899D02*
X179689995Y-85544899D01*
X122539997Y-136374898D02*
X136539997Y-136374898D01*
X136539997Y-122374898D02*
X136539997Y-136374898D01*
X122539997Y-122374898D02*
X136539997Y-122374898D01*
X122539997Y-136374898D02*
X122539997Y-122374898D01*
X160640000Y-78589900D02*
X174640000Y-78589900D01*
X174640000Y-64589900D02*
X174640000Y-78589900D01*
X160640000Y-64589900D02*
X174640000Y-64589900D01*
X160640000Y-78589900D02*
X160640000Y-64589900D01*
X179689996Y-80494899D02*
X193689996Y-80494899D01*
X193689996Y-66494899D02*
X193689996Y-80494899D01*
X179689996Y-66494899D02*
X193689996Y-66494899D01*
X179689996Y-80494899D02*
X179689996Y-66494899D01*
X160639999Y-97639897D02*
X174639999Y-97639897D01*
X174639999Y-83639897D02*
X174639999Y-97639897D01*
X160639999Y-83639897D02*
X174639999Y-83639897D01*
X160639999Y-97639897D02*
X160639999Y-83639897D01*
X179689998Y-118594898D02*
X193689998Y-118594898D01*
X193689998Y-104594898D02*
X193689998Y-118594898D01*
X179689998Y-104594898D02*
X193689998Y-104594898D01*
X179689998Y-118594898D02*
X179689998Y-104594898D01*
X103489998Y-122404896D02*
X117489998Y-122404896D01*
X117489998Y-108404896D02*
X117489998Y-122404896D01*
X103489998Y-108404896D02*
X117489998Y-108404896D01*
X103489998Y-122404896D02*
X103489998Y-108404896D01*
X141590000Y-57634897D02*
X155590000Y-57634897D01*
X155590000Y-43634897D02*
X155590000Y-57634897D01*
X141590000Y-43634897D02*
X155590000Y-43634897D01*
X141590000Y-57634897D02*
X141590000Y-43634897D01*
X141589998Y-95734900D02*
X155589998Y-95734900D01*
X155589998Y-81734900D02*
X155589998Y-95734900D01*
X141589998Y-81734900D02*
X155589998Y-81734900D01*
X141589998Y-95734900D02*
X141589998Y-81734900D01*
X122539998Y-60174901D02*
X136539998Y-60174901D01*
X136539998Y-46174901D02*
X136539998Y-60174901D01*
X122539998Y-46174901D02*
X136539998Y-46174901D01*
X122539998Y-60174901D02*
X122539998Y-46174901D01*
X179690000Y-61444897D02*
X193690000Y-61444897D01*
X193690000Y-47444897D02*
X193690000Y-61444897D01*
X179690000Y-47444897D02*
X193690000Y-47444897D01*
X179690000Y-61444897D02*
X179690000Y-47444897D01*
X170801585Y-140788950D02*
X184324546Y-144412417D01*
X187948013Y-130889456D02*
X184324546Y-144412417D01*
X174425052Y-127265989D02*
X187948013Y-130889456D01*
X170801585Y-140788950D02*
X174425052Y-127265989D01*
X189929905Y-146024303D02*
X202054261Y-153024303D01*
X209054261Y-140899947D02*
X202054261Y-153024303D01*
X196929905Y-133899947D02*
X209054261Y-140899947D01*
X189929905Y-146024303D02*
X196929905Y-133899947D01*
X141589998Y-114784896D02*
X155589998Y-114784896D01*
X155589998Y-100784896D02*
X155589998Y-114784896D01*
X141589998Y-100784896D02*
X155589998Y-100784896D01*
X141589998Y-114784896D02*
X141589998Y-100784896D01*
X103489997Y-141454896D02*
X117489997Y-141454896D01*
X117489997Y-127454896D02*
X117489997Y-141454896D01*
X103489997Y-127454896D02*
X117489997Y-127454896D01*
X103489997Y-141454896D02*
X103489997Y-127454896D01*
X122539994Y-98274901D02*
X136539994Y-98274901D01*
X136539994Y-84274901D02*
X136539994Y-98274901D01*
X122539994Y-84274901D02*
X136539994Y-84274901D01*
X122539994Y-98274901D02*
X122539994Y-84274901D01*
X103489995Y-65254895D02*
X117489995Y-65254895D01*
X117489995Y-51254895D02*
X117489995Y-65254895D01*
X103489995Y-51254895D02*
X117489995Y-51254895D01*
X103489995Y-65254895D02*
X103489995Y-51254895D01*
X160639999Y-59539900D02*
X174639999Y-59539900D01*
X174639999Y-45539900D02*
X174639999Y-59539900D01*
X160639999Y-45539900D02*
X174639999Y-45539900D01*
X160639999Y-59539900D02*
X160639999Y-45539900D01*
X103489998Y-84304900D02*
X117489998Y-84304900D01*
X117489998Y-70304900D02*
X117489998Y-84304900D01*
X103489998Y-70304900D02*
X117489998Y-70304900D01*
X103489998Y-84304900D02*
X103489998Y-70304900D01*
X84439997Y-122404898D02*
X98439997Y-122404898D01*
X98439997Y-108404898D02*
X98439997Y-122404898D01*
X84439997Y-108404898D02*
X98439997Y-108404898D01*
X84439997Y-122404898D02*
X84439997Y-108404898D01*
X84439994Y-103354896D02*
X98439994Y-103354896D01*
X98439994Y-89354896D02*
X98439994Y-103354896D01*
X84439994Y-89354896D02*
X98439994Y-89354896D01*
X84439994Y-103354896D02*
X84439994Y-89354896D01*
X103489996Y-103354897D02*
X117489996Y-103354897D01*
X117489996Y-89354897D02*
X117489996Y-103354897D01*
X103489996Y-89354897D02*
X117489996Y-89354897D01*
X103489996Y-103354897D02*
X103489996Y-89354897D01*
X84440000Y-65254900D02*
X98440000Y-65254900D01*
X98440000Y-51254900D02*
X98440000Y-65254900D01*
X84440000Y-51254900D02*
X98440000Y-51254900D01*
X84440000Y-65254900D02*
X84440000Y-51254900D01*
X141589998Y-76684899D02*
X155589998Y-76684899D01*
X155589998Y-62684899D02*
X155589998Y-76684899D01*
X141589998Y-62684899D02*
X155589998Y-62684899D01*
X141589998Y-76684899D02*
X141589998Y-62684899D01*
X84439996Y-141454900D02*
X98439996Y-141454900D01*
X98439996Y-127454900D02*
X98439996Y-141454900D01*
X84439996Y-127454900D02*
X98439996Y-127454900D01*
X84439996Y-141454900D02*
X84439996Y-127454900D01*
X160640000Y-116689903D02*
X174640000Y-116689903D01*
X174640000Y-102689903D02*
X174640000Y-116689903D01*
X160640000Y-102689903D02*
X174640000Y-102689903D01*
X160640000Y-116689903D02*
X160640000Y-102689903D01*
X122539997Y-117324895D02*
X136539997Y-117324895D01*
X136539997Y-103324895D02*
X136539997Y-117324895D01*
X122539997Y-103324895D02*
X136539997Y-103324895D01*
X122539997Y-117324895D02*
X122539997Y-103324895D01*
X84440003Y-84304895D02*
X98440003Y-84304895D01*
X98440003Y-70304895D02*
X98440003Y-84304895D01*
X84440003Y-70304895D02*
X98440003Y-70304895D01*
X84440003Y-84304895D02*
X84440003Y-70304895D01*
X122539997Y-79224896D02*
X136539997Y-79224896D01*
X136539997Y-65224896D02*
X136539997Y-79224896D01*
X122539997Y-65224896D02*
X136539997Y-65224896D01*
X122539997Y-79224896D02*
X122539997Y-65224896D01*
X151114998Y-140819898D02*
X165114998Y-140819898D01*
X165114998Y-126819898D02*
X165114998Y-140819898D01*
X151114998Y-126819898D02*
X165114998Y-126819898D01*
X151114998Y-140819898D02*
X151114998Y-126819898D01*
X206905081Y-118672430D02*
X200780081Y-129281242D01*
X217254085Y-124647430D02*
X211129085Y-135256242D01*
X217254085Y-124647430D02*
X206905081Y-118672430D01*
X200780081Y-129281242D02*
X211129085Y-135256242D01*
M02*
