  0
SECTION
  2
HEADER
  9
$ANGBASE
  50
0.0
  9
$ANGDIR
  70
1
  9
$MEASUREMENT
  70
1
  0
ENDSEC
  0
SECTION
  2
TABLES
  0
TABLE
  2
LTYPE
  70
4
  0
LTYPE
  5
40F
  2
CONTINUOUS
  70
0
  3
Solid line
  72
65
  73
0
  40
0.0
  0
LTYPE
  5
410
  2
DASHDOT
 70
0
  3
Dash Dot ____ _ ____ _
 72
65
 73
4
 40
2.0
 49
1.25
 49
-0.25
 49
0.25
 49
-0.25
  0
LTYPE
  5
411
  2
DASHED
 70
0
  3
Dashed __ __ __ __ __
 72
65
 73
2
 40
0.75
 49
0.5
 49
-0.25
  0
LTYPE
  5
43B
  2
DOTTED
 70
0
  3
Dotted .  .  .  .
 72
65
 73
2
 40
0.2
 49
0.0
 49
-0.2
  0
ENDTAB
  0
TABLE
  2
STYLE
  70
4
  0
STYLE
  2
KICAD
  70
0
  40
0
  41
1
  42
1
  50
0
  71
0
  3
isocp.shx
  0
STYLE
  2
KICADB
  70
0
  40
0
  41
1
  42
1
  50
0
  71
0
  3
isocp.shx
  0
STYLE
  2
KICADI
  70
0
  40
0
  41
1
  42
1
  50
15
  71
0
  3
isocp.shx
  0
STYLE
  2
KICADBI
  70
0
  40
0
  41
1
  42
1
  50
15
  71
0
  3
isocp.shx
  0
ENDTAB
  0
TABLE
  2
LAYER
  70
1
  0
LAYER
  2
BLACK
  70
0
  62
7
  6
CONTINUOUS
  0
ENDTAB
  0
ENDSEC
  0
SECTION
  2
ENTITIES
0
LINE
8
BLACK
6
CONTINUOUS
10
87.3352
20
-90.7883
11
87.3798
21
-90.8018
0
LINE
8
BLACK
6
CONTINUOUS
10
87.3798
20
-90.8018
11
87.4208
21
-90.8237
0
LINE
8
BLACK
6
CONTINUOUS
10
87.4208
20
-90.8237
11
87.4568
21
-90.8533
0
LINE
8
BLACK
6
CONTINUOUS
10
87.4568
20
-90.8533
11
87.4864
21
-90.8893
0
LINE
8
BLACK
6
CONTINUOUS
10
87.4864
20
-90.8893
11
87.5083
21
-90.9303
0
LINE
8
BLACK
6
CONTINUOUS
10
87.5083
20
-90.9303
11
87.5218
21
-90.9749
0
LINE
8
BLACK
6
CONTINUOUS
10
87.5218
20
-90.9749
11
87.5264
21
-91.0212
0
LINE
8
BLACK
6
CONTINUOUS
10
87.5264
20
-91.0212
11
87.5264
21
-91.5962
0
LINE
8
BLACK
6
CONTINUOUS
10
87.5264
20
-91.5962
11
87.5218
21
-91.6425
0
LINE
8
BLACK
6
CONTINUOUS
10
87.5218
20
-91.6425
11
87.5083
21
-91.6871
0
LINE
8
BLACK
6
CONTINUOUS
10
87.5083
20
-91.6871
11
87.4864
21
-91.7282
0
LINE
8
BLACK
6
CONTINUOUS
10
87.4864
20
-91.7282
11
87.4568
21
-91.7641
0
LINE
8
BLACK
6
CONTINUOUS
10
87.4568
20
-91.7641
11
87.4208
21
-91.7937
0
LINE
8
BLACK
6
CONTINUOUS
10
87.4208
20
-91.7937
11
87.3798
21
-91.8156
0
LINE
8
BLACK
6
CONTINUOUS
10
87.3798
20
-91.8156
11
87.3352
21
-91.8291
0
LINE
8
BLACK
6
CONTINUOUS
10
87.3352
20
-91.8291
11
87.2889
21
-91.8337
0
LINE
8
BLACK
6
CONTINUOUS
10
87.2889
20
-91.8337
11
86.8139
21
-91.8337
0
LINE
8
BLACK
6
CONTINUOUS
10
86.8139
20
-91.8337
11
86.7676
21
-91.8291
0
LINE
8
BLACK
6
CONTINUOUS
10
86.7676
20
-91.8291
11
86.723
21
-91.8156
0
LINE
8
BLACK
6
CONTINUOUS
10
86.723
20
-91.8156
11
86.6819
21
-91.7937
0
LINE
8
BLACK
6
CONTINUOUS
10
86.6819
20
-91.7937
11
86.646
21
-91.7641
0
LINE
8
BLACK
6
CONTINUOUS
10
86.646
20
-91.7641
11
86.6164
21
-91.7282
0
LINE
8
BLACK
6
CONTINUOUS
10
86.6164
20
-91.7282
11
86.5945
21
-91.6871
0
LINE
8
BLACK
6
CONTINUOUS
10
86.5945
20
-91.6871
11
86.581
21
-91.6425
0
LINE
8
BLACK
6
CONTINUOUS
10
86.581
20
-91.6425
11
86.5764
21
-91.5962
0
LINE
8
BLACK
6
CONTINUOUS
10
86.5764
20
-91.5962
11
86.5764
21
-91.0212
0
LINE
8
BLACK
6
CONTINUOUS
10
86.5764
20
-91.0212
11
86.581
21
-90.9749
0
LINE
8
BLACK
6
CONTINUOUS
10
86.581
20
-90.9749
11
86.5945
21
-90.9303
0
LINE
8
BLACK
6
CONTINUOUS
10
86.5945
20
-90.9303
11
86.6164
21
-90.8893
0
LINE
8
BLACK
6
CONTINUOUS
10
86.6164
20
-90.8893
11
86.646
21
-90.8533
0
LINE
8
BLACK
6
CONTINUOUS
10
86.646
20
-90.8533
11
86.6819
21
-90.8237
0
LINE
8
BLACK
6
CONTINUOUS
10
86.6819
20
-90.8237
11
86.723
21
-90.8018
0
LINE
8
BLACK
6
CONTINUOUS
10
86.723
20
-90.8018
11
86.7676
21
-90.7883
0
LINE
8
BLACK
6
CONTINUOUS
10
86.7676
20
-90.7883
11
86.8139
21
-90.7837
0
LINE
8
BLACK
6
CONTINUOUS
10
86.8139
20
-90.7837
11
87.2889
21
-90.7837
0
LINE
8
BLACK
6
CONTINUOUS
10
87.2889
20
-90.7837
11
87.3352
21
-90.7883
0
LINE
8
BLACK
6
CONTINUOUS
10
330.386
20
-90.7883
11
330.431
21
-90.8018
0
LINE
8
BLACK
6
CONTINUOUS
10
330.431
20
-90.8018
11
330.472
21
-90.8237
0
LINE
8
BLACK
6
CONTINUOUS
10
330.472
20
-90.8237
11
330.508
21
-90.8533
0
LINE
8
BLACK
6
CONTINUOUS
10
330.508
20
-90.8533
11
330.538
21
-90.8893
0
LINE
8
BLACK
6
CONTINUOUS
10
330.538
20
-90.8893
11
330.56
21
-90.9303
0
LINE
8
BLACK
6
CONTINUOUS
10
330.56
20
-90.9303
11
330.573
21
-90.9749
0
LINE
8
BLACK
6
CONTINUOUS
10
330.573
20
-90.9749
11
330.578
21
-91.0212
0
LINE
8
BLACK
6
CONTINUOUS
10
330.578
20
-91.0212
11
330.578
21
-91.5962
0
LINE
8
BLACK
6
CONTINUOUS
10
330.578
20
-91.5962
11
330.573
21
-91.6425
0
LINE
8
BLACK
6
CONTINUOUS
10
330.573
20
-91.6425
11
330.56
21
-91.6871
0
LINE
8
BLACK
6
CONTINUOUS
10
330.56
20
-91.6871
11
330.538
21
-91.7281
0
LINE
8
BLACK
6
CONTINUOUS
10
330.538
20
-91.7281
11
330.508
21
-91.7641
0
LINE
8
BLACK
6
CONTINUOUS
10
330.508
20
-91.7641
11
330.472
21
-91.7937
0
LINE
8
BLACK
6
CONTINUOUS
10
330.472
20
-91.7937
11
330.431
21
-91.8156
0
LINE
8
BLACK
6
CONTINUOUS
10
330.431
20
-91.8156
11
330.386
21
-91.8291
0
LINE
8
BLACK
6
CONTINUOUS
10
330.386
20
-91.8291
11
330.34
21
-91.8337
0
LINE
8
BLACK
6
CONTINUOUS
10
330.34
20
-91.8337
11
329.865
21
-91.8337
0
LINE
8
BLACK
6
CONTINUOUS
10
329.865
20
-91.8337
11
329.819
21
-91.8291
0
LINE
8
BLACK
6
CONTINUOUS
10
329.819
20
-91.8291
11
329.774
21
-91.8156
0
LINE
8
BLACK
6
CONTINUOUS
10
329.774
20
-91.8156
11
329.733
21
-91.7937
0
LINE
8
BLACK
6
CONTINUOUS
10
329.733
20
-91.7937
11
329.697
21
-91.7641
0
LINE
8
BLACK
6
CONTINUOUS
10
329.697
20
-91.7641
11
329.668
21
-91.7281
0
LINE
8
BLACK
6
CONTINUOUS
10
329.668
20
-91.7281
11
329.646
21
-91.6871
0
LINE
8
BLACK
6
CONTINUOUS
10
329.646
20
-91.6871
11
329.632
21
-91.6425
0
LINE
8
BLACK
6
CONTINUOUS
10
329.632
20
-91.6425
11
329.628
21
-91.5962
0
LINE
8
BLACK
6
CONTINUOUS
10
329.628
20
-91.5962
11
329.628
21
-91.0212
0
LINE
8
BLACK
6
CONTINUOUS
10
329.628
20
-91.0212
11
329.632
21
-90.9749
0
LINE
8
BLACK
6
CONTINUOUS
10
329.632
20
-90.9749
11
329.646
21
-90.9303
0
LINE
8
BLACK
6
CONTINUOUS
10
329.646
20
-90.9303
11
329.668
21
-90.8893
0
LINE
8
BLACK
6
CONTINUOUS
10
329.668
20
-90.8893
11
329.697
21
-90.8533
0
LINE
8
BLACK
6
CONTINUOUS
10
329.697
20
-90.8533
11
329.733
21
-90.8237
0
LINE
8
BLACK
6
CONTINUOUS
10
329.733
20
-90.8237
11
329.774
21
-90.8018
0
LINE
8
BLACK
6
CONTINUOUS
10
329.774
20
-90.8018
11
329.819
21
-90.7883
0
LINE
8
BLACK
6
CONTINUOUS
10
329.819
20
-90.7883
11
329.865
21
-90.7837
0
LINE
8
BLACK
6
CONTINUOUS
10
329.865
20
-90.7837
11
330.34
21
-90.7837
0
LINE
8
BLACK
6
CONTINUOUS
10
330.34
20
-90.7837
11
330.386
21
-90.7883
0
LINE
8
BLACK
6
CONTINUOUS
10
87.3352
20
-89.0383
11
87.3798
21
-89.0518
0
LINE
8
BLACK
6
CONTINUOUS
10
87.3798
20
-89.0518
11
87.4208
21
-89.0737
0
LINE
8
BLACK
6
CONTINUOUS
10
87.4208
20
-89.0737
11
87.4568
21
-89.1033
0
LINE
8
BLACK
6
CONTINUOUS
10
87.4568
20
-89.1033
11
87.4864
21
-89.1393
0
LINE
8
BLACK
6
CONTINUOUS
10
87.4864
20
-89.1393
11
87.5083
21
-89.1803
0
LINE
8
BLACK
6
CONTINUOUS
10
87.5083
20
-89.1803
11
87.5218
21
-89.2249
0
LINE
8
BLACK
6
CONTINUOUS
10
87.5218
20
-89.2249
11
87.5264
21
-89.2712
0
LINE
8
BLACK
6
CONTINUOUS
10
87.5264
20
-89.2712
11
87.5264
21
-89.8462
0
LINE
8
BLACK
6
CONTINUOUS
10
87.5264
20
-89.8462
11
87.5218
21
-89.8925
0
LINE
8
BLACK
6
CONTINUOUS
10
87.5218
20
-89.8925
11
87.5083
21
-89.9371
0
LINE
8
BLACK
6
CONTINUOUS
10
87.5083
20
-89.9371
11
87.4864
21
-89.9782
0
LINE
8
BLACK
6
CONTINUOUS
10
87.4864
20
-89.9782
11
87.4568
21
-90.0141
0
LINE
8
BLACK
6
CONTINUOUS
10
87.4568
20
-90.0141
11
87.4208
21
-90.0437
0
LINE
8
BLACK
6
CONTINUOUS
10
87.4208
20
-90.0437
11
87.3798
21
-90.0656
0
LINE
8
BLACK
6
CONTINUOUS
10
87.3798
20
-90.0656
11
87.3352
21
-90.0791
0
LINE
8
BLACK
6
CONTINUOUS
10
87.3352
20
-90.0791
11
87.2889
21
-90.0837
0
LINE
8
BLACK
6
CONTINUOUS
10
87.2889
20
-90.0837
11
86.8139
21
-90.0837
0
LINE
8
BLACK
6
CONTINUOUS
10
86.8139
20
-90.0837
11
86.7676
21
-90.0791
0
LINE
8
BLACK
6
CONTINUOUS
10
86.7676
20
-90.0791
11
86.723
21
-90.0656
0
LINE
8
BLACK
6
CONTINUOUS
10
86.723
20
-90.0656
11
86.6819
21
-90.0437
0
LINE
8
BLACK
6
CONTINUOUS
10
86.6819
20
-90.0437
11
86.646
21
-90.0141
0
LINE
8
BLACK
6
CONTINUOUS
10
86.646
20
-90.0141
11
86.6164
21
-89.9782
0
LINE
8
BLACK
6
CONTINUOUS
10
86.6164
20
-89.9782
11
86.5945
21
-89.9371
0
LINE
8
BLACK
6
CONTINUOUS
10
86.5945
20
-89.9371
11
86.581
21
-89.8925
0
LINE
8
BLACK
6
CONTINUOUS
10
86.581
20
-89.8925
11
86.5764
21
-89.8462
0
LINE
8
BLACK
6
CONTINUOUS
10
86.5764
20
-89.8462
11
86.5764
21
-89.2712
0
LINE
8
BLACK
6
CONTINUOUS
10
86.5764
20
-89.2712
11
86.581
21
-89.2249
0
LINE
8
BLACK
6
CONTINUOUS
10
86.581
20
-89.2249
11
86.5945
21
-89.1803
0
LINE
8
BLACK
6
CONTINUOUS
10
86.5945
20
-89.1803
11
86.6164
21
-89.1393
0
LINE
8
BLACK
6
CONTINUOUS
10
86.6164
20
-89.1393
11
86.646
21
-89.1033
0
LINE
8
BLACK
6
CONTINUOUS
10
86.646
20
-89.1033
11
86.6819
21
-89.0737
0
LINE
8
BLACK
6
CONTINUOUS
10
86.6819
20
-89.0737
11
86.723
21
-89.0518
0
LINE
8
BLACK
6
CONTINUOUS
10
86.723
20
-89.0518
11
86.7676
21
-89.0383
0
LINE
8
BLACK
6
CONTINUOUS
10
86.7676
20
-89.0383
11
86.8139
21
-89.0337
0
LINE
8
BLACK
6
CONTINUOUS
10
86.8139
20
-89.0337
11
87.2889
21
-89.0337
0
LINE
8
BLACK
6
CONTINUOUS
10
87.2889
20
-89.0337
11
87.3352
21
-89.0383
0
LINE
8
BLACK
6
CONTINUOUS
10
330.386
20
-89.0383
11
330.431
21
-89.0518
0
LINE
8
BLACK
6
CONTINUOUS
10
330.431
20
-89.0518
11
330.472
21
-89.0737
0
LINE
8
BLACK
6
CONTINUOUS
10
330.472
20
-89.0737
11
330.508
21
-89.1033
0
LINE
8
BLACK
6
CONTINUOUS
10
330.508
20
-89.1033
11
330.538
21
-89.1393
0
LINE
8
BLACK
6
CONTINUOUS
10
330.538
20
-89.1393
11
330.56
21
-89.1803
0
LINE
8
BLACK
6
CONTINUOUS
10
330.56
20
-89.1803
11
330.573
21
-89.2249
0
LINE
8
BLACK
6
CONTINUOUS
10
330.573
20
-89.2249
11
330.578
21
-89.2712
0
LINE
8
BLACK
6
CONTINUOUS
10
330.578
20
-89.2712
11
330.578
21
-89.8462
0
LINE
8
BLACK
6
CONTINUOUS
10
330.578
20
-89.8462
11
330.573
21
-89.8925
0
LINE
8
BLACK
6
CONTINUOUS
10
330.573
20
-89.8925
11
330.56
21
-89.9371
0
LINE
8
BLACK
6
CONTINUOUS
10
330.56
20
-89.9371
11
330.538
21
-89.9781
0
LINE
8
BLACK
6
CONTINUOUS
10
330.538
20
-89.9781
11
330.508
21
-90.0141
0
LINE
8
BLACK
6
CONTINUOUS
10
330.508
20
-90.0141
11
330.472
21
-90.0437
0
LINE
8
BLACK
6
CONTINUOUS
10
330.472
20
-90.0437
11
330.431
21
-90.0656
0
LINE
8
BLACK
6
CONTINUOUS
10
330.431
20
-90.0656
11
330.386
21
-90.0791
0
LINE
8
BLACK
6
CONTINUOUS
10
330.386
20
-90.0791
11
330.34
21
-90.0837
0
LINE
8
BLACK
6
CONTINUOUS
10
330.34
20
-90.0837
11
329.865
21
-90.0837
0
LINE
8
BLACK
6
CONTINUOUS
10
329.865
20
-90.0837
11
329.819
21
-90.0791
0
LINE
8
BLACK
6
CONTINUOUS
10
329.819
20
-90.0791
11
329.774
21
-90.0656
0
LINE
8
BLACK
6
CONTINUOUS
10
329.774
20
-90.0656
11
329.733
21
-90.0437
0
LINE
8
BLACK
6
CONTINUOUS
10
329.733
20
-90.0437
11
329.697
21
-90.0141
0
LINE
8
BLACK
6
CONTINUOUS
10
329.697
20
-90.0141
11
329.668
21
-89.9781
0
LINE
8
BLACK
6
CONTINUOUS
10
329.668
20
-89.9781
11
329.646
21
-89.9371
0
LINE
8
BLACK
6
CONTINUOUS
10
329.646
20
-89.9371
11
329.632
21
-89.8925
0
LINE
8
BLACK
6
CONTINUOUS
10
329.632
20
-89.8925
11
329.628
21
-89.8462
0
LINE
8
BLACK
6
CONTINUOUS
10
329.628
20
-89.8462
11
329.628
21
-89.2712
0
LINE
8
BLACK
6
CONTINUOUS
10
329.628
20
-89.2712
11
329.632
21
-89.2249
0
LINE
8
BLACK
6
CONTINUOUS
10
329.632
20
-89.2249
11
329.646
21
-89.1803
0
LINE
8
BLACK
6
CONTINUOUS
10
329.646
20
-89.1803
11
329.668
21
-89.1393
0
LINE
8
BLACK
6
CONTINUOUS
10
329.668
20
-89.1393
11
329.697
21
-89.1033
0
LINE
8
BLACK
6
CONTINUOUS
10
329.697
20
-89.1033
11
329.733
21
-89.0737
0
LINE
8
BLACK
6
CONTINUOUS
10
329.733
20
-89.0737
11
329.774
21
-89.0518
0
LINE
8
BLACK
6
CONTINUOUS
10
329.774
20
-89.0518
11
329.819
21
-89.0383
0
LINE
8
BLACK
6
CONTINUOUS
10
329.819
20
-89.0383
11
329.865
21
-89.0337
0
LINE
8
BLACK
6
CONTINUOUS
10
329.865
20
-89.0337
11
330.34
21
-89.0337
0
LINE
8
BLACK
6
CONTINUOUS
10
330.34
20
-89.0337
11
330.386
21
-89.0383
  0
ENDSEC
  0
EOF
