  0
SECTION
  2
HEADER
  9
$ANGBASE
  50
0.0
  9
$ANGDIR
  70
1
  9
$MEASUREMENT
  70
1
  0
ENDSEC
  0
SECTION
  2
TABLES
  0
TABLE
  2
LTYPE
  70
4
  0
LTYPE
  5
40F
  2
CONTINUOUS
  70
0
  3
Solid line
  72
65
  73
0
  40
0.0
  0
LTYPE
  5
410
  2
DASHDOT
 70
0
  3
Dash Dot ____ _ ____ _
 72
65
 73
4
 40
2.0
 49
1.25
 49
-0.25
 49
0.25
 49
-0.25
  0
LTYPE
  5
411
  2
DASHED
 70
0
  3
Dashed __ __ __ __ __
 72
65
 73
2
 40
0.75
 49
0.5
 49
-0.25
  0
LTYPE
  5
43B
  2
DOTTED
 70
0
  3
Dotted .  .  .  .
 72
65
 73
2
 40
0.2
 49
0.0
 49
-0.2
  0
ENDTAB
  0
TABLE
  2
STYLE
  70
4
  0
STYLE
  2
KICAD
  70
0
  40
0
  41
1
  42
1
  50
0
  71
0
  3
isocp.shx
  0
STYLE
  2
KICADB
  70
0
  40
0
  41
1
  42
1
  50
0
  71
0
  3
isocp.shx
  0
STYLE
  2
KICADI
  70
0
  40
0
  41
1
  42
1
  50
15
  71
0
  3
isocp.shx
  0
STYLE
  2
KICADBI
  70
0
  40
0
  41
1
  42
1
  50
15
  71
0
  3
isocp.shx
  0
ENDTAB
  0
TABLE
  2
LAYER
  70
1
  0
LAYER
  2
BLACK
  70
0
  62
7
  6
CONTINUOUS
  0
ENDTAB
  0
ENDSEC
  0
SECTION
  2
ENTITIES
0
LINE
8
BLACK
6
CONTINUOUS
10
108.657
20
-54.85
11
108.657
21
-59.85
0
LINE
8
BLACK
6
CONTINUOUS
10
108.657
20
-59.85
11
98.6574
21
-59.85
0
LINE
8
BLACK
6
CONTINUOUS
10
98.6574
20
-59.85
11
98.6574
21
-54.85
0
LINE
8
BLACK
6
CONTINUOUS
10
98.6574
20
-54.85
11
108.657
21
-54.85
0
CIRCLE
8
BLACK
10
343.596
20
-94.9
40
2.45
0
CIRCLE
8
BLACK
10
327.596
20
-94.9
40
2.45
0
CIRCLE
8
BLACK
10
89.5324
20
-94.9
40
2.45
0
CIRCLE
8
BLACK
10
73.5324
20
-94.9
40
2.45
0
LINE
8
BLACK
6
CONTINUOUS
10
87.1424
20
-92.6
11
75.9424
21
-92.6
0
LINE
8
BLACK
6
CONTINUOUS
10
75.9424
20
-92.6
11
75.9424
21
-96.2
0
LINE
8
BLACK
6
CONTINUOUS
10
75.9424
20
-96.2
11
87.1424
21
-96.2
0
LINE
8
BLACK
6
CONTINUOUS
10
87.1424
20
-96.2
11
87.1424
21
-92.6
0
LINE
8
BLACK
6
CONTINUOUS
10
341.206
20
-92.6
11
330.006
21
-92.6
0
LINE
8
BLACK
6
CONTINUOUS
10
330.006
20
-92.6
11
330.006
21
-96.2
0
LINE
8
BLACK
6
CONTINUOUS
10
330.006
20
-96.2
11
341.206
21
-96.2
0
LINE
8
BLACK
6
CONTINUOUS
10
341.206
20
-96.2
11
341.206
21
-92.6
0
LINE
8
BLACK
6
CONTINUOUS
10
346.472
20
-135.661
11
334.175
21
-128.561
0
LINE
8
BLACK
6
CONTINUOUS
10
346.472
20
-135.661
11
337.722
21
-150.817
0
LINE
8
BLACK
6
CONTINUOUS
10
325.425
20
-143.717
11
337.722
21
-150.817
0
LINE
8
BLACK
6
CONTINUOUS
10
325.425
20
-143.717
11
334.175
21
-128.561
0
LINE
8
BLACK
6
CONTINUOUS
10
82.9791
20
-128.561
11
70.6815
21
-135.661
0
LINE
8
BLACK
6
CONTINUOUS
10
82.9791
20
-128.561
11
91.7291
21
-143.717
0
LINE
8
BLACK
6
CONTINUOUS
10
79.4315
20
-150.817
11
91.7291
21
-143.717
0
LINE
8
BLACK
6
CONTINUOUS
10
79.4315
20
-150.817
11
70.6815
21
-135.661
0
LINE
8
BLACK
6
CONTINUOUS
10
86.3214
20
-88.7837
11
87.7814
21
-88.7837
0
LINE
8
BLACK
6
CONTINUOUS
10
87.7814
20
-88.7837
11
87.7814
21
-92.0837
0
LINE
8
BLACK
6
CONTINUOUS
10
87.7814
20
-92.0837
11
86.3214
21
-92.0837
0
LINE
8
BLACK
6
CONTINUOUS
10
86.3214
20
-92.0837
11
86.3214
21
-88.7837
0
CIRCLE
8
BLACK
10
113.182
20
-75.9587
40
2.45
0
CIRCLE
8
BLACK
10
189.382
20
-137.871
40
2.45
0
CIRCLE
8
BLACK
10
319.053
20
-146.602
40
2.45
0
CIRCLE
8
BLACK
10
189.382
20
-80.7212
40
2.45
0
CIRCLE
8
BLACK
10
303.972
20
-75.9587
40
2.45
0
CIRCLE
8
BLACK
10
227.797
20
-137.871
40
2.45
0
CIRCLE
8
BLACK
10
276.19
20
-133.109
40
2.45
0
CIRCLE
8
BLACK
10
227.772
20
-80.7212
40
2.45
0
CIRCLE
8
BLACK
10
140.964
20
-133.109
40
2.45
0
LINE
8
BLACK
6
CONTINUOUS
10
329.373
20
-88.7837
11
330.833
21
-88.7837
0
LINE
8
BLACK
6
CONTINUOUS
10
330.833
20
-88.7837
11
330.833
21
-92.0837
0
LINE
8
BLACK
6
CONTINUOUS
10
330.833
20
-92.0837
11
329.373
21
-92.0837
0
LINE
8
BLACK
6
CONTINUOUS
10
329.373
20
-92.0837
11
329.373
21
-88.7837
0
CIRCLE
8
BLACK
10
98.1011
20
-146.602
40
2.45
  0
ENDSEC
  0
EOF
