  0
SECTION
  2
HEADER
  9
$ANGBASE
  50
0.0
  9
$ANGDIR
  70
1
  9
$MEASUREMENT
  70
1
  0
ENDSEC
  0
SECTION
  2
TABLES
  0
TABLE
  2
LTYPE
  70
4
  0
LTYPE
  5
40F
  2
CONTINUOUS
  70
0
  3
Solid line
  72
65
  73
0
  40
0.0
  0
LTYPE
  5
410
  2
DASHDOT
 70
0
  3
Dash Dot ____ _ ____ _
 72
65
 73
4
 40
2.0
 49
1.25
 49
-0.25
 49
0.25
 49
-0.25
  0
LTYPE
  5
411
  2
DASHED
 70
0
  3
Dashed __ __ __ __ __
 72
65
 73
2
 40
0.75
 49
0.5
 49
-0.25
  0
LTYPE
  5
43B
  2
DOTTED
 70
0
  3
Dotted .  .  .  .
 72
65
 73
2
 40
0.2
 49
0.0
 49
-0.2
  0
ENDTAB
  0
TABLE
  2
STYLE
  70
4
  0
STYLE
  2
KICAD
  70
0
  40
0
  41
1
  42
1
  50
0
  71
0
  3
isocp.shx
  0
STYLE
  2
KICADB
  70
0
  40
0
  41
1
  42
1
  50
0
  71
0
  3
isocp.shx
  0
STYLE
  2
KICADI
  70
0
  40
0
  41
1
  42
1
  50
15
  71
0
  3
isocp.shx
  0
STYLE
  2
KICADBI
  70
0
  40
0
  41
1
  42
1
  50
15
  71
0
  3
isocp.shx
  0
ENDTAB
  0
TABLE
  2
LAYER
  70
1
  0
LAYER
  2
BLACK
  70
0
  62
7
  6
CONTINUOUS
  0
ENDTAB
  0
ENDSEC
  0
SECTION
  2
ENTITIES
0
LINE
8
BLACK
6
CONTINUOUS
10
308.496
20
-54.85
11
308.496
21
-59.85
0
LINE
8
BLACK
6
CONTINUOUS
10
308.496
20
-59.85
11
318.496
21
-59.85
0
LINE
8
BLACK
6
CONTINUOUS
10
318.496
20
-59.85
11
318.496
21
-54.85
0
LINE
8
BLACK
6
CONTINUOUS
10
318.496
20
-54.85
11
308.496
21
-54.85
0
LINE
8
BLACK
6
CONTINUOUS
10
105.03
20
-132.37
11
105.03
21
-138.37
0
LINE
8
BLACK
6
CONTINUOUS
10
113.53
20
-132.37
11
105.03
21
-132.37
0
LINE
8
BLACK
6
CONTINUOUS
10
113.53
20
-138.37
11
113.53
21
-132.37
0
LINE
8
BLACK
6
CONTINUOUS
10
105.03
20
-138.37
11
113.53
21
-138.37
0
LINE
8
BLACK
6
CONTINUOUS
10
303.624
20
-132.37
11
303.624
21
-138.37
0
LINE
8
BLACK
6
CONTINUOUS
10
312.124
20
-132.37
11
303.624
21
-132.37
0
LINE
8
BLACK
6
CONTINUOUS
10
312.124
20
-138.37
11
312.124
21
-132.37
0
LINE
8
BLACK
6
CONTINUOUS
10
303.624
20
-138.37
11
312.124
21
-138.37
0
LINE
8
BLACK
6
CONTINUOUS
10
99.3954
20
-133.711
11
99.3954
21
-138.411
0
LINE
8
BLACK
6
CONTINUOUS
10
99.3954
20
-138.411
11
101.695
21
-138.411
0
LINE
8
BLACK
6
CONTINUOUS
10
101.695
20
-138.411
11
101.695
21
-133.711
0
LINE
8
BLACK
6
CONTINUOUS
10
99.3954
20
-133.711
11
101.695
21
-133.711
0
LINE
8
BLACK
6
CONTINUOUS
10
92.1564
20
-133.711
11
94.4564
21
-133.711
0
LINE
8
BLACK
6
CONTINUOUS
10
94.4564
20
-138.411
11
94.4564
21
-133.711
0
LINE
8
BLACK
6
CONTINUOUS
10
92.1564
20
-138.411
11
94.4564
21
-138.411
0
LINE
8
BLACK
6
CONTINUOUS
10
92.1564
20
-133.711
11
92.1564
21
-138.411
0
LINE
8
BLACK
6
CONTINUOUS
10
96.9824
20
-133.711
11
96.9824
21
-138.411
0
LINE
8
BLACK
6
CONTINUOUS
10
96.9824
20
-138.411
11
99.2824
21
-138.411
0
LINE
8
BLACK
6
CONTINUOUS
10
99.2824
20
-138.411
11
99.2824
21
-133.711
0
LINE
8
BLACK
6
CONTINUOUS
10
96.9824
20
-133.711
11
99.2824
21
-133.711
0
LINE
8
BLACK
6
CONTINUOUS
10
94.5694
20
-133.711
11
94.5694
21
-138.411
0
LINE
8
BLACK
6
CONTINUOUS
10
94.5694
20
-138.411
11
96.8694
21
-138.411
0
LINE
8
BLACK
6
CONTINUOUS
10
96.8694
20
-138.411
11
96.8694
21
-133.711
0
LINE
8
BLACK
6
CONTINUOUS
10
94.5694
20
-133.711
11
96.8694
21
-133.711
0
LINE
8
BLACK
6
CONTINUOUS
10
101.808
20
-133.711
11
101.808
21
-138.411
0
LINE
8
BLACK
6
CONTINUOUS
10
101.808
20
-138.411
11
104.108
21
-138.411
0
LINE
8
BLACK
6
CONTINUOUS
10
104.108
20
-138.411
11
104.108
21
-133.711
0
LINE
8
BLACK
6
CONTINUOUS
10
101.808
20
-133.711
11
104.108
21
-133.711
0
LINE
8
BLACK
6
CONTINUOUS
10
322.698
20
-133.711
11
322.698
21
-138.411
0
LINE
8
BLACK
6
CONTINUOUS
10
322.698
20
-138.411
11
324.998
21
-138.411
0
LINE
8
BLACK
6
CONTINUOUS
10
324.998
20
-138.411
11
324.998
21
-133.711
0
LINE
8
BLACK
6
CONTINUOUS
10
322.698
20
-133.711
11
324.998
21
-133.711
0
LINE
8
BLACK
6
CONTINUOUS
10
313.046
20
-133.711
11
313.046
21
-138.411
0
LINE
8
BLACK
6
CONTINUOUS
10
313.046
20
-138.411
11
315.346
21
-138.411
0
LINE
8
BLACK
6
CONTINUOUS
10
315.346
20
-138.411
11
315.346
21
-133.711
0
LINE
8
BLACK
6
CONTINUOUS
10
313.046
20
-133.711
11
315.346
21
-133.711
0
LINE
8
BLACK
6
CONTINUOUS
10
320.285
20
-133.711
11
320.285
21
-138.411
0
LINE
8
BLACK
6
CONTINUOUS
10
320.285
20
-138.411
11
322.585
21
-138.411
0
LINE
8
BLACK
6
CONTINUOUS
10
322.585
20
-138.411
11
322.585
21
-133.711
0
LINE
8
BLACK
6
CONTINUOUS
10
320.285
20
-133.711
11
322.585
21
-133.711
0
LINE
8
BLACK
6
CONTINUOUS
10
315.459
20
-133.711
11
315.459
21
-138.411
0
LINE
8
BLACK
6
CONTINUOUS
10
315.459
20
-138.411
11
317.759
21
-138.411
0
LINE
8
BLACK
6
CONTINUOUS
10
317.759
20
-138.411
11
317.759
21
-133.711
0
LINE
8
BLACK
6
CONTINUOUS
10
315.459
20
-133.711
11
317.759
21
-133.711
0
LINE
8
BLACK
6
CONTINUOUS
10
317.872
20
-133.711
11
317.872
21
-138.411
0
LINE
8
BLACK
6
CONTINUOUS
10
317.872
20
-138.411
11
320.172
21
-138.411
0
LINE
8
BLACK
6
CONTINUOUS
10
320.172
20
-138.411
11
320.172
21
-133.711
0
LINE
8
BLACK
6
CONTINUOUS
10
317.872
20
-133.711
11
320.172
21
-133.711
0
LINE
8
BLACK
6
CONTINUOUS
10
321.79
20
-88.7862
11
321.79
21
-84.0862
0
LINE
8
BLACK
6
CONTINUOUS
10
321.79
20
-84.0862
11
319.49
21
-84.0862
0
LINE
8
BLACK
6
CONTINUOUS
10
319.49
20
-84.0862
11
319.49
21
-88.7862
0
LINE
8
BLACK
6
CONTINUOUS
10
321.79
20
-88.7862
11
319.49
21
-88.7862
0
LINE
8
BLACK
6
CONTINUOUS
10
321.79
20
-69.7362
11
321.79
21
-65.0362
0
LINE
8
BLACK
6
CONTINUOUS
10
321.79
20
-65.0362
11
319.49
21
-65.0362
0
LINE
8
BLACK
6
CONTINUOUS
10
319.49
20
-65.0362
11
319.49
21
-69.7362
0
LINE
8
BLACK
6
CONTINUOUS
10
321.79
20
-69.7362
11
319.49
21
-69.7362
0
LINE
8
BLACK
6
CONTINUOUS
10
332.306
20
-162.585
11
334.656
21
-158.515
0
LINE
8
BLACK
6
CONTINUOUS
10
334.656
20
-158.515
11
332.664
21
-157.365
0
LINE
8
BLACK
6
CONTINUOUS
10
332.664
20
-157.365
11
330.314
21
-161.435
0
LINE
8
BLACK
6
CONTINUOUS
10
332.306
20
-162.585
11
330.314
21
-161.435
0
LINE
8
BLACK
6
CONTINUOUS
10
245.59
20
-130.696
11
245.59
21
-125.996
0
LINE
8
BLACK
6
CONTINUOUS
10
245.59
20
-125.996
11
243.29
21
-125.996
0
LINE
8
BLACK
6
CONTINUOUS
10
243.29
20
-125.996
11
243.29
21
-130.696
0
LINE
8
BLACK
6
CONTINUOUS
10
245.59
20
-130.696
11
243.29
21
-130.696
0
LINE
8
BLACK
6
CONTINUOUS
10
264.64
20
-106.566
11
264.64
21
-101.866
0
LINE
8
BLACK
6
CONTINUOUS
10
264.64
20
-101.866
11
262.34
21
-101.866
0
LINE
8
BLACK
6
CONTINUOUS
10
262.34
20
-101.866
11
262.34
21
-106.566
0
LINE
8
BLACK
6
CONTINUOUS
10
264.64
20
-106.566
11
262.34
21
-106.566
0
LINE
8
BLACK
6
CONTINUOUS
10
302.74
20
-124.981
11
302.74
21
-120.281
0
LINE
8
BLACK
6
CONTINUOUS
10
302.74
20
-120.281
11
300.44
21
-120.281
0
LINE
8
BLACK
6
CONTINUOUS
10
300.44
20
-120.281
11
300.44
21
-124.981
0
LINE
8
BLACK
6
CONTINUOUS
10
302.74
20
-124.981
11
300.44
21
-124.981
0
LINE
8
BLACK
6
CONTINUOUS
10
226.54
20
-111.646
11
226.54
21
-106.946
0
LINE
8
BLACK
6
CONTINUOUS
10
226.54
20
-106.946
11
224.24
21
-106.946
0
LINE
8
BLACK
6
CONTINUOUS
10
224.24
20
-106.946
11
224.24
21
-111.646
0
LINE
8
BLACK
6
CONTINUOUS
10
226.54
20
-111.646
11
224.24
21
-111.646
0
LINE
8
BLACK
6
CONTINUOUS
10
283.532
20
-123.076
11
283.532
21
-118.376
0
LINE
8
BLACK
6
CONTINUOUS
10
283.532
20
-118.376
11
281.232
21
-118.376
0
LINE
8
BLACK
6
CONTINUOUS
10
281.232
20
-118.376
11
281.232
21
-123.076
0
LINE
8
BLACK
6
CONTINUOUS
10
283.532
20
-123.076
11
281.232
21
-123.076
0
LINE
8
BLACK
6
CONTINUOUS
10
226.54
20
-130.696
11
226.54
21
-125.996
0
LINE
8
BLACK
6
CONTINUOUS
10
226.54
20
-125.996
11
224.24
21
-125.996
0
LINE
8
BLACK
6
CONTINUOUS
10
224.24
20
-125.996
11
224.24
21
-130.696
0
LINE
8
BLACK
6
CONTINUOUS
10
226.54
20
-130.696
11
224.24
21
-130.696
0
LINE
8
BLACK
6
CONTINUOUS
10
226.54
20
-92.5962
11
226.54
21
-87.8962
0
LINE
8
BLACK
6
CONTINUOUS
10
226.54
20
-87.8962
11
224.24
21
-87.8962
0
LINE
8
BLACK
6
CONTINUOUS
10
224.24
20
-87.8962
11
224.24
21
-92.5962
0
LINE
8
BLACK
6
CONTINUOUS
10
226.54
20
-92.5962
11
224.24
21
-92.5962
0
LINE
8
BLACK
6
CONTINUOUS
10
245.59
20
-73.5462
11
245.59
21
-68.8462
0
LINE
8
BLACK
6
CONTINUOUS
10
245.59
20
-68.8462
11
243.29
21
-68.8462
0
LINE
8
BLACK
6
CONTINUOUS
10
243.29
20
-68.8462
11
243.29
21
-73.5462
0
LINE
8
BLACK
6
CONTINUOUS
10
245.59
20
-73.5462
11
243.29
21
-73.5462
0
LINE
8
BLACK
6
CONTINUOUS
10
302.74
20
-105.931
11
302.74
21
-101.231
0
LINE
8
BLACK
6
CONTINUOUS
10
302.74
20
-101.231
11
300.44
21
-101.231
0
LINE
8
BLACK
6
CONTINUOUS
10
300.44
20
-101.231
11
300.44
21
-105.931
0
LINE
8
BLACK
6
CONTINUOUS
10
302.74
20
-105.931
11
300.44
21
-105.931
0
LINE
8
BLACK
6
CONTINUOUS
10
283.532
20
-84.9762
11
283.532
21
-80.2762
0
LINE
8
BLACK
6
CONTINUOUS
10
283.532
20
-80.2762
11
281.232
21
-80.2762
0
LINE
8
BLACK
6
CONTINUOUS
10
281.232
20
-80.2762
11
281.232
21
-84.9762
0
LINE
8
BLACK
6
CONTINUOUS
10
283.532
20
-84.9762
11
281.232
21
-84.9762
0
LINE
8
BLACK
6
CONTINUOUS
10
245.59
20
-92.5962
11
245.59
21
-87.8962
0
LINE
8
BLACK
6
CONTINUOUS
10
245.59
20
-87.8962
11
243.29
21
-87.8962
0
LINE
8
BLACK
6
CONTINUOUS
10
243.29
20
-87.8962
11
243.29
21
-92.5962
0
LINE
8
BLACK
6
CONTINUOUS
10
245.59
20
-92.5962
11
243.29
21
-92.5962
0
LINE
8
BLACK
6
CONTINUOUS
10
313.584
20
-153.197
11
314.801
21
-148.657
0
LINE
8
BLACK
6
CONTINUOUS
10
314.801
20
-148.657
11
312.579
21
-148.062
0
LINE
8
BLACK
6
CONTINUOUS
10
312.579
20
-148.062
11
311.363
21
-152.602
0
LINE
8
BLACK
6
CONTINUOUS
10
313.584
20
-153.197
11
311.363
21
-152.602
0
LINE
8
BLACK
6
CONTINUOUS
10
169.26
20
-87.5162
11
169.26
21
-82.8162
0
LINE
8
BLACK
6
CONTINUOUS
10
169.26
20
-82.8162
11
166.96
21
-82.8162
0
LINE
8
BLACK
6
CONTINUOUS
10
166.96
20
-82.8162
11
166.96
21
-87.5162
0
LINE
8
BLACK
6
CONTINUOUS
10
169.26
20
-87.5162
11
166.96
21
-87.5162
0
LINE
8
BLACK
6
CONTINUOUS
10
207.36
20
-92.5962
11
207.36
21
-87.8962
0
LINE
8
BLACK
6
CONTINUOUS
10
207.36
20
-87.8962
11
205.06
21
-87.8962
0
LINE
8
BLACK
6
CONTINUOUS
10
205.06
20
-87.8962
11
205.06
21
-92.5962
0
LINE
8
BLACK
6
CONTINUOUS
10
207.36
20
-92.5962
11
205.06
21
-92.5962
0
LINE
8
BLACK
6
CONTINUOUS
10
188.31
20
-111.646
11
188.31
21
-106.946
0
LINE
8
BLACK
6
CONTINUOUS
10
188.31
20
-106.946
11
186.01
21
-106.946
0
LINE
8
BLACK
6
CONTINUOUS
10
186.01
20
-106.946
11
186.01
21
-111.646
0
LINE
8
BLACK
6
CONTINUOUS
10
188.31
20
-111.646
11
186.01
21
-111.646
0
LINE
8
BLACK
6
CONTINUOUS
10
245.59
20
-111.646
11
245.59
21
-106.946
0
LINE
8
BLACK
6
CONTINUOUS
10
245.59
20
-106.946
11
243.29
21
-106.946
0
LINE
8
BLACK
6
CONTINUOUS
10
243.29
20
-106.946
11
243.29
21
-111.646
0
LINE
8
BLACK
6
CONTINUOUS
10
245.59
20
-111.646
11
243.29
21
-111.646
0
LINE
8
BLACK
6
CONTINUOUS
10
283.532
20
-104.026
11
283.532
21
-99.3262
0
LINE
8
BLACK
6
CONTINUOUS
10
283.532
20
-99.3262
11
281.232
21
-99.3262
0
LINE
8
BLACK
6
CONTINUOUS
10
281.232
20
-99.3262
11
281.232
21
-104.026
0
LINE
8
BLACK
6
CONTINUOUS
10
283.532
20
-104.026
11
281.232
21
-104.026
0
LINE
8
BLACK
6
CONTINUOUS
10
169.26
20
-68.4662
11
169.26
21
-63.7662
0
LINE
8
BLACK
6
CONTINUOUS
10
169.26
20
-63.7662
11
166.96
21
-63.7662
0
LINE
8
BLACK
6
CONTINUOUS
10
166.96
20
-63.7662
11
166.96
21
-68.4662
0
LINE
8
BLACK
6
CONTINUOUS
10
169.26
20
-68.4662
11
166.96
21
-68.4662
0
LINE
8
BLACK
6
CONTINUOUS
10
207.36
20
-73.5462
11
207.36
21
-68.8462
0
LINE
8
BLACK
6
CONTINUOUS
10
207.36
20
-68.8462
11
205.06
21
-68.8462
0
LINE
8
BLACK
6
CONTINUOUS
10
205.06
20
-68.8462
11
205.06
21
-73.5462
0
LINE
8
BLACK
6
CONTINUOUS
10
207.36
20
-73.5462
11
205.06
21
-73.5462
0
LINE
8
BLACK
6
CONTINUOUS
10
207.36
20
-149.746
11
207.36
21
-145.046
0
LINE
8
BLACK
6
CONTINUOUS
10
207.36
20
-145.046
11
205.06
21
-145.046
0
LINE
8
BLACK
6
CONTINUOUS
10
205.06
20
-145.046
11
205.06
21
-149.746
0
LINE
8
BLACK
6
CONTINUOUS
10
207.36
20
-149.746
11
205.06
21
-149.746
0
LINE
8
BLACK
6
CONTINUOUS
10
264.64
20
-125.616
11
264.64
21
-120.916
0
LINE
8
BLACK
6
CONTINUOUS
10
264.64
20
-120.916
11
262.34
21
-120.916
0
LINE
8
BLACK
6
CONTINUOUS
10
262.34
20
-120.916
11
262.34
21
-125.616
0
LINE
8
BLACK
6
CONTINUOUS
10
264.64
20
-125.616
11
262.34
21
-125.616
0
LINE
8
BLACK
6
CONTINUOUS
10
302.74
20
-86.8812
11
302.74
21
-82.1812
0
LINE
8
BLACK
6
CONTINUOUS
10
302.74
20
-82.1812
11
300.44
21
-82.1812
0
LINE
8
BLACK
6
CONTINUOUS
10
300.44
20
-82.1812
11
300.44
21
-86.8812
0
LINE
8
BLACK
6
CONTINUOUS
10
302.74
20
-86.8812
11
300.44
21
-86.8812
0
LINE
8
BLACK
6
CONTINUOUS
10
302.74
20
-67.8312
11
302.74
21
-63.1312
0
LINE
8
BLACK
6
CONTINUOUS
10
302.74
20
-63.1312
11
300.44
21
-63.1312
0
LINE
8
BLACK
6
CONTINUOUS
10
300.44
20
-63.1312
11
300.44
21
-67.8312
0
LINE
8
BLACK
6
CONTINUOUS
10
302.74
20
-67.8312
11
300.44
21
-67.8312
0
LINE
8
BLACK
6
CONTINUOUS
10
245.59
20
-149.746
11
245.59
21
-145.046
0
LINE
8
BLACK
6
CONTINUOUS
10
245.59
20
-145.046
11
243.29
21
-145.046
0
LINE
8
BLACK
6
CONTINUOUS
10
243.29
20
-145.046
11
243.29
21
-149.746
0
LINE
8
BLACK
6
CONTINUOUS
10
245.59
20
-149.746
11
243.29
21
-149.746
0
LINE
8
BLACK
6
CONTINUOUS
10
264.64
20
-144.666
11
264.64
21
-139.966
0
LINE
8
BLACK
6
CONTINUOUS
10
264.64
20
-139.966
11
262.34
21
-139.966
0
LINE
8
BLACK
6
CONTINUOUS
10
262.34
20
-139.966
11
262.34
21
-144.666
0
LINE
8
BLACK
6
CONTINUOUS
10
264.64
20
-144.666
11
262.34
21
-144.666
0
LINE
8
BLACK
6
CONTINUOUS
10
188.31
20
-73.5462
11
188.31
21
-68.8462
0
LINE
8
BLACK
6
CONTINUOUS
10
188.31
20
-68.8462
11
186.01
21
-68.8462
0
LINE
8
BLACK
6
CONTINUOUS
10
186.01
20
-68.8462
11
186.01
21
-73.5462
0
LINE
8
BLACK
6
CONTINUOUS
10
188.31
20
-73.5462
11
186.01
21
-73.5462
0
LINE
8
BLACK
6
CONTINUOUS
10
283.532
20
-65.9262
11
283.532
21
-61.2262
0
LINE
8
BLACK
6
CONTINUOUS
10
283.532
20
-61.2262
11
281.232
21
-61.2262
0
LINE
8
BLACK
6
CONTINUOUS
10
281.232
20
-61.2262
11
281.232
21
-65.9262
0
LINE
8
BLACK
6
CONTINUOUS
10
283.532
20
-65.9262
11
281.232
21
-65.9262
0
LINE
8
BLACK
6
CONTINUOUS
10
264.64
20
-68.4662
11
264.64
21
-63.7662
0
LINE
8
BLACK
6
CONTINUOUS
10
264.64
20
-63.7662
11
262.34
21
-63.7662
0
LINE
8
BLACK
6
CONTINUOUS
10
262.34
20
-63.7662
11
262.34
21
-68.4662
0
LINE
8
BLACK
6
CONTINUOUS
10
264.64
20
-68.4662
11
262.34
21
-68.4662
0
LINE
8
BLACK
6
CONTINUOUS
10
188.31
20
-92.5962
11
188.31
21
-87.8962
0
LINE
8
BLACK
6
CONTINUOUS
10
188.31
20
-87.8962
11
186.01
21
-87.8962
0
LINE
8
BLACK
6
CONTINUOUS
10
186.01
20
-87.8962
11
186.01
21
-92.5962
0
LINE
8
BLACK
6
CONTINUOUS
10
188.31
20
-92.5962
11
186.01
21
-92.5962
0
LINE
8
BLACK
6
CONTINUOUS
10
264.64
20
-87.5162
11
264.64
21
-82.8162
0
LINE
8
BLACK
6
CONTINUOUS
10
264.64
20
-82.8162
11
262.34
21
-82.8162
0
LINE
8
BLACK
6
CONTINUOUS
10
262.34
20
-82.8162
11
262.34
21
-87.5162
0
LINE
8
BLACK
6
CONTINUOUS
10
264.64
20
-87.5162
11
262.34
21
-87.5162
0
LINE
8
BLACK
6
CONTINUOUS
10
207.36
20
-111.646
11
207.36
21
-106.946
0
LINE
8
BLACK
6
CONTINUOUS
10
207.36
20
-106.946
11
205.06
21
-106.946
0
LINE
8
BLACK
6
CONTINUOUS
10
205.06
20
-106.946
11
205.06
21
-111.646
0
LINE
8
BLACK
6
CONTINUOUS
10
207.36
20
-111.646
11
205.06
21
-111.646
0
LINE
8
BLACK
6
CONTINUOUS
10
188.31
20
-130.696
11
188.31
21
-125.996
0
LINE
8
BLACK
6
CONTINUOUS
10
188.31
20
-125.996
11
186.01
21
-125.996
0
LINE
8
BLACK
6
CONTINUOUS
10
186.01
20
-125.996
11
186.01
21
-130.696
0
LINE
8
BLACK
6
CONTINUOUS
10
188.31
20
-130.696
11
186.01
21
-130.696
0
LINE
8
BLACK
6
CONTINUOUS
10
188.31
20
-149.746
11
188.31
21
-145.046
0
LINE
8
BLACK
6
CONTINUOUS
10
188.31
20
-145.046
11
186.01
21
-145.046
0
LINE
8
BLACK
6
CONTINUOUS
10
186.01
20
-145.046
11
186.01
21
-149.746
0
LINE
8
BLACK
6
CONTINUOUS
10
188.31
20
-149.746
11
186.01
21
-149.746
0
LINE
8
BLACK
6
CONTINUOUS
10
321.79
20
-126.886
11
321.79
21
-122.186
0
LINE
8
BLACK
6
CONTINUOUS
10
321.79
20
-122.186
11
319.49
21
-122.186
0
LINE
8
BLACK
6
CONTINUOUS
10
319.49
20
-122.186
11
319.49
21
-126.886
0
LINE
8
BLACK
6
CONTINUOUS
10
321.79
20
-126.886
11
319.49
21
-126.886
0
LINE
8
BLACK
6
CONTINUOUS
10
321.79
20
-107.836
11
321.79
21
-103.136
0
LINE
8
BLACK
6
CONTINUOUS
10
321.79
20
-103.136
11
319.49
21
-103.136
0
LINE
8
BLACK
6
CONTINUOUS
10
319.49
20
-103.136
11
319.49
21
-107.836
0
LINE
8
BLACK
6
CONTINUOUS
10
321.79
20
-107.836
11
319.49
21
-107.836
0
LINE
8
BLACK
6
CONTINUOUS
10
150.051
20
-123.076
11
150.051
21
-118.376
0
LINE
8
BLACK
6
CONTINUOUS
10
150.051
20
-118.376
11
147.751
21
-118.376
0
LINE
8
BLACK
6
CONTINUOUS
10
147.751
20
-118.376
11
147.751
21
-123.076
0
LINE
8
BLACK
6
CONTINUOUS
10
150.051
20
-123.076
11
147.751
21
-123.076
0
LINE
8
BLACK
6
CONTINUOUS
10
150.051
20
-65.9262
11
150.051
21
-61.2262
0
LINE
8
BLACK
6
CONTINUOUS
10
150.051
20
-61.2262
11
147.751
21
-61.2262
0
LINE
8
BLACK
6
CONTINUOUS
10
147.751
20
-61.2262
11
147.751
21
-65.9262
0
LINE
8
BLACK
6
CONTINUOUS
10
150.051
20
-65.9262
11
147.751
21
-65.9262
0
LINE
8
BLACK
6
CONTINUOUS
10
111.951
20
-126.886
11
111.951
21
-122.186
0
LINE
8
BLACK
6
CONTINUOUS
10
111.951
20
-122.186
11
109.651
21
-122.186
0
LINE
8
BLACK
6
CONTINUOUS
10
109.651
20
-122.186
11
109.651
21
-126.886
0
LINE
8
BLACK
6
CONTINUOUS
10
111.951
20
-126.886
11
109.651
21
-126.886
0
LINE
8
BLACK
6
CONTINUOUS
10
119.592
20
-148.904
11
118.376
21
-144.364
0
LINE
8
BLACK
6
CONTINUOUS
10
118.376
20
-144.364
11
116.154
21
-144.959
0
LINE
8
BLACK
6
CONTINUOUS
10
116.154
20
-144.959
11
117.37
21
-149.499
0
LINE
8
BLACK
6
CONTINUOUS
10
119.592
20
-148.904
11
117.37
21
-149.499
0
LINE
8
BLACK
6
CONTINUOUS
10
99.2129
20
-154.292
11
96.8629
21
-150.221
0
LINE
8
BLACK
6
CONTINUOUS
10
96.8629
20
-150.221
11
94.871
21
-151.371
0
LINE
8
BLACK
6
CONTINUOUS
10
94.871
20
-151.371
11
97.221
21
-155.442
0
LINE
8
BLACK
6
CONTINUOUS
10
99.2129
20
-154.292
11
97.221
21
-155.442
0
LINE
8
BLACK
6
CONTINUOUS
10
150.051
20
-84.9762
11
150.051
21
-80.2762
0
LINE
8
BLACK
6
CONTINUOUS
10
150.051
20
-80.2762
11
147.751
21
-80.2762
0
LINE
8
BLACK
6
CONTINUOUS
10
147.751
20
-80.2762
11
147.751
21
-84.9762
0
LINE
8
BLACK
6
CONTINUOUS
10
150.051
20
-84.9762
11
147.751
21
-84.9762
0
LINE
8
BLACK
6
CONTINUOUS
10
140.526
20
-149.111
11
140.526
21
-144.411
0
LINE
8
BLACK
6
CONTINUOUS
10
140.526
20
-144.411
11
138.226
21
-144.411
0
LINE
8
BLACK
6
CONTINUOUS
10
138.226
20
-144.411
11
138.226
21
-149.111
0
LINE
8
BLACK
6
CONTINUOUS
10
140.526
20
-149.111
11
138.226
21
-149.111
0
LINE
8
BLACK
6
CONTINUOUS
10
111.951
20
-88.7862
11
111.951
21
-84.0862
0
LINE
8
BLACK
6
CONTINUOUS
10
111.951
20
-84.0862
11
109.651
21
-84.0862
0
LINE
8
BLACK
6
CONTINUOUS
10
109.651
20
-84.0862
11
109.651
21
-88.7862
0
LINE
8
BLACK
6
CONTINUOUS
10
111.951
20
-88.7862
11
109.651
21
-88.7862
0
LINE
8
BLACK
6
CONTINUOUS
10
169.26
20
-144.666
11
169.26
21
-139.966
0
LINE
8
BLACK
6
CONTINUOUS
10
169.26
20
-139.966
11
166.96
21
-139.966
0
LINE
8
BLACK
6
CONTINUOUS
10
166.96
20
-139.966
11
166.96
21
-144.666
0
LINE
8
BLACK
6
CONTINUOUS
10
169.26
20
-144.666
11
166.96
21
-144.666
0
LINE
8
BLACK
6
CONTINUOUS
10
131.001
20
-67.8312
11
131.001
21
-63.1312
0
LINE
8
BLACK
6
CONTINUOUS
10
131.001
20
-63.1312
11
128.701
21
-63.1312
0
LINE
8
BLACK
6
CONTINUOUS
10
128.701
20
-63.1312
11
128.701
21
-67.8312
0
LINE
8
BLACK
6
CONTINUOUS
10
131.001
20
-67.8312
11
128.701
21
-67.8312
0
LINE
8
BLACK
6
CONTINUOUS
10
111.951
20
-107.836
11
111.951
21
-103.136
0
LINE
8
BLACK
6
CONTINUOUS
10
111.951
20
-103.136
11
109.651
21
-103.136
0
LINE
8
BLACK
6
CONTINUOUS
10
109.651
20
-103.136
11
109.651
21
-107.836
0
LINE
8
BLACK
6
CONTINUOUS
10
111.951
20
-107.836
11
109.651
21
-107.836
0
LINE
8
BLACK
6
CONTINUOUS
10
131.16
20
-105.931
11
131.16
21
-101.231
0
LINE
8
BLACK
6
CONTINUOUS
10
131.16
20
-101.231
11
128.86
21
-101.231
0
LINE
8
BLACK
6
CONTINUOUS
10
128.86
20
-101.231
11
128.86
21
-105.931
0
LINE
8
BLACK
6
CONTINUOUS
10
131.16
20
-105.931
11
128.86
21
-105.931
0
LINE
8
BLACK
6
CONTINUOUS
10
131.16
20
-124.981
11
131.16
21
-120.281
0
LINE
8
BLACK
6
CONTINUOUS
10
131.16
20
-120.281
11
128.86
21
-120.281
0
LINE
8
BLACK
6
CONTINUOUS
10
128.86
20
-120.281
11
128.86
21
-124.981
0
LINE
8
BLACK
6
CONTINUOUS
10
131.16
20
-124.981
11
128.86
21
-124.981
0
LINE
8
BLACK
6
CONTINUOUS
10
169.26
20
-106.566
11
169.26
21
-101.866
0
LINE
8
BLACK
6
CONTINUOUS
10
169.26
20
-101.866
11
166.96
21
-101.866
0
LINE
8
BLACK
6
CONTINUOUS
10
166.96
20
-101.866
11
166.96
21
-106.566
0
LINE
8
BLACK
6
CONTINUOUS
10
169.26
20
-106.566
11
166.96
21
-106.566
0
LINE
8
BLACK
6
CONTINUOUS
10
169.26
20
-125.616
11
169.26
21
-120.916
0
LINE
8
BLACK
6
CONTINUOUS
10
169.26
20
-120.916
11
166.96
21
-120.916
0
LINE
8
BLACK
6
CONTINUOUS
10
166.96
20
-120.916
11
166.96
21
-125.616
0
LINE
8
BLACK
6
CONTINUOUS
10
169.26
20
-125.616
11
166.96
21
-125.616
0
LINE
8
BLACK
6
CONTINUOUS
10
131.16
20
-86.8812
11
131.16
21
-82.1812
0
LINE
8
BLACK
6
CONTINUOUS
10
131.16
20
-82.1812
11
128.86
21
-82.1812
0
LINE
8
BLACK
6
CONTINUOUS
10
128.86
20
-82.1812
11
128.86
21
-86.8812
0
LINE
8
BLACK
6
CONTINUOUS
10
131.16
20
-86.8812
11
128.86
21
-86.8812
0
LINE
8
BLACK
6
CONTINUOUS
10
111.951
20
-69.7362
11
111.951
21
-65.0362
0
LINE
8
BLACK
6
CONTINUOUS
10
111.951
20
-65.0362
11
109.651
21
-65.0362
0
LINE
8
BLACK
6
CONTINUOUS
10
109.651
20
-65.0362
11
109.651
21
-69.7362
0
LINE
8
BLACK
6
CONTINUOUS
10
111.951
20
-69.7362
11
109.651
21
-69.7362
0
LINE
8
BLACK
6
CONTINUOUS
10
207.36
20
-130.696
11
207.36
21
-125.996
0
LINE
8
BLACK
6
CONTINUOUS
10
207.36
20
-125.996
11
205.06
21
-125.996
0
LINE
8
BLACK
6
CONTINUOUS
10
205.06
20
-125.996
11
205.06
21
-130.696
0
LINE
8
BLACK
6
CONTINUOUS
10
207.36
20
-130.696
11
205.06
21
-130.696
0
LINE
8
BLACK
6
CONTINUOUS
10
150.051
20
-104.026
11
150.051
21
-99.3262
0
LINE
8
BLACK
6
CONTINUOUS
10
150.051
20
-99.3262
11
147.751
21
-99.3262
0
LINE
8
BLACK
6
CONTINUOUS
10
147.751
20
-99.3262
11
147.751
21
-104.026
0
LINE
8
BLACK
6
CONTINUOUS
10
150.051
20
-104.026
11
147.751
21
-104.026
0
LINE
8
BLACK
6
CONTINUOUS
10
293.215
20
-149.111
11
293.215
21
-144.411
0
LINE
8
BLACK
6
CONTINUOUS
10
293.215
20
-144.411
11
290.915
21
-144.411
0
LINE
8
BLACK
6
CONTINUOUS
10
290.915
20
-144.411
11
290.915
21
-149.111
0
LINE
8
BLACK
6
CONTINUOUS
10
293.215
20
-149.111
11
290.915
21
-149.111
0
LINE
8
BLACK
6
CONTINUOUS
10
226.54
20
-149.746
11
226.54
21
-145.046
0
LINE
8
BLACK
6
CONTINUOUS
10
226.54
20
-145.046
11
224.24
21
-145.046
0
LINE
8
BLACK
6
CONTINUOUS
10
224.24
20
-145.046
11
224.24
21
-149.746
0
LINE
8
BLACK
6
CONTINUOUS
10
226.54
20
-149.746
11
224.24
21
-149.746
0
LINE
8
BLACK
6
CONTINUOUS
10
226.54
20
-73.5462
11
226.54
21
-68.8462
0
LINE
8
BLACK
6
CONTINUOUS
10
226.54
20
-68.8462
11
224.24
21
-68.8462
0
LINE
8
BLACK
6
CONTINUOUS
10
224.24
20
-68.8462
11
224.24
21
-73.5462
0
LINE
8
BLACK
6
CONTINUOUS
10
226.54
20
-73.5462
11
224.24
21
-73.5462
  0
ENDSEC
  0
EOF
