  0
SECTION
  2
HEADER
  9
$ANGBASE
  50
0.0
  9
$ANGDIR
  70
1
  9
$MEASUREMENT
  70
1
  0
ENDSEC
  0
SECTION
  2
TABLES
  0
TABLE
  2
LTYPE
  70
4
  0
LTYPE
  5
40F
  2
CONTINUOUS
  70
0
  3
Solid line
  72
65
  73
0
  40
0.0
  0
LTYPE
  5
410
  2
DASHDOT
 70
0
  3
Dash Dot ____ _ ____ _
 72
65
 73
4
 40
2.0
 49
1.25
 49
-0.25
 49
0.25
 49
-0.25
  0
LTYPE
  5
411
  2
DASHED
 70
0
  3
Dashed __ __ __ __ __
 72
65
 73
2
 40
0.75
 49
0.5
 49
-0.25
  0
LTYPE
  5
43B
  2
DOTTED
 70
0
  3
Dotted .  .  .  .
 72
65
 73
2
 40
0.2
 49
0.0
 49
-0.2
  0
ENDTAB
  0
TABLE
  2
STYLE
  70
4
  0
STYLE
  2
KICAD
  70
0
  40
0
  41
1
  42
1
  50
0
  71
0
  3
isocp.shx
  0
STYLE
  2
KICADB
  70
0
  40
0
  41
1
  42
1
  50
0
  71
0
  3
isocp.shx
  0
STYLE
  2
KICADI
  70
0
  40
0
  41
1
  42
1
  50
15
  71
0
  3
isocp.shx
  0
STYLE
  2
KICADBI
  70
0
  40
0
  41
1
  42
1
  50
15
  71
0
  3
isocp.shx
  0
ENDTAB
  0
TABLE
  2
LAYER
  70
1
  0
LAYER
  2
BLACK
  70
0
  62
7
  6
CONTINUOUS
  0
ENDTAB
  0
ENDSEC
  0
SECTION
  2
ENTITIES
0
CIRCLE
8
BLACK
10
335.824
20
-139.906
40
3
0
LINE
8
BLACK
6
CONTINUOUS
10
331.714
20
-135.224
11
333.764
21
-131.673
0
LINE
8
BLACK
6
CONTINUOUS
10
341.933
20
-141.124
11
343.983
21
-137.573
0
LINE
8
BLACK
6
CONTINUOUS
10
342.974
20
-135.72
11
342.865
21
-135.31
0
LINE
8
BLACK
6
CONTINUOUS
10
342.865
20
-135.31
11
343.274
21
-135.201
0
LINE
8
BLACK
6
CONTINUOUS
10
339.933
20
-144.588
11
337.883
21
-148.138
0
LINE
8
BLACK
6
CONTINUOUS
10
343.274
20
-135.201
11
342.974
21
-135.72
0
LINE
8
BLACK
6
CONTINUOUS
10
343.983
20
-137.573
11
333.764
21
-131.673
0
LINE
8
BLACK
6
CONTINUOUS
10
337.883
20
-148.138
11
335.805
21
-146.938
0
LINE
8
BLACK
6
CONTINUOUS
10
327.664
20
-142.238
11
329.714
21
-138.688
0
LINE
8
BLACK
6
CONTINUOUS
10
333.9
20
-145.838
11
331.648
21
-144.538
0
LINE
8
BLACK
6
CONTINUOUS
10
329.743
20
-143.438
11
327.664
21
-142.238
0
LINE
8
BLACK
6
CONTINUOUS
10
336.257
20
-140.156
11
335.391
21
-139.656
0
LINE
8
BLACK
6
CONTINUOUS
10
336.074
20
-139.473
11
335.574
21
-140.339
0
CIRCLE
8
BLACK
10
81.3303
20
-139.906
40
3
0
LINE
8
BLACK
6
CONTINUOUS
10
75.2208
20
-141.124
11
73.1708
21
-137.573
0
LINE
8
BLACK
6
CONTINUOUS
10
85.4399
20
-135.224
11
83.3899
21
-131.673
0
LINE
8
BLACK
6
CONTINUOUS
10
81.281
20
-131.62
11
80.8712
21
-131.51
0
LINE
8
BLACK
6
CONTINUOUS
10
80.8712
20
-131.51
11
80.981
21
-131.101
0
LINE
8
BLACK
6
CONTINUOUS
10
87.4399
20
-138.688
11
89.4899
21
-142.238
0
LINE
8
BLACK
6
CONTINUOUS
10
80.981
20
-131.101
11
81.281
21
-131.62
0
LINE
8
BLACK
6
CONTINUOUS
10
83.3899
20
-131.673
11
73.1708
21
-137.573
0
LINE
8
BLACK
6
CONTINUOUS
10
89.4899
20
-142.238
11
87.4114
21
-143.438
0
LINE
8
BLACK
6
CONTINUOUS
10
79.2708
20
-148.138
11
77.2208
21
-144.588
0
LINE
8
BLACK
6
CONTINUOUS
10
85.5061
20
-144.538
11
83.2545
21
-145.838
0
LINE
8
BLACK
6
CONTINUOUS
10
81.3492
20
-146.938
11
79.2708
21
-148.138
0
LINE
8
BLACK
6
CONTINUOUS
10
81.7633
20
-139.656
11
80.8973
21
-140.156
0
LINE
8
BLACK
6
CONTINUOUS
10
81.0803
20
-139.473
11
81.5803
21
-140.339
0
LINE
8
BLACK
6
CONTINUOUS
10
83.197
20
-132.939
11
88.297
21
-141.772
0
LINE
8
BLACK
6
CONTINUOUS
10
82.5042
20
-133.339
11
83.197
21
-132.939
0
LINE
8
BLACK
6
CONTINUOUS
10
79.4636
20
-146.872
11
74.3636
21
-138.039
0
LINE
8
BLACK
6
CONTINUOUS
10
80.6856
20
-134.389
11
79.2133
21
-135.239
0
LINE
8
BLACK
6
CONTINUOUS
10
77.4813
20
-136.239
11
76.8751
21
-136.589
0
LINE
8
BLACK
6
CONTINUOUS
10
75.0564
20
-137.639
11
74.3636
21
-138.039
0
LINE
8
BLACK
6
CONTINUOUS
10
82.5813
20
-145.072
11
81.9751
21
-145.422
0
LINE
8
BLACK
6
CONTINUOUS
10
85.7856
20
-143.222
11
84.3133
21
-144.072
0
LINE
8
BLACK
6
CONTINUOUS
10
80.1564
20
-146.472
11
79.4636
21
-146.872
0
LINE
8
BLACK
6
CONTINUOUS
10
87.6042
20
-142.172
11
88.297
21
-141.772
0
LINE
8
BLACK
6
CONTINUOUS
10
81.9068
20
-137.754
11
79.1788
21
-139.329
0
LINE
8
BLACK
6
CONTINUOUS
10
81.9068
20
-137.754
11
83.4818
21
-140.482
0
LINE
8
BLACK
6
CONTINUOUS
10
80.7538
20
-142.057
11
83.4818
21
-140.482
0
LINE
8
BLACK
6
CONTINUOUS
10
80.7538
20
-142.057
11
79.1788
21
-139.329
0
CIRCLE
8
BLACK
10
81.3303
20
-139.906
40
2.9
0
LINE
8
BLACK
6
CONTINUOUS
10
342.79
20
-138.039
11
337.69
21
-146.872
0
LINE
8
BLACK
6
CONTINUOUS
10
342.098
20
-137.639
11
342.79
21
-138.039
0
LINE
8
BLACK
6
CONTINUOUS
10
328.857
20
-141.772
11
333.957
21
-132.939
0
LINE
8
BLACK
6
CONTINUOUS
10
340.279
20
-136.589
11
338.807
21
-135.739
0
LINE
8
BLACK
6
CONTINUOUS
10
337.075
20
-134.739
11
336.468
21
-134.389
0
LINE
8
BLACK
6
CONTINUOUS
10
334.65
20
-133.339
11
333.957
21
-132.939
0
LINE
8
BLACK
6
CONTINUOUS
10
331.975
20
-143.572
11
331.368
21
-143.222
0
LINE
8
BLACK
6
CONTINUOUS
10
335.179
20
-145.422
11
333.707
21
-144.572
0
LINE
8
BLACK
6
CONTINUOUS
10
329.55
20
-142.172
11
328.857
21
-141.772
0
LINE
8
BLACK
6
CONTINUOUS
10
336.998
20
-146.472
11
337.69
21
-146.872
0
LINE
8
BLACK
6
CONTINUOUS
10
337.975
20
-139.329
11
335.247
21
-137.754
0
LINE
8
BLACK
6
CONTINUOUS
10
337.975
20
-139.329
11
336.4
21
-142.057
0
LINE
8
BLACK
6
CONTINUOUS
10
333.672
20
-140.482
11
336.4
21
-142.057
0
LINE
8
BLACK
6
CONTINUOUS
10
333.672
20
-140.482
11
335.247
21
-137.754
0
CIRCLE
8
BLACK
10
335.824
20
-139.906
40
2.9
0
LINE
8
BLACK
6
CONTINUOUS
10
87.5614
20
-90.2624
11
87.5614
21
-90.605
0
LINE
8
BLACK
6
CONTINUOUS
10
86.5414
20
-90.2624
11
86.5414
21
-90.605
0
LINE
8
BLACK
6
CONTINUOUS
10
330.613
20
-90.2624
11
330.613
21
-90.605
0
LINE
8
BLACK
6
CONTINUOUS
10
329.593
20
-90.2624
11
329.593
21
-90.605
0
LINE
8
BLACK
6
CONTINUOUS
10
81.2255
20
-139.581
11
81.0588
21
-139.293
0
LINE
8
BLACK
6
CONTINUOUS
10
80.6052
20
-139.554
11
81.4712
21
-139.054
0
LINE
8
BLACK
6
CONTINUOUS
10
81.4712
20
-139.054
11
81.7093
21
-139.467
0
LINE
8
BLACK
6
CONTINUOUS
10
82.1379
20
-140.209
11
81.8998
21
-139.797
0
LINE
8
BLACK
6
CONTINUOUS
10
81.8998
20
-139.797
11
81.4636
21
-139.994
0
LINE
8
BLACK
6
CONTINUOUS
10
81.4636
20
-139.994
11
81.5286
21
-140.011
0
LINE
8
BLACK
6
CONTINUOUS
10
81.5286
20
-140.011
11
81.6175
21
-140.07
0
LINE
8
BLACK
6
CONTINUOUS
10
81.6175
20
-140.07
11
81.7366
21
-140.276
0
LINE
8
BLACK
6
CONTINUOUS
10
81.7366
20
-140.276
11
81.7429
21
-140.382
0
LINE
8
BLACK
6
CONTINUOUS
10
81.7429
20
-140.382
11
81.7255
21
-140.447
0
LINE
8
BLACK
6
CONTINUOUS
10
81.7255
20
-140.447
11
81.6668
21
-140.536
0
LINE
8
BLACK
6
CONTINUOUS
10
81.6668
20
-140.536
11
81.4606
21
-140.655
0
LINE
8
BLACK
6
CONTINUOUS
10
81.4606
20
-140.655
11
81.3543
21
-140.662
0
LINE
8
BLACK
6
CONTINUOUS
10
81.3543
20
-140.662
11
81.2893
21
-140.644
0
LINE
8
BLACK
6
CONTINUOUS
10
81.2893
20
-140.644
11
81.2004
21
-140.585
0
LINE
8
BLACK
6
CONTINUOUS
10
81.2004
20
-140.585
11
81.0814
21
-140.379
0
LINE
8
BLACK
6
CONTINUOUS
10
81.0814
20
-140.379
11
81.075
21
-140.273
0
LINE
8
BLACK
6
CONTINUOUS
10
81.075
20
-140.273
11
81.0924
21
-140.208
0
LINE
8
BLACK
6
CONTINUOUS
10
79.2059
20
-136.893
11
78.9172
21
-137.059
0
LINE
8
BLACK
6
CONTINUOUS
10
79.1791
20
-137.513
11
78.6791
21
-136.647
0
LINE
8
BLACK
6
CONTINUOUS
10
78.6791
20
-136.647
11
79.0915
21
-136.409
0
LINE
8
BLACK
6
CONTINUOUS
10
79.9593
20
-136.293
11
80.2926
21
-136.87
0
LINE
8
BLACK
6
CONTINUOUS
10
79.5626
20
-136.082
11
79.7135
21
-136.82
0
LINE
8
BLACK
6
CONTINUOUS
10
79.7135
20
-136.82
11
80.2497
21
-136.51
0
LINE
8
BLACK
6
CONTINUOUS
10
84.3432
20
-137.781
11
84.1765
21
-137.493
0
LINE
8
BLACK
6
CONTINUOUS
10
83.7229
20
-137.754
11
84.5889
21
-137.254
0
LINE
8
BLACK
6
CONTINUOUS
10
84.5889
20
-137.254
11
84.827
21
-137.667
0
LINE
8
BLACK
6
CONTINUOUS
10
84.9699
20
-137.914
11
85.2794
21
-138.45
0
LINE
8
BLACK
6
CONTINUOUS
10
85.2794
20
-138.45
11
84.7828
21
-138.352
0
LINE
8
BLACK
6
CONTINUOUS
10
84.7828
20
-138.352
11
84.8542
21
-138.476
0
LINE
8
BLACK
6
CONTINUOUS
10
84.8542
20
-138.476
11
84.8606
21
-138.582
0
LINE
8
BLACK
6
CONTINUOUS
10
84.8606
20
-138.582
11
84.8432
21
-138.647
0
LINE
8
BLACK
6
CONTINUOUS
10
84.8432
20
-138.647
11
84.7845
21
-138.736
0
LINE
8
BLACK
6
CONTINUOUS
10
84.7845
20
-138.736
11
84.5783
21
-138.855
0
LINE
8
BLACK
6
CONTINUOUS
10
84.5783
20
-138.855
11
84.472
21
-138.862
0
LINE
8
BLACK
6
CONTINUOUS
10
84.472
20
-138.862
11
84.407
21
-138.844
0
LINE
8
BLACK
6
CONTINUOUS
10
84.407
20
-138.844
11
84.3181
21
-138.785
0
LINE
8
BLACK
6
CONTINUOUS
10
84.3181
20
-138.785
11
84.1753
21
-138.538
0
LINE
8
BLACK
6
CONTINUOUS
10
84.1753
20
-138.538
11
84.1689
21
-138.432
0
LINE
8
BLACK
6
CONTINUOUS
10
84.1689
20
-138.432
11
84.1863
21
-138.367
0
LINE
8
BLACK
6
CONTINUOUS
10
83.4547
20
-142.919
11
83.7434
21
-142.752
0
LINE
8
BLACK
6
CONTINUOUS
10
83.4815
20
-142.298
11
83.9815
21
-143.164
0
LINE
8
BLACK
6
CONTINUOUS
10
83.9815
20
-143.164
11
83.5691
21
-143.402
0
LINE
8
BLACK
6
CONTINUOUS
10
83.2328
20
-143.487
11
83.2154
21
-143.552
0
LINE
8
BLACK
6
CONTINUOUS
10
83.2154
20
-143.552
11
83.1567
21
-143.64
0
LINE
8
BLACK
6
CONTINUOUS
10
83.1567
20
-143.64
11
82.9505
21
-143.759
0
LINE
8
BLACK
6
CONTINUOUS
10
82.9505
20
-143.759
11
82.8442
21
-143.766
0
LINE
8
BLACK
6
CONTINUOUS
10
82.8442
20
-143.766
11
82.7791
21
-143.748
0
LINE
8
BLACK
6
CONTINUOUS
10
82.7791
20
-143.748
11
82.6903
21
-143.69
0
LINE
8
BLACK
6
CONTINUOUS
10
82.6903
20
-143.69
11
82.6427
21
-143.607
0
LINE
8
BLACK
6
CONTINUOUS
10
82.6427
20
-143.607
11
82.6125
21
-143.46
0
LINE
8
BLACK
6
CONTINUOUS
10
82.6125
20
-143.46
11
82.8216
21
-142.679
0
LINE
8
BLACK
6
CONTINUOUS
10
82.8216
20
-142.679
11
82.2855
21
-142.989
0
LINE
8
BLACK
6
CONTINUOUS
10
78.3174
20
-142.03
11
78.4841
21
-142.319
0
LINE
8
BLACK
6
CONTINUOUS
10
78.9377
20
-142.057
11
78.0717
21
-142.557
0
LINE
8
BLACK
6
CONTINUOUS
10
78.0717
20
-142.557
11
77.8336
21
-142.144
0
LINE
8
BLACK
6
CONTINUOUS
10
78.2472
20
-140.861
11
78.533
21
-141.356
0
LINE
8
BLACK
6
CONTINUOUS
10
78.3901
20
-141.108
11
77.5241
21
-141.608
0
LINE
8
BLACK
6
CONTINUOUS
10
77.5241
20
-141.608
11
77.6954
21
-141.619
0
LINE
8
BLACK
6
CONTINUOUS
10
77.6954
20
-141.619
11
77.8255
21
-141.654
0
LINE
8
BLACK
6
CONTINUOUS
10
77.8255
20
-141.654
11
77.9144
21
-141.713
0
LINE
8
BLACK
6
CONTINUOUS
10
335.595
20
-140.159
11
335.428
21
-140.447
0
LINE
8
BLACK
6
CONTINUOUS
10
335.882
20
-140.709
11
335.016
21
-140.209
0
LINE
8
BLACK
6
CONTINUOUS
10
335.016
20
-140.209
11
335.254
21
-139.797
0
LINE
8
BLACK
6
CONTINUOUS
10
335.683
20
-139.054
11
335.445
21
-139.467
0
LINE
8
BLACK
6
CONTINUOUS
10
335.445
20
-139.467
11
335.833
21
-139.746
0
LINE
8
BLACK
6
CONTINUOUS
10
335.833
20
-139.746
11
335.816
21
-139.681
0
LINE
8
BLACK
6
CONTINUOUS
10
335.816
20
-139.681
11
335.822
21
-139.575
0
LINE
8
BLACK
6
CONTINUOUS
10
335.822
20
-139.575
11
335.941
21
-139.369
0
LINE
8
BLACK
6
CONTINUOUS
10
335.941
20
-139.369
11
336.03
21
-139.31
0
LINE
8
BLACK
6
CONTINUOUS
10
336.03
20
-139.31
11
336.095
21
-139.293
0
LINE
8
BLACK
6
CONTINUOUS
10
336.095
20
-139.293
11
336.201
21
-139.299
0
LINE
8
BLACK
6
CONTINUOUS
10
336.201
20
-139.299
11
336.408
21
-139.418
0
LINE
8
BLACK
6
CONTINUOUS
10
336.408
20
-139.418
11
336.466
21
-139.507
0
LINE
8
BLACK
6
CONTINUOUS
10
336.466
20
-139.507
11
336.484
21
-139.572
0
LINE
8
BLACK
6
CONTINUOUS
10
336.484
20
-139.572
11
336.477
21
-139.678
0
LINE
8
BLACK
6
CONTINUOUS
10
336.477
20
-139.678
11
336.358
21
-139.884
0
LINE
8
BLACK
6
CONTINUOUS
10
336.358
20
-139.884
11
336.269
21
-139.943
0
LINE
8
BLACK
6
CONTINUOUS
10
336.269
20
-139.943
11
336.204
21
-139.96
0
LINE
8
BLACK
6
CONTINUOUS
10
337.371
20
-136.559
11
337.082
21
-136.393
0
LINE
8
BLACK
6
CONTINUOUS
10
336.82
20
-136.846
11
337.32
21
-135.98
0
LINE
8
BLACK
6
CONTINUOUS
10
337.32
20
-135.98
11
337.733
21
-136.218
0
LINE
8
BLACK
6
CONTINUOUS
10
338.267
20
-136.912
11
337.934
21
-137.489
0
LINE
8
BLACK
6
CONTINUOUS
10
338.251
20
-136.463
11
337.688
21
-136.962
0
LINE
8
BLACK
6
CONTINUOUS
10
337.688
20
-136.962
11
338.224
21
-137.272
0
LINE
8
BLACK
6
CONTINUOUS
10
339.17
20
-141.453
11
339.337
21
-141.164
0
LINE
8
BLACK
6
CONTINUOUS
10
338.883
20
-140.902
11
339.749
21
-141.402
0
LINE
8
BLACK
6
CONTINUOUS
10
339.749
20
-141.402
11
339.511
21
-141.814
0
LINE
8
BLACK
6
CONTINUOUS
10
339.368
20
-142.062
11
339.058
21
-142.598
0
LINE
8
BLACK
6
CONTINUOUS
10
339.058
20
-142.598
11
338.895
21
-142.119
0
LINE
8
BLACK
6
CONTINUOUS
10
338.895
20
-142.119
11
338.824
21
-142.243
0
LINE
8
BLACK
6
CONTINUOUS
10
338.824
20
-142.243
11
338.735
21
-142.301
0
LINE
8
BLACK
6
CONTINUOUS
10
338.735
20
-142.301
11
338.67
21
-142.319
0
LINE
8
BLACK
6
CONTINUOUS
10
338.67
20
-142.319
11
338.564
21
-142.312
0
LINE
8
BLACK
6
CONTINUOUS
10
338.564
20
-142.312
11
338.357
21
-142.193
0
LINE
8
BLACK
6
CONTINUOUS
10
338.357
20
-142.193
11
338.299
21
-142.104
0
LINE
8
BLACK
6
CONTINUOUS
10
338.299
20
-142.104
11
338.281
21
-142.039
0
LINE
8
BLACK
6
CONTINUOUS
10
338.281
20
-142.039
11
338.288
21
-141.933
0
LINE
8
BLACK
6
CONTINUOUS
10
338.288
20
-141.933
11
338.431
21
-141.686
0
LINE
8
BLACK
6
CONTINUOUS
10
338.431
20
-141.686
11
338.519
21
-141.627
0
LINE
8
BLACK
6
CONTINUOUS
10
338.519
20
-141.627
11
338.584
21
-141.61
0
LINE
8
BLACK
6
CONTINUOUS
10
334.277
20
-143.252
11
334.565
21
-143.419
0
LINE
8
BLACK
6
CONTINUOUS
10
334.827
20
-142.965
11
334.327
21
-143.831
0
LINE
8
BLACK
6
CONTINUOUS
10
334.327
20
-143.831
11
333.915
21
-143.593
0
LINE
8
BLACK
6
CONTINUOUS
10
333.674
20
-143.344
11
333.609
21
-143.361
0
LINE
8
BLACK
6
CONTINUOUS
10
333.609
20
-143.361
11
333.502
21
-143.355
0
LINE
8
BLACK
6
CONTINUOUS
10
333.502
20
-143.355
11
333.296
21
-143.236
0
LINE
8
BLACK
6
CONTINUOUS
10
333.296
20
-143.236
11
333.238
21
-143.147
0
LINE
8
BLACK
6
CONTINUOUS
10
333.238
20
-143.147
11
333.22
21
-143.082
0
LINE
8
BLACK
6
CONTINUOUS
10
333.22
20
-143.082
11
333.227
21
-142.975
0
LINE
8
BLACK
6
CONTINUOUS
10
333.227
20
-142.975
11
333.274
21
-142.893
0
LINE
8
BLACK
6
CONTINUOUS
10
333.274
20
-142.893
11
333.387
21
-142.793
0
LINE
8
BLACK
6
CONTINUOUS
10
333.387
20
-142.793
11
334.167
21
-142.584
0
LINE
8
BLACK
6
CONTINUOUS
10
334.167
20
-142.584
11
333.631
21
-142.274
0
LINE
8
BLACK
6
CONTINUOUS
10
332.477
20
-138.359
11
332.311
21
-138.647
0
LINE
8
BLACK
6
CONTINUOUS
10
332.764
20
-138.909
11
331.898
21
-138.409
0
LINE
8
BLACK
6
CONTINUOUS
10
331.898
20
-138.409
11
332.136
21
-137.997
0
LINE
8
BLACK
6
CONTINUOUS
10
333.455
20
-137.713
11
333.169
21
-138.208
0
LINE
8
BLACK
6
CONTINUOUS
10
333.312
20
-137.961
11
332.446
21
-137.461
0
LINE
8
BLACK
6
CONTINUOUS
10
332.446
20
-137.461
11
332.522
21
-137.615
0
LINE
8
BLACK
6
CONTINUOUS
10
332.522
20
-137.615
11
332.557
21
-137.745
0
LINE
8
BLACK
6
CONTINUOUS
10
332.557
20
-137.745
11
332.551
21
-137.851
0
LINE
8
BLACK
6
CONTINUOUS
10
88.7738
20
-90.6004
11
88.2976
21
-90.9337
0
LINE
8
BLACK
6
CONTINUOUS
10
88.7738
20
-91.1718
11
87.7738
21
-91.1718
0
LINE
8
BLACK
6
CONTINUOUS
10
87.7738
20
-91.1718
11
87.7738
21
-90.7908
0
LINE
8
BLACK
6
CONTINUOUS
10
87.7738
20
-90.7908
11
87.8214
21
-90.6956
0
LINE
8
BLACK
6
CONTINUOUS
10
87.8214
20
-90.6956
11
87.869
21
-90.648
0
LINE
8
BLACK
6
CONTINUOUS
10
87.869
20
-90.648
11
87.9643
21
-90.6004
0
LINE
8
BLACK
6
CONTINUOUS
10
87.9643
20
-90.6004
11
88.1071
21
-90.6004
0
LINE
8
BLACK
6
CONTINUOUS
10
88.1071
20
-90.6004
11
88.2023
21
-90.648
0
LINE
8
BLACK
6
CONTINUOUS
10
88.2023
20
-90.648
11
88.25
21
-90.6956
0
LINE
8
BLACK
6
CONTINUOUS
10
88.25
20
-90.6956
11
88.2976
21
-90.7908
0
LINE
8
BLACK
6
CONTINUOUS
10
88.2976
20
-90.7908
11
88.2976
21
-91.1718
0
LINE
8
BLACK
6
CONTINUOUS
10
88.1071
20
-89.7432
11
88.7738
21
-89.7432
0
LINE
8
BLACK
6
CONTINUOUS
10
87.7262
20
-89.9813
11
88.4404
21
-90.2194
0
LINE
8
BLACK
6
CONTINUOUS
10
88.4404
20
-90.2194
11
88.4404
21
-89.6004
0
LINE
8
BLACK
6
CONTINUOUS
10
329.209
20
-90.6004
11
328.733
21
-90.9337
0
LINE
8
BLACK
6
CONTINUOUS
10
329.209
20
-91.1718
11
328.209
21
-91.1718
0
LINE
8
BLACK
6
CONTINUOUS
10
328.209
20
-91.1718
11
328.209
21
-90.7908
0
LINE
8
BLACK
6
CONTINUOUS
10
328.209
20
-90.7908
11
328.256
21
-90.6956
0
LINE
8
BLACK
6
CONTINUOUS
10
328.256
20
-90.6956
11
328.304
21
-90.648
0
LINE
8
BLACK
6
CONTINUOUS
10
328.304
20
-90.648
11
328.399
21
-90.6004
0
LINE
8
BLACK
6
CONTINUOUS
10
328.399
20
-90.6004
11
328.542
21
-90.6004
0
LINE
8
BLACK
6
CONTINUOUS
10
328.542
20
-90.6004
11
328.637
21
-90.648
0
LINE
8
BLACK
6
CONTINUOUS
10
328.637
20
-90.648
11
328.685
21
-90.6956
0
LINE
8
BLACK
6
CONTINUOUS
10
328.685
20
-90.6956
11
328.733
21
-90.7908
0
LINE
8
BLACK
6
CONTINUOUS
10
328.733
20
-90.7908
11
328.733
21
-91.1718
0
LINE
8
BLACK
6
CONTINUOUS
10
329.209
20
-89.648
11
329.209
21
-90.2194
0
LINE
8
BLACK
6
CONTINUOUS
10
329.209
20
-89.9337
11
328.209
21
-89.9337
0
LINE
8
BLACK
6
CONTINUOUS
10
328.209
20
-89.9337
11
328.352
21
-90.0289
0
LINE
8
BLACK
6
CONTINUOUS
10
328.352
20
-90.0289
11
328.447
21
-90.1242
0
LINE
8
BLACK
6
CONTINUOUS
10
328.447
20
-90.1242
11
328.494
21
-90.2194
  0
ENDSEC
  0
EOF
