  0
SECTION
  2
HEADER
  9
$ANGBASE
  50
0.0
  9
$ANGDIR
  70
1
  9
$MEASUREMENT
  70
1
  0
ENDSEC
  0
SECTION
  2
TABLES
  0
TABLE
  2
LTYPE
  70
4
  0
LTYPE
  5
40F
  2
CONTINUOUS
  70
0
  3
Solid line
  72
65
  73
0
  40
0.0
  0
LTYPE
  5
410
  2
DASHDOT
 70
0
  3
Dash Dot ____ _ ____ _
 72
65
 73
4
 40
2.0
 49
1.25
 49
-0.25
 49
0.25
 49
-0.25
  0
LTYPE
  5
411
  2
DASHED
 70
0
  3
Dashed __ __ __ __ __
 72
65
 73
2
 40
0.75
 49
0.5
 49
-0.25
  0
LTYPE
  5
43B
  2
DOTTED
 70
0
  3
Dotted .  .  .  .
 72
65
 73
2
 40
0.2
 49
0.0
 49
-0.2
  0
ENDTAB
  0
TABLE
  2
STYLE
  70
4
  0
STYLE
  2
KICAD
  70
0
  40
0
  41
1
  42
1
  50
0
  71
0
  3
isocp.shx
  0
STYLE
  2
KICADB
  70
0
  40
0
  41
1
  42
1
  50
0
  71
0
  3
isocp.shx
  0
STYLE
  2
KICADI
  70
0
  40
0
  41
1
  42
1
  50
15
  71
0
  3
isocp.shx
  0
STYLE
  2
KICADBI
  70
0
  40
0
  41
1
  42
1
  50
15
  71
0
  3
isocp.shx
  0
ENDTAB
  0
TABLE
  2
LAYER
  70
1
  0
LAYER
  2
BLACK
  70
0
  62
7
  6
CONTINUOUS
  0
ENDTAB
  0
ENDSEC
  0
SECTION
  2
ENTITIES
0
LINE
8
BLACK
6
CONTINUOUS
10
328.199
20
-168.099
11
308.974
21
-156.855
0
ARC
8
BLACK
10
328.699
20
-167.232
40
1
50
-120
51
-30
0
ARC
8
BLACK
10
307.09
20
-160.119
40
3.76861
50
60
51
89.6793
0
LINE
8
BLACK
6
CONTINUOUS
10
307.111
20
-156.35
11
210.077
21
-156.35
0
LINE
8
BLACK
6
CONTINUOUS
10
346.65
20
-138.264
11
329.563
21
-167.736
0
LINE
8
BLACK
6
CONTINUOUS
10
347.152
20
-118.548
11
347.152
21
-136.398
0
ARC
8
BLACK
10
343.408
20
-136.392
40
3.74348
50
-30
51
-0.100944
0
LINE
8
BLACK
6
CONTINUOUS
10
347.152
20
-108.748
11
347.152
21
-56.2581
0
LINE
8
BLACK
6
CONTINUOUS
10
253.963
20
-55.2581
11
327.874
21
-55.2649
0
LINE
8
BLACK
6
CONTINUOUS
10
210.078
20
-63.3353
11
243.918
21
-63.3353
0
LINE
8
BLACK
6
CONTINUOUS
10
245.624
20
-62.6268
11
252.257
21
-55.9665
0
ARC
8
BLACK
10
243.918
20
-60.928
40
2.40726
50
-90
51
-44.8829
0
ARC
8
BLACK
10
253.963
20
-57.665
40
2.40694
50
89.9947
51
135.117
0
LINE
8
BLACK
6
CONTINUOUS
10
93.5774
20
-131.073
11
93.5774
21
-96.4484
0
LINE
8
BLACK
6
CONTINUOUS
10
75.5024
20
-97.4484
11
75.5024
21
-96.4484
0
LINE
8
BLACK
6
CONTINUOUS
10
209.077
20
-92.8624
11
208.077
21
-92.8624
0
LINE
8
BLACK
6
CONTINUOUS
10
71.0024
20
-97.4484
11
75.5024
21
-97.4484
0
LINE
8
BLACK
6
CONTINUOUS
10
71.0024
20
-96.4484
11
75.5024
21
-96.4484
0
ARC
8
BLACK
10
77.5024
20
-106.448
40
1.00004
50
-179.997
51
-89.9974
0
ARC
8
BLACK
10
77.5024
20
-120.848
40
1.00004
50
-269.997
51
-179.997
0
LINE
8
BLACK
6
CONTINUOUS
10
71.0024
20
-131.073
11
71.0024
21
-130.073
0
LINE
8
BLACK
6
CONTINUOUS
10
70.0024
20
-118.548
11
70.0024
21
-136.398
0
LINE
8
BLACK
6
CONTINUOUS
10
70.0024
20
-108.748
11
70.0024
21
-56.2581
0
LINE
8
BLACK
6
CONTINUOUS
10
93.5774
20
-96.4484
11
76.5016
21
-96.4484
0
LINE
8
BLACK
6
CONTINUOUS
10
75.3524
20
-118.548
11
75.3524
21
-108.748
0
LINE
8
BLACK
6
CONTINUOUS
10
75.3524
20
-108.748
11
70.0024
21
-108.748
0
LINE
8
BLACK
6
CONTINUOUS
10
77.5025
20
-107.448
11
77.9274
21
-107.448
0
LINE
8
BLACK
6
CONTINUOUS
10
71.0024
20
-96.4484
11
71.0024
21
-97.4484
0
LINE
8
BLACK
6
CONTINUOUS
10
70.0024
20
-118.548
11
75.3524
21
-118.548
0
LINE
8
BLACK
6
CONTINUOUS
10
208.28
20
-65.5066
11
208.874
21
-65.5066
0
ARC
8
BLACK
10
208.28
20
-65.3034
40
0.203195
50
-180
51
-90.0006
0
LINE
8
BLACK
6
CONTINUOUS
10
208.28
20
-154.178
11
208.874
21
-154.178
0
ARC
8
BLACK
10
208.874
20
-65.3034
40
0.203196
50
-89.9986
51
0.000563945
0
LINE
8
BLACK
6
CONTINUOUS
10
78.9274
20
-108.448
11
78.9274
21
-118.848
0
ARC
8
BLACK
10
208.874
20
-154.381
40
0.203195
50
0.000281971
51
89.9994
0
LINE
8
BLACK
6
CONTINUOUS
10
77.5024
20
-119.848
11
77.9274
21
-119.848
0
LINE
8
BLACK
6
CONTINUOUS
10
93.5782
20
-131.073
11
76.5024
21
-131.073
0
ARC
8
BLACK
10
77.9274
20
-108.448
40
1.00005
50
0.0025209
51
90.0025
0
LINE
8
BLACK
6
CONTINUOUS
10
75.5024
20
-130.073
11
75.5024
21
-131.073
0
ARC
8
BLACK
10
208.28
20
-154.381
40
0.203195
50
90.0006
51
180
0
LINE
8
BLACK
6
CONTINUOUS
10
209.077
20
-71.0438
11
208.077
21
-71.0438
0
LINE
8
BLACK
6
CONTINUOUS
10
76.5024
20
-106.448
11
76.5016
21
-96.4484
0
ARC
8
BLACK
10
77.9274
20
-118.848
40
1.00004
50
-89.9975
51
0.0025209
0
LINE
8
BLACK
6
CONTINUOUS
10
209.077
20
-87.4268
11
208.077
21
-87.4268
0
LINE
8
BLACK
6
CONTINUOUS
10
76.5024
20
-120.848
11
76.5024
21
-131.073
0
LINE
8
BLACK
6
CONTINUOUS
10
71.0024
20
-130.073
11
75.5024
21
-130.073
0
LINE
8
BLACK
6
CONTINUOUS
10
71.0024
20
-131.073
11
75.5024
21
-131.073
0
ARC
8
BLACK
10
210.077
20
-155.35
40
0.999751
50
179.986
51
269.986
0
ARC
8
BLACK
10
210.078
20
-64.3353
40
1
50
90
51
180
0
LINE
8
BLACK
6
CONTINUOUS
10
74.8224
20
-88.6672
11
88.2804
21
-88.6672
0
LINE
8
BLACK
6
CONTINUOUS
10
88.9552
20
-168.099
11
108.18
21
-156.855
0
LINE
8
BLACK
6
CONTINUOUS
10
209.077
20
-111.912
11
208.077
21
-111.912
0
LINE
8
BLACK
6
CONTINUOUS
10
209.077
20
-71.0438
11
209.077
21
-87.4268
0
LINE
8
BLACK
6
CONTINUOUS
10
209.077
20
-65.3034
11
209.078
21
-64.3353
0
LINE
8
BLACK
6
CONTINUOUS
10
208.077
20
-111.912
11
208.077
21
-125.527
0
LINE
8
BLACK
6
CONTINUOUS
10
209.077
20
-130.912
11
209.077
21
-148.666
0
ARC
8
BLACK
10
71.0024
20
-56.2581
40
0.999999
50
89.9999
51
180
0
LINE
8
BLACK
6
CONTINUOUS
10
171.53
20
-62.6268
11
164.897
21
-55.9665
0
LINE
8
BLACK
6
CONTINUOUS
10
209.077
20
-148.666
11
208.077
21
-148.666
0
ARC
8
BLACK
10
88.4552
20
-167.232
40
0.999999
50
-150
51
-60
0
LINE
8
BLACK
6
CONTINUOUS
10
209.077
20
-125.527
11
209.077
21
-111.912
0
LINE
8
BLACK
6
CONTINUOUS
10
88.2804
20
-56.265
11
88.2804
21
-88.6672
0
ARC
8
BLACK
10
163.191
20
-57.665
40
2.40695
50
44.883
51
90.0053
0
LINE
8
BLACK
6
CONTINUOUS
10
70.5039
20
-138.264
11
87.5909
21
-167.736
0
ARC
8
BLACK
10
207.076
20
-64.3353
40
1
50
0.000114592
51
90.0001
0
LINE
8
BLACK
6
CONTINUOUS
10
110.043
20
-156.35
11
207.077
21
-156.35
0
LINE
8
BLACK
6
CONTINUOUS
10
209.077
20
-154.381
11
209.078
21
-155.35
0
ARC
8
BLACK
10
207.077
20
-155.35
40
0.999749
50
-89.9857
51
0.0142702
0
LINE
8
BLACK
6
CONTINUOUS
10
208.077
20
-130.912
11
209.077
21
-130.912
0
ARC
8
BLACK
10
173.236
20
-60.928
40
2.40726
50
-135.117
51
-90
0
LINE
8
BLACK
6
CONTINUOUS
10
73.8224
20
-55.2581
11
71.0024
21
-55.2581
0
LINE
8
BLACK
6
CONTINUOUS
10
208.077
20
-87.4268
11
208.077
21
-71.0438
0
LINE
8
BLACK
6
CONTINUOUS
10
208.076
20
-64.3353
11
208.077
21
-65.3034
0
LINE
8
BLACK
6
CONTINUOUS
10
208.077
20
-154.381
11
208.076
21
-155.35
0
ARC
8
BLACK
10
89.2804
20
-56.265
40
1.00004
50
-269.998
51
-179.998
0
LINE
8
BLACK
6
CONTINUOUS
10
208.077
20
-106.528
11
208.077
21
-92.8624
0
LINE
8
BLACK
6
CONTINUOUS
10
209.077
20
-125.527
11
208.077
21
-125.527
0
LINE
8
BLACK
6
CONTINUOUS
10
207.076
20
-63.3353
11
173.236
21
-63.3353
0
LINE
8
BLACK
6
CONTINUOUS
10
208.077
20
-148.666
11
208.077
21
-130.912
0
LINE
8
BLACK
6
CONTINUOUS
10
209.077
20
-106.528
11
208.077
21
-106.528
0
ARC
8
BLACK
10
73.7459
20
-136.392
40
3.74348
50
-179.899
51
-150
0
LINE
8
BLACK
6
CONTINUOUS
10
74.8224
20
-88.6672
11
74.8224
21
-56.2581
0
ARC
8
BLACK
10
110.064
20
-160.119
40
3.76861
50
90.3207
51
120
0
LINE
8
BLACK
6
CONTINUOUS
10
163.191
20
-55.2581
11
89.2804
21
-55.2649
0
LINE
8
BLACK
6
CONTINUOUS
10
209.077
20
-92.8624
11
209.077
21
-106.528
0
ARC
8
BLACK
10
73.8224
20
-56.2581
40
1
50
-5.72957e-05
51
89.9999
0
LINE
8
BLACK
6
CONTINUOUS
10
339.652
20
-107.448
11
339.227
21
-107.448
0
LINE
8
BLACK
6
CONTINUOUS
10
340.652
20
-106.448
11
340.653
21
-96.4484
0
ARC
8
BLACK
10
339.652
20
-120.848
40
1.00004
50
-0.00263549
51
89.9974
0
LINE
8
BLACK
6
CONTINUOUS
10
340.652
20
-120.848
11
340.652
21
-131.073
0
ARC
8
BLACK
10
339.652
20
-106.448
40
1.00004
50
-90.0025
51
-0.00246362
0
LINE
8
BLACK
6
CONTINUOUS
10
339.652
20
-119.848
11
339.227
21
-119.848
0
LINE
8
BLACK
6
CONTINUOUS
10
346.152
20
-130.073
11
341.652
21
-130.073
0
LINE
8
BLACK
6
CONTINUOUS
10
346.152
20
-131.073
11
346.152
21
-130.073
0
LINE
8
BLACK
6
CONTINUOUS
10
341.652
20
-130.073
11
341.652
21
-131.073
0
LINE
8
BLACK
6
CONTINUOUS
10
346.152
20
-131.073
11
341.652
21
-131.073
0
LINE
8
BLACK
6
CONTINUOUS
10
346.152
20
-96.4484
11
341.652
21
-96.4484
0
LINE
8
BLACK
6
CONTINUOUS
10
341.652
20
-97.4484
11
341.652
21
-96.4484
0
LINE
8
BLACK
6
CONTINUOUS
10
346.152
20
-96.4484
11
346.152
21
-97.4484
0
LINE
8
BLACK
6
CONTINUOUS
10
346.152
20
-97.4484
11
341.652
21
-97.4484
0
LINE
8
BLACK
6
CONTINUOUS
10
338.227
20
-108.448
11
338.227
21
-118.848
0
ARC
8
BLACK
10
339.227
20
-118.848
40
1.00005
50
179.997
51
269.997
0
ARC
8
BLACK
10
339.227
20
-108.448
40
1.00005
50
89.9975
51
179.997
0
LINE
8
BLACK
6
CONTINUOUS
10
323.577
20
-96.4485
11
340.652
21
-96.4484
0
LINE
8
BLACK
6
CONTINUOUS
10
323.577
20
-131.073
11
323.577
21
-96.4485
0
LINE
8
BLACK
6
CONTINUOUS
10
323.577
20
-131.073
11
340.652
21
-131.073
0
LINE
8
BLACK
6
CONTINUOUS
10
341.802
20
-108.748
11
347.152
21
-108.748
0
LINE
8
BLACK
6
CONTINUOUS
10
341.802
20
-118.548
11
341.802
21
-108.748
0
LINE
8
BLACK
6
CONTINUOUS
10
347.152
20
-118.548
11
341.802
21
-118.548
0
LINE
8
BLACK
6
CONTINUOUS
10
342.332
20
-88.6672
11
328.874
21
-88.6672
0
LINE
8
BLACK
6
CONTINUOUS
10
343.332
20
-55.2581
11
346.152
21
-55.2581
0
ARC
8
BLACK
10
346.152
20
-56.2581
40
1
50
-0
51
90
0
LINE
8
BLACK
6
CONTINUOUS
10
342.332
20
-88.6672
11
342.332
21
-56.2581
0
LINE
8
BLACK
6
CONTINUOUS
10
328.874
20
-56.265
11
328.874
21
-88.6672
0
ARC
8
BLACK
10
343.332
20
-56.2581
40
1
50
90
51
180
0
ARC
8
BLACK
10
327.874
20
-56.265
40
1.00005
50
-0.00257819
51
89.9974
  0
ENDSEC
  0
EOF
